G04 Layer_Physical_Order=1*
G04 Layer_Color=255*
%FSLAX25Y25*%
%MOIN*%
G70*
G01*
G75*
G04:AMPARAMS|DCode=10|XSize=40mil|YSize=55mil|CornerRadius=5mil|HoleSize=0mil|Usage=FLASHONLY|Rotation=180.000|XOffset=0mil|YOffset=0mil|HoleType=Round|Shape=RoundedRectangle|*
%AMROUNDEDRECTD10*
21,1,0.04000,0.04500,0,0,180.0*
21,1,0.03000,0.05500,0,0,180.0*
1,1,0.01000,-0.01500,0.02250*
1,1,0.01000,0.01500,0.02250*
1,1,0.01000,0.01500,-0.02250*
1,1,0.01000,-0.01500,-0.02250*
%
%ADD10ROUNDEDRECTD10*%
G04:AMPARAMS|DCode=11|XSize=35mil|YSize=35mil|CornerRadius=4.38mil|HoleSize=0mil|Usage=FLASHONLY|Rotation=90.000|XOffset=0mil|YOffset=0mil|HoleType=Round|Shape=RoundedRectangle|*
%AMROUNDEDRECTD11*
21,1,0.03500,0.02625,0,0,90.0*
21,1,0.02625,0.03500,0,0,90.0*
1,1,0.00875,0.01312,0.01312*
1,1,0.00875,0.01312,-0.01312*
1,1,0.00875,-0.01312,-0.01312*
1,1,0.00875,-0.01312,0.01312*
%
%ADD11ROUNDEDRECTD11*%
G04:AMPARAMS|DCode=12|XSize=35mil|YSize=35mil|CornerRadius=4.38mil|HoleSize=0mil|Usage=FLASHONLY|Rotation=180.000|XOffset=0mil|YOffset=0mil|HoleType=Round|Shape=RoundedRectangle|*
%AMROUNDEDRECTD12*
21,1,0.03500,0.02625,0,0,180.0*
21,1,0.02625,0.03500,0,0,180.0*
1,1,0.00875,-0.01312,0.01312*
1,1,0.00875,0.01312,0.01312*
1,1,0.00875,0.01312,-0.01312*
1,1,0.00875,-0.01312,-0.01312*
%
%ADD12ROUNDEDRECTD12*%
%ADD13C,0.03937*%
%ADD14R,0.08500X0.10799*%
%ADD15R,0.30000X0.40000*%
%ADD16R,0.06500X0.02500*%
%ADD17R,0.06500X0.12000*%
%ADD18R,0.12000X0.06500*%
%ADD19R,0.10799X0.08500*%
G04:AMPARAMS|DCode=20|XSize=23.62mil|YSize=61.02mil|CornerRadius=5.91mil|HoleSize=0mil|Usage=FLASHONLY|Rotation=270.000|XOffset=0mil|YOffset=0mil|HoleType=Round|Shape=RoundedRectangle|*
%AMROUNDEDRECTD20*
21,1,0.02362,0.04921,0,0,270.0*
21,1,0.01181,0.06102,0,0,270.0*
1,1,0.01181,-0.02461,-0.00591*
1,1,0.01181,-0.02461,0.00591*
1,1,0.01181,0.02461,0.00591*
1,1,0.01181,0.02461,-0.00591*
%
%ADD20ROUNDEDRECTD20*%
G04:AMPARAMS|DCode=21|XSize=23.62mil|YSize=61.02mil|CornerRadius=5.91mil|HoleSize=0mil|Usage=FLASHONLY|Rotation=180.000|XOffset=0mil|YOffset=0mil|HoleType=Round|Shape=RoundedRectangle|*
%AMROUNDEDRECTD21*
21,1,0.02362,0.04921,0,0,180.0*
21,1,0.01181,0.06102,0,0,180.0*
1,1,0.01181,-0.00591,0.02461*
1,1,0.01181,0.00591,0.02461*
1,1,0.01181,0.00591,-0.02461*
1,1,0.01181,-0.00591,-0.02461*
%
%ADD21ROUNDEDRECTD21*%
%ADD22R,0.09843X0.12598*%
%ADD23R,0.06600X0.06000*%
%ADD24R,0.08000X0.07000*%
%ADD25R,0.05512X0.07874*%
%ADD26R,0.06000X0.06600*%
%ADD27R,0.05000X0.05000*%
%ADD28R,0.05984X0.02205*%
%ADD29R,0.02205X0.05984*%
%ADD30R,0.12598X0.09843*%
%ADD31R,0.05906X0.01575*%
%ADD32C,0.02000*%
%ADD33C,0.01000*%
%ADD34C,0.04000*%
%ADD35C,0.03000*%
%ADD36R,0.06500X0.06500*%
%ADD37C,0.06500*%
%ADD38C,0.19685*%
%ADD39R,0.06500X0.06500*%
%ADD40C,0.07283*%
%ADD41R,0.07283X0.07283*%
%ADD42O,0.17000X0.08000*%
%ADD43O,0.08000X0.17000*%
%ADD44C,0.04800*%
%ADD45P,0.14235X8X292.5*%
%ADD46O,0.11220X0.05610*%
%ADD47C,0.02800*%
%ADD48C,0.05000*%
G36*
X393701Y245020D02*
X318770D01*
Y250500D01*
X318692Y250890D01*
X318471Y251221D01*
X318140Y251442D01*
X317750Y251520D01*
X311250D01*
X310860Y251442D01*
X310529Y251221D01*
X310308Y250890D01*
X310230Y250500D01*
Y245020D01*
X278729D01*
Y248215D01*
X279729Y248313D01*
X279739Y248264D01*
X280270Y247470D01*
X281064Y246939D01*
X282000Y246753D01*
X282936Y246939D01*
X283730Y247470D01*
X284261Y248264D01*
X284447Y249200D01*
X284261Y250136D01*
X284064Y250430D01*
X284599Y251430D01*
X285250D01*
X285640Y251508D01*
X285971Y251729D01*
X286192Y252060D01*
X286270Y252450D01*
Y254950D01*
X286192Y255340D01*
X285996Y255634D01*
X285971Y255695D01*
Y256705D01*
X285996Y256766D01*
X286192Y257060D01*
X286270Y257450D01*
Y257700D01*
X282000D01*
Y259700D01*
X286270D01*
Y259950D01*
X286192Y260340D01*
X285996Y260634D01*
X285971Y260695D01*
Y261705D01*
X285996Y261766D01*
X286192Y262060D01*
X286270Y262450D01*
Y264950D01*
X286192Y265340D01*
X285996Y265634D01*
X285971Y265694D01*
Y266271D01*
X286778Y267171D01*
X287878D01*
Y267088D01*
X287989Y266527D01*
X288307Y266051D01*
Y265297D01*
X287989Y264821D01*
X287878Y264260D01*
Y261635D01*
X287989Y261074D01*
X288307Y260599D01*
Y259844D01*
X287989Y259369D01*
X287878Y258808D01*
Y258495D01*
X290656D01*
Y256495D01*
X287878D01*
Y256183D01*
X287989Y255622D01*
X288307Y255146D01*
Y254392D01*
X287989Y253916D01*
X287878Y253355D01*
Y253043D01*
X290656D01*
Y252043D01*
X291656D01*
Y249265D01*
X291968D01*
X292529Y249376D01*
X293005Y249694D01*
X293100Y249837D01*
X293141Y249852D01*
X294171D01*
X294212Y249837D01*
X294307Y249694D01*
X294782Y249376D01*
X295343Y249265D01*
X297968D01*
X298529Y249376D01*
X299005Y249694D01*
X300191Y249801D01*
X300219Y249782D01*
X301156Y249596D01*
X302092Y249782D01*
X302886Y250313D01*
X303417Y251107D01*
X303603Y252043D01*
X303417Y252979D01*
X302886Y253773D01*
X302195Y254235D01*
X302140Y254769D01*
X302195Y255303D01*
X302886Y255765D01*
X303417Y256559D01*
X303603Y257495D01*
X303417Y258432D01*
X302886Y259226D01*
X302092Y259756D01*
X301156Y259942D01*
X300219Y259756D01*
X299365Y260164D01*
X299162Y260834D01*
X299323Y261074D01*
X299434Y261635D01*
Y261948D01*
X296656D01*
Y263948D01*
X299434D01*
Y264260D01*
X299323Y264821D01*
X299005Y265297D01*
Y266051D01*
X299323Y266527D01*
X299411Y266972D01*
X299485Y266987D01*
X299981Y267319D01*
X300263Y267600D01*
X300500Y267553D01*
X301436Y267739D01*
X302230Y268270D01*
X302761Y269064D01*
X302947Y270000D01*
X302761Y270936D01*
X302736Y270974D01*
X302930Y271552D01*
X303254Y271998D01*
X303854Y272077D01*
X304584Y272379D01*
X305211Y272860D01*
X313640Y281289D01*
X314121Y281916D01*
X314423Y282646D01*
X314526Y283429D01*
Y304600D01*
X314526Y304600D01*
X314423Y305383D01*
X314121Y306113D01*
X313640Y306740D01*
X313640Y306740D01*
X307264Y313116D01*
X307270Y313180D01*
X307491Y313510D01*
X307569Y313900D01*
Y324699D01*
X307491Y325090D01*
X307270Y325420D01*
X306939Y325641D01*
X306549Y325719D01*
X305325D01*
Y332281D01*
X306549D01*
X306939Y332359D01*
X307270Y332579D01*
X307491Y332910D01*
X307569Y333300D01*
Y344099D01*
X307537Y344258D01*
X308440Y345160D01*
X308440Y345160D01*
X308921Y345787D01*
X309223Y346517D01*
X309326Y347300D01*
X309326Y347300D01*
Y353065D01*
X309331Y353069D01*
X310012Y353957D01*
X310441Y354991D01*
X310587Y356100D01*
X310441Y357209D01*
X310012Y358243D01*
X309331Y359131D01*
X309326Y359135D01*
Y376690D01*
X309326Y376690D01*
X309223Y377473D01*
X309051Y377888D01*
Y382242D01*
X308974Y382632D01*
X308752Y382962D01*
X308422Y383184D01*
X308032Y383261D01*
X300748D01*
X300358Y383184D01*
X300027Y382962D01*
X299806Y382632D01*
X299729Y382242D01*
Y374958D01*
X298779Y374607D01*
X298440Y375050D01*
X298440Y375050D01*
X295245Y378244D01*
X295292Y378600D01*
X295132Y379812D01*
X294664Y380941D01*
X293920Y381910D01*
X292951Y382654D01*
X291822Y383122D01*
X290610Y383282D01*
X289398Y383122D01*
X288269Y382654D01*
X287300Y381910D01*
X286556Y380941D01*
X286088Y379812D01*
X285929Y378600D01*
X286088Y377388D01*
X286556Y376259D01*
X287300Y375290D01*
X288269Y374546D01*
X289398Y374078D01*
X290610Y373918D01*
X290966Y373965D01*
X293274Y371657D01*
Y359135D01*
X293269Y359131D01*
X292588Y358243D01*
X292159Y357209D01*
X292013Y356100D01*
X292159Y354991D01*
X292467Y354247D01*
X283340Y345119D01*
X279737D01*
X279346Y345041D01*
X279016Y344820D01*
X278795Y344490D01*
X278717Y344099D01*
Y333300D01*
X278795Y332910D01*
X279016Y332579D01*
X279346Y332359D01*
X279737Y332281D01*
X280961D01*
Y325719D01*
X279737D01*
X279346Y325641D01*
X279016Y325420D01*
X278795Y325090D01*
X278717Y324699D01*
Y313900D01*
X278795Y313510D01*
X279016Y313179D01*
X279346Y312959D01*
X279737Y312881D01*
X284040D01*
X293160Y303760D01*
X293160Y303760D01*
X293787Y303279D01*
X294437Y303010D01*
X294546Y302617D01*
X294598Y301958D01*
X294044Y301445D01*
X293059Y301518D01*
X293005Y301599D01*
X292529Y301917D01*
X291968Y302028D01*
X289343D01*
X288783Y301917D01*
X288307Y301599D01*
X287989Y301123D01*
X287878Y300562D01*
Y297937D01*
X287989Y297377D01*
X288307Y296901D01*
X288296Y296831D01*
X287574Y296237D01*
X286493Y296384D01*
X286150Y296998D01*
X286192Y297060D01*
X286270Y297450D01*
Y299950D01*
X286192Y300340D01*
X285971Y300671D01*
X285640Y300892D01*
X285250Y300970D01*
X284139D01*
Y303032D01*
X284361Y303364D01*
X284547Y304300D01*
X284361Y305236D01*
X283830Y306030D01*
X283036Y306561D01*
X282100Y306747D01*
X281164Y306561D01*
X280370Y306030D01*
X279839Y305236D01*
X279653Y304300D01*
X279839Y303364D01*
X280061Y303032D01*
Y300970D01*
X278750D01*
X278360Y300892D01*
X278029Y300671D01*
X277808Y300340D01*
X277730Y299950D01*
Y297450D01*
X277808Y297060D01*
X278005Y296766D01*
X278029Y296706D01*
Y295694D01*
X278005Y295634D01*
X277808Y295340D01*
X277730Y294950D01*
Y292450D01*
X277808Y292060D01*
X278005Y291766D01*
X278029Y291705D01*
Y290694D01*
X278005Y290634D01*
X277808Y290340D01*
X277730Y289950D01*
Y287450D01*
X277808Y287060D01*
X278005Y286766D01*
X278029Y286705D01*
Y285695D01*
X278005Y285634D01*
X277808Y285340D01*
X277730Y284950D01*
Y282450D01*
X277808Y282060D01*
X278005Y281766D01*
X278029Y281705D01*
Y280695D01*
X278005Y280634D01*
X277808Y280340D01*
X277730Y279950D01*
Y277450D01*
X277808Y277060D01*
X278005Y276766D01*
X278029Y276706D01*
Y275694D01*
X278005Y275634D01*
X277808Y275340D01*
X277730Y274950D01*
Y274393D01*
X274119Y270781D01*
X273787Y270285D01*
X273671Y269700D01*
Y241906D01*
X273280Y241604D01*
X272671Y241294D01*
X271900Y241447D01*
X270964Y241261D01*
X270170Y240730D01*
X270036Y240529D01*
X239481D01*
X238914Y241529D01*
X239047Y242200D01*
X239000Y242437D01*
X239681Y243119D01*
X240013Y243615D01*
X240129Y244200D01*
Y254135D01*
X240777Y254513D01*
X241580Y253965D01*
X241739Y253164D01*
X242270Y252370D01*
X243064Y251839D01*
X244000Y251653D01*
X244936Y251839D01*
X245730Y252370D01*
X246261Y253164D01*
X246447Y254100D01*
X246431Y254180D01*
X247252Y255180D01*
X248248D01*
X249069Y254180D01*
X249053Y254100D01*
X249239Y253164D01*
X249770Y252370D01*
X250564Y251839D01*
X251500Y251653D01*
X252436Y251839D01*
X253230Y252370D01*
X253761Y253164D01*
X253947Y254100D01*
X253931Y254180D01*
X254752Y255180D01*
X255748D01*
X256569Y254180D01*
X256553Y254100D01*
X256739Y253164D01*
X257270Y252370D01*
X258064Y251839D01*
X259000Y251653D01*
X259936Y251839D01*
X260730Y252370D01*
X261261Y253164D01*
X261447Y254100D01*
X261431Y254180D01*
X262252Y255180D01*
X263248D01*
X264069Y254180D01*
X264053Y254100D01*
X264239Y253164D01*
X264770Y252370D01*
X265564Y251839D01*
X266500Y251653D01*
X267436Y251839D01*
X268230Y252370D01*
X268761Y253164D01*
X268947Y254100D01*
X268931Y254180D01*
X269752Y255180D01*
X270500D01*
X270890Y255258D01*
X271221Y255479D01*
X271442Y255810D01*
X271520Y256200D01*
Y296200D01*
X271442Y296590D01*
X271221Y296921D01*
X270890Y297142D01*
X270197Y298050D01*
X270011Y298986D01*
X269480Y299780D01*
X268686Y300311D01*
X267750Y300497D01*
X266814Y300311D01*
X266020Y299780D01*
X265489Y298986D01*
X265303Y298050D01*
X265314Y297993D01*
X264680Y297220D01*
X263320D01*
X262686Y297993D01*
X262697Y298050D01*
X262511Y298986D01*
X261980Y299780D01*
X261186Y300311D01*
X260250Y300497D01*
X259314Y300311D01*
X258520Y299780D01*
X257989Y298986D01*
X257803Y298050D01*
X257814Y297993D01*
X257180Y297220D01*
X255820D01*
X255186Y297993D01*
X255197Y298050D01*
X255011Y298986D01*
X254480Y299780D01*
X253686Y300311D01*
X252750Y300497D01*
X251814Y300311D01*
X251020Y299780D01*
X250489Y298986D01*
X250303Y298050D01*
X250314Y297993D01*
X249680Y297220D01*
X248320D01*
X247686Y297993D01*
X247697Y298050D01*
X247511Y298986D01*
X246980Y299780D01*
X246186Y300311D01*
X245250Y300497D01*
X244314Y300311D01*
X243520Y299780D01*
X242989Y298986D01*
X242803Y298050D01*
X242814Y297993D01*
X242180Y297220D01*
X240500D01*
X240129Y297524D01*
Y383100D01*
X240013Y383685D01*
X239681Y384181D01*
X236192Y387671D01*
X236264Y388127D01*
X236551Y388671D01*
X278900D01*
X279283Y387747D01*
X272114Y380579D01*
X267644D01*
X267510Y380780D01*
X266716Y381310D01*
X265779Y381496D01*
X264843Y381310D01*
X264049Y380780D01*
X263519Y379986D01*
X263333Y379049D01*
X263519Y378113D01*
X263166Y377139D01*
X262544Y376933D01*
X262343Y377067D01*
X261783Y377178D01*
X259157D01*
X258597Y377067D01*
X258121Y376749D01*
X257409D01*
X256933Y377067D01*
X256372Y377178D01*
X256060D01*
Y374400D01*
X255060D01*
Y373400D01*
X252282D01*
Y373088D01*
X252393Y372527D01*
X252711Y372051D01*
X252854Y371956D01*
X252869Y371915D01*
Y370885D01*
X252854Y370844D01*
X252711Y370749D01*
X252393Y370273D01*
X252282Y369712D01*
Y367088D01*
X252393Y366527D01*
X252711Y366051D01*
X253187Y365733D01*
X253581Y365655D01*
Y360370D01*
X253050D01*
X252660Y360292D01*
X252329Y360071D01*
X252108Y359740D01*
X252030Y359350D01*
Y352850D01*
X252108Y352460D01*
X252329Y352129D01*
X252660Y351908D01*
X253050Y351830D01*
X259550D01*
X259940Y351908D01*
X260271Y352129D01*
X260492Y352460D01*
X260570Y352850D01*
Y358703D01*
X261570Y359118D01*
X262545Y358142D01*
X262159Y357209D01*
X262013Y356100D01*
X262159Y354991D01*
X262588Y353957D01*
X263269Y353069D01*
X264157Y352388D01*
X265191Y351959D01*
X266300Y351813D01*
X267409Y351959D01*
X268443Y352388D01*
X269331Y353069D01*
X270012Y353957D01*
X270441Y354991D01*
X270481Y355301D01*
X271416Y355658D01*
X272142Y355123D01*
X272159Y354991D01*
X272588Y353957D01*
X273269Y353069D01*
X274157Y352388D01*
X275190Y351959D01*
X276300Y351813D01*
X277410Y351959D01*
X278443Y352388D01*
X279331Y353069D01*
X280012Y353957D01*
X280441Y354991D01*
X280587Y356100D01*
X280441Y357209D01*
X280012Y358243D01*
X279331Y359131D01*
X278443Y359812D01*
X277410Y360241D01*
X276300Y360387D01*
X275190Y360241D01*
X274157Y359812D01*
X273269Y359131D01*
X272640Y359090D01*
X271389Y360341D01*
X271411Y360546D01*
X271783Y361361D01*
X272426Y361489D01*
X273220Y362020D01*
X273750Y362814D01*
X273937Y363750D01*
X273750Y364686D01*
X274119Y365659D01*
X274577Y365838D01*
X275515Y365424D01*
X275537Y365315D01*
X275869Y364819D01*
X282545Y358142D01*
X282159Y357209D01*
X282013Y356100D01*
X282159Y354991D01*
X282588Y353957D01*
X283269Y353069D01*
X284157Y352388D01*
X285191Y351959D01*
X286300Y351813D01*
X287409Y351959D01*
X288443Y352388D01*
X289331Y353069D01*
X290012Y353957D01*
X290441Y354991D01*
X290587Y356100D01*
X290441Y357209D01*
X290012Y358243D01*
X289331Y359131D01*
X288443Y359812D01*
X287409Y360241D01*
X286300Y360387D01*
X285191Y360241D01*
X284895Y360118D01*
X279041Y365972D01*
X279049Y366051D01*
X279367Y366527D01*
X279478Y367088D01*
Y369712D01*
X279367Y370273D01*
X279049Y370749D01*
X278906Y370844D01*
X278891Y370885D01*
Y371915D01*
X278906Y371956D01*
X279049Y372051D01*
X279367Y372527D01*
X279478Y373088D01*
Y375712D01*
X279367Y376273D01*
X279049Y376749D01*
X278942Y377935D01*
X278961Y377964D01*
X279147Y378900D01*
X279100Y379137D01*
X284434Y384471D01*
X309366D01*
X371471Y322366D01*
Y302268D01*
X371270Y302134D01*
X370739Y301340D01*
X370553Y300404D01*
X370739Y299467D01*
X371270Y298674D01*
X372064Y298143D01*
X373000Y297957D01*
X373936Y298143D01*
X374730Y298674D01*
X375261Y299467D01*
X375447Y300404D01*
X375261Y301340D01*
X374751Y302103D01*
X374734Y302215D01*
X374770Y303048D01*
X375584Y303641D01*
X376025Y303553D01*
X376962Y303739D01*
X377755Y304270D01*
X378286Y305064D01*
X378472Y306000D01*
X378286Y306936D01*
X377755Y307730D01*
X377554Y307864D01*
Y320633D01*
X378478Y321016D01*
X383471Y316023D01*
Y301865D01*
X383270Y301730D01*
X382739Y300936D01*
X382553Y300000D01*
X382739Y299064D01*
X383270Y298270D01*
X384064Y297739D01*
X385000Y297553D01*
X385936Y297739D01*
X386730Y298270D01*
X387261Y299064D01*
X387447Y300000D01*
X387261Y300936D01*
X386730Y301730D01*
X386529Y301865D01*
Y316657D01*
X386413Y317242D01*
X386081Y317738D01*
X312538Y391281D01*
X312042Y391613D01*
X311457Y391729D01*
X204830D01*
X204245Y391613D01*
X203749Y391281D01*
X193916Y381449D01*
X193679Y381496D01*
X192743Y381310D01*
X191949Y380780D01*
X191419Y379986D01*
X191233Y379049D01*
X191419Y378113D01*
X191190Y377363D01*
X191044Y377099D01*
X190384Y376912D01*
X190153Y377067D01*
X189593Y377178D01*
X186968D01*
X186407Y377067D01*
X185931Y376749D01*
X185189D01*
X184713Y377067D01*
X184152Y377178D01*
X183840D01*
Y374400D01*
X182840D01*
Y373400D01*
X180062D01*
Y373088D01*
X180173Y372527D01*
X180491Y372051D01*
X180634Y371956D01*
X180649Y371915D01*
Y370885D01*
X180634Y370844D01*
X180491Y370749D01*
X180173Y370273D01*
X180062Y369712D01*
Y367088D01*
X180173Y366527D01*
X180491Y366051D01*
X180967Y365733D01*
X181331Y365661D01*
Y360370D01*
X180050D01*
X179660Y360292D01*
X179329Y360071D01*
X179108Y359740D01*
X179030Y359350D01*
Y352850D01*
X179108Y352460D01*
X179329Y352129D01*
X179660Y351908D01*
X180050Y351830D01*
X186550D01*
X186940Y351908D01*
X187271Y352129D01*
X187492Y352460D01*
X187570Y352850D01*
Y359350D01*
X187544Y359479D01*
X188414Y360023D01*
X189851Y358586D01*
X189588Y358243D01*
X189159Y357209D01*
X189013Y356100D01*
X189159Y354991D01*
X189588Y353957D01*
X190269Y353069D01*
X191157Y352388D01*
X192191Y351959D01*
X193300Y351813D01*
X194410Y351959D01*
X195443Y352388D01*
X196331Y353069D01*
X197012Y353957D01*
X197441Y354991D01*
X197536Y355711D01*
X197603Y355778D01*
X198441Y356154D01*
X198560Y356161D01*
X199049Y355825D01*
X199159Y354991D01*
X199588Y353957D01*
X200269Y353069D01*
X201157Y352388D01*
X202190Y351959D01*
X203300Y351813D01*
X204410Y351959D01*
X205443Y352388D01*
X206331Y353069D01*
X207012Y353957D01*
X207441Y354991D01*
X207587Y356100D01*
X207441Y357209D01*
X207012Y358243D01*
X206331Y359131D01*
X205443Y359812D01*
X204410Y360241D01*
X203300Y360387D01*
X202190Y360241D01*
X201157Y359812D01*
X200314Y359166D01*
X199139Y360341D01*
X199161Y360546D01*
X199533Y361361D01*
X200176Y361489D01*
X200970Y362020D01*
X201500Y362814D01*
X201687Y363750D01*
X201500Y364686D01*
X201768Y365531D01*
X201861Y365695D01*
X202321Y365834D01*
X203283Y365336D01*
X203287Y365315D01*
X203619Y364819D01*
X209851Y358586D01*
X209588Y358243D01*
X209159Y357209D01*
X209013Y356100D01*
X209159Y354991D01*
X209588Y353957D01*
X210269Y353069D01*
X211157Y352388D01*
X212191Y351959D01*
X213300Y351813D01*
X214409Y351959D01*
X215443Y352388D01*
X216331Y353069D01*
X217012Y353957D01*
X217441Y354991D01*
X217587Y356100D01*
X217441Y357209D01*
X217012Y358243D01*
X216331Y359131D01*
X215443Y359812D01*
X214409Y360241D01*
X213300Y360387D01*
X212484Y360279D01*
X206928Y365835D01*
X206949Y366051D01*
X207267Y366527D01*
X207378Y367088D01*
Y369712D01*
X207267Y370273D01*
X206949Y370749D01*
X206806Y370844D01*
X206791Y370885D01*
Y371915D01*
X206806Y371956D01*
X206949Y372051D01*
X207267Y372527D01*
X207378Y373088D01*
Y375712D01*
X207267Y376273D01*
X206949Y376749D01*
X206842Y377935D01*
X206861Y377964D01*
X207047Y378900D01*
X206900Y379637D01*
X212434Y385171D01*
X234366D01*
X235312Y384225D01*
X235150Y383666D01*
X234862Y383261D01*
X227748D01*
X227358Y383184D01*
X227028Y382962D01*
X226806Y382632D01*
X226729Y382242D01*
Y374958D01*
X226806Y374568D01*
X227028Y374237D01*
X227358Y374016D01*
X227748Y373939D01*
X228364D01*
Y372610D01*
X228467Y371827D01*
X228769Y371097D01*
X229250Y370470D01*
X230274Y369447D01*
Y359135D01*
X230269Y359131D01*
X229588Y358243D01*
X229159Y357209D01*
X229013Y356100D01*
X229159Y354991D01*
X229588Y353957D01*
X230269Y353069D01*
X230274Y353065D01*
Y345119D01*
X226620D01*
X226230Y345041D01*
X225899Y344820D01*
X225678Y344490D01*
X225601Y344099D01*
Y333300D01*
X225678Y332910D01*
X225899Y332579D01*
X226230Y332359D01*
X226474Y332310D01*
Y325690D01*
X226230Y325641D01*
X225899Y325420D01*
X225678Y325090D01*
X225601Y324699D01*
Y318310D01*
X217317Y310026D01*
X213234D01*
X212851Y310950D01*
X214698Y312796D01*
X214698Y312796D01*
X214763Y312881D01*
X216808D01*
X217198Y312959D01*
X217529Y313179D01*
X217750Y313510D01*
X217828Y313900D01*
Y324699D01*
X217750Y325090D01*
X217529Y325420D01*
X217198Y325641D01*
X216808Y325719D01*
X215584D01*
Y332281D01*
X216808D01*
X217198Y332359D01*
X217529Y332579D01*
X217750Y332910D01*
X217828Y333300D01*
Y341049D01*
X225440Y348660D01*
X225921Y349287D01*
X226223Y350017D01*
X226326Y350800D01*
Y353065D01*
X226331Y353069D01*
X227012Y353957D01*
X227441Y354991D01*
X227587Y356100D01*
X227441Y357209D01*
X227012Y358243D01*
X226331Y359131D01*
X226326Y359135D01*
Y366200D01*
X226326Y366200D01*
X226223Y366983D01*
X225921Y367713D01*
X225440Y368340D01*
X225440Y368340D01*
X220636Y373143D01*
Y375071D01*
X220920Y375290D01*
X221664Y376259D01*
X222132Y377388D01*
X222292Y378600D01*
X222132Y379812D01*
X221664Y380941D01*
X220920Y381910D01*
X219951Y382654D01*
X218822Y383122D01*
X217610Y383282D01*
X216398Y383122D01*
X215269Y382654D01*
X214300Y381910D01*
X213556Y380941D01*
X213088Y379812D01*
X212929Y378600D01*
X213088Y377388D01*
X213556Y376259D01*
X214300Y375290D01*
X214584Y375071D01*
Y371890D01*
X214687Y371107D01*
X214989Y370377D01*
X215470Y369750D01*
X220274Y364947D01*
Y359135D01*
X220269Y359131D01*
X219588Y358243D01*
X219159Y357209D01*
X219013Y356100D01*
X219159Y354991D01*
X219588Y353957D01*
X220269Y353069D01*
X220274Y353065D01*
Y352053D01*
X213340Y345119D01*
X208308D01*
X207918Y345041D01*
X207587Y344820D01*
X207366Y344490D01*
X207289Y344099D01*
Y333300D01*
X207366Y332910D01*
X207587Y332579D01*
X207918Y332359D01*
X208308Y332281D01*
X209532D01*
Y325719D01*
X208308D01*
X207918Y325641D01*
X207587Y325420D01*
X207366Y325090D01*
X207289Y324699D01*
Y315026D01*
X207257D01*
X206473Y314923D01*
X205744Y314620D01*
X205117Y314140D01*
X194360Y303383D01*
X193879Y302757D01*
X193577Y302027D01*
X193474Y301243D01*
Y286057D01*
X193577Y285274D01*
X193879Y284544D01*
X194360Y283917D01*
X201967Y276310D01*
X202594Y275830D01*
X203324Y275527D01*
X204107Y275424D01*
X219773D01*
X220156Y274500D01*
X218411Y272755D01*
X218260Y272640D01*
X216752Y271131D01*
X216427Y271067D01*
X215951Y270749D01*
X215856Y270606D01*
X215815Y270591D01*
X214785D01*
X214744Y270606D01*
X214649Y270749D01*
X214173Y271067D01*
X213613Y271178D01*
X210987D01*
X210427Y271067D01*
X209951Y270749D01*
X208765Y270642D01*
X208736Y270661D01*
X207800Y270847D01*
X206864Y270661D01*
X206070Y270130D01*
X205539Y269336D01*
X205353Y268400D01*
X205539Y267464D01*
X206070Y266670D01*
X206832Y266160D01*
X206855Y266016D01*
X206795Y265133D01*
X206670Y265108D01*
X205876Y264578D01*
X205346Y263784D01*
X205159Y262848D01*
X205346Y261911D01*
X205876Y261117D01*
X206670Y260587D01*
X207606Y260401D01*
X208543Y260587D01*
X208558Y260597D01*
X209421Y260363D01*
X209606Y260262D01*
X209795Y259610D01*
X209633Y259369D01*
X209522Y258808D01*
Y258495D01*
X212300D01*
Y256495D01*
X209522D01*
Y256183D01*
X209633Y255622D01*
X209794Y255382D01*
X209591Y254712D01*
X208736Y254304D01*
X207800Y254490D01*
X206864Y254304D01*
X206070Y253773D01*
X205539Y252979D01*
X205353Y252043D01*
X205539Y251107D01*
X206070Y250313D01*
X206864Y249782D01*
X207800Y249596D01*
X208736Y249782D01*
X208765Y249801D01*
X209951Y249694D01*
X210130Y248493D01*
X201466Y239829D01*
X186634D01*
X182229Y244233D01*
Y265856D01*
X182774Y266220D01*
X183229Y266392D01*
X183959Y266090D01*
X184872Y265970D01*
X185786Y266090D01*
X186637Y266443D01*
X186678Y266474D01*
X190330D01*
Y263500D01*
X190408Y263110D01*
X190629Y262779D01*
X190960Y262558D01*
X191350Y262480D01*
X197850D01*
X198240Y262558D01*
X198571Y262779D01*
X198792Y263110D01*
X198870Y263500D01*
Y275500D01*
X198792Y275890D01*
X198571Y276221D01*
X198240Y276442D01*
X197850Y276520D01*
X191350D01*
X190960Y276442D01*
X190629Y276221D01*
X190408Y275890D01*
X190330Y275500D01*
Y272526D01*
X186678D01*
X186637Y272557D01*
X185786Y272910D01*
X184872Y273030D01*
X183959Y272910D01*
X183229Y272608D01*
X182774Y272780D01*
X182229Y273144D01*
Y274000D01*
X182113Y274585D01*
X181781Y275081D01*
X170529Y286333D01*
Y385328D01*
X170413Y385914D01*
X170081Y386410D01*
X166810Y389681D01*
X166314Y390013D01*
X165728Y390129D01*
X131030D01*
X130445Y390013D01*
X129949Y389681D01*
X121716Y381449D01*
X121479Y381496D01*
X120543Y381310D01*
X119749Y380780D01*
X119219Y379986D01*
X119033Y379049D01*
X119219Y378113D01*
X118801Y377173D01*
X118334Y376972D01*
X118193Y377067D01*
X117632Y377178D01*
X115007D01*
X114447Y377067D01*
X113971Y376749D01*
X113309Y376749D01*
X112833Y377067D01*
X112273Y377178D01*
X111960D01*
Y374400D01*
X110960D01*
Y373400D01*
X108182D01*
Y373088D01*
X108293Y372527D01*
X108611Y372051D01*
X108754Y371956D01*
X108769Y371915D01*
Y370885D01*
X108754Y370844D01*
X108611Y370749D01*
X108293Y370273D01*
X108182Y369712D01*
Y367088D01*
X108293Y366527D01*
X108611Y366051D01*
X109087Y365733D01*
X109531Y365645D01*
Y360370D01*
X108550D01*
X108160Y360292D01*
X107829Y360071D01*
X107608Y359740D01*
X107530Y359350D01*
Y352850D01*
X107608Y352460D01*
X107829Y352129D01*
X108160Y351908D01*
X108550Y351830D01*
X115050D01*
X115440Y351908D01*
X115771Y352129D01*
X115992Y352460D01*
X116070Y352850D01*
Y359153D01*
X116542Y359470D01*
X117040Y359597D01*
X118221Y358417D01*
X118088Y358243D01*
X117659Y357209D01*
X117513Y356100D01*
X117659Y354991D01*
X118088Y353957D01*
X118769Y353069D01*
X119657Y352388D01*
X120691Y351959D01*
X121800Y351813D01*
X122909Y351959D01*
X123943Y352388D01*
X124831Y353069D01*
X125512Y353957D01*
X125941Y354991D01*
X126015Y355559D01*
X126984Y355997D01*
X127590Y355519D01*
X127659Y354991D01*
X128088Y353957D01*
X128769Y353069D01*
X129657Y352388D01*
X130691Y351959D01*
X131800Y351813D01*
X132910Y351959D01*
X133943Y352388D01*
X134831Y353069D01*
X135512Y353957D01*
X135941Y354991D01*
X136087Y356100D01*
X135941Y357209D01*
X135512Y358243D01*
X134831Y359131D01*
X133943Y359812D01*
X132910Y360241D01*
X131800Y360387D01*
X130691Y360241D01*
X129657Y359812D01*
X128769Y359131D01*
X128563Y359118D01*
X127339Y360341D01*
X127361Y360546D01*
X127733Y361361D01*
X128376Y361489D01*
X129170Y362020D01*
X129700Y362814D01*
X129886Y363750D01*
X129700Y364686D01*
X130159Y365633D01*
X130429Y365799D01*
X130527Y365733D01*
X131088Y365622D01*
X131426D01*
X131487Y365315D01*
X131819Y364819D01*
X138221Y358417D01*
X138088Y358243D01*
X137659Y357209D01*
X137513Y356100D01*
X137659Y354991D01*
X138088Y353957D01*
X138769Y353069D01*
X139657Y352388D01*
X140691Y351959D01*
X141800Y351813D01*
X142910Y351959D01*
X143943Y352388D01*
X144831Y353069D01*
X145512Y353957D01*
X145941Y354991D01*
X146087Y356100D01*
X145941Y357209D01*
X145512Y358243D01*
X144831Y359131D01*
X143943Y359812D01*
X142910Y360241D01*
X141800Y360387D01*
X140719Y360244D01*
X134814Y366149D01*
X135067Y366527D01*
X135178Y367088D01*
Y369712D01*
X135067Y370273D01*
X134749Y370749D01*
X134606Y370844D01*
X134591Y370885D01*
Y371915D01*
X134606Y371956D01*
X134749Y372051D01*
X135067Y372527D01*
X135178Y373088D01*
Y375712D01*
X135067Y376273D01*
X134749Y376749D01*
X134642Y377935D01*
X134661Y377964D01*
X134847Y378900D01*
X134800Y379137D01*
X140734Y385071D01*
X164267D01*
X165471Y383867D01*
Y382745D01*
X164473Y382632D01*
X164252Y382962D01*
X163922Y383184D01*
X163531Y383261D01*
X156248D01*
X155858Y383184D01*
X155527Y382962D01*
X155306Y382632D01*
X155229Y382242D01*
Y375073D01*
X154990Y374892D01*
X154263Y374689D01*
X154140Y374850D01*
X150745Y378244D01*
X150792Y378600D01*
X150632Y379812D01*
X150164Y380941D01*
X149420Y381910D01*
X148451Y382654D01*
X147322Y383122D01*
X146110Y383282D01*
X144898Y383122D01*
X143769Y382654D01*
X142800Y381910D01*
X142056Y380941D01*
X141588Y379812D01*
X141428Y378600D01*
X141588Y377388D01*
X142056Y376259D01*
X142800Y375290D01*
X143769Y374546D01*
X144898Y374078D01*
X146110Y373918D01*
X146466Y373965D01*
X148974Y371457D01*
Y359289D01*
X148769Y359131D01*
X148088Y358243D01*
X147659Y357209D01*
X147513Y356100D01*
X147659Y354991D01*
X148088Y353957D01*
X148769Y353069D01*
X148974Y352911D01*
Y351753D01*
X142340Y345119D01*
X136880D01*
X136489Y345041D01*
X136159Y344820D01*
X135938Y344490D01*
X135860Y344099D01*
Y333300D01*
X135938Y332910D01*
X136159Y332579D01*
X136489Y332359D01*
X136880Y332281D01*
X138104D01*
Y325719D01*
X136880D01*
X136489Y325641D01*
X136159Y325420D01*
X135938Y325090D01*
X135860Y324699D01*
Y313900D01*
X135938Y313510D01*
X136159Y313179D01*
X136489Y312959D01*
X136880Y312881D01*
X142340D01*
X152565Y302656D01*
X152199Y301608D01*
X151713Y301511D01*
X151578Y301421D01*
X151535Y301407D01*
X150349Y301599D01*
X149873Y301917D01*
X149312Y302028D01*
X146687D01*
X146127Y301917D01*
X145651Y301599D01*
X145556Y301456D01*
X145515Y301441D01*
X144485D01*
X144444Y301456D01*
X144349Y301599D01*
X143873Y301917D01*
X143313Y302028D01*
X140688D01*
X140127Y301917D01*
X139651Y301599D01*
X139333Y301123D01*
X139317Y301041D01*
X138305Y300617D01*
X138246Y300621D01*
X137886Y300861D01*
X136950Y301047D01*
X136014Y300861D01*
X135321Y300671D01*
X134990Y300892D01*
X134600Y300970D01*
X128100D01*
X127710Y300892D01*
X127379Y300671D01*
X127158Y300340D01*
X127080Y299950D01*
Y297450D01*
X127158Y297060D01*
X127355Y296766D01*
X127379Y296706D01*
Y295694D01*
X127355Y295634D01*
X127158Y295340D01*
X127080Y294950D01*
Y292450D01*
X127158Y292060D01*
X127355Y291766D01*
X127379Y291705D01*
Y290694D01*
X127355Y290634D01*
X127158Y290340D01*
X127080Y289950D01*
Y287450D01*
X127158Y287060D01*
X127355Y286766D01*
X127379Y286705D01*
Y285695D01*
X127355Y285634D01*
X127158Y285340D01*
X127080Y284950D01*
Y282450D01*
X127158Y282060D01*
X127355Y281766D01*
X127379Y281705D01*
Y280695D01*
X127355Y280634D01*
X127158Y280340D01*
X127080Y279950D01*
Y277450D01*
X127158Y277060D01*
X127355Y276766D01*
X127379Y276706D01*
Y275694D01*
X127355Y275634D01*
X127158Y275340D01*
X127116Y275131D01*
X127029Y275059D01*
X126067Y275511D01*
X126029Y275559D01*
Y300000D01*
X125913Y300585D01*
X125581Y301081D01*
X119081Y307581D01*
X118585Y307913D01*
X118000Y308029D01*
X103133D01*
X100029Y311134D01*
Y312254D01*
X100269Y312480D01*
X101029Y312908D01*
X101165Y312881D01*
X109665D01*
X110055Y312959D01*
X110386Y313179D01*
X110607Y313510D01*
X110685Y313900D01*
Y316274D01*
X113142D01*
X113586Y316090D01*
X114500Y315970D01*
X115414Y316090D01*
X115858Y316274D01*
X118458D01*
Y313900D01*
X118536Y313510D01*
X118757Y313179D01*
X119087Y312959D01*
X119478Y312881D01*
X127978D01*
X128368Y312959D01*
X128699Y313179D01*
X128919Y313510D01*
X128997Y313900D01*
Y324699D01*
X128919Y325090D01*
X128699Y325420D01*
X128368Y325641D01*
X127978Y325719D01*
X119478D01*
X119087Y325641D01*
X118757Y325420D01*
X118536Y325090D01*
X118458Y324699D01*
Y322326D01*
X116567D01*
X116265Y322557D01*
X115414Y322910D01*
X114500Y323030D01*
X113586Y322910D01*
X112735Y322557D01*
X112433Y322326D01*
X110685D01*
Y324699D01*
X110607Y325090D01*
X110386Y325420D01*
X110055Y325641D01*
X109665Y325719D01*
X101165D01*
X101029Y325692D01*
X100269Y326120D01*
X100029Y326346D01*
Y331654D01*
X100269Y331880D01*
X101029Y332308D01*
X101165Y332281D01*
X109665D01*
X110055Y332359D01*
X110386Y332579D01*
X110607Y332910D01*
X110685Y333300D01*
Y335674D01*
X112194D01*
X112235Y335643D01*
X113086Y335290D01*
X114000Y335170D01*
X114914Y335290D01*
X115765Y335643D01*
X115806Y335674D01*
X118458D01*
Y333300D01*
X118536Y332910D01*
X118757Y332579D01*
X119087Y332359D01*
X119478Y332281D01*
X127978D01*
X128368Y332359D01*
X128699Y332579D01*
X128919Y332910D01*
X128997Y333300D01*
Y344099D01*
X128919Y344490D01*
X128699Y344820D01*
X128368Y345041D01*
X127978Y345119D01*
X119478D01*
X119087Y345041D01*
X118757Y344820D01*
X118536Y344490D01*
X118458Y344099D01*
Y341726D01*
X115806D01*
X115765Y341757D01*
X114914Y342110D01*
X114000Y342230D01*
X113086Y342110D01*
X112235Y341757D01*
X112194Y341726D01*
X110685D01*
Y344099D01*
X110607Y344490D01*
X110386Y344820D01*
X110055Y345041D01*
X109665Y345119D01*
X101165D01*
X101029Y345092D01*
X100269Y345520D01*
X100029Y345746D01*
Y378328D01*
X99913Y378914D01*
X99581Y379410D01*
X90910Y388081D01*
X90414Y388413D01*
X89828Y388529D01*
X53930D01*
X53345Y388413D01*
X52849Y388081D01*
X46216Y381449D01*
X45979Y381496D01*
X45043Y381310D01*
X44249Y380780D01*
X43719Y379986D01*
X43532Y379049D01*
X43719Y378113D01*
X43729Y378098D01*
X43564Y377506D01*
X43341Y377077D01*
X42647Y376897D01*
X42393Y377067D01*
X41833Y377178D01*
X39208D01*
X38647Y377067D01*
X38171Y376749D01*
X37409D01*
X36933Y377067D01*
X36373Y377178D01*
X36060D01*
Y374400D01*
X35060D01*
Y373400D01*
X32282D01*
Y373088D01*
X32393Y372527D01*
X32711Y372051D01*
X32854Y371956D01*
X32869Y371915D01*
Y370885D01*
X32854Y370844D01*
X32711Y370749D01*
X32393Y370273D01*
X32282Y369712D01*
Y367088D01*
X32393Y366527D01*
X32711Y366051D01*
X33187Y365733D01*
X33531Y365665D01*
Y360370D01*
X33450D01*
X33060Y360292D01*
X32729Y360071D01*
X32508Y359740D01*
X32430Y359350D01*
Y352850D01*
X32508Y352460D01*
X32729Y352129D01*
X33060Y351908D01*
X33450Y351830D01*
X39950D01*
X40340Y351908D01*
X40671Y352129D01*
X40892Y352460D01*
X40970Y352850D01*
Y358253D01*
X41970Y358667D01*
X42814Y357823D01*
X42559Y357209D01*
X42413Y356100D01*
X42559Y354991D01*
X42988Y353957D01*
X43669Y353069D01*
X44557Y352388D01*
X45590Y351959D01*
X46700Y351813D01*
X47809Y351959D01*
X48843Y352388D01*
X49731Y353069D01*
X50412Y353957D01*
X50841Y354991D01*
X50853Y355087D01*
X51909Y355446D01*
X52336Y355019D01*
X52629Y354823D01*
X52988Y353957D01*
X53669Y353069D01*
X54557Y352388D01*
X55590Y351959D01*
X56700Y351813D01*
X57810Y351959D01*
X58843Y352388D01*
X59731Y353069D01*
X60412Y353957D01*
X60841Y354991D01*
X60987Y356100D01*
X60841Y357209D01*
X60412Y358243D01*
X59731Y359131D01*
X58843Y359812D01*
X57810Y360241D01*
X56700Y360387D01*
X55590Y360241D01*
X54557Y359812D01*
X53669Y359131D01*
X53644Y359099D01*
X52646Y359034D01*
X51280Y360400D01*
X51495Y361004D01*
X51722Y361373D01*
X52556Y361539D01*
X53349Y362069D01*
X53880Y362863D01*
X54066Y363799D01*
X53880Y364736D01*
X54232Y365694D01*
X54504Y365792D01*
X55487Y365315D01*
X55819Y364819D01*
X62814Y357823D01*
X62559Y357209D01*
X62413Y356100D01*
X62559Y354991D01*
X62988Y353957D01*
X63669Y353069D01*
X64557Y352388D01*
X65591Y351959D01*
X66700Y351813D01*
X67809Y351959D01*
X68843Y352388D01*
X69731Y353069D01*
X70412Y353957D01*
X70841Y354991D01*
X70987Y356100D01*
X70841Y357209D01*
X70412Y358243D01*
X69731Y359131D01*
X68843Y359812D01*
X67809Y360241D01*
X66700Y360387D01*
X65591Y360241D01*
X64977Y359986D01*
X59219Y365744D01*
X59249Y366051D01*
X59567Y366527D01*
X59678Y367088D01*
Y369712D01*
X59567Y370273D01*
X59249Y370749D01*
X59106Y370844D01*
X59091Y370885D01*
Y371915D01*
X59106Y371956D01*
X59249Y372051D01*
X59567Y372527D01*
X59678Y373088D01*
Y375712D01*
X59567Y376273D01*
X59249Y376749D01*
X59142Y377935D01*
X59161Y377964D01*
X59347Y378900D01*
X59300Y379137D01*
X63634Y383471D01*
X67956D01*
X68240Y382471D01*
X67510Y381910D01*
X66766Y380941D01*
X66298Y379812D01*
X66138Y378600D01*
X66298Y377388D01*
X66766Y376259D01*
X67510Y375290D01*
X68479Y374546D01*
X69608Y374078D01*
X70820Y373918D01*
X71175Y373965D01*
X73674Y371467D01*
Y359135D01*
X73669Y359131D01*
X72988Y358243D01*
X72559Y357209D01*
X72413Y356100D01*
X72559Y354991D01*
X72988Y353957D01*
X73669Y353069D01*
X73037Y352316D01*
X67360Y346640D01*
X66879Y346013D01*
X66577Y345283D01*
X66556Y345119D01*
X65451D01*
X65061Y345041D01*
X64730Y344820D01*
X64509Y344490D01*
X64431Y344099D01*
Y333300D01*
X64509Y332910D01*
X64730Y332579D01*
X65061Y332359D01*
X65451Y332281D01*
X66474D01*
Y325719D01*
X65451D01*
X65061Y325641D01*
X64730Y325420D01*
X64509Y325090D01*
X64431Y324699D01*
Y315711D01*
X62647Y313926D01*
X57569D01*
Y324699D01*
X57491Y325090D01*
X57270Y325420D01*
X56939Y325641D01*
X56549Y325719D01*
X48049D01*
X47659Y325641D01*
X47328Y325420D01*
X47107Y325090D01*
X47029Y324699D01*
Y322326D01*
X44377D01*
X44337Y322357D01*
X43485Y322710D01*
X42571Y322830D01*
X41658Y322710D01*
X40806Y322357D01*
X40075Y321796D01*
X39514Y321065D01*
X39162Y320214D01*
X39041Y319300D01*
X39162Y318386D01*
X39514Y317535D01*
X40075Y316804D01*
X40806Y316243D01*
X41658Y315890D01*
X42571Y315770D01*
X43485Y315890D01*
X44337Y316243D01*
X44377Y316274D01*
X47029D01*
Y313900D01*
X47107Y313510D01*
X47328Y313179D01*
X47659Y312959D01*
X48049Y312881D01*
X48724D01*
X49107Y311957D01*
X42360Y305211D01*
X41879Y304584D01*
X41577Y303854D01*
X41474Y303071D01*
Y286256D01*
X41577Y285473D01*
X41879Y284743D01*
X42360Y284117D01*
X50438Y276039D01*
X50024Y275039D01*
X48647D01*
X48315Y275261D01*
X47379Y275447D01*
X46442Y275261D01*
X45649Y274730D01*
X45118Y273936D01*
X44932Y273000D01*
X45118Y272064D01*
X45649Y271270D01*
X46442Y270739D01*
X47379Y270553D01*
X48315Y270739D01*
X48647Y270961D01*
X54905D01*
X57572Y268294D01*
Y267088D01*
X57683Y266527D01*
X57805Y266345D01*
X57930Y265674D01*
X57805Y265003D01*
X57683Y264821D01*
X57572Y264260D01*
Y261635D01*
X57683Y261074D01*
X58001Y260599D01*
Y259844D01*
X57683Y259369D01*
X57572Y258808D01*
Y258495D01*
X60350D01*
Y256495D01*
X57572D01*
Y256183D01*
X57683Y255622D01*
X58001Y255146D01*
Y254392D01*
X57683Y253916D01*
X57572Y253355D01*
Y250730D01*
X57683Y250169D01*
X58001Y249694D01*
X58477Y249376D01*
X58821Y249308D01*
Y248807D01*
X58937Y248221D01*
X59269Y247725D01*
X60775Y246219D01*
X61272Y245887D01*
X61857Y245771D01*
X61936D01*
X62070Y245570D01*
X62864Y245039D01*
X63800Y244853D01*
X64736Y245039D01*
X65530Y245570D01*
X66061Y246364D01*
X66247Y247300D01*
X66061Y248236D01*
X66042Y248265D01*
X66576Y249265D01*
X67663D01*
X68223Y249376D01*
X68699Y249694D01*
X69017Y250169D01*
X69128Y250730D01*
Y253355D01*
X69017Y253916D01*
X68699Y254392D01*
Y255126D01*
X68747Y255218D01*
X69017Y255622D01*
X69054Y255811D01*
X69135Y255966D01*
X69495D01*
X70081Y256082D01*
X70577Y256414D01*
X73156Y258994D01*
X74080Y258611D01*
Y257450D01*
X74158Y257060D01*
X74354Y256766D01*
X74379Y256705D01*
Y255695D01*
X74354Y255634D01*
X74158Y255340D01*
X74080Y254950D01*
Y253033D01*
X73912Y252831D01*
X73146Y252329D01*
X73114Y252325D01*
X72500Y252447D01*
X71564Y252261D01*
X70770Y251730D01*
X70239Y250936D01*
X70053Y250000D01*
X70239Y249064D01*
X70770Y248270D01*
X70971Y248135D01*
Y246343D01*
X71087Y245758D01*
X71419Y245262D01*
X88262Y228419D01*
X88758Y228087D01*
X89343Y227971D01*
X111926D01*
X118248Y221648D01*
X118042Y220440D01*
X117727Y220230D01*
X117197Y219436D01*
X117011Y218500D01*
X117197Y217564D01*
X117485Y217133D01*
X117524Y216880D01*
X117224Y216532D01*
X116349Y216041D01*
X115874Y216359D01*
X115313Y216471D01*
X112688D01*
X112127Y216359D01*
X111652Y216041D01*
X111445Y215732D01*
X109480D01*
X109436Y215761D01*
X108500Y215947D01*
X107564Y215761D01*
X106770Y215230D01*
X106239Y214436D01*
X106053Y213500D01*
X106239Y212564D01*
X106770Y211770D01*
X107564Y211239D01*
X108500Y211053D01*
X109436Y211239D01*
X110056Y211653D01*
X111445D01*
X111652Y211344D01*
Y210541D01*
X111334Y210066D01*
X111222Y209505D01*
Y206880D01*
X111334Y206319D01*
X111483Y206095D01*
X111588Y205442D01*
X111483Y204790D01*
X111334Y204566D01*
X111222Y204005D01*
Y201380D01*
X110895Y200982D01*
X108797D01*
Y202309D01*
X108673Y202930D01*
X108321Y203456D01*
X107795Y203808D01*
X107175Y203931D01*
X105994D01*
X105373Y203808D01*
X104847Y203456D01*
X104640Y203146D01*
X104290Y203068D01*
X103878D01*
X103529Y203146D01*
X103322Y203456D01*
X102795Y203808D01*
X102175Y203931D01*
X100994D01*
X100373Y203808D01*
X99847Y203456D01*
X99640Y203146D01*
X99569Y203130D01*
X98648Y203278D01*
X98623Y203288D01*
Y205004D01*
X98773Y205033D01*
X99249Y205351D01*
X99567Y205827D01*
X99678Y206387D01*
Y209013D01*
X99567Y209573D01*
X99249Y210049D01*
X99106Y210144D01*
X99091Y210185D01*
Y211215D01*
X99106Y211256D01*
X99249Y211351D01*
X99567Y211827D01*
X99678Y212387D01*
Y215013D01*
X99567Y215573D01*
X99249Y216049D01*
X99142Y217235D01*
X99161Y217264D01*
X99347Y218200D01*
X99161Y219136D01*
X98630Y219930D01*
X97836Y220461D01*
X96900Y220647D01*
X95964Y220461D01*
X95170Y219930D01*
X94639Y219136D01*
X94453Y218200D01*
X94639Y217264D01*
X94285Y216374D01*
X93559Y216176D01*
X93273Y216367D01*
X92712Y216478D01*
X92532D01*
X92183Y216623D01*
X91400Y216726D01*
X88400D01*
X88400Y216726D01*
X87617Y216623D01*
X86887Y216320D01*
X86260Y215840D01*
X86260Y215840D01*
X84360Y213940D01*
X83880Y213313D01*
X83577Y212583D01*
X83474Y211800D01*
Y206032D01*
X83399Y205971D01*
X81026D01*
Y208623D01*
X81057Y208664D01*
X81410Y209515D01*
X81530Y210429D01*
X81410Y211342D01*
X81057Y212194D01*
X80496Y212925D01*
X79765Y213486D01*
X78914Y213839D01*
X78000Y213959D01*
X77086Y213839D01*
X76235Y213486D01*
X75504Y212925D01*
X74943Y212194D01*
X74590Y211342D01*
X74470Y210429D01*
X74590Y209515D01*
X74943Y208664D01*
X74974Y208623D01*
Y205971D01*
X72601D01*
X72210Y205893D01*
X71880Y205672D01*
X71658Y205341D01*
X71581Y204951D01*
Y196451D01*
X71658Y196061D01*
X71880Y195730D01*
X72210Y195509D01*
X72601Y195431D01*
X83399D01*
X83474Y195370D01*
Y193500D01*
X83577Y192717D01*
X83880Y191987D01*
X84360Y191360D01*
X92049Y183671D01*
X91635Y182671D01*
X90994D01*
X90373Y182548D01*
X89847Y182196D01*
X89495Y181670D01*
X89372Y181050D01*
Y176128D01*
X89495Y175508D01*
X89847Y174982D01*
X90373Y174630D01*
X90994Y174507D01*
X92175D01*
X92773Y173863D01*
X92099Y173026D01*
X81951D01*
X81951Y173026D01*
X81168Y172923D01*
X80438Y172620D01*
X79812Y172140D01*
X79812Y172140D01*
X77976Y170304D01*
X76140Y172140D01*
X75513Y172620D01*
X74783Y172923D01*
X74000Y173026D01*
X64095D01*
X64024Y173063D01*
X63319Y173858D01*
Y176231D01*
X66434D01*
X67409Y176425D01*
X68236Y176978D01*
X70681Y179422D01*
X71027Y179278D01*
X71604Y178931D01*
X71658Y178659D01*
X71880Y178328D01*
X72210Y178107D01*
X72601Y178029D01*
X83399D01*
X83790Y178107D01*
X84121Y178328D01*
X84342Y178659D01*
X84419Y179049D01*
Y187549D01*
X84342Y187939D01*
X84121Y188270D01*
X83790Y188491D01*
X83399Y188569D01*
X72601D01*
X72210Y188491D01*
X71880Y188270D01*
X71658Y187939D01*
X71581Y187549D01*
Y185848D01*
X70953D01*
X69977Y185654D01*
X69151Y185101D01*
X65378Y181329D01*
X63319D01*
Y183702D01*
X63241Y184092D01*
X63020Y184423D01*
X62689Y184643D01*
X62299Y184721D01*
X53664D01*
X50582Y187802D01*
X49755Y188355D01*
X48780Y188549D01*
X42960D01*
X42877Y188644D01*
X42517Y189549D01*
X42861Y190064D01*
X43047Y191000D01*
X42861Y191936D01*
X42330Y192730D01*
X41536Y193261D01*
X40600Y193447D01*
X39664Y193261D01*
X39294Y193014D01*
X39181Y193089D01*
X38561Y193212D01*
X33639D01*
X33019Y193089D01*
X32493Y192737D01*
X32141Y192211D01*
X32018Y191591D01*
Y190409D01*
X32141Y189789D01*
X32493Y189263D01*
X32803Y189056D01*
X32881Y188706D01*
Y188294D01*
X32803Y187944D01*
X32493Y187737D01*
X32141Y187211D01*
X32018Y186591D01*
Y185409D01*
X32141Y184789D01*
X32493Y184263D01*
X32803Y184056D01*
X32881Y183706D01*
Y183294D01*
X32803Y182944D01*
X32493Y182737D01*
X32141Y182211D01*
X32018Y181591D01*
Y180409D01*
X32141Y179789D01*
X32493Y179263D01*
X32803Y179056D01*
X32881Y178706D01*
Y178294D01*
X32803Y177944D01*
X32493Y177737D01*
X32141Y177211D01*
X32018Y176591D01*
Y175409D01*
X32141Y174789D01*
X32493Y174263D01*
X32847Y174026D01*
X32756Y173223D01*
X32681Y173026D01*
X18259D01*
X18184Y173223D01*
X18093Y174026D01*
X18448Y174263D01*
X18799Y174789D01*
X18923Y175409D01*
Y176591D01*
X18799Y177211D01*
X18448Y177737D01*
X18137Y177944D01*
X18059Y178294D01*
Y178706D01*
X18137Y179056D01*
X18448Y179263D01*
X18799Y179789D01*
X18923Y180409D01*
Y181591D01*
X18799Y182211D01*
X18448Y182737D01*
X18137Y182944D01*
X18059Y183294D01*
Y183706D01*
X18137Y184056D01*
X18448Y184263D01*
X18799Y184789D01*
X18923Y185409D01*
Y186591D01*
X18799Y187211D01*
X18448Y187737D01*
X18137Y187944D01*
X18059Y188294D01*
Y188706D01*
X18137Y189056D01*
X18448Y189263D01*
X18799Y189789D01*
X18923Y190409D01*
Y191591D01*
X18799Y192211D01*
X18448Y192737D01*
X17921Y193089D01*
X17301Y193212D01*
X16990D01*
Y198978D01*
X17990Y199425D01*
X18127Y199333D01*
X18688Y199222D01*
X21313D01*
X21873Y199333D01*
X22049Y199451D01*
X23017D01*
X23193Y199333D01*
X23754Y199222D01*
X26379D01*
X26940Y199333D01*
X27116Y199451D01*
X28484D01*
X28660Y199333D01*
X29221Y199222D01*
X31846D01*
X32407Y199333D01*
X32583Y199451D01*
X33951D01*
X34127Y199333D01*
X34688Y199222D01*
X37312D01*
X37873Y199333D01*
X38049Y199451D01*
X48681D01*
Y196299D01*
X48759Y195908D01*
X48980Y195578D01*
X49311Y195357D01*
X49701Y195279D01*
X62299D01*
X62689Y195357D01*
X63020Y195578D01*
X63241Y195908D01*
X63319Y196299D01*
Y206141D01*
X63241Y206532D01*
X63020Y206862D01*
X62689Y207084D01*
X62299Y207161D01*
X49701D01*
X49311Y207084D01*
X48980Y206862D01*
X48759Y206532D01*
X48681Y206141D01*
Y204549D01*
X38499D01*
X38199Y205538D01*
X38206Y205556D01*
X38349Y205651D01*
X38667Y206127D01*
X38778Y206687D01*
Y207000D01*
X36000D01*
Y208000D01*
X35000D01*
Y210778D01*
X34688D01*
X34127Y210667D01*
X33651Y210349D01*
X32882D01*
X32407Y210667D01*
X31846Y210778D01*
X31533D01*
Y208000D01*
X29533D01*
Y210778D01*
X29221D01*
X28660Y210667D01*
X28184Y210349D01*
X27415D01*
X26940Y210667D01*
X26379Y210778D01*
X26067D01*
Y208000D01*
X24067D01*
Y210778D01*
X23754D01*
X23193Y210667D01*
X22533Y210418D01*
X21873Y210667D01*
X21313Y210778D01*
X18688D01*
X18127Y210667D01*
X17951Y210549D01*
X13250D01*
X13074Y210667D01*
X12513Y210778D01*
X9888D01*
X9327Y210667D01*
X8852Y210349D01*
X8534Y209874D01*
X8422Y209313D01*
Y206688D01*
X8534Y206127D01*
X8852Y205651D01*
X8995Y205556D01*
X9010Y205515D01*
Y204485D01*
X8995Y204445D01*
X8852Y204349D01*
X7665Y204242D01*
X7637Y204261D01*
X6700Y204447D01*
X5764Y204261D01*
X4970Y203731D01*
X4440Y202937D01*
X4253Y202000D01*
X4440Y201064D01*
X4970Y200270D01*
X5764Y199740D01*
X6700Y199553D01*
X7637Y199740D01*
X7665Y199759D01*
X8852Y199652D01*
X9327Y199334D01*
X9888Y199222D01*
X12513D01*
X12911Y198895D01*
Y193212D01*
X12380D01*
X11759Y193089D01*
X11165Y192838D01*
X10716Y193503D01*
X10630Y193630D01*
X9836Y194161D01*
X8900Y194347D01*
X7964Y194161D01*
X7209Y194859D01*
X7149Y194949D01*
X6673Y195267D01*
X6112Y195378D01*
X3488D01*
X2927Y195267D01*
X2451Y194949D01*
X2133Y194473D01*
X2022Y193912D01*
Y191288D01*
X2133Y190727D01*
X2451Y190251D01*
X2594Y190156D01*
X2609Y190115D01*
Y189085D01*
X2594Y189044D01*
X2451Y188949D01*
X2133Y188473D01*
X2022Y187912D01*
Y185287D01*
X2133Y184727D01*
X2251Y184551D01*
Y183149D01*
X2133Y182973D01*
X2022Y182413D01*
Y179788D01*
X2133Y179227D01*
X2451Y178751D01*
X2594Y178656D01*
X2609Y178615D01*
Y177585D01*
X2594Y177544D01*
X2451Y177449D01*
X2133Y176973D01*
X2022Y176412D01*
Y176232D01*
X1877Y175883D01*
X1774Y175100D01*
Y171200D01*
X1877Y170417D01*
X2180Y169687D01*
X2660Y169060D01*
X3860Y167860D01*
X3860Y167860D01*
X4487Y167379D01*
X5217Y167077D01*
X6000Y166974D01*
X6000Y166974D01*
X48000D01*
X48000Y166974D01*
X48000Y166974D01*
X55394D01*
X55435Y166943D01*
X56286Y166590D01*
X57200Y166470D01*
X58114Y166590D01*
X58965Y166943D01*
X59006Y166974D01*
X63736D01*
X64271Y165974D01*
X64246Y165937D01*
X64059Y165000D01*
X64246Y164064D01*
X64776Y163270D01*
X65310Y162913D01*
X65398Y162011D01*
X65343Y161780D01*
X64970Y161530D01*
X64439Y160737D01*
X64253Y159800D01*
X64439Y158864D01*
X64970Y158070D01*
X65764Y157539D01*
X66700Y157353D01*
X67636Y157539D01*
X67746Y157530D01*
X68434Y156469D01*
X68424Y156433D01*
X68384Y156373D01*
X68273Y155812D01*
Y153187D01*
X67889Y152719D01*
X66723D01*
X58721Y160721D01*
X58390Y160942D01*
X58000Y161020D01*
X40000D01*
X39610Y160942D01*
X39279Y160721D01*
X39058Y160390D01*
X38980Y160000D01*
Y140000D01*
X39058Y139610D01*
X39279Y139279D01*
X49279Y129279D01*
X49610Y129058D01*
X50000Y128980D01*
X74000D01*
X74025Y128960D01*
Y126304D01*
X72340Y124620D01*
X70450D01*
X70060Y124542D01*
X69729Y124321D01*
X69508Y123990D01*
X69430Y123600D01*
Y111600D01*
X69508Y111210D01*
X69729Y110879D01*
X70060Y110658D01*
X70450Y110580D01*
X76950D01*
X77340Y110658D01*
X77671Y110879D01*
X77892Y111210D01*
X77970Y111600D01*
Y121690D01*
X79190Y122911D01*
X79671Y123538D01*
X79974Y124268D01*
X80077Y125051D01*
Y134599D01*
Y139900D01*
Y145200D01*
Y146895D01*
X80089Y146921D01*
X80858Y147681D01*
X88819D01*
X89373Y147128D01*
Y141219D01*
X88149D01*
X87759Y141141D01*
X87428Y140920D01*
X87207Y140590D01*
X87129Y140199D01*
Y129401D01*
X87207Y129010D01*
X87428Y128680D01*
X87759Y128458D01*
X88149Y128381D01*
X92680D01*
Y83908D01*
X92400Y83654D01*
X91199Y83536D01*
X90045Y83186D01*
X88981Y82617D01*
X88048Y81852D01*
X87283Y80919D01*
X86714Y79855D01*
X86364Y78701D01*
X86246Y77500D01*
X86364Y76299D01*
X86714Y75145D01*
X87283Y74081D01*
X88048Y73148D01*
X88981Y72383D01*
X90045Y71814D01*
X91199Y71464D01*
X92400Y71346D01*
X92680Y71092D01*
Y21000D01*
Y12000D01*
X0D01*
Y405701D01*
X393701D01*
Y245020D01*
D02*
G37*
G36*
X66300Y151699D02*
X74000D01*
Y147550D01*
X73500Y147398D01*
X73400Y147548D01*
X72924Y147866D01*
X72363Y147978D01*
X72051D01*
Y145200D01*
X71051D01*
Y144200D01*
X68273D01*
Y143887D01*
X68384Y143326D01*
X68702Y142851D01*
X68778Y142799D01*
Y142299D01*
X68702Y142248D01*
X68384Y141773D01*
X68273Y141212D01*
Y140900D01*
X71051D01*
Y138900D01*
X68273D01*
Y138587D01*
X68384Y138026D01*
X68702Y137551D01*
X68778Y137499D01*
Y136999D01*
X68702Y136948D01*
X68384Y136473D01*
X68273Y135912D01*
Y135600D01*
X71051D01*
Y134599D01*
X72051D01*
Y131821D01*
X72363D01*
X72924Y131933D01*
X73400Y132251D01*
X73500Y132401D01*
X74000Y132249D01*
Y130000D01*
X50000D01*
X40000Y140000D01*
Y160000D01*
X58000D01*
X66300Y151699D01*
D02*
G37*
G36*
X393701Y12000D02*
X93700D01*
Y21000D01*
Y71494D01*
X94755Y71814D01*
X95819Y72383D01*
X96752Y73148D01*
X97517Y74081D01*
X98086Y75145D01*
X98436Y76299D01*
X98554Y77500D01*
X98436Y78701D01*
X98086Y79855D01*
X97517Y80919D01*
X96752Y81852D01*
X95819Y82617D01*
X94755Y83186D01*
X93700Y83506D01*
Y128381D01*
X96649D01*
X97039Y128458D01*
X97370Y128680D01*
X97591Y129010D01*
X97669Y129401D01*
Y140199D01*
X97591Y140590D01*
X97370Y140920D01*
X97039Y141141D01*
X96649Y141219D01*
X95425D01*
Y148381D01*
X95322Y149164D01*
X95020Y149894D01*
X94539Y150521D01*
X93700Y151359D01*
Y156421D01*
X103724Y166445D01*
X104205Y167071D01*
X104507Y167801D01*
X104610Y168584D01*
Y171800D01*
X105210Y172121D01*
X105648Y171828D01*
X106584Y171642D01*
X107521Y171828D01*
X108315Y172359D01*
X108845Y173152D01*
X109031Y174089D01*
X108845Y175025D01*
X108598Y175395D01*
X108673Y175508D01*
X108797Y176128D01*
Y181050D01*
X108673Y181670D01*
X108321Y182196D01*
X107795Y182548D01*
X107175Y182671D01*
X105994D01*
X105373Y182548D01*
X104847Y182196D01*
X104495Y181670D01*
X104372Y181050D01*
X103797D01*
X103673Y181670D01*
X103322Y182196D01*
X102795Y182548D01*
X102175Y182671D01*
X100994D01*
X100373Y182548D01*
X100210Y182439D01*
X99610Y182760D01*
Y183416D01*
X99507Y184199D01*
X99205Y184929D01*
X98724Y185555D01*
X93700Y190579D01*
Y196903D01*
X93796Y197388D01*
X94372D01*
X94495Y196768D01*
X94847Y196241D01*
X95373Y195890D01*
X95994Y195766D01*
X97175D01*
X97795Y195890D01*
X98321Y196241D01*
X98673Y196768D01*
X98796Y197388D01*
X99372D01*
X99495Y196768D01*
X99847Y196241D01*
X100373Y195890D01*
X100994Y195766D01*
X102175D01*
X102795Y195890D01*
X103322Y196241D01*
X103673Y196768D01*
X103797Y197388D01*
X104372D01*
X104495Y196768D01*
X104847Y196241D01*
X105373Y195890D01*
X105994Y195766D01*
X107175D01*
X107795Y195890D01*
X108321Y196241D01*
X108673Y196768D01*
X108700Y196903D01*
X110895D01*
X111222Y196505D01*
Y193880D01*
X111334Y193319D01*
X111652Y192844D01*
X111757Y192773D01*
Y192112D01*
X111652Y192041D01*
X111334Y191566D01*
X111222Y191005D01*
Y188380D01*
X111334Y187819D01*
X111652Y187344D01*
X111757Y187273D01*
Y186612D01*
X111652Y186541D01*
X111334Y186066D01*
X111222Y185505D01*
Y182880D01*
X111334Y182319D01*
X111652Y181844D01*
X111757Y181773D01*
Y181112D01*
X111652Y181041D01*
X111334Y180566D01*
X111222Y180005D01*
Y177380D01*
X111334Y176819D01*
X111652Y176344D01*
X111961Y176137D01*
Y174345D01*
X106558Y168942D01*
X106116Y168280D01*
X105961Y167500D01*
Y162319D01*
X103298D01*
X102908Y162241D01*
X102577Y162020D01*
X102357Y161689D01*
X102279Y161299D01*
Y148701D01*
X102357Y148311D01*
X102577Y147980D01*
X102908Y147759D01*
X103298Y147681D01*
X113142D01*
X113532Y147759D01*
X113863Y147980D01*
X114084Y148311D01*
X114161Y148701D01*
Y161299D01*
X114084Y161689D01*
X113863Y162020D01*
X113532Y162241D01*
X113142Y162319D01*
X110039D01*
Y166655D01*
X115442Y172058D01*
X115884Y172720D01*
X116040Y173500D01*
Y176137D01*
X116349Y176344D01*
X116667Y176819D01*
X116694Y176957D01*
X117306D01*
X117334Y176819D01*
X117651Y176344D01*
X118127Y176026D01*
X118688Y175914D01*
X119000D01*
Y178692D01*
X121000D01*
Y175914D01*
X121313D01*
X121554Y175716D01*
X121579Y175043D01*
X119268Y172732D01*
X118936Y172236D01*
X118820Y171650D01*
Y168851D01*
X118936Y168265D01*
X119268Y167769D01*
X120571Y166466D01*
Y114572D01*
X120687Y113986D01*
X121019Y113490D01*
X128831Y105678D01*
X128700Y105363D01*
Y103300D01*
X130763D01*
X131078Y103430D01*
X141471Y93038D01*
Y90467D01*
X140857Y90212D01*
X139969Y89531D01*
X139288Y88643D01*
X138859Y87609D01*
X138713Y86500D01*
X138859Y85391D01*
X139288Y84357D01*
X139969Y83469D01*
X140857Y82788D01*
X141891Y82359D01*
X143000Y82213D01*
X144109Y82359D01*
X145143Y82788D01*
X146031Y83469D01*
X146712Y84357D01*
X147141Y85391D01*
X147287Y86500D01*
X147141Y87609D01*
X146712Y88643D01*
X146031Y89531D01*
X145143Y90212D01*
X144529Y90467D01*
Y92024D01*
X145084Y92253D01*
X149114Y88223D01*
X148859Y87609D01*
X148713Y86500D01*
X148859Y85391D01*
X149288Y84357D01*
X149969Y83469D01*
X150857Y82788D01*
X151891Y82359D01*
X153000Y82213D01*
X154110Y82359D01*
X155143Y82788D01*
X156031Y83469D01*
X156712Y84357D01*
X157141Y85391D01*
X157287Y86500D01*
X157141Y87609D01*
X156712Y88643D01*
X156031Y89531D01*
X155143Y90212D01*
X154110Y90641D01*
X153000Y90787D01*
X151891Y90641D01*
X151277Y90386D01*
X142997Y98666D01*
X143226Y99221D01*
X178750D01*
X179335Y99337D01*
X179831Y99669D01*
X181763Y101600D01*
X182000Y101553D01*
X182936Y101739D01*
X183730Y102270D01*
X184261Y103064D01*
X184447Y104000D01*
X184261Y104936D01*
X183730Y105730D01*
X182936Y106261D01*
X182000Y106447D01*
X181064Y106261D01*
X180270Y105730D01*
X179739Y104936D01*
X179553Y104000D01*
X179600Y103763D01*
X178117Y102279D01*
X175172D01*
X174942Y102834D01*
X181309Y109200D01*
X181546Y109153D01*
X182482Y109339D01*
X183276Y109870D01*
X183807Y110664D01*
X183993Y111600D01*
X183807Y112536D01*
X183567Y112895D01*
X183562Y112910D01*
X183747Y113682D01*
X183850Y113751D01*
X183902Y113828D01*
X184623D01*
X184675Y113751D01*
X184813Y113659D01*
X185017Y112916D01*
X185004Y112864D01*
X184785Y112536D01*
X184599Y111600D01*
X184785Y110664D01*
X185316Y109870D01*
X186109Y109339D01*
X187046Y109153D01*
X187982Y109339D01*
X188776Y109870D01*
X189306Y110664D01*
X189493Y111600D01*
X189306Y112536D01*
X189074Y112885D01*
X189065Y112911D01*
X189258Y113675D01*
X189372Y113751D01*
X189424Y113828D01*
X190146D01*
X190197Y113751D01*
X190322Y113667D01*
X190522Y112913D01*
X190511Y112875D01*
X190285Y112536D01*
X190099Y111600D01*
X190285Y110664D01*
X190815Y109870D01*
X191609Y109339D01*
X192546Y109153D01*
X193482Y109339D01*
X194276Y109870D01*
X194807Y110664D01*
X194993Y111600D01*
X194807Y112536D01*
X194581Y112875D01*
X194570Y112913D01*
X194769Y113667D01*
X194895Y113751D01*
X195212Y114227D01*
X195324Y114787D01*
Y117412D01*
X195212Y117973D01*
X194895Y118449D01*
X194419Y118767D01*
X194281Y118794D01*
Y119406D01*
X194419Y119433D01*
X194895Y119751D01*
X195212Y120227D01*
X195324Y120788D01*
Y121100D01*
X192546D01*
Y122100D01*
X191546D01*
Y124878D01*
X191353D01*
X191163Y125233D01*
X191127Y125464D01*
X198347Y132684D01*
X198582Y133036D01*
X198922Y133530D01*
X199313Y133452D01*
X201517D01*
X201907Y133530D01*
X201990Y133585D01*
X202072Y133530D01*
X202462Y133452D01*
X202565D01*
Y137464D01*
Y141506D01*
X202351Y141771D01*
X202248Y142045D01*
X202261Y142064D01*
X202447Y143000D01*
X202261Y143936D01*
X201730Y144730D01*
X200936Y145261D01*
X200000Y145447D01*
X199064Y145261D01*
X198270Y144730D01*
X197739Y143936D01*
X197553Y143000D01*
X197737Y142076D01*
X197758Y141967D01*
X197419Y141475D01*
X196163D01*
X195773Y141398D01*
X195691Y141343D01*
X195608Y141398D01*
X195218Y141475D01*
X193013D01*
X192623Y141398D01*
X192541Y141343D01*
X192459Y141398D01*
X192069Y141475D01*
X189864D01*
X189474Y141398D01*
X189391Y141343D01*
X189309Y141398D01*
X188919Y141475D01*
X186714D01*
X186462Y141425D01*
X186233Y141578D01*
X186144Y141668D01*
X185991Y141897D01*
X186041Y142149D01*
Y144353D01*
X185963Y144744D01*
X185908Y144826D01*
X185963Y144908D01*
X186041Y145298D01*
Y147503D01*
X185963Y147893D01*
X185908Y147976D01*
X185963Y148058D01*
X186041Y148448D01*
Y150653D01*
X185963Y151043D01*
X185908Y151125D01*
X185963Y151207D01*
X186041Y151598D01*
Y153802D01*
X185963Y154192D01*
X185908Y154275D01*
X185963Y154357D01*
X186041Y154747D01*
Y156952D01*
X186545Y157470D01*
X187112D01*
X187246Y157269D01*
X188040Y156738D01*
X188976Y156552D01*
X189913Y156738D01*
X190707Y157269D01*
X191237Y158063D01*
X191423Y158999D01*
X191237Y159936D01*
X190707Y160730D01*
X189913Y161260D01*
X188976Y161446D01*
X188040Y161260D01*
X187246Y160730D01*
X187112Y160529D01*
X186545D01*
X186041Y161047D01*
Y163251D01*
X185963Y163641D01*
X185908Y163724D01*
X185963Y163806D01*
X186041Y164196D01*
Y166401D01*
X185963Y166791D01*
X185908Y166873D01*
X185963Y166955D01*
X186041Y167346D01*
Y169550D01*
X185963Y169941D01*
X185908Y170023D01*
X185963Y170105D01*
X186041Y170495D01*
Y172700D01*
X185963Y173090D01*
X185908Y173172D01*
X185963Y173255D01*
X186041Y173645D01*
Y175850D01*
X185991Y176102D01*
X186144Y176330D01*
X186233Y176420D01*
X186462Y176573D01*
X186714Y176523D01*
X188919D01*
X189309Y176601D01*
X189391Y176655D01*
X189474Y176601D01*
X189864Y176523D01*
X192069D01*
X192459Y176601D01*
X192541Y176655D01*
X192623Y176601D01*
X193013Y176523D01*
X195218D01*
X195608Y176601D01*
X195691Y176655D01*
X195773Y176601D01*
X196163Y176523D01*
X198368D01*
X198758Y176601D01*
X198840Y176655D01*
X198922Y176601D01*
X199313Y176523D01*
X199415D01*
Y180535D01*
Y184546D01*
X199313D01*
X198795Y185050D01*
Y185235D01*
X198678Y185820D01*
X198347Y186316D01*
X192046Y192617D01*
X192066Y192737D01*
X192687Y193222D01*
X193000D01*
Y196000D01*
X195000D01*
Y193222D01*
X195312D01*
X195873Y193333D01*
X196349Y193651D01*
X196389Y193711D01*
X197111D01*
X197151Y193651D01*
X197627Y193333D01*
X198187Y193222D01*
X198500D01*
Y196000D01*
X199500D01*
Y197000D01*
X202278D01*
Y197312D01*
X202167Y197873D01*
X201849Y198349D01*
X201373Y198667D01*
X201235Y198694D01*
Y199306D01*
X201373Y199333D01*
X201849Y199651D01*
X202167Y200127D01*
X202278Y200688D01*
Y203312D01*
X202167Y203873D01*
X201849Y204349D01*
X201795Y204385D01*
X201608Y205185D01*
X201761Y205414D01*
X201948Y206351D01*
X201761Y207287D01*
X201231Y208081D01*
X200437Y208611D01*
X199501Y208798D01*
X198564Y208611D01*
X197770Y208081D01*
X197240Y207287D01*
X197054Y206351D01*
X197240Y205414D01*
X197393Y205185D01*
X197206Y204385D01*
X197151Y204349D01*
X197111Y204289D01*
X196389D01*
X196349Y204349D01*
X196295Y204385D01*
X196108Y205185D01*
X196261Y205414D01*
X196448Y206351D01*
X196261Y207287D01*
X195731Y208081D01*
X194937Y208611D01*
X194000Y208798D01*
X193064Y208611D01*
X192270Y208081D01*
X191740Y207287D01*
X191553Y206351D01*
X191740Y205414D01*
X191893Y205185D01*
X191706Y204385D01*
X191651Y204349D01*
X191611Y204289D01*
X190889D01*
X190849Y204349D01*
X190687Y204457D01*
X190471Y205212D01*
X190606Y205414D01*
X190792Y206351D01*
X190606Y207287D01*
X190075Y208081D01*
X189874Y208215D01*
Y215711D01*
X190577Y216414D01*
X191191Y216159D01*
X192300Y216013D01*
X193410Y216159D01*
X194443Y216588D01*
X195331Y217269D01*
X196012Y218157D01*
X196441Y219191D01*
X196587Y220300D01*
X196441Y221410D01*
X196012Y222443D01*
X195331Y223331D01*
X194628Y223871D01*
X194832Y224471D01*
X199768D01*
X199972Y223871D01*
X199269Y223331D01*
X198588Y222443D01*
X198159Y221410D01*
X198013Y220300D01*
X198159Y219191D01*
X198588Y218157D01*
X199269Y217269D01*
X200157Y216588D01*
X201190Y216159D01*
X202300Y216013D01*
X203410Y216159D01*
X204443Y216588D01*
X205331Y217269D01*
X206012Y218157D01*
X206441Y219191D01*
X206587Y220300D01*
X206441Y221410D01*
X206012Y222443D01*
X205331Y223331D01*
X204628Y223871D01*
X204832Y224471D01*
X206842D01*
X207427Y224587D01*
X207924Y224919D01*
X210476Y227471D01*
X271100D01*
X271685Y227587D01*
X272181Y227919D01*
X278281Y234019D01*
X278613Y234515D01*
X278729Y235100D01*
Y244000D01*
X310230D01*
Y238500D01*
X310308Y238110D01*
X310529Y237779D01*
X310860Y237558D01*
X311250Y237480D01*
X311474D01*
Y236578D01*
X311443Y236538D01*
X311090Y235686D01*
X310970Y234772D01*
X311090Y233859D01*
X311443Y233007D01*
X312004Y232276D01*
X312735Y231715D01*
X313586Y231363D01*
X314500Y231242D01*
X315414Y231363D01*
X316265Y231715D01*
X316996Y232276D01*
X317557Y233007D01*
X317910Y233859D01*
X318030Y234772D01*
X317910Y235686D01*
X317557Y236538D01*
X317526Y236578D01*
Y237480D01*
X317750D01*
X318140Y237558D01*
X318471Y237779D01*
X318692Y238110D01*
X318770Y238500D01*
Y244000D01*
X393701D01*
Y12000D01*
D02*
G37*
G36*
X177171Y272538D02*
Y244334D01*
X175237Y242400D01*
X175000Y242447D01*
X174064Y242261D01*
X173270Y241730D01*
X172739Y240936D01*
X172553Y240000D01*
X172739Y239064D01*
X173096Y238529D01*
X172767Y237666D01*
X172653Y237529D01*
X168658D01*
X168179Y238529D01*
X168410Y239086D01*
X168530Y240000D01*
X168410Y240914D01*
X168252Y241294D01*
X168340Y241458D01*
X168671Y241679D01*
X168892Y242010D01*
X168970Y242400D01*
Y254400D01*
X168892Y254790D01*
X168671Y255121D01*
X168340Y255342D01*
X167950Y255420D01*
X161450D01*
X161060Y255342D01*
X160729Y255121D01*
X160508Y254790D01*
X160430Y254400D01*
Y242400D01*
X160508Y242010D01*
X160729Y241679D01*
X161060Y241458D01*
X161474Y241033D01*
X161520Y240380D01*
X161470Y240000D01*
X161590Y239086D01*
X161821Y238529D01*
X161342Y237529D01*
X156186D01*
X155601Y237413D01*
X155105Y237081D01*
X141068Y223044D01*
X140985Y223036D01*
X128129Y235892D01*
Y250017D01*
X129129Y250116D01*
X129239Y249564D01*
X129770Y248770D01*
X130564Y248239D01*
X131500Y248053D01*
X132436Y248239D01*
X133230Y248770D01*
X133761Y249564D01*
X133947Y250500D01*
X133916Y250657D01*
X134325Y251156D01*
X134775Y251465D01*
X134990Y251508D01*
X135321Y251729D01*
X135542Y252060D01*
X135620Y252450D01*
Y254950D01*
X135542Y255340D01*
X135345Y255634D01*
X135321Y255695D01*
Y256705D01*
X135345Y256766D01*
X135542Y257060D01*
X135620Y257450D01*
Y257700D01*
X131350D01*
Y259700D01*
X135620D01*
Y259950D01*
X135542Y260340D01*
X135345Y260634D01*
X135321Y260695D01*
Y261705D01*
X135345Y261766D01*
X135542Y262060D01*
X135620Y262450D01*
Y264950D01*
X135542Y265340D01*
X135345Y265634D01*
X135321Y265694D01*
Y266163D01*
X136170Y267071D01*
X138201D01*
X138227Y267076D01*
X139222Y267088D01*
X139333Y266527D01*
X139651Y266051D01*
Y265297D01*
X139333Y264821D01*
X139222Y264260D01*
Y261635D01*
X139333Y261074D01*
X139651Y260599D01*
Y259844D01*
X139333Y259369D01*
X139222Y258808D01*
Y258495D01*
X142000D01*
Y256495D01*
X139222D01*
Y256183D01*
X139333Y255622D01*
X139651Y255146D01*
Y254392D01*
X139333Y253916D01*
X139222Y253355D01*
Y253043D01*
X142000D01*
Y252043D01*
X143000D01*
Y249265D01*
X143313D01*
X143873Y249376D01*
X144349Y249694D01*
X144444Y249837D01*
X144485Y249852D01*
X145515D01*
X145556Y249837D01*
X145651Y249694D01*
X146127Y249376D01*
X146687Y249265D01*
X149312D01*
X149873Y249376D01*
X150349Y249694D01*
X151535Y249801D01*
X151564Y249782D01*
X152500Y249596D01*
X153436Y249782D01*
X154230Y250313D01*
X154761Y251107D01*
X154947Y252043D01*
X154761Y252979D01*
X154230Y253773D01*
X153468Y254283D01*
X153445Y254427D01*
X153505Y255310D01*
X153630Y255334D01*
X154424Y255865D01*
X154954Y256659D01*
X155141Y257595D01*
X154954Y258532D01*
X154424Y259326D01*
X153630Y259856D01*
X152694Y260042D01*
X151757Y259856D01*
X151742Y259845D01*
X150879Y260080D01*
X150694Y260181D01*
X150505Y260833D01*
X150667Y261074D01*
X150778Y261635D01*
Y261948D01*
X148000D01*
Y263948D01*
X150778D01*
Y264260D01*
X150667Y264821D01*
X150503Y265065D01*
X150683Y265756D01*
X151086Y265969D01*
X151708Y266142D01*
X151714Y266139D01*
X152650Y265952D01*
X153586Y266139D01*
X154380Y266669D01*
X154911Y267463D01*
X155097Y268400D01*
X154911Y269336D01*
X154380Y270130D01*
X153586Y270660D01*
X152650Y270847D01*
X151714Y270660D01*
X151579Y270570D01*
X151534Y270556D01*
X150349Y270749D01*
X149873Y271067D01*
X149312Y271178D01*
X146687D01*
X146127Y271067D01*
X145651Y270749D01*
X145556Y270606D01*
X145515Y270591D01*
X144485D01*
X144444Y270606D01*
X144349Y270749D01*
X143873Y271067D01*
X143313Y271178D01*
X140688D01*
X140127Y271067D01*
X139651Y270749D01*
X139333Y270273D01*
X139325Y270229D01*
X138301D01*
X137799Y270129D01*
X135584D01*
X135542Y270340D01*
X135345Y270634D01*
X135321Y270694D01*
Y271706D01*
X135345Y271766D01*
X135542Y272060D01*
X135620Y272450D01*
Y274440D01*
X136545Y275068D01*
X136586Y275073D01*
X136817Y274977D01*
X137600Y274874D01*
X157971D01*
X158754Y274977D01*
X159484Y275279D01*
X160430Y274745D01*
Y270400D01*
X163700D01*
Y276420D01*
X162184D01*
X161770Y277420D01*
X165640Y281289D01*
X166121Y281916D01*
X166209Y282130D01*
X167347Y282362D01*
X177171Y272538D01*
D02*
G37*
%LPC*%
G36*
X76950Y103620D02*
X70450D01*
X70060Y103542D01*
X69729Y103321D01*
X69508Y102990D01*
X69430Y102600D01*
Y90600D01*
X69508Y90210D01*
X69729Y89879D01*
X70060Y89658D01*
X70074Y89655D01*
Y88078D01*
X70043Y88038D01*
X69690Y87186D01*
X69570Y86272D01*
X69690Y85359D01*
X70043Y84507D01*
X70604Y83776D01*
X71335Y83215D01*
X72186Y82863D01*
X73100Y82742D01*
X74014Y82863D01*
X74865Y83215D01*
X75596Y83776D01*
X76157Y84507D01*
X76510Y85359D01*
X76630Y86272D01*
X76510Y87186D01*
X76157Y88038D01*
X76126Y88078D01*
Y89580D01*
X76950D01*
X77340Y89658D01*
X77671Y89879D01*
X77892Y90210D01*
X77970Y90600D01*
Y102600D01*
X77892Y102990D01*
X77671Y103321D01*
X77340Y103542D01*
X76950Y103620D01*
D02*
G37*
G36*
X16000Y38876D02*
X14299Y38742D01*
X12639Y38344D01*
X11062Y37691D01*
X9607Y36799D01*
X8309Y35691D01*
X7201Y34393D01*
X6309Y32938D01*
X5656Y31361D01*
X5258Y29701D01*
X5124Y28000D01*
X5258Y26299D01*
X5656Y24639D01*
X6309Y23062D01*
X7201Y21607D01*
X8309Y20310D01*
X9607Y19201D01*
X11062Y18309D01*
X12639Y17656D01*
X14299Y17258D01*
X16000Y17124D01*
X17701Y17258D01*
X19361Y17656D01*
X20938Y18309D01*
X22393Y19201D01*
X23690Y20310D01*
X24799Y21607D01*
X25691Y23062D01*
X26344Y24639D01*
X26742Y26299D01*
X26876Y28000D01*
X26742Y29701D01*
X26344Y31361D01*
X25691Y32938D01*
X24799Y34393D01*
X23690Y35691D01*
X22393Y36799D01*
X20938Y37691D01*
X19361Y38344D01*
X17701Y38742D01*
X16000Y38876D01*
D02*
G37*
G36*
X38988Y110861D02*
X32412D01*
X32022Y110784D01*
X31691Y110563D01*
X28403Y107275D01*
X28403Y107275D01*
X28182Y106944D01*
X28105Y106554D01*
Y99978D01*
X28182Y99588D01*
X28403Y99257D01*
X31691Y95969D01*
X32022Y95748D01*
X32412Y95671D01*
X33151D01*
Y59129D01*
X32412D01*
X32022Y59052D01*
X31691Y58831D01*
X28403Y55543D01*
X28403Y55543D01*
X28182Y55212D01*
X28105Y54822D01*
Y48246D01*
X28182Y47856D01*
X28403Y47525D01*
X31691Y44238D01*
X32022Y44016D01*
X32412Y43939D01*
X33151D01*
Y36200D01*
X33222Y35844D01*
Y34587D01*
X33333Y34027D01*
X33651Y33551D01*
X34127Y33233D01*
X34688Y33122D01*
X37312D01*
X37873Y33233D01*
X38349Y33551D01*
X38444Y33694D01*
X38485Y33709D01*
X39515D01*
X39556Y33694D01*
X39651Y33551D01*
X40127Y33233D01*
X40688Y33122D01*
X43312D01*
X43873Y33233D01*
X44049Y33351D01*
X46650D01*
X47625Y33545D01*
X48452Y34097D01*
X49005Y34924D01*
X49199Y35899D01*
X49005Y36875D01*
X48452Y37702D01*
X47625Y38254D01*
X46650Y38449D01*
X44050D01*
X43873Y38567D01*
X43312Y38678D01*
X40688D01*
X40127Y38567D01*
X39651Y38249D01*
X38701Y38544D01*
X38249Y38993D01*
Y43939D01*
X38988D01*
X39378Y44016D01*
X39709Y44238D01*
X42996Y47525D01*
X42997Y47525D01*
X43218Y47856D01*
X43295Y48246D01*
Y54822D01*
X43218Y55212D01*
X42997Y55543D01*
X39709Y58831D01*
X39378Y59052D01*
X38988Y59129D01*
X38249D01*
Y95671D01*
X38988D01*
X39378Y95748D01*
X39709Y95969D01*
X42996Y99257D01*
X42997Y99257D01*
X43218Y99588D01*
X43295Y99978D01*
Y106554D01*
X43218Y106944D01*
X42997Y107275D01*
X39709Y110563D01*
X39378Y110784D01*
X38988Y110861D01*
D02*
G37*
G36*
X49174Y85175D02*
X43564D01*
X42571Y85044D01*
X41645Y84661D01*
X40850Y84051D01*
X40240Y83256D01*
X39857Y82330D01*
X39726Y81337D01*
X39857Y80344D01*
X40240Y79418D01*
X40850Y78623D01*
X41645Y78013D01*
X41819Y77941D01*
Y76859D01*
X41645Y76787D01*
X40850Y76177D01*
X40240Y75382D01*
X39857Y74456D01*
X39726Y73463D01*
X39857Y72470D01*
X40240Y71544D01*
X40850Y70749D01*
X41645Y70139D01*
X42571Y69756D01*
X43564Y69625D01*
X49174D01*
X50167Y69756D01*
X51093Y70139D01*
X51888Y70749D01*
X52498Y71544D01*
X52881Y72470D01*
X53012Y73463D01*
X53018Y73471D01*
X62366D01*
X64971Y70867D01*
Y68800D01*
X65087Y68215D01*
X65419Y67719D01*
X69409Y63728D01*
X68995Y62728D01*
X67482D01*
X66921Y62617D01*
X66445Y62299D01*
X66350Y62156D01*
X66309Y62141D01*
X65279D01*
X65238Y62156D01*
X65143Y62299D01*
X64667Y62617D01*
X64107Y62728D01*
X61482D01*
X60921Y62617D01*
X60445Y62299D01*
X59380Y62211D01*
X58443Y62397D01*
X57507Y62211D01*
X56713Y61681D01*
X56183Y60887D01*
X55996Y59951D01*
X56183Y59014D01*
X56713Y58220D01*
X57507Y57690D01*
X58443Y57503D01*
X59380Y57690D01*
X60062Y57633D01*
X60431Y56669D01*
X60233Y56373D01*
X60122Y55813D01*
Y55500D01*
X62900D01*
Y53500D01*
X60122D01*
Y53188D01*
X60233Y52627D01*
X60470Y52273D01*
X60128Y51322D01*
X59386Y51261D01*
X58449Y51448D01*
X57513Y51261D01*
X56719Y50731D01*
X56188Y49937D01*
X56002Y49000D01*
X56188Y48064D01*
X56719Y47270D01*
X57442Y46787D01*
X57482Y46437D01*
X57446Y46088D01*
X57388Y45745D01*
X56619Y45231D01*
X56089Y44437D01*
X55902Y43501D01*
X56089Y42564D01*
X56619Y41770D01*
X57413Y41240D01*
X58349Y41054D01*
X59286Y41240D01*
X60351Y41151D01*
X60827Y40833D01*
X61387Y40722D01*
X64012D01*
X64573Y40833D01*
X65049Y41151D01*
X65144Y41294D01*
X65185Y41309D01*
X66215D01*
X66256Y41294D01*
X66351Y41151D01*
X66827Y40833D01*
X67387Y40722D01*
X67700D01*
Y43500D01*
X69700D01*
Y40722D01*
X70012D01*
X70573Y40833D01*
X70671Y40898D01*
X71157Y40598D01*
X71481Y40237D01*
X71323Y39443D01*
X71509Y38507D01*
X72040Y37713D01*
X72834Y37182D01*
X73770Y36996D01*
X74707Y37182D01*
X74755Y37215D01*
X75755Y36680D01*
Y36097D01*
X75833Y35706D01*
X75901Y35605D01*
X75833Y35503D01*
X75755Y35113D01*
Y33538D01*
X75833Y33147D01*
X75901Y33046D01*
X75833Y32944D01*
X75755Y32553D01*
Y30979D01*
X75833Y30588D01*
X76054Y30257D01*
X76385Y30037D01*
X76775Y29959D01*
X82681D01*
X83071Y30037D01*
X83402Y30257D01*
X83623Y30588D01*
X83701Y30979D01*
Y32553D01*
X83623Y32944D01*
X83555Y33046D01*
X83623Y33147D01*
X83701Y33538D01*
Y35113D01*
X83623Y35503D01*
X83555Y35605D01*
X83623Y35706D01*
X83701Y36097D01*
Y37672D01*
X83623Y38062D01*
X83555Y38164D01*
X83623Y38265D01*
X83701Y38655D01*
Y40231D01*
X83623Y40621D01*
X83555Y40723D01*
X83623Y40824D01*
X83701Y41214D01*
Y42790D01*
X83623Y43180D01*
X83555Y43281D01*
X83623Y43383D01*
X83701Y43773D01*
Y45349D01*
X83623Y45739D01*
X83555Y45840D01*
X83623Y45942D01*
X83701Y46332D01*
Y47908D01*
X83623Y48298D01*
X83555Y48400D01*
X83623Y48502D01*
X83701Y48893D01*
Y50467D01*
X83623Y50858D01*
X83555Y50959D01*
X83623Y51061D01*
X83658Y51239D01*
X83327D01*
X83071Y51410D01*
X82681Y51487D01*
X79728D01*
Y52991D01*
X82681D01*
X83071Y53068D01*
X83327Y53239D01*
X83658D01*
X83623Y53417D01*
X83555Y53518D01*
X83623Y53620D01*
X83701Y54010D01*
Y54594D01*
X84701Y55129D01*
X84749Y55096D01*
X85686Y54910D01*
X86622Y55096D01*
X87416Y55627D01*
X87946Y56421D01*
X88133Y57357D01*
X87946Y58293D01*
X87416Y59087D01*
X86622Y59618D01*
X85686Y59804D01*
X84749Y59618D01*
X84701Y59585D01*
X83701Y60120D01*
Y60703D01*
X83623Y61094D01*
X83555Y61195D01*
X83623Y61297D01*
X83701Y61687D01*
Y63262D01*
X83623Y63653D01*
X83555Y63754D01*
X83623Y63856D01*
X83701Y64246D01*
Y65821D01*
X83623Y66212D01*
X83402Y66543D01*
X83071Y66764D01*
X82681Y66841D01*
X77122D01*
X61544Y82418D01*
X61048Y82750D01*
X60463Y82866D01*
X52659D01*
X52498Y83256D01*
X51888Y84051D01*
X51093Y84661D01*
X50167Y85044D01*
X49174Y85175D01*
D02*
G37*
G36*
Y67458D02*
X43564D01*
X42571Y67327D01*
X41645Y66944D01*
X40850Y66334D01*
X40240Y65539D01*
X39857Y64613D01*
X39726Y63620D01*
X39857Y62627D01*
X40240Y61701D01*
X40850Y60906D01*
X41645Y60296D01*
X42571Y59913D01*
X43564Y59782D01*
X49174D01*
X50167Y59913D01*
X51093Y60296D01*
X51888Y60906D01*
X52498Y61701D01*
X52881Y62627D01*
X53012Y63620D01*
X52881Y64613D01*
X52498Y65539D01*
X51888Y66334D01*
X51093Y66944D01*
X50167Y67327D01*
X49174Y67458D01*
D02*
G37*
G36*
X43200Y116500D02*
X41171D01*
Y115250D01*
X41287Y114665D01*
X41619Y114169D01*
X42115Y113837D01*
X42700Y113721D01*
X43200D01*
Y116500D01*
D02*
G37*
G36*
X313500Y264500D02*
X310230D01*
Y259500D01*
X310308Y259110D01*
X310529Y258779D01*
X310860Y258558D01*
X311250Y258480D01*
X313500D01*
Y264500D01*
D02*
G37*
G36*
X197850Y255520D02*
X191350D01*
X190960Y255442D01*
X190629Y255221D01*
X190408Y254890D01*
X190330Y254500D01*
Y252126D01*
X189006D01*
X188965Y252157D01*
X188114Y252510D01*
X187200Y252630D01*
X186286Y252510D01*
X185435Y252157D01*
X184704Y251596D01*
X184143Y250865D01*
X183790Y250014D01*
X183670Y249100D01*
X183790Y248186D01*
X184143Y247335D01*
X184704Y246604D01*
X185435Y246043D01*
X186286Y245690D01*
X187200Y245570D01*
X188114Y245690D01*
X188965Y246043D01*
X189006Y246074D01*
X190330D01*
Y242500D01*
X190408Y242110D01*
X190629Y241779D01*
X190960Y241558D01*
X191350Y241480D01*
X197850D01*
X198240Y241558D01*
X198571Y241779D01*
X198792Y242110D01*
X198870Y242500D01*
Y254500D01*
X198792Y254890D01*
X198571Y255221D01*
X198240Y255442D01*
X197850Y255520D01*
D02*
G37*
G36*
X289656Y251043D02*
X287878D01*
Y250730D01*
X287989Y250169D01*
X288307Y249694D01*
X288783Y249376D01*
X289343Y249265D01*
X289656D01*
Y251043D01*
D02*
G37*
G36*
X318770Y264500D02*
X315500D01*
Y258480D01*
X317750D01*
X318140Y258558D01*
X318471Y258779D01*
X318692Y259110D01*
X318770Y259500D01*
Y264500D01*
D02*
G37*
G36*
X313500Y272520D02*
X311250D01*
X310860Y272442D01*
X310529Y272221D01*
X310308Y271890D01*
X310230Y271500D01*
Y266500D01*
X313500D01*
Y272520D01*
D02*
G37*
G36*
X49400Y228370D02*
X44400D01*
X44010Y228292D01*
X43679Y228071D01*
X43458Y227740D01*
X43380Y227350D01*
Y225100D01*
X49400D01*
Y228370D01*
D02*
G37*
G36*
X23500Y262670D02*
X11500D01*
X11110Y262592D01*
X10779Y262371D01*
X10558Y262040D01*
X10480Y261650D01*
Y255150D01*
X10558Y254760D01*
X10779Y254429D01*
X11110Y254208D01*
X11500Y254130D01*
X14274D01*
Y250878D01*
X14243Y250837D01*
X13890Y249986D01*
X13770Y249072D01*
X13890Y248159D01*
X14243Y247307D01*
X14804Y246576D01*
X15535Y246015D01*
X16386Y245662D01*
X17300Y245542D01*
X18214Y245662D01*
X19065Y246015D01*
X19796Y246576D01*
X20357Y247307D01*
X20710Y248159D01*
X20830Y249072D01*
X20710Y249986D01*
X20357Y250837D01*
X20326Y250878D01*
Y254130D01*
X23500D01*
X23890Y254208D01*
X24221Y254429D01*
X24442Y254760D01*
X24520Y255150D01*
Y261650D01*
X24442Y262040D01*
X24221Y262371D01*
X23890Y262592D01*
X23500Y262670D01*
D02*
G37*
G36*
X37312Y231678D02*
X34688D01*
X34127Y231567D01*
X33932Y231437D01*
X33267Y231318D01*
X32601Y231437D01*
X32407Y231567D01*
X31846Y231678D01*
X29221D01*
X28660Y231567D01*
X28466Y231437D01*
X27800Y231318D01*
X27134Y231437D01*
X26940Y231567D01*
X26379Y231678D01*
X23754D01*
X23193Y231567D01*
X22718Y231249D01*
X22524Y230959D01*
X20358D01*
X20026Y231180D01*
X19089Y231366D01*
X18153Y231180D01*
X17359Y230650D01*
X16829Y229856D01*
X16642Y228920D01*
X16829Y227983D01*
X17359Y227189D01*
X18153Y226659D01*
X19089Y226472D01*
X20026Y226659D01*
X20358Y226880D01*
X22498D01*
X22718Y226551D01*
X22861Y226456D01*
X22876Y226415D01*
Y225385D01*
X22861Y225344D01*
X22718Y225249D01*
X22400Y224773D01*
X22288Y224213D01*
Y223900D01*
X25067D01*
Y222900D01*
X26067D01*
Y220122D01*
X26379D01*
X26940Y220233D01*
X27415Y220551D01*
X28184D01*
X28660Y220233D01*
X29221Y220122D01*
X29533D01*
Y222900D01*
X31533D01*
Y220122D01*
X31846D01*
X32407Y220233D01*
X32882Y220551D01*
X33651D01*
X34127Y220233D01*
X34688Y220122D01*
X35000D01*
Y222900D01*
X36000D01*
Y223900D01*
X38778D01*
Y224213D01*
X38667Y224773D01*
X38349Y225249D01*
X38206Y225344D01*
X38191Y225385D01*
Y226415D01*
X38206Y226456D01*
X38349Y226551D01*
X38667Y227027D01*
X38778Y227588D01*
Y230212D01*
X38667Y230773D01*
X38349Y231249D01*
X37873Y231567D01*
X37312Y231678D01*
D02*
G37*
G36*
X56400Y228370D02*
X51400D01*
Y225100D01*
X57420D01*
Y227350D01*
X57342Y227740D01*
X57121Y228071D01*
X56790Y228292D01*
X56400Y228370D01*
D02*
G37*
G36*
X317750Y272520D02*
X315500D01*
Y266500D01*
X318770D01*
Y271500D01*
X318692Y271890D01*
X318471Y272221D01*
X318140Y272442D01*
X317750Y272520D01*
D02*
G37*
G36*
X109960Y377178D02*
X109648D01*
X109087Y377067D01*
X108611Y376749D01*
X108293Y376273D01*
X108182Y375712D01*
Y375400D01*
X109960D01*
Y377178D01*
D02*
G37*
G36*
X34060D02*
X33748D01*
X33187Y377067D01*
X32711Y376749D01*
X32393Y376273D01*
X32282Y375712D01*
Y375400D01*
X34060D01*
Y377178D01*
D02*
G37*
G36*
X270835Y345119D02*
X262335D01*
X261945Y345041D01*
X261614Y344820D01*
X261393Y344490D01*
X261315Y344099D01*
Y341726D01*
X259306D01*
X259265Y341757D01*
X258414Y342110D01*
X257500Y342230D01*
X256586Y342110D01*
X255735Y341757D01*
X255694Y341726D01*
X253542D01*
Y344099D01*
X253464Y344490D01*
X253243Y344820D01*
X252913Y345041D01*
X252522Y345119D01*
X244022D01*
X243632Y345041D01*
X243301Y344820D01*
X243080Y344490D01*
X243003Y344099D01*
Y333300D01*
X243080Y332910D01*
X243301Y332579D01*
X243632Y332359D01*
X244022Y332281D01*
X252522D01*
X252913Y332359D01*
X253243Y332579D01*
X253464Y332910D01*
X253542Y333300D01*
Y335674D01*
X255694D01*
X255735Y335643D01*
X256586Y335290D01*
X257500Y335170D01*
X258414Y335290D01*
X259265Y335643D01*
X259306Y335674D01*
X261315D01*
Y333300D01*
X261393Y332910D01*
X261614Y332579D01*
X261945Y332359D01*
X262335Y332281D01*
X270835D01*
X271225Y332359D01*
X271556Y332579D01*
X271777Y332910D01*
X271854Y333300D01*
Y344099D01*
X271777Y344490D01*
X271556Y344820D01*
X271225Y345041D01*
X270835Y345119D01*
D02*
G37*
G36*
X181840Y377178D02*
X181527D01*
X180967Y377067D01*
X180491Y376749D01*
X180173Y376273D01*
X180062Y375712D01*
Y375400D01*
X181840D01*
Y377178D01*
D02*
G37*
G36*
X379000Y401876D02*
X377299Y401742D01*
X375639Y401344D01*
X374062Y400691D01*
X372607Y399799D01*
X371309Y398691D01*
X370201Y397393D01*
X369309Y395938D01*
X368656Y394361D01*
X368258Y392701D01*
X368124Y391000D01*
X368258Y389299D01*
X368656Y387639D01*
X369309Y386062D01*
X370201Y384607D01*
X371309Y383310D01*
X372607Y382201D01*
X374062Y381309D01*
X375639Y380656D01*
X377299Y380258D01*
X379000Y380124D01*
X380701Y380258D01*
X382361Y380656D01*
X383938Y381309D01*
X385393Y382201D01*
X386690Y383310D01*
X387799Y384607D01*
X388691Y386062D01*
X389344Y387639D01*
X389742Y389299D01*
X389876Y391000D01*
X389742Y392701D01*
X389344Y394361D01*
X388691Y395938D01*
X387799Y397393D01*
X386690Y398691D01*
X385393Y399799D01*
X383938Y400691D01*
X382361Y401344D01*
X380701Y401742D01*
X379000Y401876D01*
D02*
G37*
G36*
X16000D02*
X14299Y401742D01*
X12639Y401344D01*
X11062Y400691D01*
X9607Y399799D01*
X8309Y398691D01*
X7201Y397393D01*
X6309Y395938D01*
X5656Y394361D01*
X5258Y392701D01*
X5124Y391000D01*
X5258Y389299D01*
X5656Y387639D01*
X6309Y386062D01*
X7201Y384607D01*
X8309Y383310D01*
X9607Y382201D01*
X11062Y381309D01*
X12639Y380656D01*
X14299Y380258D01*
X16000Y380124D01*
X17701Y380258D01*
X19361Y380656D01*
X20938Y381309D01*
X22393Y382201D01*
X23690Y383310D01*
X24799Y384607D01*
X25691Y386062D01*
X26344Y387639D01*
X26742Y389299D01*
X26876Y391000D01*
X26742Y392701D01*
X26344Y394361D01*
X25691Y395938D01*
X24799Y397393D01*
X23690Y398691D01*
X22393Y399799D01*
X20938Y400691D01*
X19361Y401344D01*
X17701Y401742D01*
X16000Y401876D01*
D02*
G37*
G36*
X254060Y377178D02*
X253748D01*
X253187Y377067D01*
X252711Y376749D01*
X252393Y376273D01*
X252282Y375712D01*
Y375400D01*
X254060D01*
Y377178D01*
D02*
G37*
G36*
X199406Y345119D02*
X190906D01*
X190516Y345041D01*
X190185Y344820D01*
X189964Y344490D01*
X189886Y344099D01*
Y341726D01*
X188306D01*
X188265Y341757D01*
X187414Y342110D01*
X186500Y342230D01*
X185586Y342110D01*
X184735Y341757D01*
X184694Y341726D01*
X182113D01*
Y344099D01*
X182036Y344490D01*
X181815Y344820D01*
X181484Y345041D01*
X181094Y345119D01*
X172594D01*
X172204Y345041D01*
X171873Y344820D01*
X171652Y344490D01*
X171574Y344099D01*
Y333300D01*
X171652Y332910D01*
X171873Y332579D01*
X172204Y332359D01*
X172594Y332281D01*
X181094D01*
X181484Y332359D01*
X181815Y332579D01*
X182036Y332910D01*
X182113Y333300D01*
Y335674D01*
X184694D01*
X184735Y335643D01*
X185586Y335290D01*
X186500Y335170D01*
X187414Y335290D01*
X188265Y335643D01*
X188306Y335674D01*
X189886D01*
Y333300D01*
X189964Y332910D01*
X190185Y332579D01*
X190516Y332359D01*
X190906Y332281D01*
X199406D01*
X199796Y332359D01*
X200127Y332579D01*
X200348Y332910D01*
X200426Y333300D01*
Y344099D01*
X200348Y344490D01*
X200127Y344820D01*
X199796Y345041D01*
X199406Y345119D01*
D02*
G37*
G36*
X323951Y325719D02*
X315451D01*
X315061Y325641D01*
X314730Y325420D01*
X314509Y325090D01*
X314431Y324699D01*
Y313900D01*
X314509Y313510D01*
X314730Y313179D01*
X315061Y312959D01*
X315451Y312881D01*
X323951D01*
X324341Y312959D01*
X324672Y313179D01*
X324893Y313510D01*
X324971Y313900D01*
Y316274D01*
X327623D01*
X327663Y316243D01*
X328515Y315890D01*
X329429Y315770D01*
X330342Y315890D01*
X331194Y316243D01*
X331925Y316804D01*
X332486Y317535D01*
X332838Y318386D01*
X332959Y319300D01*
X332838Y320214D01*
X332486Y321065D01*
X331925Y321796D01*
X331194Y322357D01*
X330342Y322710D01*
X329429Y322830D01*
X328515Y322710D01*
X327663Y322357D01*
X327623Y322326D01*
X324971D01*
Y324699D01*
X324893Y325090D01*
X324672Y325420D01*
X324341Y325641D01*
X323951Y325719D01*
D02*
G37*
G36*
X181300Y293254D02*
X180099Y293136D01*
X178945Y292786D01*
X177881Y292217D01*
X176948Y291452D01*
X176183Y290519D01*
X175614Y289455D01*
X175264Y288301D01*
X175146Y287100D01*
X175264Y285899D01*
X175614Y284745D01*
X176183Y283681D01*
X176948Y282748D01*
X177881Y281983D01*
X178945Y281414D01*
X180099Y281064D01*
X181300Y280946D01*
X182501Y281064D01*
X183655Y281414D01*
X184719Y281983D01*
X185652Y282748D01*
X186417Y283681D01*
X186986Y284745D01*
X187336Y285899D01*
X187454Y287100D01*
X187336Y288301D01*
X186986Y289455D01*
X186417Y290519D01*
X185652Y291452D01*
X184719Y292217D01*
X183655Y292786D01*
X182501Y293136D01*
X181300Y293254D01*
D02*
G37*
G36*
X199406Y325719D02*
X190906D01*
X190516Y325641D01*
X190185Y325420D01*
X189964Y325090D01*
X189886Y324699D01*
Y322326D01*
X187806D01*
X187765Y322357D01*
X186914Y322710D01*
X186000Y322830D01*
X185086Y322710D01*
X184235Y322357D01*
X184194Y322326D01*
X182113D01*
Y324699D01*
X182036Y325090D01*
X181815Y325420D01*
X181484Y325641D01*
X181094Y325719D01*
X172594D01*
X172204Y325641D01*
X171873Y325420D01*
X171652Y325090D01*
X171574Y324699D01*
Y313900D01*
X171652Y313510D01*
X171873Y313179D01*
X172204Y312959D01*
X172594Y312881D01*
X181094D01*
X181484Y312959D01*
X181815Y313179D01*
X182036Y313510D01*
X182113Y313900D01*
Y316274D01*
X184194D01*
X184235Y316243D01*
X185086Y315890D01*
X186000Y315770D01*
X186914Y315890D01*
X187765Y316243D01*
X187806Y316274D01*
X189886D01*
Y313900D01*
X189964Y313510D01*
X190185Y313179D01*
X190516Y312959D01*
X190906Y312881D01*
X199406D01*
X199796Y312959D01*
X200127Y313179D01*
X200348Y313510D01*
X200426Y313900D01*
Y324699D01*
X200348Y325090D01*
X200127Y325420D01*
X199796Y325641D01*
X199406Y325719D01*
D02*
G37*
G36*
X56549Y345119D02*
X48049D01*
X47659Y345041D01*
X47328Y344820D01*
X47107Y344490D01*
X47029Y344099D01*
Y341726D01*
X44377D01*
X44337Y341757D01*
X43485Y342110D01*
X42571Y342230D01*
X41658Y342110D01*
X40806Y341757D01*
X40766Y341726D01*
X40600D01*
X39817Y341623D01*
X39087Y341320D01*
X38460Y340840D01*
X22160Y324540D01*
X21679Y323913D01*
X21377Y323183D01*
X21274Y322400D01*
Y286200D01*
X21377Y285417D01*
X21679Y284687D01*
X22160Y284060D01*
X36174Y270047D01*
Y268106D01*
X36143Y268065D01*
X35790Y267214D01*
X35670Y266300D01*
X35790Y265386D01*
X36143Y264535D01*
X36174Y264494D01*
Y262670D01*
X32500D01*
X32110Y262592D01*
X31779Y262371D01*
X31558Y262040D01*
X31480Y261650D01*
Y255150D01*
X31558Y254760D01*
X31779Y254429D01*
X32110Y254208D01*
X32500Y254130D01*
X44500D01*
X44890Y254208D01*
X45221Y254429D01*
X45442Y254760D01*
X45520Y255150D01*
Y261650D01*
X45442Y262040D01*
X45221Y262371D01*
X44890Y262592D01*
X44500Y262670D01*
X42226D01*
Y264494D01*
X42257Y264535D01*
X42610Y265386D01*
X42730Y266300D01*
X42610Y267214D01*
X42257Y268065D01*
X42226Y268106D01*
Y271300D01*
X42123Y272083D01*
X41820Y272813D01*
X41340Y273440D01*
X27326Y287453D01*
Y321147D01*
X41524Y335345D01*
X41658Y335290D01*
X42571Y335170D01*
X43485Y335290D01*
X44337Y335643D01*
X44377Y335674D01*
X47029D01*
Y333300D01*
X47107Y332910D01*
X47328Y332579D01*
X47659Y332359D01*
X48049Y332281D01*
X56549D01*
X56939Y332359D01*
X57270Y332579D01*
X57491Y332910D01*
X57569Y333300D01*
Y344099D01*
X57491Y344490D01*
X57270Y344820D01*
X56939Y345041D01*
X56549Y345119D01*
D02*
G37*
G36*
X323951D02*
X315451D01*
X315061Y345041D01*
X314730Y344820D01*
X314509Y344490D01*
X314431Y344099D01*
Y333300D01*
X314509Y332910D01*
X314730Y332579D01*
X315061Y332359D01*
X315451Y332281D01*
X323951D01*
X324341Y332359D01*
X324672Y332579D01*
X324893Y332910D01*
X324971Y333300D01*
Y335674D01*
X327623D01*
X327663Y335643D01*
X328515Y335290D01*
X329429Y335170D01*
X330342Y335290D01*
X331194Y335643D01*
X331925Y336204D01*
X332486Y336935D01*
X332838Y337786D01*
X332959Y338700D01*
X332838Y339614D01*
X332486Y340465D01*
X331925Y341196D01*
X331194Y341757D01*
X330342Y342110D01*
X329429Y342230D01*
X328515Y342110D01*
X327663Y341757D01*
X327623Y341726D01*
X324971D01*
Y344099D01*
X324893Y344490D01*
X324672Y344820D01*
X324341Y345041D01*
X323951Y345119D01*
D02*
G37*
G36*
X270835Y325719D02*
X262335D01*
X261945Y325641D01*
X261614Y325420D01*
X261393Y325090D01*
X261315Y324699D01*
Y322326D01*
X259567D01*
X259265Y322557D01*
X258414Y322910D01*
X257500Y323030D01*
X256586Y322910D01*
X255735Y322557D01*
X255433Y322326D01*
X253542D01*
Y324699D01*
X253464Y325090D01*
X253243Y325420D01*
X252913Y325641D01*
X252522Y325719D01*
X244022D01*
X243632Y325641D01*
X243301Y325420D01*
X243080Y325090D01*
X243003Y324699D01*
Y313900D01*
X243080Y313510D01*
X243301Y313179D01*
X243632Y312959D01*
X244022Y312881D01*
X252522D01*
X252913Y312959D01*
X253243Y313179D01*
X253464Y313510D01*
X253542Y313900D01*
Y316274D01*
X256142D01*
X256586Y316090D01*
X257500Y315970D01*
X258414Y316090D01*
X258858Y316274D01*
X261315D01*
Y313900D01*
X261393Y313510D01*
X261614Y313179D01*
X261945Y312959D01*
X262335Y312881D01*
X270835D01*
X271225Y312959D01*
X271556Y313179D01*
X271777Y313510D01*
X271854Y313900D01*
Y324699D01*
X271777Y325090D01*
X271556Y325420D01*
X271225Y325641D01*
X270835Y325719D01*
D02*
G37*
G36*
X52700Y121279D02*
X49700D01*
X49115Y121163D01*
X48619Y120831D01*
X48287Y120335D01*
X48210Y119947D01*
X47190D01*
X47113Y120335D01*
X46781Y120831D01*
X46285Y121163D01*
X45700Y121279D01*
X45200D01*
Y117500D01*
Y113721D01*
X45700D01*
X46285Y113837D01*
X46781Y114169D01*
X47113Y114665D01*
X47190Y115053D01*
X48210D01*
X48287Y114665D01*
X48619Y114169D01*
X49115Y113837D01*
X49161Y113828D01*
Y96856D01*
X47323Y95018D01*
X43564D01*
X42571Y94887D01*
X41645Y94504D01*
X40850Y93894D01*
X40240Y93099D01*
X39857Y92173D01*
X39726Y91180D01*
X39857Y90187D01*
X40240Y89261D01*
X40850Y88466D01*
X41645Y87856D01*
X42571Y87473D01*
X43564Y87342D01*
X49174D01*
X50167Y87473D01*
X51093Y87856D01*
X51888Y88466D01*
X52498Y89261D01*
X52881Y90187D01*
X53012Y91180D01*
X52881Y92173D01*
X52498Y93099D01*
X51922Y93849D01*
X52642Y94569D01*
X52642Y94569D01*
X53084Y95231D01*
X53239Y96011D01*
X53239Y96011D01*
Y113828D01*
X53285Y113837D01*
X53781Y114169D01*
X54113Y114665D01*
X54229Y115250D01*
Y119750D01*
X54113Y120335D01*
X53781Y120831D01*
X53285Y121163D01*
X52700Y121279D01*
D02*
G37*
G36*
X43200D02*
X42700D01*
X42115Y121163D01*
X41619Y120831D01*
X41287Y120335D01*
X41171Y119750D01*
Y118500D01*
X43200D01*
Y121279D01*
D02*
G37*
G36*
X24100Y157843D02*
X22795Y157671D01*
X21578Y157167D01*
X20534Y156366D01*
X19733Y155322D01*
X19229Y154105D01*
X19057Y152800D01*
Y143800D01*
X19229Y142495D01*
X19733Y141278D01*
X20534Y140234D01*
X21578Y139433D01*
X22795Y138929D01*
X24100Y138757D01*
X25405Y138929D01*
X26622Y139433D01*
X27666Y140234D01*
X28468Y141278D01*
X28971Y142495D01*
X29143Y143800D01*
Y152800D01*
X28971Y154105D01*
X28468Y155322D01*
X27666Y156366D01*
X26622Y157167D01*
X25405Y157671D01*
X24100Y157843D01*
D02*
G37*
G36*
X40600Y133843D02*
X31600D01*
X30295Y133671D01*
X29078Y133168D01*
X28034Y132366D01*
X27233Y131322D01*
X26729Y130105D01*
X26557Y128800D01*
X26729Y127495D01*
X27233Y126278D01*
X28034Y125234D01*
X29078Y124433D01*
X30295Y123929D01*
X31600Y123757D01*
X40600D01*
X41905Y123929D01*
X43122Y124433D01*
X44166Y125234D01*
X44967Y126278D01*
X45471Y127495D01*
X45643Y128800D01*
X45471Y130105D01*
X44967Y131322D01*
X44166Y132366D01*
X43122Y133168D01*
X41905Y133671D01*
X40600Y133843D01*
D02*
G37*
G36*
X57420Y223100D02*
X51400D01*
Y219830D01*
X56400D01*
X56790Y219908D01*
X57121Y220129D01*
X57342Y220460D01*
X57420Y220850D01*
Y223100D01*
D02*
G37*
G36*
X49400D02*
X43380D01*
Y220850D01*
X43458Y220460D01*
X43679Y220129D01*
X44010Y219908D01*
X44400Y219830D01*
X49400D01*
Y223100D01*
D02*
G37*
G36*
X24067Y221900D02*
X22288D01*
Y221587D01*
X22400Y221027D01*
X22718Y220551D01*
X23193Y220233D01*
X23754Y220122D01*
X24067D01*
Y221900D01*
D02*
G37*
G36*
X77400Y228370D02*
X65400D01*
X65010Y228292D01*
X64679Y228071D01*
X64458Y227740D01*
X64380Y227350D01*
Y220850D01*
X64458Y220460D01*
X64679Y220129D01*
X65010Y219908D01*
X65400Y219830D01*
X77400D01*
X77790Y219908D01*
X78121Y220129D01*
X78342Y220460D01*
X78420Y220850D01*
X79362Y221043D01*
X80214Y220690D01*
X81128Y220570D01*
X82041Y220690D01*
X82893Y221043D01*
X83624Y221604D01*
X84185Y222335D01*
X84538Y223186D01*
X84658Y224100D01*
X84538Y225014D01*
X84185Y225865D01*
X83624Y226596D01*
X82893Y227157D01*
X82041Y227510D01*
X81128Y227630D01*
X80214Y227510D01*
X79362Y227157D01*
X78420Y227350D01*
X78342Y227740D01*
X78121Y228071D01*
X77790Y228292D01*
X77400Y228370D01*
D02*
G37*
G36*
X38778Y221900D02*
X37000D01*
Y220122D01*
X37312D01*
X37873Y220233D01*
X38349Y220551D01*
X38667Y221027D01*
X38778Y221587D01*
Y221900D01*
D02*
G37*
G36*
X37312Y210778D02*
X37000D01*
Y209000D01*
X38778D01*
Y209313D01*
X38667Y209873D01*
X38349Y210349D01*
X37873Y210667D01*
X37312Y210778D01*
D02*
G37*
G36*
X70051Y147978D02*
X69738D01*
X69177Y147866D01*
X68702Y147548D01*
X68384Y147073D01*
X68273Y146512D01*
Y146200D01*
X70051D01*
Y147978D01*
D02*
G37*
G36*
X53643Y146800D02*
X50100D01*
Y139009D01*
X51122Y139433D01*
X52166Y140234D01*
X52968Y141278D01*
X53471Y142495D01*
X53643Y143800D01*
Y146800D01*
D02*
G37*
G36*
X47100D02*
X43557D01*
Y143800D01*
X43729Y142495D01*
X44232Y141278D01*
X45034Y140234D01*
X46078Y139433D01*
X47100Y139009D01*
Y146800D01*
D02*
G37*
G36*
Y157591D02*
X46078Y157167D01*
X45034Y156366D01*
X44232Y155322D01*
X43729Y154105D01*
X43557Y152800D01*
Y149800D01*
X47100D01*
Y157591D01*
D02*
G37*
G36*
X50100D02*
Y149800D01*
X53643D01*
Y152800D01*
X53471Y154105D01*
X52968Y155322D01*
X52166Y156366D01*
X51122Y157167D01*
X50100Y157591D01*
D02*
G37*
G36*
X70051Y133599D02*
X68273D01*
Y133287D01*
X68384Y132726D01*
X68702Y132251D01*
X69177Y131933D01*
X69738Y131821D01*
X70051D01*
Y133599D01*
D02*
G37*
G36*
X127270Y85000D02*
X124500D01*
Y82230D01*
X126250D01*
X126640Y82308D01*
X126971Y82529D01*
X127192Y82860D01*
X127270Y83250D01*
Y85000D01*
D02*
G37*
G36*
X121500D02*
X118730D01*
Y83250D01*
X118808Y82860D01*
X119029Y82529D01*
X119360Y82308D01*
X119750Y82230D01*
X121500D01*
Y85000D01*
D02*
G37*
G36*
X103450Y103320D02*
X96950D01*
X96560Y103242D01*
X96229Y103021D01*
X96008Y102690D01*
X95930Y102300D01*
Y90300D01*
X96008Y89910D01*
X96229Y89579D01*
X96560Y89358D01*
X96950Y89280D01*
X97174D01*
Y88378D01*
X97143Y88337D01*
X96790Y87486D01*
X96670Y86572D01*
X96790Y85659D01*
X97143Y84807D01*
X97704Y84076D01*
X98435Y83515D01*
X99286Y83162D01*
X100200Y83042D01*
X101114Y83162D01*
X101965Y83515D01*
X102696Y84076D01*
X103257Y84807D01*
X103610Y85659D01*
X103730Y86572D01*
X103610Y87486D01*
X103257Y88337D01*
X103226Y88378D01*
Y89280D01*
X103450D01*
X103840Y89358D01*
X104171Y89579D01*
X104392Y89910D01*
X104470Y90300D01*
Y102300D01*
X104392Y102690D01*
X104171Y103021D01*
X103840Y103242D01*
X103450Y103320D01*
D02*
G37*
G36*
X365800Y94587D02*
X364690Y94441D01*
X363657Y94012D01*
X362769Y93331D01*
X362088Y92443D01*
X361659Y91409D01*
X361513Y90300D01*
X361659Y89191D01*
X362088Y88157D01*
X362769Y87269D01*
X363657Y86588D01*
X364690Y86159D01*
X365800Y86013D01*
X366910Y86159D01*
X367943Y86588D01*
X368831Y87269D01*
X369512Y88157D01*
X369941Y89191D01*
X370087Y90300D01*
X369941Y91409D01*
X369512Y92443D01*
X368831Y93331D01*
X367943Y94012D01*
X366910Y94441D01*
X365800Y94587D01*
D02*
G37*
G36*
X355800D02*
X354691Y94441D01*
X353657Y94012D01*
X352769Y93331D01*
X352088Y92443D01*
X351659Y91409D01*
X351513Y90300D01*
X351659Y89191D01*
X352088Y88157D01*
X352769Y87269D01*
X353657Y86588D01*
X354691Y86159D01*
X355800Y86013D01*
X356909Y86159D01*
X357943Y86588D01*
X358831Y87269D01*
X359512Y88157D01*
X359941Y89191D01*
X360087Y90300D01*
X359941Y91409D01*
X359512Y92443D01*
X358831Y93331D01*
X357943Y94012D01*
X356909Y94441D01*
X355800Y94587D01*
D02*
G37*
G36*
X345800D02*
X344690Y94441D01*
X343657Y94012D01*
X342769Y93331D01*
X342088Y92443D01*
X341659Y91409D01*
X341513Y90300D01*
X341659Y89191D01*
X342088Y88157D01*
X342769Y87269D01*
X343657Y86588D01*
X344690Y86159D01*
X345800Y86013D01*
X346909Y86159D01*
X347943Y86588D01*
X348831Y87269D01*
X349512Y88157D01*
X349941Y89191D01*
X350087Y90300D01*
X349941Y91409D01*
X349512Y92443D01*
X348831Y93331D01*
X347943Y94012D01*
X346909Y94441D01*
X345800Y94587D01*
D02*
G37*
G36*
X173000Y90787D02*
X171890Y90641D01*
X170857Y90212D01*
X169969Y89531D01*
X169288Y88643D01*
X168859Y87609D01*
X168713Y86500D01*
X168859Y85391D01*
X169288Y84357D01*
X169969Y83469D01*
X170857Y82788D01*
X171890Y82359D01*
X173000Y82213D01*
X174109Y82359D01*
X175143Y82788D01*
X176031Y83469D01*
X176712Y84357D01*
X177141Y85391D01*
X177287Y86500D01*
X177141Y87609D01*
X176712Y88643D01*
X176031Y89531D01*
X175143Y90212D01*
X174109Y90641D01*
X173000Y90787D01*
D02*
G37*
G36*
X227250Y78270D02*
X220750D01*
X220360Y78192D01*
X220029Y77971D01*
X219808Y77640D01*
X219730Y77250D01*
Y70750D01*
X219808Y70360D01*
X220029Y70029D01*
X220360Y69808D01*
X220750Y69730D01*
X227250D01*
X227640Y69808D01*
X227971Y70029D01*
X228192Y70360D01*
X228270Y70750D01*
Y77250D01*
X228192Y77640D01*
X227971Y77971D01*
X227640Y78192D01*
X227250Y78270D01*
D02*
G37*
G36*
X125812Y71278D02*
X125500D01*
Y69500D01*
X127278D01*
Y69813D01*
X127167Y70373D01*
X126849Y70849D01*
X126373Y71167D01*
X125812Y71278D01*
D02*
G37*
G36*
X123500D02*
X123187D01*
X122627Y71167D01*
X122151Y70849D01*
X121833Y70373D01*
X121722Y69813D01*
Y69500D01*
X123500D01*
Y71278D01*
D02*
G37*
G36*
X183800Y76447D02*
X182864Y76261D01*
X182070Y75730D01*
X181539Y74936D01*
X181353Y74000D01*
X181539Y73064D01*
X181664Y72877D01*
X181303Y72337D01*
X180750Y72447D01*
X179814Y72261D01*
X179020Y71730D01*
X178489Y70936D01*
X178303Y70000D01*
X178489Y69064D01*
X179020Y68270D01*
X179221Y68135D01*
Y58884D01*
X148866Y28529D01*
X120034D01*
X115715Y32847D01*
X115219Y33179D01*
X114634Y33295D01*
X112443D01*
X112245Y33538D01*
Y35113D01*
X112167Y35503D01*
X112099Y35605D01*
X112167Y35706D01*
X112245Y36097D01*
Y37672D01*
X112167Y38062D01*
X112099Y38164D01*
X112167Y38265D01*
X112202Y38443D01*
X111871D01*
X111615Y38614D01*
X111225Y38691D01*
X108272D01*
Y40195D01*
X111225D01*
X111615Y40272D01*
X111871Y40443D01*
X112202D01*
X112167Y40621D01*
X112099Y40723D01*
X112167Y40824D01*
X112245Y41214D01*
Y42790D01*
X112167Y43180D01*
X112099Y43281D01*
X112167Y43383D01*
X112245Y43773D01*
Y44832D01*
X112845Y45153D01*
X113313Y44840D01*
X114249Y44653D01*
X115186Y44840D01*
X115980Y45370D01*
X116510Y46164D01*
X116696Y47100D01*
X116510Y48037D01*
X115980Y48831D01*
X115186Y49361D01*
X114249Y49548D01*
X113313Y49361D01*
X112845Y49049D01*
X112245Y49369D01*
Y50467D01*
X112167Y50858D01*
X112099Y50959D01*
X112167Y51061D01*
X112245Y51451D01*
Y53026D01*
X112167Y53417D01*
X112099Y53518D01*
X112167Y53620D01*
X112245Y54010D01*
Y55585D01*
X112167Y55976D01*
X112099Y56077D01*
X112167Y56179D01*
X112245Y56569D01*
Y58144D01*
X112167Y58535D01*
X112099Y58636D01*
X112167Y58738D01*
X112245Y59128D01*
Y60703D01*
X112167Y61094D01*
X112099Y61195D01*
X112167Y61297D01*
X112245Y61687D01*
Y63262D01*
X112167Y63653D01*
X112099Y63754D01*
X112167Y63856D01*
X112245Y64246D01*
Y65821D01*
X112167Y66212D01*
X111946Y66543D01*
X111615Y66764D01*
X111225Y66841D01*
X105319D01*
X104929Y66764D01*
X104598Y66543D01*
X104377Y66212D01*
X104299Y65821D01*
Y64246D01*
X104377Y63856D01*
X104445Y63754D01*
X104377Y63653D01*
X104299Y63262D01*
Y61687D01*
X104377Y61297D01*
X104445Y61195D01*
X104377Y61094D01*
X104299Y60703D01*
Y59128D01*
X104377Y58738D01*
X104445Y58636D01*
X104377Y58535D01*
X104299Y58144D01*
Y56569D01*
X104377Y56179D01*
X104445Y56077D01*
X104377Y55976D01*
X104299Y55585D01*
Y54010D01*
X104377Y53620D01*
X104445Y53518D01*
X104377Y53417D01*
X104299Y53026D01*
Y51451D01*
X104377Y51061D01*
X104445Y50959D01*
X104377Y50858D01*
X104299Y50467D01*
Y48893D01*
X104377Y48502D01*
X104445Y48400D01*
X104377Y48298D01*
X104299Y47908D01*
Y46332D01*
X104377Y45942D01*
X104445Y45840D01*
X104377Y45739D01*
X104299Y45349D01*
Y43773D01*
X104350Y43521D01*
X103817Y43415D01*
X103321Y43083D01*
X101249Y41012D01*
X100917Y40516D01*
X100801Y39930D01*
Y29969D01*
X100917Y29384D01*
X101249Y28888D01*
X103419Y26719D01*
X103915Y26387D01*
X104500Y26271D01*
X115138D01*
X117490Y23919D01*
X117986Y23587D01*
X118572Y23471D01*
X150328D01*
X150914Y23587D01*
X151410Y23919D01*
X184881Y57390D01*
X185213Y57886D01*
X185329Y58472D01*
Y72136D01*
X185530Y72270D01*
X186061Y73064D01*
X186247Y74000D01*
X186061Y74936D01*
X185530Y75730D01*
X184736Y76261D01*
X183800Y76447D01*
D02*
G37*
G36*
X163000Y90787D02*
X161890Y90641D01*
X160857Y90212D01*
X159969Y89531D01*
X159288Y88643D01*
X158859Y87609D01*
X158713Y86500D01*
X158859Y85391D01*
X159288Y84357D01*
X159969Y83469D01*
X160857Y82788D01*
X161890Y82359D01*
X163000Y82213D01*
X164110Y82359D01*
X165143Y82788D01*
X166031Y83469D01*
X166712Y84357D01*
X167141Y85391D01*
X167287Y86500D01*
X167141Y87609D01*
X166712Y88643D01*
X166031Y89531D01*
X165143Y90212D01*
X164110Y90641D01*
X163000Y90787D01*
D02*
G37*
G36*
X104470Y116300D02*
X101200D01*
Y110280D01*
X103450D01*
X103840Y110358D01*
X104171Y110579D01*
X104392Y110910D01*
X104470Y111300D01*
Y116300D01*
D02*
G37*
G36*
X133000Y90787D02*
X131890Y90641D01*
X130857Y90212D01*
X129969Y89531D01*
X129288Y88643D01*
X128859Y87609D01*
X128713Y86500D01*
X128859Y85391D01*
X129288Y84357D01*
X129969Y83469D01*
X130857Y82788D01*
X131890Y82359D01*
X133000Y82213D01*
X134109Y82359D01*
X135143Y82788D01*
X136031Y83469D01*
X136712Y84357D01*
X137141Y85391D01*
X137287Y86500D01*
X137141Y87609D01*
X136712Y88643D01*
X136031Y89531D01*
X135143Y90212D01*
X134109Y90641D01*
X133000Y90787D01*
D02*
G37*
G36*
X365800Y104587D02*
X364690Y104441D01*
X363657Y104012D01*
X362769Y103331D01*
X362088Y102443D01*
X361659Y101409D01*
X361513Y100300D01*
X361659Y99190D01*
X362088Y98157D01*
X362769Y97269D01*
X363657Y96588D01*
X364690Y96159D01*
X365800Y96013D01*
X366910Y96159D01*
X367943Y96588D01*
X368831Y97269D01*
X369512Y98157D01*
X369941Y99190D01*
X370087Y100300D01*
X369941Y101409D01*
X369512Y102443D01*
X368831Y103331D01*
X367943Y104012D01*
X366910Y104441D01*
X365800Y104587D01*
D02*
G37*
G36*
X355800D02*
X354691Y104441D01*
X353657Y104012D01*
X352769Y103331D01*
X352088Y102443D01*
X351659Y101409D01*
X351513Y100300D01*
X351659Y99190D01*
X352088Y98157D01*
X352769Y97269D01*
X353657Y96588D01*
X354691Y96159D01*
X355800Y96013D01*
X356909Y96159D01*
X357943Y96588D01*
X358831Y97269D01*
X359512Y98157D01*
X359941Y99190D01*
X360087Y100300D01*
X359941Y101409D01*
X359512Y102443D01*
X358831Y103331D01*
X357943Y104012D01*
X356909Y104441D01*
X355800Y104587D01*
D02*
G37*
G36*
X345800D02*
X344690Y104441D01*
X343657Y104012D01*
X342769Y103331D01*
X342088Y102443D01*
X341659Y101409D01*
X341513Y100300D01*
X341659Y99190D01*
X342088Y98157D01*
X342769Y97269D01*
X343657Y96588D01*
X344690Y96159D01*
X345800Y96013D01*
X346909Y96159D01*
X347943Y96588D01*
X348831Y97269D01*
X349512Y98157D01*
X349941Y99190D01*
X350087Y100300D01*
X349941Y101409D01*
X349512Y102443D01*
X348831Y103331D01*
X347943Y104012D01*
X346909Y104441D01*
X345800Y104587D01*
D02*
G37*
G36*
X334300Y98800D02*
X331821D01*
X332088Y98157D01*
X332769Y97269D01*
X333657Y96588D01*
X334300Y96321D01*
Y98800D01*
D02*
G37*
G36*
X337300Y104279D02*
Y101800D01*
X339779D01*
X339512Y102443D01*
X338831Y103331D01*
X337943Y104012D01*
X337300Y104279D01*
D02*
G37*
G36*
X334300D02*
X333657Y104012D01*
X332769Y103331D01*
X332088Y102443D01*
X331821Y101800D01*
X334300D01*
Y104279D01*
D02*
G37*
G36*
X339779Y98800D02*
X337300D01*
Y96321D01*
X337943Y96588D01*
X338831Y97269D01*
X339512Y98157D01*
X339779Y98800D01*
D02*
G37*
G36*
X323913Y95328D02*
X323600D01*
Y93550D01*
X325378D01*
Y93862D01*
X325267Y94423D01*
X324949Y94899D01*
X324473Y95217D01*
X323913Y95328D01*
D02*
G37*
G36*
X99200Y116300D02*
X95930D01*
Y111300D01*
X96008Y110910D01*
X96229Y110579D01*
X96560Y110358D01*
X96950Y110280D01*
X99200D01*
Y116300D01*
D02*
G37*
G36*
X126250Y90770D02*
X124500D01*
Y88000D01*
X127270D01*
Y89750D01*
X127192Y90140D01*
X126971Y90471D01*
X126640Y90692D01*
X126250Y90770D01*
D02*
G37*
G36*
X121500D02*
X119750D01*
X119360Y90692D01*
X119029Y90471D01*
X118808Y90140D01*
X118730Y89750D01*
Y88000D01*
X121500D01*
Y90770D01*
D02*
G37*
G36*
X339050Y94570D02*
X332550D01*
X332160Y94492D01*
X331829Y94271D01*
X331608Y93940D01*
X331530Y93550D01*
Y88914D01*
X331205Y88589D01*
X325156D01*
X324949Y88899D01*
X324473Y89217D01*
X324335Y89244D01*
Y89856D01*
X324473Y89883D01*
X324949Y90201D01*
X325267Y90677D01*
X325378Y91237D01*
Y91550D01*
X322600D01*
X319822D01*
Y91237D01*
X319933Y90677D01*
X320251Y90201D01*
X320727Y89883D01*
X320865Y89856D01*
Y89244D01*
X320727Y89217D01*
X320251Y88899D01*
X319933Y88423D01*
X319822Y87862D01*
Y85237D01*
X319933Y84677D01*
X320251Y84201D01*
X320727Y83883D01*
X321287Y83772D01*
X323913D01*
X324473Y83883D01*
X324949Y84201D01*
X325156Y84511D01*
X332050D01*
X332830Y84666D01*
X333492Y85108D01*
X334414Y86030D01*
X339050D01*
X339440Y86108D01*
X339771Y86329D01*
X339992Y86660D01*
X340070Y87050D01*
Y93550D01*
X339992Y93940D01*
X339771Y94271D01*
X339440Y94492D01*
X339050Y94570D01*
D02*
G37*
G36*
X115750Y105078D02*
X115437D01*
X114877Y104967D01*
X114401Y104649D01*
X114083Y104173D01*
X113972Y103612D01*
Y103300D01*
X115750D01*
Y105078D01*
D02*
G37*
G36*
X126700D02*
X126388D01*
X125827Y104967D01*
X125351Y104649D01*
X125311Y104589D01*
X124589D01*
X124549Y104649D01*
X124073Y104967D01*
X123512Y105078D01*
X123200D01*
Y102300D01*
X121200D01*
Y105078D01*
X120887D01*
X120327Y104967D01*
X119851Y104649D01*
X119836Y104626D01*
X119114D01*
X119099Y104649D01*
X118623Y104967D01*
X118062Y105078D01*
X117750D01*
Y102300D01*
X116750D01*
Y101300D01*
X113972D01*
Y100988D01*
X114083Y100427D01*
X114401Y99951D01*
X114877Y99633D01*
X115015Y99606D01*
Y98994D01*
X114877Y98967D01*
X114401Y98649D01*
X114317Y98524D01*
X113563Y98324D01*
X113525Y98335D01*
X113186Y98561D01*
X112250Y98747D01*
X111314Y98561D01*
X110520Y98030D01*
X109989Y97236D01*
X109803Y96300D01*
X109989Y95364D01*
X110520Y94570D01*
X111314Y94039D01*
X112250Y93853D01*
X113186Y94039D01*
X113525Y94265D01*
X113563Y94276D01*
X114317Y94076D01*
X114401Y93951D01*
X114877Y93633D01*
X115437Y93522D01*
X118062D01*
X118623Y93633D01*
X119099Y93951D01*
X119114Y93974D01*
X119836D01*
X119851Y93951D01*
X120327Y93633D01*
X120887Y93522D01*
X123512D01*
X124073Y93633D01*
X124549Y93951D01*
X124589Y94011D01*
X125311D01*
X125351Y93951D01*
X125827Y93633D01*
X126388Y93522D01*
X129013D01*
X129573Y93633D01*
X130049Y93951D01*
X130367Y94427D01*
X130478Y94987D01*
Y97613D01*
X130367Y98173D01*
X130049Y98649D01*
X129573Y98967D01*
X129435Y98994D01*
Y99606D01*
X129573Y99633D01*
X130049Y99951D01*
X130367Y100427D01*
X130478Y100988D01*
Y101300D01*
X127700D01*
Y102300D01*
X126700D01*
Y105078D01*
D02*
G37*
G36*
X321600Y95328D02*
X321287D01*
X320727Y95217D01*
X320251Y94899D01*
X319933Y94423D01*
X319822Y93862D01*
Y93550D01*
X321600D01*
Y95328D01*
D02*
G37*
G36*
X206000Y79447D02*
X205064Y79261D01*
X204270Y78730D01*
X203739Y77936D01*
X203553Y77000D01*
X203679Y76368D01*
X203270Y75768D01*
X202527D01*
X202137Y75690D01*
X201806Y75469D01*
X201585Y75138D01*
X201507Y74748D01*
Y66874D01*
X201585Y66484D01*
X201806Y66153D01*
X202137Y65932D01*
X202527Y65854D01*
X208039D01*
X208429Y65932D01*
X208760Y66153D01*
X208981Y66484D01*
X209058Y66874D01*
Y74748D01*
X208981Y75138D01*
X208760Y75469D01*
X208639Y75550D01*
X208394Y75883D01*
X208313Y76325D01*
X208447Y77000D01*
X208261Y77936D01*
X207730Y78730D01*
X206936Y79261D01*
X206000Y79447D01*
D02*
G37*
G36*
X214000Y52047D02*
X213064Y51861D01*
X212270Y51330D01*
X211739Y50536D01*
X211553Y49600D01*
X211739Y48664D01*
X211961Y48332D01*
Y47556D01*
X211651Y47349D01*
X211333Y46873D01*
X211222Y46312D01*
Y43687D01*
X211333Y43127D01*
X211651Y42651D01*
X212127Y42333D01*
X212265Y42306D01*
Y41694D01*
X212127Y41667D01*
X211651Y41349D01*
X211333Y40873D01*
X211222Y40312D01*
Y40000D01*
X214000D01*
Y39000D01*
D01*
Y40000D01*
X216778D01*
Y40312D01*
X216667Y40873D01*
X216349Y41349D01*
X215873Y41667D01*
X215735Y41694D01*
Y42306D01*
X215873Y42333D01*
X216349Y42651D01*
X216667Y43127D01*
X216778Y43687D01*
Y46312D01*
X216667Y46873D01*
X216349Y47349D01*
X216039Y47556D01*
Y48332D01*
X216261Y48664D01*
X216447Y49600D01*
X216261Y50536D01*
X215730Y51330D01*
X214936Y51861D01*
X214000Y52047D01*
D02*
G37*
G36*
X216778Y38000D02*
X215000D01*
Y36222D01*
X215313D01*
X215873Y36333D01*
X216349Y36651D01*
X216667Y37127D01*
X216778Y37688D01*
Y38000D01*
D02*
G37*
G36*
X213000D02*
X211222D01*
Y37688D01*
X211333Y37127D01*
X211651Y36651D01*
X212127Y36333D01*
X212687Y36222D01*
X213000D01*
Y38000D01*
D02*
G37*
G36*
X224000Y48287D02*
X222890Y48141D01*
X221857Y47712D01*
X220969Y47031D01*
X220288Y46143D01*
X219859Y45110D01*
X219713Y44000D01*
X219859Y42891D01*
X220288Y41857D01*
X220969Y40969D01*
X221857Y40288D01*
X222890Y39859D01*
X224000Y39713D01*
X225110Y39859D01*
X226143Y40288D01*
X227031Y40969D01*
X227712Y41857D01*
X228141Y42891D01*
X228287Y44000D01*
X228141Y45110D01*
X227712Y46143D01*
X227031Y47031D01*
X226143Y47712D01*
X225110Y48141D01*
X224000Y48287D01*
D02*
G37*
G36*
X121600Y46078D02*
X121288D01*
X120727Y45967D01*
X120251Y45649D01*
X119933Y45173D01*
X119822Y44613D01*
Y44300D01*
X121600D01*
Y46078D01*
D02*
G37*
G36*
X205000Y55947D02*
X204064Y55761D01*
X203270Y55230D01*
X202739Y54436D01*
X202553Y53500D01*
X202703Y52746D01*
X202649Y52563D01*
X202458Y52253D01*
X202324Y52105D01*
X202137Y52068D01*
X201806Y51847D01*
X201585Y51516D01*
X201507Y51126D01*
Y43252D01*
X201585Y42862D01*
X201806Y42531D01*
X202137Y42310D01*
X202527Y42232D01*
X208039D01*
X208429Y42310D01*
X208760Y42531D01*
X208981Y42862D01*
X209058Y43252D01*
Y51126D01*
X208981Y51516D01*
X208760Y51847D01*
X208429Y52068D01*
X208039Y52146D01*
X207648D01*
X207297Y52746D01*
X207447Y53500D01*
X207261Y54436D01*
X206730Y55230D01*
X205936Y55761D01*
X205000Y55947D01*
D02*
G37*
G36*
X191434Y79447D02*
X190498Y79261D01*
X189704Y78730D01*
X189173Y77936D01*
X188987Y77000D01*
X189113Y76368D01*
X188704Y75768D01*
X187961D01*
X187571Y75690D01*
X187240Y75469D01*
X187019Y75138D01*
X186942Y74748D01*
Y66874D01*
X187019Y66484D01*
X187240Y66153D01*
X187571Y65932D01*
X187961Y65854D01*
X189188D01*
Y52146D01*
X187961D01*
X187571Y52068D01*
X187240Y51847D01*
X187019Y51516D01*
X186942Y51126D01*
Y43252D01*
X187019Y42862D01*
X187240Y42531D01*
X187571Y42310D01*
X187961Y42232D01*
X193473D01*
X193863Y42310D01*
X194194Y42531D01*
X194415Y42862D01*
X194492Y43252D01*
Y51126D01*
X194415Y51516D01*
X194194Y51847D01*
X193863Y52068D01*
X193473Y52146D01*
X192246D01*
Y65854D01*
X193473D01*
X193863Y65932D01*
X194194Y66153D01*
X194415Y66484D01*
X194492Y66874D01*
Y74748D01*
X194415Y75138D01*
X194194Y75469D01*
X194073Y75550D01*
X193828Y75883D01*
X193747Y76325D01*
X193881Y77000D01*
X193695Y77936D01*
X193164Y78730D01*
X192370Y79261D01*
X191434Y79447D01*
D02*
G37*
G36*
X225500Y37979D02*
Y35500D01*
X227979D01*
X227712Y36143D01*
X227031Y37031D01*
X226143Y37712D01*
X225500Y37979D01*
D02*
G37*
G36*
X224000Y28287D02*
X222890Y28141D01*
X221857Y27712D01*
X220969Y27031D01*
X220288Y26143D01*
X219859Y25109D01*
X219713Y24000D01*
X219859Y22891D01*
X220288Y21857D01*
X220969Y20969D01*
X221857Y20288D01*
X222890Y19859D01*
X224000Y19713D01*
X225110Y19859D01*
X226143Y20288D01*
X227031Y20969D01*
X227712Y21857D01*
X228141Y22891D01*
X228287Y24000D01*
X228141Y25109D01*
X227712Y26143D01*
X227031Y27031D01*
X226143Y27712D01*
X225110Y28141D01*
X224000Y28287D01*
D02*
G37*
G36*
X379000Y38876D02*
X377299Y38742D01*
X375639Y38344D01*
X374062Y37691D01*
X372607Y36799D01*
X371309Y35691D01*
X370201Y34393D01*
X369309Y32938D01*
X368656Y31361D01*
X368258Y29701D01*
X368124Y28000D01*
X368258Y26299D01*
X368656Y24639D01*
X369309Y23062D01*
X370201Y21607D01*
X371309Y20310D01*
X372607Y19201D01*
X374062Y18309D01*
X375639Y17656D01*
X377299Y17258D01*
X379000Y17124D01*
X380701Y17258D01*
X382361Y17656D01*
X383938Y18309D01*
X385393Y19201D01*
X386690Y20310D01*
X387799Y21607D01*
X388691Y23062D01*
X389344Y24639D01*
X389742Y26299D01*
X389876Y28000D01*
X389742Y29701D01*
X389344Y31361D01*
X388691Y32938D01*
X387799Y34393D01*
X386690Y35691D01*
X385393Y36799D01*
X383938Y37691D01*
X382361Y38344D01*
X380701Y38742D01*
X379000Y38876D01*
D02*
G37*
G36*
X222500Y32500D02*
X220021D01*
X220288Y31857D01*
X220969Y30969D01*
X221857Y30288D01*
X222500Y30021D01*
Y32500D01*
D02*
G37*
G36*
Y37979D02*
X221857Y37712D01*
X220969Y37031D01*
X220288Y36143D01*
X220021Y35500D01*
X222500D01*
Y37979D01*
D02*
G37*
G36*
X227979Y32500D02*
X225500D01*
Y30021D01*
X226143Y30288D01*
X227031Y30969D01*
X227712Y31857D01*
X227979Y32500D01*
D02*
G37*
G36*
X129313Y46078D02*
X129000D01*
Y44300D01*
X130778D01*
Y44613D01*
X130667Y45173D01*
X130349Y45649D01*
X129873Y45967D01*
X129313Y46078D01*
D02*
G37*
G36*
X163786Y61500D02*
X162007D01*
Y61187D01*
X162119Y60627D01*
X162437Y60151D01*
X162912Y59833D01*
X163473Y59722D01*
X163786D01*
Y61500D01*
D02*
G37*
G36*
X160850D02*
X159071D01*
Y59722D01*
X159384D01*
X159945Y59833D01*
X160420Y60151D01*
X160738Y60627D01*
X160850Y61187D01*
Y61500D01*
D02*
G37*
G36*
X157071D02*
X155293D01*
Y61187D01*
X155405Y60627D01*
X155722Y60151D01*
X156198Y59833D01*
X156759Y59722D01*
X157071D01*
Y61500D01*
D02*
G37*
G36*
X167564D02*
X165786D01*
Y59722D01*
X166098D01*
X166659Y59833D01*
X167135Y60151D01*
X167452Y60627D01*
X167564Y61187D01*
Y61500D01*
D02*
G37*
G36*
X151358Y75597D02*
X150421Y75411D01*
X149627Y74880D01*
X149097Y74086D01*
X148911Y73150D01*
X149097Y72214D01*
X149399Y71762D01*
X149413Y71666D01*
X149247Y71012D01*
X149239Y71003D01*
X149008Y70849D01*
X148690Y70373D01*
X148579Y69813D01*
Y67188D01*
X148690Y66627D01*
X149008Y66151D01*
X149484Y65833D01*
X149622Y65806D01*
Y65194D01*
X149484Y65167D01*
X149008Y64849D01*
X148690Y64373D01*
X148579Y63813D01*
Y61187D01*
X148690Y60627D01*
X149008Y60151D01*
X149484Y59833D01*
X149828Y59765D01*
Y57091D01*
X148667Y55929D01*
X137033D01*
X135994Y56969D01*
Y59234D01*
X136594Y59726D01*
X136616Y59722D01*
X136929D01*
Y62500D01*
X137929D01*
Y63500D01*
X140707D01*
Y63813D01*
X140595Y64373D01*
X140277Y64849D01*
X139802Y65167D01*
X139664Y65194D01*
Y65806D01*
X139802Y65833D01*
X140277Y66151D01*
X140595Y66627D01*
X140664Y66971D01*
X141908D01*
X141976Y66627D01*
X142294Y66151D01*
X142770Y65833D01*
X142908Y65806D01*
Y65194D01*
X142770Y65167D01*
X142294Y64849D01*
X141976Y64373D01*
X141865Y63813D01*
Y63500D01*
X144643D01*
X147421D01*
Y63813D01*
X147309Y64373D01*
X146992Y64849D01*
X146516Y65167D01*
X146378Y65194D01*
Y65806D01*
X146516Y65833D01*
X146992Y66151D01*
X147309Y66627D01*
X147421Y67188D01*
Y69813D01*
X147309Y70373D01*
X146992Y70849D01*
X146516Y71167D01*
X145955Y71278D01*
X143330D01*
X142770Y71167D01*
X142294Y70849D01*
X141976Y70373D01*
X141908Y70029D01*
X140664D01*
X140595Y70373D01*
X140277Y70849D01*
X140188Y70909D01*
X140012Y71689D01*
X140013Y71692D01*
X140261Y72064D01*
X140447Y73000D01*
X140261Y73936D01*
X139730Y74730D01*
X138936Y75261D01*
X138000Y75447D01*
X137064Y75261D01*
X136270Y74730D01*
X135739Y73936D01*
X135553Y73000D01*
X135739Y72064D01*
X135944Y71756D01*
X135960Y71674D01*
X135752Y70964D01*
X135580Y70849D01*
X135262Y70373D01*
X135150Y69813D01*
Y67575D01*
X134550Y67327D01*
X133992Y67885D01*
Y69813D01*
X133881Y70373D01*
X133563Y70849D01*
X133438Y70933D01*
X133238Y71687D01*
X133249Y71725D01*
X133475Y72064D01*
X133661Y73000D01*
X133475Y73936D01*
X132945Y74730D01*
X132151Y75261D01*
X131214Y75447D01*
X130278Y75261D01*
X129484Y74730D01*
X128954Y73936D01*
X128767Y73000D01*
X128954Y72064D01*
X129180Y71725D01*
X129191Y71687D01*
X128991Y70933D01*
X128865Y70849D01*
X128548Y70373D01*
X128436Y69813D01*
Y67188D01*
X128548Y66627D01*
X128865Y66151D01*
X129341Y65833D01*
X129479Y65806D01*
Y65194D01*
X129341Y65167D01*
X128865Y64849D01*
X128548Y64373D01*
X128436Y63813D01*
Y61187D01*
X128548Y60627D01*
X128865Y60151D01*
X128991Y60067D01*
X129191Y59313D01*
X129180Y59275D01*
X128954Y58936D01*
X128767Y58000D01*
X128954Y57064D01*
X129484Y56270D01*
X130278Y55739D01*
X131214Y55553D01*
X132151Y55739D01*
X132408Y55911D01*
X132918Y55784D01*
X133112Y55660D01*
X133383Y55254D01*
X135319Y53319D01*
X135815Y52987D01*
X136400Y52871D01*
X149300D01*
X149885Y52987D01*
X150381Y53319D01*
X152439Y55376D01*
X152770Y55872D01*
X152886Y56457D01*
Y59765D01*
X153231Y59833D01*
X153706Y60151D01*
X154024Y60627D01*
X154135Y61187D01*
Y63813D01*
X154024Y64373D01*
X153706Y64849D01*
X153231Y65167D01*
X153092Y65194D01*
Y65806D01*
X153231Y65833D01*
X153706Y66151D01*
X154024Y66627D01*
X154092Y66971D01*
X155336D01*
X155405Y66627D01*
X155722Y66151D01*
X156198Y65833D01*
X156336Y65806D01*
Y65194D01*
X156198Y65167D01*
X155722Y64849D01*
X155405Y64373D01*
X155293Y63813D01*
Y63500D01*
X158071D01*
X160850D01*
Y63813D01*
X160738Y64373D01*
X160420Y64849D01*
X159945Y65167D01*
X159806Y65194D01*
Y65806D01*
X159945Y65833D01*
X160420Y66151D01*
X160738Y66627D01*
X160806Y66971D01*
X162051D01*
X162119Y66627D01*
X162437Y66151D01*
X162912Y65833D01*
X163051Y65806D01*
Y65194D01*
X162912Y65167D01*
X162437Y64849D01*
X162119Y64373D01*
X162007Y63813D01*
Y63500D01*
X164786D01*
X167564D01*
Y63813D01*
X167452Y64373D01*
X167135Y64849D01*
X166659Y65167D01*
X166521Y65194D01*
Y65806D01*
X166659Y65833D01*
X167135Y66151D01*
X167452Y66627D01*
X167564Y67188D01*
Y69813D01*
X167452Y70373D01*
X167135Y70849D01*
X166659Y71167D01*
X166098Y71278D01*
X163473D01*
X162912Y71167D01*
X162437Y70849D01*
X162119Y70373D01*
X162051Y70029D01*
X160806D01*
X160738Y70373D01*
X160420Y70849D01*
X159945Y71167D01*
X159384Y71278D01*
X156759D01*
X156198Y71167D01*
X155722Y70849D01*
X155405Y70373D01*
X155336Y70029D01*
X154092D01*
X154024Y70373D01*
X153706Y70849D01*
X153476Y71003D01*
X153468Y71012D01*
X153302Y71666D01*
X153316Y71761D01*
X153618Y72214D01*
X153805Y73150D01*
X153618Y74086D01*
X153088Y74880D01*
X152294Y75411D01*
X151358Y75597D01*
D02*
G37*
G36*
X147421Y61500D02*
X145643D01*
Y59722D01*
X145955D01*
X146516Y59833D01*
X146992Y60151D01*
X147309Y60627D01*
X147421Y61187D01*
Y61500D01*
D02*
G37*
G36*
X127278Y67500D02*
X124500D01*
X121722D01*
Y67188D01*
X121833Y66627D01*
X122151Y66151D01*
X122627Y65833D01*
X122765Y65806D01*
Y65194D01*
X122627Y65167D01*
X122151Y64849D01*
X121833Y64373D01*
X121722Y63813D01*
Y61187D01*
X121833Y60627D01*
X122151Y60151D01*
X122471Y59938D01*
X122471Y59937D01*
X122648Y59368D01*
X122655Y59216D01*
X122339Y58743D01*
X122153Y57806D01*
X122339Y56870D01*
X122870Y56076D01*
X123664Y55546D01*
X124600Y55359D01*
X125536Y55546D01*
X126330Y56076D01*
X126861Y56870D01*
X127047Y57806D01*
X126861Y58743D01*
X126514Y59261D01*
X126499Y59322D01*
X126620Y59961D01*
X126667Y60030D01*
X126849Y60151D01*
X127167Y60627D01*
X127278Y61187D01*
Y63813D01*
X127167Y64373D01*
X126849Y64849D01*
X126373Y65167D01*
X126235Y65194D01*
Y65806D01*
X126373Y65833D01*
X126849Y66151D01*
X127167Y66627D01*
X127278Y67188D01*
Y67500D01*
D02*
G37*
G36*
X224000Y58287D02*
X222890Y58141D01*
X221857Y57712D01*
X220969Y57031D01*
X220288Y56143D01*
X219859Y55110D01*
X219713Y54000D01*
X219859Y52890D01*
X220288Y51857D01*
X220969Y50969D01*
X221857Y50288D01*
X222890Y49859D01*
X224000Y49713D01*
X225110Y49859D01*
X226143Y50288D01*
X227031Y50969D01*
X227712Y51857D01*
X228141Y52890D01*
X228287Y54000D01*
X228141Y55110D01*
X227712Y56143D01*
X227031Y57031D01*
X226143Y57712D01*
X225110Y58141D01*
X224000Y58287D01*
D02*
G37*
G36*
X127000Y46078D02*
X126688D01*
X126127Y45967D01*
X125651Y45649D01*
X124949D01*
X124473Y45967D01*
X123913Y46078D01*
X123600D01*
Y43300D01*
X122600D01*
Y42300D01*
X119822D01*
Y41987D01*
X119933Y41427D01*
X120251Y40951D01*
X120727Y40633D01*
X120865Y40606D01*
Y39994D01*
X120727Y39967D01*
X120251Y39649D01*
X119933Y39173D01*
X119822Y38612D01*
Y35987D01*
X119933Y35427D01*
X120251Y34951D01*
X120305Y34915D01*
X120492Y34115D01*
X120339Y33886D01*
X120152Y32949D01*
X120339Y32013D01*
X120869Y31219D01*
X121663Y30689D01*
X122599Y30502D01*
X123536Y30689D01*
X124330Y31219D01*
X124860Y32013D01*
X124981Y32620D01*
X124994Y32683D01*
X125605D01*
X125618Y32620D01*
X125739Y32013D01*
X126269Y31219D01*
X127063Y30689D01*
X127999Y30502D01*
X128936Y30689D01*
X129730Y31219D01*
X130260Y32013D01*
X130447Y32949D01*
X130260Y33886D01*
X130107Y34115D01*
X130294Y34915D01*
X130349Y34951D01*
X130667Y35427D01*
X130778Y35987D01*
Y38612D01*
X130667Y39173D01*
X130349Y39649D01*
X129873Y39967D01*
X129735Y39994D01*
Y40606D01*
X129873Y40633D01*
X130349Y40951D01*
X130667Y41427D01*
X130778Y41987D01*
Y42300D01*
X128000D01*
Y43300D01*
X127000D01*
Y46078D01*
D02*
G37*
G36*
X171500Y75447D02*
X170563Y75261D01*
X169770Y74730D01*
X169239Y73936D01*
X169053Y73000D01*
X169239Y72064D01*
X169465Y71725D01*
X169476Y71687D01*
X169276Y70933D01*
X169151Y70849D01*
X168833Y70373D01*
X168722Y69813D01*
Y67188D01*
X168833Y66627D01*
X169151Y66151D01*
X169627Y65833D01*
X169765Y65806D01*
Y65194D01*
X169627Y65167D01*
X169151Y64849D01*
X168833Y64373D01*
X168722Y63813D01*
Y61187D01*
X168833Y60627D01*
X169151Y60151D01*
X169276Y60067D01*
X169476Y59313D01*
X169465Y59275D01*
X169239Y58936D01*
X169053Y58000D01*
X169239Y57064D01*
X169770Y56270D01*
X170563Y55739D01*
X171500Y55553D01*
X172436Y55739D01*
X173230Y56270D01*
X173761Y57064D01*
X173947Y58000D01*
X173761Y58936D01*
X173535Y59275D01*
X173524Y59313D01*
X173723Y60067D01*
X173849Y60151D01*
X174167Y60627D01*
X174278Y61187D01*
Y63813D01*
X174167Y64373D01*
X173849Y64849D01*
X173373Y65167D01*
X173235Y65194D01*
Y65806D01*
X173373Y65833D01*
X173849Y66151D01*
X174167Y66627D01*
X174278Y67188D01*
Y69813D01*
X174167Y70373D01*
X173849Y70849D01*
X173723Y70933D01*
X173524Y71687D01*
X173535Y71725D01*
X173761Y72064D01*
X173947Y73000D01*
X173761Y73936D01*
X173230Y74730D01*
X172436Y75261D01*
X171500Y75447D01*
D02*
G37*
G36*
X143643Y61500D02*
X141865D01*
Y61187D01*
X141976Y60627D01*
X142294Y60151D01*
X142770Y59833D01*
X143330Y59722D01*
X143643D01*
Y61500D01*
D02*
G37*
G36*
X140707D02*
X138929D01*
Y59722D01*
X139241D01*
X139802Y59833D01*
X140277Y60151D01*
X140595Y60627D01*
X140707Y61187D01*
Y61500D01*
D02*
G37*
G36*
X224000Y68287D02*
X222890Y68141D01*
X221857Y67712D01*
X220969Y67031D01*
X220288Y66143D01*
X219859Y65109D01*
X219713Y64000D01*
X219859Y62890D01*
X220288Y61857D01*
X220969Y60969D01*
X221857Y60288D01*
X222890Y59859D01*
X224000Y59713D01*
X225110Y59859D01*
X226143Y60288D01*
X227031Y60969D01*
X227712Y61857D01*
X228141Y62890D01*
X228287Y64000D01*
X228141Y65109D01*
X227712Y66143D01*
X227031Y67031D01*
X226143Y67712D01*
X225110Y68141D01*
X224000Y68287D01*
D02*
G37*
G36*
X314000Y224078D02*
X313687D01*
X313127Y223967D01*
X312651Y223649D01*
X312333Y223173D01*
X312306Y223035D01*
X311694D01*
X311667Y223173D01*
X311349Y223649D01*
X310873Y223967D01*
X310313Y224078D01*
X307687D01*
X307127Y223967D01*
X306651Y223649D01*
X306444Y223339D01*
X304668D01*
X304336Y223561D01*
X303400Y223747D01*
X302464Y223561D01*
X301670Y223030D01*
X301139Y222236D01*
X300953Y221300D01*
X301139Y220364D01*
X301670Y219570D01*
X302464Y219039D01*
X303400Y218853D01*
X304336Y219039D01*
X304668Y219261D01*
X306444D01*
X306651Y218951D01*
X307127Y218633D01*
X307687Y218522D01*
X310313D01*
X310873Y218633D01*
X311349Y218951D01*
X311667Y219427D01*
X311694Y219565D01*
X312306D01*
X312333Y219427D01*
X312651Y218951D01*
X313127Y218633D01*
X313687Y218522D01*
X314000D01*
Y221300D01*
Y224078D01*
D02*
G37*
G36*
X252500Y225720D02*
X250500D01*
Y222400D01*
X253520D01*
Y224700D01*
X253442Y225090D01*
X253221Y225421D01*
X252890Y225642D01*
X252500Y225720D01*
D02*
G37*
G36*
X248500D02*
X246500D01*
X246110Y225642D01*
X245779Y225421D01*
X245558Y225090D01*
X245480Y224700D01*
Y222400D01*
X248500D01*
Y225720D01*
D02*
G37*
G36*
X99200Y124320D02*
X96950D01*
X96560Y124242D01*
X96229Y124021D01*
X96008Y123690D01*
X95930Y123300D01*
Y118300D01*
X99200D01*
Y124320D01*
D02*
G37*
G36*
X103450D02*
X101200D01*
Y118300D01*
X104470D01*
Y123300D01*
X104392Y123690D01*
X104171Y124021D01*
X103840Y124242D01*
X103450Y124320D01*
D02*
G37*
G36*
X114051Y141219D02*
X105551D01*
X105161Y141141D01*
X104830Y140920D01*
X104609Y140590D01*
X104531Y140199D01*
Y129401D01*
X104609Y129010D01*
X104830Y128680D01*
X105161Y128458D01*
X105551Y128381D01*
X106775D01*
Y126878D01*
X106744Y126838D01*
X106391Y125986D01*
X106271Y125072D01*
X106391Y124159D01*
X106744Y123307D01*
X107305Y122576D01*
X108036Y122015D01*
X108887Y121662D01*
X109801Y121542D01*
X110715Y121662D01*
X111566Y122015D01*
X112297Y122576D01*
X112858Y123307D01*
X113211Y124159D01*
X113331Y125072D01*
X113211Y125986D01*
X112858Y126838D01*
X112827Y126878D01*
Y128381D01*
X114051D01*
X114441Y128458D01*
X114772Y128680D01*
X114993Y129010D01*
X115071Y129401D01*
Y140199D01*
X114993Y140590D01*
X114772Y140920D01*
X114441Y141141D01*
X114051Y141219D01*
D02*
G37*
G36*
X193858Y124878D02*
X193546D01*
Y123100D01*
X195324D01*
Y123413D01*
X195212Y123973D01*
X194895Y124449D01*
X194419Y124767D01*
X193858Y124878D01*
D02*
G37*
G36*
X337300Y221479D02*
Y219000D01*
X339779D01*
X339512Y219643D01*
X338831Y220531D01*
X337943Y221212D01*
X337300Y221479D01*
D02*
G37*
G36*
X316313Y224078D02*
X316000D01*
Y222300D01*
X317778D01*
Y222613D01*
X317667Y223173D01*
X317349Y223649D01*
X316873Y223967D01*
X316313Y224078D01*
D02*
G37*
G36*
X334300Y221479D02*
X333657Y221212D01*
X332769Y220531D01*
X332088Y219643D01*
X331821Y219000D01*
X334300D01*
Y221479D01*
D02*
G37*
G36*
X283300Y239447D02*
X282364Y239261D01*
X281570Y238730D01*
X281039Y237936D01*
X280853Y237000D01*
X281039Y236064D01*
X281570Y235270D01*
X281771Y235136D01*
Y225000D01*
X281887Y224415D01*
X282219Y223919D01*
X294469Y211669D01*
X294965Y211337D01*
X295550Y211221D01*
X331012D01*
X331530Y210750D01*
Y204279D01*
X295083D01*
X284481Y214881D01*
X283985Y215213D01*
X283400Y215329D01*
X276002D01*
X275839Y215654D01*
X275770Y215929D01*
X276261Y216664D01*
X276447Y217600D01*
X276261Y218536D01*
X275730Y219330D01*
X274936Y219861D01*
X274000Y220047D01*
X273064Y219861D01*
X272270Y219330D01*
X272135Y219129D01*
X256900D01*
X256315Y219013D01*
X255819Y218681D01*
X254666Y217529D01*
X253988D01*
X253520Y218100D01*
Y220400D01*
X245480D01*
Y218100D01*
X245012Y217529D01*
X241988D01*
X241520Y218100D01*
Y224700D01*
X241442Y225090D01*
X241221Y225421D01*
X240890Y225642D01*
X240500Y225720D01*
X235343D01*
X234931Y226131D01*
X234435Y226463D01*
X233850Y226579D01*
X218429D01*
X217843Y226463D01*
X217347Y226131D01*
X214887Y223672D01*
X214443Y224012D01*
X213409Y224441D01*
X212300Y224587D01*
X211191Y224441D01*
X210157Y224012D01*
X209269Y223331D01*
X208588Y222443D01*
X208159Y221410D01*
X208013Y220300D01*
X208159Y219191D01*
X208588Y218157D01*
X209269Y217269D01*
X210157Y216588D01*
X211191Y216159D01*
X212300Y216013D01*
X213409Y216159D01*
X214443Y216588D01*
X215331Y217269D01*
X216012Y218157D01*
X216441Y219191D01*
X216587Y220300D01*
X216500Y220958D01*
X217476Y221935D01*
X218030Y221705D01*
Y217050D01*
X218108Y216660D01*
X218329Y216329D01*
X218660Y216108D01*
X219050Y216030D01*
X225550D01*
X225940Y216108D01*
X226271Y216329D01*
X226492Y216660D01*
X226570Y217050D01*
Y218771D01*
X228366D01*
X231253Y215884D01*
X231024Y215329D01*
X222300D01*
X221715Y215213D01*
X221219Y214881D01*
X211115Y204778D01*
X209188D01*
X208627Y204667D01*
X208151Y204349D01*
X207833Y203873D01*
X207722Y203312D01*
Y200688D01*
X207833Y200127D01*
X208151Y199651D01*
X208627Y199333D01*
X208765Y199306D01*
Y198694D01*
X208627Y198667D01*
X208151Y198349D01*
X207833Y197873D01*
X207722Y197312D01*
Y195385D01*
X205633Y193296D01*
X205301Y192799D01*
X205185Y192214D01*
Y185050D01*
X204667Y184546D01*
X202462D01*
X202072Y184469D01*
X201990Y184414D01*
X201907Y184469D01*
X201517Y184546D01*
X201415D01*
Y180535D01*
Y176523D01*
X201517D01*
X202035Y176019D01*
Y175452D01*
X201834Y175318D01*
X201304Y174524D01*
X201118Y173588D01*
X201304Y172651D01*
X201834Y171857D01*
X202628Y171327D01*
X203565Y171141D01*
X204501Y171327D01*
X205295Y171857D01*
X205825Y172651D01*
X206012Y173588D01*
X205825Y174524D01*
X205295Y175318D01*
X205094Y175452D01*
Y176019D01*
X205612Y176523D01*
X207817D01*
X208207Y176601D01*
X208289Y176655D01*
X208371Y176601D01*
X208761Y176523D01*
X210966D01*
X211356Y176601D01*
X211439Y176655D01*
X211521Y176601D01*
X211911Y176523D01*
X214116D01*
X214506Y176601D01*
X214588Y176655D01*
X214670Y176601D01*
X215061Y176523D01*
X217265D01*
X217655Y176601D01*
X217738Y176655D01*
X217820Y176601D01*
X218210Y176523D01*
X220415D01*
X220667Y176573D01*
X220896Y176420D01*
X220986Y176330D01*
X221138Y176102D01*
X221088Y175850D01*
Y173645D01*
X221166Y173255D01*
X221221Y173172D01*
X221166Y173090D01*
X221088Y172700D01*
Y171548D01*
X221062Y171477D01*
X220973Y171364D01*
X220488Y171020D01*
X217500Y171020D01*
X217110Y170942D01*
X216779Y170721D01*
X216558Y170390D01*
X216480Y170000D01*
Y161000D01*
X216558Y160610D01*
X216779Y160279D01*
X217110Y160058D01*
X217500Y159980D01*
X220031D01*
X220080Y159990D01*
X220131Y159985D01*
X220274Y160029D01*
X220421Y160058D01*
X220463Y160086D01*
X220511Y160101D01*
X220780Y159999D01*
X225100D01*
X229375D01*
X229556Y160096D01*
X229699Y160132D01*
X229700Y160132D01*
X229741Y160105D01*
X229889Y160075D01*
X230033Y160032D01*
X230513Y159985D01*
X230563Y159990D01*
X230611Y159980D01*
X231078D01*
X236527Y154532D01*
X236651Y154448D01*
X236704Y154404D01*
X236748Y154351D01*
X236831Y154227D01*
X238533Y152525D01*
X238457Y151753D01*
X238451Y151749D01*
X238133Y151273D01*
X238022Y150712D01*
Y149153D01*
X237468Y148924D01*
X229460Y156931D01*
X229063Y157196D01*
X229034Y157342D01*
X228979Y157424D01*
X229034Y157507D01*
X229112Y157897D01*
Y157999D01*
X225100D01*
X221088D01*
Y157897D01*
X221166Y157507D01*
X221221Y157424D01*
X221166Y157342D01*
X221088Y156952D01*
Y154747D01*
X221166Y154357D01*
X221221Y154275D01*
X221166Y154192D01*
X221088Y153802D01*
Y151598D01*
X221166Y151207D01*
X221221Y151125D01*
X221166Y151043D01*
X221088Y150653D01*
Y148448D01*
X221166Y148058D01*
X221221Y147976D01*
X221166Y147893D01*
X221088Y147503D01*
Y145298D01*
X221166Y144908D01*
X221221Y144826D01*
X221166Y144744D01*
X221088Y144353D01*
Y142149D01*
X221138Y141897D01*
X220986Y141668D01*
X220896Y141578D01*
X220667Y141425D01*
X220415Y141475D01*
X218210D01*
X217820Y141398D01*
X217738Y141343D01*
X217655Y141398D01*
X217265Y141475D01*
X215061D01*
X214670Y141398D01*
X214588Y141343D01*
X214506Y141398D01*
X214116Y141475D01*
X211911D01*
X211521Y141398D01*
X211439Y141343D01*
X211356Y141398D01*
X210966Y141475D01*
X208761D01*
X208371Y141398D01*
X208289Y141343D01*
X208207Y141398D01*
X207817Y141475D01*
X205612D01*
X205222Y141398D01*
X205139Y141343D01*
X205057Y141398D01*
X204667Y141475D01*
X204565D01*
Y137464D01*
Y133452D01*
X204667D01*
X205185Y132948D01*
Y130365D01*
X204984Y130230D01*
X204453Y129436D01*
X204267Y128500D01*
X204453Y127564D01*
X204984Y126770D01*
X205185Y126636D01*
Y125220D01*
X202700D01*
X202310Y125142D01*
X201979Y124921D01*
X201758Y124590D01*
X201680Y124200D01*
Y118200D01*
X201758Y117810D01*
X201979Y117479D01*
X202310Y117258D01*
X202700Y117180D01*
X209300D01*
X209877Y116716D01*
Y114787D01*
X209989Y114227D01*
X210261Y113819D01*
X210247Y113222D01*
X210241Y113172D01*
X209947Y113021D01*
X209890Y113008D01*
X209690Y113142D01*
X209300Y113220D01*
X202700D01*
X202310Y113142D01*
X201979Y112921D01*
X201758Y112590D01*
X201680Y112200D01*
Y107043D01*
X200919Y106281D01*
X200587Y105785D01*
X200471Y105200D01*
Y102735D01*
X200127Y102667D01*
X199651Y102349D01*
X199333Y101873D01*
X199222Y101312D01*
Y98687D01*
X199333Y98127D01*
X199651Y97651D01*
X200127Y97333D01*
X200265Y97306D01*
Y96694D01*
X200127Y96667D01*
X199651Y96349D01*
X199534Y96174D01*
X198784Y95953D01*
X198747Y95978D01*
X197811Y96164D01*
X196875Y95978D01*
X196081Y95447D01*
X195550Y94653D01*
X195364Y93717D01*
X195550Y92781D01*
X196081Y91987D01*
X196875Y91456D01*
X197811Y91270D01*
X198747Y91456D01*
X199179Y91745D01*
X199651Y91651D01*
X200127Y91333D01*
X200688Y91222D01*
X203312D01*
X203873Y91333D01*
X204349Y91651D01*
X204389Y91711D01*
X205111D01*
X205151Y91651D01*
X205627Y91333D01*
X206188Y91222D01*
X208812D01*
X209373Y91333D01*
X209849Y91651D01*
X209889Y91711D01*
X210611D01*
X210651Y91651D01*
X211127Y91333D01*
X211687Y91222D01*
X214313D01*
X214873Y91333D01*
X215349Y91651D01*
X215667Y92127D01*
X215778Y92687D01*
Y95312D01*
X215667Y95873D01*
X215349Y96349D01*
X214873Y96667D01*
X214735Y96694D01*
Y97306D01*
X214873Y97333D01*
X215349Y97651D01*
X215667Y98127D01*
X215778Y98687D01*
Y101312D01*
X215667Y101873D01*
X215349Y102349D01*
X215297Y102384D01*
X215261Y102564D01*
X215447Y103500D01*
X215261Y104436D01*
X214730Y105230D01*
X213936Y105761D01*
X213000Y105947D01*
X212064Y105761D01*
X211270Y105230D01*
X210739Y104436D01*
X210553Y103500D01*
X210680Y102860D01*
X210413Y102499D01*
X209849Y102349D01*
X209373Y102667D01*
X208812Y102778D01*
X208500D01*
Y100000D01*
X206500D01*
Y102778D01*
X206188D01*
X205627Y102667D01*
X205151Y102349D01*
X205111Y102289D01*
X204389D01*
X204349Y102349D01*
X203873Y102667D01*
X203529Y102735D01*
Y104567D01*
X204143Y105180D01*
X209300D01*
X209690Y105258D01*
X210021Y105479D01*
X210242Y105810D01*
X210320Y106200D01*
Y109579D01*
X210920Y109784D01*
X211586Y109339D01*
X212522Y109153D01*
X213459Y109339D01*
X214252Y109870D01*
X214783Y110664D01*
X214969Y111600D01*
X214783Y112536D01*
X214585Y112833D01*
X214576Y112932D01*
X214789Y113607D01*
X215004Y113751D01*
X215056Y113828D01*
X215777D01*
X215829Y113751D01*
X215954Y113667D01*
X216154Y112913D01*
X216143Y112875D01*
X215917Y112536D01*
X215731Y111600D01*
X215917Y110664D01*
X216447Y109870D01*
X217241Y109339D01*
X218178Y109153D01*
X219114Y109339D01*
X219908Y109870D01*
X220439Y110664D01*
X220625Y111600D01*
X220439Y112536D01*
X220213Y112875D01*
X220201Y112913D01*
X220401Y113667D01*
X220527Y113751D01*
X220578Y113828D01*
X221300D01*
X221351Y113751D01*
X221465Y113675D01*
X221658Y112911D01*
X221650Y112885D01*
X221417Y112536D01*
X221231Y111600D01*
X221417Y110664D01*
X221948Y109870D01*
X222741Y109339D01*
X223678Y109153D01*
X224614Y109339D01*
X225408Y109870D01*
X225939Y110664D01*
X226125Y111600D01*
X225939Y112536D01*
X225719Y112864D01*
X225706Y112916D01*
X225910Y113659D01*
X226049Y113751D01*
X226100Y113828D01*
X226822D01*
X226873Y113751D01*
X227104Y113597D01*
X227112Y113589D01*
X227277Y112934D01*
X227264Y112839D01*
X226962Y112387D01*
X226776Y111451D01*
X226962Y110514D01*
X227492Y109721D01*
X228286Y109190D01*
X229223Y109004D01*
X230159Y109190D01*
X230953Y109721D01*
X231483Y110514D01*
X231670Y111451D01*
X231483Y112387D01*
X231182Y112839D01*
X231168Y112934D01*
X231333Y113589D01*
X231341Y113598D01*
X231571Y113751D01*
X231889Y114227D01*
X232000Y114787D01*
Y115488D01*
X232600Y115737D01*
X238022Y110315D01*
Y108957D01*
X238133Y108396D01*
X238451Y107921D01*
X238927Y107603D01*
X239488Y107492D01*
X242112D01*
X242673Y107603D01*
X243149Y107921D01*
X243467Y108396D01*
X243494Y108535D01*
X244106D01*
X244133Y108396D01*
X244451Y107921D01*
X244927Y107603D01*
X245487Y107492D01*
X248113D01*
X248673Y107603D01*
X249149Y107921D01*
X249467Y108396D01*
X249535Y108740D01*
X252270D01*
X252855Y108857D01*
X253351Y109188D01*
X269634Y125471D01*
X284000D01*
X284585Y125587D01*
X285081Y125919D01*
X337159Y177996D01*
X371354D01*
X371939Y178112D01*
X372435Y178444D01*
X389081Y195090D01*
X389413Y195586D01*
X389529Y196172D01*
Y198060D01*
X389730Y198194D01*
X390261Y198988D01*
X390447Y199925D01*
X390261Y200861D01*
X389730Y201655D01*
X388936Y202185D01*
X388000Y202372D01*
X387129Y202199D01*
X386946Y202242D01*
X386529Y202465D01*
Y204135D01*
X386730Y204270D01*
X387261Y205064D01*
X387447Y206000D01*
X387261Y206936D01*
X386730Y207730D01*
X385936Y208261D01*
X385000Y208447D01*
X384064Y208261D01*
X383270Y207730D01*
X382739Y206936D01*
X382553Y206000D01*
X382739Y205064D01*
X383270Y204270D01*
X383471Y204135D01*
Y196634D01*
X381129Y194292D01*
X380529Y194541D01*
Y204135D01*
X380730Y204270D01*
X381261Y205064D01*
X381447Y206000D01*
X381261Y206936D01*
X380730Y207730D01*
X379936Y208261D01*
X379000Y208447D01*
X378064Y208261D01*
X377270Y207730D01*
X376739Y206936D01*
X376553Y206000D01*
X376739Y205064D01*
X377270Y204270D01*
X377471Y204135D01*
Y194633D01*
X367892Y185055D01*
X333525D01*
X332940Y184938D01*
X332444Y184607D01*
X281636Y133799D01*
X249535D01*
X249467Y134143D01*
X249149Y134619D01*
X248673Y134936D01*
X248113Y135048D01*
X245487D01*
X244927Y134936D01*
X244451Y134619D01*
X244133Y134143D01*
X244106Y134005D01*
X243494D01*
X243467Y134143D01*
X243149Y134619D01*
X242673Y134936D01*
X242112Y135048D01*
X240185D01*
X239029Y136203D01*
Y140746D01*
X239488Y141122D01*
X239800D01*
Y143900D01*
X241800D01*
Y141122D01*
X242112D01*
X242673Y141233D01*
X243149Y141551D01*
X243467Y142027D01*
X243494Y142165D01*
X244106D01*
X244133Y142027D01*
X244451Y141551D01*
X244927Y141233D01*
X245487Y141122D01*
X248113D01*
X248673Y141233D01*
X249072Y141500D01*
X249362Y141491D01*
X249755Y141379D01*
X249799Y141313D01*
X249908Y141150D01*
X251779Y139279D01*
X252110Y139058D01*
X252500Y138980D01*
X253206D01*
X253587Y138517D01*
X253553Y138347D01*
X253739Y137411D01*
X254270Y136617D01*
X255064Y136086D01*
X256000Y135900D01*
X256936Y136086D01*
X257730Y136617D01*
X257864Y136818D01*
X277953D01*
X278538Y136934D01*
X279034Y137266D01*
X283081Y141313D01*
X283413Y141809D01*
X283529Y142394D01*
Y194000D01*
X283413Y194585D01*
X283081Y195081D01*
X276200Y201963D01*
X276247Y202200D01*
X276061Y203136D01*
X275704Y203671D01*
X276019Y204271D01*
X279010D01*
X289612Y193669D01*
X290108Y193337D01*
X290693Y193221D01*
X369526D01*
X370111Y193337D01*
X370608Y193669D01*
X373527Y196588D01*
X373764Y196541D01*
X374701Y196728D01*
X375495Y197258D01*
X376025Y198052D01*
X376211Y198988D01*
X376025Y199925D01*
X375495Y200718D01*
X374701Y201249D01*
X374416Y201884D01*
X374418Y201917D01*
X374529Y202475D01*
Y204135D01*
X374730Y204270D01*
X375261Y205064D01*
X375447Y206000D01*
X375261Y206936D01*
X374730Y207730D01*
X373936Y208261D01*
X373000Y208447D01*
X372064Y208261D01*
X371270Y207730D01*
X370739Y206936D01*
X370553Y206000D01*
X370739Y205064D01*
X371270Y204270D01*
X371471Y204135D01*
Y203108D01*
X366642Y198279D01*
X360026D01*
X359797Y198834D01*
X364430Y203467D01*
X364690Y203359D01*
X365800Y203213D01*
X366910Y203359D01*
X367943Y203788D01*
X368831Y204469D01*
X369512Y205357D01*
X369941Y206391D01*
X370087Y207500D01*
X369941Y208610D01*
X369512Y209643D01*
X368831Y210531D01*
X367943Y211212D01*
X366910Y211641D01*
X365800Y211787D01*
X364690Y211641D01*
X363657Y211212D01*
X362769Y210531D01*
X362088Y209643D01*
X361659Y208610D01*
X361513Y207500D01*
X361659Y206391D01*
X362060Y205423D01*
X356916Y200279D01*
X356026D01*
X355797Y200834D01*
X356881Y201919D01*
X357213Y202415D01*
X357329Y203000D01*
Y203533D01*
X357943Y203788D01*
X358831Y204469D01*
X359512Y205357D01*
X359941Y206391D01*
X360087Y207500D01*
X359941Y208610D01*
X359512Y209643D01*
X358831Y210531D01*
X357943Y211212D01*
X356909Y211641D01*
X355800Y211787D01*
X354691Y211641D01*
X353657Y211212D01*
X353129Y210808D01*
X352529Y211104D01*
Y212067D01*
X354077Y213614D01*
X354691Y213359D01*
X355800Y213213D01*
X356909Y213359D01*
X357943Y213788D01*
X358831Y214469D01*
X359512Y215357D01*
X359941Y216390D01*
X360087Y217500D01*
X359941Y218609D01*
X359512Y219643D01*
X358831Y220531D01*
X357943Y221212D01*
X356909Y221641D01*
X355800Y221787D01*
X354691Y221641D01*
X353657Y221212D01*
X352769Y220531D01*
X352088Y219643D01*
X351659Y218609D01*
X351513Y217500D01*
X351659Y216390D01*
X351914Y215777D01*
X349919Y213781D01*
X349587Y213285D01*
X349471Y212700D01*
Y210631D01*
X348902Y210438D01*
X348831Y210531D01*
X347943Y211212D01*
X346909Y211641D01*
X345800Y211787D01*
X344690Y211641D01*
X343657Y211212D01*
X342769Y210531D01*
X342088Y209643D01*
X341659Y208610D01*
X341513Y207500D01*
X341659Y206391D01*
X342088Y205357D01*
X342454Y204879D01*
X342158Y204279D01*
X340070D01*
Y210750D01*
X340588Y211221D01*
X341050D01*
X341635Y211337D01*
X342131Y211669D01*
X344077Y213614D01*
X344690Y213359D01*
X345800Y213213D01*
X346909Y213359D01*
X347943Y213788D01*
X348831Y214469D01*
X349512Y215357D01*
X349941Y216390D01*
X350087Y217500D01*
X349941Y218609D01*
X349512Y219643D01*
X348831Y220531D01*
X347943Y221212D01*
X346909Y221641D01*
X345800Y221787D01*
X344690Y221641D01*
X343657Y221212D01*
X342769Y220531D01*
X342088Y219643D01*
X341659Y218609D01*
X341513Y217500D01*
X341659Y216390D01*
X341914Y215777D01*
X340417Y214279D01*
X339442D01*
X339146Y214879D01*
X339512Y215357D01*
X339779Y216000D01*
X335800D01*
X331821D01*
X332088Y215357D01*
X332454Y214879D01*
X332158Y214279D01*
X327040D01*
X326757Y214809D01*
X326861Y214964D01*
X327047Y215900D01*
X326861Y216836D01*
X326330Y217630D01*
X325536Y218161D01*
X324600Y218347D01*
X323664Y218161D01*
X322870Y217630D01*
X322736Y217429D01*
X298934D01*
X288929Y227433D01*
Y233236D01*
X289130Y233370D01*
X289661Y234164D01*
X289847Y235100D01*
X289661Y236036D01*
X289130Y236830D01*
X288336Y237361D01*
X287400Y237547D01*
X286464Y237361D01*
X286308Y237257D01*
X285641Y237533D01*
X285561Y237936D01*
X285030Y238730D01*
X284236Y239261D01*
X283300Y239447D01*
D02*
G37*
G36*
X202278Y195000D02*
X200500D01*
Y193222D01*
X200813D01*
X201373Y193333D01*
X201849Y193651D01*
X202167Y194127D01*
X202278Y194687D01*
Y195000D01*
D02*
G37*
G36*
X317778Y220300D02*
X316000D01*
Y218522D01*
X316313D01*
X316873Y218633D01*
X317349Y218951D01*
X317667Y219427D01*
X317778Y219988D01*
Y220300D01*
D02*
G37*
G36*
X365800Y221787D02*
X364690Y221641D01*
X363657Y221212D01*
X362769Y220531D01*
X362088Y219643D01*
X361659Y218609D01*
X361513Y217500D01*
X361659Y216390D01*
X362088Y215357D01*
X362769Y214469D01*
X363657Y213788D01*
X364690Y213359D01*
X365800Y213213D01*
X366910Y213359D01*
X367943Y213788D01*
X368831Y214469D01*
X369512Y215357D01*
X369941Y216390D01*
X370087Y217500D01*
X369941Y218609D01*
X369512Y219643D01*
X368831Y220531D01*
X367943Y221212D01*
X366910Y221641D01*
X365800Y221787D01*
D02*
G37*
%LPD*%
G36*
X280000Y190000D02*
Y142557D01*
X277443Y140000D01*
X257782D01*
X257730Y140077D01*
X256936Y140608D01*
X256000Y140794D01*
X255064Y140608D01*
X254270Y140077D01*
X254218Y140000D01*
X252500D01*
X250629Y141871D01*
X250835Y142371D01*
X251300D01*
X251885Y142487D01*
X252381Y142818D01*
X252713Y143315D01*
X252829Y143900D01*
X252713Y144485D01*
X252381Y144981D01*
X251885Y145313D01*
X251300Y145429D01*
X250555D01*
X250409Y146163D01*
X250084Y146650D01*
X250409Y147136D01*
X250555Y147871D01*
X251300D01*
X251885Y147987D01*
X252381Y148319D01*
X252713Y148815D01*
X252829Y149400D01*
X252713Y149985D01*
X252381Y150481D01*
X251885Y150813D01*
X251300Y150929D01*
X250555D01*
X250409Y151663D01*
X249870Y152470D01*
X249495Y152720D01*
X249368Y153399D01*
X249424Y153480D01*
X255000D01*
X255390Y153558D01*
X255721Y153779D01*
X255942Y154110D01*
X256020Y154500D01*
Y157717D01*
X264286D01*
X264616Y157341D01*
X264571Y157000D01*
X264687Y156112D01*
X265030Y155285D01*
X265575Y154575D01*
X266285Y154030D01*
X267112Y153688D01*
X268000Y153571D01*
X268888Y153688D01*
X269715Y154030D01*
X270425Y154575D01*
X270970Y155285D01*
X271312Y156112D01*
X271429Y157000D01*
X271312Y157888D01*
X270970Y158715D01*
X270425Y159425D01*
X269715Y159970D01*
X268888Y160312D01*
X268000Y160429D01*
X267112Y160312D01*
X266927Y160236D01*
X266835Y160328D01*
X266339Y160659D01*
X265754Y160776D01*
X256020D01*
Y161500D01*
X255942Y161890D01*
X255721Y162221D01*
X255390Y162442D01*
X255000Y162520D01*
X249890D01*
X246029Y166380D01*
X245707Y166595D01*
X245703Y166605D01*
Y167142D01*
X245707Y167151D01*
X246029Y167367D01*
X249143Y170480D01*
X255000D01*
X255390Y170558D01*
X255721Y170779D01*
X255942Y171110D01*
X256020Y171500D01*
Y172971D01*
X265500D01*
X266085Y173087D01*
X266153Y173132D01*
X266285Y173030D01*
X267112Y172687D01*
X268000Y172571D01*
X268888Y172687D01*
X269715Y173030D01*
X270425Y173575D01*
X270970Y174285D01*
X271312Y175112D01*
X271429Y176000D01*
X271312Y176888D01*
X270970Y177715D01*
X270425Y178425D01*
X269715Y178970D01*
X268888Y179313D01*
X268000Y179429D01*
X267112Y179313D01*
X266285Y178970D01*
X265575Y178425D01*
X265030Y177715D01*
X264687Y176888D01*
X264575Y176029D01*
X256020D01*
Y178500D01*
X255942Y178890D01*
X255721Y179221D01*
X255390Y179442D01*
X255000Y179520D01*
X247000D01*
X246610Y179442D01*
X246279Y179221D01*
X246058Y178890D01*
X245980Y178500D01*
Y171643D01*
X244315Y169977D01*
X243578D01*
Y170812D01*
X243467Y171373D01*
X243149Y171849D01*
Y171948D01*
X243870Y172430D01*
X244409Y173236D01*
X244598Y174188D01*
Y175000D01*
X240800D01*
X237002D01*
Y174188D01*
X237191Y173236D01*
X237730Y172430D01*
X238451Y171948D01*
Y171849D01*
X238133Y171373D01*
X238022Y170812D01*
Y169977D01*
X230273D01*
X230121Y170477D01*
X230179Y170516D01*
X232281Y172619D01*
X232613Y173115D01*
X232729Y173700D01*
Y173729D01*
X236661Y177661D01*
X237122Y177415D01*
X237002Y176813D01*
Y176000D01*
X240300D01*
Y179298D01*
X239488D01*
X238885Y179178D01*
X238639Y179639D01*
X243722Y184722D01*
X243812D01*
X244373Y184833D01*
X244849Y185151D01*
X245167Y185627D01*
X245245Y186021D01*
X245755D01*
X245833Y185627D01*
X246151Y185151D01*
X246627Y184833D01*
X247187Y184722D01*
X249813D01*
X250373Y184833D01*
X250849Y185151D01*
X250988Y185360D01*
X251594Y185529D01*
X251649Y185517D01*
X252064Y185239D01*
X253000Y185053D01*
X253936Y185239D01*
X254730Y185770D01*
X255261Y186564D01*
X255447Y187500D01*
X255400Y187737D01*
X257663Y190000D01*
X280000Y190000D01*
D02*
G37*
G36*
X220668Y170000D02*
X221088Y169550D01*
Y167346D01*
X221166Y166955D01*
X221221Y166873D01*
X221166Y166791D01*
X221088Y166401D01*
Y164975D01*
X220666Y164693D01*
X220224Y164032D01*
X220069Y163251D01*
Y162649D01*
X225100D01*
X230131D01*
Y163251D01*
X230105Y163382D01*
X230422Y163769D01*
X238022D01*
Y163188D01*
X238133Y162627D01*
X238451Y162151D01*
Y162052D01*
X237730Y161570D01*
X237191Y160764D01*
X237002Y159812D01*
Y159000D01*
X240800D01*
X244598D01*
Y159812D01*
X244409Y160764D01*
X243870Y161570D01*
X243149Y162052D01*
Y162151D01*
X243467Y162627D01*
X243578Y163188D01*
Y163769D01*
X244315D01*
X246112Y161971D01*
X246058Y161890D01*
X245980Y161500D01*
Y154500D01*
X246058Y154110D01*
X246279Y153779D01*
X246401Y153698D01*
X246249Y153198D01*
X245487D01*
X244536Y153008D01*
X243730Y152470D01*
X243248Y151749D01*
X243149D01*
X242673Y152067D01*
X242112Y152178D01*
X240322D01*
X237552Y154948D01*
X237871Y155336D01*
X238536Y154891D01*
X239488Y154702D01*
X240300D01*
Y158000D01*
X237002D01*
Y157187D01*
X237191Y156236D01*
X237636Y155571D01*
X237248Y155252D01*
X231500Y161000D01*
X230611D01*
X230131Y161047D01*
Y161649D01*
X225100D01*
X220069D01*
Y161047D01*
X220031Y161000D01*
X217500D01*
Y170000D01*
X220668Y170000D01*
D02*
G37*
%LPC*%
G36*
X242112Y179298D02*
X241300D01*
Y176000D01*
X244598D01*
Y176813D01*
X244409Y177764D01*
X243870Y178570D01*
X243064Y179109D01*
X242112Y179298D01*
D02*
G37*
G36*
X244598Y158000D02*
X241300D01*
Y154702D01*
X242112D01*
X243064Y154891D01*
X243870Y155430D01*
X244409Y156236D01*
X244598Y157187D01*
Y158000D01*
D02*
G37*
G36*
X168970Y268400D02*
X165700D01*
Y262380D01*
X167950D01*
X168340Y262458D01*
X168671Y262679D01*
X168892Y263010D01*
X168970Y263400D01*
Y268400D01*
D02*
G37*
G36*
X163700D02*
X160430D01*
Y263400D01*
X160508Y263010D01*
X160729Y262679D01*
X161060Y262458D01*
X161450Y262380D01*
X163700D01*
Y268400D01*
D02*
G37*
G36*
X141000Y251043D02*
X139222D01*
Y250730D01*
X139333Y250169D01*
X139651Y249694D01*
X140127Y249376D01*
X140688Y249265D01*
X141000D01*
Y251043D01*
D02*
G37*
G36*
X167950Y276420D02*
X165700D01*
Y270400D01*
X168970D01*
Y275400D01*
X168892Y275790D01*
X168671Y276121D01*
X168340Y276342D01*
X167950Y276420D01*
D02*
G37*
%LPD*%
D10*
X51200Y117500D02*
D03*
X44200D02*
D03*
D11*
X232500Y196000D02*
D03*
X221500D02*
D03*
X216000D02*
D03*
X210500D02*
D03*
X172000D02*
D03*
X177500D02*
D03*
X183000D02*
D03*
X188500D02*
D03*
X194000D02*
D03*
X199500D02*
D03*
X227000D02*
D03*
X214000Y39000D02*
D03*
Y45000D02*
D03*
X322600Y92550D02*
D03*
Y86550D02*
D03*
X124500Y68500D02*
D03*
Y62500D02*
D03*
X164786Y68500D02*
D03*
Y62500D02*
D03*
X158071Y68500D02*
D03*
Y62500D02*
D03*
X137929Y68500D02*
D03*
Y62500D02*
D03*
X144643Y68500D02*
D03*
Y62500D02*
D03*
X271290Y368400D02*
D03*
Y374400D02*
D03*
X199160Y368400D02*
D03*
Y374400D02*
D03*
X276700Y368400D02*
D03*
Y374400D02*
D03*
X260470Y368400D02*
D03*
Y374400D02*
D03*
X204600Y368400D02*
D03*
Y374400D02*
D03*
X265880Y368400D02*
D03*
Y374400D02*
D03*
X255060D02*
D03*
Y368400D02*
D03*
X188280D02*
D03*
Y374400D02*
D03*
X193720Y368400D02*
D03*
Y374400D02*
D03*
X182840D02*
D03*
Y368400D02*
D03*
X127040D02*
D03*
Y374400D02*
D03*
X132400Y368400D02*
D03*
Y374400D02*
D03*
X116320Y368400D02*
D03*
Y374400D02*
D03*
X121680Y368400D02*
D03*
Y374400D02*
D03*
X110960D02*
D03*
Y368400D02*
D03*
X116750Y102300D02*
D03*
Y96300D02*
D03*
X122200Y102300D02*
D03*
Y96300D02*
D03*
X127700Y102300D02*
D03*
Y96300D02*
D03*
X25067Y222900D02*
D03*
Y228900D02*
D03*
X30533Y222900D02*
D03*
Y228900D02*
D03*
X36000Y222900D02*
D03*
Y228900D02*
D03*
X4800Y192600D02*
D03*
Y186600D02*
D03*
X11200Y202000D02*
D03*
Y208000D02*
D03*
X4800Y181100D02*
D03*
Y175100D02*
D03*
X20000Y208000D02*
D03*
Y202000D02*
D03*
X25067D02*
D03*
Y208000D02*
D03*
X30533Y202000D02*
D03*
Y208000D02*
D03*
X36000Y202000D02*
D03*
Y208000D02*
D03*
X96900Y213700D02*
D03*
Y207700D02*
D03*
X91400D02*
D03*
Y213700D02*
D03*
X213000Y94000D02*
D03*
Y100000D02*
D03*
X199500Y202000D02*
D03*
X187024Y122100D02*
D03*
Y116100D02*
D03*
X194000Y202000D02*
D03*
X192546Y122100D02*
D03*
Y116100D02*
D03*
X240800Y169500D02*
D03*
Y175500D02*
D03*
X202000Y100000D02*
D03*
Y94000D02*
D03*
X207500D02*
D03*
Y100000D02*
D03*
X240800Y164500D02*
D03*
Y158500D02*
D03*
X181501Y122100D02*
D03*
Y116100D02*
D03*
X175979Y122100D02*
D03*
Y116100D02*
D03*
X210500Y202000D02*
D03*
X216000D02*
D03*
X221500D02*
D03*
X172000D02*
D03*
X177500D02*
D03*
X183000D02*
D03*
X188500D02*
D03*
X229222Y122100D02*
D03*
Y116100D02*
D03*
X223700Y122100D02*
D03*
Y116100D02*
D03*
X164935Y122100D02*
D03*
Y116100D02*
D03*
X227000Y202000D02*
D03*
X170457Y122100D02*
D03*
Y116100D02*
D03*
X232500Y202000D02*
D03*
X218178Y122100D02*
D03*
Y116100D02*
D03*
X212656Y122100D02*
D03*
Y116100D02*
D03*
X122600Y43300D02*
D03*
Y37300D02*
D03*
X128000Y43300D02*
D03*
Y37300D02*
D03*
X171500Y62500D02*
D03*
Y68500D02*
D03*
X131214Y62500D02*
D03*
Y68500D02*
D03*
X151357D02*
D03*
Y62500D02*
D03*
X35060Y374400D02*
D03*
Y368400D02*
D03*
X40520D02*
D03*
Y374400D02*
D03*
X45980Y368400D02*
D03*
Y374400D02*
D03*
X51440Y368400D02*
D03*
Y374400D02*
D03*
X56900Y368400D02*
D03*
Y374400D02*
D03*
D12*
X315000Y221300D02*
D03*
X309000D02*
D03*
X296656Y268400D02*
D03*
X290656D02*
D03*
Y262948D02*
D03*
X296656D02*
D03*
X212300Y252043D02*
D03*
X218300D02*
D03*
Y257495D02*
D03*
X212300D02*
D03*
X148000Y268400D02*
D03*
X142000D02*
D03*
Y262948D02*
D03*
X148000D02*
D03*
X60350Y252043D02*
D03*
X66350D02*
D03*
Y257495D02*
D03*
X60350D02*
D03*
X290656Y299250D02*
D03*
X296656D02*
D03*
X290656Y293725D02*
D03*
X296656D02*
D03*
X290656Y288200D02*
D03*
X296656D02*
D03*
X218300D02*
D03*
X212300D02*
D03*
X218300Y293725D02*
D03*
X212300D02*
D03*
X218300Y299250D02*
D03*
X212300D02*
D03*
X142000D02*
D03*
X148000D02*
D03*
X142000Y293725D02*
D03*
X148000D02*
D03*
X142000Y288200D02*
D03*
X148000D02*
D03*
X66350D02*
D03*
X60350D02*
D03*
X66350Y293725D02*
D03*
X60350D02*
D03*
X66350Y299250D02*
D03*
X60350D02*
D03*
X290656Y257495D02*
D03*
X296656D02*
D03*
X290656Y252043D02*
D03*
X296656D02*
D03*
X218300Y262948D02*
D03*
X212300D02*
D03*
X218300Y268400D02*
D03*
X212300D02*
D03*
X142000Y257495D02*
D03*
X148000D02*
D03*
X142000Y252043D02*
D03*
X148000D02*
D03*
X66350Y262948D02*
D03*
X60350D02*
D03*
X66350Y268400D02*
D03*
X60350D02*
D03*
X77051Y165100D02*
D03*
X71051D02*
D03*
X77051Y159800D02*
D03*
X71051D02*
D03*
X77051Y154499D02*
D03*
X71051D02*
D03*
Y145200D02*
D03*
X77051D02*
D03*
X71051Y139900D02*
D03*
X77051D02*
D03*
X71051Y134599D02*
D03*
X77051D02*
D03*
X120000Y213692D02*
D03*
X114000D02*
D03*
X120000Y208192D02*
D03*
X114000D02*
D03*
Y202692D02*
D03*
X120000D02*
D03*
Y195192D02*
D03*
X114000D02*
D03*
Y184192D02*
D03*
X120000D02*
D03*
X114000Y189692D02*
D03*
X120000D02*
D03*
X114000Y178692D02*
D03*
X120000D02*
D03*
X240800Y143900D02*
D03*
X246800D02*
D03*
X240800Y149400D02*
D03*
X246800D02*
D03*
X159400Y161200D02*
D03*
X165400D02*
D03*
X159400Y166700D02*
D03*
X165400D02*
D03*
X159400Y172100D02*
D03*
X165400D02*
D03*
Y132100D02*
D03*
X159400D02*
D03*
Y177600D02*
D03*
X165400D02*
D03*
Y137600D02*
D03*
X159400D02*
D03*
X165400Y143100D02*
D03*
X159400D02*
D03*
X165400Y148600D02*
D03*
X159400D02*
D03*
X165400Y183000D02*
D03*
X159400D02*
D03*
X246800Y132270D02*
D03*
X240800D02*
D03*
X246800Y126770D02*
D03*
X240800D02*
D03*
X246800Y121270D02*
D03*
X240800D02*
D03*
X242500Y193000D02*
D03*
X248500D02*
D03*
X240800Y115770D02*
D03*
X246800D02*
D03*
X240800Y110270D02*
D03*
X246800D02*
D03*
X242500Y187500D02*
D03*
X248500D02*
D03*
X68800Y49000D02*
D03*
X62800D02*
D03*
X68700Y43500D02*
D03*
X62700D02*
D03*
X68794Y59950D02*
D03*
X62794D02*
D03*
X42000Y35900D02*
D03*
X36000D02*
D03*
X68900Y54500D02*
D03*
X62900D02*
D03*
D13*
X92400Y77500D02*
D03*
X181300Y287100D02*
D03*
X160500Y195700D02*
D03*
D14*
X319701Y319300D02*
D03*
X302299D02*
D03*
X266585D02*
D03*
X283987D02*
D03*
X195156D02*
D03*
X212558D02*
D03*
X248272D02*
D03*
X230870D02*
D03*
X212558Y338700D02*
D03*
X195156D02*
D03*
X230870D02*
D03*
X248272D02*
D03*
X302299D02*
D03*
X319701D02*
D03*
X283987D02*
D03*
X266585D02*
D03*
X105415Y319300D02*
D03*
X88013D02*
D03*
X52299D02*
D03*
X69701D02*
D03*
X176844D02*
D03*
X159442D02*
D03*
X123728D02*
D03*
X141130D02*
D03*
X88013Y338700D02*
D03*
X105415D02*
D03*
X69701D02*
D03*
X52299D02*
D03*
X159442D02*
D03*
X176844D02*
D03*
X141130D02*
D03*
X123728D02*
D03*
X109801Y134800D02*
D03*
X92399D02*
D03*
D15*
X255500Y276200D02*
D03*
X104850D02*
D03*
D16*
X282000Y298700D02*
D03*
Y293700D02*
D03*
Y288700D02*
D03*
Y283700D02*
D03*
Y278700D02*
D03*
Y273700D02*
D03*
Y268700D02*
D03*
Y263700D02*
D03*
Y258700D02*
D03*
Y253700D02*
D03*
X229000D02*
D03*
Y258700D02*
D03*
Y263700D02*
D03*
Y268700D02*
D03*
Y273700D02*
D03*
Y278700D02*
D03*
Y283700D02*
D03*
Y288700D02*
D03*
Y293700D02*
D03*
Y298700D02*
D03*
X131350D02*
D03*
Y293700D02*
D03*
Y288700D02*
D03*
Y283700D02*
D03*
Y278700D02*
D03*
Y273700D02*
D03*
Y268700D02*
D03*
Y263700D02*
D03*
Y258700D02*
D03*
Y253700D02*
D03*
X78350D02*
D03*
Y258700D02*
D03*
Y263700D02*
D03*
Y268700D02*
D03*
Y273700D02*
D03*
Y278700D02*
D03*
Y283700D02*
D03*
Y288700D02*
D03*
Y293700D02*
D03*
Y298700D02*
D03*
D17*
X314500Y265500D02*
D03*
Y244500D02*
D03*
X194600Y269500D02*
D03*
Y248500D02*
D03*
X164700Y269400D02*
D03*
Y248400D02*
D03*
X73700Y117600D02*
D03*
Y96600D02*
D03*
X100200Y117300D02*
D03*
Y96300D02*
D03*
D18*
X38500Y258400D02*
D03*
X17500D02*
D03*
X50400Y224100D02*
D03*
X71400D02*
D03*
D19*
X78000Y200701D02*
D03*
Y183299D02*
D03*
D20*
X14840Y191000D02*
D03*
Y186000D02*
D03*
Y181000D02*
D03*
Y176000D02*
D03*
X36100Y191000D02*
D03*
Y186000D02*
D03*
Y181000D02*
D03*
Y176000D02*
D03*
D21*
X106584Y199849D02*
D03*
X101584D02*
D03*
X96584D02*
D03*
X91584D02*
D03*
X106584Y178589D02*
D03*
X101584D02*
D03*
X96584D02*
D03*
X91584D02*
D03*
D22*
X85780Y155000D02*
D03*
X108220D02*
D03*
D23*
X206000Y121200D02*
D03*
Y109200D02*
D03*
D24*
X251000Y158000D02*
D03*
Y175000D02*
D03*
D25*
X205283Y70811D02*
D03*
Y47189D02*
D03*
X190717Y70811D02*
D03*
Y47189D02*
D03*
D26*
X237500Y221400D02*
D03*
X249500D02*
D03*
D27*
X154650Y154900D02*
D03*
X164650D02*
D03*
D28*
X182029Y174747D02*
D03*
Y171598D02*
D03*
Y168448D02*
D03*
Y165298D02*
D03*
Y162149D02*
D03*
Y158999D02*
D03*
Y155850D02*
D03*
Y152700D02*
D03*
Y149550D02*
D03*
Y146401D02*
D03*
Y143251D02*
D03*
X225100Y143251D02*
D03*
Y146401D02*
D03*
Y149550D02*
D03*
Y152700D02*
D03*
Y155850D02*
D03*
Y158999D02*
D03*
Y162149D02*
D03*
Y165298D02*
D03*
Y168448D02*
D03*
Y171598D02*
D03*
Y174747D02*
D03*
D29*
X187817Y137464D02*
D03*
X190966D02*
D03*
X194116D02*
D03*
X197265D02*
D03*
X200415D02*
D03*
X203565D02*
D03*
X206714D02*
D03*
X209864D02*
D03*
X213013D02*
D03*
X216163D02*
D03*
X219313D02*
D03*
X219313Y180535D02*
D03*
X216163D02*
D03*
X213013D02*
D03*
X209864D02*
D03*
X206714D02*
D03*
X203565D02*
D03*
X200415D02*
D03*
X197265D02*
D03*
X194116D02*
D03*
X190966D02*
D03*
X187817D02*
D03*
D30*
X56000Y178780D02*
D03*
Y201220D02*
D03*
D31*
X108272Y31766D02*
D03*
Y34325D02*
D03*
Y36884D02*
D03*
Y39443D02*
D03*
Y42002D02*
D03*
Y44561D02*
D03*
Y47120D02*
D03*
Y49680D02*
D03*
Y52239D02*
D03*
Y54798D02*
D03*
Y57357D02*
D03*
Y59916D02*
D03*
Y62475D02*
D03*
Y65034D02*
D03*
X79728D02*
D03*
Y62475D02*
D03*
Y59916D02*
D03*
Y57357D02*
D03*
Y54798D02*
D03*
Y52239D02*
D03*
Y49680D02*
D03*
Y47120D02*
D03*
Y44561D02*
D03*
Y42002D02*
D03*
Y39443D02*
D03*
Y36884D02*
D03*
Y34325D02*
D03*
Y31766D02*
D03*
D32*
X282100Y298700D02*
Y304300D01*
X223400Y298800D02*
X229000D01*
X60156Y268300D02*
X60350Y268106D01*
X71051Y159800D02*
Y165100D01*
X58443Y59951D02*
X62943D01*
X58449Y49000D02*
X62949D01*
X58349Y43501D02*
X62849D01*
X46369Y91180D02*
X51200Y96011D01*
Y117500D01*
X54900Y54500D02*
X62900D01*
X118500Y174000D02*
Y177192D01*
X120000Y178692D01*
X158248Y262948D02*
X164700Y269400D01*
X148000Y262948D02*
X158248D01*
X302220D02*
X304772Y265500D01*
X296656Y262948D02*
X302220D01*
X133900Y298600D02*
X136950D01*
X144643Y58343D02*
Y62500D01*
X137929D02*
X144643D01*
X158071D02*
X164786D01*
X124600Y68606D02*
Y76200D01*
X123000Y77800D02*
X124600Y76200D01*
X123000Y77800D02*
Y86500D01*
X214000Y45000D02*
Y49600D01*
X303400Y221300D02*
X309000D01*
X303200D02*
X303400D01*
X108692Y213692D02*
X114000D01*
X120000Y184192D02*
Y189692D01*
Y178692D02*
Y184192D01*
X114000Y178692D02*
Y184192D01*
Y173500D02*
Y178692D01*
X193600Y122100D02*
X203565Y132065D01*
Y137464D01*
X194000Y193000D02*
Y196000D01*
X200415Y186585D02*
Y188085D01*
X199500Y189000D02*
X200415Y188085D01*
X199500Y189000D02*
Y196000D01*
X200415Y180535D02*
Y186585D01*
X225100Y158999D02*
X230201D01*
X239800Y149400D01*
X240800D01*
Y143900D02*
Y149400D01*
X72750Y298800D02*
X75800D01*
X334850Y216550D02*
X335800Y217500D01*
X322600Y86550D02*
X332050D01*
X334850Y99350D02*
X335800Y100300D01*
X322600Y92550D02*
X329400Y99350D01*
X114000Y184192D02*
Y189692D01*
Y195192D01*
X106584Y199849D02*
X107383Y199050D01*
X114000Y202692D02*
Y208192D01*
X120000D02*
Y213692D01*
X194000Y193000D02*
X200415Y186585D01*
X187024Y122100D02*
X192546D01*
X193600D01*
X296656Y288200D02*
Y293725D01*
Y299250D01*
X71051Y154499D02*
Y159800D01*
X106584Y198942D02*
Y199849D01*
X120000Y195192D02*
Y198942D01*
Y202692D01*
X106584Y198942D02*
X120000D01*
X14840Y191000D02*
X14950Y191110D01*
Y207351D01*
X15600Y208000D01*
X92300Y207800D02*
X96584D01*
Y207816D01*
Y199849D02*
Y207800D01*
X108000Y161400D02*
Y167500D01*
X114000Y173500D01*
X329400Y99350D02*
X334850D01*
X332050Y86550D02*
X335800Y90300D01*
X68681Y37523D02*
Y43481D01*
X68800Y43600D02*
Y49000D01*
X68681Y43481D02*
X68700Y43500D01*
X68800Y43600D01*
X19089Y228920D02*
X25047D01*
X25067Y228900D02*
X30533D01*
X36000D01*
X60350Y262948D02*
Y268106D01*
X55750Y273000D02*
X60350Y268400D01*
X47500Y273000D02*
X55750D01*
D33*
X260570Y362280D02*
Y368400D01*
Y362280D02*
X266750Y356100D01*
X188320Y362280D02*
Y368400D01*
Y362280D02*
X194500Y356100D01*
X199501Y201851D02*
Y206351D01*
X194000Y201851D02*
Y206351D01*
X187046Y111600D02*
Y116100D01*
X116520Y362280D02*
X122700Y356100D01*
X116520Y362280D02*
Y368400D01*
X51439Y363750D02*
Y368250D01*
X127999Y32949D02*
Y37449D01*
X122599Y32949D02*
Y37449D01*
X66700Y159800D02*
X71200D01*
X73900Y49700D02*
X79858D01*
X254860Y374400D02*
Y378900D01*
X182760Y374400D02*
Y378900D01*
X110560Y374400D02*
Y378900D01*
X223678Y111600D02*
Y116100D01*
X357550Y198750D02*
X366300Y207500D01*
X151499Y166500D02*
X159549D01*
X177345Y201851D02*
Y205256D01*
X155049Y132045D02*
X159549D01*
X155049Y137545D02*
X159549D01*
X181546Y111600D02*
Y116100D01*
X176046Y111600D02*
Y116100D01*
X246800Y132270D02*
X282270D01*
X246800Y110270D02*
X252270D01*
X269000Y127000D01*
X165728Y388600D02*
X169000Y385328D01*
Y285700D02*
Y385328D01*
Y285700D02*
X180700Y274000D01*
X164900Y386600D02*
X167000Y384500D01*
Y284872D02*
Y384500D01*
Y284872D02*
X178700Y273172D01*
X36100Y191000D02*
X40600D01*
X5500Y191900D02*
X8900D01*
X4800Y192600D02*
X5500Y191900D01*
X6700Y202000D02*
X11200D01*
X122200Y96300D02*
X127700D01*
X116750D02*
X122200D01*
X112250D02*
X116750D01*
X46369Y63620D02*
Y64570D01*
X218178Y111600D02*
Y116100D01*
X134464Y56336D02*
X136400Y54400D01*
X134464Y56336D02*
Y65250D01*
X131214Y58000D02*
Y62500D01*
X149500Y27000D02*
X180750Y58250D01*
X240800Y193000D02*
X242500D01*
X229200Y181400D02*
X240800Y193000D01*
X229200Y176200D02*
Y181400D01*
X227747Y174747D02*
X229200Y176200D01*
X225100Y174747D02*
X227747D01*
X231200Y180200D02*
X238500Y187501D01*
X231200Y173700D02*
Y180200D01*
X229098Y171598D02*
X231200Y173700D01*
X225100Y171598D02*
X229098D01*
X197265Y180535D02*
Y185235D01*
X188500Y194000D02*
X197265Y185235D01*
X188500Y194000D02*
Y196000D01*
X190966Y180535D02*
Y183634D01*
X184500Y190100D02*
X190966Y183634D01*
X183400Y190100D02*
X184500D01*
X171050Y195050D02*
X185565Y180535D01*
X187817D01*
X177500Y196000D02*
X183400Y190100D01*
X112559Y229500D02*
X126149Y215910D01*
X89343Y229500D02*
X112559D01*
X90172Y231500D02*
X113388D01*
X91000Y233500D02*
X114216D01*
X170546Y111600D02*
Y116100D01*
X91828Y235500D02*
X115044D01*
X45830Y374400D02*
X45979Y374549D01*
X117000Y236373D02*
Y244000D01*
X124600Y234430D02*
Y269600D01*
X155000Y177500D02*
X159549D01*
X152149Y180351D02*
X155000Y177500D01*
X152149Y180351D02*
Y217821D01*
X152999Y172001D02*
X159549D01*
X150149Y174851D02*
X152999Y172001D01*
X150149Y174851D02*
Y218649D01*
X148149Y169851D02*
X151499Y166500D01*
X146149Y164351D02*
X149499Y161001D01*
X143000Y86500D02*
Y93672D01*
X122100Y114572D02*
X143000Y93672D01*
X122100Y114572D02*
Y167100D01*
X124100Y115400D02*
X153000Y86500D01*
X124100Y115400D02*
Y169525D01*
X126149Y116215D02*
X141614Y100750D01*
X128149Y117043D02*
Y171858D01*
Y117043D02*
X142443Y102750D01*
X130149Y117872D02*
Y172687D01*
Y117872D02*
X143271Y104750D01*
X132149Y118700D02*
X144100Y106750D01*
X134149Y119529D02*
Y174343D01*
Y119529D02*
X144178Y109500D01*
X136149Y120529D02*
X142678Y114000D01*
X140149Y176829D02*
Y221709D01*
X138149Y176000D02*
Y220880D01*
X136149Y175172D02*
Y220052D01*
X134149Y174343D02*
Y219223D01*
X132149Y173515D02*
Y218395D01*
X130149Y172687D02*
Y217567D01*
X128149Y171858D02*
Y216738D01*
X126149Y171030D02*
Y215910D01*
X113388Y231500D02*
X128149Y216738D01*
X114216Y233500D02*
X130149Y217567D01*
X115044Y235500D02*
X132149Y218395D01*
X117000Y236373D02*
X134149Y219223D01*
X124600Y234430D02*
X138149Y220880D01*
X126600Y235258D02*
X140149Y221709D01*
X126600Y235258D02*
Y262600D01*
X119458Y218500D02*
Y218800D01*
X119858Y219200D01*
X120349Y171650D02*
X123250Y174552D01*
Y215808D01*
X120349Y168851D02*
X122100Y167100D01*
X120349Y168851D02*
Y171650D01*
X123249Y170375D02*
X124100Y169525D01*
X146879Y148700D02*
X159549D01*
X145455Y143045D02*
X159549D01*
X144149Y178486D02*
X144149Y178486D01*
Y157565D02*
Y178486D01*
X144149Y157565D02*
X144149Y157565D01*
X142149Y177657D02*
X142149Y177657D01*
Y158394D02*
Y177657D01*
X142149Y158393D02*
X142149Y158394D01*
X140149Y176829D02*
X140149Y176829D01*
Y159222D02*
Y176829D01*
X140149Y159222D02*
X140149Y159222D01*
X138149Y176000D02*
X138149Y176000D01*
Y160050D02*
Y176000D01*
X138149Y160050D02*
X138149Y160050D01*
X136149Y175172D02*
X136149Y175172D01*
Y120529D02*
Y175172D01*
X134149Y174343D02*
X134149Y174343D01*
X132149Y173515D02*
X132149Y173515D01*
Y118700D02*
Y173515D01*
X130149Y172687D02*
X130149Y172687D01*
X128149Y171858D02*
X128149Y171858D01*
X126149Y171030D02*
X126149Y171030D01*
Y116215D02*
Y171030D01*
X142149Y177657D02*
Y221963D01*
X144149Y178486D02*
Y221134D01*
X146149Y164351D02*
Y220306D01*
X148149Y169851D02*
Y219478D01*
X144149Y151430D02*
Y157565D01*
X142149Y146351D02*
Y158393D01*
X140149Y140851D02*
Y159222D01*
X138149Y134851D02*
Y160050D01*
X266500Y254100D02*
Y257150D01*
X259000Y254100D02*
Y257150D01*
X251500Y254100D02*
Y257150D01*
X244000Y254100D02*
Y257150D01*
X78350Y268700D02*
X81300D01*
X78350Y258700D02*
X81300D01*
X142000Y293725D02*
Y299250D01*
X267750Y295000D02*
Y298050D01*
X260250Y295000D02*
Y298050D01*
X252750Y295000D02*
Y298050D01*
X245250Y295000D02*
Y298050D01*
X81300Y268700D02*
X85300Y264700D01*
X83300Y238372D02*
Y256700D01*
X128700Y273700D02*
X131350D01*
X78350Y249200D02*
Y253700D01*
X131500Y250500D02*
Y253550D01*
X131450Y268600D02*
X138201D01*
X131375Y293725D02*
X137500D01*
X136400Y54400D02*
X149300D01*
X151357Y56457D02*
Y62500D01*
X149300Y54400D02*
X151357Y56457D01*
X131214Y68500D02*
X134464Y65250D01*
X173000Y84600D02*
Y85800D01*
X171500Y84300D02*
X173000Y85800D01*
X158071Y68500D02*
X164786D01*
X151357D02*
X158071D01*
X131214Y84714D02*
X133000Y86500D01*
X163200Y219401D02*
X177345Y205256D01*
X163200Y219401D02*
Y222300D01*
X287400Y226800D02*
Y235100D01*
Y226800D02*
X298300Y215900D01*
X324600D01*
X295550Y212750D02*
X341050D01*
X283300Y225000D02*
X295550Y212750D01*
X171500Y58000D02*
Y62500D01*
X124600Y57806D02*
Y62306D01*
X35700Y36200D02*
X36000Y35900D01*
X341050Y212750D02*
X345800Y217500D01*
X294450Y202750D02*
X349250D01*
X351000Y204500D01*
X279643Y205800D02*
X290693Y194750D01*
X280472Y207800D02*
X291522Y196750D01*
X281300Y209800D02*
X292350Y198750D01*
X353550Y200750D02*
X355800Y203000D01*
X282572Y211800D02*
X293622Y200750D01*
X353550D01*
X292350Y198750D02*
X357550D01*
X351000Y204500D02*
Y212700D01*
X355800Y203000D02*
Y207500D01*
X283400Y213800D02*
X294450Y202750D01*
X223128Y211800D02*
X282572D01*
X345800Y217500D02*
Y219600D01*
X351000Y212700D02*
X355800Y217500D01*
X186000Y238300D02*
X202100D01*
X180700Y243600D02*
X186000Y238300D01*
X180700Y243600D02*
Y274000D01*
X202100Y238300D02*
X212593Y248793D01*
X224093D01*
X224300Y249000D01*
X156186Y236000D02*
X202700D01*
X157015Y234000D02*
X203528D01*
X157843Y232000D02*
X204357D01*
X158672Y230000D02*
X205185D01*
X159500Y228000D02*
X206014D01*
X160328Y226000D02*
X206842D01*
X202700Y236000D02*
X212700Y246000D01*
X203528Y234000D02*
X212799Y243270D01*
X204357Y232000D02*
X211357Y239000D01*
X205185Y230000D02*
X210285Y235100D01*
X206014Y228000D02*
X209514Y231500D01*
X206842Y226000D02*
X209842Y229000D01*
X223957Y209800D02*
X281300D01*
X222300Y213800D02*
X283400D01*
X233300Y216000D02*
X255300D01*
X229000Y220300D02*
X233300Y216000D01*
X221500Y207343D02*
X223957Y209800D01*
X216000Y204672D02*
X223128Y211800D01*
X210500Y202000D02*
X222300Y213800D01*
Y220300D02*
X229000D01*
X232500Y202000D02*
Y206100D01*
X227000Y202000D02*
Y206400D01*
X221500Y202000D02*
Y207343D01*
X216000Y202000D02*
Y204672D01*
X255300Y216000D02*
X256900Y217600D01*
X274000D01*
X267800Y207800D02*
X280472D01*
X253000Y187500D02*
X271300Y205800D01*
X279643D01*
X211357Y239000D02*
X271900D01*
X210285Y235100D02*
X269100D01*
X275200Y235928D02*
Y269700D01*
X270772Y231500D02*
X275200Y235928D01*
X209514Y231500D02*
X270772D01*
X277200Y235100D02*
Y261700D01*
X271100Y229000D02*
X277200Y235100D01*
X209842Y229000D02*
X271100D01*
X253000Y193000D02*
X267800Y207800D01*
X149499Y161001D02*
X155049D01*
X140955Y132045D02*
X155049D01*
X138149Y134851D02*
X140955Y132045D01*
X142149Y146351D02*
X145455Y143045D01*
X152149Y217821D02*
X160328Y226000D01*
X150149Y218649D02*
X159500Y228000D01*
X148149Y219478D02*
X158672Y230000D01*
X146149Y220306D02*
X157843Y232000D01*
X144149Y221134D02*
X157015Y234000D01*
X142149Y221963D02*
X156186Y236000D01*
X141614Y100750D02*
X178750D01*
X192546Y111600D02*
Y116100D01*
X122600Y249600D02*
Y270428D01*
X117000Y244000D02*
X122600Y249600D01*
X140149Y140851D02*
X143455Y137545D01*
X122600Y270428D02*
X124500Y272328D01*
X87300Y240028D02*
X91828Y235500D01*
X85300Y239200D02*
X91000Y233500D01*
X83300Y238372D02*
X90172Y231500D01*
X72500Y246343D02*
X89343Y229500D01*
X87300Y240028D02*
Y267050D01*
X85300Y239200D02*
Y264700D01*
X72500Y246343D02*
Y250000D01*
X370525Y181525D02*
X385000Y196000D01*
X385000Y300000D02*
Y316657D01*
X143455Y137545D02*
X155049D01*
X178750Y100750D02*
X182000Y104000D01*
X162984Y109500D02*
X164935Y111451D01*
X144149Y151430D02*
X146879Y148700D01*
X143271Y104750D02*
X169196D01*
X142443Y102750D02*
X172696D01*
X310828Y388000D02*
X376025Y322803D01*
X281699Y388000D02*
X310828D01*
X272748Y379049D02*
X281699Y388000D01*
X265779Y379049D02*
X272748D01*
X283800Y386000D02*
X310000D01*
X276700Y378900D02*
X283800Y386000D01*
X336525Y179525D02*
X371354D01*
X193679Y379049D02*
X204830Y390200D01*
X311457D01*
X193679Y374549D02*
Y379049D01*
X188280Y374400D02*
X193530D01*
X188220D02*
X188280D01*
X335697Y181525D02*
X370525D01*
X78325Y293724D02*
X78350Y293700D01*
X71000Y293724D02*
X78325D01*
X66500D02*
X71000D01*
X66350Y293725D02*
Y299250D01*
Y288200D02*
Y293725D01*
X246800Y121270D02*
X251300D01*
X137500Y293725D02*
X142000D01*
X131350Y293700D02*
X131375Y293725D01*
X142000Y288200D02*
Y293725D01*
X246800Y126770D02*
X251300D01*
X276700Y374400D02*
Y378900D01*
X271290Y374400D02*
X276700D01*
X271240D02*
X271290D01*
X248500Y187500D02*
X253000D01*
X265779Y374549D02*
Y379049D01*
X260470Y374400D02*
X265630D01*
X260320D02*
X260470D01*
X248500Y193000D02*
X253000D01*
X175000Y240000D02*
X178700Y243700D01*
X230000Y243270D02*
X236500Y249770D01*
X212799Y243270D02*
X230000D01*
X229901Y246000D02*
X234500Y250599D01*
X212700Y246000D02*
X229901D01*
X218429Y225050D02*
X233850D01*
X212300Y218921D02*
X218429Y225050D01*
X236500Y249770D02*
Y265000D01*
X234500Y250599D02*
Y257000D01*
X255110Y357740D02*
Y368400D01*
X182860Y357740D02*
Y368400D01*
X111060Y357740D02*
Y368400D01*
X212300Y218921D02*
Y220300D01*
X233850Y225050D02*
X237500Y221400D01*
X206714Y180535D02*
Y192214D01*
X210500Y196000D01*
X209864Y180535D02*
Y189864D01*
X216000Y196000D01*
X213013Y180535D02*
Y187513D01*
X221500Y196000D01*
X216163Y180535D02*
Y185163D01*
X227000Y196000D01*
X219313Y180535D02*
Y182813D01*
X232500Y196000D01*
X229500Y129000D02*
Y142000D01*
X228249Y143251D02*
X229500Y142000D01*
X225100Y143251D02*
X228249D01*
X229500Y129000D02*
X233500Y125000D01*
Y117000D02*
Y125000D01*
X235500Y121187D02*
Y126172D01*
Y121187D02*
X240800Y115887D01*
X231500Y130172D02*
X235500Y126172D01*
X231500Y130172D02*
Y143100D01*
X233500Y131000D02*
X237500Y127000D01*
Y124570D02*
Y127000D01*
Y124570D02*
X240800Y121270D01*
X233500Y131000D02*
Y144300D01*
Y117000D02*
X240230Y110270D01*
X75700Y263700D02*
X78350D01*
X69495Y257495D02*
X75700Y263700D01*
X66350Y257495D02*
X69495D01*
X66350Y252043D02*
Y257495D01*
X204600Y374400D02*
Y378900D01*
X199160Y374400D02*
X204600D01*
X199140D02*
X199160D01*
X188345Y201851D02*
Y206351D01*
Y216345D01*
X192300Y220300D01*
X182845Y201851D02*
Y206351D01*
X182300Y220300D02*
X182845Y219755D01*
Y206351D02*
Y219755D01*
X177464Y136964D02*
X187317D01*
X187817Y137464D01*
X194116Y134065D02*
Y137464D01*
X190966Y133744D02*
Y137464D01*
X217477Y122801D02*
Y127023D01*
X213013Y131487D02*
X217477Y127023D01*
X213013Y131487D02*
Y137464D01*
X219313Y133687D02*
X229222Y123778D01*
Y122100D02*
Y123778D01*
X219313Y133687D02*
Y137464D01*
X223700Y122100D02*
Y125778D01*
X216163Y133315D02*
X223700Y125778D01*
X217477Y122801D02*
X218178Y122100D01*
X212656D02*
Y127844D01*
X209864Y130636D02*
X212656Y127844D01*
X209864Y130636D02*
Y137464D01*
X206714Y128500D02*
Y137464D01*
Y121914D02*
Y128500D01*
X206000Y121200D02*
X206714Y121914D01*
X255060Y368400D02*
X255110D01*
X276950Y365900D02*
Y368400D01*
Y365900D02*
X286750Y356100D01*
X266030Y363538D02*
Y368400D01*
X271490Y363750D02*
Y368250D01*
X266030Y363538D02*
X273467Y356100D01*
X193780Y363538D02*
Y368400D01*
X182840D02*
X182860D01*
X204700Y365900D02*
Y368400D01*
Y365900D02*
X214500Y356100D01*
X199240Y363750D02*
Y368250D01*
X193780Y363538D02*
X201218Y356100D01*
X132900Y365900D02*
Y368400D01*
Y365900D02*
X142700Y356100D01*
X121980Y363538D02*
Y368400D01*
X110960D02*
X111060D01*
X127439Y363750D02*
Y368250D01*
X121980Y363538D02*
X129418Y356100D01*
X56900Y365900D02*
X66700Y356100D01*
X56900Y365900D02*
Y368400D01*
X53417Y356100D02*
X56700D01*
X45980Y363538D02*
X53417Y356100D01*
X45980Y363538D02*
Y368400D01*
X40520Y362280D02*
X46700Y356100D01*
X40520Y362280D02*
Y368400D01*
X35060Y357740D02*
X36700Y356100D01*
X35060Y357740D02*
Y368400D01*
Y374400D02*
Y378900D01*
X131350Y268700D02*
X131450Y268600D01*
X138301Y268700D02*
X141700D01*
X138201Y268600D02*
X138301Y268700D01*
X148000Y252043D02*
Y257495D01*
X142000Y262948D02*
Y268400D01*
X141700Y268700D02*
X142000Y268400D01*
X207800Y252043D02*
X212300D01*
X207800Y257495D02*
X212300D01*
X207800Y268400D02*
X212300D01*
X207606Y262848D02*
X212106D01*
X207651Y288199D02*
X212151D01*
X207651Y293724D02*
X212151D01*
X207800Y299250D02*
X212300D01*
X148000Y288200D02*
X152500D01*
X148000Y293725D02*
X152500D01*
X148149Y299250D02*
X152649D01*
X55701Y293724D02*
X60201D01*
X55701Y299250D02*
X60201D01*
X219313Y180535D02*
X219535D01*
X216163D02*
X216710Y181082D01*
X219313Y137464D02*
X219813Y136964D01*
X216163Y133315D02*
Y137464D01*
X219813Y135987D02*
Y136964D01*
X169100Y132100D02*
X180251Y143251D01*
X165400Y132100D02*
X169100D01*
X165400Y137600D02*
X169600D01*
X178401Y146401D01*
X170100Y143100D02*
X176550Y149550D01*
X165400Y143100D02*
X170100D01*
X165400Y148600D02*
X171100D01*
X175200Y152700D01*
X171900Y154900D02*
X172850Y155850D01*
X164650Y154900D02*
X171900D01*
X171200Y161200D02*
X172149Y162149D01*
X165400Y161200D02*
X171200D01*
X170800Y166700D02*
X172202Y165298D01*
X165400Y166700D02*
X170800D01*
X171400Y172100D02*
X175052Y168448D01*
X165400Y172100D02*
X171400D01*
X170400Y177600D02*
X176402Y171598D01*
X165400Y177600D02*
X170400D01*
X183000Y195500D02*
X194116Y184384D01*
X241200Y187500D02*
X242500D01*
X244948Y168448D02*
X251000Y174500D01*
X244948Y165298D02*
X251000Y159247D01*
X265754D02*
X268000Y157000D01*
X265500Y174500D02*
X266000Y175000D01*
X176550Y149550D02*
X182029D01*
X172850Y155850D02*
X182029D01*
X172202Y165298D02*
X182029D01*
X180251Y143251D02*
X182029D01*
X175052Y168448D02*
X182029D01*
X178401Y146401D02*
X182029D01*
X175200Y152700D02*
X182029D01*
X176402Y171598D02*
X182029D01*
X172149Y162149D02*
X182029D01*
X194116Y180535D02*
Y184384D01*
X225100Y146401D02*
X228199D01*
X225100Y149550D02*
X228250D01*
X225100Y152700D02*
X228300D01*
X225100Y155850D02*
X228379D01*
X237500Y146728D01*
X246800Y143900D02*
X251300D01*
X246800Y149400D02*
X251300D01*
X172000Y202000D02*
Y206500D01*
X149000Y155000D02*
X153500D01*
X238500Y187501D02*
X242350D01*
X167829Y183000D02*
X176081Y174747D01*
X182029D01*
X171050Y195050D02*
X172000Y196000D01*
X183000Y195500D02*
Y196000D01*
X225100Y165298D02*
X244948D01*
X251000Y159247D02*
X265754D01*
X225100Y168448D02*
X244948D01*
X251000Y174500D02*
X265500D01*
X266000Y175000D02*
X268000D01*
X165400Y183000D02*
X167829D01*
X127700Y263700D02*
X131350D01*
X229000Y258700D02*
X232800D01*
X234500Y257000D01*
X229000Y268700D02*
X232800D01*
X236500Y265000D01*
X279200Y263700D02*
X282000D01*
X279200Y273700D02*
X282000D01*
X51440Y374400D02*
X56900D01*
Y378900D01*
X40520Y374400D02*
X45830D01*
X45979Y374549D02*
Y379049D01*
X148194Y257595D02*
X152694D01*
X148000Y252043D02*
X152500D01*
X148150Y268400D02*
X152650D01*
X226200Y263700D02*
X229000D01*
X219995Y257495D02*
X226200Y263700D01*
X218300Y257495D02*
X219995D01*
X218300Y252043D02*
Y257495D01*
X198500Y94000D02*
X202000D01*
X207500D01*
X213000D01*
X202000Y100000D02*
Y105200D01*
X206000Y109200D01*
X207500Y100000D02*
X207500Y100000D01*
X207500Y100000D02*
Y103500D01*
X213000Y100000D02*
X213000Y100000D01*
X213000Y100000D02*
Y103500D01*
X206000Y73500D02*
Y77000D01*
X205000Y50000D02*
Y53500D01*
X229000Y249200D02*
Y253700D01*
X282000Y249200D02*
Y253700D01*
X296656Y252043D02*
X301156D01*
X296656Y257495D02*
X301156D01*
X296656Y268400D02*
X298900D01*
X300500Y270000D01*
X282000Y268700D02*
X290356D01*
X290656Y268400D01*
Y262948D02*
Y268400D01*
X131350Y253700D02*
X131500Y253550D01*
X89000Y385000D02*
X96500Y377500D01*
X63000Y385000D02*
X89000D01*
X89828Y387000D02*
X98500Y378328D01*
X84500Y269850D02*
Y299000D01*
X96500Y311000D01*
Y377500D01*
X98500Y310500D02*
Y378328D01*
Y310500D02*
X102500Y306500D01*
X118000D01*
X124500Y272328D02*
Y300000D01*
X118000Y306500D02*
X124500Y300000D01*
X56900Y378900D02*
X63000Y385000D01*
X45979Y379049D02*
X53930Y387000D01*
X89828D01*
X93500Y253950D02*
Y257000D01*
X101000Y253950D02*
Y257000D01*
X108500Y253950D02*
Y257000D01*
X116000Y253950D02*
Y257000D01*
X94500Y295000D02*
Y298050D01*
X102000Y295000D02*
Y298050D01*
X109500Y295000D02*
Y298050D01*
X117000Y295000D02*
Y298050D01*
X81300Y258700D02*
X83300Y256700D01*
X84500Y269850D02*
X87300Y267050D01*
X126600Y262600D02*
X127700Y263700D01*
X124600Y269600D02*
X128700Y273700D01*
X96900Y213700D02*
Y218200D01*
X106584Y174089D02*
Y178589D01*
X178700Y243700D02*
Y273172D01*
X126940Y374400D02*
X127040D01*
X132400D01*
Y378900D01*
X140100Y386600D02*
X164900D01*
X132400Y378900D02*
X140100Y386600D01*
X116020Y374400D02*
X116320D01*
X121330D01*
X121479Y374549D02*
Y379049D01*
X131030Y388600D02*
X165728D01*
X204600Y378900D02*
Y379500D01*
X211800Y386700D01*
X235000D01*
X121479Y379049D02*
X131030Y388600D01*
X235000Y386700D02*
X238600Y383100D01*
Y244200D02*
Y383100D01*
X236600Y242200D02*
X238600Y244200D01*
X277200Y261700D02*
X279200Y263700D01*
X275200Y269700D02*
X279200Y273700D01*
X164935Y111451D02*
Y115951D01*
X165696Y106750D02*
X170546Y111600D01*
X169196Y104750D02*
X176046Y111600D01*
X172696Y102750D02*
X181546Y111600D01*
X197265Y133765D02*
Y137464D01*
X190000Y126500D02*
X197265Y133765D01*
X183500Y126500D02*
X190000D01*
X181501Y124501D02*
X183500Y126500D01*
X181501Y122100D02*
Y124501D01*
X188636Y128586D02*
X194116Y134065D01*
X177000Y131500D02*
X188722D01*
X190966Y133744D01*
X180086Y128586D02*
X188636D01*
X175979Y124479D02*
X180086Y128586D01*
X175979Y122100D02*
Y124479D01*
X170457Y124957D02*
X177000Y131500D01*
X170457Y122100D02*
Y124957D01*
X164935Y124435D02*
X177464Y136964D01*
X164935Y122100D02*
Y124435D01*
X237500Y135570D02*
Y146728D01*
Y135570D02*
X240800Y132270D01*
Y115770D02*
Y115887D01*
X228300Y152700D02*
X235500Y145500D01*
Y132070D02*
X240800Y126770D01*
X235500Y132070D02*
Y145500D01*
X228250Y149550D02*
X233500Y144300D01*
X228199Y146401D02*
X231500Y143100D01*
X240230Y110270D02*
X240800D01*
X142678Y114000D02*
X156000D01*
X144100Y106750D02*
X165696D01*
X144178Y109500D02*
X162984D01*
X218300Y288200D02*
Y293725D01*
Y299250D01*
X218450Y293724D02*
X222950D01*
X228976D01*
X229000Y293700D01*
X290631D02*
X290656Y293725D01*
Y288200D02*
Y293725D01*
Y299250D01*
X282000Y293700D02*
X287000D01*
X290631D01*
X296656Y299250D02*
X301156D01*
X296805Y293724D02*
X301305D01*
X296805Y288199D02*
X301305D01*
X66506Y165000D02*
X71006D01*
X119400Y27000D02*
X149500D01*
X114634Y31766D02*
X119400Y27000D01*
X69194Y59950D02*
X79694D01*
X79728Y59916D01*
X68900Y54500D02*
Y54798D01*
X69300D02*
X79728D01*
X79858Y49700D02*
X79877Y49681D01*
X46369Y73463D02*
X47906Y75000D01*
X46369Y81337D02*
X60463D01*
X76766Y65034D01*
X79728D01*
X66500Y68800D02*
X72825Y62475D01*
X79728D01*
X66500Y68800D02*
Y71500D01*
X151358Y68650D02*
Y73150D01*
X137929Y68500D02*
X138000D01*
X144643D01*
X119858Y219200D02*
X123250Y215808D01*
X138000Y68500D02*
Y73000D01*
X131214Y68500D02*
Y73000D01*
X155049Y183000D02*
X159549D01*
X180750Y58250D02*
Y70000D01*
X191434Y73500D02*
Y77000D01*
X198217Y93717D02*
X198500Y94000D01*
X197811Y93717D02*
X198217D01*
X201311D01*
X190717Y47189D02*
Y70811D01*
X229223Y111451D02*
Y115951D01*
X311457Y390200D02*
X385000Y316657D01*
X376025Y306000D02*
Y322803D01*
X291522Y196750D02*
X367275D01*
X373000Y202475D02*
Y206000D01*
X367275Y196750D02*
X373000Y202475D01*
X371354Y179525D02*
X388000Y196172D01*
Y199925D01*
X373000Y301000D02*
Y323000D01*
X310000Y386000D02*
X373000Y323000D01*
X385000Y196000D02*
Y206000D01*
X385000Y206000D02*
X385000Y206000D01*
X256000Y138347D02*
X277953D01*
X379000Y194000D02*
Y206000D01*
X277953Y138347D02*
X282000Y142394D01*
X273800Y202200D02*
X282000Y194000D01*
Y142394D02*
Y194000D01*
X283300Y225000D02*
Y237000D01*
X155049Y161001D02*
X159549D01*
X171500Y68500D02*
Y73000D01*
X290693Y194750D02*
X369526D01*
X373764Y198988D01*
X246800Y115770D02*
X253770D01*
X267836Y129836D01*
X284007D01*
X335697Y181525D01*
X269000Y127000D02*
X284000D01*
X336525Y179525D01*
X368525Y183525D02*
X379000Y194000D01*
X282270Y132270D02*
X333525Y183525D01*
X368525D01*
X200000Y137879D02*
X200415Y137464D01*
X200000Y137879D02*
Y143000D01*
X203565Y173588D02*
Y180535D01*
X182029Y158999D02*
X188976D01*
X108272Y31766D02*
X114634D01*
X212522Y111600D02*
Y116100D01*
X102331Y29969D02*
Y39930D01*
X104402Y42002D01*
X108272D01*
X118572Y25000D02*
X150328D01*
X102331Y29969D02*
X104500Y27800D01*
X115772D01*
X118572Y25000D01*
X150328D02*
X183800Y58472D01*
Y74000D01*
X73770Y39443D02*
X79728D01*
Y57357D02*
X85686D01*
X108291Y47100D02*
X114249D01*
X47906Y75000D02*
X63000D01*
X66500Y71500D01*
X55850Y288200D02*
X60350D01*
X120800Y235401D02*
Y243100D01*
Y235401D02*
X136149Y220052D01*
X60250Y268300D02*
X60350Y268400D01*
X60156Y268300D02*
X60250D01*
X60350Y248807D02*
Y252043D01*
Y248807D02*
X61857Y247300D01*
X63800D01*
D34*
X248272Y319300D02*
X266585D01*
X105415D02*
X123728D01*
X231390Y372610D02*
Y378600D01*
X217610Y371890D02*
Y378600D01*
X86700Y313700D02*
Y356100D01*
X69500Y316500D02*
Y344500D01*
X76700Y351700D02*
Y356100D01*
X17300Y258200D02*
X17500Y258400D01*
X17300Y249072D02*
Y258200D01*
X204107Y278450D02*
X223107D01*
X196500Y286057D02*
X204107Y278450D01*
X196500Y286057D02*
Y301243D01*
X206178Y283450D02*
X221036D01*
X201500Y288128D02*
Y299172D01*
Y288128D02*
X206178Y283450D01*
X212558Y314936D02*
Y319300D01*
X209622Y312000D02*
X212558Y314936D01*
X207257Y312000D02*
X209622D01*
X196500Y301243D02*
X207257Y312000D01*
X209328Y307000D02*
X218570D01*
X201500Y299172D02*
X209328Y307000D01*
X86500Y193500D02*
X96584Y183416D01*
X86500Y193500D02*
Y211800D01*
X96584Y178589D02*
Y183416D01*
X158500Y285500D02*
Y301000D01*
X131350Y278700D02*
X136800D01*
X131350Y258700D02*
X135800D01*
X131350Y283700D02*
X138871D01*
X194000Y249100D02*
X194600Y248500D01*
X187200Y249100D02*
X194000D01*
X92399Y134800D02*
Y148381D01*
X165000Y240000D02*
Y248100D01*
X164700Y248400D02*
X165000Y248100D01*
X66350Y262948D02*
Y268400D01*
X314500Y234772D02*
Y244500D01*
X304772Y265500D02*
X314500D01*
X184872Y269500D02*
X194600D01*
X164700Y269400D02*
X174428D01*
X319701Y338700D02*
X329429D01*
X319701Y319300D02*
X329429D01*
X42571D02*
X52299D01*
X42571Y338700D02*
X52299D01*
X257500D02*
X266585D01*
X248272D02*
X257500D01*
X186000Y319300D02*
X195156D01*
X176844D02*
X186000D01*
X186500Y338700D02*
X195156D01*
X176844D02*
X186500D01*
X114000D02*
X123728D01*
X105415D02*
X114000D01*
X229500Y320670D02*
X230870Y319300D01*
X229500Y320670D02*
Y337330D01*
X230870Y338700D01*
X233300Y341130D01*
Y356100D01*
Y370700D01*
X231390Y372610D02*
X233300Y370700D01*
X217610Y371890D02*
X223300Y366200D01*
Y356100D02*
Y366200D01*
X212558Y338700D02*
Y340058D01*
Y319300D02*
Y338700D01*
X223300Y350800D02*
Y356100D01*
X212558Y340058D02*
X223300Y350800D01*
X283987Y319300D02*
Y338700D01*
Y341487D01*
X218570Y307000D02*
X230870Y319300D01*
X283987D02*
X285787Y317500D01*
X301000Y280000D02*
X306500Y285500D01*
X283987Y341487D02*
X296300Y353800D01*
Y356100D01*
Y372910D01*
X290610Y378600D02*
X296300Y372910D01*
X304390Y378600D02*
X306300Y376690D01*
Y356100D02*
Y376690D01*
Y347300D02*
Y356100D01*
X302299Y343299D02*
X306300Y347300D01*
X302299Y338700D02*
Y343299D01*
Y319300D02*
Y338700D01*
X76700Y356100D02*
Y372720D01*
X70820Y378600D02*
X76700Y372720D01*
X69500Y344500D02*
X76700Y351700D01*
X78900Y305901D02*
X86700Y313700D01*
X63901Y310900D02*
X69500Y316500D01*
X286050Y278450D02*
X289500Y275000D01*
X282250Y278450D02*
X286050D01*
X287670Y283700D02*
X287920Y283450D01*
X288121D01*
X291571Y280000D01*
X282000Y283700D02*
X287670D01*
X303071Y275000D02*
X311500Y283429D01*
X289500Y275000D02*
X303071D01*
X291571Y280000D02*
X301000D01*
X159442Y338700D02*
Y348442D01*
X161800Y350800D01*
Y356100D01*
Y376690D01*
X159890Y378600D02*
X161800Y376690D01*
X141130Y338700D02*
Y339630D01*
Y319300D02*
Y338700D01*
X146110Y378600D02*
X152000Y372710D01*
X141130Y339630D02*
X152000Y350500D01*
X70129Y283700D02*
X78350D01*
X52329Y310900D02*
X63901D01*
X54400Y305901D02*
X78900D01*
X49500Y301000D02*
X54400Y305901D01*
X44500Y303071D02*
X52329Y310900D01*
X44500Y286256D02*
Y303071D01*
X163500Y283429D02*
Y303071D01*
X159442Y307129D02*
X163500Y303071D01*
X159442Y307129D02*
Y319300D01*
X141130Y318370D02*
X158500Y301000D01*
X141130Y318370D02*
Y319300D01*
X86700Y356100D02*
Y363300D01*
X84600Y365400D02*
X86700Y363300D01*
X84600Y365400D02*
Y378600D01*
X142000Y252043D02*
Y257495D01*
X137005D02*
X142000D01*
X135800Y258700D02*
X137005Y257495D01*
X55850D02*
X60350D01*
X282000Y258700D02*
X285743D01*
X286947Y257495D01*
X290656D01*
Y252043D02*
Y257495D01*
X159442Y319300D02*
Y338700D01*
X302299Y313801D02*
Y319300D01*
Y313801D02*
X311500Y304600D01*
Y283429D02*
Y304600D01*
X285787Y315413D02*
Y317500D01*
Y315413D02*
X295300Y305900D01*
X300728D01*
X306500Y285500D02*
Y300128D01*
X300728Y305900D02*
X306500Y300128D01*
X96584Y172584D02*
Y178589D01*
X73700Y117600D02*
Y121700D01*
X77051Y125051D01*
Y134599D01*
Y139900D01*
Y145200D01*
Y154499D01*
Y159800D01*
Y165100D01*
X81951Y170000D01*
X94000D01*
X96584Y172584D01*
X36100Y181000D02*
X43000D01*
X46000Y178000D01*
Y172000D02*
Y178000D01*
Y172000D02*
X48000Y170000D01*
X74000D02*
X77051Y166949D01*
Y165100D02*
Y166949D01*
X6000Y170000D02*
X48000D01*
X4800Y171200D02*
X6000Y170000D01*
X4800Y171200D02*
Y175100D01*
X86500Y211800D02*
X88400Y213700D01*
X91400D01*
X71400Y224100D02*
X81128D01*
X78000Y200701D02*
Y210429D01*
X109801Y125072D02*
Y134800D01*
X100200Y86572D02*
Y96300D01*
X73100Y86272D02*
Y96000D01*
X85780Y155000D02*
X92399Y148381D01*
X88000Y155000D02*
X101584Y168584D01*
X85780Y155000D02*
X88000D01*
X101584Y168584D02*
Y178589D01*
X25067Y208000D02*
X30533D01*
X36000D01*
X41958D01*
X218300Y268400D02*
X220400Y270500D01*
X218300Y262948D02*
Y268400D01*
X220400Y270500D02*
X220435D01*
X48000Y170000D02*
X57200D01*
X74000D01*
X40600Y338700D02*
X42571D01*
X24300Y322400D02*
X40600Y338700D01*
X50400Y224100D02*
Y233828D01*
X29400Y378900D02*
X35060D01*
X14800Y222900D02*
X25067D01*
X30533D01*
X36000D01*
X49500Y288328D02*
X55628Y282200D01*
X68629D01*
X70129Y283700D01*
X70700Y277200D02*
X72200Y278700D01*
X78350D01*
X74271Y273700D02*
X78350D01*
X70450Y270000D02*
X70571D01*
X74271Y273700D01*
X49500Y288328D02*
Y301000D01*
X44500Y286256D02*
X53556Y277200D01*
X70700D01*
X220435Y270500D02*
X223385Y273450D01*
X225179D01*
X225429Y273700D01*
X229000D01*
X223357Y278700D02*
X229000D01*
X218506Y265700D02*
X218605Y265800D01*
X221900D01*
X221551Y283964D02*
X228735D01*
X223107Y278450D02*
X223357Y278700D01*
X221036Y283450D02*
X221551Y283964D01*
X138871Y283700D02*
X139671Y282900D01*
X155900D01*
X158500Y285500D01*
X152000Y350500D02*
Y372710D01*
X136800Y278700D02*
X137600Y277900D01*
X157971D01*
X163500Y283429D01*
X50400Y233828D02*
Y255600D01*
X69350Y268900D02*
X70450Y270000D01*
X66350Y268400D02*
X66850Y268900D01*
X69350D01*
X5000Y232700D02*
X14800Y222900D01*
X5000Y232700D02*
Y354500D01*
X29400Y378900D01*
X24300Y286200D02*
Y322400D01*
Y286200D02*
X39200Y271300D01*
Y266300D02*
Y271300D01*
Y259100D02*
Y266300D01*
X38500Y258400D02*
X39200Y259100D01*
X50400Y255600D02*
X52295Y257495D01*
X55850D01*
D35*
X35700Y36200D02*
Y51534D01*
Y103266D01*
X42150Y35899D02*
X46650D01*
X14740Y181100D02*
X14840Y181000D01*
X4800Y181100D02*
X14740D01*
X4800D02*
Y186600D01*
X55220Y202000D02*
X56000Y201220D01*
X30533Y202000D02*
X36000D01*
X55220D01*
X36100Y186000D02*
X48780D01*
X56000Y178780D01*
X70953Y183299D02*
X78000D01*
X66434Y178780D02*
X70953Y183299D01*
X56000Y178780D02*
X66434D01*
X20000Y202000D02*
X25067D01*
X30533D01*
X20000Y208000D02*
X20000Y208000D01*
X11200Y208000D02*
X15600D01*
X20000D01*
D36*
X36700Y356100D02*
D03*
X335800Y90300D02*
D03*
Y207500D02*
D03*
X222300Y220300D02*
D03*
X256300Y356100D02*
D03*
X183300D02*
D03*
X111800D02*
D03*
X123000Y86500D02*
D03*
D37*
X46700Y356100D02*
D03*
X56700D02*
D03*
X66700D02*
D03*
X76700D02*
D03*
X86700D02*
D03*
X345800Y90300D02*
D03*
X355800D02*
D03*
X365800D02*
D03*
Y100300D02*
D03*
X355800D02*
D03*
X345800D02*
D03*
X335800D02*
D03*
X345800Y207500D02*
D03*
X355800D02*
D03*
X365800D02*
D03*
Y217500D02*
D03*
X355800D02*
D03*
X345800D02*
D03*
X335800D02*
D03*
X224000Y24000D02*
D03*
Y34000D02*
D03*
Y44000D02*
D03*
Y54000D02*
D03*
Y64000D02*
D03*
X212300Y220300D02*
D03*
X202300D02*
D03*
X192300D02*
D03*
X182300D02*
D03*
X172300D02*
D03*
X266300Y356100D02*
D03*
X276300D02*
D03*
X286300D02*
D03*
X296300D02*
D03*
X306300D02*
D03*
X193300D02*
D03*
X203300D02*
D03*
X213300D02*
D03*
X223300D02*
D03*
X233300D02*
D03*
X121800D02*
D03*
X131800D02*
D03*
X141800D02*
D03*
X151800D02*
D03*
X161800D02*
D03*
X133000Y86500D02*
D03*
X143000D02*
D03*
X153000D02*
D03*
X163000D02*
D03*
X173000D02*
D03*
D38*
X379000Y391000D02*
D03*
X16000D02*
D03*
Y28000D02*
D03*
X379000D02*
D03*
D39*
X224000Y74000D02*
D03*
D40*
X217610Y378600D02*
D03*
X290610D02*
D03*
X70820D02*
D03*
X146110D02*
D03*
D41*
X231390D02*
D03*
X304390D02*
D03*
X84600D02*
D03*
X159890D02*
D03*
D42*
X36100Y128800D02*
D03*
D43*
X48600Y148300D02*
D03*
X24100D02*
D03*
D44*
X268000Y176000D02*
D03*
Y157000D02*
D03*
D45*
X35700Y51534D02*
D03*
Y103266D02*
D03*
D46*
X46369Y63620D02*
D03*
Y73463D02*
D03*
Y81337D02*
D03*
Y91180D02*
D03*
D47*
X127439Y363750D02*
D03*
X51619Y363799D02*
D03*
X163200Y222300D02*
D03*
X40600Y191000D02*
D03*
X8900Y191900D02*
D03*
X6700Y202000D02*
D03*
X112250Y96300D02*
D03*
X218178Y111600D02*
D03*
X212522D02*
D03*
X131214Y58000D02*
D03*
X187046Y111600D02*
D03*
X119458Y218500D02*
D03*
X118500Y174000D02*
D03*
X123249Y170375D02*
D03*
X155049Y183000D02*
D03*
X244000Y254100D02*
D03*
X266500D02*
D03*
X259000D02*
D03*
X251500D02*
D03*
X267750Y298050D02*
D03*
X260250D02*
D03*
X252750D02*
D03*
X245250D02*
D03*
X282100Y304300D02*
D03*
X223400Y298800D02*
D03*
X136950Y298600D02*
D03*
X144643Y58343D02*
D03*
X214000Y49600D02*
D03*
X324600Y215900D02*
D03*
X287400Y235100D02*
D03*
X46650Y35899D02*
D03*
X171500Y58000D02*
D03*
X124600Y57806D02*
D03*
X303400Y221300D02*
D03*
X224300Y249000D02*
D03*
X232500Y206100D02*
D03*
X227000Y206400D02*
D03*
X274000Y217600D02*
D03*
X273800Y202200D02*
D03*
X271900Y239000D02*
D03*
X269100Y235100D02*
D03*
X192546Y111600D02*
D03*
X156000Y114000D02*
D03*
X182000Y104000D02*
D03*
X108500Y213500D02*
D03*
X72500Y250000D02*
D03*
X70450Y270000D02*
D03*
X193679Y379049D02*
D03*
X71000Y293724D02*
D03*
X251300Y121270D02*
D03*
X137500Y293725D02*
D03*
X251300Y126770D02*
D03*
X276700Y378900D02*
D03*
X253000Y187500D02*
D03*
X265779Y379049D02*
D03*
X253000Y193000D02*
D03*
X175000Y240000D02*
D03*
X236600Y242200D02*
D03*
X204600Y378900D02*
D03*
X206714Y128500D02*
D03*
X271490Y363750D02*
D03*
X199240D02*
D03*
X55850Y257495D02*
D03*
X207800Y252043D02*
D03*
Y257495D02*
D03*
Y268400D02*
D03*
X207606Y262848D02*
D03*
X207651Y288199D02*
D03*
Y293724D02*
D03*
X207800Y299250D02*
D03*
X152500Y288200D02*
D03*
Y293725D02*
D03*
X152649Y299250D02*
D03*
X55701Y293724D02*
D03*
Y299250D02*
D03*
X251300Y143900D02*
D03*
Y149400D02*
D03*
X188345Y206351D02*
D03*
X182845D02*
D03*
X199501D02*
D03*
X194000D02*
D03*
X155049Y161001D02*
D03*
X172000Y206500D02*
D03*
X149000Y155000D02*
D03*
X234500Y172000D02*
D03*
X260600Y184700D02*
D03*
X277000Y187000D02*
D03*
X276742Y144369D02*
D03*
X258347D02*
D03*
X219000Y167500D02*
D03*
Y162500D02*
D03*
X234500Y161500D02*
D03*
X155049Y132045D02*
D03*
Y137545D02*
D03*
X56900Y378900D02*
D03*
X45979Y379049D02*
D03*
X152694Y257595D02*
D03*
X152500Y252043D02*
D03*
X152650Y268400D02*
D03*
X207500Y103500D02*
D03*
X213000D02*
D03*
X206000Y77000D02*
D03*
X205000Y53500D02*
D03*
X78350Y249200D02*
D03*
X229000D02*
D03*
X282000D02*
D03*
X301156Y252043D02*
D03*
Y257495D02*
D03*
X300500Y270000D02*
D03*
X131500Y250500D02*
D03*
X93500Y253950D02*
D03*
X101000D02*
D03*
X108500D02*
D03*
X116000D02*
D03*
X94500Y298050D02*
D03*
X102000D02*
D03*
X109500D02*
D03*
X117000D02*
D03*
X72750Y298800D02*
D03*
X96900Y218200D02*
D03*
X132400Y378900D02*
D03*
X121479Y379049D02*
D03*
X181546Y111600D02*
D03*
X176046D02*
D03*
X170546D02*
D03*
X164935Y111451D02*
D03*
X222950Y293724D02*
D03*
X287000Y293700D02*
D03*
X301156Y299250D02*
D03*
X301305Y293724D02*
D03*
Y288199D02*
D03*
X66506Y165000D02*
D03*
X66700Y159800D02*
D03*
X122599Y32949D02*
D03*
X127999D02*
D03*
X58349Y43501D02*
D03*
X58449Y49000D02*
D03*
X58443Y59951D02*
D03*
X73900Y49700D02*
D03*
X151358Y73150D02*
D03*
X138000Y73000D02*
D03*
X131214D02*
D03*
X183800Y74000D02*
D03*
X180750Y70000D02*
D03*
X191434Y77000D02*
D03*
X197811Y93717D02*
D03*
X223678Y111600D02*
D03*
X229223Y111451D02*
D03*
X376025Y306000D02*
D03*
X385000Y206000D02*
D03*
X388000Y199925D02*
D03*
X373000Y206000D02*
D03*
X379000D02*
D03*
X373000Y300404D02*
D03*
X385000Y300000D02*
D03*
X256000Y138347D02*
D03*
X373764Y198988D02*
D03*
X283300Y237000D02*
D03*
X171500Y73000D02*
D03*
X106584Y174089D02*
D03*
X200000Y143000D02*
D03*
X203565Y173588D02*
D03*
X188976Y158999D02*
D03*
X73770Y39443D02*
D03*
X85686Y57357D02*
D03*
X114249Y47100D02*
D03*
X68681Y37523D02*
D03*
X19089Y228920D02*
D03*
X55850Y288200D02*
D03*
X120800Y243100D02*
D03*
X221900Y265800D02*
D03*
X47379Y273000D02*
D03*
X63800Y247300D02*
D03*
D48*
X187200Y249100D02*
D03*
X165000Y240000D02*
D03*
X17300Y249072D02*
D03*
X314500Y234772D02*
D03*
X304772Y265500D02*
D03*
X184872Y269500D02*
D03*
X174428Y269400D02*
D03*
X329429Y338700D02*
D03*
Y319300D02*
D03*
X42571D02*
D03*
Y338700D02*
D03*
X257500Y319500D02*
D03*
Y338700D02*
D03*
X186000Y319300D02*
D03*
X186500Y338700D02*
D03*
X114500Y319500D02*
D03*
X114000Y338700D02*
D03*
X81128Y224100D02*
D03*
X78000Y210429D02*
D03*
X109801Y125072D02*
D03*
X100200Y86572D02*
D03*
X73100Y86272D02*
D03*
X57200Y170000D02*
D03*
X50400Y233828D02*
D03*
X39200Y266300D02*
D03*
M02*
