G04 Layer_Color=255*
%FSLAX25Y25*%
%MOIN*%
G70*
G01*
G75*
G04:AMPARAMS|DCode=10|XSize=40mil|YSize=55mil|CornerRadius=5mil|HoleSize=0mil|Usage=FLASHONLY|Rotation=180.000|XOffset=0mil|YOffset=0mil|HoleType=Round|Shape=RoundedRectangle|*
%AMROUNDEDRECTD10*
21,1,0.04000,0.04500,0,0,180.0*
21,1,0.03000,0.05500,0,0,180.0*
1,1,0.01000,-0.01500,0.02250*
1,1,0.01000,0.01500,0.02250*
1,1,0.01000,0.01500,-0.02250*
1,1,0.01000,-0.01500,-0.02250*
%
%ADD10ROUNDEDRECTD10*%
G04:AMPARAMS|DCode=11|XSize=35mil|YSize=35mil|CornerRadius=4.38mil|HoleSize=0mil|Usage=FLASHONLY|Rotation=90.000|XOffset=0mil|YOffset=0mil|HoleType=Round|Shape=RoundedRectangle|*
%AMROUNDEDRECTD11*
21,1,0.03500,0.02625,0,0,90.0*
21,1,0.02625,0.03500,0,0,90.0*
1,1,0.00875,0.01312,0.01312*
1,1,0.00875,0.01312,-0.01312*
1,1,0.00875,-0.01312,-0.01312*
1,1,0.00875,-0.01312,0.01312*
%
%ADD11ROUNDEDRECTD11*%
G04:AMPARAMS|DCode=12|XSize=35mil|YSize=35mil|CornerRadius=4.38mil|HoleSize=0mil|Usage=FLASHONLY|Rotation=180.000|XOffset=0mil|YOffset=0mil|HoleType=Round|Shape=RoundedRectangle|*
%AMROUNDEDRECTD12*
21,1,0.03500,0.02625,0,0,180.0*
21,1,0.02625,0.03500,0,0,180.0*
1,1,0.00875,-0.01312,0.01312*
1,1,0.00875,0.01312,0.01312*
1,1,0.00875,0.01312,-0.01312*
1,1,0.00875,-0.01312,-0.01312*
%
%ADD12ROUNDEDRECTD12*%
%ADD13C,0.03937*%
%ADD14R,0.08500X0.10799*%
%ADD15R,0.30000X0.40000*%
%ADD16R,0.06500X0.02500*%
%ADD17R,0.06500X0.12000*%
%ADD18R,0.12000X0.06500*%
%ADD19R,0.10799X0.08500*%
G04:AMPARAMS|DCode=20|XSize=23.62mil|YSize=61.02mil|CornerRadius=5.91mil|HoleSize=0mil|Usage=FLASHONLY|Rotation=270.000|XOffset=0mil|YOffset=0mil|HoleType=Round|Shape=RoundedRectangle|*
%AMROUNDEDRECTD20*
21,1,0.02362,0.04921,0,0,270.0*
21,1,0.01181,0.06102,0,0,270.0*
1,1,0.01181,-0.02461,-0.00591*
1,1,0.01181,-0.02461,0.00591*
1,1,0.01181,0.02461,0.00591*
1,1,0.01181,0.02461,-0.00591*
%
%ADD20ROUNDEDRECTD20*%
G04:AMPARAMS|DCode=21|XSize=23.62mil|YSize=61.02mil|CornerRadius=5.91mil|HoleSize=0mil|Usage=FLASHONLY|Rotation=180.000|XOffset=0mil|YOffset=0mil|HoleType=Round|Shape=RoundedRectangle|*
%AMROUNDEDRECTD21*
21,1,0.02362,0.04921,0,0,180.0*
21,1,0.01181,0.06102,0,0,180.0*
1,1,0.01181,-0.00591,0.02461*
1,1,0.01181,0.00591,0.02461*
1,1,0.01181,0.00591,-0.02461*
1,1,0.01181,-0.00591,-0.02461*
%
%ADD21ROUNDEDRECTD21*%
%ADD22R,0.09843X0.12598*%
%ADD23R,0.06600X0.06000*%
%ADD24R,0.08000X0.07000*%
%ADD25R,0.05512X0.07874*%
%ADD26R,0.06000X0.06600*%
%ADD27R,0.05000X0.05000*%
%ADD28R,0.05984X0.02205*%
%ADD29R,0.02205X0.05984*%
%ADD30R,0.12598X0.09843*%
%ADD31R,0.05906X0.01575*%
%ADD36R,0.06500X0.06500*%
%ADD37C,0.06500*%
%ADD38C,0.19685*%
%ADD39R,0.06500X0.06500*%
%ADD40C,0.07283*%
%ADD41R,0.07283X0.07283*%
%ADD42O,0.17000X0.08000*%
%ADD43O,0.08000X0.17000*%
%ADD44C,0.04800*%
%ADD45P,0.14235X8X292.5*%
%ADD46O,0.11220X0.05610*%
D10*
X51200Y117500D02*
D03*
X44200D02*
D03*
D11*
X232500Y196000D02*
D03*
X221500D02*
D03*
X216000D02*
D03*
X210500D02*
D03*
X172000D02*
D03*
X177500D02*
D03*
X183000D02*
D03*
X188500D02*
D03*
X194000D02*
D03*
X199500D02*
D03*
X227000D02*
D03*
X214000Y39000D02*
D03*
Y45000D02*
D03*
X322600Y92550D02*
D03*
Y86550D02*
D03*
X124500Y68500D02*
D03*
Y62500D02*
D03*
X164786Y68500D02*
D03*
Y62500D02*
D03*
X158071Y68500D02*
D03*
Y62500D02*
D03*
X137929Y68500D02*
D03*
Y62500D02*
D03*
X144643Y68500D02*
D03*
Y62500D02*
D03*
X271290Y368400D02*
D03*
Y374400D02*
D03*
X199160Y368400D02*
D03*
Y374400D02*
D03*
X276700Y368400D02*
D03*
Y374400D02*
D03*
X260470Y368400D02*
D03*
Y374400D02*
D03*
X204600Y368400D02*
D03*
Y374400D02*
D03*
X265880Y368400D02*
D03*
Y374400D02*
D03*
X255060D02*
D03*
Y368400D02*
D03*
X188280D02*
D03*
Y374400D02*
D03*
X193720Y368400D02*
D03*
Y374400D02*
D03*
X182840D02*
D03*
Y368400D02*
D03*
X127040D02*
D03*
Y374400D02*
D03*
X132400Y368400D02*
D03*
Y374400D02*
D03*
X116320Y368400D02*
D03*
Y374400D02*
D03*
X121680Y368400D02*
D03*
Y374400D02*
D03*
X110960D02*
D03*
Y368400D02*
D03*
X116750Y102300D02*
D03*
Y96300D02*
D03*
X122200Y102300D02*
D03*
Y96300D02*
D03*
X127700Y102300D02*
D03*
Y96300D02*
D03*
X25067Y222900D02*
D03*
Y228900D02*
D03*
X30533Y222900D02*
D03*
Y228900D02*
D03*
X36000Y222900D02*
D03*
Y228900D02*
D03*
X4800Y192600D02*
D03*
Y186600D02*
D03*
X11200Y202000D02*
D03*
Y208000D02*
D03*
X4800Y181100D02*
D03*
Y175100D02*
D03*
X20000Y208000D02*
D03*
Y202000D02*
D03*
X25067D02*
D03*
Y208000D02*
D03*
X30533Y202000D02*
D03*
Y208000D02*
D03*
X36000Y202000D02*
D03*
Y208000D02*
D03*
X96900Y213700D02*
D03*
Y207700D02*
D03*
X91400D02*
D03*
Y213700D02*
D03*
X213000Y94000D02*
D03*
Y100000D02*
D03*
X199500Y202000D02*
D03*
X187024Y122100D02*
D03*
Y116100D02*
D03*
X194000Y202000D02*
D03*
X192546Y122100D02*
D03*
Y116100D02*
D03*
X240800Y169500D02*
D03*
Y175500D02*
D03*
X202000Y100000D02*
D03*
Y94000D02*
D03*
X207500D02*
D03*
Y100000D02*
D03*
X240800Y164500D02*
D03*
Y158500D02*
D03*
X181501Y122100D02*
D03*
Y116100D02*
D03*
X175979Y122100D02*
D03*
Y116100D02*
D03*
X210500Y202000D02*
D03*
X216000D02*
D03*
X221500D02*
D03*
X172000D02*
D03*
X177500D02*
D03*
X183000D02*
D03*
X188500D02*
D03*
X229222Y122100D02*
D03*
Y116100D02*
D03*
X223700Y122100D02*
D03*
Y116100D02*
D03*
X164935Y122100D02*
D03*
Y116100D02*
D03*
X227000Y202000D02*
D03*
X170457Y122100D02*
D03*
Y116100D02*
D03*
X232500Y202000D02*
D03*
X218178Y122100D02*
D03*
Y116100D02*
D03*
X212656Y122100D02*
D03*
Y116100D02*
D03*
X122600Y43300D02*
D03*
Y37300D02*
D03*
X128000Y43300D02*
D03*
Y37300D02*
D03*
X171500Y62500D02*
D03*
Y68500D02*
D03*
X131214Y62500D02*
D03*
Y68500D02*
D03*
X151357D02*
D03*
Y62500D02*
D03*
X35060Y374400D02*
D03*
Y368400D02*
D03*
X40520D02*
D03*
Y374400D02*
D03*
X45980Y368400D02*
D03*
Y374400D02*
D03*
X51440Y368400D02*
D03*
Y374400D02*
D03*
X56900Y368400D02*
D03*
Y374400D02*
D03*
D12*
X315000Y221300D02*
D03*
X309000D02*
D03*
X296656Y268400D02*
D03*
X290656D02*
D03*
Y262948D02*
D03*
X296656D02*
D03*
X212300Y252043D02*
D03*
X218300D02*
D03*
Y257495D02*
D03*
X212300D02*
D03*
X148000Y268400D02*
D03*
X142000D02*
D03*
Y262948D02*
D03*
X148000D02*
D03*
X60350Y252043D02*
D03*
X66350D02*
D03*
Y257495D02*
D03*
X60350D02*
D03*
X290656Y299250D02*
D03*
X296656D02*
D03*
X290656Y293725D02*
D03*
X296656D02*
D03*
X290656Y288200D02*
D03*
X296656D02*
D03*
X218300D02*
D03*
X212300D02*
D03*
X218300Y293725D02*
D03*
X212300D02*
D03*
X218300Y299250D02*
D03*
X212300D02*
D03*
X142000D02*
D03*
X148000D02*
D03*
X142000Y293725D02*
D03*
X148000D02*
D03*
X142000Y288200D02*
D03*
X148000D02*
D03*
X66350D02*
D03*
X60350D02*
D03*
X66350Y293725D02*
D03*
X60350D02*
D03*
X66350Y299250D02*
D03*
X60350D02*
D03*
X290656Y257495D02*
D03*
X296656D02*
D03*
X290656Y252043D02*
D03*
X296656D02*
D03*
X218300Y262948D02*
D03*
X212300D02*
D03*
X218300Y268400D02*
D03*
X212300D02*
D03*
X142000Y257495D02*
D03*
X148000D02*
D03*
X142000Y252043D02*
D03*
X148000D02*
D03*
X66350Y262948D02*
D03*
X60350D02*
D03*
X66350Y268400D02*
D03*
X60350D02*
D03*
X77051Y165100D02*
D03*
X71051D02*
D03*
X77051Y159800D02*
D03*
X71051D02*
D03*
X77051Y154499D02*
D03*
X71051D02*
D03*
Y145200D02*
D03*
X77051D02*
D03*
X71051Y139900D02*
D03*
X77051D02*
D03*
X71051Y134599D02*
D03*
X77051D02*
D03*
X120000Y213692D02*
D03*
X114000D02*
D03*
X120000Y208192D02*
D03*
X114000D02*
D03*
Y202692D02*
D03*
X120000D02*
D03*
Y195192D02*
D03*
X114000D02*
D03*
Y184192D02*
D03*
X120000D02*
D03*
X114000Y189692D02*
D03*
X120000D02*
D03*
X114000Y178692D02*
D03*
X120000D02*
D03*
X240800Y143900D02*
D03*
X246800D02*
D03*
X240800Y149400D02*
D03*
X246800D02*
D03*
X159400Y161200D02*
D03*
X165400D02*
D03*
X159400Y166700D02*
D03*
X165400D02*
D03*
X159400Y172100D02*
D03*
X165400D02*
D03*
Y132100D02*
D03*
X159400D02*
D03*
Y177600D02*
D03*
X165400D02*
D03*
Y137600D02*
D03*
X159400D02*
D03*
X165400Y143100D02*
D03*
X159400D02*
D03*
X165400Y148600D02*
D03*
X159400D02*
D03*
X165400Y183000D02*
D03*
X159400D02*
D03*
X246800Y132270D02*
D03*
X240800D02*
D03*
X246800Y126770D02*
D03*
X240800D02*
D03*
X246800Y121270D02*
D03*
X240800D02*
D03*
X242500Y193000D02*
D03*
X248500D02*
D03*
X240800Y115770D02*
D03*
X246800D02*
D03*
X240800Y110270D02*
D03*
X246800D02*
D03*
X242500Y187500D02*
D03*
X248500D02*
D03*
X68800Y49000D02*
D03*
X62800D02*
D03*
X68700Y43500D02*
D03*
X62700D02*
D03*
X68794Y59950D02*
D03*
X62794D02*
D03*
X42000Y35900D02*
D03*
X36000D02*
D03*
X68900Y54500D02*
D03*
X62900D02*
D03*
D13*
X92400Y77500D02*
D03*
X181300Y287100D02*
D03*
X160500Y195700D02*
D03*
D14*
X319701Y319300D02*
D03*
X302299D02*
D03*
X266585D02*
D03*
X283987D02*
D03*
X195156D02*
D03*
X212558D02*
D03*
X248272D02*
D03*
X230870D02*
D03*
X212558Y338700D02*
D03*
X195156D02*
D03*
X230870D02*
D03*
X248272D02*
D03*
X302299D02*
D03*
X319701D02*
D03*
X283987D02*
D03*
X266585D02*
D03*
X105415Y319300D02*
D03*
X88013D02*
D03*
X52299D02*
D03*
X69701D02*
D03*
X176844D02*
D03*
X159442D02*
D03*
X123728D02*
D03*
X141130D02*
D03*
X88013Y338700D02*
D03*
X105415D02*
D03*
X69701D02*
D03*
X52299D02*
D03*
X159442D02*
D03*
X176844D02*
D03*
X141130D02*
D03*
X123728D02*
D03*
X109801Y134800D02*
D03*
X92399D02*
D03*
D15*
X255500Y276200D02*
D03*
X104850D02*
D03*
D16*
X282000Y298700D02*
D03*
Y293700D02*
D03*
Y288700D02*
D03*
Y283700D02*
D03*
Y278700D02*
D03*
Y273700D02*
D03*
Y268700D02*
D03*
Y263700D02*
D03*
Y258700D02*
D03*
Y253700D02*
D03*
X229000D02*
D03*
Y258700D02*
D03*
Y263700D02*
D03*
Y268700D02*
D03*
Y273700D02*
D03*
Y278700D02*
D03*
Y283700D02*
D03*
Y288700D02*
D03*
Y293700D02*
D03*
Y298700D02*
D03*
X131350D02*
D03*
Y293700D02*
D03*
Y288700D02*
D03*
Y283700D02*
D03*
Y278700D02*
D03*
Y273700D02*
D03*
Y268700D02*
D03*
Y263700D02*
D03*
Y258700D02*
D03*
Y253700D02*
D03*
X78350D02*
D03*
Y258700D02*
D03*
Y263700D02*
D03*
Y268700D02*
D03*
Y273700D02*
D03*
Y278700D02*
D03*
Y283700D02*
D03*
Y288700D02*
D03*
Y293700D02*
D03*
Y298700D02*
D03*
D17*
X314500Y265500D02*
D03*
Y244500D02*
D03*
X194600Y269500D02*
D03*
Y248500D02*
D03*
X164700Y269400D02*
D03*
Y248400D02*
D03*
X73700Y117600D02*
D03*
Y96600D02*
D03*
X100200Y117300D02*
D03*
Y96300D02*
D03*
D18*
X38500Y258400D02*
D03*
X17500D02*
D03*
X50400Y224100D02*
D03*
X71400D02*
D03*
D19*
X78000Y200701D02*
D03*
Y183299D02*
D03*
D20*
X14840Y191000D02*
D03*
Y186000D02*
D03*
Y181000D02*
D03*
Y176000D02*
D03*
X36100Y191000D02*
D03*
Y186000D02*
D03*
Y181000D02*
D03*
Y176000D02*
D03*
D21*
X106584Y199849D02*
D03*
X101584D02*
D03*
X96584D02*
D03*
X91584D02*
D03*
X106584Y178589D02*
D03*
X101584D02*
D03*
X96584D02*
D03*
X91584D02*
D03*
D22*
X85780Y155000D02*
D03*
X108220D02*
D03*
D23*
X206000Y121200D02*
D03*
Y109200D02*
D03*
D24*
X251000Y158000D02*
D03*
Y175000D02*
D03*
D25*
X205283Y70811D02*
D03*
Y47189D02*
D03*
X190717Y70811D02*
D03*
Y47189D02*
D03*
D26*
X237500Y221400D02*
D03*
X249500D02*
D03*
D27*
X154650Y154900D02*
D03*
X164650D02*
D03*
D28*
X182029Y174747D02*
D03*
Y171598D02*
D03*
Y168448D02*
D03*
Y165298D02*
D03*
Y162149D02*
D03*
Y158999D02*
D03*
Y155850D02*
D03*
Y152700D02*
D03*
Y149550D02*
D03*
Y146401D02*
D03*
Y143251D02*
D03*
X225100Y143251D02*
D03*
Y146401D02*
D03*
Y149550D02*
D03*
Y152700D02*
D03*
Y155850D02*
D03*
Y158999D02*
D03*
Y162149D02*
D03*
Y165298D02*
D03*
Y168448D02*
D03*
Y171598D02*
D03*
Y174747D02*
D03*
D29*
X187817Y137464D02*
D03*
X190966D02*
D03*
X194116D02*
D03*
X197265D02*
D03*
X200415D02*
D03*
X203565D02*
D03*
X206714D02*
D03*
X209864D02*
D03*
X213013D02*
D03*
X216163D02*
D03*
X219313D02*
D03*
X219313Y180535D02*
D03*
X216163D02*
D03*
X213013D02*
D03*
X209864D02*
D03*
X206714D02*
D03*
X203565D02*
D03*
X200415D02*
D03*
X197265D02*
D03*
X194116D02*
D03*
X190966D02*
D03*
X187817D02*
D03*
D30*
X56000Y178780D02*
D03*
Y201220D02*
D03*
D31*
X108272Y31766D02*
D03*
Y34325D02*
D03*
Y36884D02*
D03*
Y39443D02*
D03*
Y42002D02*
D03*
Y44561D02*
D03*
Y47120D02*
D03*
Y49680D02*
D03*
Y52239D02*
D03*
Y54798D02*
D03*
Y57357D02*
D03*
Y59916D02*
D03*
Y62475D02*
D03*
Y65034D02*
D03*
X79728D02*
D03*
Y62475D02*
D03*
Y59916D02*
D03*
Y57357D02*
D03*
Y54798D02*
D03*
Y52239D02*
D03*
Y49680D02*
D03*
Y47120D02*
D03*
Y44561D02*
D03*
Y42002D02*
D03*
Y39443D02*
D03*
Y36884D02*
D03*
Y34325D02*
D03*
Y31766D02*
D03*
D36*
X36700Y356100D02*
D03*
X335800Y90300D02*
D03*
Y207500D02*
D03*
X222300Y220300D02*
D03*
X256300Y356100D02*
D03*
X183300D02*
D03*
X111800D02*
D03*
X123000Y86500D02*
D03*
D37*
X46700Y356100D02*
D03*
X56700D02*
D03*
X66700D02*
D03*
X76700D02*
D03*
X86700D02*
D03*
X345800Y90300D02*
D03*
X355800D02*
D03*
X365800D02*
D03*
Y100300D02*
D03*
X355800D02*
D03*
X345800D02*
D03*
X335800D02*
D03*
X345800Y207500D02*
D03*
X355800D02*
D03*
X365800D02*
D03*
Y217500D02*
D03*
X355800D02*
D03*
X345800D02*
D03*
X335800D02*
D03*
X224000Y24000D02*
D03*
Y34000D02*
D03*
Y44000D02*
D03*
Y54000D02*
D03*
Y64000D02*
D03*
X212300Y220300D02*
D03*
X202300D02*
D03*
X192300D02*
D03*
X182300D02*
D03*
X172300D02*
D03*
X266300Y356100D02*
D03*
X276300D02*
D03*
X286300D02*
D03*
X296300D02*
D03*
X306300D02*
D03*
X193300D02*
D03*
X203300D02*
D03*
X213300D02*
D03*
X223300D02*
D03*
X233300D02*
D03*
X121800D02*
D03*
X131800D02*
D03*
X141800D02*
D03*
X151800D02*
D03*
X161800D02*
D03*
X133000Y86500D02*
D03*
X143000D02*
D03*
X153000D02*
D03*
X163000D02*
D03*
X173000D02*
D03*
D38*
X379000Y391000D02*
D03*
X16000D02*
D03*
Y28000D02*
D03*
X379000D02*
D03*
D39*
X224000Y74000D02*
D03*
D40*
X217610Y378600D02*
D03*
X290610D02*
D03*
X70820D02*
D03*
X146110D02*
D03*
D41*
X231390D02*
D03*
X304390D02*
D03*
X84600D02*
D03*
X159890D02*
D03*
D42*
X36100Y128800D02*
D03*
D43*
X48600Y148300D02*
D03*
X24100D02*
D03*
D44*
X268000Y176000D02*
D03*
Y157000D02*
D03*
D45*
X35700Y51534D02*
D03*
Y103266D02*
D03*
D46*
X46369Y63620D02*
D03*
Y73463D02*
D03*
Y81337D02*
D03*
Y91180D02*
D03*
M02*
