G04 Layer_Color=8388736*
%FSLAX25Y25*%
%MOIN*%
G70*
G01*
G75*
%ADD33C,0.01000*%
%ADD54C,0.00500*%
%ADD55C,0.00800*%
%ADD94R,0.08000X0.05000*%
%ADD95R,0.05100X0.01400*%
D33*
X-4418Y106534D02*
X51881D01*
Y48266D02*
Y106534D01*
X-4418Y48266D02*
X51881D01*
D54*
X108811Y145157D02*
Y161693D01*
X85189Y145157D02*
Y164843D01*
X108811Y161693D02*
Y164843D01*
X208600Y108600D02*
Y121800D01*
X203400Y108600D02*
X208600D01*
X203400D02*
Y121800D01*
X208600D01*
X187764Y64645D02*
X192355Y69236D01*
X187764Y53505D02*
X192505Y48764D01*
X203747D02*
X208236Y53253D01*
X203782Y69236D02*
X208236Y64782D01*
X236900Y224000D02*
X250100D01*
Y218800D02*
Y224000D01*
X236900Y218800D02*
X250100D01*
X236900D02*
Y224000D01*
X49307Y201811D02*
X65843D01*
X46157Y178189D02*
X65843D01*
X46157Y201811D02*
X49307D01*
D55*
X319504Y312292D02*
Y326308D01*
X302496Y312292D02*
Y326308D01*
X266782Y312292D02*
Y326308D01*
X283790Y312292D02*
Y326308D01*
X195353Y312292D02*
Y326308D01*
X212361Y312292D02*
Y326308D01*
X248075Y312292D02*
Y326308D01*
X231067Y312292D02*
Y326308D01*
X212361Y331692D02*
Y345708D01*
X195353Y331692D02*
Y345708D01*
X231067Y331692D02*
Y345708D01*
X248075Y331692D02*
Y345708D01*
X302496Y331692D02*
Y345708D01*
X319504Y331692D02*
Y345708D01*
X283790Y331692D02*
Y345708D01*
X266782Y331692D02*
Y345708D01*
X105218Y312292D02*
Y326308D01*
X88210Y312292D02*
Y326308D01*
X52496Y312292D02*
Y326308D01*
X69504Y312292D02*
Y326308D01*
X176647Y312292D02*
Y326308D01*
X159639Y312292D02*
Y326308D01*
X123925Y312292D02*
Y326308D01*
X140933Y312292D02*
Y326308D01*
X88210Y331692D02*
Y345708D01*
X105218Y331692D02*
Y345708D01*
X69504Y331692D02*
Y345708D01*
X52496Y331692D02*
Y345708D01*
X159639Y331692D02*
Y345708D01*
X176647Y331692D02*
Y345708D01*
X140933Y331692D02*
Y345708D01*
X123925Y331692D02*
Y345708D01*
X70992Y200504D02*
X85008D01*
X70992Y183496D02*
X85008D01*
X109604Y127792D02*
Y141808D01*
X92596Y127792D02*
Y141808D01*
D94*
X251000Y159001D02*
D03*
Y174001D02*
D03*
D95*
X106950Y31766D02*
D03*
Y34325D02*
D03*
Y36884D02*
D03*
Y39443D02*
D03*
Y42002D02*
D03*
Y44561D02*
D03*
Y47120D02*
D03*
Y49680D02*
D03*
Y52239D02*
D03*
Y54798D02*
D03*
Y57357D02*
D03*
Y59916D02*
D03*
Y62475D02*
D03*
Y65034D02*
D03*
X81050D02*
D03*
Y62475D02*
D03*
Y59916D02*
D03*
Y57357D02*
D03*
Y54798D02*
D03*
Y52239D02*
D03*
Y49680D02*
D03*
Y47120D02*
D03*
Y44561D02*
D03*
Y42002D02*
D03*
Y39443D02*
D03*
Y36884D02*
D03*
Y34325D02*
D03*
Y31766D02*
D03*
M02*
