G04 Layer_Color=2752767*
%FSLAX25Y25*%
%MOIN*%
G70*
G01*
G75*
%ADD96C,0.00200*%
%ADD97C,0.00267*%
%ADD98C,0.00133*%
D96*
X35900Y355300D02*
Y356900D01*
X37500D01*
Y355300D01*
X35900D01*
X45900D02*
Y356900D01*
X47500D01*
Y355300D01*
X45900D01*
X55900D02*
Y356900D01*
X57500D01*
Y355300D01*
X55900D01*
X65900D02*
Y356900D01*
X67500D01*
Y355300D01*
X65900D01*
X75900D02*
Y356900D01*
X77500D01*
Y355300D01*
X75900D01*
X85900D02*
Y356900D01*
X87500D01*
Y355300D01*
X85900D01*
X379000Y390200D02*
X378200Y391800D01*
X379800D01*
X379000Y390200D01*
X16000D02*
X15200Y391800D01*
X16800D01*
X16000Y390200D01*
Y27200D02*
X15200Y28800D01*
X16800D01*
X16000Y27200D01*
X379000D02*
X378200Y28800D01*
X379800D01*
X379000Y27200D01*
X223200Y23200D02*
Y24800D01*
X224800D01*
Y23200D01*
X223200D01*
Y33200D02*
Y34800D01*
X224800D01*
Y33200D01*
X223200D01*
Y43200D02*
Y44800D01*
X224800D01*
Y43200D01*
X223200D01*
Y53200D02*
Y54800D01*
X224800D01*
Y53200D01*
X223200D01*
Y63200D02*
Y64800D01*
X224800D01*
Y63200D01*
X223200D01*
Y73200D02*
Y74800D01*
X224800D01*
Y73200D01*
X223200D01*
X217610Y377800D02*
X218010Y378200D01*
X218410D01*
X218010Y378600D01*
X218410Y379000D01*
X218010D01*
X217610Y379400D01*
X217210Y379000D01*
X216810D01*
X217210Y378600D01*
X216810Y378200D01*
X217210D01*
X217610Y377800D01*
X231390D02*
X231790Y378200D01*
X232190D01*
X231790Y378600D01*
X232190Y379000D01*
X231790D01*
X231390Y379400D01*
X230990Y379000D01*
X230590D01*
X230990Y378600D01*
X230590Y378200D01*
X230990D01*
X231390Y377800D01*
X290610D02*
X291010Y378200D01*
X291410D01*
X291010Y378600D01*
X291410Y379000D01*
X291010D01*
X290610Y379400D01*
X290210Y379000D01*
X289810D01*
X290210Y378600D01*
X289810Y378200D01*
X290210D01*
X290610Y377800D01*
X304390D02*
X304790Y378200D01*
X305190D01*
X304790Y378600D01*
X305190Y379000D01*
X304790D01*
X304390Y379400D01*
X303990Y379000D01*
X303590D01*
X303990Y378600D01*
X303590Y378200D01*
X303990D01*
X304390Y377800D01*
X70820D02*
X71220Y378200D01*
X71620D01*
X71220Y378600D01*
X71620Y379000D01*
X71220D01*
X70820Y379400D01*
X70420Y379000D01*
X70020D01*
X70420Y378600D01*
X70020Y378200D01*
X70420D01*
X70820Y377800D01*
X84600D02*
X85000Y378200D01*
X85400D01*
X85000Y378600D01*
X85400Y379000D01*
X85000D01*
X84600Y379400D01*
X84200Y379000D01*
X83800D01*
X84200Y378600D01*
X83800Y378200D01*
X84200D01*
X84600Y377800D01*
X146110D02*
X146510Y378200D01*
X146910D01*
X146510Y378600D01*
X146910Y379000D01*
X146510D01*
X146110Y379400D01*
X145710Y379000D01*
X145310D01*
X145710Y378600D01*
X145310Y378200D01*
X145710D01*
X146110Y377800D01*
X159890D02*
X160290Y378200D01*
X160690D01*
X160290Y378600D01*
X160690Y379000D01*
X160290D01*
X159890Y379400D01*
X159490Y379000D01*
X159090D01*
X159490Y378600D01*
X159090Y378200D01*
X159490D01*
X159890Y377800D01*
X35300Y128000D02*
X35700Y128800D01*
X35300Y129600D01*
X36100Y129200D01*
X36900Y129600D01*
X36500Y128800D01*
X36900Y128000D01*
X36100Y128400D01*
X35300Y128000D01*
X47800Y147500D02*
X48200Y148300D01*
X47800Y149100D01*
X48600Y148700D01*
X49400Y149100D01*
X49000Y148300D01*
X49400Y147500D01*
X48600Y147900D01*
X47800Y147500D01*
X23300D02*
X23700Y148300D01*
X23300Y149100D01*
X24100Y148700D01*
X24900Y149100D01*
X24500Y148300D01*
X24900Y147500D01*
X24100Y147900D01*
X23300Y147500D01*
X267600Y175600D02*
Y175200D01*
X268400D01*
Y175600D01*
X268800D01*
Y176400D01*
X268400D01*
Y176800D01*
X267600D01*
Y176400D01*
X267200D01*
Y175600D01*
X267600D01*
Y156600D02*
Y156200D01*
X268400D01*
Y156600D01*
X268800D01*
Y157400D01*
X268400D01*
Y157800D01*
X267600D01*
Y157400D01*
X267200D01*
Y156600D01*
X267600D01*
X221500Y219500D02*
Y221100D01*
X223100D01*
Y219500D01*
X221500D01*
X211500D02*
Y221100D01*
X213100D01*
Y219500D01*
X211500D01*
X201500D02*
Y221100D01*
X203100D01*
Y219500D01*
X201500D01*
X191500D02*
Y221100D01*
X193100D01*
Y219500D01*
X191500D01*
X181500D02*
Y221100D01*
X183100D01*
Y219500D01*
X181500D01*
X171500D02*
Y221100D01*
X173100D01*
Y219500D01*
X171500D01*
X34900Y50734D02*
X35300D01*
X35700Y51134D01*
X36100Y50734D01*
X36500D01*
Y51134D01*
X36100Y51534D01*
X36500Y51934D01*
Y52334D01*
X36100D01*
X35700Y51934D01*
X35300Y52334D01*
X34900D01*
Y51934D01*
X35300Y51534D01*
X34900Y51134D01*
Y50734D01*
Y102466D02*
X35300D01*
X35700Y102866D01*
X36100Y102466D01*
X36500D01*
Y102866D01*
X36100Y103266D01*
X36500Y103666D01*
Y104066D01*
X36100D01*
X35700Y103666D01*
X35300Y104066D01*
X34900D01*
Y103666D01*
X35300Y103266D01*
X34900Y102866D01*
Y102466D01*
X45569Y63620D02*
X46369Y64420D01*
X47169Y63620D01*
X46369Y62820D01*
X45569Y63620D01*
Y73463D02*
X46369Y74263D01*
X47169Y73463D01*
X46369Y72663D01*
X45569Y73463D01*
Y81337D02*
X46369Y82137D01*
X47169Y81337D01*
X46369Y80537D01*
X45569Y81337D01*
Y91180D02*
X46369Y91980D01*
X47169Y91180D01*
X46369Y90380D01*
X45569Y91180D01*
X255500Y355300D02*
Y356900D01*
X257100D01*
Y355300D01*
X255500D01*
X265500D02*
Y356900D01*
X267100D01*
Y355300D01*
X265500D01*
X275500D02*
Y356900D01*
X277100D01*
Y355300D01*
X275500D01*
X285500D02*
Y356900D01*
X287100D01*
Y355300D01*
X285500D01*
X295500D02*
Y356900D01*
X297100D01*
Y355300D01*
X295500D01*
X305500D02*
Y356900D01*
X307100D01*
Y355300D01*
X305500D01*
X182500D02*
Y356900D01*
X184100D01*
Y355300D01*
X182500D01*
X192500D02*
Y356900D01*
X194100D01*
Y355300D01*
X192500D01*
X202500D02*
Y356900D01*
X204100D01*
Y355300D01*
X202500D01*
X212500D02*
Y356900D01*
X214100D01*
Y355300D01*
X212500D01*
X222500D02*
Y356900D01*
X224100D01*
Y355300D01*
X222500D01*
X232500D02*
Y356900D01*
X234100D01*
Y355300D01*
X232500D01*
X111000D02*
Y356900D01*
X112600D01*
Y355300D01*
X111000D01*
X121000D02*
Y356900D01*
X122600D01*
Y355300D01*
X121000D01*
X131000D02*
Y356900D01*
X132600D01*
Y355300D01*
X131000D01*
X141000D02*
Y356900D01*
X142600D01*
Y355300D01*
X141000D01*
X151000D02*
Y356900D01*
X152600D01*
Y355300D01*
X151000D01*
X161000D02*
Y356900D01*
X162600D01*
Y355300D01*
X161000D01*
X122200Y85700D02*
Y87300D01*
X123800D01*
Y85700D01*
X122200D01*
X132200D02*
Y87300D01*
X133800D01*
Y85700D01*
X132200D01*
X142200D02*
Y87300D01*
X143800D01*
Y85700D01*
X142200D01*
X152200D02*
Y87300D01*
X153800D01*
Y85700D01*
X152200D01*
X162200D02*
Y87300D01*
X163800D01*
Y85700D01*
X162200D01*
X172200D02*
Y87300D01*
X173800D01*
Y85700D01*
X172200D01*
X126639Y362950D02*
Y364550D01*
X128240D01*
Y362950D01*
X126639D01*
X127040Y363350D02*
Y364150D01*
X127840D01*
Y363350D01*
X127040D01*
X50819Y362999D02*
Y364599D01*
X52419D01*
Y362999D01*
X50819D01*
X51219Y363399D02*
Y364199D01*
X52019D01*
Y363399D01*
X51219D01*
X162400Y221500D02*
Y223100D01*
X164000D01*
Y221500D01*
X162400D01*
X162800Y221900D02*
Y222700D01*
X163600D01*
Y221900D01*
X162800D01*
X39800Y190200D02*
Y191800D01*
X41400D01*
Y190200D01*
X39800D01*
X40200Y190600D02*
Y191400D01*
X41000D01*
Y190600D01*
X40200D01*
X8100Y191100D02*
Y192700D01*
X9700D01*
Y191100D01*
X8100D01*
X8500Y191500D02*
Y192300D01*
X9300D01*
Y191500D01*
X8500D01*
X5900Y201200D02*
Y202800D01*
X7500D01*
Y201200D01*
X5900D01*
X6300Y201600D02*
Y202400D01*
X7100D01*
Y201600D01*
X6300D01*
X111450Y95500D02*
Y97100D01*
X113050D01*
Y95500D01*
X111450D01*
X111850Y95900D02*
Y96700D01*
X112650D01*
Y95900D01*
X111850D01*
X217378Y110800D02*
Y112400D01*
X218978D01*
Y110800D01*
X217378D01*
X217778Y111200D02*
Y112000D01*
X218578D01*
Y111200D01*
X217778D01*
X211722Y110800D02*
Y112400D01*
X213322D01*
Y110800D01*
X211722D01*
X212122Y111200D02*
Y112000D01*
X212922D01*
Y111200D01*
X212122D01*
X130414Y57200D02*
Y58800D01*
X132014D01*
Y57200D01*
X130414D01*
X130814Y57600D02*
Y58400D01*
X131614D01*
Y57600D01*
X130814D01*
X186246Y110800D02*
Y112400D01*
X187846D01*
Y110800D01*
X186246D01*
X186646Y111200D02*
Y112000D01*
X187446D01*
Y111200D01*
X186646D01*
X118658Y217700D02*
Y219300D01*
X120258D01*
Y217700D01*
X118658D01*
X119058Y218100D02*
Y218900D01*
X119858D01*
Y218100D01*
X119058D01*
X117700Y173200D02*
Y174800D01*
X119300D01*
Y173200D01*
X117700D01*
X118100Y173600D02*
Y174400D01*
X118900D01*
Y173600D01*
X118100D01*
X122449Y169575D02*
Y171175D01*
X124049D01*
Y169575D01*
X122449D01*
X122849Y169975D02*
Y170775D01*
X123649D01*
Y169975D01*
X122849D01*
X154249Y182200D02*
Y183800D01*
X155849D01*
Y182200D01*
X154249D01*
X154649Y182600D02*
Y183400D01*
X155449D01*
Y182600D01*
X154649D01*
X243200Y253300D02*
Y254900D01*
X244800D01*
Y253300D01*
X243200D01*
X243600Y253700D02*
Y254500D01*
X244400D01*
Y253700D01*
X243600D01*
X265700Y253300D02*
Y254900D01*
X267300D01*
Y253300D01*
X265700D01*
X266100Y253700D02*
Y254500D01*
X266900D01*
Y253700D01*
X266100D01*
X258200Y253300D02*
Y254900D01*
X259800D01*
Y253300D01*
X258200D01*
X258600Y253700D02*
Y254500D01*
X259400D01*
Y253700D01*
X258600D01*
X250700Y253300D02*
Y254900D01*
X252300D01*
Y253300D01*
X250700D01*
X251100Y253700D02*
Y254500D01*
X251900D01*
Y253700D01*
X251100D01*
X266950Y297250D02*
Y298850D01*
X268550D01*
Y297250D01*
X266950D01*
X267350Y297650D02*
Y298450D01*
X268150D01*
Y297650D01*
X267350D01*
X259450Y297250D02*
Y298850D01*
X261050D01*
Y297250D01*
X259450D01*
X259850Y297650D02*
Y298450D01*
X260650D01*
Y297650D01*
X259850D01*
X251950Y297250D02*
Y298850D01*
X253550D01*
Y297250D01*
X251950D01*
X252350Y297650D02*
Y298450D01*
X253150D01*
Y297650D01*
X252350D01*
X244450Y297250D02*
Y298850D01*
X246050D01*
Y297250D01*
X244450D01*
X244850Y297650D02*
Y298450D01*
X245650D01*
Y297650D01*
X244850D01*
X281300Y303500D02*
Y305100D01*
X282900D01*
Y303500D01*
X281300D01*
X281700Y303900D02*
Y304700D01*
X282500D01*
Y303900D01*
X281700D01*
X222600Y298000D02*
Y299600D01*
X224200D01*
Y298000D01*
X222600D01*
X223000Y298400D02*
Y299200D01*
X223800D01*
Y298400D01*
X223000D01*
X136150Y297800D02*
Y299400D01*
X137750D01*
Y297800D01*
X136150D01*
X136550Y298200D02*
Y299000D01*
X137350D01*
Y298200D01*
X136550D01*
X143843Y57543D02*
Y59143D01*
X145443D01*
Y57543D01*
X143843D01*
X144243Y57943D02*
Y58743D01*
X145043D01*
Y57943D01*
X144243D01*
X213200Y48800D02*
Y50400D01*
X214800D01*
Y48800D01*
X213200D01*
X213600Y49200D02*
Y50000D01*
X214400D01*
Y49200D01*
X213600D01*
X323800Y215100D02*
Y216700D01*
X325400D01*
Y215100D01*
X323800D01*
X324200Y215500D02*
Y216300D01*
X325000D01*
Y215500D01*
X324200D01*
X286600Y234300D02*
Y235900D01*
X288200D01*
Y234300D01*
X286600D01*
X287000Y234700D02*
Y235500D01*
X287800D01*
Y234700D01*
X287000D01*
X45850Y35100D02*
Y36700D01*
X47450D01*
Y35100D01*
X45850D01*
X46250Y35500D02*
Y36299D01*
X47050D01*
Y35500D01*
X46250D01*
X170700Y57200D02*
Y58800D01*
X172300D01*
Y57200D01*
X170700D01*
X171100Y57600D02*
Y58400D01*
X171900D01*
Y57600D01*
X171100D01*
X123800Y57006D02*
Y58606D01*
X125400D01*
Y57006D01*
X123800D01*
X124200Y57406D02*
Y58206D01*
X125000D01*
Y57406D01*
X124200D01*
X302600Y220500D02*
Y222100D01*
X304200D01*
Y220500D01*
X302600D01*
X303000Y220900D02*
Y221700D01*
X303800D01*
Y220900D01*
X303000D01*
X223500Y248200D02*
Y249800D01*
X225100D01*
Y248200D01*
X223500D01*
X223900Y248600D02*
Y249400D01*
X224700D01*
Y248600D01*
X223900D01*
X231700Y205300D02*
Y206900D01*
X233300D01*
Y205300D01*
X231700D01*
X232100Y205700D02*
Y206500D01*
X232900D01*
Y205700D01*
X232100D01*
X226200Y205600D02*
Y207200D01*
X227800D01*
Y205600D01*
X226200D01*
X226600Y206000D02*
Y206800D01*
X227400D01*
Y206000D01*
X226600D01*
X273200Y216800D02*
Y218400D01*
X274800D01*
Y216800D01*
X273200D01*
X273600Y217200D02*
Y218000D01*
X274400D01*
Y217200D01*
X273600D01*
X273000Y201400D02*
Y203000D01*
X274600D01*
Y201400D01*
X273000D01*
X273400Y201800D02*
Y202600D01*
X274200D01*
Y201800D01*
X273400D01*
X271100Y238200D02*
Y239800D01*
X272700D01*
Y238200D01*
X271100D01*
X271500Y238600D02*
Y239400D01*
X272300D01*
Y238600D01*
X271500D01*
X268300Y234300D02*
Y235900D01*
X269900D01*
Y234300D01*
X268300D01*
X268700Y234700D02*
Y235500D01*
X269500D01*
Y234700D01*
X268700D01*
X191746Y110800D02*
Y112400D01*
X193346D01*
Y110800D01*
X191746D01*
X192146Y111200D02*
Y112000D01*
X192946D01*
Y111200D01*
X192146D01*
X155200Y113200D02*
Y114800D01*
X156800D01*
Y113200D01*
X155200D01*
X155600Y113600D02*
Y114400D01*
X156400D01*
Y113600D01*
X155600D01*
X181200Y103200D02*
Y104800D01*
X182800D01*
Y103200D01*
X181200D01*
X181600Y103600D02*
Y104400D01*
X182400D01*
Y103600D01*
X181600D01*
X107700Y212700D02*
Y214300D01*
X109300D01*
Y212700D01*
X107700D01*
X108100Y213100D02*
Y213900D01*
X108900D01*
Y213100D01*
X108100D01*
X71700Y249200D02*
Y250800D01*
X73300D01*
Y249200D01*
X71700D01*
X72100Y249600D02*
Y250400D01*
X72900D01*
Y249600D01*
X72100D01*
X69650Y269200D02*
Y270800D01*
X71250D01*
Y269200D01*
X69650D01*
X70050Y269600D02*
Y270400D01*
X70850D01*
Y269600D01*
X70050D01*
X192879Y378249D02*
Y379849D01*
X194480D01*
Y378249D01*
X192879D01*
X193280Y378649D02*
Y379449D01*
X194079D01*
Y378649D01*
X193280D01*
X70200Y292924D02*
Y294525D01*
X71800D01*
Y292924D01*
X70200D01*
X70600Y293324D02*
Y294125D01*
X71400D01*
Y293324D01*
X70600D01*
X250500Y120470D02*
Y122070D01*
X252100D01*
Y120470D01*
X250500D01*
X250900Y120870D02*
Y121670D01*
X251700D01*
Y120870D01*
X250900D01*
X136700Y292925D02*
Y294525D01*
X138300D01*
Y292925D01*
X136700D01*
X137100Y293325D02*
Y294125D01*
X137900D01*
Y293325D01*
X137100D01*
X250500Y125970D02*
Y127570D01*
X252100D01*
Y125970D01*
X250500D01*
X250900Y126370D02*
Y127170D01*
X251700D01*
Y126370D01*
X250900D01*
X275900Y378100D02*
Y379700D01*
X277500D01*
Y378100D01*
X275900D01*
X276300Y378500D02*
Y379300D01*
X277100D01*
Y378500D01*
X276300D01*
X252200Y186700D02*
Y188300D01*
X253800D01*
Y186700D01*
X252200D01*
X252600Y187100D02*
Y187900D01*
X253400D01*
Y187100D01*
X252600D01*
X264980Y378249D02*
Y379849D01*
X266580D01*
Y378249D01*
X264980D01*
X265380Y378649D02*
Y379449D01*
X266179D01*
Y378649D01*
X265380D01*
X252200Y192200D02*
Y193800D01*
X253800D01*
Y192200D01*
X252200D01*
X252600Y192600D02*
Y193400D01*
X253400D01*
Y192600D01*
X252600D01*
X174200Y239200D02*
Y240800D01*
X175800D01*
Y239200D01*
X174200D01*
X174600Y239600D02*
Y240400D01*
X175400D01*
Y239600D01*
X174600D01*
X235800Y241400D02*
Y243000D01*
X237400D01*
Y241400D01*
X235800D01*
X236200Y241800D02*
Y242600D01*
X237000D01*
Y241800D01*
X236200D01*
X203800Y378100D02*
Y379700D01*
X205400D01*
Y378100D01*
X203800D01*
X204200Y378500D02*
Y379300D01*
X205000D01*
Y378500D01*
X204200D01*
X205914Y127700D02*
Y129300D01*
X207514D01*
Y127700D01*
X205914D01*
X206314Y128100D02*
Y128900D01*
X207114D01*
Y128100D01*
X206314D01*
X270690Y362950D02*
Y364550D01*
X272289D01*
Y362950D01*
X270690D01*
X271090Y363350D02*
Y364150D01*
X271889D01*
Y363350D01*
X271090D01*
X198440Y362950D02*
Y364550D01*
X200040D01*
Y362950D01*
X198440D01*
X198839Y363350D02*
Y364150D01*
X199639D01*
Y363350D01*
X198839D01*
X55050Y256695D02*
Y258295D01*
X56650D01*
Y256695D01*
X55050D01*
X55450Y257095D02*
Y257895D01*
X56250D01*
Y257095D01*
X55450D01*
X207000Y251243D02*
Y252843D01*
X208600D01*
Y251243D01*
X207000D01*
X207400Y251643D02*
Y252443D01*
X208200D01*
Y251643D01*
X207400D01*
X207000Y256695D02*
Y258295D01*
X208600D01*
Y256695D01*
X207000D01*
X207400Y257095D02*
Y257895D01*
X208200D01*
Y257095D01*
X207400D01*
X207000Y267600D02*
Y269200D01*
X208600D01*
Y267600D01*
X207000D01*
X207400Y268000D02*
Y268800D01*
X208200D01*
Y268000D01*
X207400D01*
X206806Y262048D02*
Y263648D01*
X208406D01*
Y262048D01*
X206806D01*
X207206Y262448D02*
Y263248D01*
X208006D01*
Y262448D01*
X207206D01*
X206851Y287400D02*
Y289000D01*
X208451D01*
Y287400D01*
X206851D01*
X207251Y287800D02*
Y288599D01*
X208051D01*
Y287800D01*
X207251D01*
X206851Y292924D02*
Y294525D01*
X208451D01*
Y292924D01*
X206851D01*
X207251Y293324D02*
Y294125D01*
X208051D01*
Y293324D01*
X207251D01*
X207000Y298450D02*
Y300050D01*
X208600D01*
Y298450D01*
X207000D01*
X207400Y298850D02*
Y299650D01*
X208200D01*
Y298850D01*
X207400D01*
X151700Y287400D02*
Y289000D01*
X153300D01*
Y287400D01*
X151700D01*
X152100Y287800D02*
Y288600D01*
X152900D01*
Y287800D01*
X152100D01*
X151700Y292925D02*
Y294525D01*
X153300D01*
Y292925D01*
X151700D01*
X152100Y293325D02*
Y294125D01*
X152900D01*
Y293325D01*
X152100D01*
X151849Y298450D02*
Y300050D01*
X153449D01*
Y298450D01*
X151849D01*
X152249Y298850D02*
Y299650D01*
X153049D01*
Y298850D01*
X152249D01*
X54901Y292924D02*
Y294525D01*
X56501D01*
Y292924D01*
X54901D01*
X55301Y293324D02*
Y294125D01*
X56101D01*
Y293324D01*
X55301D01*
X54901Y298449D02*
Y300049D01*
X56501D01*
Y298449D01*
X54901D01*
X55301Y298850D02*
Y299650D01*
X56101D01*
Y298850D01*
X55301D01*
X250500Y143100D02*
Y144700D01*
X252100D01*
Y143100D01*
X250500D01*
X250900Y143500D02*
Y144300D01*
X251700D01*
Y143500D01*
X250900D01*
X250500Y148600D02*
Y150200D01*
X252100D01*
Y148600D01*
X250500D01*
X250900Y149000D02*
Y149800D01*
X251700D01*
Y149000D01*
X250900D01*
X187545Y205551D02*
Y207151D01*
X189145D01*
Y205551D01*
X187545D01*
X187945Y205951D02*
Y206751D01*
X188745D01*
Y205951D01*
X187945D01*
X182045Y205551D02*
Y207151D01*
X183645D01*
Y205551D01*
X182045D01*
X182445Y205951D02*
Y206751D01*
X183245D01*
Y205951D01*
X182445D01*
X198700Y205551D02*
Y207151D01*
X200301D01*
Y205551D01*
X198700D01*
X199100Y205951D02*
Y206751D01*
X199900D01*
Y205951D01*
X199100D01*
X193201Y205551D02*
Y207151D01*
X194800D01*
Y205551D01*
X193201D01*
X193600Y205951D02*
Y206751D01*
X194401D01*
Y205951D01*
X193600D01*
X154249Y160201D02*
Y161801D01*
X155849D01*
Y160201D01*
X154249D01*
X154649Y160600D02*
Y161400D01*
X155449D01*
Y160600D01*
X154649D01*
X171200Y205700D02*
Y207300D01*
X172800D01*
Y205700D01*
X171200D01*
X171600Y206100D02*
Y206900D01*
X172400D01*
Y206100D01*
X171600D01*
X148200Y154200D02*
Y155800D01*
X149800D01*
Y154200D01*
X148200D01*
X148600Y154600D02*
Y155400D01*
X149400D01*
Y154600D01*
X148600D01*
X233700Y171200D02*
Y172800D01*
X235300D01*
Y171200D01*
X233700D01*
X234100Y171600D02*
Y172400D01*
X234900D01*
Y171600D01*
X234100D01*
X259800Y183900D02*
Y185500D01*
X261400D01*
Y183900D01*
X259800D01*
X260200Y184300D02*
Y185100D01*
X261000D01*
Y184300D01*
X260200D01*
X276200Y186200D02*
Y187800D01*
X277800D01*
Y186200D01*
X276200D01*
X276600Y186600D02*
Y187400D01*
X277400D01*
Y186600D01*
X276600D01*
X275942Y143569D02*
Y145169D01*
X277542D01*
Y143569D01*
X275942D01*
X276342Y143969D02*
Y144769D01*
X277142D01*
Y143969D01*
X276342D01*
X257547Y143569D02*
Y145169D01*
X259147D01*
Y143569D01*
X257547D01*
X257947Y143969D02*
Y144769D01*
X258747D01*
Y143969D01*
X257947D01*
X218200Y166700D02*
Y168300D01*
X219800D01*
Y166700D01*
X218200D01*
X218600Y167100D02*
Y167900D01*
X219400D01*
Y167100D01*
X218600D01*
X218200Y161700D02*
Y163300D01*
X219800D01*
Y161700D01*
X218200D01*
X218600Y162100D02*
Y162900D01*
X219400D01*
Y162100D01*
X218600D01*
X233700Y160700D02*
Y162300D01*
X235300D01*
Y160700D01*
X233700D01*
X234100Y161100D02*
Y161900D01*
X234900D01*
Y161100D01*
X234100D01*
X154249Y131245D02*
Y132845D01*
X155849D01*
Y131245D01*
X154249D01*
X154649Y131645D02*
Y132445D01*
X155449D01*
Y131645D01*
X154649D01*
X154249Y136745D02*
Y138345D01*
X155849D01*
Y136745D01*
X154249D01*
X154649Y137145D02*
Y137945D01*
X155449D01*
Y137145D01*
X154649D01*
X56100Y378100D02*
Y379700D01*
X57700D01*
Y378100D01*
X56100D01*
X56500Y378500D02*
Y379300D01*
X57300D01*
Y378500D01*
X56500D01*
X45180Y378249D02*
Y379849D01*
X46780D01*
Y378249D01*
X45180D01*
X45579Y378649D02*
Y379449D01*
X46380D01*
Y378649D01*
X45579D01*
X151894Y256795D02*
Y258395D01*
X153494D01*
Y256795D01*
X151894D01*
X152294Y257195D02*
Y257995D01*
X153094D01*
Y257195D01*
X152294D01*
X151700Y251243D02*
Y252843D01*
X153300D01*
Y251243D01*
X151700D01*
X152100Y251643D02*
Y252443D01*
X152900D01*
Y251643D01*
X152100D01*
X151850Y267600D02*
Y269199D01*
X153450D01*
Y267600D01*
X151850D01*
X152250Y268000D02*
Y268799D01*
X153050D01*
Y268000D01*
X152250D01*
X206700Y102700D02*
Y104300D01*
X208300D01*
Y102700D01*
X206700D01*
X207100Y103100D02*
Y103900D01*
X207900D01*
Y103100D01*
X207100D01*
X212200Y102700D02*
Y104300D01*
X213800D01*
Y102700D01*
X212200D01*
X212600Y103100D02*
Y103900D01*
X213400D01*
Y103100D01*
X212600D01*
X205200Y76200D02*
Y77800D01*
X206800D01*
Y76200D01*
X205200D01*
X205600Y76600D02*
Y77400D01*
X206400D01*
Y76600D01*
X205600D01*
X204200Y52700D02*
Y54300D01*
X205800D01*
Y52700D01*
X204200D01*
X204600Y53100D02*
Y53900D01*
X205400D01*
Y53100D01*
X204600D01*
X77550Y248400D02*
Y250000D01*
X79150D01*
Y248400D01*
X77550D01*
X77950Y248800D02*
Y249600D01*
X78750D01*
Y248800D01*
X77950D01*
X228200Y248400D02*
Y250000D01*
X229800D01*
Y248400D01*
X228200D01*
X228600Y248800D02*
Y249600D01*
X229400D01*
Y248800D01*
X228600D01*
X281200Y248400D02*
Y250000D01*
X282800D01*
Y248400D01*
X281200D01*
X281600Y248800D02*
Y249600D01*
X282400D01*
Y248800D01*
X281600D01*
X300356Y251243D02*
Y252843D01*
X301956D01*
Y251243D01*
X300356D01*
X300756Y251643D02*
Y252443D01*
X301556D01*
Y251643D01*
X300756D01*
X300356Y256695D02*
Y258295D01*
X301956D01*
Y256695D01*
X300356D01*
X300756Y257095D02*
Y257895D01*
X301556D01*
Y257095D01*
X300756D01*
X299700Y269200D02*
Y270800D01*
X301300D01*
Y269200D01*
X299700D01*
X300100Y269600D02*
Y270400D01*
X300900D01*
Y269600D01*
X300100D01*
X130700Y249700D02*
Y251300D01*
X132300D01*
Y249700D01*
X130700D01*
X131100Y250100D02*
Y250900D01*
X131900D01*
Y250100D01*
X131100D01*
X92700Y253150D02*
Y254750D01*
X94300D01*
Y253150D01*
X92700D01*
X93100Y253550D02*
Y254350D01*
X93900D01*
Y253550D01*
X93100D01*
X100200Y253150D02*
Y254750D01*
X101800D01*
Y253150D01*
X100200D01*
X100600Y253550D02*
Y254350D01*
X101400D01*
Y253550D01*
X100600D01*
X107700Y253150D02*
Y254750D01*
X109300D01*
Y253150D01*
X107700D01*
X108100Y253550D02*
Y254350D01*
X108900D01*
Y253550D01*
X108100D01*
X115200Y253150D02*
Y254750D01*
X116800D01*
Y253150D01*
X115200D01*
X115600Y253550D02*
Y254350D01*
X116400D01*
Y253550D01*
X115600D01*
X93700Y297250D02*
Y298850D01*
X95300D01*
Y297250D01*
X93700D01*
X94100Y297650D02*
Y298450D01*
X94900D01*
Y297650D01*
X94100D01*
X101200Y297250D02*
Y298850D01*
X102800D01*
Y297250D01*
X101200D01*
X101600Y297650D02*
Y298450D01*
X102400D01*
Y297650D01*
X101600D01*
X108700Y297250D02*
Y298850D01*
X110300D01*
Y297250D01*
X108700D01*
X109100Y297650D02*
Y298450D01*
X109900D01*
Y297650D01*
X109100D01*
X116200Y297250D02*
Y298850D01*
X117800D01*
Y297250D01*
X116200D01*
X116600Y297650D02*
Y298450D01*
X117400D01*
Y297650D01*
X116600D01*
X71950Y298000D02*
Y299600D01*
X73550D01*
Y298000D01*
X71950D01*
X72350Y298400D02*
Y299200D01*
X73150D01*
Y298400D01*
X72350D01*
X96100Y217400D02*
Y219000D01*
X97700D01*
Y217400D01*
X96100D01*
X96500Y217800D02*
Y218600D01*
X97300D01*
Y217800D01*
X96500D01*
X131600Y378100D02*
Y379700D01*
X133200D01*
Y378100D01*
X131600D01*
X132000Y378500D02*
Y379300D01*
X132800D01*
Y378500D01*
X132000D01*
X120679Y378249D02*
Y379849D01*
X122280D01*
Y378249D01*
X120679D01*
X121080Y378649D02*
Y379449D01*
X121879D01*
Y378649D01*
X121080D01*
X180746Y110800D02*
Y112400D01*
X182346D01*
Y110800D01*
X180746D01*
X181146Y111200D02*
Y112000D01*
X181946D01*
Y111200D01*
X181146D01*
X175246Y110800D02*
Y112400D01*
X176846D01*
Y110800D01*
X175246D01*
X175646Y111200D02*
Y112000D01*
X176446D01*
Y111200D01*
X175646D01*
X169746Y110800D02*
Y112400D01*
X171346D01*
Y110800D01*
X169746D01*
X170146Y111200D02*
Y112000D01*
X170946D01*
Y111200D01*
X170146D01*
X164135Y110651D02*
Y112251D01*
X165735D01*
Y110651D01*
X164135D01*
X164535Y111051D02*
Y111851D01*
X165335D01*
Y111051D01*
X164535D01*
X222150Y292924D02*
Y294525D01*
X223750D01*
Y292924D01*
X222150D01*
X222550Y293324D02*
Y294125D01*
X223350D01*
Y293324D01*
X222550D01*
X286200Y292900D02*
Y294500D01*
X287800D01*
Y292900D01*
X286200D01*
X286600Y293300D02*
Y294100D01*
X287400D01*
Y293300D01*
X286600D01*
X300356Y298450D02*
Y300050D01*
X301956D01*
Y298450D01*
X300356D01*
X300756Y298850D02*
Y299650D01*
X301556D01*
Y298850D01*
X300756D01*
X300505Y292924D02*
Y294525D01*
X302105D01*
Y292924D01*
X300505D01*
X300905Y293324D02*
Y294125D01*
X301705D01*
Y293324D01*
X300905D01*
X300505Y287400D02*
Y289000D01*
X302105D01*
Y287400D01*
X300505D01*
X300905Y287800D02*
Y288599D01*
X301705D01*
Y287800D01*
X300905D01*
X65706Y164200D02*
Y165800D01*
X67306D01*
Y164200D01*
X65706D01*
X66106Y164600D02*
Y165400D01*
X66906D01*
Y164600D01*
X66106D01*
X65900Y159000D02*
Y160600D01*
X67500D01*
Y159000D01*
X65900D01*
X66300Y159400D02*
Y160200D01*
X67100D01*
Y159400D01*
X66300D01*
X121800Y32149D02*
Y33749D01*
X123399D01*
Y32149D01*
X121800D01*
X122199Y32549D02*
Y33349D01*
X123000D01*
Y32549D01*
X122199D01*
X127199Y32149D02*
Y33749D01*
X128799D01*
Y32149D01*
X127199D01*
X127600Y32549D02*
Y33349D01*
X128400D01*
Y32549D01*
X127600D01*
X57549Y42700D02*
Y44300D01*
X59149D01*
Y42700D01*
X57549D01*
X57949Y43101D02*
Y43900D01*
X58749D01*
Y43101D01*
X57949D01*
X57649Y48201D02*
Y49801D01*
X59249D01*
Y48201D01*
X57649D01*
X58049Y48601D02*
Y49400D01*
X58849D01*
Y48601D01*
X58049D01*
X57643Y59150D02*
Y60751D01*
X59243D01*
Y59150D01*
X57643D01*
X58043Y59550D02*
Y60351D01*
X58843D01*
Y59550D01*
X58043D01*
X73100Y48900D02*
Y50500D01*
X74700D01*
Y48900D01*
X73100D01*
X73500Y49300D02*
Y50100D01*
X74300D01*
Y49300D01*
X73500D01*
X150558Y72350D02*
Y73950D01*
X152158D01*
Y72350D01*
X150558D01*
X150958Y72750D02*
Y73550D01*
X151758D01*
Y72750D01*
X150958D01*
X137200Y72200D02*
Y73800D01*
X138800D01*
Y72200D01*
X137200D01*
X137600Y72600D02*
Y73400D01*
X138400D01*
Y72600D01*
X137600D01*
X130414Y72200D02*
Y73800D01*
X132014D01*
Y72200D01*
X130414D01*
X130814Y72600D02*
Y73400D01*
X131614D01*
Y72600D01*
X130814D01*
X183000Y73200D02*
Y74800D01*
X184600D01*
Y73200D01*
X183000D01*
X183400Y73600D02*
Y74400D01*
X184200D01*
Y73600D01*
X183400D01*
X179950Y69200D02*
Y70800D01*
X181550D01*
Y69200D01*
X179950D01*
X180350Y69600D02*
Y70400D01*
X181150D01*
Y69600D01*
X180350D01*
X190634Y76200D02*
Y77800D01*
X192234D01*
Y76200D01*
X190634D01*
X191034Y76600D02*
Y77400D01*
X191834D01*
Y76600D01*
X191034D01*
X197011Y92917D02*
Y94517D01*
X198611D01*
Y92917D01*
X197011D01*
X197411Y93317D02*
Y94117D01*
X198211D01*
Y93317D01*
X197411D01*
X222878Y110800D02*
Y112400D01*
X224478D01*
Y110800D01*
X222878D01*
X223278Y111200D02*
Y112000D01*
X224078D01*
Y111200D01*
X223278D01*
X228423Y110651D02*
Y112251D01*
X230023D01*
Y110651D01*
X228423D01*
X228823Y111051D02*
Y111851D01*
X229623D01*
Y111051D01*
X228823D01*
X375225Y305200D02*
Y306800D01*
X376825D01*
Y305200D01*
X375225D01*
X375625Y305600D02*
Y306400D01*
X376425D01*
Y305600D01*
X375625D01*
X384200Y205200D02*
Y206800D01*
X385800D01*
Y205200D01*
X384200D01*
X384600Y205600D02*
Y206400D01*
X385400D01*
Y205600D01*
X384600D01*
X387200Y199125D02*
Y200725D01*
X388800D01*
Y199125D01*
X387200D01*
X387600Y199525D02*
Y200325D01*
X388400D01*
Y199525D01*
X387600D01*
X372200Y205200D02*
Y206800D01*
X373800D01*
Y205200D01*
X372200D01*
X372600Y205600D02*
Y206400D01*
X373400D01*
Y205600D01*
X372600D01*
X378200Y205200D02*
Y206800D01*
X379800D01*
Y205200D01*
X378200D01*
X378600Y205600D02*
Y206400D01*
X379400D01*
Y205600D01*
X378600D01*
X372200Y299604D02*
Y301204D01*
X373800D01*
Y299604D01*
X372200D01*
X372600Y300004D02*
Y300804D01*
X373400D01*
Y300004D01*
X372600D01*
X384200Y299200D02*
Y300800D01*
X385800D01*
Y299200D01*
X384200D01*
X384600Y299600D02*
Y300400D01*
X385400D01*
Y299600D01*
X384600D01*
X255200Y137547D02*
Y139147D01*
X256800D01*
Y137547D01*
X255200D01*
X255600Y137947D02*
Y138747D01*
X256400D01*
Y137947D01*
X255600D01*
X372964Y198188D02*
Y199788D01*
X374564D01*
Y198188D01*
X372964D01*
X373364Y198588D02*
Y199388D01*
X374164D01*
Y198588D01*
X373364D01*
X282500Y236200D02*
Y237800D01*
X284100D01*
Y236200D01*
X282500D01*
X282900Y236600D02*
Y237400D01*
X283700D01*
Y236600D01*
X282900D01*
X170700Y72200D02*
Y73800D01*
X172300D01*
Y72200D01*
X170700D01*
X171100Y72600D02*
Y73400D01*
X171900D01*
Y72600D01*
X171100D01*
X105784Y173289D02*
Y174889D01*
X107384D01*
Y173289D01*
X105784D01*
X106184Y173689D02*
Y174489D01*
X106984D01*
Y173689D01*
X106184D01*
X199200Y142200D02*
Y143800D01*
X200800D01*
Y142200D01*
X199200D01*
X199600Y142600D02*
Y143400D01*
X200400D01*
Y142600D01*
X199600D01*
X202765Y172788D02*
Y174388D01*
X204365D01*
Y172788D01*
X202765D01*
X203165Y173188D02*
Y173988D01*
X203965D01*
Y173188D01*
X203165D01*
X188176Y158199D02*
Y159799D01*
X189776D01*
Y158199D01*
X188176D01*
X188576Y158599D02*
Y159399D01*
X189376D01*
Y158599D01*
X188576D01*
X72970Y38643D02*
Y40243D01*
X74570D01*
Y38643D01*
X72970D01*
X73370Y39043D02*
Y39843D01*
X74170D01*
Y39043D01*
X73370D01*
X84886Y56557D02*
Y58157D01*
X86486D01*
Y56557D01*
X84886D01*
X85286Y56957D02*
Y57757D01*
X86086D01*
Y56957D01*
X85286D01*
X113449Y46301D02*
Y47901D01*
X115049D01*
Y46301D01*
X113449D01*
X113849Y46701D02*
Y47501D01*
X114649D01*
Y46701D01*
X113849D01*
X67880Y36723D02*
Y38323D01*
X69481D01*
Y36723D01*
X67880D01*
X68281Y37123D02*
Y37923D01*
X69081D01*
Y37123D01*
X68281D01*
X18289Y228119D02*
Y229719D01*
X19889D01*
Y228119D01*
X18289D01*
X18689Y228520D02*
Y229320D01*
X19489D01*
Y228520D01*
X18689D01*
X55050Y287400D02*
Y289000D01*
X56650D01*
Y287400D01*
X55050D01*
X55450Y287800D02*
Y288600D01*
X56250D01*
Y287800D01*
X55450D01*
X120000Y242300D02*
Y243900D01*
X121600D01*
Y242300D01*
X120000D01*
X120400Y242700D02*
Y243500D01*
X121200D01*
Y242700D01*
X120400D01*
X221100Y265000D02*
Y266600D01*
X222700D01*
Y265000D01*
X221100D01*
X221500Y265400D02*
Y266200D01*
X222300D01*
Y265400D01*
X221500D01*
X46579Y272200D02*
Y273800D01*
X48179D01*
Y272200D01*
X46579D01*
X46979Y272600D02*
Y273400D01*
X47779D01*
Y272600D01*
X46979D01*
X63000Y246500D02*
Y248100D01*
X64600D01*
Y246500D01*
X63000D01*
X63400Y246900D02*
Y247700D01*
X64200D01*
Y246900D01*
X63400D01*
D97*
X336600Y90300D02*
G03*
X336600Y90300I-800J0D01*
G01*
X346600D02*
G03*
X346600Y90300I-800J0D01*
G01*
X356600D02*
G03*
X356600Y90300I-800J0D01*
G01*
X366600D02*
G03*
X366600Y90300I-800J0D01*
G01*
Y100300D02*
G03*
X366600Y100300I-800J0D01*
G01*
X356600D02*
G03*
X356600Y100300I-800J0D01*
G01*
X346600D02*
G03*
X346600Y100300I-800J0D01*
G01*
X336600D02*
G03*
X336600Y100300I-800J0D01*
G01*
Y207500D02*
G03*
X336600Y207500I-800J0D01*
G01*
X346600D02*
G03*
X346600Y207500I-800J0D01*
G01*
X356600D02*
G03*
X356600Y207500I-800J0D01*
G01*
X366600D02*
G03*
X366600Y207500I-800J0D01*
G01*
Y217500D02*
G03*
X366600Y217500I-800J0D01*
G01*
X356600D02*
G03*
X356600Y217500I-800J0D01*
G01*
X346600D02*
G03*
X346600Y217500I-800J0D01*
G01*
X336600D02*
G03*
X336600Y217500I-800J0D01*
G01*
X188000Y249100D02*
G03*
X188000Y249100I-800J0D01*
G01*
X165800Y240000D02*
G03*
X165800Y240000I-800J0D01*
G01*
X18100Y249072D02*
G03*
X18100Y249072I-800J0D01*
G01*
X315300Y234772D02*
G03*
X315300Y234772I-800J0D01*
G01*
X305572Y265500D02*
G03*
X305572Y265500I-800J0D01*
G01*
X185672Y269500D02*
G03*
X185672Y269500I-800J0D01*
G01*
X175228Y269400D02*
G03*
X175228Y269400I-800J0D01*
G01*
X330228Y338700D02*
G03*
X330228Y338700I-800J0D01*
G01*
Y319300D02*
G03*
X330228Y319300I-800J0D01*
G01*
X43371D02*
G03*
X43371Y319300I-800J0D01*
G01*
Y338700D02*
G03*
X43371Y338700I-800J0D01*
G01*
X258300Y319500D02*
G03*
X258300Y319500I-800J0D01*
G01*
Y338700D02*
G03*
X258300Y338700I-800J0D01*
G01*
X186800Y319300D02*
G03*
X186800Y319300I-800J0D01*
G01*
X187300Y338700D02*
G03*
X187300Y338700I-800J0D01*
G01*
X115300Y319500D02*
G03*
X115300Y319500I-800J0D01*
G01*
X114800Y338700D02*
G03*
X114800Y338700I-800J0D01*
G01*
X81928Y224100D02*
G03*
X81928Y224100I-800J0D01*
G01*
X78800Y210429D02*
G03*
X78800Y210429I-800J0D01*
G01*
X110601Y125072D02*
G03*
X110601Y125072I-800J0D01*
G01*
X101000Y86572D02*
G03*
X101000Y86572I-800J0D01*
G01*
X73900Y86272D02*
G03*
X73900Y86272I-800J0D01*
G01*
X58000Y170000D02*
G03*
X58000Y170000I-800J0D01*
G01*
X51200Y233828D02*
G03*
X51200Y233828I-800J0D01*
G01*
X40000Y266300D02*
G03*
X40000Y266300I-800J0D01*
G01*
D98*
X187600Y249100D02*
G03*
X187600Y249100I-400J0D01*
G01*
X165400Y240000D02*
G03*
X165400Y240000I-400J0D01*
G01*
X17700Y249072D02*
G03*
X17700Y249072I-400J0D01*
G01*
X314900Y234772D02*
G03*
X314900Y234772I-400J0D01*
G01*
X305172Y265500D02*
G03*
X305172Y265500I-400J0D01*
G01*
X185272Y269500D02*
G03*
X185272Y269500I-400J0D01*
G01*
X174828Y269400D02*
G03*
X174828Y269400I-400J0D01*
G01*
X329829Y338700D02*
G03*
X329829Y338700I-400J0D01*
G01*
Y319300D02*
G03*
X329829Y319300I-400J0D01*
G01*
X42971D02*
G03*
X42971Y319300I-400J0D01*
G01*
Y338700D02*
G03*
X42971Y338700I-400J0D01*
G01*
X257900Y319500D02*
G03*
X257900Y319500I-400J0D01*
G01*
Y338700D02*
G03*
X257900Y338700I-400J0D01*
G01*
X186400Y319300D02*
G03*
X186400Y319300I-400J0D01*
G01*
X186900Y338700D02*
G03*
X186900Y338700I-400J0D01*
G01*
X114900Y319500D02*
G03*
X114900Y319500I-400J0D01*
G01*
X114400Y338700D02*
G03*
X114400Y338700I-400J0D01*
G01*
X81528Y224100D02*
G03*
X81528Y224100I-400J0D01*
G01*
X78400Y210429D02*
G03*
X78400Y210429I-400J0D01*
G01*
X110201Y125072D02*
G03*
X110201Y125072I-400J0D01*
G01*
X100600Y86572D02*
G03*
X100600Y86572I-400J0D01*
G01*
X73500Y86272D02*
G03*
X73500Y86272I-400J0D01*
G01*
X57600Y170000D02*
G03*
X57600Y170000I-400J0D01*
G01*
X50800Y233828D02*
G03*
X50800Y233828I-400J0D01*
G01*
X39600Y266300D02*
G03*
X39600Y266300I-400J0D01*
G01*
M02*
