G04 Layer_Color=255*
%FSLAX25Y25*%
%MOIN*%
G70*
G01*
G75*
%ADD36R,0.06500X0.06500*%
%ADD37C,0.06500*%
%ADD38C,0.19685*%
%ADD39R,0.06500X0.06500*%
%ADD40C,0.07283*%
%ADD41R,0.07283X0.07283*%
%ADD42O,0.17000X0.08000*%
%ADD43O,0.08000X0.17000*%
%ADD44C,0.04800*%
%ADD45P,0.14235X8X292.5*%
%ADD46O,0.11220X0.05610*%
D36*
X36700Y356100D02*
D03*
X335800Y90300D02*
D03*
Y207500D02*
D03*
X222300Y220300D02*
D03*
X256300Y356100D02*
D03*
X183300D02*
D03*
X111800D02*
D03*
X123000Y86500D02*
D03*
D37*
X46700Y356100D02*
D03*
X56700D02*
D03*
X66700D02*
D03*
X76700D02*
D03*
X86700D02*
D03*
X345800Y90300D02*
D03*
X355800D02*
D03*
X365800D02*
D03*
Y100300D02*
D03*
X355800D02*
D03*
X345800D02*
D03*
X335800D02*
D03*
X345800Y207500D02*
D03*
X355800D02*
D03*
X365800D02*
D03*
Y217500D02*
D03*
X355800D02*
D03*
X345800D02*
D03*
X335800D02*
D03*
X224000Y24000D02*
D03*
Y34000D02*
D03*
Y44000D02*
D03*
Y54000D02*
D03*
Y64000D02*
D03*
X212300Y220300D02*
D03*
X202300D02*
D03*
X192300D02*
D03*
X182300D02*
D03*
X172300D02*
D03*
X266300Y356100D02*
D03*
X276300D02*
D03*
X286300D02*
D03*
X296300D02*
D03*
X306300D02*
D03*
X193300D02*
D03*
X203300D02*
D03*
X213300D02*
D03*
X223300D02*
D03*
X233300D02*
D03*
X121800D02*
D03*
X131800D02*
D03*
X141800D02*
D03*
X151800D02*
D03*
X161800D02*
D03*
X133000Y86500D02*
D03*
X143000D02*
D03*
X153000D02*
D03*
X163000D02*
D03*
X173000D02*
D03*
D38*
X379000Y391000D02*
D03*
X16000D02*
D03*
Y28000D02*
D03*
X379000D02*
D03*
D39*
X224000Y74000D02*
D03*
D40*
X217610Y378600D02*
D03*
X290610D02*
D03*
X70820D02*
D03*
X146110D02*
D03*
D41*
X231390D02*
D03*
X304390D02*
D03*
X84600D02*
D03*
X159890D02*
D03*
D42*
X36100Y128800D02*
D03*
D43*
X48600Y148300D02*
D03*
X24100D02*
D03*
D44*
X268000Y176000D02*
D03*
Y157000D02*
D03*
D45*
X35700Y51534D02*
D03*
Y103266D02*
D03*
D46*
X46369Y63620D02*
D03*
Y73463D02*
D03*
Y81337D02*
D03*
Y91180D02*
D03*
M02*
