G04 Layer_Physical_Order=2*
G04 Layer_Color=16711680*
%FSLAX25Y25*%
%MOIN*%
G70*
G01*
G75*
%ADD33C,0.01000*%
%ADD34C,0.04000*%
%ADD36R,0.06500X0.06500*%
%ADD37C,0.06500*%
%ADD38C,0.19685*%
%ADD39R,0.06500X0.06500*%
%ADD40C,0.07283*%
%ADD41R,0.07283X0.07283*%
%ADD42O,0.17000X0.08000*%
%ADD43O,0.08000X0.17000*%
%ADD44C,0.04800*%
%ADD45P,0.14235X8X292.5*%
%ADD46O,0.11220X0.05610*%
%ADD47C,0.02800*%
%ADD48C,0.05000*%
G36*
X393701Y12000D02*
X0D01*
Y405701D01*
X393701D01*
Y12000D01*
D02*
G37*
%LPC*%
G36*
X256000Y140794D02*
X255064Y140608D01*
X254270Y140077D01*
X254135Y139876D01*
X252047D01*
X251462Y139760D01*
X250966Y139428D01*
X241566Y130029D01*
X208579D01*
X208444Y130230D01*
X207651Y130761D01*
X206714Y130947D01*
X205778Y130761D01*
X204984Y130230D01*
X204453Y129436D01*
X204267Y128500D01*
X204453Y127564D01*
X204984Y126770D01*
X205778Y126239D01*
X206714Y126053D01*
X207651Y126239D01*
X208444Y126770D01*
X208579Y126971D01*
X212224D01*
X212453Y126416D01*
X196066Y110029D01*
X184019D01*
X183736Y110558D01*
X183807Y110664D01*
X183993Y111600D01*
X183807Y112536D01*
X183276Y113330D01*
X182482Y113861D01*
X181546Y114047D01*
X180609Y113861D01*
X179815Y113330D01*
X179285Y112536D01*
X179099Y111600D01*
X179285Y110664D01*
X179815Y109870D01*
X180380Y109493D01*
X180526Y108791D01*
X178365Y106629D01*
X160034D01*
X157529Y109134D01*
Y112136D01*
X157730Y112270D01*
X158261Y113064D01*
X158447Y114000D01*
X158261Y114936D01*
X157730Y115730D01*
X156936Y116261D01*
X156000Y116447D01*
X155064Y116261D01*
X154270Y115730D01*
X153739Y114936D01*
X153553Y114000D01*
X153739Y113064D01*
X154270Y112270D01*
X154471Y112136D01*
Y108500D01*
X154587Y107915D01*
X154919Y107419D01*
X158319Y104019D01*
X158815Y103687D01*
X159400Y103571D01*
X179100D01*
X179618Y103674D01*
X179739Y103064D01*
X180270Y102270D01*
X181064Y101739D01*
X182000Y101553D01*
X182936Y101739D01*
X183730Y102270D01*
X184261Y103064D01*
X184447Y104000D01*
X184400Y104237D01*
X185134Y104971D01*
X196452D01*
X196682Y104416D01*
X179669Y87403D01*
X179337Y86907D01*
X179221Y86322D01*
Y71864D01*
X179020Y71730D01*
X178489Y70936D01*
X178303Y70000D01*
X178489Y69064D01*
X179020Y68270D01*
X179814Y67739D01*
X180750Y67553D01*
X181686Y67739D01*
X182480Y68270D01*
X183011Y69064D01*
X183197Y70000D01*
X183011Y70936D01*
X182886Y71123D01*
X183247Y71663D01*
X183800Y71553D01*
X184736Y71739D01*
X185530Y72270D01*
X186061Y73064D01*
X186247Y74000D01*
X186061Y74936D01*
X185530Y75730D01*
X185329Y75864D01*
Y85667D01*
X205140Y105477D01*
X205203Y105462D01*
X205467Y104777D01*
X205239Y104436D01*
X205053Y103500D01*
X205239Y102564D01*
X205770Y101770D01*
X206564Y101239D01*
X207500Y101053D01*
X208436Y101239D01*
X209230Y101770D01*
X209761Y102564D01*
X209947Y103500D01*
X209761Y104436D01*
X209230Y105230D01*
X209170Y105271D01*
X209352Y105871D01*
X213978D01*
X214563Y105987D01*
X215059Y106319D01*
X217941Y109200D01*
X218178Y109153D01*
X219114Y109339D01*
X219908Y109870D01*
X220439Y110664D01*
X220625Y111600D01*
X220439Y112536D01*
X219908Y113330D01*
X219114Y113861D01*
X218178Y114047D01*
X217241Y113861D01*
X216447Y113330D01*
X215917Y112536D01*
X215731Y111600D01*
X215552Y111455D01*
X215320Y111513D01*
X214943Y111732D01*
X214783Y112536D01*
X214252Y113330D01*
X213459Y113861D01*
X212522Y114047D01*
X211586Y113861D01*
X210792Y113330D01*
X210658Y113129D01*
X207676D01*
X207447Y113684D01*
X213503Y119740D01*
X249435D01*
X249570Y119539D01*
X250364Y119009D01*
X251300Y118823D01*
X252236Y119009D01*
X253030Y119539D01*
X253561Y120333D01*
X253747Y121270D01*
X253561Y122206D01*
X253030Y123000D01*
X252236Y123530D01*
X251300Y123717D01*
X250364Y123530D01*
X249570Y123000D01*
X249435Y122799D01*
X213946D01*
X213716Y123353D01*
X215334Y124971D01*
X249673D01*
X250364Y124509D01*
X251300Y124323D01*
X252236Y124509D01*
X253030Y125039D01*
X253561Y125833D01*
X253747Y126770D01*
X253561Y127706D01*
X253030Y128500D01*
X252236Y129030D01*
X251300Y129217D01*
X250364Y129030D01*
X249570Y128500D01*
X249255Y128029D01*
X244676D01*
X244447Y128584D01*
X252680Y136818D01*
X254135D01*
X254270Y136617D01*
X255064Y136086D01*
X256000Y135900D01*
X256936Y136086D01*
X257730Y136617D01*
X258261Y137411D01*
X258447Y138347D01*
X258261Y139283D01*
X257730Y140077D01*
X256936Y140608D01*
X256000Y140794D01*
D02*
G37*
G36*
X48600Y157843D02*
X47295Y157671D01*
X46078Y157167D01*
X45034Y156366D01*
X44232Y155322D01*
X43729Y154105D01*
X43557Y152800D01*
Y143800D01*
X43729Y142495D01*
X44232Y141278D01*
X45034Y140234D01*
X46078Y139433D01*
X47295Y138929D01*
X48600Y138757D01*
X49905Y138929D01*
X51122Y139433D01*
X52166Y140234D01*
X52968Y141278D01*
X53471Y142495D01*
X53643Y143800D01*
Y152800D01*
X53471Y154105D01*
X52968Y155322D01*
X52166Y156366D01*
X51122Y157167D01*
X49905Y157671D01*
X48600Y157843D01*
D02*
G37*
G36*
X40600Y133843D02*
X37600D01*
Y130300D01*
X45391D01*
X44967Y131322D01*
X44166Y132366D01*
X43122Y133168D01*
X41905Y133671D01*
X40600Y133843D01*
D02*
G37*
G36*
X155049Y139992D02*
X154113Y139806D01*
X153319Y139275D01*
X152788Y138481D01*
X152602Y137545D01*
X152788Y136609D01*
X153319Y135815D01*
X154113Y135284D01*
X155049Y135098D01*
X155986Y135284D01*
X156780Y135815D01*
X157310Y136609D01*
X157496Y137545D01*
X157310Y138481D01*
X156780Y139275D01*
X155986Y139806D01*
X155049Y139992D01*
D02*
G37*
G36*
X22600Y146800D02*
X19057D01*
Y143800D01*
X19229Y142495D01*
X19733Y141278D01*
X20534Y140234D01*
X21578Y139433D01*
X22600Y139009D01*
Y146800D01*
D02*
G37*
G36*
X25600Y157591D02*
Y149800D01*
X29143D01*
Y152800D01*
X28971Y154105D01*
X28468Y155322D01*
X27666Y156366D01*
X26622Y157167D01*
X25600Y157591D01*
D02*
G37*
G36*
X268000Y160429D02*
X267112Y160312D01*
X266285Y159970D01*
X265575Y159425D01*
X265030Y158715D01*
X264687Y157888D01*
X264571Y157000D01*
X264687Y156112D01*
X265030Y155285D01*
X265575Y154575D01*
X266285Y154030D01*
X267112Y153688D01*
X268000Y153571D01*
X268888Y153688D01*
X269715Y154030D01*
X270425Y154575D01*
X270970Y155285D01*
X271312Y156112D01*
X271429Y157000D01*
X271312Y157888D01*
X270970Y158715D01*
X270425Y159425D01*
X269715Y159970D01*
X268888Y160312D01*
X268000Y160429D01*
D02*
G37*
G36*
X29143Y146800D02*
X25600D01*
Y139009D01*
X26622Y139433D01*
X27666Y140234D01*
X28468Y141278D01*
X28971Y142495D01*
X29143Y143800D01*
Y146800D01*
D02*
G37*
G36*
X22600Y157591D02*
X21578Y157167D01*
X20534Y156366D01*
X19733Y155322D01*
X19229Y154105D01*
X19057Y152800D01*
Y149800D01*
X22600D01*
Y157591D01*
D02*
G37*
G36*
X34600Y133843D02*
X31600D01*
X30295Y133671D01*
X29078Y133168D01*
X28034Y132366D01*
X27233Y131322D01*
X26809Y130300D01*
X34600D01*
Y133843D01*
D02*
G37*
G36*
X324600Y218347D02*
X323664Y218161D01*
X322870Y217630D01*
X322339Y216836D01*
X322153Y215900D01*
X322339Y214964D01*
X322870Y214170D01*
X323071Y214036D01*
Y206700D01*
X323187Y206115D01*
X323519Y205619D01*
X344271Y184866D01*
Y104267D01*
X343657Y104012D01*
X342769Y103331D01*
X342088Y102443D01*
X341659Y101409D01*
X341513Y100300D01*
X341659Y99190D01*
X342088Y98157D01*
X342769Y97269D01*
X343657Y96588D01*
X344690Y96159D01*
X345800Y96013D01*
X346909Y96159D01*
X347943Y96588D01*
X348831Y97269D01*
X349512Y98157D01*
X349941Y99190D01*
X350087Y100300D01*
X349941Y101409D01*
X349512Y102443D01*
X348831Y103331D01*
X347943Y104012D01*
X347329Y104267D01*
Y185500D01*
X347213Y186085D01*
X346881Y186581D01*
X326129Y207333D01*
Y214036D01*
X326330Y214170D01*
X326861Y214964D01*
X327047Y215900D01*
X326861Y216836D01*
X326330Y217630D01*
X325536Y218161D01*
X324600Y218347D01*
D02*
G37*
G36*
X164935Y113898D02*
X163999Y113712D01*
X163205Y113181D01*
X162674Y112387D01*
X162488Y111451D01*
X162674Y110514D01*
X163205Y109721D01*
X163999Y109190D01*
X164935Y109004D01*
X165872Y109190D01*
X166665Y109721D01*
X167196Y110514D01*
X167382Y111451D01*
X167196Y112387D01*
X166665Y113181D01*
X165872Y113712D01*
X164935Y113898D01*
D02*
G37*
G36*
X38988Y110861D02*
X32412D01*
X32022Y110784D01*
X31691Y110563D01*
X28403Y107275D01*
X28403Y107275D01*
X28182Y106944D01*
X28105Y106554D01*
Y99978D01*
X28182Y99588D01*
X28403Y99257D01*
X31691Y95969D01*
X32022Y95748D01*
X32412Y95671D01*
X38988D01*
X39378Y95748D01*
X39709Y95969D01*
X42996Y99257D01*
X42997Y99257D01*
X43218Y99588D01*
X43295Y99978D01*
Y106554D01*
X43218Y106944D01*
X42997Y107275D01*
X39709Y110563D01*
X39378Y110784D01*
X38988Y110861D01*
D02*
G37*
G36*
X335800Y104587D02*
X334690Y104441D01*
X333657Y104012D01*
X332769Y103331D01*
X332088Y102443D01*
X331659Y101409D01*
X331513Y100300D01*
X331659Y99190D01*
X332088Y98157D01*
X332769Y97269D01*
X333657Y96588D01*
X334690Y96159D01*
X335800Y96013D01*
X336910Y96159D01*
X337943Y96588D01*
X338831Y97269D01*
X339512Y98157D01*
X339941Y99190D01*
X340087Y100300D01*
X339941Y101409D01*
X339512Y102443D01*
X338831Y103331D01*
X337943Y104012D01*
X336910Y104441D01*
X335800Y104587D01*
D02*
G37*
G36*
X170546Y114047D02*
X169609Y113861D01*
X168816Y113330D01*
X168285Y112536D01*
X168099Y111600D01*
X168285Y110664D01*
X168816Y109870D01*
X169609Y109339D01*
X170546Y109153D01*
X171482Y109339D01*
X172276Y109870D01*
X172807Y110664D01*
X172993Y111600D01*
X172807Y112536D01*
X172276Y113330D01*
X171482Y113861D01*
X170546Y114047D01*
D02*
G37*
G36*
X45391Y127300D02*
X37600D01*
Y123757D01*
X40600D01*
X41905Y123929D01*
X43122Y124433D01*
X44166Y125234D01*
X44967Y126278D01*
X45391Y127300D01*
D02*
G37*
G36*
X155049Y134492D02*
X154113Y134306D01*
X153319Y133775D01*
X152788Y132981D01*
X152602Y132045D01*
X152788Y131108D01*
X153319Y130315D01*
X154113Y129784D01*
X155049Y129598D01*
X155986Y129784D01*
X156780Y130315D01*
X157310Y131108D01*
X157496Y132045D01*
X157310Y132981D01*
X156780Y133775D01*
X155986Y134306D01*
X155049Y134492D01*
D02*
G37*
G36*
X176046Y114047D02*
X175109Y113861D01*
X174316Y113330D01*
X173785Y112536D01*
X173599Y111600D01*
X173785Y110664D01*
X174316Y109870D01*
X175109Y109339D01*
X176046Y109153D01*
X176982Y109339D01*
X177776Y109870D01*
X178307Y110664D01*
X178493Y111600D01*
X178307Y112536D01*
X177776Y113330D01*
X176982Y113861D01*
X176046Y114047D01*
D02*
G37*
G36*
X34600Y127300D02*
X26809D01*
X27233Y126278D01*
X28034Y125234D01*
X29078Y124433D01*
X30295Y123929D01*
X31600Y123757D01*
X34600D01*
Y127300D01*
D02*
G37*
G36*
X188345Y208798D02*
X187408Y208611D01*
X186615Y208081D01*
X186084Y207287D01*
X185898Y206351D01*
X186084Y205414D01*
X186615Y204621D01*
X187408Y204090D01*
X188345Y203904D01*
X189281Y204090D01*
X190075Y204621D01*
X190606Y205414D01*
X190792Y206351D01*
X190606Y207287D01*
X190075Y208081D01*
X189281Y208611D01*
X188345Y208798D01*
D02*
G37*
G36*
X119458Y220947D02*
X118521Y220761D01*
X117727Y220230D01*
X117197Y219436D01*
X117011Y218500D01*
X117197Y217564D01*
X117727Y216770D01*
X118521Y216239D01*
X119458Y216053D01*
X120394Y216239D01*
X120551Y216344D01*
X131476Y205419D01*
X131973Y205087D01*
X132558Y204971D01*
X170135D01*
X170270Y204770D01*
X171064Y204239D01*
X172000Y204053D01*
X172936Y204239D01*
X173730Y204770D01*
X174261Y205564D01*
X174447Y206500D01*
X174261Y207436D01*
X173730Y208230D01*
X172936Y208761D01*
X172000Y208947D01*
X171064Y208761D01*
X170270Y208230D01*
X170135Y208029D01*
X133191D01*
X121639Y219581D01*
X121607Y219603D01*
X121188Y220230D01*
X120394Y220761D01*
X119458Y220947D01*
D02*
G37*
G36*
X385000Y302447D02*
X384064Y302261D01*
X383270Y301730D01*
X382739Y300936D01*
X382553Y300000D01*
X382739Y299064D01*
X383270Y298270D01*
X383471Y298135D01*
Y207864D01*
X383270Y207730D01*
X382739Y206936D01*
X382553Y206000D01*
X382739Y205064D01*
X383270Y204270D01*
X384064Y203739D01*
X385000Y203553D01*
X385936Y203739D01*
X386730Y204270D01*
X387261Y205064D01*
X387447Y206000D01*
X387261Y206936D01*
X386730Y207730D01*
X386529Y207864D01*
Y298135D01*
X386730Y298270D01*
X387261Y299064D01*
X387447Y300000D01*
X387261Y300936D01*
X386730Y301730D01*
X385936Y302261D01*
X385000Y302447D01*
D02*
G37*
G36*
X182845Y208798D02*
X181909Y208611D01*
X181115Y208081D01*
X180584Y207287D01*
X180398Y206351D01*
X180584Y205414D01*
X181115Y204621D01*
X181909Y204090D01*
X182845Y203904D01*
X183781Y204090D01*
X184575Y204621D01*
X185106Y205414D01*
X185292Y206351D01*
X185106Y207287D01*
X184575Y208081D01*
X183781Y208611D01*
X182845Y208798D01*
D02*
G37*
G36*
X224300Y251447D02*
X223364Y251261D01*
X222570Y250730D01*
X222039Y249936D01*
X221853Y249000D01*
X222039Y248064D01*
X222570Y247270D01*
X223364Y246739D01*
X224300Y246553D01*
X224537Y246600D01*
X231771Y239367D01*
Y213334D01*
X227237Y208800D01*
X227000Y208847D01*
X226064Y208661D01*
X225270Y208130D01*
X224739Y207336D01*
X224553Y206400D01*
X224739Y205464D01*
X225270Y204670D01*
X226064Y204139D01*
X227000Y203953D01*
X227936Y204139D01*
X228730Y204670D01*
X229261Y205464D01*
X229414Y206233D01*
X229476Y206276D01*
X229693Y206210D01*
X230080Y205964D01*
X230239Y205164D01*
X230770Y204370D01*
X231564Y203839D01*
X232500Y203653D01*
X233436Y203839D01*
X234230Y204370D01*
X234761Y205164D01*
X234947Y206100D01*
X234900Y206337D01*
X237681Y209119D01*
X238013Y209615D01*
X238129Y210200D01*
Y240335D01*
X238330Y240470D01*
X238861Y241264D01*
X239047Y242200D01*
X238861Y243136D01*
X238330Y243930D01*
X237536Y244461D01*
X236600Y244647D01*
X235664Y244461D01*
X234870Y243930D01*
X234339Y243136D01*
X234153Y242200D01*
X234163Y242148D01*
X233610Y241852D01*
X226700Y248763D01*
X226747Y249000D01*
X226561Y249936D01*
X226030Y250730D01*
X225236Y251261D01*
X224300Y251447D01*
D02*
G37*
G36*
X335800Y221787D02*
X334690Y221641D01*
X333657Y221212D01*
X332769Y220531D01*
X332088Y219643D01*
X331659Y218609D01*
X331513Y217500D01*
X331659Y216390D01*
X332088Y215357D01*
X332769Y214469D01*
X333657Y213788D01*
X334690Y213359D01*
X335800Y213213D01*
X336910Y213359D01*
X337943Y213788D01*
X338831Y214469D01*
X339512Y215357D01*
X339941Y216390D01*
X340087Y217500D01*
X339941Y218609D01*
X339512Y219643D01*
X338831Y220531D01*
X337943Y221212D01*
X336910Y221641D01*
X335800Y221787D01*
D02*
G37*
G36*
X345800D02*
X344690Y221641D01*
X343657Y221212D01*
X342769Y220531D01*
X342088Y219643D01*
X341659Y218609D01*
X341513Y217500D01*
X341659Y216390D01*
X342088Y215357D01*
X342769Y214469D01*
X343657Y213788D01*
X344690Y213359D01*
X345800Y213213D01*
X346909Y213359D01*
X347943Y213788D01*
X348831Y214469D01*
X349512Y215357D01*
X349941Y216390D01*
X350087Y217500D01*
X349941Y218609D01*
X349512Y219643D01*
X348831Y220531D01*
X347943Y221212D01*
X346909Y221641D01*
X345800Y221787D01*
D02*
G37*
G36*
X334300Y211770D02*
X332550D01*
X332160Y211692D01*
X331829Y211471D01*
X331608Y211140D01*
X331530Y210750D01*
Y209000D01*
X334300D01*
Y211770D01*
D02*
G37*
G36*
X339050D02*
X337300D01*
Y209000D01*
X340070D01*
Y210750D01*
X339992Y211140D01*
X339771Y211471D01*
X339440Y211692D01*
X339050Y211770D01*
D02*
G37*
G36*
X340070Y206000D02*
X337300D01*
Y203230D01*
X339050D01*
X339440Y203308D01*
X339771Y203529D01*
X339992Y203860D01*
X340070Y204250D01*
Y206000D01*
D02*
G37*
G36*
X268000Y179429D02*
X267112Y179313D01*
X266285Y178970D01*
X265575Y178425D01*
X265030Y177715D01*
X264687Y176888D01*
X264571Y176000D01*
X264687Y175112D01*
X265030Y174285D01*
X265575Y173575D01*
X266285Y173030D01*
X267112Y172687D01*
X268000Y172571D01*
X268888Y172687D01*
X269715Y173030D01*
X270425Y173575D01*
X270970Y174285D01*
X271312Y175112D01*
X271429Y176000D01*
X271312Y176888D01*
X270970Y177715D01*
X270425Y178425D01*
X269715Y178970D01*
X268888Y179313D01*
X268000Y179429D01*
D02*
G37*
G36*
X155049Y185448D02*
X154113Y185261D01*
X153319Y184731D01*
X153185Y184530D01*
X135874D01*
X135289Y184413D01*
X134793Y184082D01*
X123486Y172775D01*
X123249Y172822D01*
X122313Y172636D01*
X121519Y172106D01*
X120989Y171312D01*
X120802Y170375D01*
X120989Y169439D01*
X121519Y168645D01*
X122313Y168114D01*
X123249Y167928D01*
X124186Y168114D01*
X124979Y168645D01*
X125510Y169439D01*
X125696Y170375D01*
X125649Y170612D01*
X136508Y181471D01*
X153185D01*
X153319Y181270D01*
X154113Y180740D01*
X155049Y180553D01*
X155986Y180740D01*
X156780Y181270D01*
X157310Y182064D01*
X157496Y183000D01*
X157310Y183937D01*
X156780Y184731D01*
X155986Y185261D01*
X155049Y185448D01*
D02*
G37*
G36*
Y163447D02*
X154113Y163261D01*
X153319Y162731D01*
X152788Y161937D01*
X152602Y161001D01*
X152788Y160064D01*
X153319Y159270D01*
X154113Y158740D01*
X155049Y158553D01*
X155986Y158740D01*
X156780Y159270D01*
X157310Y160064D01*
X157496Y161001D01*
X157310Y161937D01*
X156780Y162731D01*
X155986Y163261D01*
X155049Y163447D01*
D02*
G37*
G36*
X118500Y176447D02*
X117564Y176261D01*
X116770Y175730D01*
X116239Y174936D01*
X116053Y174000D01*
X116239Y173064D01*
X116770Y172270D01*
X117564Y171739D01*
X118500Y171553D01*
X119436Y171739D01*
X120230Y172270D01*
X120761Y173064D01*
X120947Y174000D01*
X120761Y174936D01*
X120230Y175730D01*
X119436Y176261D01*
X118500Y176447D01*
D02*
G37*
G36*
X253000Y189947D02*
X252064Y189761D01*
X251270Y189230D01*
X250739Y188436D01*
X250553Y187500D01*
X250739Y186564D01*
X251270Y185770D01*
X252064Y185239D01*
X253000Y185053D01*
X253936Y185239D01*
X254730Y185770D01*
X255261Y186564D01*
X255447Y187500D01*
X255261Y188436D01*
X254730Y189230D01*
X253936Y189761D01*
X253000Y189947D01*
D02*
G37*
G36*
X381300Y316329D02*
X307900D01*
X307315Y316213D01*
X306819Y315881D01*
X287070Y296133D01*
X287000Y296147D01*
X286064Y295961D01*
X285270Y295430D01*
X284739Y294636D01*
X284553Y293700D01*
X284739Y292764D01*
X285270Y291970D01*
X286064Y291439D01*
X287000Y291253D01*
X287936Y291439D01*
X288730Y291970D01*
X289261Y292764D01*
X289447Y293700D01*
X289367Y294104D01*
X308534Y313271D01*
X380666D01*
X389071Y304867D01*
Y203158D01*
X388237Y202325D01*
X388000Y202372D01*
X387064Y202185D01*
X386270Y201655D01*
X385739Y200861D01*
X385553Y199925D01*
X385739Y198988D01*
X386270Y198194D01*
X387064Y197664D01*
X388000Y197478D01*
X388936Y197664D01*
X389730Y198194D01*
X390261Y198988D01*
X390447Y199925D01*
X390400Y200162D01*
X391681Y201443D01*
X392013Y201939D01*
X392129Y202525D01*
Y305500D01*
X392013Y306085D01*
X391681Y306581D01*
X382381Y315881D01*
X381885Y316213D01*
X381300Y316329D01*
D02*
G37*
G36*
X334300Y206000D02*
X331530D01*
Y204250D01*
X331608Y203860D01*
X331829Y203529D01*
X332160Y203308D01*
X332550Y203230D01*
X334300D01*
Y206000D01*
D02*
G37*
G36*
X253000Y195447D02*
X252064Y195261D01*
X251270Y194730D01*
X250739Y193936D01*
X250553Y193000D01*
X250739Y192064D01*
X251270Y191270D01*
X252064Y190739D01*
X253000Y190553D01*
X253936Y190739D01*
X254730Y191270D01*
X255261Y192064D01*
X255447Y193000D01*
X255261Y193936D01*
X254730Y194730D01*
X253936Y195261D01*
X253000Y195447D01*
D02*
G37*
G36*
X274000Y220047D02*
X273064Y219861D01*
X272270Y219330D01*
X271739Y218536D01*
X271553Y217600D01*
X271739Y216664D01*
X272270Y215870D01*
X272471Y215736D01*
Y204198D01*
X272070Y203930D01*
X271539Y203136D01*
X271353Y202200D01*
X271539Y201264D01*
X272070Y200470D01*
X272864Y199939D01*
X273800Y199753D01*
X274736Y199939D01*
X275530Y200470D01*
X276061Y201264D01*
X276247Y202200D01*
X276061Y203136D01*
X275530Y203930D01*
X275529Y203931D01*
Y215736D01*
X275730Y215870D01*
X276261Y216664D01*
X276447Y217600D01*
X276261Y218536D01*
X275730Y219330D01*
X274936Y219861D01*
X274000Y220047D01*
D02*
G37*
G36*
X227979Y42500D02*
X225500D01*
Y40021D01*
X226143Y40288D01*
X227031Y40969D01*
X227712Y41857D01*
X227979Y42500D01*
D02*
G37*
G36*
X38988Y59129D02*
X32412D01*
X32022Y59052D01*
X31691Y58831D01*
X28403Y55543D01*
X28403Y55543D01*
X28182Y55212D01*
X28105Y54822D01*
Y48246D01*
X28182Y47856D01*
X28403Y47525D01*
X31691Y44238D01*
X32022Y44016D01*
X32412Y43939D01*
X38988D01*
X39378Y44016D01*
X39709Y44238D01*
X42996Y47525D01*
X42997Y47525D01*
X43218Y47856D01*
X43295Y48246D01*
Y54822D01*
X43218Y55212D01*
X42997Y55543D01*
X39709Y58831D01*
X39378Y59052D01*
X38988Y59129D01*
D02*
G37*
G36*
X68681Y39970D02*
X67744Y39783D01*
X66950Y39253D01*
X66420Y38459D01*
X66233Y37523D01*
X66420Y36586D01*
X66950Y35792D01*
X67744Y35262D01*
X68681Y35076D01*
X69617Y35262D01*
X70411Y35792D01*
X70941Y36586D01*
X71128Y37523D01*
X70941Y38459D01*
X70411Y39253D01*
X69617Y39783D01*
X68681Y39970D01*
D02*
G37*
G36*
X222500Y42500D02*
X220021D01*
X220288Y41857D01*
X220969Y40969D01*
X221857Y40288D01*
X222500Y40021D01*
Y42500D01*
D02*
G37*
G36*
Y47979D02*
X221857Y47712D01*
X220969Y47031D01*
X220288Y46143D01*
X220021Y45500D01*
X222500D01*
Y47979D01*
D02*
G37*
G36*
X144643Y60790D02*
X143706Y60604D01*
X142912Y60073D01*
X142382Y59279D01*
X142196Y58343D01*
X142382Y57406D01*
X142912Y56612D01*
X143706Y56082D01*
X144643Y55896D01*
X145579Y56082D01*
X146373Y56612D01*
X146904Y57406D01*
X147090Y58343D01*
X146904Y59279D01*
X146373Y60073D01*
X145579Y60604D01*
X144643Y60790D01*
D02*
G37*
G36*
X229223Y113898D02*
X228286Y113712D01*
X227492Y113181D01*
X226962Y112387D01*
X226776Y111451D01*
X226962Y110514D01*
X227492Y109721D01*
X227693Y109586D01*
Y103756D01*
X214619Y90681D01*
X214287Y90185D01*
X214171Y89600D01*
Y68400D01*
X214287Y67815D01*
X214619Y67319D01*
X219019Y62919D01*
X219515Y62587D01*
X220027Y62485D01*
X220288Y61857D01*
X220969Y60969D01*
X221857Y60288D01*
X222890Y59859D01*
X224000Y59713D01*
X225110Y59859D01*
X226143Y60288D01*
X227031Y60969D01*
X227712Y61857D01*
X228141Y62890D01*
X228287Y64000D01*
X228141Y65109D01*
X227712Y66143D01*
X227031Y67031D01*
X226143Y67712D01*
X225110Y68141D01*
X224000Y68287D01*
X222890Y68141D01*
X221857Y67712D01*
X220969Y67031D01*
X220583Y66528D01*
X219799Y66463D01*
X217229Y69033D01*
Y88967D01*
X230304Y102041D01*
X230636Y102537D01*
X230752Y103123D01*
Y109586D01*
X230953Y109721D01*
X231483Y110514D01*
X231670Y111451D01*
X231483Y112387D01*
X230953Y113181D01*
X230159Y113712D01*
X229223Y113898D01*
D02*
G37*
G36*
X225500Y47979D02*
Y45500D01*
X227979D01*
X227712Y46143D01*
X227031Y47031D01*
X226143Y47712D01*
X225500Y47979D01*
D02*
G37*
G36*
X223678Y114047D02*
X222741Y113861D01*
X221948Y113330D01*
X221417Y112536D01*
X221231Y111600D01*
X221417Y110664D01*
X221948Y109870D01*
X222148Y109736D01*
Y106011D01*
X210819Y94681D01*
X210487Y94185D01*
X210371Y93600D01*
Y66100D01*
X210487Y65515D01*
X210819Y65019D01*
X220114Y55723D01*
X219859Y55110D01*
X219713Y54000D01*
X219859Y52890D01*
X220288Y51857D01*
X220969Y50969D01*
X221857Y50288D01*
X222890Y49859D01*
X224000Y49713D01*
X225110Y49859D01*
X226143Y50288D01*
X227031Y50969D01*
X227712Y51857D01*
X228141Y52890D01*
X228287Y54000D01*
X228141Y55110D01*
X227712Y56143D01*
X227031Y57031D01*
X226143Y57712D01*
X225110Y58141D01*
X224000Y58287D01*
X222890Y58141D01*
X222277Y57886D01*
X213429Y66733D01*
Y92967D01*
X224759Y104296D01*
X225091Y104792D01*
X225207Y105378D01*
Y109736D01*
X225408Y109870D01*
X225939Y110664D01*
X226125Y111600D01*
X225939Y112536D01*
X225408Y113330D01*
X224614Y113861D01*
X223678Y114047D01*
D02*
G37*
G36*
X224000Y38287D02*
X222890Y38141D01*
X221857Y37712D01*
X220969Y37031D01*
X220288Y36143D01*
X219859Y35109D01*
X219713Y34000D01*
X219859Y32890D01*
X220288Y31857D01*
X220969Y30969D01*
X221857Y30288D01*
X222890Y29859D01*
X224000Y29713D01*
X225110Y29859D01*
X226143Y30288D01*
X227031Y30969D01*
X227712Y31857D01*
X228141Y32890D01*
X228287Y34000D01*
X228141Y35109D01*
X227712Y36143D01*
X227031Y37031D01*
X226143Y37712D01*
X225110Y38141D01*
X224000Y38287D01*
D02*
G37*
G36*
X26758Y26500D02*
X17500D01*
Y17242D01*
X17701Y17258D01*
X19361Y17656D01*
X20938Y18309D01*
X22393Y19201D01*
X23690Y20310D01*
X24799Y21607D01*
X25691Y23062D01*
X26344Y24639D01*
X26742Y26299D01*
X26758Y26500D01*
D02*
G37*
G36*
X389758D02*
X380500D01*
Y17242D01*
X380701Y17258D01*
X382361Y17656D01*
X383938Y18309D01*
X385393Y19201D01*
X386690Y20310D01*
X387799Y21607D01*
X388691Y23062D01*
X389344Y24639D01*
X389742Y26299D01*
X389758Y26500D01*
D02*
G37*
G36*
X377500D02*
X368242D01*
X368258Y26299D01*
X368656Y24639D01*
X369309Y23062D01*
X370201Y21607D01*
X371309Y20310D01*
X372607Y19201D01*
X374062Y18309D01*
X375639Y17656D01*
X377299Y17258D01*
X377500Y17242D01*
Y26500D01*
D02*
G37*
G36*
X14500D02*
X5242D01*
X5258Y26299D01*
X5656Y24639D01*
X6309Y23062D01*
X7201Y21607D01*
X8309Y20310D01*
X9607Y19201D01*
X11062Y18309D01*
X12639Y17656D01*
X14299Y17258D01*
X14500Y17242D01*
Y26500D01*
D02*
G37*
G36*
X224000Y28287D02*
X222890Y28141D01*
X221857Y27712D01*
X220969Y27031D01*
X220288Y26143D01*
X219859Y25109D01*
X219713Y24000D01*
X219859Y22891D01*
X220288Y21857D01*
X220969Y20969D01*
X221857Y20288D01*
X222890Y19859D01*
X224000Y19713D01*
X225110Y19859D01*
X226143Y20288D01*
X227031Y20969D01*
X227712Y21857D01*
X228141Y22891D01*
X228287Y24000D01*
X228141Y25109D01*
X227712Y26143D01*
X227031Y27031D01*
X226143Y27712D01*
X225110Y28141D01*
X224000Y28287D01*
D02*
G37*
G36*
X17500Y38758D02*
Y29500D01*
X26758D01*
X26742Y29701D01*
X26344Y31361D01*
X25691Y32938D01*
X24799Y34393D01*
X23690Y35691D01*
X22393Y36799D01*
X20938Y37691D01*
X19361Y38344D01*
X17701Y38742D01*
X17500Y38758D01*
D02*
G37*
G36*
X380500D02*
Y29500D01*
X389758D01*
X389742Y29701D01*
X389344Y31361D01*
X388691Y32938D01*
X387799Y34393D01*
X386690Y35691D01*
X385393Y36799D01*
X383938Y37691D01*
X382361Y38344D01*
X380701Y38742D01*
X380500Y38758D01*
D02*
G37*
G36*
X377500D02*
X377299Y38742D01*
X375639Y38344D01*
X374062Y37691D01*
X372607Y36799D01*
X371309Y35691D01*
X370201Y34393D01*
X369309Y32938D01*
X368656Y31361D01*
X368258Y29701D01*
X368242Y29500D01*
X377500D01*
Y38758D01*
D02*
G37*
G36*
X14500D02*
X14299Y38742D01*
X12639Y38344D01*
X11062Y37691D01*
X9607Y36799D01*
X8309Y35691D01*
X7201Y34393D01*
X6309Y32938D01*
X5656Y31361D01*
X5258Y29701D01*
X5242Y29500D01*
X14500D01*
Y38758D01*
D02*
G37*
G36*
X126250Y90770D02*
X119750D01*
X119360Y90692D01*
X119029Y90471D01*
X118808Y90140D01*
X118730Y89750D01*
Y83250D01*
X118808Y82860D01*
X119029Y82529D01*
X119360Y82308D01*
X119750Y82230D01*
X126250D01*
X126640Y82308D01*
X126971Y82529D01*
X127192Y82860D01*
X127270Y83250D01*
Y89750D01*
X127192Y90140D01*
X126971Y90471D01*
X126640Y90692D01*
X126250Y90770D01*
D02*
G37*
G36*
X345800Y94587D02*
X344690Y94441D01*
X343657Y94012D01*
X342769Y93331D01*
X342088Y92443D01*
X341659Y91409D01*
X341513Y90300D01*
X341659Y89191D01*
X342088Y88157D01*
X342769Y87269D01*
X343657Y86588D01*
X344690Y86159D01*
X345800Y86013D01*
X346909Y86159D01*
X347943Y86588D01*
X348831Y87269D01*
X349512Y88157D01*
X349941Y89191D01*
X350087Y90300D01*
X349941Y91409D01*
X349512Y92443D01*
X348831Y93331D01*
X347943Y94012D01*
X346909Y94441D01*
X345800Y94587D01*
D02*
G37*
G36*
X197811Y96164D02*
X196875Y95978D01*
X196081Y95447D01*
X195550Y94653D01*
X195364Y93717D01*
X195478Y93141D01*
X190352Y88015D01*
X190021Y87519D01*
X189905Y86934D01*
Y78865D01*
X189704Y78730D01*
X189173Y77936D01*
X188987Y77000D01*
X189173Y76064D01*
X189704Y75270D01*
X190498Y74739D01*
X191434Y74553D01*
X192370Y74739D01*
X193164Y75270D01*
X193695Y76064D01*
X193881Y77000D01*
X193695Y77936D01*
X193164Y78730D01*
X192963Y78865D01*
Y86300D01*
X197963Y91300D01*
X198747Y91456D01*
X199541Y91987D01*
X200072Y92781D01*
X200258Y93717D01*
X200072Y94653D01*
X199541Y95447D01*
X198747Y95978D01*
X197811Y96164D01*
D02*
G37*
G36*
X163000Y90787D02*
X161890Y90641D01*
X160857Y90212D01*
X159969Y89531D01*
X159288Y88643D01*
X158859Y87609D01*
X158713Y86500D01*
X158859Y85391D01*
X159288Y84357D01*
X159969Y83469D01*
X160857Y82788D01*
X161890Y82359D01*
X163000Y82213D01*
X164110Y82359D01*
X165143Y82788D01*
X166031Y83469D01*
X166712Y84357D01*
X167141Y85391D01*
X167287Y86500D01*
X167141Y87609D01*
X166712Y88643D01*
X166031Y89531D01*
X165143Y90212D01*
X164110Y90641D01*
X163000Y90787D01*
D02*
G37*
G36*
X334300Y88800D02*
X331530D01*
Y87050D01*
X331608Y86660D01*
X331829Y86329D01*
X332160Y86108D01*
X332550Y86030D01*
X334300D01*
Y88800D01*
D02*
G37*
G36*
Y94570D02*
X332550D01*
X332160Y94492D01*
X331829Y94271D01*
X331608Y93940D01*
X331530Y93550D01*
Y91800D01*
X334300D01*
Y94570D01*
D02*
G37*
G36*
X339050D02*
X337300D01*
Y91800D01*
X340070D01*
Y93550D01*
X339992Y93940D01*
X339771Y94271D01*
X339440Y94492D01*
X339050Y94570D01*
D02*
G37*
G36*
X340070Y88800D02*
X337300D01*
Y86030D01*
X339050D01*
X339440Y86108D01*
X339771Y86329D01*
X339992Y86660D01*
X340070Y87050D01*
Y88800D01*
D02*
G37*
G36*
X49174Y95018D02*
X43564D01*
X42571Y94887D01*
X41645Y94504D01*
X40850Y93894D01*
X40240Y93099D01*
X39857Y92173D01*
X39726Y91180D01*
X39857Y90187D01*
X40240Y89261D01*
X40850Y88466D01*
X41645Y87856D01*
X42571Y87473D01*
X43564Y87342D01*
X49174D01*
X50167Y87473D01*
X51093Y87856D01*
X51888Y88466D01*
X52498Y89261D01*
X52881Y90187D01*
X53012Y91180D01*
X52881Y92173D01*
X52498Y93099D01*
X51888Y93894D01*
X51093Y94504D01*
X50167Y94887D01*
X49174Y95018D01*
D02*
G37*
G36*
X153000Y90787D02*
X151891Y90641D01*
X150857Y90212D01*
X149969Y89531D01*
X149288Y88643D01*
X148859Y87609D01*
X148713Y86500D01*
X148859Y85391D01*
X149288Y84357D01*
X149969Y83469D01*
X150857Y82788D01*
X151471Y82533D01*
Y77233D01*
X150276Y76039D01*
X149944Y75542D01*
X149841Y75023D01*
X149627Y74880D01*
X149097Y74086D01*
X148911Y73150D01*
X149097Y72214D01*
X149627Y71420D01*
X150421Y70889D01*
X151358Y70703D01*
X152294Y70889D01*
X153088Y71420D01*
X153618Y72214D01*
X153805Y73150D01*
X153618Y74086D01*
X153230Y74667D01*
X154081Y75519D01*
X154413Y76015D01*
X154529Y76600D01*
Y82533D01*
X155143Y82788D01*
X156031Y83469D01*
X156712Y84357D01*
X157141Y85391D01*
X157287Y86500D01*
X157141Y87609D01*
X156712Y88643D01*
X156031Y89531D01*
X155143Y90212D01*
X154110Y90641D01*
X153000Y90787D01*
D02*
G37*
G36*
X44869Y67458D02*
X43564D01*
X42571Y67327D01*
X41645Y66944D01*
X40850Y66334D01*
X40240Y65539D01*
X40067Y65120D01*
X44869D01*
Y67458D01*
D02*
G37*
G36*
X49174D02*
X47869D01*
Y65120D01*
X52671D01*
X52498Y65539D01*
X51888Y66334D01*
X51093Y66944D01*
X50167Y67327D01*
X49174Y67458D01*
D02*
G37*
G36*
X44869Y62120D02*
X40067D01*
X40240Y61701D01*
X40850Y60906D01*
X41645Y60296D01*
X42571Y59913D01*
X43564Y59782D01*
X44869D01*
Y62120D01*
D02*
G37*
G36*
X52671D02*
X47869D01*
Y59782D01*
X49174D01*
X50167Y59913D01*
X51093Y60296D01*
X51888Y60906D01*
X52498Y61701D01*
X52671Y62120D01*
D02*
G37*
G36*
X49174Y85175D02*
X43564D01*
X42571Y85044D01*
X41645Y84661D01*
X40850Y84051D01*
X40240Y83256D01*
X39857Y82330D01*
X39726Y81337D01*
X39857Y80344D01*
X40240Y79418D01*
X40850Y78623D01*
X41645Y78013D01*
X42343Y77724D01*
Y77076D01*
X41645Y76787D01*
X40850Y76177D01*
X40240Y75382D01*
X39857Y74456D01*
X39726Y73463D01*
X39857Y72470D01*
X40240Y71544D01*
X40850Y70749D01*
X41645Y70139D01*
X42571Y69756D01*
X43564Y69625D01*
X49174D01*
X50167Y69756D01*
X51093Y70139D01*
X51888Y70749D01*
X52498Y71544D01*
X52881Y72470D01*
X53012Y73463D01*
X52881Y74456D01*
X52498Y75382D01*
X51888Y76177D01*
X51093Y76787D01*
X50395Y77076D01*
Y77724D01*
X51093Y78013D01*
X51888Y78623D01*
X52498Y79418D01*
X52881Y80344D01*
X53012Y81337D01*
X52881Y82330D01*
X52498Y83256D01*
X51888Y84051D01*
X51093Y84661D01*
X50167Y85044D01*
X49174Y85175D01*
D02*
G37*
G36*
X143000Y90787D02*
X141891Y90641D01*
X140857Y90212D01*
X139969Y89531D01*
X139288Y88643D01*
X138859Y87609D01*
X138713Y86500D01*
X138859Y85391D01*
X139288Y84357D01*
X139969Y83469D01*
X140857Y82788D01*
X141471Y82533D01*
Y80734D01*
X136847Y76110D01*
X136516Y75614D01*
X136399Y75029D01*
Y74817D01*
X136270Y74730D01*
X135739Y73936D01*
X135553Y73000D01*
X135739Y72064D01*
X136270Y71270D01*
X137064Y70739D01*
X138000Y70553D01*
X138936Y70739D01*
X139730Y71270D01*
X140261Y72064D01*
X140447Y73000D01*
X140261Y73936D01*
X139755Y74693D01*
X144081Y79019D01*
X144413Y79515D01*
X144529Y80100D01*
Y82533D01*
X145143Y82788D01*
X146031Y83469D01*
X146712Y84357D01*
X147141Y85391D01*
X147287Y86500D01*
X147141Y87609D01*
X146712Y88643D01*
X146031Y89531D01*
X145143Y90212D01*
X144109Y90641D01*
X143000Y90787D01*
D02*
G37*
G36*
X173000D02*
X171890Y90641D01*
X170857Y90212D01*
X169969Y89531D01*
X169288Y88643D01*
X168859Y87609D01*
X168713Y86500D01*
X168859Y85391D01*
X169288Y84357D01*
X169969Y83469D01*
X170857Y82788D01*
X171471Y82533D01*
Y77634D01*
X170419Y76581D01*
X170087Y76085D01*
X169971Y75500D01*
Y74865D01*
X169770Y74730D01*
X169239Y73936D01*
X169053Y73000D01*
X169239Y72064D01*
X169770Y71270D01*
X170563Y70739D01*
X171500Y70553D01*
X172436Y70739D01*
X173230Y71270D01*
X173761Y72064D01*
X173947Y73000D01*
X173761Y73936D01*
X173230Y74730D01*
X173461Y75298D01*
X174081Y75919D01*
X174413Y76415D01*
X174529Y77000D01*
Y82533D01*
X175143Y82788D01*
X176031Y83469D01*
X176712Y84357D01*
X177141Y85391D01*
X177287Y86500D01*
X177141Y87609D01*
X176712Y88643D01*
X176031Y89531D01*
X175143Y90212D01*
X174109Y90641D01*
X173000Y90787D01*
D02*
G37*
G36*
X227250Y78270D02*
X220750D01*
X220360Y78192D01*
X220029Y77971D01*
X219808Y77640D01*
X219730Y77250D01*
Y70750D01*
X219808Y70360D01*
X220029Y70029D01*
X220360Y69808D01*
X220750Y69730D01*
X227250D01*
X227640Y69808D01*
X227971Y70029D01*
X228192Y70360D01*
X228270Y70750D01*
Y77250D01*
X228192Y77640D01*
X227971Y77971D01*
X227640Y78192D01*
X227250Y78270D01*
D02*
G37*
G36*
X133000Y90787D02*
X131890Y90641D01*
X130857Y90212D01*
X129969Y89531D01*
X129288Y88643D01*
X128859Y87609D01*
X128713Y86500D01*
X128859Y85391D01*
X129288Y84357D01*
X129685Y83839D01*
Y74865D01*
X129484Y74730D01*
X128954Y73936D01*
X128767Y73000D01*
X128954Y72064D01*
X129484Y71270D01*
X130278Y70739D01*
X131214Y70553D01*
X132151Y70739D01*
X132945Y71270D01*
X133475Y72064D01*
X133661Y73000D01*
X133475Y73936D01*
X132945Y74730D01*
X132744Y74865D01*
Y81989D01*
X133000Y82213D01*
X134109Y82359D01*
X135143Y82788D01*
X136031Y83469D01*
X136712Y84357D01*
X137141Y85391D01*
X137287Y86500D01*
X137141Y87609D01*
X136712Y88643D01*
X136031Y89531D01*
X135143Y90212D01*
X134109Y90641D01*
X133000Y90787D01*
D02*
G37*
G36*
X194800Y360079D02*
Y357600D01*
X197279D01*
X197012Y358243D01*
X196331Y359131D01*
X195443Y359812D01*
X194800Y360079D01*
D02*
G37*
G36*
X267800D02*
Y357600D01*
X270279D01*
X270012Y358243D01*
X269331Y359131D01*
X268443Y359812D01*
X267800Y360079D01*
D02*
G37*
G36*
X48200D02*
Y357600D01*
X50679D01*
X50412Y358243D01*
X49731Y359131D01*
X48843Y359812D01*
X48200Y360079D01*
D02*
G37*
G36*
X123300D02*
Y357600D01*
X125779D01*
X125512Y358243D01*
X124831Y359131D01*
X123943Y359812D01*
X123300Y360079D01*
D02*
G37*
G36*
X70820Y383282D02*
X69608Y383122D01*
X68479Y382654D01*
X67510Y381910D01*
X66766Y380941D01*
X66298Y379812D01*
X66138Y378600D01*
X66298Y377388D01*
X66766Y376259D01*
X67510Y375290D01*
X68479Y374546D01*
X69608Y374078D01*
X70820Y373918D01*
X72032Y374078D01*
X73161Y374546D01*
X74130Y375290D01*
X74874Y376259D01*
X75342Y377388D01*
X75502Y378600D01*
X75342Y379812D01*
X74874Y380941D01*
X74130Y381910D01*
X73161Y382654D01*
X72032Y383122D01*
X70820Y383282D01*
D02*
G37*
G36*
X290610D02*
X289398Y383122D01*
X288269Y382654D01*
X287300Y381910D01*
X286556Y380941D01*
X286088Y379812D01*
X285929Y378600D01*
X286088Y377388D01*
X286556Y376259D01*
X287300Y375290D01*
X288269Y374546D01*
X289398Y374078D01*
X290610Y373918D01*
X291822Y374078D01*
X292951Y374546D01*
X293920Y375290D01*
X294664Y376259D01*
X295132Y377388D01*
X295292Y378600D01*
X295132Y379812D01*
X294664Y380941D01*
X293920Y381910D01*
X292951Y382654D01*
X291822Y383122D01*
X290610Y383282D01*
D02*
G37*
G36*
X88241Y383261D02*
X80958D01*
X80568Y383184D01*
X80238Y382962D01*
X80016Y382632D01*
X79939Y382242D01*
Y374958D01*
X80016Y374568D01*
X80238Y374237D01*
X80568Y374016D01*
X80958Y373939D01*
X88241D01*
X88632Y374016D01*
X88963Y374237D01*
X89183Y374568D01*
X89261Y374958D01*
Y382242D01*
X89183Y382632D01*
X88963Y382962D01*
X88632Y383184D01*
X88241Y383261D01*
D02*
G37*
G36*
X146110Y383282D02*
X144898Y383122D01*
X143769Y382654D01*
X142800Y381910D01*
X142056Y380941D01*
X141588Y379812D01*
X141428Y378600D01*
X141588Y377388D01*
X142056Y376259D01*
X142800Y375290D01*
X143769Y374546D01*
X144898Y374078D01*
X146110Y373918D01*
X147322Y374078D01*
X148451Y374546D01*
X149420Y375290D01*
X150164Y376259D01*
X150632Y377388D01*
X150792Y378600D01*
X150632Y379812D01*
X150164Y380941D01*
X149420Y381910D01*
X148451Y382654D01*
X147322Y383122D01*
X146110Y383282D01*
D02*
G37*
G36*
X217610D02*
X216398Y383122D01*
X215269Y382654D01*
X214300Y381910D01*
X213556Y380941D01*
X213088Y379812D01*
X212929Y378600D01*
X213088Y377388D01*
X213556Y376259D01*
X214300Y375290D01*
X215269Y374546D01*
X216398Y374078D01*
X217610Y373918D01*
X218822Y374078D01*
X219951Y374546D01*
X220920Y375290D01*
X221664Y376259D01*
X222132Y377388D01*
X222292Y378600D01*
X222132Y379812D01*
X221664Y380941D01*
X220920Y381910D01*
X219951Y382654D01*
X218822Y383122D01*
X217610Y383282D01*
D02*
G37*
G36*
X264800Y360079D02*
X264157Y359812D01*
X263269Y359131D01*
X262588Y358243D01*
X262321Y357600D01*
X264800D01*
Y360079D01*
D02*
G37*
G36*
X197279Y354600D02*
X194800D01*
Y352121D01*
X195443Y352388D01*
X196331Y353069D01*
X197012Y353957D01*
X197279Y354600D01*
D02*
G37*
G36*
X50679D02*
X48200D01*
Y352121D01*
X48843Y352388D01*
X49731Y353069D01*
X50412Y353957D01*
X50679Y354600D01*
D02*
G37*
G36*
X191800D02*
X189321D01*
X189588Y353957D01*
X190269Y353069D01*
X191157Y352388D01*
X191800Y352121D01*
Y354600D01*
D02*
G37*
G36*
X264800D02*
X262321D01*
X262588Y353957D01*
X263269Y353069D01*
X264157Y352388D01*
X264800Y352121D01*
Y354600D01*
D02*
G37*
G36*
X125779D02*
X123300D01*
Y352121D01*
X123943Y352388D01*
X124831Y353069D01*
X125512Y353957D01*
X125779Y354600D01*
D02*
G37*
G36*
X120300Y360079D02*
X119657Y359812D01*
X118769Y359131D01*
X118088Y358243D01*
X117821Y357600D01*
X120300D01*
Y360079D01*
D02*
G37*
G36*
X191800D02*
X191157Y359812D01*
X190269Y359131D01*
X189588Y358243D01*
X189321Y357600D01*
X191800D01*
Y360079D01*
D02*
G37*
G36*
X270279Y354600D02*
X267800D01*
Y352121D01*
X268443Y352388D01*
X269331Y353069D01*
X270012Y353957D01*
X270279Y354600D01*
D02*
G37*
G36*
X45200Y360079D02*
X44557Y359812D01*
X43669Y359131D01*
X42988Y358243D01*
X42721Y357600D01*
X45200D01*
Y360079D01*
D02*
G37*
G36*
X14500Y389500D02*
X5242D01*
X5258Y389299D01*
X5656Y387639D01*
X6309Y386062D01*
X7201Y384607D01*
X8309Y383310D01*
X9607Y382201D01*
X11062Y381309D01*
X12639Y380656D01*
X14299Y380258D01*
X14500Y380242D01*
Y389500D01*
D02*
G37*
G36*
X26758D02*
X17500D01*
Y380242D01*
X17701Y380258D01*
X19361Y380656D01*
X20938Y381309D01*
X22393Y382201D01*
X23690Y383310D01*
X24799Y384607D01*
X25691Y386062D01*
X26344Y387639D01*
X26742Y389299D01*
X26758Y389500D01*
D02*
G37*
G36*
X265779Y381496D02*
X264843Y381310D01*
X264049Y380780D01*
X263519Y379986D01*
X263333Y379049D01*
X263519Y378113D01*
X264049Y377319D01*
X264843Y376788D01*
X265779Y376602D01*
X266716Y376788D01*
X267510Y377319D01*
X268040Y378113D01*
X268227Y379049D01*
X268040Y379986D01*
X267510Y380780D01*
X266716Y381310D01*
X265779Y381496D01*
D02*
G37*
G36*
X377500Y389500D02*
X368242D01*
X368258Y389299D01*
X368656Y387639D01*
X369309Y386062D01*
X370201Y384607D01*
X371309Y383310D01*
X372607Y382201D01*
X374062Y381309D01*
X375639Y380656D01*
X377299Y380258D01*
X377500Y380242D01*
Y389500D01*
D02*
G37*
G36*
X389758D02*
X380500D01*
Y380242D01*
X380701Y380258D01*
X382361Y380656D01*
X383938Y381309D01*
X385393Y382201D01*
X386690Y383310D01*
X387799Y384607D01*
X388691Y386062D01*
X389344Y387639D01*
X389742Y389299D01*
X389758Y389500D01*
D02*
G37*
G36*
X17500Y401758D02*
Y392500D01*
X26758D01*
X26742Y392701D01*
X26344Y394361D01*
X25691Y395938D01*
X24799Y397393D01*
X23690Y398691D01*
X22393Y399799D01*
X20938Y400691D01*
X19361Y401344D01*
X17701Y401742D01*
X17500Y401758D01*
D02*
G37*
G36*
X380500D02*
Y392500D01*
X389758D01*
X389742Y392701D01*
X389344Y394361D01*
X388691Y395938D01*
X387799Y397393D01*
X386690Y398691D01*
X385393Y399799D01*
X383938Y400691D01*
X382361Y401344D01*
X380701Y401742D01*
X380500Y401758D01*
D02*
G37*
G36*
X377500D02*
X377299Y401742D01*
X375639Y401344D01*
X374062Y400691D01*
X372607Y399799D01*
X371309Y398691D01*
X370201Y397393D01*
X369309Y395938D01*
X368656Y394361D01*
X368258Y392701D01*
X368242Y392500D01*
X377500D01*
Y401758D01*
D02*
G37*
G36*
X14500D02*
X14299Y401742D01*
X12639Y401344D01*
X11062Y400691D01*
X9607Y399799D01*
X8309Y398691D01*
X7201Y397393D01*
X6309Y395938D01*
X5656Y394361D01*
X5258Y392701D01*
X5242Y392500D01*
X14500D01*
Y401758D01*
D02*
G37*
G36*
X193679Y381496D02*
X192743Y381310D01*
X191949Y380780D01*
X191419Y379986D01*
X191233Y379049D01*
X191419Y378113D01*
X191949Y377319D01*
X192743Y376788D01*
X193679Y376602D01*
X194616Y376788D01*
X195410Y377319D01*
X195940Y378113D01*
X196126Y379049D01*
X195940Y379986D01*
X195410Y380780D01*
X194616Y381310D01*
X193679Y381496D01*
D02*
G37*
G36*
X308032Y383261D02*
X300748D01*
X300358Y383184D01*
X300027Y382962D01*
X299806Y382632D01*
X299729Y382242D01*
Y374958D01*
X299806Y374568D01*
X300027Y374237D01*
X300358Y374016D01*
X300748Y373939D01*
X308032D01*
X308422Y374016D01*
X308752Y374237D01*
X308974Y374568D01*
X309051Y374958D01*
Y382242D01*
X308974Y382632D01*
X308752Y382962D01*
X308422Y383184D01*
X308032Y383261D01*
D02*
G37*
G36*
X56900Y381347D02*
X55964Y381161D01*
X55170Y380630D01*
X54639Y379836D01*
X54453Y378900D01*
X54639Y377964D01*
X55170Y377170D01*
X55964Y376639D01*
X56900Y376453D01*
X57836Y376639D01*
X58630Y377170D01*
X59161Y377964D01*
X59347Y378900D01*
X59161Y379836D01*
X58630Y380630D01*
X57836Y381161D01*
X56900Y381347D01*
D02*
G37*
G36*
X163531Y383261D02*
X156248D01*
X155858Y383184D01*
X155527Y382962D01*
X155306Y382632D01*
X155229Y382242D01*
Y374958D01*
X155306Y374568D01*
X155527Y374237D01*
X155858Y374016D01*
X156248Y373939D01*
X163531D01*
X163922Y374016D01*
X164252Y374237D01*
X164473Y374568D01*
X164551Y374958D01*
Y382242D01*
X164473Y382632D01*
X164252Y382962D01*
X163922Y383184D01*
X163531Y383261D01*
D02*
G37*
G36*
X235032D02*
X227748D01*
X227358Y383184D01*
X227028Y382962D01*
X226806Y382632D01*
X226729Y382242D01*
Y374958D01*
X226806Y374568D01*
X227028Y374237D01*
X227358Y374016D01*
X227748Y373939D01*
X235032D01*
X235422Y374016D01*
X235753Y374237D01*
X235974Y374568D01*
X236051Y374958D01*
Y382242D01*
X235974Y382632D01*
X235753Y382962D01*
X235422Y383184D01*
X235032Y383261D01*
D02*
G37*
G36*
X132400Y381347D02*
X131464Y381161D01*
X130670Y380630D01*
X130139Y379836D01*
X129953Y378900D01*
X130139Y377964D01*
X130670Y377170D01*
X131464Y376639D01*
X132400Y376453D01*
X133336Y376639D01*
X134130Y377170D01*
X134661Y377964D01*
X134847Y378900D01*
X134661Y379836D01*
X134130Y380630D01*
X133336Y381161D01*
X132400Y381347D01*
D02*
G37*
G36*
X45979Y381496D02*
X45043Y381310D01*
X44249Y380780D01*
X43719Y379986D01*
X43532Y379049D01*
X43719Y378113D01*
X44249Y377319D01*
X45043Y376788D01*
X45979Y376602D01*
X46916Y376788D01*
X47710Y377319D01*
X48240Y378113D01*
X48426Y379049D01*
X48240Y379986D01*
X47710Y380780D01*
X46916Y381310D01*
X45979Y381496D01*
D02*
G37*
G36*
X121479D02*
X120543Y381310D01*
X119749Y380780D01*
X119219Y379986D01*
X119033Y379049D01*
X119219Y378113D01*
X119749Y377319D01*
X120543Y376788D01*
X121479Y376602D01*
X122416Y376788D01*
X123210Y377319D01*
X123740Y378113D01*
X123926Y379049D01*
X123740Y379986D01*
X123210Y380780D01*
X122416Y381310D01*
X121479Y381496D01*
D02*
G37*
G36*
X204600Y381347D02*
X203664Y381161D01*
X202870Y380630D01*
X202339Y379836D01*
X202153Y378900D01*
X202339Y377964D01*
X202870Y377170D01*
X203664Y376639D01*
X204600Y376453D01*
X205536Y376639D01*
X206330Y377170D01*
X206861Y377964D01*
X207047Y378900D01*
X206861Y379836D01*
X206330Y380630D01*
X205536Y381161D01*
X204600Y381347D01*
D02*
G37*
G36*
X276700D02*
X275764Y381161D01*
X274970Y380630D01*
X274439Y379836D01*
X274253Y378900D01*
X274439Y377964D01*
X274970Y377170D01*
X275764Y376639D01*
X276700Y376453D01*
X277636Y376639D01*
X278430Y377170D01*
X278961Y377964D01*
X279147Y378900D01*
X278961Y379836D01*
X278430Y380630D01*
X277636Y381161D01*
X276700Y381347D01*
D02*
G37*
G36*
X120300Y354600D02*
X117821D01*
X118088Y353957D01*
X118769Y353069D01*
X119657Y352388D01*
X120300Y352121D01*
Y354600D01*
D02*
G37*
G36*
X137500Y296172D02*
X136564Y295986D01*
X135770Y295455D01*
X135239Y294661D01*
X135053Y293725D01*
X135100Y293488D01*
X119719Y278106D01*
X119387Y277610D01*
X119271Y277025D01*
Y244965D01*
X119070Y244830D01*
X118539Y244036D01*
X118353Y243100D01*
X118539Y242164D01*
X118765Y241826D01*
X118444Y241226D01*
X67931D01*
X58876Y250281D01*
Y257495D01*
X58773Y258278D01*
X58470Y259008D01*
X57990Y259635D01*
X57363Y260116D01*
X56633Y260418D01*
X55850Y260521D01*
X55067Y260418D01*
X54337Y260116D01*
X53710Y259635D01*
X53229Y259008D01*
X52927Y258278D01*
X52824Y257495D01*
Y249027D01*
X52828Y249000D01*
X52259Y248720D01*
X42376Y258603D01*
Y263124D01*
X66600D01*
X67383Y263227D01*
X68113Y263529D01*
X68740Y264010D01*
X69221Y264637D01*
X69239Y264683D01*
X71917Y267361D01*
X71963Y267379D01*
X72371Y267692D01*
X72971Y267412D01*
Y252910D01*
X72500Y252447D01*
X71564Y252261D01*
X70770Y251730D01*
X70239Y250936D01*
X70053Y250000D01*
X70239Y249064D01*
X70770Y248270D01*
X71564Y247739D01*
X72500Y247553D01*
X73436Y247739D01*
X74230Y248270D01*
X74761Y249064D01*
X74947Y250000D01*
X74900Y250237D01*
X75581Y250919D01*
X75913Y251415D01*
X76029Y252000D01*
Y290225D01*
X75913Y290810D01*
X75581Y291306D01*
X73400Y293488D01*
X73447Y293724D01*
X73261Y294661D01*
X72730Y295455D01*
X71936Y295985D01*
X71000Y296171D01*
X70064Y295985D01*
X69270Y295455D01*
X68739Y294661D01*
X68553Y293724D01*
X68739Y292788D01*
X69270Y291994D01*
X70064Y291464D01*
X71000Y291278D01*
X71237Y291325D01*
X72971Y289591D01*
Y272588D01*
X72371Y272308D01*
X71963Y272621D01*
X71233Y272923D01*
X70450Y273026D01*
X70278D01*
X70278Y273026D01*
X69494Y272923D01*
X68765Y272621D01*
X68138Y272140D01*
X65174Y269176D01*
X41201D01*
X40965Y269357D01*
X40114Y269710D01*
X39200Y269830D01*
X38286Y269710D01*
X37435Y269357D01*
X36704Y268796D01*
X36143Y268065D01*
X35790Y267214D01*
X35670Y266300D01*
X35790Y265386D01*
X36143Y264535D01*
X36324Y264299D01*
Y257350D01*
X36427Y256567D01*
X36729Y255837D01*
X37210Y255210D01*
X54174Y238247D01*
Y235430D01*
X53574Y235311D01*
X53457Y235593D01*
X52896Y236324D01*
X52165Y236885D01*
X51314Y237238D01*
X50400Y237358D01*
X49486Y237238D01*
X48635Y236885D01*
X47904Y236324D01*
X47343Y235593D01*
X46990Y234741D01*
X46870Y233828D01*
X46990Y232914D01*
X47343Y232063D01*
X47904Y231331D01*
X48635Y230770D01*
X49486Y230418D01*
X50400Y230297D01*
X51314Y230418D01*
X52165Y230770D01*
X52896Y231331D01*
X53457Y232063D01*
X53574Y232345D01*
X54174Y232225D01*
Y217300D01*
Y171806D01*
X54143Y171765D01*
X53790Y170914D01*
X53670Y170000D01*
X53790Y169086D01*
X54143Y168235D01*
X54704Y167504D01*
X55435Y166943D01*
X56286Y166590D01*
X57200Y166470D01*
X58114Y166590D01*
X58965Y166943D01*
X59696Y167504D01*
X60257Y168235D01*
X60610Y169086D01*
X60730Y170000D01*
X60610Y170914D01*
X60257Y171765D01*
X60226Y171806D01*
Y216047D01*
X73353Y229174D01*
X147572D01*
X148356Y229277D01*
X149085Y229579D01*
X149712Y230060D01*
X185735Y266083D01*
X185786Y266090D01*
X186637Y266443D01*
X187369Y267004D01*
X187930Y267735D01*
X188282Y268586D01*
X188289Y268637D01*
X191726Y272074D01*
X214852D01*
X218998Y267928D01*
X218977Y267878D01*
X218874Y267094D01*
Y265800D01*
X218977Y265017D01*
X219280Y264287D01*
X219760Y263660D01*
X220387Y263179D01*
X221117Y262877D01*
X221900Y262774D01*
X222683Y262877D01*
X223413Y263179D01*
X224040Y263660D01*
X224520Y264287D01*
X224823Y265017D01*
X224926Y265800D01*
Y265841D01*
X225145Y266060D01*
X225626Y266687D01*
X225928Y267417D01*
X226031Y268200D01*
X225928Y268983D01*
X225626Y269713D01*
X225145Y270340D01*
X218245Y277240D01*
X217618Y277720D01*
X216889Y278023D01*
X216106Y278126D01*
X190472D01*
X190472Y278126D01*
X189689Y278023D01*
X188960Y277720D01*
X188333Y277240D01*
X188333Y277240D01*
X184010Y272917D01*
X183959Y272910D01*
X183107Y272557D01*
X182376Y271996D01*
X181815Y271265D01*
X181463Y270414D01*
X181456Y270363D01*
X146319Y235226D01*
X130138D01*
X129934Y235826D01*
X130240Y236060D01*
X147040Y252860D01*
X147520Y253487D01*
X147823Y254217D01*
X147926Y255000D01*
X147926Y255000D01*
Y258594D01*
X149306Y259974D01*
X168028D01*
X168811Y260077D01*
X169541Y260380D01*
X170167Y260860D01*
X175290Y265983D01*
X175341Y265990D01*
X176193Y266343D01*
X176924Y266904D01*
X177485Y267635D01*
X177838Y268486D01*
X177958Y269400D01*
X177838Y270314D01*
X177485Y271165D01*
X176924Y271896D01*
X176193Y272457D01*
X175341Y272810D01*
X174428Y272930D01*
X173514Y272810D01*
X172662Y272457D01*
X171931Y271896D01*
X171370Y271165D01*
X171018Y270314D01*
X171011Y270263D01*
X166774Y266026D01*
X148052D01*
X147269Y265923D01*
X146539Y265620D01*
X145913Y265140D01*
X145913Y265140D01*
X142760Y261987D01*
X142280Y261361D01*
X141977Y260631D01*
X141874Y259848D01*
Y256253D01*
X126847Y241226D01*
X123156D01*
X122835Y241826D01*
X123061Y242164D01*
X123247Y243100D01*
X123061Y244036D01*
X122530Y244830D01*
X122329Y244965D01*
Y276392D01*
X137263Y291325D01*
X137500Y291278D01*
X138436Y291464D01*
X139230Y291995D01*
X139761Y292789D01*
X139947Y293725D01*
X139761Y294661D01*
X139230Y295455D01*
X138436Y295986D01*
X137500Y296172D01*
D02*
G37*
G36*
X207800Y259942D02*
X206864Y259756D01*
X206070Y259226D01*
X205539Y258432D01*
X205353Y257495D01*
X205539Y256559D01*
X206070Y255765D01*
X206864Y255235D01*
X207800Y255048D01*
X208736Y255235D01*
X209530Y255765D01*
X210061Y256559D01*
X210247Y257495D01*
X210061Y258432D01*
X209530Y259226D01*
X208736Y259756D01*
X207800Y259942D01*
D02*
G37*
G36*
X271900Y241447D02*
X270964Y241261D01*
X270170Y240730D01*
X269639Y239936D01*
X269453Y239000D01*
X269639Y238064D01*
X269649Y238050D01*
X269288Y237510D01*
X269100Y237547D01*
X268164Y237361D01*
X267370Y236830D01*
X266839Y236036D01*
X266653Y235100D01*
X266839Y234164D01*
X267370Y233370D01*
X268164Y232839D01*
X269100Y232653D01*
X269337Y232700D01*
X270119Y231919D01*
X270615Y231587D01*
X271200Y231471D01*
X285300D01*
X285885Y231587D01*
X286381Y231919D01*
X287163Y232700D01*
X287400Y232653D01*
X288336Y232839D01*
X289130Y233370D01*
X289661Y234164D01*
X289847Y235100D01*
X289661Y236036D01*
X289130Y236830D01*
X288336Y237361D01*
X287400Y237547D01*
X286464Y237361D01*
X286308Y237257D01*
X285641Y237533D01*
X285561Y237936D01*
X285030Y238730D01*
X284236Y239261D01*
X283300Y239447D01*
X283063Y239400D01*
X282381Y240081D01*
X281885Y240413D01*
X281300Y240529D01*
X273764D01*
X273630Y240730D01*
X272836Y241261D01*
X271900Y241447D01*
D02*
G37*
G36*
X175000Y242447D02*
X174064Y242261D01*
X173270Y241730D01*
X172739Y240936D01*
X172553Y240000D01*
X172600Y239763D01*
X162119Y229281D01*
X161787Y228785D01*
X161671Y228200D01*
Y224165D01*
X161470Y224030D01*
X160939Y223236D01*
X160753Y222300D01*
X160939Y221364D01*
X161470Y220570D01*
X162264Y220039D01*
X163200Y219853D01*
X164136Y220039D01*
X164930Y220570D01*
X165461Y221364D01*
X165647Y222300D01*
X165461Y223236D01*
X164930Y224030D01*
X164729Y224165D01*
Y227567D01*
X174763Y237600D01*
X175000Y237553D01*
X175936Y237739D01*
X176730Y238270D01*
X177261Y239064D01*
X177447Y240000D01*
X177261Y240936D01*
X176730Y241730D01*
X175936Y242261D01*
X175000Y242447D01*
D02*
G37*
G36*
X304772Y269030D02*
X303859Y268910D01*
X303007Y268557D01*
X302276Y267996D01*
X301715Y267265D01*
X301362Y266414D01*
X301242Y265500D01*
X301362Y264586D01*
X301715Y263735D01*
X302276Y263004D01*
X303007Y262443D01*
X303859Y262090D01*
X304772Y261970D01*
X305686Y262090D01*
X306538Y262443D01*
X307269Y263004D01*
X307830Y263735D01*
X308182Y264586D01*
X308303Y265500D01*
X308182Y266414D01*
X307830Y267265D01*
X307269Y267996D01*
X306538Y268557D01*
X305686Y268910D01*
X304772Y269030D01*
D02*
G37*
G36*
X56700Y360387D02*
X55590Y360241D01*
X54557Y359812D01*
X53669Y359131D01*
X52988Y358243D01*
X52559Y357209D01*
X52413Y356100D01*
X52559Y354991D01*
X52988Y353957D01*
X53669Y353069D01*
X54557Y352388D01*
X55590Y351959D01*
X56700Y351813D01*
X57810Y351959D01*
X58843Y352388D01*
X59731Y353069D01*
X60412Y353957D01*
X60841Y354991D01*
X60987Y356100D01*
X60841Y357209D01*
X60412Y358243D01*
X59731Y359131D01*
X58843Y359812D01*
X57810Y360241D01*
X56700Y360387D01*
D02*
G37*
G36*
X66700D02*
X65591Y360241D01*
X64557Y359812D01*
X63669Y359131D01*
X62988Y358243D01*
X62559Y357209D01*
X62413Y356100D01*
X62559Y354991D01*
X62988Y353957D01*
X63669Y353069D01*
X64557Y352388D01*
X65591Y351959D01*
X66700Y351813D01*
X67809Y351959D01*
X68843Y352388D01*
X69731Y353069D01*
X70412Y353957D01*
X70841Y354991D01*
X70987Y356100D01*
X70841Y357209D01*
X70412Y358243D01*
X69731Y359131D01*
X68843Y359812D01*
X67809Y360241D01*
X66700Y360387D01*
D02*
G37*
G36*
X376741Y312429D02*
X369700D01*
X369115Y312313D01*
X368619Y311981D01*
X341967Y285329D01*
X233508D01*
X225350Y293488D01*
X225397Y293724D01*
X225211Y294661D01*
X224680Y295455D01*
X223886Y295985D01*
X222950Y296171D01*
X222014Y295985D01*
X221220Y295455D01*
X220689Y294661D01*
X220503Y293724D01*
X220689Y292788D01*
X221220Y291994D01*
X222014Y291464D01*
X222950Y291278D01*
X223187Y291325D01*
X231793Y282719D01*
X232289Y282387D01*
X232874Y282271D01*
X342600D01*
X343185Y282387D01*
X343681Y282719D01*
X370334Y309371D01*
X376108D01*
X376518Y308961D01*
X376222Y308408D01*
X376025Y308447D01*
X375089Y308261D01*
X374295Y307730D01*
X373764Y306936D01*
X373578Y306000D01*
X373764Y305064D01*
X374295Y304270D01*
X374371Y304219D01*
Y303041D01*
X373771Y302698D01*
X373000Y302851D01*
X372064Y302665D01*
X371270Y302134D01*
X370739Y301340D01*
X370553Y300404D01*
X370739Y299467D01*
X371270Y298674D01*
X371471Y298539D01*
Y207864D01*
X371270Y207730D01*
X370739Y206936D01*
X370553Y206000D01*
X370593Y205801D01*
X370067Y205517D01*
X369724Y205867D01*
X369941Y206391D01*
X370087Y207500D01*
X369941Y208610D01*
X369512Y209643D01*
X368831Y210531D01*
X367943Y211212D01*
X366910Y211641D01*
X365800Y211787D01*
X364690Y211641D01*
X363657Y211212D01*
X362769Y210531D01*
X362088Y209643D01*
X361659Y208610D01*
X361513Y207500D01*
X361659Y206391D01*
X362088Y205357D01*
X362769Y204469D01*
X363657Y203788D01*
X364690Y203359D01*
X365800Y203213D01*
X366910Y203359D01*
X367523Y203614D01*
X369021Y202116D01*
Y103942D01*
X368421Y103646D01*
X367943Y104012D01*
X366910Y104441D01*
X365800Y104587D01*
X364690Y104441D01*
X363657Y104012D01*
X362769Y103331D01*
X362698Y103238D01*
X362129Y103431D01*
Y202700D01*
X362013Y203285D01*
X361681Y203781D01*
X359686Y205777D01*
X359941Y206391D01*
X360087Y207500D01*
X359941Y208610D01*
X359512Y209643D01*
X358831Y210531D01*
X357943Y211212D01*
X356909Y211641D01*
X355800Y211787D01*
X354691Y211641D01*
X353657Y211212D01*
X353029Y210731D01*
X352429Y211027D01*
Y211966D01*
X354077Y213614D01*
X354691Y213359D01*
X355800Y213213D01*
X356909Y213359D01*
X357943Y213788D01*
X358831Y214469D01*
X359512Y215357D01*
X359941Y216390D01*
X360087Y217500D01*
X359941Y218609D01*
X359512Y219643D01*
X358831Y220531D01*
X357943Y221212D01*
X356909Y221641D01*
X355800Y221787D01*
X354691Y221641D01*
X353657Y221212D01*
X352769Y220531D01*
X352088Y219643D01*
X351659Y218609D01*
X351513Y217500D01*
X351659Y216390D01*
X351914Y215777D01*
X349819Y213681D01*
X349487Y213185D01*
X349371Y212600D01*
Y210714D01*
X349300Y210690D01*
X348771Y210578D01*
X347943Y211212D01*
X346909Y211641D01*
X345800Y211787D01*
X344690Y211641D01*
X343657Y211212D01*
X342769Y210531D01*
X342088Y209643D01*
X341659Y208610D01*
X341513Y207500D01*
X341659Y206391D01*
X342088Y205357D01*
X342769Y204469D01*
X343657Y203788D01*
X344690Y203359D01*
X345800Y203213D01*
X346909Y203359D01*
X347943Y203788D01*
X348771Y204422D01*
X349300Y204310D01*
X349371Y204286D01*
Y203700D01*
X349487Y203115D01*
X349819Y202619D01*
X354271Y198167D01*
Y104267D01*
X353657Y104012D01*
X352769Y103331D01*
X352088Y102443D01*
X351659Y101409D01*
X351513Y100300D01*
X351659Y99190D01*
X352088Y98157D01*
X352769Y97269D01*
X353657Y96588D01*
X354691Y96159D01*
X355800Y96013D01*
X356909Y96159D01*
X357943Y96588D01*
X358471Y96992D01*
X359071Y96696D01*
Y95733D01*
X357523Y94186D01*
X356909Y94441D01*
X355800Y94587D01*
X354691Y94441D01*
X353657Y94012D01*
X352769Y93331D01*
X352088Y92443D01*
X351659Y91409D01*
X351513Y90300D01*
X351659Y89191D01*
X352088Y88157D01*
X352769Y87269D01*
X353657Y86588D01*
X354691Y86159D01*
X355800Y86013D01*
X356909Y86159D01*
X357943Y86588D01*
X358831Y87269D01*
X359512Y88157D01*
X359941Y89191D01*
X360087Y90300D01*
X359941Y91409D01*
X359686Y92023D01*
X361681Y94019D01*
X362013Y94515D01*
X362129Y95100D01*
Y97169D01*
X362698Y97362D01*
X362769Y97269D01*
X363657Y96588D01*
X364690Y96159D01*
X365668Y96031D01*
X365969Y95771D01*
X366167Y95488D01*
X366171Y95457D01*
Y94912D01*
X365800Y94587D01*
X364690Y94441D01*
X363657Y94012D01*
X362769Y93331D01*
X362088Y92443D01*
X361659Y91409D01*
X361513Y90300D01*
X361659Y89191D01*
X362088Y88157D01*
X362769Y87269D01*
X363657Y86588D01*
X364690Y86159D01*
X365800Y86013D01*
X366910Y86159D01*
X367943Y86588D01*
X368831Y87269D01*
X369512Y88157D01*
X369941Y89191D01*
X370087Y90300D01*
X369941Y91409D01*
X369512Y92443D01*
X369229Y92812D01*
Y94849D01*
X371631Y97251D01*
X371963Y97747D01*
X372079Y98333D01*
Y196591D01*
X372609Y196874D01*
X372828Y196728D01*
X373764Y196541D01*
X374701Y196728D01*
X375495Y197258D01*
X376025Y198052D01*
X376211Y198988D01*
X376164Y199225D01*
X376981Y200042D01*
X377313Y200538D01*
X377429Y201124D01*
Y203527D01*
X377959Y203809D01*
X378064Y203739D01*
X379000Y203553D01*
X379936Y203739D01*
X380730Y204270D01*
X381261Y205064D01*
X381447Y206000D01*
X381309Y206696D01*
X381329Y206800D01*
Y307841D01*
X381213Y308426D01*
X380881Y308923D01*
X377823Y311981D01*
X377326Y312313D01*
X376741Y312429D01*
D02*
G37*
G36*
X329429Y342230D02*
X328515Y342110D01*
X327663Y341757D01*
X327623Y341726D01*
X259306D01*
X259265Y341757D01*
X258414Y342110D01*
X257500Y342230D01*
X256586Y342110D01*
X255735Y341757D01*
X255694Y341726D01*
X188306D01*
X188265Y341757D01*
X187414Y342110D01*
X186500Y342230D01*
X185586Y342110D01*
X184735Y341757D01*
X184694Y341726D01*
X115806D01*
X115765Y341757D01*
X114914Y342110D01*
X114000Y342230D01*
X113086Y342110D01*
X112235Y341757D01*
X112194Y341726D01*
X44377D01*
X44337Y341757D01*
X43485Y342110D01*
X42571Y342230D01*
X41658Y342110D01*
X40806Y341757D01*
X40075Y341196D01*
X39514Y340465D01*
X39162Y339614D01*
X39041Y338700D01*
X39162Y337786D01*
X39514Y336935D01*
X40075Y336204D01*
X40806Y335643D01*
X41658Y335290D01*
X42571Y335170D01*
X43485Y335290D01*
X44337Y335643D01*
X44377Y335674D01*
X112194D01*
X112235Y335643D01*
X113086Y335290D01*
X114000Y335170D01*
X114914Y335290D01*
X115765Y335643D01*
X115806Y335674D01*
X184694D01*
X184735Y335643D01*
X185586Y335290D01*
X186500Y335170D01*
X187414Y335290D01*
X188265Y335643D01*
X188306Y335674D01*
X255694D01*
X255735Y335643D01*
X256586Y335290D01*
X257500Y335170D01*
X258414Y335290D01*
X259265Y335643D01*
X259306Y335674D01*
X327623D01*
X327663Y335643D01*
X328515Y335290D01*
X329429Y335170D01*
X330342Y335290D01*
X331194Y335643D01*
X331925Y336204D01*
X332486Y336935D01*
X332838Y337786D01*
X332959Y338700D01*
X332838Y339614D01*
X332486Y340465D01*
X331925Y341196D01*
X331194Y341757D01*
X330342Y342110D01*
X329429Y342230D01*
D02*
G37*
G36*
X203800Y224279D02*
Y221800D01*
X206279D01*
X206012Y222443D01*
X205331Y223331D01*
X204443Y224012D01*
X203800Y224279D01*
D02*
G37*
G36*
X182300Y224587D02*
X181191Y224441D01*
X180157Y224012D01*
X179269Y223331D01*
X178588Y222443D01*
X178159Y221410D01*
X178013Y220300D01*
X178159Y219191D01*
X178588Y218157D01*
X179269Y217269D01*
X180157Y216588D01*
X181191Y216159D01*
X182300Y216013D01*
X183410Y216159D01*
X184443Y216588D01*
X185331Y217269D01*
X186012Y218157D01*
X186441Y219191D01*
X186587Y220300D01*
X186441Y221410D01*
X186012Y222443D01*
X185331Y223331D01*
X184443Y224012D01*
X183410Y224441D01*
X182300Y224587D01*
D02*
G37*
G36*
X192300D02*
X191191Y224441D01*
X190157Y224012D01*
X189269Y223331D01*
X188588Y222443D01*
X188159Y221410D01*
X188013Y220300D01*
X188159Y219191D01*
X188588Y218157D01*
X189269Y217269D01*
X190157Y216588D01*
X191191Y216159D01*
X192300Y216013D01*
X193410Y216159D01*
X194443Y216588D01*
X195331Y217269D01*
X196012Y218157D01*
X196441Y219191D01*
X196587Y220300D01*
X196441Y221410D01*
X196012Y222443D01*
X195331Y223331D01*
X194443Y224012D01*
X193410Y224441D01*
X192300Y224587D01*
D02*
G37*
G36*
X365800Y221787D02*
X364690Y221641D01*
X363657Y221212D01*
X362769Y220531D01*
X362088Y219643D01*
X361659Y218609D01*
X361513Y217500D01*
X361659Y216390D01*
X362088Y215357D01*
X362769Y214469D01*
X363657Y213788D01*
X364690Y213359D01*
X365800Y213213D01*
X366910Y213359D01*
X367943Y213788D01*
X368831Y214469D01*
X369512Y215357D01*
X369941Y216390D01*
X370087Y217500D01*
X369941Y218609D01*
X369512Y219643D01*
X368831Y220531D01*
X367943Y221212D01*
X366910Y221641D01*
X365800Y221787D01*
D02*
G37*
G36*
X172300Y224587D02*
X171191Y224441D01*
X170157Y224012D01*
X169269Y223331D01*
X168588Y222443D01*
X168159Y221410D01*
X168013Y220300D01*
X168159Y219191D01*
X168588Y218157D01*
X169269Y217269D01*
X170157Y216588D01*
X171191Y216159D01*
X172300Y216013D01*
X173409Y216159D01*
X174443Y216588D01*
X175331Y217269D01*
X176012Y218157D01*
X176441Y219191D01*
X176587Y220300D01*
X176441Y221410D01*
X176012Y222443D01*
X175331Y223331D01*
X174443Y224012D01*
X173409Y224441D01*
X172300Y224587D01*
D02*
G37*
G36*
X212300D02*
X211191Y224441D01*
X210157Y224012D01*
X209269Y223331D01*
X208588Y222443D01*
X208159Y221410D01*
X208013Y220300D01*
X208159Y219191D01*
X208588Y218157D01*
X209269Y217269D01*
X210157Y216588D01*
X211191Y216159D01*
X212300Y216013D01*
X213409Y216159D01*
X214443Y216588D01*
X215331Y217269D01*
X216012Y218157D01*
X216441Y219191D01*
X216587Y220300D01*
X216441Y221410D01*
X216012Y222443D01*
X215331Y223331D01*
X214443Y224012D01*
X213409Y224441D01*
X212300Y224587D01*
D02*
G37*
G36*
X206279Y218800D02*
X203800D01*
Y216321D01*
X204443Y216588D01*
X205331Y217269D01*
X206012Y218157D01*
X206279Y218800D01*
D02*
G37*
G36*
X200800Y224279D02*
X200157Y224012D01*
X199269Y223331D01*
X198588Y222443D01*
X198321Y221800D01*
X200800D01*
Y224279D01*
D02*
G37*
G36*
X225550Y224570D02*
X219050D01*
X218660Y224492D01*
X218329Y224271D01*
X218108Y223940D01*
X218030Y223550D01*
Y217050D01*
X218108Y216660D01*
X218329Y216329D01*
X218660Y216108D01*
X219050Y216030D01*
X225550D01*
X225940Y216108D01*
X226271Y216329D01*
X226492Y216660D01*
X226570Y217050D01*
Y223550D01*
X226492Y223940D01*
X226271Y224271D01*
X225940Y224492D01*
X225550Y224570D01*
D02*
G37*
G36*
X200800Y218800D02*
X198321D01*
X198588Y218157D01*
X199269Y217269D01*
X200157Y216588D01*
X200800Y216321D01*
Y218800D01*
D02*
G37*
G36*
X296300Y360387D02*
X295191Y360241D01*
X294157Y359812D01*
X293269Y359131D01*
X292588Y358243D01*
X292159Y357209D01*
X292013Y356100D01*
X292159Y354991D01*
X292588Y353957D01*
X293269Y353069D01*
X294157Y352388D01*
X295191Y351959D01*
X296300Y351813D01*
X297410Y351959D01*
X298443Y352388D01*
X299331Y353069D01*
X300012Y353957D01*
X300441Y354991D01*
X300587Y356100D01*
X300441Y357209D01*
X300012Y358243D01*
X299331Y359131D01*
X298443Y359812D01*
X297410Y360241D01*
X296300Y360387D01*
D02*
G37*
G36*
X306300D02*
X305190Y360241D01*
X304157Y359812D01*
X303269Y359131D01*
X302588Y358243D01*
X302159Y357209D01*
X302013Y356100D01*
X302159Y354991D01*
X302588Y353957D01*
X303269Y353069D01*
X304157Y352388D01*
X305190Y351959D01*
X306300Y351813D01*
X307410Y351959D01*
X308443Y352388D01*
X309331Y353069D01*
X310012Y353957D01*
X310441Y354991D01*
X310587Y356100D01*
X310441Y357209D01*
X310012Y358243D01*
X309331Y359131D01*
X308443Y359812D01*
X307410Y360241D01*
X306300Y360387D01*
D02*
G37*
G36*
X276300D02*
X275190Y360241D01*
X274157Y359812D01*
X273269Y359131D01*
X272588Y358243D01*
X272159Y357209D01*
X272013Y356100D01*
X272159Y354991D01*
X272588Y353957D01*
X273269Y353069D01*
X274157Y352388D01*
X275190Y351959D01*
X276300Y351813D01*
X277410Y351959D01*
X278443Y352388D01*
X279331Y353069D01*
X280012Y353957D01*
X280441Y354991D01*
X280587Y356100D01*
X280441Y357209D01*
X280012Y358243D01*
X279331Y359131D01*
X278443Y359812D01*
X277410Y360241D01*
X276300Y360387D01*
D02*
G37*
G36*
X286300D02*
X285191Y360241D01*
X284157Y359812D01*
X283269Y359131D01*
X282588Y358243D01*
X282159Y357209D01*
X282013Y356100D01*
X282159Y354991D01*
X282588Y353957D01*
X283269Y353069D01*
X284157Y352388D01*
X285191Y351959D01*
X286300Y351813D01*
X287409Y351959D01*
X288443Y352388D01*
X289331Y353069D01*
X290012Y353957D01*
X290441Y354991D01*
X290587Y356100D01*
X290441Y357209D01*
X290012Y358243D01*
X289331Y359131D01*
X288443Y359812D01*
X287409Y360241D01*
X286300Y360387D01*
D02*
G37*
G36*
X39950Y360370D02*
X33450D01*
X33060Y360292D01*
X32729Y360071D01*
X32508Y359740D01*
X32430Y359350D01*
Y352850D01*
X32508Y352460D01*
X32729Y352129D01*
X33060Y351908D01*
X33450Y351830D01*
X39950D01*
X40340Y351908D01*
X40671Y352129D01*
X40892Y352460D01*
X40970Y352850D01*
Y359350D01*
X40892Y359740D01*
X40671Y360071D01*
X40340Y360292D01*
X39950Y360370D01*
D02*
G37*
G36*
X259550D02*
X253050D01*
X252660Y360292D01*
X252329Y360071D01*
X252108Y359740D01*
X252030Y359350D01*
Y352850D01*
X252108Y352460D01*
X252329Y352129D01*
X252660Y351908D01*
X253050Y351830D01*
X259550D01*
X259940Y351908D01*
X260271Y352129D01*
X260492Y352460D01*
X260570Y352850D01*
Y359350D01*
X260492Y359740D01*
X260271Y360071D01*
X259940Y360292D01*
X259550Y360370D01*
D02*
G37*
G36*
X45200Y354600D02*
X42721D01*
X42988Y353957D01*
X43669Y353069D01*
X44557Y352388D01*
X45200Y352121D01*
Y354600D01*
D02*
G37*
G36*
X115050Y360370D02*
X108550D01*
X108160Y360292D01*
X107829Y360071D01*
X107608Y359740D01*
X107530Y359350D01*
Y352850D01*
X107608Y352460D01*
X107829Y352129D01*
X108160Y351908D01*
X108550Y351830D01*
X115050D01*
X115440Y351908D01*
X115771Y352129D01*
X115992Y352460D01*
X116070Y352850D01*
Y359350D01*
X115992Y359740D01*
X115771Y360071D01*
X115440Y360292D01*
X115050Y360370D01*
D02*
G37*
G36*
X186550D02*
X180050D01*
X179660Y360292D01*
X179329Y360071D01*
X179108Y359740D01*
X179030Y359350D01*
Y352850D01*
X179108Y352460D01*
X179329Y352129D01*
X179660Y351908D01*
X180050Y351830D01*
X186550D01*
X186940Y351908D01*
X187271Y352129D01*
X187492Y352460D01*
X187570Y352850D01*
Y359350D01*
X187492Y359740D01*
X187271Y360071D01*
X186940Y360292D01*
X186550Y360370D01*
D02*
G37*
G36*
X233300Y360387D02*
X232190Y360241D01*
X231157Y359812D01*
X230269Y359131D01*
X229588Y358243D01*
X229159Y357209D01*
X229013Y356100D01*
X229159Y354991D01*
X229588Y353957D01*
X230269Y353069D01*
X231157Y352388D01*
X232190Y351959D01*
X233300Y351813D01*
X234409Y351959D01*
X235443Y352388D01*
X236331Y353069D01*
X237012Y353957D01*
X237441Y354991D01*
X237587Y356100D01*
X237441Y357209D01*
X237012Y358243D01*
X236331Y359131D01*
X235443Y359812D01*
X234409Y360241D01*
X233300Y360387D01*
D02*
G37*
G36*
X131800D02*
X130691Y360241D01*
X129657Y359812D01*
X128769Y359131D01*
X128088Y358243D01*
X127659Y357209D01*
X127513Y356100D01*
X127659Y354991D01*
X128088Y353957D01*
X128769Y353069D01*
X129657Y352388D01*
X130691Y351959D01*
X131800Y351813D01*
X132910Y351959D01*
X133943Y352388D01*
X134831Y353069D01*
X135512Y353957D01*
X135941Y354991D01*
X136087Y356100D01*
X135941Y357209D01*
X135512Y358243D01*
X134831Y359131D01*
X133943Y359812D01*
X132910Y360241D01*
X131800Y360387D01*
D02*
G37*
G36*
X141800D02*
X140691Y360241D01*
X139657Y359812D01*
X138769Y359131D01*
X138088Y358243D01*
X137659Y357209D01*
X137513Y356100D01*
X137659Y354991D01*
X138088Y353957D01*
X138769Y353069D01*
X139657Y352388D01*
X140691Y351959D01*
X141800Y351813D01*
X142910Y351959D01*
X143943Y352388D01*
X144831Y353069D01*
X145512Y353957D01*
X145941Y354991D01*
X146087Y356100D01*
X145941Y357209D01*
X145512Y358243D01*
X144831Y359131D01*
X143943Y359812D01*
X142910Y360241D01*
X141800Y360387D01*
D02*
G37*
G36*
X76700D02*
X75590Y360241D01*
X74557Y359812D01*
X73669Y359131D01*
X72988Y358243D01*
X72559Y357209D01*
X72413Y356100D01*
X72559Y354991D01*
X72988Y353957D01*
X73669Y353069D01*
X74557Y352388D01*
X75590Y351959D01*
X76700Y351813D01*
X77810Y351959D01*
X78843Y352388D01*
X79731Y353069D01*
X80412Y353957D01*
X80841Y354991D01*
X80987Y356100D01*
X80841Y357209D01*
X80412Y358243D01*
X79731Y359131D01*
X78843Y359812D01*
X77810Y360241D01*
X76700Y360387D01*
D02*
G37*
G36*
X86700D02*
X85590Y360241D01*
X84557Y359812D01*
X83669Y359131D01*
X82988Y358243D01*
X82559Y357209D01*
X82413Y356100D01*
X82559Y354991D01*
X82988Y353957D01*
X83669Y353069D01*
X84557Y352388D01*
X85590Y351959D01*
X86700Y351813D01*
X87809Y351959D01*
X88843Y352388D01*
X89731Y353069D01*
X90412Y353957D01*
X90841Y354991D01*
X90987Y356100D01*
X90841Y357209D01*
X90412Y358243D01*
X89731Y359131D01*
X88843Y359812D01*
X87809Y360241D01*
X86700Y360387D01*
D02*
G37*
G36*
X151800D02*
X150690Y360241D01*
X149657Y359812D01*
X148769Y359131D01*
X148088Y358243D01*
X147659Y357209D01*
X147513Y356100D01*
X147659Y354991D01*
X148088Y353957D01*
X148769Y353069D01*
X149657Y352388D01*
X150690Y351959D01*
X151800Y351813D01*
X152910Y351959D01*
X153943Y352388D01*
X154831Y353069D01*
X155512Y353957D01*
X155941Y354991D01*
X156087Y356100D01*
X155941Y357209D01*
X155512Y358243D01*
X154831Y359131D01*
X153943Y359812D01*
X152910Y360241D01*
X151800Y360387D01*
D02*
G37*
G36*
X213300D02*
X212191Y360241D01*
X211157Y359812D01*
X210269Y359131D01*
X209588Y358243D01*
X209159Y357209D01*
X209013Y356100D01*
X209159Y354991D01*
X209588Y353957D01*
X210269Y353069D01*
X211157Y352388D01*
X212191Y351959D01*
X213300Y351813D01*
X214409Y351959D01*
X215443Y352388D01*
X216331Y353069D01*
X217012Y353957D01*
X217441Y354991D01*
X217587Y356100D01*
X217441Y357209D01*
X217012Y358243D01*
X216331Y359131D01*
X215443Y359812D01*
X214409Y360241D01*
X213300Y360387D01*
D02*
G37*
G36*
X223300D02*
X222190Y360241D01*
X221157Y359812D01*
X220269Y359131D01*
X219588Y358243D01*
X219159Y357209D01*
X219013Y356100D01*
X219159Y354991D01*
X219588Y353957D01*
X220269Y353069D01*
X221157Y352388D01*
X222190Y351959D01*
X223300Y351813D01*
X224410Y351959D01*
X225443Y352388D01*
X226331Y353069D01*
X227012Y353957D01*
X227441Y354991D01*
X227587Y356100D01*
X227441Y357209D01*
X227012Y358243D01*
X226331Y359131D01*
X225443Y359812D01*
X224410Y360241D01*
X223300Y360387D01*
D02*
G37*
G36*
X161800D02*
X160690Y360241D01*
X159657Y359812D01*
X158769Y359131D01*
X158088Y358243D01*
X157659Y357209D01*
X157513Y356100D01*
X157659Y354991D01*
X158088Y353957D01*
X158769Y353069D01*
X159657Y352388D01*
X160690Y351959D01*
X161800Y351813D01*
X162909Y351959D01*
X163943Y352388D01*
X164831Y353069D01*
X165512Y353957D01*
X165941Y354991D01*
X166087Y356100D01*
X165941Y357209D01*
X165512Y358243D01*
X164831Y359131D01*
X163943Y359812D01*
X162909Y360241D01*
X161800Y360387D01*
D02*
G37*
G36*
X203300D02*
X202190Y360241D01*
X201157Y359812D01*
X200269Y359131D01*
X199588Y358243D01*
X199159Y357209D01*
X199013Y356100D01*
X199159Y354991D01*
X199588Y353957D01*
X200269Y353069D01*
X201157Y352388D01*
X202190Y351959D01*
X203300Y351813D01*
X204410Y351959D01*
X205443Y352388D01*
X206331Y353069D01*
X207012Y353957D01*
X207441Y354991D01*
X207587Y356100D01*
X207441Y357209D01*
X207012Y358243D01*
X206331Y359131D01*
X205443Y359812D01*
X204410Y360241D01*
X203300Y360387D01*
D02*
G37*
%LPD*%
D33*
X215700Y68400D02*
X220100Y64000D01*
X369700Y310900D02*
X376741D01*
X342600Y283800D02*
X369700Y310900D01*
X232874Y283800D02*
X342600D01*
X222950Y293724D02*
X232874Y283800D01*
X376741Y310900D02*
X379800Y307841D01*
Y206800D02*
Y307841D01*
X381300Y314800D02*
X390600Y305500D01*
X307900Y314800D02*
X381300D01*
X287000Y293900D02*
X307900Y314800D01*
X379000Y206000D02*
X379800Y206800D01*
X390600Y202525D02*
Y305500D01*
X388000Y199925D02*
X390600Y202525D01*
X204900Y107400D02*
X213978D01*
X218178Y111600D01*
X206028D02*
X212522D01*
X212870Y121270D02*
X251300D01*
X198100Y106500D02*
X212870Y121270D01*
X184500Y106500D02*
X198100D01*
X214700Y126500D02*
X251030D01*
X251300Y126770D01*
X196700Y108500D02*
X214700Y126500D01*
X182399Y108500D02*
X196700D01*
X271900Y239000D02*
X281300D01*
X132558Y206500D02*
X172000D01*
X120558Y218500D02*
X132558Y206500D01*
X119458Y218500D02*
X120558D01*
X123249Y170375D02*
X135874Y183000D01*
X155049D01*
X287000Y293700D02*
Y293900D01*
X163200Y228200D02*
X175000Y240000D01*
X163200Y222300D02*
Y228200D01*
X345800Y100300D02*
Y185500D01*
X324600Y206700D02*
X345800Y185500D01*
X324600Y206700D02*
Y215900D01*
X350900Y203700D02*
Y212600D01*
X355800Y207500D02*
X360600Y202700D01*
X224300Y249000D02*
X233300Y240000D01*
Y212700D02*
Y240000D01*
X227000Y206400D02*
X233300Y212700D01*
X232500Y206100D02*
X236600Y210200D01*
Y242200D01*
X274000Y202400D02*
Y217600D01*
X273800Y202200D02*
X274000Y202400D01*
X206714Y128500D02*
X242200D01*
X156000Y108500D02*
Y114000D01*
Y108500D02*
X159400Y105100D01*
X179100D01*
Y105201D01*
X182399Y108500D01*
X182000Y104000D02*
X184500Y106500D01*
X72500Y250000D02*
X74500Y252000D01*
Y290225D01*
X71000Y293724D02*
X74500Y290225D01*
X365800Y90300D02*
X367700D01*
Y95482D02*
X370550Y98333D01*
X355800Y90300D02*
X360600Y95100D01*
Y202700D01*
X355800Y100300D02*
Y198800D01*
X350900Y203700D02*
X355800Y198800D01*
X350900Y212600D02*
X355800Y217500D01*
X153000Y76600D02*
Y86500D01*
X137929Y75029D02*
X143000Y80100D01*
Y86500D01*
X151357Y74957D02*
X153000Y76600D01*
X151357Y73150D02*
Y74957D01*
X137929Y73000D02*
Y75029D01*
X131214Y73000D02*
Y84714D01*
X183800Y86300D02*
X204900Y107400D01*
X183800Y74000D02*
Y86300D01*
X180750Y70000D02*
Y86322D01*
X206028Y111600D01*
X191434Y77000D02*
Y86934D01*
X198217Y93717D01*
X367700Y90300D02*
Y95482D01*
X370550Y98333D02*
Y202750D01*
X365800Y207500D02*
X370550Y202750D01*
X373000Y206000D02*
Y300404D01*
Y301000D01*
X385000Y206000D02*
Y300000D01*
X252047Y138347D02*
X256000D01*
X242200Y128500D02*
X252047Y138347D01*
X375900Y305875D02*
X376025Y306000D01*
X373764Y198988D02*
X375900Y201124D01*
Y305875D01*
X269100Y235100D02*
X271200Y233000D01*
X285300D01*
X287400Y235100D01*
X281300Y239000D02*
X283300Y237000D01*
X171500Y73000D02*
Y75500D01*
X173000Y77000D01*
Y86500D01*
X229223Y103123D02*
Y111451D01*
X215700Y89600D02*
X229223Y103123D01*
X215700Y68400D02*
Y89600D01*
X220100Y64000D02*
X224000D01*
X223678Y105378D02*
Y111600D01*
X211900Y93600D02*
X223678Y105378D01*
X211900Y66100D02*
Y93600D01*
Y66100D02*
X224000Y54000D01*
X120800Y243100D02*
Y277025D01*
X137500Y293725D01*
D34*
X42571Y338700D02*
X114000D01*
X186500D01*
X257500D01*
X329429D01*
X216106Y275100D02*
X223006Y268200D01*
X184872Y269500D02*
X190472Y275100D01*
X216106D01*
X144900Y259848D02*
X148052Y263000D01*
X168028D02*
X174428Y269400D01*
X148052Y263000D02*
X168028D01*
X144900Y255000D02*
Y259848D01*
X128100Y238200D02*
X144900Y255000D01*
X147572Y232200D02*
X184872Y269500D01*
X57200Y170000D02*
Y217300D01*
X72100Y232200D01*
X147572D01*
X57200Y217300D02*
Y239500D01*
X221900Y267094D02*
X223006Y268200D01*
X221900Y265800D02*
Y267094D01*
X66600Y266150D02*
Y266322D01*
X70278Y270000D02*
X70450D01*
X66600Y266322D02*
X70278Y270000D01*
X39200Y265332D02*
Y266300D01*
X39350Y266150D02*
X66600D01*
X39200Y266300D02*
X39350Y266150D01*
Y257350D02*
X57200Y239500D01*
X39350Y257350D02*
Y266150D01*
X66677Y238200D02*
X128100D01*
X55850Y249027D02*
Y257495D01*
Y249027D02*
X66677Y238200D01*
D36*
X36700Y356100D02*
D03*
X335800Y90300D02*
D03*
Y207500D02*
D03*
X222300Y220300D02*
D03*
X256300Y356100D02*
D03*
X183300D02*
D03*
X111800D02*
D03*
X123000Y86500D02*
D03*
D37*
X46700Y356100D02*
D03*
X56700D02*
D03*
X66700D02*
D03*
X76700D02*
D03*
X86700D02*
D03*
X345800Y90300D02*
D03*
X355800D02*
D03*
X365800D02*
D03*
Y100300D02*
D03*
X355800D02*
D03*
X345800D02*
D03*
X335800D02*
D03*
X345800Y207500D02*
D03*
X355800D02*
D03*
X365800D02*
D03*
Y217500D02*
D03*
X355800D02*
D03*
X345800D02*
D03*
X335800D02*
D03*
X224000Y24000D02*
D03*
Y34000D02*
D03*
Y44000D02*
D03*
Y54000D02*
D03*
Y64000D02*
D03*
X212300Y220300D02*
D03*
X202300D02*
D03*
X192300D02*
D03*
X182300D02*
D03*
X172300D02*
D03*
X266300Y356100D02*
D03*
X276300D02*
D03*
X286300D02*
D03*
X296300D02*
D03*
X306300D02*
D03*
X193300D02*
D03*
X203300D02*
D03*
X213300D02*
D03*
X223300D02*
D03*
X233300D02*
D03*
X121800D02*
D03*
X131800D02*
D03*
X141800D02*
D03*
X151800D02*
D03*
X161800D02*
D03*
X133000Y86500D02*
D03*
X143000D02*
D03*
X153000D02*
D03*
X163000D02*
D03*
X173000D02*
D03*
D38*
X379000Y391000D02*
D03*
X16000D02*
D03*
Y28000D02*
D03*
X379000D02*
D03*
D39*
X224000Y74000D02*
D03*
D40*
X217610Y378600D02*
D03*
X290610D02*
D03*
X70820D02*
D03*
X146110D02*
D03*
D41*
X231390D02*
D03*
X304390D02*
D03*
X84600D02*
D03*
X159890D02*
D03*
D42*
X36100Y128800D02*
D03*
D43*
X48600Y148300D02*
D03*
X24100D02*
D03*
D44*
X268000Y176000D02*
D03*
Y157000D02*
D03*
D45*
X35700Y51534D02*
D03*
Y103266D02*
D03*
D46*
X46369Y63620D02*
D03*
Y73463D02*
D03*
Y81337D02*
D03*
Y91180D02*
D03*
D47*
X127439Y363750D02*
D03*
X51619Y363799D02*
D03*
X163200Y222300D02*
D03*
X40600Y191000D02*
D03*
X8900Y191900D02*
D03*
X6700Y202000D02*
D03*
X112250Y96300D02*
D03*
X218178Y111600D02*
D03*
X212522D02*
D03*
X131214Y58000D02*
D03*
X187046Y111600D02*
D03*
X119458Y218500D02*
D03*
X118500Y174000D02*
D03*
X123249Y170375D02*
D03*
X155049Y183000D02*
D03*
X244000Y254100D02*
D03*
X266500D02*
D03*
X259000D02*
D03*
X251500D02*
D03*
X267750Y298050D02*
D03*
X260250D02*
D03*
X252750D02*
D03*
X245250D02*
D03*
X282100Y304300D02*
D03*
X223400Y298800D02*
D03*
X136950Y298600D02*
D03*
X144643Y58343D02*
D03*
X214000Y49600D02*
D03*
X324600Y215900D02*
D03*
X287400Y235100D02*
D03*
X46650Y35899D02*
D03*
X171500Y58000D02*
D03*
X124600Y57806D02*
D03*
X303400Y221300D02*
D03*
X224300Y249000D02*
D03*
X232500Y206100D02*
D03*
X227000Y206400D02*
D03*
X274000Y217600D02*
D03*
X273800Y202200D02*
D03*
X271900Y239000D02*
D03*
X269100Y235100D02*
D03*
X192546Y111600D02*
D03*
X156000Y114000D02*
D03*
X182000Y104000D02*
D03*
X108500Y213500D02*
D03*
X72500Y250000D02*
D03*
X70450Y270000D02*
D03*
X193679Y379049D02*
D03*
X71000Y293724D02*
D03*
X251300Y121270D02*
D03*
X137500Y293725D02*
D03*
X251300Y126770D02*
D03*
X276700Y378900D02*
D03*
X253000Y187500D02*
D03*
X265779Y379049D02*
D03*
X253000Y193000D02*
D03*
X175000Y240000D02*
D03*
X236600Y242200D02*
D03*
X204600Y378900D02*
D03*
X206714Y128500D02*
D03*
X271490Y363750D02*
D03*
X199240D02*
D03*
X55850Y257495D02*
D03*
X207800Y252043D02*
D03*
Y257495D02*
D03*
Y268400D02*
D03*
X207606Y262848D02*
D03*
X207651Y288199D02*
D03*
Y293724D02*
D03*
X207800Y299250D02*
D03*
X152500Y288200D02*
D03*
Y293725D02*
D03*
X152649Y299250D02*
D03*
X55701Y293724D02*
D03*
Y299250D02*
D03*
X251300Y143900D02*
D03*
Y149400D02*
D03*
X188345Y206351D02*
D03*
X182845D02*
D03*
X199501D02*
D03*
X194000D02*
D03*
X155049Y161001D02*
D03*
X172000Y206500D02*
D03*
X149000Y155000D02*
D03*
X234500Y172000D02*
D03*
X260600Y184700D02*
D03*
X277000Y187000D02*
D03*
X276742Y144369D02*
D03*
X258347D02*
D03*
X219000Y167500D02*
D03*
Y162500D02*
D03*
X234500Y161500D02*
D03*
X155049Y132045D02*
D03*
Y137545D02*
D03*
X56900Y378900D02*
D03*
X45979Y379049D02*
D03*
X152694Y257595D02*
D03*
X152500Y252043D02*
D03*
X152650Y268400D02*
D03*
X207500Y103500D02*
D03*
X213000D02*
D03*
X206000Y77000D02*
D03*
X205000Y53500D02*
D03*
X78350Y249200D02*
D03*
X229000D02*
D03*
X282000D02*
D03*
X301156Y252043D02*
D03*
Y257495D02*
D03*
X300500Y270000D02*
D03*
X131500Y250500D02*
D03*
X93500Y253950D02*
D03*
X101000D02*
D03*
X108500D02*
D03*
X116000D02*
D03*
X94500Y298050D02*
D03*
X102000D02*
D03*
X109500D02*
D03*
X117000D02*
D03*
X72750Y298800D02*
D03*
X96900Y218200D02*
D03*
X132400Y378900D02*
D03*
X121479Y379049D02*
D03*
X181546Y111600D02*
D03*
X176046D02*
D03*
X170546D02*
D03*
X164935Y111451D02*
D03*
X222950Y293724D02*
D03*
X287000Y293700D02*
D03*
X301156Y299250D02*
D03*
X301305Y293724D02*
D03*
Y288199D02*
D03*
X66506Y165000D02*
D03*
X66700Y159800D02*
D03*
X122599Y32949D02*
D03*
X127999D02*
D03*
X58349Y43501D02*
D03*
X58449Y49000D02*
D03*
X58443Y59951D02*
D03*
X73900Y49700D02*
D03*
X151358Y73150D02*
D03*
X138000Y73000D02*
D03*
X131214D02*
D03*
X183800Y74000D02*
D03*
X180750Y70000D02*
D03*
X191434Y77000D02*
D03*
X197811Y93717D02*
D03*
X223678Y111600D02*
D03*
X229223Y111451D02*
D03*
X376025Y306000D02*
D03*
X385000Y206000D02*
D03*
X388000Y199925D02*
D03*
X373000Y206000D02*
D03*
X379000D02*
D03*
X373000Y300404D02*
D03*
X385000Y300000D02*
D03*
X256000Y138347D02*
D03*
X373764Y198988D02*
D03*
X283300Y237000D02*
D03*
X171500Y73000D02*
D03*
X106584Y174089D02*
D03*
X200000Y143000D02*
D03*
X203565Y173588D02*
D03*
X188976Y158999D02*
D03*
X73770Y39443D02*
D03*
X85686Y57357D02*
D03*
X114249Y47100D02*
D03*
X68681Y37523D02*
D03*
X19089Y228920D02*
D03*
X55850Y288200D02*
D03*
X120800Y243100D02*
D03*
X221900Y265800D02*
D03*
X47379Y273000D02*
D03*
X63800Y247300D02*
D03*
D48*
X187200Y249100D02*
D03*
X165000Y240000D02*
D03*
X17300Y249072D02*
D03*
X314500Y234772D02*
D03*
X304772Y265500D02*
D03*
X184872Y269500D02*
D03*
X174428Y269400D02*
D03*
X329429Y338700D02*
D03*
Y319300D02*
D03*
X42571D02*
D03*
Y338700D02*
D03*
X257500Y319500D02*
D03*
Y338700D02*
D03*
X186000Y319300D02*
D03*
X186500Y338700D02*
D03*
X114500Y319500D02*
D03*
X114000Y338700D02*
D03*
X81128Y224100D02*
D03*
X78000Y210429D02*
D03*
X109801Y125072D02*
D03*
X100200Y86572D02*
D03*
X73100Y86272D02*
D03*
X57200Y170000D02*
D03*
X50400Y233828D02*
D03*
X39200Y266300D02*
D03*
M02*
