M48
;Layer_Color=9474304
;FILE_FORMAT=2:5
INCH,LZ
;TYPE=PLATED
T1F00S00C0.01200
T2F00S00C0.02800
T3F00S00C0.03200
T4F00S00C0.03740
T5F00S00C0.03937
T7F00S00C0.04000
T8F00S00C0.05118
T9F00S00C0.09055
T10F00S00C0.11811
%
T01
X0122599Y0032949
X0127999
X0114249Y00471
X01246Y0057806
X0131214Y0058
X0144643Y0058343
X01715Y0058
X0205Y00535
X0214Y00496
X0085686Y0057357
X00739Y00497
X007377Y0039443
X0068681Y0037523
X0058349Y0043501
X0058449Y0049
X0058443Y0059951
X004665Y0035899
X00667Y01598
X0066506Y0165
X00406Y0191
X00089Y01919
X00067Y0202
X01085Y02135
X0106584Y0174089
X01185Y0174
X0123249Y0170375
X0149Y0155
X0155049Y0161001
Y0183
X0172Y02065
X0182845Y0206351
X0188345
X0194
X0199501
X0227Y02064
X02325Y02061
X02345Y0172
Y01615
X0219Y01625
Y01675
X0203565Y0173588
X0188976Y0158999
X02Y0143
X0206714Y01285
X0212522Y01116
X0218178
X0223678
X0229223Y0111451
X0213Y01035
X02075
X0197811Y0093717
X0191434Y0077
X01838Y0074
X018075Y007
X01715Y0073
X0151358Y007315
X0138Y0073
X0131214
X011225Y00963
X0156Y0114
X0164935Y0111451
X0170546Y01116
X0176046
X0181546
X0187046
X0192546
X0182Y0104
X0206Y0077
X0155049Y0132045
Y0137545
X0256Y0138347
X0258347Y0144369
X02513Y01439
Y01494
Y012677
Y012127
X0276742Y0144369
X0277Y0187
X02738Y02022
X0274Y02176
X0253Y0193
Y01875
X02606Y01847
X03246Y02159
X0373Y0206
X0379
X0385
X0388Y0199925
X0373764Y0198988
X03034Y02213
X02874Y02351
X02833Y0237
X02719Y0239
X02691Y02351
X02665Y02541
X0259
X02515
X0282Y02492
X0301156Y0252043
Y0257495
X03005Y027
X0301305Y0288199
Y0293724
X0301156Y029925
X0287Y02937
X02821Y03043
X026775Y029805
X026025
X025275
X027149Y036375
X0376025Y0306
X0373Y0300404
X0385Y03
X024525Y029805
X02234Y02988
X022295Y0293724
X0207651
Y0288199
X02078Y029925
Y02684
X0207606Y0262848
X02078Y0257495
Y0252043
X02243Y0249
X0229Y02492
X02366Y02422
X0244Y02541
X02219Y02658
X015265Y02684
X0152694Y0257595
X01525Y0252043
X01315Y02505
X01208Y02431
X0116Y025395
X01085
X0101
X00935
X00969Y02182
X0119458Y02185
X01632Y02223
X0175Y024
X01525Y02882
Y0293725
X0152649Y029925
X013695Y02986
X01375Y0293725
X0117Y029805
X01095
X0102
X00945
X0127439Y036375
X019924
X0051619Y0363799
X0055701Y029925
Y0293724
X005585Y02882
X0071Y0293724
X007275Y02988
X007045Y027
X00725Y025
X007835Y02492
X00638Y02473
X005585Y0257495
X0047379Y0273
X0019089Y022892
X0045979Y0379049
X00569Y03789
X0121479Y0379049
X01324Y03789
X0193679Y0379049
X02046Y03789
X0265779Y0379049
X02767Y03789
T02
X00731Y0086272
X00572Y017
X0078Y0210429
X0109801Y0125072
X01002Y0086572
X03145Y0234772
X0304772Y02655
X0329429Y03193
Y03387
X02575
Y03195
X0186Y03193
X01865Y03387
X0184872Y02695
X0174428Y02694
X01872Y02491
X0165Y024
X01145Y03195
X0114Y03387
X0042571
Y03193
X00392Y02663
X00173Y0249072
X00504Y0233828
X0081128Y02241
T03
X0268Y0157
Y0176
T04
X0046369Y006362
Y0073463
Y0081337
Y009118
T05
X0224Y0024
Y0034
Y0044
Y0054
Y0064
Y0074
X0173Y00865
X0163
X0153
X0143
X0133
X0123
X02563Y03561
X02663
X02763
X02863
X02963
X03063
X02333
X02233
X02133
X02033
X01933
X01833
X01618
X01518
X01418
X01318
X01218
X01118
X01723Y02203
X01823
X01923
X02023
X02123
X02223
X00867Y03561
X00767
X00667
X00567
X00467
X00367
T07
X03358Y00903
X03458
X03558
X03658
Y01003
X03558
X03458
X03358
Y02075
X03458
X03558
X03658
Y02175
X03558
X03458
X03358
T08
X007082Y03786
X00846
X014611
X015989
X021761
X023139
X029061
X030439
T09
X00357Y0051534
Y0103266
T10
X0379Y0028
X0016
Y0391
X0379
M30
