G04 Layer_Color=128*
%FSLAX25Y25*%
%MOIN*%
G70*
G01*
G75*
%ADD96C,0.00200*%
D96*
X34732Y356100D02*
X38669D01*
X36700Y354132D02*
Y358068D01*
X44732Y356100D02*
X48669D01*
X46700Y354132D02*
Y358068D01*
X54732Y356100D02*
X58669D01*
X56700Y354132D02*
Y358068D01*
X64732Y356100D02*
X68669D01*
X66700Y354132D02*
Y358068D01*
X74731Y356100D02*
X78668D01*
X76700Y354132D02*
Y358068D01*
X84732Y356100D02*
X88669D01*
X86700Y354132D02*
Y358068D01*
X333800Y90300D02*
X337800D01*
X335800Y88300D02*
Y92300D01*
X343800Y90300D02*
X347800D01*
X345800Y88300D02*
Y92300D01*
X353800Y90300D02*
X357800D01*
X355800Y88300D02*
Y92300D01*
X363800Y90300D02*
X367800D01*
X365800Y88300D02*
Y92300D01*
X363800Y100300D02*
X367800D01*
X365800Y98300D02*
Y102300D01*
X353800Y100300D02*
X357800D01*
X355800Y98300D02*
Y102300D01*
X343800Y100300D02*
X347800D01*
X345800Y98300D02*
Y102300D01*
X333800Y100300D02*
X337800D01*
X335800Y98300D02*
Y102300D01*
X373095Y391000D02*
X384906D01*
X379000Y385094D02*
Y396905D01*
X10095Y391000D02*
X21905D01*
X16000Y385094D02*
Y396905D01*
X10095Y28000D02*
X21905D01*
X16000Y22095D02*
Y33906D01*
X373095Y28000D02*
X384906D01*
X379000Y22095D02*
Y33906D01*
X333800Y207500D02*
X337800D01*
X335800Y205500D02*
Y209500D01*
X343800Y207500D02*
X347800D01*
X345800Y205500D02*
Y209500D01*
X353800Y207500D02*
X357800D01*
X355800Y205500D02*
Y209500D01*
X363800Y207500D02*
X367800D01*
X365800Y205500D02*
Y209500D01*
X363800Y217500D02*
X367800D01*
X365800Y215500D02*
Y219500D01*
X353800Y217500D02*
X357800D01*
X355800Y215500D02*
Y219500D01*
X343800Y217500D02*
X347800D01*
X345800Y215500D02*
Y219500D01*
X333800Y217500D02*
X337800D01*
X335800Y215500D02*
Y219500D01*
X222031Y24000D02*
X225969D01*
X224000Y22031D02*
Y25969D01*
X222031Y34000D02*
X225969D01*
X224000Y32032D02*
Y35969D01*
X222031Y44000D02*
X225969D01*
X224000Y42031D02*
Y45968D01*
X222031Y54000D02*
X225969D01*
X224000Y52031D02*
Y55968D01*
X222031Y64000D02*
X225969D01*
X224000Y62032D02*
Y65969D01*
X222031Y74000D02*
X225969D01*
X224000Y72031D02*
Y75968D01*
X215051Y378600D02*
X220169D01*
X217610Y376041D02*
Y381159D01*
X228831Y378600D02*
X233949D01*
X231390Y376041D02*
Y381159D01*
X288051Y378600D02*
X293169D01*
X290610Y376041D02*
Y381159D01*
X301831Y378600D02*
X306949D01*
X304390Y376041D02*
Y381159D01*
X68261Y378600D02*
X73379D01*
X70820Y376041D02*
Y381159D01*
X82041Y378600D02*
X87159D01*
X84600Y376041D02*
Y381159D01*
X143551Y378600D02*
X148669D01*
X146110Y376041D02*
Y381159D01*
X157331Y378600D02*
X162449D01*
X159890Y376041D02*
Y381159D01*
X34132Y128800D02*
X38069D01*
X36100Y126831D02*
Y130769D01*
X46632Y148300D02*
X50568D01*
X48600Y146332D02*
Y150268D01*
X22131Y148300D02*
X26068D01*
X24100Y146332D02*
Y150268D01*
X266400Y176000D02*
X269600D01*
X268000Y174400D02*
Y177600D01*
X266400Y157000D02*
X269600D01*
X268000Y155400D02*
Y158600D01*
X220332Y220300D02*
X224269D01*
X222300Y218332D02*
Y222269D01*
X210332Y220300D02*
X214268D01*
X212300Y218332D02*
Y222269D01*
X200331Y220300D02*
X204269D01*
X202300Y218332D02*
Y222269D01*
X190331Y220300D02*
X194269D01*
X192300Y218332D02*
Y222269D01*
X180332Y220300D02*
X184268D01*
X182300Y218332D02*
Y222269D01*
X170332Y220300D02*
X174268D01*
X172300Y218332D02*
Y222269D01*
X31172Y51534D02*
X40227D01*
X35700Y47006D02*
Y56062D01*
X31172Y103266D02*
X40227D01*
X35700Y98738D02*
Y107793D01*
X44499Y63620D02*
X48239D01*
X46369Y61750D02*
Y65490D01*
X44499Y73463D02*
X48239D01*
X46369Y71593D02*
Y75333D01*
X44499Y81337D02*
X48239D01*
X46369Y79467D02*
Y83207D01*
X44499Y91180D02*
X48239D01*
X46369Y89310D02*
Y93050D01*
X254331Y356100D02*
X258268D01*
X256300Y354132D02*
Y358068D01*
X264332Y356100D02*
X268268D01*
X266300Y354132D02*
Y358068D01*
X274331Y356100D02*
X278269D01*
X276300Y354132D02*
Y358068D01*
X284331Y356100D02*
X288268D01*
X286300Y354132D02*
Y358068D01*
X294332Y356100D02*
X298269D01*
X296300Y354132D02*
Y358068D01*
X304331Y356100D02*
X308268D01*
X306300Y354132D02*
Y358068D01*
X181332Y356100D02*
X185268D01*
X183300Y354132D02*
Y358068D01*
X191332Y356100D02*
X195268D01*
X193300Y354132D02*
Y358068D01*
X201331Y356100D02*
X205269D01*
X203300Y354132D02*
Y358068D01*
X211332Y356100D02*
X215268D01*
X213300Y354132D02*
Y358068D01*
X221332Y356100D02*
X225269D01*
X223300Y354132D02*
Y358068D01*
X231331Y356100D02*
X235268D01*
X233300Y354132D02*
Y358068D01*
X109832Y356100D02*
X113768D01*
X111800Y354132D02*
Y358068D01*
X119832Y356100D02*
X123768D01*
X121800Y354132D02*
Y358068D01*
X129832Y356100D02*
X133768D01*
X131800Y354132D02*
Y358068D01*
X139831Y356100D02*
X143769D01*
X141800Y354132D02*
Y358068D01*
X149831Y356100D02*
X153769D01*
X151800Y354132D02*
Y358068D01*
X159832Y356100D02*
X163768D01*
X161800Y354132D02*
Y358068D01*
X121031Y86500D02*
X124969D01*
X123000Y84531D02*
Y88468D01*
X131032Y86500D02*
X134968D01*
X133000Y84531D02*
Y88468D01*
X141032Y86500D02*
X144968D01*
X143000Y84531D02*
Y88468D01*
X151031Y86500D02*
X154969D01*
X153000Y84531D02*
Y88468D01*
X161031Y86500D02*
X164969D01*
X163000Y84531D02*
Y88468D01*
X171031Y86500D02*
X174969D01*
X173000Y84531D02*
Y88468D01*
X126839Y363750D02*
X128040D01*
X127439Y363150D02*
Y364350D01*
X51019Y363799D02*
X52219D01*
X51619Y363199D02*
Y364399D01*
X162600Y222300D02*
X163800D01*
X163200Y221700D02*
Y222900D01*
X40000Y191000D02*
X41200D01*
X40600Y190400D02*
Y191600D01*
X8300Y191900D02*
X9500D01*
X8900Y191300D02*
Y192500D01*
X6100Y202000D02*
X7300D01*
X6700Y201400D02*
Y202600D01*
X111650Y96300D02*
X112850D01*
X112250Y95700D02*
Y96900D01*
X217578Y111600D02*
X218778D01*
X218178Y111000D02*
Y112200D01*
X211922Y111600D02*
X213122D01*
X212522Y111000D02*
Y112200D01*
X130614Y58000D02*
X131814D01*
X131214Y57400D02*
Y58600D01*
X186446Y111600D02*
X187646D01*
X187046Y111000D02*
Y112200D01*
X118858Y218500D02*
X120058D01*
X119458Y217900D02*
Y219100D01*
X117900Y174000D02*
X119100D01*
X118500Y173400D02*
Y174600D01*
X122649Y170375D02*
X123849D01*
X123249Y169775D02*
Y170975D01*
X154449Y183000D02*
X155649D01*
X155049Y182400D02*
Y183600D01*
X243400Y254100D02*
X244600D01*
X244000Y253500D02*
Y254700D01*
X265900Y254100D02*
X267100D01*
X266500Y253500D02*
Y254700D01*
X258400Y254100D02*
X259600D01*
X259000Y253500D02*
Y254700D01*
X250900Y254100D02*
X252100D01*
X251500Y253500D02*
Y254700D01*
X267150Y298050D02*
X268350D01*
X267750Y297450D02*
Y298650D01*
X259650Y298050D02*
X260850D01*
X260250Y297450D02*
Y298650D01*
X252150Y298050D02*
X253350D01*
X252750Y297450D02*
Y298650D01*
X244650Y298050D02*
X245850D01*
X245250Y297450D02*
Y298650D01*
X281500Y304300D02*
X282700D01*
X282100Y303700D02*
Y304900D01*
X222800Y298800D02*
X224000D01*
X223400Y298200D02*
Y299400D01*
X136350Y298600D02*
X137550D01*
X136950Y298000D02*
Y299200D01*
X144043Y58343D02*
X145243D01*
X144643Y57743D02*
Y58943D01*
X213400Y49600D02*
X214600D01*
X214000Y49000D02*
Y50200D01*
X324000Y215900D02*
X325200D01*
X324600Y215300D02*
Y216500D01*
X286800Y235100D02*
X288000D01*
X287400Y234500D02*
Y235700D01*
X46050Y35899D02*
X47250D01*
X46650Y35300D02*
Y36500D01*
X170900Y58000D02*
X172100D01*
X171500Y57400D02*
Y58600D01*
X124000Y57806D02*
X125200D01*
X124600Y57206D02*
Y58406D01*
X302800Y221300D02*
X304000D01*
X303400Y220700D02*
Y221900D01*
X185800Y249100D02*
X188600D01*
X187200Y247700D02*
Y250500D01*
X223700Y249000D02*
X224900D01*
X224300Y248400D02*
Y249600D01*
X231900Y206100D02*
X233100D01*
X232500Y205500D02*
Y206700D01*
X226400Y206400D02*
X227600D01*
X227000Y205800D02*
Y207000D01*
X273400Y217600D02*
X274600D01*
X274000Y217000D02*
Y218200D01*
X273200Y202200D02*
X274400D01*
X273800Y201600D02*
Y202800D01*
X271300Y239000D02*
X272500D01*
X271900Y238400D02*
Y239600D01*
X268500Y235100D02*
X269700D01*
X269100Y234500D02*
Y235700D01*
X191946Y111600D02*
X193146D01*
X192546Y111000D02*
Y112200D01*
X155400Y114000D02*
X156600D01*
X156000Y113400D02*
Y114600D01*
X181400Y104000D02*
X182600D01*
X182000Y103400D02*
Y104600D01*
X107900Y213500D02*
X109100D01*
X108500Y212900D02*
Y214100D01*
X71900Y250000D02*
X73100D01*
X72500Y249400D02*
Y250600D01*
X69850Y270000D02*
X71050D01*
X70450Y269400D02*
Y270600D01*
X193079Y379049D02*
X194280D01*
X193679Y378449D02*
Y379649D01*
X70400Y293724D02*
X71600D01*
X71000Y293125D02*
Y294324D01*
X250700Y121270D02*
X251900D01*
X251300Y120670D02*
Y121870D01*
X136900Y293725D02*
X138100D01*
X137500Y293125D02*
Y294325D01*
X250700Y126770D02*
X251900D01*
X251300Y126170D02*
Y127370D01*
X276100Y378900D02*
X277300D01*
X276700Y378300D02*
Y379500D01*
X252400Y187500D02*
X253600D01*
X253000Y186900D02*
Y188100D01*
X265179Y379049D02*
X266379D01*
X265779Y378449D02*
Y379649D01*
X252400Y193000D02*
X253600D01*
X253000Y192400D02*
Y193600D01*
X174400Y240000D02*
X175600D01*
X175000Y239400D02*
Y240600D01*
X236000Y242200D02*
X237200D01*
X236600Y241600D02*
Y242800D01*
X163600Y240000D02*
X166400D01*
X165000Y238600D02*
Y241400D01*
X204000Y378900D02*
X205200D01*
X204600Y378300D02*
Y379500D01*
X206114Y128500D02*
X207314D01*
X206714Y127900D02*
Y129100D01*
X270889Y363750D02*
X272090D01*
X271490Y363150D02*
Y364350D01*
X198640Y363750D02*
X199839D01*
X199240Y363150D02*
Y364350D01*
X15900Y249072D02*
X18700D01*
X17300Y247672D02*
Y250472D01*
X313100Y234772D02*
X315900D01*
X314500Y233372D02*
Y236172D01*
X303372Y265500D02*
X306172D01*
X304772Y264100D02*
Y266900D01*
X183472Y269500D02*
X186272D01*
X184872Y268100D02*
Y270900D01*
X173028Y269400D02*
X175828D01*
X174428Y268000D02*
Y270800D01*
X328028Y338700D02*
X330828D01*
X329429Y337300D02*
Y340100D01*
X328028Y319300D02*
X330828D01*
X329429Y317900D02*
Y320700D01*
X41171Y319300D02*
X43971D01*
X42571Y317900D02*
Y320700D01*
X41171Y338700D02*
X43971D01*
X42571Y337300D02*
Y340100D01*
X256100Y319500D02*
X258900D01*
X257500Y318100D02*
Y320900D01*
X256100Y338700D02*
X258900D01*
X257500Y337300D02*
Y340100D01*
X184600Y319300D02*
X187400D01*
X186000Y317900D02*
Y320700D01*
X185100Y338700D02*
X187900D01*
X186500Y337300D02*
Y340100D01*
X113100Y319500D02*
X115900D01*
X114500Y318100D02*
Y320900D01*
X112600Y338700D02*
X115400D01*
X114000Y337300D02*
Y340100D01*
X55250Y257495D02*
X56450D01*
X55850Y256895D02*
Y258095D01*
X207200Y252043D02*
X208400D01*
X207800Y251443D02*
Y252643D01*
X207200Y257495D02*
X208400D01*
X207800Y256895D02*
Y258095D01*
X207200Y268400D02*
X208400D01*
X207800Y267800D02*
Y269000D01*
X207006Y262848D02*
X208206D01*
X207606Y262248D02*
Y263448D01*
X207051Y288199D02*
X208251D01*
X207651Y287599D02*
Y288800D01*
X207051Y293724D02*
X208251D01*
X207651Y293125D02*
Y294324D01*
X207200Y299250D02*
X208400D01*
X207800Y298650D02*
Y299850D01*
X151900Y288200D02*
X153100D01*
X152500Y287600D02*
Y288800D01*
X151900Y293725D02*
X153100D01*
X152500Y293125D02*
Y294325D01*
X152049Y299250D02*
X153249D01*
X152649Y298650D02*
Y299850D01*
X55101Y293724D02*
X56301D01*
X55701Y293125D02*
Y294324D01*
X55101Y299250D02*
X56301D01*
X55701Y298650D02*
Y299850D01*
X250700Y143900D02*
X251900D01*
X251300Y143300D02*
Y144500D01*
X250700Y149400D02*
X251900D01*
X251300Y148800D02*
Y150000D01*
X187745Y206351D02*
X188945D01*
X188345Y205751D02*
Y206951D01*
X182245Y206351D02*
X183445D01*
X182845Y205751D02*
Y206951D01*
X198900Y206351D02*
X200100D01*
X199501Y205751D02*
Y206951D01*
X193401Y206351D02*
X194600D01*
X194000Y205751D02*
Y206951D01*
X154449Y161001D02*
X155649D01*
X155049Y160400D02*
Y161600D01*
X171400Y206500D02*
X172600D01*
X172000Y205900D02*
Y207100D01*
X148400Y155000D02*
X149600D01*
X149000Y154400D02*
Y155600D01*
X233900Y172000D02*
X235100D01*
X234500Y171400D02*
Y172600D01*
X260000Y184700D02*
X261200D01*
X260600Y184100D02*
Y185300D01*
X276400Y187000D02*
X277600D01*
X277000Y186400D02*
Y187600D01*
X276142Y144369D02*
X277342D01*
X276742Y143769D02*
Y144969D01*
X257747Y144369D02*
X258947D01*
X258347Y143769D02*
Y144969D01*
X218400Y167500D02*
X219600D01*
X219000Y166900D02*
Y168100D01*
X218400Y162500D02*
X219600D01*
X219000Y161900D02*
Y163100D01*
X233900Y161500D02*
X235100D01*
X234500Y160900D02*
Y162100D01*
X154449Y132045D02*
X155649D01*
X155049Y131445D02*
Y132645D01*
X154449Y137545D02*
X155649D01*
X155049Y136945D02*
Y138145D01*
X56300Y378900D02*
X57500D01*
X56900Y378300D02*
Y379500D01*
X45379Y379049D02*
X46580D01*
X45979Y378449D02*
Y379649D01*
X152094Y257595D02*
X153294D01*
X152694Y256995D02*
Y258195D01*
X151900Y252043D02*
X153100D01*
X152500Y251443D02*
Y252643D01*
X152050Y268400D02*
X153250D01*
X152650Y267799D02*
Y269000D01*
X206900Y103500D02*
X208100D01*
X207500Y102900D02*
Y104100D01*
X212400Y103500D02*
X213600D01*
X213000Y102900D02*
Y104100D01*
X205400Y77000D02*
X206600D01*
X206000Y76400D02*
Y77600D01*
X204400Y53500D02*
X205600D01*
X205000Y52900D02*
Y54100D01*
X77750Y249200D02*
X78950D01*
X78350Y248600D02*
Y249800D01*
X228400Y249200D02*
X229600D01*
X229000Y248600D02*
Y249800D01*
X281400Y249200D02*
X282600D01*
X282000Y248600D02*
Y249800D01*
X300556Y252043D02*
X301756D01*
X301156Y251443D02*
Y252643D01*
X300556Y257495D02*
X301756D01*
X301156Y256895D02*
Y258095D01*
X299900Y270000D02*
X301100D01*
X300500Y269400D02*
Y270600D01*
X130900Y250500D02*
X132100D01*
X131500Y249900D02*
Y251100D01*
X92900Y253950D02*
X94100D01*
X93500Y253350D02*
Y254550D01*
X100400Y253950D02*
X101600D01*
X101000Y253350D02*
Y254550D01*
X107900Y253950D02*
X109100D01*
X108500Y253350D02*
Y254550D01*
X115400Y253950D02*
X116600D01*
X116000Y253350D02*
Y254550D01*
X93900Y298050D02*
X95100D01*
X94500Y297450D02*
Y298650D01*
X101400Y298050D02*
X102600D01*
X102000Y297450D02*
Y298650D01*
X108900Y298050D02*
X110100D01*
X109500Y297450D02*
Y298650D01*
X116400Y298050D02*
X117600D01*
X117000Y297450D02*
Y298650D01*
X72150Y298800D02*
X73350D01*
X72750Y298200D02*
Y299400D01*
X96300Y218200D02*
X97500D01*
X96900Y217600D02*
Y218800D01*
X131800Y378900D02*
X133000D01*
X132400Y378300D02*
Y379500D01*
X120879Y379049D02*
X122080D01*
X121479Y378449D02*
Y379649D01*
X180946Y111600D02*
X182146D01*
X181546Y111000D02*
Y112200D01*
X175446Y111600D02*
X176646D01*
X176046Y111000D02*
Y112200D01*
X169946Y111600D02*
X171146D01*
X170546Y111000D02*
Y112200D01*
X164335Y111451D02*
X165535D01*
X164935Y110851D02*
Y112051D01*
X222350Y293724D02*
X223550D01*
X222950Y293125D02*
Y294324D01*
X286400Y293700D02*
X287600D01*
X287000Y293100D02*
Y294300D01*
X300556Y299250D02*
X301756D01*
X301156Y298650D02*
Y299850D01*
X300705Y293724D02*
X301905D01*
X301305Y293125D02*
Y294324D01*
X300705Y288199D02*
X301905D01*
X301305Y287599D02*
Y288800D01*
X65906Y165000D02*
X67106D01*
X66506Y164400D02*
Y165600D01*
X66100Y159800D02*
X67300D01*
X66700Y159200D02*
Y160400D01*
X122000Y32949D02*
X123199D01*
X122599Y32349D02*
Y33549D01*
X127400Y32949D02*
X128600D01*
X127999Y32349D02*
Y33549D01*
X57749Y43501D02*
X58949D01*
X58349Y42900D02*
Y44100D01*
X57849Y49000D02*
X59049D01*
X58449Y48401D02*
Y49600D01*
X57843Y59951D02*
X59043D01*
X58443Y59351D02*
Y60550D01*
X73300Y49700D02*
X74500D01*
X73900Y49100D02*
Y50300D01*
X79728Y224100D02*
X82528D01*
X81128Y222700D02*
Y225500D01*
X76600Y210429D02*
X79400D01*
X78000Y209029D02*
Y211829D01*
X108401Y125072D02*
X111201D01*
X109801Y123672D02*
Y126472D01*
X98800Y86572D02*
X101600D01*
X100200Y85172D02*
Y87972D01*
X71700Y86272D02*
X74500D01*
X73100Y84872D02*
Y87672D01*
X150758Y73150D02*
X151958D01*
X151358Y72550D02*
Y73750D01*
X137400Y73000D02*
X138600D01*
X138000Y72400D02*
Y73600D01*
X130614Y73000D02*
X131814D01*
X131214Y72400D02*
Y73600D01*
X183200Y74000D02*
X184400D01*
X183800Y73400D02*
Y74600D01*
X180150Y70000D02*
X181350D01*
X180750Y69400D02*
Y70600D01*
X190834Y77000D02*
X192034D01*
X191434Y76400D02*
Y77600D01*
X197211Y93717D02*
X198411D01*
X197811Y93117D02*
Y94317D01*
X223078Y111600D02*
X224278D01*
X223678Y111000D02*
Y112200D01*
X228623Y111451D02*
X229823D01*
X229223Y110851D02*
Y112051D01*
X375425Y306000D02*
X376625D01*
X376025Y305400D02*
Y306600D01*
X384400Y206000D02*
X385600D01*
X385000Y205400D02*
Y206600D01*
X387400Y199925D02*
X388600D01*
X388000Y199325D02*
Y200525D01*
X372400Y206000D02*
X373600D01*
X373000Y205400D02*
Y206600D01*
X378400Y206000D02*
X379600D01*
X379000Y205400D02*
Y206600D01*
X372400Y300404D02*
X373600D01*
X373000Y299804D02*
Y301004D01*
X384400Y300000D02*
X385600D01*
X385000Y299400D02*
Y300600D01*
X255400Y138347D02*
X256600D01*
X256000Y137747D02*
Y138947D01*
X373164Y198988D02*
X374364D01*
X373764Y198388D02*
Y199588D01*
X282700Y237000D02*
X283900D01*
X283300Y236400D02*
Y237600D01*
X170900Y73000D02*
X172100D01*
X171500Y72400D02*
Y73600D01*
X105984Y174089D02*
X107184D01*
X106584Y173489D02*
Y174689D01*
X199400Y143000D02*
X200600D01*
X200000Y142400D02*
Y143600D01*
X202965Y173588D02*
X204165D01*
X203565Y172988D02*
Y174188D01*
X188376Y158999D02*
X189576D01*
X188976Y158399D02*
Y159599D01*
X73170Y39443D02*
X74370D01*
X73770Y38843D02*
Y40043D01*
X85086Y57357D02*
X86286D01*
X85686Y56757D02*
Y57957D01*
X113649Y47100D02*
X114849D01*
X114249Y46501D02*
Y47701D01*
X68081Y37523D02*
X69280D01*
X68681Y36923D02*
Y38123D01*
X18489Y228920D02*
X19689D01*
X19089Y228320D02*
Y229520D01*
X55800Y170000D02*
X58600D01*
X57200Y168600D02*
Y171400D01*
X49000Y233828D02*
X51800D01*
X50400Y232428D02*
Y235228D01*
X55250Y288200D02*
X56450D01*
X55850Y287600D02*
Y288800D01*
X120200Y243100D02*
X121400D01*
X120800Y242500D02*
Y243700D01*
X221300Y265800D02*
X222500D01*
X221900Y265200D02*
Y266400D01*
X37800Y266300D02*
X40600D01*
X39200Y264900D02*
Y267700D01*
X46779Y273000D02*
X47979D01*
X47379Y272400D02*
Y273600D01*
X63200Y247300D02*
X64400D01*
X63800Y246700D02*
Y247900D01*
M02*
