G04 Layer_Color=32896*
%FSLAX25Y25*%
%MOIN*%
G70*
G01*
G75*
%ADD33C,0.01000*%
D33*
X228400Y396700D02*
X233400D01*
X184400D02*
X190400D01*
X45400D02*
X54400D01*
X228400Y395700D02*
X233400D01*
X183400D02*
X189400D01*
X45400D02*
X53400D01*
X229400Y394700D02*
X233400D01*
X182400D02*
X188400D01*
X44400D02*
X53400D01*
X229400Y393700D02*
X234400D01*
X182400D02*
X188400D01*
X44400D02*
X52400D01*
X229400Y392700D02*
X234400D01*
X180400D02*
X187400D01*
X43400D02*
X52400D01*
X229400Y391700D02*
X234400D01*
X179400D02*
X186400D01*
X43400D02*
X51400D01*
X230400Y390700D02*
X234400D01*
X178400D02*
X185400D01*
X42400D02*
X51400D01*
X230400Y389700D02*
X235400D01*
X177400D02*
X183400D01*
X42400D02*
X51400D01*
X230400Y388700D02*
X235400D01*
X175400D02*
X182400D01*
X41400D02*
X50400D01*
X230400Y387700D02*
X235400D01*
X174400D02*
X181400D01*
X41400D02*
X50400D01*
X231400Y386700D02*
X235400D01*
X173400D02*
X180400D01*
X40400D02*
X49400D01*
X231400Y385700D02*
X235400D01*
X172400D02*
X179400D01*
X40400D02*
X49400D01*
X231400Y384700D02*
X236400D01*
X171400D02*
X177400D01*
X40400D02*
X48400D01*
X231400Y383700D02*
X236400D01*
X170400D02*
X176400D01*
X39400D02*
X48400D01*
X232400Y382700D02*
X236400D01*
X168400D02*
X175400D01*
X39400D02*
X47400D01*
X232400Y381700D02*
X236400D01*
X167400D02*
X174400D01*
X39400D02*
X47400D01*
X232400Y380700D02*
X237400D01*
X166400D02*
X172400D01*
X39400D02*
X47400D01*
X233400Y379700D02*
X237400D01*
X165400D02*
X171400D01*
X39400D02*
X46400D01*
X233400Y378700D02*
X237400D01*
X163400D02*
X170400D01*
X39400D02*
X46400D01*
X233400Y377700D02*
X238400D01*
X161400D02*
X169400D01*
X39400D02*
X46400D01*
X233400Y376700D02*
X238400D01*
X160400D02*
X168400D01*
X39400D02*
X46400D01*
X233400Y375700D02*
X238400D01*
X159400D02*
X167400D01*
X39400D02*
X46400D01*
X234400Y374700D02*
X238400D01*
X157400D02*
X165400D01*
X40400D02*
X46400D01*
X234400Y373700D02*
X238400D01*
X156400D02*
X164400D01*
X40400D02*
X46400D01*
X234400Y372700D02*
X239400D01*
X154400D02*
X163400D01*
X40400D02*
X46400D01*
X234400Y371700D02*
X239400D01*
X153400D02*
X161400D01*
X40400D02*
X47400D01*
X234400Y370700D02*
X239400D01*
X151400D02*
X160400D01*
X40400D02*
X47400D01*
X234400Y369700D02*
X239400D01*
X149400D02*
X158400D01*
X40400D02*
X48400D01*
X234400Y368700D02*
X239400D01*
X148400D02*
X157400D01*
X40400D02*
X48400D01*
X234400Y367700D02*
X239400D01*
X146400D02*
X155400D01*
X41400D02*
X48400D01*
X235400Y366700D02*
X239400D01*
X144400D02*
X153400D01*
X41400D02*
X49400D01*
X235400Y365700D02*
X239400D01*
X142400D02*
X151400D01*
X41400D02*
X49400D01*
X235400Y364700D02*
X239400D01*
X140400D02*
X150400D01*
X235400Y363700D02*
X239400D01*
X137400D02*
X148400D01*
X235400Y362700D02*
X239400D01*
X135400D02*
X146400D01*
X133400Y361700D02*
X144400D01*
X272400Y350700D02*
X277400D01*
X260400D02*
X266400D01*
X251400D02*
X256400D01*
X244400D02*
X248400D01*
X230400D02*
X240400D01*
X223400D02*
X224400D01*
X59400D02*
X115400D01*
X272400Y349700D02*
X277400D01*
X260400D02*
X265400D01*
X251400D02*
X255400D01*
X243400D02*
X247400D01*
X230400D02*
X240400D01*
X222400D02*
X225400D01*
X62400D02*
X111400D01*
X272400Y348700D02*
X277400D01*
X260400D02*
X264400D01*
X251400D02*
X255400D01*
X243400D02*
X247400D01*
X230400D02*
X240400D01*
X222400D02*
X225400D01*
X66400D02*
X107400D01*
X51400D02*
X57400D01*
X28400D02*
X33400D01*
X283400Y347700D02*
X287400D01*
X273400D02*
X277400D01*
X260400D02*
X263400D01*
X251400D02*
X254400D01*
X244400D02*
X246400D01*
X230400D02*
X239400D01*
X222400D02*
X226400D01*
X72400D02*
X104400D01*
X52400D02*
X57400D01*
X26400D02*
X37400D01*
X280400Y346700D02*
X288400D01*
X272400D02*
X275400D01*
X260400D02*
X263400D01*
X237400D02*
X238400D01*
X230400D02*
X234400D01*
X222400D02*
X226400D01*
X53400D02*
X59400D01*
X25400D02*
X41400D01*
X278400Y345700D02*
X288400D01*
X271400D02*
X275400D01*
X260400D02*
X262400D01*
X230400D02*
X233400D01*
X222400D02*
X226400D01*
X54400D02*
X60400D01*
X24400D02*
X44400D01*
X276400Y344700D02*
X287400D01*
X272400D02*
X274400D01*
X230400D02*
X233400D01*
X222400D02*
X227400D01*
X55400D02*
X61400D01*
X25400D02*
X47400D01*
X276400Y343700D02*
X285400D01*
X231400D02*
X232400D01*
X223400D02*
X228400D01*
X56400D02*
X62400D01*
X25400D02*
X50400D01*
X290400Y342700D02*
X294400D01*
X275400D02*
X283400D01*
X223400D02*
X229400D01*
X58400D02*
X64400D01*
X41400D02*
X52400D01*
X24400D02*
X40400D01*
X288400Y341700D02*
X295400D01*
X275400D02*
X281400D01*
X224400D02*
X229400D01*
X59400D02*
X66400D01*
X46400D02*
X55400D01*
X21400D02*
X38400D01*
X286400Y340700D02*
X295400D01*
X276400D02*
X277400D01*
X224400D02*
X230400D01*
X60400D02*
X67400D01*
X48400D02*
X58400D01*
X21400D02*
X37400D01*
X284400Y339700D02*
X294400D01*
X225400D02*
X230400D01*
X61400D02*
X68400D01*
X51400D02*
X59400D01*
X23400D02*
X35400D01*
X283400Y338700D02*
X293400D01*
X225400D02*
X230400D01*
X65400D02*
X70400D01*
X53400D02*
X59400D01*
X25400D02*
X34400D01*
X283400Y337700D02*
X301400D01*
X226400D02*
X230400D01*
X65400D02*
X72400D01*
X55400D02*
X60400D01*
X27400D02*
X34400D01*
X283400Y336700D02*
X303400D01*
X226400D02*
X230400D01*
X162400D02*
X166400D01*
X66400D02*
X74400D01*
X29400D02*
X33400D01*
X284400Y335700D02*
X303400D01*
X226400D02*
X229400D01*
X158400D02*
X166400D01*
X68400D02*
X77400D01*
X19400D02*
X24400D01*
X285400Y334700D02*
X303400D01*
X225400D02*
X229400D01*
X155400D02*
X166400D01*
X70400D02*
X80400D01*
X18400D02*
X27400D01*
X286400Y333700D02*
X292400D01*
X225400D02*
X229400D01*
X152400D02*
X163400D01*
X71400D02*
X83400D01*
X18400D02*
X29400D01*
X287400Y332700D02*
X292400D01*
X225400D02*
X229400D01*
X149400D02*
X161400D01*
X73400D02*
X85400D01*
X21400D02*
X29400D01*
X289400Y331700D02*
X293400D01*
X225400D02*
X229400D01*
X146400D02*
X159400D01*
X75400D02*
X88400D01*
X21400D02*
X29400D01*
X290400Y330700D02*
X297400D01*
X225400D02*
X230400D01*
X140400D02*
X156400D01*
X78400D02*
X91400D01*
X17400D02*
X28400D01*
X291400Y329700D02*
X299400D01*
X225400D02*
X230400D01*
X136400D02*
X153400D01*
X81400D02*
X96400D01*
X15400D02*
X26400D01*
X292400Y328700D02*
X301400D01*
X226400D02*
X230400D01*
X132400D02*
X149400D01*
X82400D02*
X99400D01*
X15400D02*
X26400D01*
X295400Y327700D02*
X302400D01*
X226400D02*
X231400D01*
X121400D02*
X146400D01*
X83400D02*
X118400D01*
X16400D02*
X26400D01*
X297400Y326700D02*
X303400D01*
X227400D02*
X232400D01*
X83400D02*
X142400D01*
X17400D02*
X26400D01*
X299400Y325700D02*
X302400D01*
X227400D02*
X232400D01*
X84400D02*
X137400D01*
X21400D02*
X26400D01*
X228400Y324700D02*
X232400D01*
X84400D02*
X133400D01*
X229400Y323700D02*
X232400D01*
X107400D02*
X118400D01*
X86400D02*
X104400D01*
X232400Y322700D02*
X234400D01*
X89400D02*
X102400D01*
X298400Y321700D02*
X301400D01*
X231400D02*
X234400D01*
X186400D02*
X189400D01*
X90400D02*
X103400D01*
X21400D02*
X24400D01*
X297400Y320700D02*
X304400D01*
X231400D02*
X234400D01*
X184400D02*
X195400D01*
X92400D02*
X104400D01*
X17400D02*
X25400D01*
X296400Y319700D02*
X306400D01*
X230400D02*
X234400D01*
X182400D02*
X196400D01*
X96400D02*
X108400D01*
X16400D02*
X26400D01*
X297400Y318700D02*
X309400D01*
X230400D02*
X234400D01*
X182400D02*
X197400D01*
X98400D02*
X115400D01*
X15400D02*
X26400D01*
X299400Y317700D02*
X310400D01*
X230400D02*
X234400D01*
X181400D02*
X199400D01*
X142400D02*
X143400D01*
X101400D02*
X124400D01*
X15400D02*
X26400D01*
X301400Y316700D02*
X311400D01*
X229400D02*
X233400D01*
X180400D02*
X199400D01*
X101400D02*
X144400D01*
X15400D02*
X21400D01*
X305400Y315700D02*
X311400D01*
X229400D02*
X233400D01*
X192400D02*
X200400D01*
X180400D02*
X188400D01*
X110400D02*
X144400D01*
X102400D02*
X106400D01*
X16400D02*
X20400D01*
X307400Y314700D02*
X310400D01*
X229400D02*
X233400D01*
X193400D02*
X201400D01*
X180400D02*
X188400D01*
X167400D02*
X170400D01*
X116400D02*
X139400D01*
X102400D02*
X106400D01*
X308400Y313700D02*
X309400D01*
X229400D02*
X232400D01*
X194400D02*
X202400D01*
X180400D02*
X187400D01*
X166400D02*
X172400D01*
X125400D02*
X133400D01*
X102400D02*
X106400D01*
X23400D02*
X24400D01*
X301400Y312700D02*
X306400D01*
X228400D02*
X232400D01*
X195400D02*
X202400D01*
X180400D02*
X187400D01*
X166400D02*
X173400D01*
X103400D02*
X107400D01*
X92400D02*
X93400D01*
X21400D02*
X26400D01*
X301400Y311700D02*
X309400D01*
X228400D02*
X232400D01*
X195400D02*
X203400D01*
X181400D02*
X186400D01*
X165400D02*
X174400D01*
X103400D02*
X110400D01*
X87400D02*
X98400D01*
X19400D02*
X26400D01*
X301400Y310700D02*
X313400D01*
X227400D02*
X231400D01*
X196400D02*
X203400D01*
X182400D02*
X185400D01*
X164400D02*
X175400D01*
X103400D02*
X113400D01*
X84400D02*
X99400D01*
X19400D02*
X26400D01*
X301400Y309700D02*
X314400D01*
X227400D02*
X231400D01*
X196400D02*
X204400D01*
X163400D02*
X175400D01*
X103400D02*
X114400D01*
X81400D02*
X100400D01*
X18400D02*
X26400D01*
X306400Y308700D02*
X316400D01*
X226400D02*
X230400D01*
X196400D02*
X204400D01*
X164400D02*
X176400D01*
X148400D02*
X150400D01*
X126400D02*
X129400D01*
X103400D02*
X116400D01*
X78400D02*
X100400D01*
X18400D02*
X25400D01*
X309400Y307700D02*
X316400D01*
X226400D02*
X230400D01*
X196400D02*
X204400D01*
X164400D02*
X177400D01*
X146400D02*
X153400D01*
X125400D02*
X131400D01*
X102400D02*
X116400D01*
X95400D02*
X100400D01*
X77400D02*
X88400D01*
X18400D02*
X24400D01*
X311400Y306700D02*
X316400D01*
X226400D02*
X230400D01*
X196400D02*
X204400D01*
X164400D02*
X178400D01*
X145400D02*
X154400D01*
X124400D02*
X133400D01*
X96400D02*
X117400D01*
X75400D02*
X85400D01*
X18400D02*
X23400D01*
X311400Y305700D02*
X316400D01*
X225400D02*
X230400D01*
X196400D02*
X204400D01*
X164400D02*
X178400D01*
X144400D02*
X154400D01*
X124400D02*
X134400D01*
X95400D02*
X117400D01*
X74400D02*
X83400D01*
X19400D02*
X22400D01*
X310400Y304700D02*
X316400D01*
X225400D02*
X230400D01*
X196400D02*
X204400D01*
X185400D02*
X190400D01*
X164400D02*
X179400D01*
X144400D02*
X155400D01*
X125400D02*
X135400D01*
X112400D02*
X118400D01*
X93400D02*
X110400D01*
X73400D02*
X80400D01*
X27400D02*
X30400D01*
X19400D02*
X21400D01*
X310400Y303700D02*
X315400D01*
X225400D02*
X230400D01*
X195400D02*
X204400D01*
X185400D02*
X192400D01*
X165400D02*
X180400D01*
X144400D02*
X155400D01*
X125400D02*
X135400D01*
X113400D02*
X118400D01*
X90400D02*
X109400D01*
X72400D02*
X78400D01*
X26400D02*
X30400D01*
X310400Y302700D02*
X316400D01*
X224400D02*
X230400D01*
X185400D02*
X204400D01*
X174400D02*
X181400D01*
X165400D02*
X173400D01*
X144400D02*
X156400D01*
X126400D02*
X136400D01*
X113400D02*
X118400D01*
X88400D02*
X109400D01*
X71400D02*
X76400D01*
X25400D02*
X30400D01*
X310400Y301700D02*
X317400D01*
X217400D02*
X230400D01*
X185400D02*
X204400D01*
X174400D02*
X182400D01*
X165400D02*
X172400D01*
X144400D02*
X156400D01*
X128400D02*
X136400D01*
X113400D02*
X118400D01*
X101400D02*
X109400D01*
X86400D02*
X99400D01*
X70400D02*
X75400D01*
X25400D02*
X30400D01*
X312400Y300700D02*
X318400D01*
X212400D02*
X230400D01*
X186400D02*
X204400D01*
X175400D02*
X182400D01*
X165400D02*
X172400D01*
X152400D02*
X156400D01*
X143400D02*
X149400D01*
X130400D02*
X136400D01*
X113400D02*
X118400D01*
X102400D02*
X109400D01*
X85400D02*
X95400D01*
X69400D02*
X74400D01*
X24400D02*
X30400D01*
X315400Y299700D02*
X319400D01*
X207400D02*
X230400D01*
X187400D02*
X204400D01*
X176400D02*
X183400D01*
X165400D02*
X172400D01*
X153400D02*
X157400D01*
X143400D02*
X148400D01*
X129400D02*
X137400D01*
X113400D02*
X118400D01*
X103400D02*
X109400D01*
X83400D02*
X92400D01*
X68400D02*
X73400D01*
X24400D02*
X29400D01*
X317400Y298700D02*
X319400D01*
X189400D02*
X230400D01*
X176400D02*
X184400D01*
X165400D02*
X172400D01*
X152400D02*
X157400D01*
X143400D02*
X148400D01*
X127400D02*
X136400D01*
X113400D02*
X118400D01*
X103400D02*
X109400D01*
X82400D02*
X89400D01*
X67400D02*
X72400D01*
X24400D02*
X28400D01*
X309400Y297700D02*
X313400D01*
X191400D02*
X230400D01*
X176400D02*
X184400D01*
X165400D02*
X173400D01*
X151400D02*
X158400D01*
X143400D02*
X148400D01*
X125400D02*
X136400D01*
X113400D02*
X118400D01*
X103400D02*
X109400D01*
X81400D02*
X87400D01*
X66400D02*
X72400D01*
X31400D02*
X35400D01*
X25400D02*
X28400D01*
X309400Y296700D02*
X316400D01*
X225400D02*
X230400D01*
X192400D02*
X210400D01*
X165400D02*
X185400D01*
X143400D02*
X158400D01*
X123400D02*
X136400D01*
X113400D02*
X118400D01*
X103400D02*
X109400D01*
X80400D02*
X86400D01*
X66400D02*
X71400D01*
X30400D02*
X34400D01*
X309400Y295700D02*
X317400D01*
X225400D02*
X230400D01*
X194400D02*
X207400D01*
X165400D02*
X185400D01*
X143400D02*
X159400D01*
X122400D02*
X135400D01*
X112400D02*
X118400D01*
X102400D02*
X109400D01*
X78400D02*
X84400D01*
X66400D02*
X71400D01*
X29400D02*
X35400D01*
X309400Y294700D02*
X319400D01*
X225400D02*
X230400D01*
X193400D02*
X204400D01*
X180400D02*
X185400D01*
X166400D02*
X177400D01*
X143400D02*
X159400D01*
X121400D02*
X135400D01*
X111400D02*
X118400D01*
X103400D02*
X110400D01*
X77400D02*
X83400D01*
X65400D02*
X71400D01*
X29400D02*
X34400D01*
X312400Y293700D02*
X320400D01*
X225400D02*
X230400D01*
X192400D02*
X201400D01*
X180400D02*
X185400D01*
X166400D02*
X175400D01*
X143400D02*
X160400D01*
X121400D02*
X133400D01*
X103400D02*
X118400D01*
X76400D02*
X82400D01*
X65400D02*
X70400D01*
X29400D02*
X34400D01*
X314400Y292700D02*
X321400D01*
X225400D02*
X230400D01*
X191400D02*
X199400D01*
X180400D02*
X185400D01*
X166400D02*
X174400D01*
X142400D02*
X160400D01*
X121400D02*
X131400D01*
X103400D02*
X117400D01*
X76400D02*
X81400D01*
X65400D02*
X70400D01*
X29400D02*
X34400D01*
X316400Y291700D02*
X322400D01*
X225400D02*
X230400D01*
X180400D02*
X198400D01*
X167400D02*
X173400D01*
X142400D02*
X161400D01*
X121400D02*
X128400D01*
X104400D02*
X117400D01*
X75400D02*
X80400D01*
X65400D02*
X70400D01*
X29400D02*
X35400D01*
X317400Y290700D02*
X323400D01*
X224400D02*
X230400D01*
X178400D02*
X196400D01*
X167400D02*
X173400D01*
X142400D02*
X161400D01*
X121400D02*
X127400D01*
X104400D02*
X117400D01*
X74400D02*
X79400D01*
X65400D02*
X70400D01*
X30400D02*
X36400D01*
X318400Y289700D02*
X324400D01*
X223400D02*
X230400D01*
X176400D02*
X194400D01*
X168400D02*
X173400D01*
X157400D02*
X162400D01*
X142400D02*
X152400D01*
X121400D02*
X126400D01*
X105400D02*
X116400D01*
X73400D02*
X79400D01*
X64400D02*
X70400D01*
X31400D02*
X37400D01*
X319400Y288700D02*
X324400D01*
X216400D02*
X229400D01*
X169400D02*
X192400D01*
X157400D02*
X162400D01*
X142400D02*
X150400D01*
X121400D02*
X126400D01*
X105400D02*
X116400D01*
X73400D02*
X78400D01*
X64400D02*
X70400D01*
X33400D02*
X38400D01*
X320400Y287700D02*
X325400D01*
X213400D02*
X229400D01*
X170400D02*
X191400D01*
X158400D02*
X162400D01*
X141400D02*
X147400D01*
X121400D02*
X126400D01*
X105400D02*
X114400D01*
X72400D02*
X78400D01*
X64400D02*
X70400D01*
X33400D02*
X38400D01*
X321400Y286700D02*
X324400D01*
X211400D02*
X229400D01*
X170400D02*
X189400D01*
X160400D02*
X162400D01*
X141400D02*
X146400D01*
X122400D02*
X126400D01*
X106400D02*
X113400D01*
X72400D02*
X77400D01*
X64400D02*
X70400D01*
X33400D02*
X38400D01*
X313400Y285700D02*
X317400D01*
X208400D02*
X228400D01*
X168400D02*
X188400D01*
X141400D02*
X146400D01*
X131400D02*
X135400D01*
X122400D02*
X128400D01*
X106400D02*
X113400D01*
X72400D02*
X77400D01*
X65400D02*
X70400D01*
X33400D02*
X38400D01*
X313400Y284700D02*
X319400D01*
X206400D02*
X228400D01*
X166400D02*
X186400D01*
X141400D02*
X146400D01*
X123400D02*
X137400D01*
X107400D02*
X113400D01*
X71400D02*
X77400D01*
X65400D02*
X70400D01*
X33400D02*
X38400D01*
X313400Y283700D02*
X319400D01*
X204400D02*
X227400D01*
X164400D02*
X185400D01*
X141400D02*
X146400D01*
X123400D02*
X137400D01*
X108400D02*
X114400D01*
X65400D02*
X77400D01*
X33400D02*
X38400D01*
X313400Y282700D02*
X320400D01*
X220400D02*
X227400D01*
X202400D02*
X214400D01*
X162400D02*
X184400D01*
X141400D02*
X146400D01*
X124400D02*
X137400D01*
X109400D02*
X115400D01*
X65400D02*
X77400D01*
X33400D02*
X38400D01*
X313400Y281700D02*
X320400D01*
X221400D02*
X226400D01*
X201400D02*
X212400D01*
X174400D02*
X183400D01*
X161400D02*
X171400D01*
X142400D02*
X146400D01*
X125400D02*
X137400D01*
X109400D02*
X117400D01*
X66400D02*
X77400D01*
X33400D02*
X38400D01*
X313400Y280700D02*
X321400D01*
X222400D02*
X225400D01*
X199400D02*
X208400D01*
X173400D02*
X181400D01*
X159400D02*
X169400D01*
X142400D02*
X145400D01*
X126400D02*
X136400D01*
X110400D02*
X118400D01*
X66400D02*
X77400D01*
X33400D02*
X38400D01*
X314400Y279700D02*
X322400D01*
X197400D02*
X207400D01*
X172400D02*
X180400D01*
X157400D02*
X167400D01*
X128400D02*
X135400D01*
X111400D02*
X121400D01*
X66400D02*
X78400D01*
X32400D02*
X38400D01*
X315400Y278700D02*
X322400D01*
X196400D02*
X205400D01*
X171400D02*
X179400D01*
X155400D02*
X166400D01*
X112400D02*
X122400D01*
X67400D02*
X78400D01*
X32400D02*
X38400D01*
X315400Y277700D02*
X323400D01*
X194400D02*
X204400D01*
X170400D02*
X178400D01*
X152400D02*
X164400D01*
X113400D02*
X125400D01*
X67400D02*
X78400D01*
X31400D02*
X38400D01*
X315400Y276700D02*
X324400D01*
X193400D02*
X202400D01*
X169400D02*
X177400D01*
X148400D02*
X163400D01*
X114400D02*
X130400D01*
X67400D02*
X79400D01*
X30400D02*
X37400D01*
X316400Y275700D02*
X325400D01*
X191400D02*
X200400D01*
X168400D02*
X176400D01*
X116400D02*
X161400D01*
X68400D02*
X79400D01*
X30400D02*
X37400D01*
X316400Y274700D02*
X326400D01*
X190400D02*
X198400D01*
X167400D02*
X175400D01*
X119400D02*
X160400D01*
X68400D02*
X79400D01*
X29400D02*
X36400D01*
X317400Y273700D02*
X327400D01*
X188400D02*
X197400D01*
X165400D02*
X174400D01*
X122400D02*
X158400D01*
X69400D02*
X79400D01*
X29400D02*
X36400D01*
X318400Y272700D02*
X328400D01*
X244400D02*
X247400D01*
X187400D02*
X195400D01*
X164400D02*
X172400D01*
X125400D02*
X153400D01*
X70400D02*
X80400D01*
X28400D02*
X36400D01*
X319400Y271700D02*
X330400D01*
X243400D02*
X249400D01*
X185400D02*
X194400D01*
X163400D02*
X171400D01*
X128400D02*
X150400D01*
X71400D02*
X80400D01*
X27400D02*
X35400D01*
X319400Y270700D02*
X331400D01*
X243400D02*
X250400D01*
X183400D02*
X192400D01*
X162400D02*
X170400D01*
X131400D02*
X146400D01*
X72400D02*
X81400D01*
X27400D02*
X34400D01*
X320400Y269700D02*
X333400D01*
X243400D02*
X251400D01*
X181400D02*
X190400D01*
X161400D02*
X169400D01*
X137400D02*
X142400D01*
X72400D02*
X81400D01*
X26400D02*
X33400D01*
X321400Y268700D02*
X334400D01*
X244400D02*
X251400D01*
X179400D02*
X188400D01*
X160400D02*
X168400D01*
X73400D02*
X82400D01*
X26400D02*
X33400D01*
X322400Y267700D02*
X335400D01*
X244400D02*
X251400D01*
X178400D02*
X187400D01*
X159400D02*
X167400D01*
X75400D02*
X83400D01*
X26400D02*
X32400D01*
X323400Y266700D02*
X337400D01*
X244400D02*
X252400D01*
X176400D02*
X185400D01*
X158400D02*
X166400D01*
X75400D02*
X84400D01*
X25400D02*
X32400D01*
X324400Y265700D02*
X338400D01*
X245400D02*
X252400D01*
X174400D02*
X184400D01*
X157400D02*
X165400D01*
X76400D02*
X84400D01*
X25400D02*
X31400D01*
X325400Y264700D02*
X339400D01*
X245400D02*
X253400D01*
X172400D02*
X182400D01*
X155400D02*
X164400D01*
X78400D02*
X85400D01*
X24400D02*
X31400D01*
X326400Y263700D02*
X340400D01*
X246400D02*
X253400D01*
X171400D02*
X181400D01*
X154400D02*
X163400D01*
X79400D02*
X86400D01*
X24400D02*
X30400D01*
X327400Y262700D02*
X342400D01*
X247400D02*
X254400D01*
X169400D02*
X179400D01*
X153400D02*
X162400D01*
X80400D02*
X87400D01*
X61400D02*
X70400D01*
X24400D02*
X30400D01*
X328400Y261700D02*
X343400D01*
X247400D02*
X255400D01*
X167400D02*
X177400D01*
X152400D02*
X161400D01*
X81400D02*
X88400D01*
X59400D02*
X74400D01*
X23400D02*
X29400D01*
X329400Y260700D02*
X344400D01*
X248400D02*
X256400D01*
X165400D02*
X176400D01*
X151400D02*
X160400D01*
X82400D02*
X89400D01*
X58400D02*
X76400D01*
X23400D02*
X29400D01*
X331400Y259700D02*
X345400D01*
X249400D02*
X257400D01*
X163400D02*
X174400D01*
X149400D02*
X159400D01*
X83400D02*
X91400D01*
X57400D02*
X78400D01*
X23400D02*
X29400D01*
X333400Y258700D02*
X346400D01*
X250400D02*
X259400D01*
X148400D02*
X172400D01*
X84400D02*
X92400D01*
X69400D02*
X80400D01*
X56400D02*
X67400D01*
X22400D02*
X28400D01*
X335400Y257700D02*
X347400D01*
X250400D02*
X261400D01*
X146400D02*
X171400D01*
X85400D02*
X94400D01*
X74400D02*
X81400D01*
X55400D02*
X64400D01*
X22400D02*
X28400D01*
X336400Y256700D02*
X348400D01*
X251400D02*
X263400D01*
X144400D02*
X168400D01*
X88400D02*
X96400D01*
X77400D02*
X81400D01*
X54400D02*
X63400D01*
X22400D02*
X28400D01*
X338400Y255700D02*
X350400D01*
X252400D02*
X266400D01*
X143400D02*
X165400D01*
X89400D02*
X98400D01*
X54400D02*
X61400D01*
X22400D02*
X28400D01*
X339400Y254700D02*
X351400D01*
X253400D02*
X269400D01*
X141400D02*
X163400D01*
X90400D02*
X101400D01*
X54400D02*
X60400D01*
X22400D02*
X28400D01*
X340400Y253700D02*
X352400D01*
X255400D02*
X277400D01*
X138400D02*
X160400D01*
X92400D02*
X104400D01*
X53400D02*
X60400D01*
X22400D02*
X28400D01*
X342400Y252700D02*
X353400D01*
X257400D02*
X286400D01*
X134400D02*
X158400D01*
X94400D02*
X108400D01*
X53400D02*
X59400D01*
X22400D02*
X28400D01*
X343400Y251700D02*
X354400D01*
X258400D02*
X295400D01*
X132400D02*
X156400D01*
X96400D02*
X112400D01*
X53400D02*
X58400D01*
X23400D02*
X28400D01*
X345400Y250700D02*
X355400D01*
X260400D02*
X299400D01*
X187400D02*
X201400D01*
X98400D02*
X153400D01*
X52400D02*
X58400D01*
X23400D02*
X28400D01*
X346400Y249700D02*
X356400D01*
X263400D02*
X305400D01*
X181400D02*
X207400D01*
X101400D02*
X151400D01*
X52400D02*
X58400D01*
X23400D02*
X28400D01*
X348400Y248700D02*
X357400D01*
X265400D02*
X308400D01*
X178400D02*
X208400D01*
X103400D02*
X148400D01*
X52400D02*
X57400D01*
X23400D02*
X28400D01*
X349400Y247700D02*
X358400D01*
X269400D02*
X311400D01*
X199400D02*
X208400D01*
X175400D02*
X193400D01*
X106400D02*
X146400D01*
X52400D02*
X57400D01*
X24400D02*
X28400D01*
X351400Y246700D02*
X358400D01*
X275400D02*
X314400D01*
X173400D02*
X186400D01*
X109400D02*
X143400D01*
X100400D02*
X101400D01*
X51400D02*
X57400D01*
X24400D02*
X28400D01*
X351400Y245700D02*
X359400D01*
X302400D02*
X317400D01*
X280400D02*
X285400D01*
X172400D02*
X180400D01*
X112400D02*
X139400D01*
X100400D02*
X105400D01*
X52400D02*
X57400D01*
X24400D02*
X29400D01*
X352400Y244700D02*
X360400D01*
X305400D02*
X318400D01*
X281400D02*
X284400D01*
X170400D02*
X177400D01*
X120400D02*
X129400D01*
X101400D02*
X109400D01*
X52400D02*
X57400D01*
X25400D02*
X29400D01*
X353400Y243700D02*
X361400D01*
X309400D02*
X319400D01*
X282400D02*
X284400D01*
X168400D02*
X175400D01*
X103400D02*
X112400D01*
X52400D02*
X57400D01*
X25400D02*
X29400D01*
X354400Y242700D02*
X361400D01*
X312400D02*
X320400D01*
X282400D02*
X285400D01*
X167400D02*
X174400D01*
X103400D02*
X116400D01*
X52400D02*
X57400D01*
X26400D02*
X30400D01*
X356400Y241700D02*
X362400D01*
X314400D02*
X322400D01*
X282400D02*
X285400D01*
X167400D02*
X173400D01*
X102400D02*
X118400D01*
X52400D02*
X57400D01*
X26400D02*
X30400D01*
X356400Y240700D02*
X362400D01*
X316400D02*
X323400D01*
X282400D02*
X286400D01*
X166400D02*
X173400D01*
X100400D02*
X119400D01*
X52400D02*
X57400D01*
X26400D02*
X31400D01*
X357400Y239700D02*
X363400D01*
X317400D02*
X325400D01*
X283400D02*
X286400D01*
X187400D02*
X196400D01*
X165400D02*
X172400D01*
X99400D02*
X121400D01*
X52400D02*
X57400D01*
X27400D02*
X31400D01*
X358400Y238700D02*
X364400D01*
X318400D02*
X326400D01*
X283400D02*
X287400D01*
X175400D02*
X202400D01*
X164400D02*
X172400D01*
X114400D02*
X123400D01*
X97400D02*
X109400D01*
X52400D02*
X57400D01*
X27400D02*
X32400D01*
X359400Y237700D02*
X364400D01*
X321400D02*
X327400D01*
X283400D02*
X287400D01*
X164400D02*
X206400D01*
X117400D02*
X125400D01*
X96400D02*
X105400D01*
X52400D02*
X57400D01*
X28400D02*
X32400D01*
X359400Y236700D02*
X364400D01*
X322400D02*
X328400D01*
X284400D02*
X288400D01*
X164400D02*
X209400D01*
X118400D02*
X126400D01*
X94400D02*
X103400D01*
X52400D02*
X57400D01*
X29400D02*
X33400D01*
X360400Y235700D02*
X365400D01*
X323400D02*
X330400D01*
X284400D02*
X288400D01*
X198400D02*
X212400D01*
X164400D02*
X181400D01*
X120400D02*
X127400D01*
X93400D02*
X101400D01*
X52400D02*
X57400D01*
X30400D02*
X34400D01*
X361400Y234700D02*
X365400D01*
X325400D02*
X331400D01*
X285400D02*
X289400D01*
X204400D02*
X214400D01*
X163400D02*
X173400D01*
X121400D02*
X128400D01*
X92400D02*
X100400D01*
X52400D02*
X57400D01*
X30400D02*
X35400D01*
X362400Y233700D02*
X366400D01*
X326400D02*
X332400D01*
X286400D02*
X289400D01*
X206400D02*
X216400D01*
X163400D02*
X171400D01*
X122400D02*
X129400D01*
X91400D02*
X99400D01*
X52400D02*
X57400D01*
X31400D02*
X35400D01*
X362400Y232700D02*
X366400D01*
X327400D02*
X333400D01*
X287400D02*
X290400D01*
X208400D02*
X218400D01*
X163400D02*
X169400D01*
X124400D02*
X130400D01*
X91400D02*
X99400D01*
X53400D02*
X57400D01*
X32400D02*
X37400D01*
X362400Y231700D02*
X366400D01*
X328400D02*
X334400D01*
X287400D02*
X291400D01*
X209400D02*
X218400D01*
X163400D02*
X168400D01*
X125400D02*
X131400D01*
X102400D02*
X108400D01*
X90400D02*
X101400D01*
X53400D02*
X57400D01*
X33400D02*
X38400D01*
X363400Y230700D02*
X367400D01*
X329400D02*
X335400D01*
X288400D02*
X292400D01*
X212400D02*
X218400D01*
X163400D02*
X167400D01*
X127400D02*
X132400D01*
X90400D02*
X112400D01*
X53400D02*
X57400D01*
X35400D02*
X40400D01*
X363400Y229700D02*
X367400D01*
X330400D02*
X335400D01*
X289400D02*
X292400D01*
X214400D02*
X217400D01*
X128400D02*
X132400D01*
X102400D02*
X114400D01*
X91400D02*
X101400D01*
X53400D02*
X57400D01*
X36400D02*
X41400D01*
X363400Y228700D02*
X367400D01*
X331400D02*
X336400D01*
X289400D02*
X293400D01*
X179400D02*
X190400D01*
X103400D02*
X116400D01*
X91400D02*
X95400D01*
X53400D02*
X58400D01*
X37400D02*
X42400D01*
X363400Y227700D02*
X367400D01*
X332400D02*
X337400D01*
X290400D02*
X294400D01*
X173400D02*
X194400D01*
X104400D02*
X119400D01*
X91400D02*
X93400D01*
X53400D02*
X58400D01*
X38400D02*
X42400D01*
X290400Y226700D02*
X295400D01*
X169400D02*
X198400D01*
X104400D02*
X120400D01*
X90400D02*
X93400D01*
X53400D02*
X58400D01*
X39400D02*
X43400D01*
X291400Y225700D02*
X296400D01*
X139400D02*
X141400D01*
X104400D02*
X122400D01*
X89400D02*
X93400D01*
X53400D02*
X57400D01*
X40400D02*
X44400D01*
X292400Y224700D02*
X297400D01*
X139400D02*
X142400D01*
X105400D02*
X123400D01*
X87400D02*
X92400D01*
X53400D02*
X57400D01*
X41400D02*
X45400D01*
X293400Y223700D02*
X299400D01*
X148400D02*
X150400D01*
X139400D02*
X142400D01*
X105400D02*
X123400D01*
X86400D02*
X91400D01*
X52400D02*
X57400D01*
X41400D02*
X46400D01*
X295400Y222700D02*
X300400D01*
X146400D02*
X150400D01*
X139400D02*
X142400D01*
X105400D02*
X123400D01*
X84400D02*
X91400D01*
X52400D02*
X57400D01*
X42400D02*
X47400D01*
X296400Y221700D02*
X301400D01*
X146400D02*
X151400D01*
X139400D02*
X143400D01*
X105400D02*
X120400D01*
X82400D02*
X90400D01*
X52400D02*
X57400D01*
X43400D02*
X48400D01*
X297400Y220700D02*
X302400D01*
X140400D02*
X150400D01*
X105400D02*
X119400D01*
X79400D02*
X90400D01*
X51400D02*
X57400D01*
X44400D02*
X49400D01*
X298400Y219700D02*
X303400D01*
X141400D02*
X149400D01*
X105400D02*
X118400D01*
X76400D02*
X90400D01*
X45400D02*
X56400D01*
X299400Y218700D02*
X304400D01*
X141400D02*
X149400D01*
X106400D02*
X117400D01*
X73400D02*
X88400D01*
X46400D02*
X56400D01*
X300400Y217700D02*
X305400D01*
X142400D02*
X148400D01*
X107400D02*
X116400D01*
X70400D02*
X86400D01*
X48400D02*
X55400D01*
X301400Y216700D02*
X307400D01*
X142400D02*
X147400D01*
X108400D02*
X115400D01*
X67400D02*
X84400D01*
X49400D02*
X55400D01*
X303400Y215700D02*
X309400D01*
X143400D02*
X146400D01*
X108400D02*
X114400D01*
X64400D02*
X82400D01*
X304400Y214700D02*
X310400D01*
X110400D02*
X112400D01*
X61400D02*
X80400D01*
X305400Y213700D02*
X312400D01*
X58400D02*
X76400D01*
X307400Y212700D02*
X313400D01*
X172400D02*
X181400D01*
X54400D02*
X73400D01*
X308400Y211700D02*
X314400D01*
X173400D02*
X180400D01*
X165400D02*
X167400D01*
X94400D02*
X98400D01*
X52400D02*
X70400D01*
X309400Y210700D02*
X316400D01*
X175400D02*
X178400D01*
X163400D02*
X171400D01*
X94400D02*
X99400D01*
X49400D02*
X67400D01*
X310400Y209700D02*
X318400D01*
X162400D02*
X173400D01*
X95400D02*
X99400D01*
X46400D02*
X64400D01*
X311400Y208700D02*
X320400D01*
X162400D02*
X175400D01*
X118400D02*
X122400D01*
X95400D02*
X101400D01*
X44400D02*
X61400D01*
X313400Y207700D02*
X322400D01*
X162400D02*
X177400D01*
X115400D02*
X122400D01*
X96400D02*
X104400D01*
X42400D02*
X58400D01*
X315400Y206700D02*
X324400D01*
X162400D02*
X181400D01*
X97400D02*
X122400D01*
X40400D02*
X54400D01*
X316400Y205700D02*
X326400D01*
X162400D02*
X183400D01*
X98400D02*
X122400D01*
X39400D02*
X51400D01*
X318400Y204700D02*
X327400D01*
X173400D02*
X183400D01*
X163400D02*
X170400D01*
X100400D02*
X121400D01*
X38400D02*
X49400D01*
X319400Y203700D02*
X329400D01*
X176400D02*
X183400D01*
X163400D02*
X170400D01*
X109400D02*
X120400D01*
X36400D02*
X48400D01*
X321400Y202700D02*
X330400D01*
X164400D02*
X170400D01*
X110400D02*
X119400D01*
X35400D02*
X44400D01*
X323400Y201700D02*
X333400D01*
X276400D02*
X281400D01*
X165400D02*
X170400D01*
X110400D02*
X118400D01*
X34400D02*
X42400D01*
X362400Y200700D02*
X366400D01*
X349400D02*
X352400D01*
X325400D02*
X334400D01*
X275400D02*
X286400D01*
X165400D02*
X171400D01*
X109400D02*
X117400D01*
X32400D02*
X40400D01*
X361400Y199700D02*
X366400D01*
X349400D02*
X353400D01*
X326400D02*
X336400D01*
X275400D02*
X288400D01*
X166400D02*
X172400D01*
X107400D02*
X117400D01*
X30400D02*
X39400D01*
X361400Y198700D02*
X366400D01*
X350400D02*
X353400D01*
X328400D02*
X338400D01*
X275400D02*
X289400D01*
X167400D02*
X173400D01*
X105400D02*
X115400D01*
X29400D02*
X38400D01*
X361400Y197700D02*
X365400D01*
X350400D02*
X354400D01*
X330400D02*
X340400D01*
X284400D02*
X290400D01*
X168400D02*
X174400D01*
X103400D02*
X113400D01*
X28400D02*
X36400D01*
X360400Y196700D02*
X365400D01*
X350400D02*
X354400D01*
X332400D02*
X341400D01*
X285400D02*
X291400D01*
X169400D02*
X175400D01*
X101400D02*
X111400D01*
X27400D02*
X34400D01*
X360400Y195700D02*
X365400D01*
X351400D02*
X355400D01*
X334400D02*
X342400D01*
X286400D02*
X292400D01*
X170400D02*
X176400D01*
X99400D02*
X109400D01*
X26400D02*
X33400D01*
X359400Y194700D02*
X364400D01*
X351400D02*
X355400D01*
X336400D02*
X344400D01*
X288400D02*
X293400D01*
X171400D02*
X177400D01*
X97400D02*
X107400D01*
X25400D02*
X32400D01*
X358400Y193700D02*
X364400D01*
X352400D02*
X356400D01*
X337400D02*
X345400D01*
X289400D02*
X294400D01*
X172400D02*
X178400D01*
X96400D02*
X104400D01*
X24400D02*
X31400D01*
X352400Y192700D02*
X363400D01*
X339400D02*
X346400D01*
X290400D02*
X295400D01*
X173400D02*
X179400D01*
X96400D02*
X102400D01*
X24400D02*
X30400D01*
X353400Y191700D02*
X363400D01*
X341400D02*
X348400D01*
X290400D02*
X296400D01*
X175400D02*
X180400D01*
X129400D02*
X134400D01*
X23400D02*
X29400D01*
X354400Y190700D02*
X362400D01*
X342400D02*
X350400D01*
X291400D02*
X296400D01*
X176400D02*
X182400D01*
X122400D02*
X146400D01*
X22400D02*
X28400D01*
X354400Y189700D02*
X361400D01*
X344400D02*
X351400D01*
X292400D02*
X296400D01*
X265400D02*
X274400D01*
X177400D02*
X184400D01*
X120400D02*
X148400D01*
X21400D02*
X27400D01*
X356400Y188700D02*
X359400D01*
X345400D02*
X352400D01*
X292400D02*
X297400D01*
X264400D02*
X276400D01*
X177400D02*
X185400D01*
X119400D02*
X148400D01*
X21400D02*
X26400D01*
X346400Y187700D02*
X354400D01*
X293400D02*
X298400D01*
X261400D02*
X278400D01*
X178400D02*
X187400D01*
X118400D02*
X148400D01*
X20400D02*
X25400D01*
X348400Y186700D02*
X355400D01*
X293400D02*
X298400D01*
X269400D02*
X279400D01*
X259400D02*
X267400D01*
X181400D02*
X189400D01*
X145400D02*
X146400D01*
X116400D02*
X128400D01*
X19400D02*
X24400D01*
X349400Y185700D02*
X356400D01*
X294400D02*
X299400D01*
X272400D02*
X280400D01*
X258400D02*
X264400D01*
X183400D02*
X189400D01*
X116400D02*
X127400D01*
X19400D02*
X23400D01*
X351400Y184700D02*
X357400D01*
X295400D02*
X299400D01*
X275400D02*
X281400D01*
X259400D02*
X261400D01*
X184400D02*
X189400D01*
X115400D02*
X130400D01*
X18400D02*
X22400D01*
X352400Y183700D02*
X357400D01*
X295400D02*
X300400D01*
X276400D02*
X283400D01*
X114400D02*
X135400D01*
X18400D02*
X22400D01*
X353400Y182700D02*
X359400D01*
X296400D02*
X300400D01*
X277400D02*
X284400D01*
X114400D02*
X137400D01*
X17400D02*
X21400D01*
X354400Y181700D02*
X360400D01*
X296400D02*
X301400D01*
X278400D02*
X284400D01*
X113400D02*
X137400D01*
X16400D02*
X21400D01*
X356400Y180700D02*
X361400D01*
X296400D02*
X301400D01*
X279400D02*
X285400D01*
X112400D02*
X138400D01*
X16400D02*
X20400D01*
X357400Y179700D02*
X362400D01*
X297400D02*
X302400D01*
X280400D02*
X286400D01*
X135400D02*
X136400D01*
X111400D02*
X122400D01*
X15400D02*
X19400D01*
X358400Y178700D02*
X363400D01*
X297400D02*
X302400D01*
X280400D02*
X286400D01*
X110400D02*
X123400D01*
X14400D02*
X18400D01*
X359400Y177700D02*
X364400D01*
X298400D02*
X302400D01*
X281400D02*
X287400D01*
X109400D02*
X126400D01*
X65400D02*
X66400D01*
X14400D02*
X17400D01*
X360400Y176700D02*
X364400D01*
X298400D02*
X303400D01*
X282400D02*
X287400D01*
X106400D02*
X130400D01*
X60400D02*
X76400D01*
X13400D02*
X16400D01*
X361400Y175700D02*
X365400D01*
X298400D02*
X303400D01*
X282400D02*
X288400D01*
X104400D02*
X134400D01*
X54400D02*
X79400D01*
X12400D02*
X15400D01*
X362400Y174700D02*
X366400D01*
X299400D02*
X303400D01*
X283400D02*
X288400D01*
X102400D02*
X137400D01*
X52400D02*
X84400D01*
X11400D02*
X15400D01*
X363400Y173700D02*
X367400D01*
X299400D02*
X303400D01*
X283400D02*
X288400D01*
X100400D02*
X139400D01*
X50400D02*
X91400D01*
X10400D02*
X14400D01*
X363400Y172700D02*
X368400D01*
X299400D02*
X304400D01*
X284400D02*
X289400D01*
X265400D02*
X272400D01*
X131400D02*
X139400D01*
X98400D02*
X108400D01*
X63400D02*
X94400D01*
X47400D02*
X57400D01*
X9400D02*
X14400D01*
X364400Y171700D02*
X368400D01*
X300400D02*
X304400D01*
X284400D02*
X289400D01*
X262400D02*
X274400D01*
X135400D02*
X139400D01*
X75400D02*
X105400D01*
X46400D02*
X53400D01*
X8400D02*
X15400D01*
X365400Y170700D02*
X369400D01*
X300400D02*
X304400D01*
X284400D02*
X289400D01*
X258400D02*
X277400D01*
X79400D02*
X104400D01*
X44400D02*
X51400D01*
X8400D02*
X16400D01*
X366400Y169700D02*
X370400D01*
X300400D02*
X304400D01*
X284400D02*
X290400D01*
X255400D02*
X278400D01*
X82400D02*
X103400D01*
X7400D02*
X16400D01*
X367400Y168700D02*
X371400D01*
X300400D02*
X305400D01*
X285400D02*
X290400D01*
X253400D02*
X278400D01*
X85400D02*
X104400D01*
X7400D02*
X16400D01*
X368400Y167700D02*
X372400D01*
X300400D02*
X305400D01*
X285400D02*
X290400D01*
X252400D02*
X279400D01*
X87400D02*
X105400D01*
X7400D02*
X16400D01*
X368400Y166700D02*
X373400D01*
X300400D02*
X305400D01*
X285400D02*
X290400D01*
X250400D02*
X280400D01*
X89400D02*
X108400D01*
X7400D02*
X15400D01*
X369400Y165700D02*
X374400D01*
X300400D02*
X305400D01*
X286400D02*
X291400D01*
X269400D02*
X281400D01*
X249400D02*
X265400D01*
X90400D02*
X110400D01*
X6400D02*
X14400D01*
X370400Y164700D02*
X374400D01*
X300400D02*
X305400D01*
X286400D02*
X291400D01*
X272400D02*
X281400D01*
X247400D02*
X263400D01*
X91400D02*
X111400D01*
X6400D02*
X13400D01*
X371400Y163700D02*
X375400D01*
X300400D02*
X305400D01*
X286400D02*
X291400D01*
X273400D02*
X282400D01*
X246400D02*
X262400D01*
X92400D02*
X113400D01*
X5400D02*
X12400D01*
X371400Y162700D02*
X375400D01*
X300400D02*
X305400D01*
X287400D02*
X292400D01*
X274400D02*
X282400D01*
X245400D02*
X261400D01*
X93400D02*
X115400D01*
X4400D02*
X11400D01*
X372400Y161700D02*
X376400D01*
X300400D02*
X306400D01*
X287400D02*
X292400D01*
X274400D02*
X282400D01*
X244400D02*
X261400D01*
X95400D02*
X116400D01*
X4400D02*
X10400D01*
X373400Y160700D02*
X376400D01*
X301400D02*
X306400D01*
X287400D02*
X292400D01*
X275400D02*
X282400D01*
X243400D02*
X260400D01*
X96400D02*
X118400D01*
X4400D02*
X9400D01*
X373400Y159700D02*
X377400D01*
X301400D02*
X306400D01*
X288400D02*
X292400D01*
X275400D02*
X283400D01*
X242400D02*
X259400D01*
X97400D02*
X119400D01*
X4400D02*
X9400D01*
X373400Y158700D02*
X377400D01*
X301400D02*
X306400D01*
X288400D02*
X292400D01*
X276400D02*
X283400D01*
X242400D02*
X259400D01*
X98400D02*
X120400D01*
X12400D02*
X17400D01*
X4400D02*
X8400D01*
X373400Y157700D02*
X378400D01*
X301400D02*
X306400D01*
X288400D02*
X293400D01*
X276400D02*
X283400D01*
X241400D02*
X258400D01*
X112400D02*
X121400D01*
X99400D02*
X109400D01*
X11400D02*
X17400D01*
X4400D02*
X7400D01*
X375400Y156700D02*
X378400D01*
X301400D02*
X305400D01*
X289400D02*
X293400D01*
X276400D02*
X284400D01*
X240400D02*
X258400D01*
X114400D02*
X122400D01*
X100400D02*
X110400D01*
X10400D02*
X16400D01*
X5400D02*
X6400D01*
X376400Y155700D02*
X379400D01*
X301400D02*
X305400D01*
X289400D02*
X293400D01*
X276400D02*
X284400D01*
X239400D02*
X258400D01*
X115400D02*
X123400D01*
X101400D02*
X111400D01*
X86400D02*
X93400D01*
X10400D02*
X15400D01*
X376400Y154700D02*
X380400D01*
X301400D02*
X304400D01*
X289400D02*
X293400D01*
X277400D02*
X284400D01*
X239400D02*
X257400D01*
X117400D02*
X124400D01*
X102400D02*
X111400D01*
X85400D02*
X94400D01*
X9400D02*
X14400D01*
X377400Y153700D02*
X380400D01*
X301400D02*
X303400D01*
X290400D02*
X294400D01*
X277400D02*
X284400D01*
X249400D02*
X257400D01*
X238400D02*
X246400D01*
X118400D02*
X125400D01*
X103400D02*
X112400D01*
X85400D02*
X95400D01*
X8400D02*
X13400D01*
X378400Y152700D02*
X381400D01*
X290400D02*
X294400D01*
X277400D02*
X285400D01*
X251400D02*
X257400D01*
X238400D02*
X245400D01*
X119400D02*
X126400D01*
X104400D02*
X113400D01*
X84400D02*
X96400D01*
X8400D02*
X13400D01*
X378400Y151700D02*
X382400D01*
X290400D02*
X294400D01*
X277400D02*
X285400D01*
X252400D02*
X257400D01*
X237400D02*
X244400D01*
X120400D02*
X127400D01*
X105400D02*
X113400D01*
X84400D02*
X97400D01*
X7400D02*
X13400D01*
X379400Y150700D02*
X382400D01*
X290400D02*
X294400D01*
X277400D02*
X285400D01*
X253400D02*
X257400D01*
X237400D02*
X243400D01*
X121400D02*
X128400D01*
X105400D02*
X114400D01*
X84400D02*
X98400D01*
X6400D02*
X12400D01*
X379400Y149700D02*
X383400D01*
X376400D02*
X378400D01*
X290400D02*
X295400D01*
X277400D02*
X285400D01*
X253400D02*
X258400D01*
X236400D02*
X243400D01*
X122400D02*
X129400D01*
X106400D02*
X114400D01*
X85400D02*
X99400D01*
X6400D02*
X12400D01*
X380400Y148700D02*
X384400D01*
X375400D02*
X379400D01*
X290400D02*
X295400D01*
X277400D02*
X285400D01*
X254400D02*
X258400D01*
X236400D02*
X243400D01*
X123400D02*
X129400D01*
X107400D02*
X115400D01*
X85400D02*
X100400D01*
X63400D02*
X68400D01*
X6400D02*
X13400D01*
X380400Y147700D02*
X384400D01*
X376400D02*
X379400D01*
X290400D02*
X295400D01*
X277400D02*
X285400D01*
X254400D02*
X258400D01*
X236400D02*
X242400D01*
X124400D02*
X129400D01*
X108400D02*
X116400D01*
X85400D02*
X101400D01*
X63400D02*
X69400D01*
X6400D02*
X14400D01*
X376400Y146700D02*
X385400D01*
X291400D02*
X295400D01*
X277400D02*
X285400D01*
X255400D02*
X259400D01*
X235400D02*
X243400D01*
X126400D02*
X128400D01*
X108400D02*
X116400D01*
X85400D02*
X102400D01*
X64400D02*
X69400D01*
X6400D02*
X14400D01*
X377400Y145700D02*
X385400D01*
X291400D02*
X295400D01*
X277400D02*
X285400D01*
X255400D02*
X260400D01*
X235400D02*
X242400D01*
X109400D02*
X117400D01*
X85400D02*
X103400D01*
X64400D02*
X70400D01*
X7400D02*
X14400D01*
X378400Y144700D02*
X385400D01*
X291400D02*
X295400D01*
X277400D02*
X285400D01*
X254400D02*
X261400D01*
X234400D02*
X242400D01*
X109400D02*
X117400D01*
X86400D02*
X104400D01*
X65400D02*
X70400D01*
X10400D02*
X14400D01*
X380400Y143700D02*
X385400D01*
X291400D02*
X296400D01*
X277400D02*
X285400D01*
X255400D02*
X261400D01*
X234400D02*
X242400D01*
X110400D02*
X118400D01*
X99400D02*
X104400D01*
X86400D02*
X97400D01*
X66400D02*
X71400D01*
X10400D02*
X14400D01*
X380400Y142700D02*
X385400D01*
X292400D02*
X296400D01*
X277400D02*
X285400D01*
X255400D02*
X262400D01*
X233400D02*
X242400D01*
X111400D02*
X118400D01*
X100400D02*
X105400D01*
X86400D02*
X97400D01*
X66400D02*
X71400D01*
X10400D02*
X14400D01*
X381400Y141700D02*
X385400D01*
X292400D02*
X296400D01*
X276400D02*
X285400D01*
X255400D02*
X264400D01*
X233400D02*
X242400D01*
X111400D02*
X119400D01*
X100400D02*
X106400D01*
X86400D02*
X97400D01*
X67400D02*
X71400D01*
X10400D02*
X14400D01*
X381400Y140700D02*
X384400D01*
X291400D02*
X296400D01*
X274400D02*
X285400D01*
X254400D02*
X270400D01*
X232400D02*
X242400D01*
X112400D02*
X120400D01*
X101400D02*
X106400D01*
X87400D02*
X97400D01*
X67400D02*
X72400D01*
X10400D02*
X14400D01*
X291400Y139700D02*
X296400D01*
X250400D02*
X285400D01*
X231400D02*
X242400D01*
X113400D02*
X120400D01*
X101400D02*
X107400D01*
X88400D02*
X98400D01*
X68400D02*
X73400D01*
X10400D02*
X13400D01*
X291400Y138700D02*
X296400D01*
X249400D02*
X285400D01*
X238400D02*
X242400D01*
X231400D02*
X236400D01*
X113400D02*
X121400D01*
X102400D02*
X107400D01*
X88400D02*
X98400D01*
X68400D02*
X73400D01*
X10400D02*
X13400D01*
X380400Y137700D02*
X383400D01*
X291400D02*
X295400D01*
X248400D02*
X285400D01*
X239400D02*
X242400D01*
X230400D02*
X235400D01*
X114400D02*
X121400D01*
X103400D02*
X108400D01*
X88400D02*
X98400D01*
X68400D02*
X74400D01*
X10400D02*
X12400D01*
X380400Y136700D02*
X384400D01*
X292400D02*
X295400D01*
X247400D02*
X284400D01*
X239400D02*
X242400D01*
X230400D02*
X235400D01*
X114400D02*
X122400D01*
X103400D02*
X109400D01*
X89400D02*
X98400D01*
X69400D02*
X74400D01*
X380400Y135700D02*
X384400D01*
X293400D02*
X294400D01*
X267400D02*
X283400D01*
X246400D02*
X255400D01*
X239400D02*
X243400D01*
X229400D02*
X235400D01*
X115400D02*
X122400D01*
X104400D02*
X109400D01*
X89400D02*
X99400D01*
X69400D02*
X74400D01*
X381400Y134700D02*
X384400D01*
X271400D02*
X284400D01*
X245400D02*
X253400D01*
X239400D02*
X243400D01*
X229400D02*
X234400D01*
X116400D02*
X123400D01*
X104400D02*
X110400D01*
X90400D02*
X99400D01*
X70400D02*
X75400D01*
X15400D02*
X17400D01*
X381400Y133700D02*
X385400D01*
X274400D02*
X285400D01*
X239400D02*
X252400D01*
X229400D02*
X234400D01*
X116400D02*
X124400D01*
X105400D02*
X110400D01*
X90400D02*
X99400D01*
X70400D02*
X75400D01*
X55400D02*
X65400D01*
X14400D02*
X17400D01*
X382400Y132700D02*
X384400D01*
X275400D02*
X287400D01*
X239400D02*
X251400D01*
X228400D02*
X233400D01*
X117400D02*
X124400D01*
X105400D02*
X111400D01*
X91400D02*
X100400D01*
X71400D02*
X76400D01*
X56400D02*
X65400D01*
X14400D02*
X18400D01*
X275400Y131700D02*
X288400D01*
X239400D02*
X249400D01*
X228400D02*
X233400D01*
X117400D02*
X125400D01*
X106400D02*
X111400D01*
X91400D02*
X100400D01*
X71400D02*
X76400D01*
X56400D02*
X66400D01*
X15400D02*
X18400D01*
X272400Y130700D02*
X290400D01*
X239400D02*
X248400D01*
X227400D02*
X232400D01*
X118400D02*
X125400D01*
X106400D02*
X112400D01*
X92400D02*
X100400D01*
X72400D02*
X77400D01*
X57400D02*
X66400D01*
X15400D02*
X19400D01*
X380400Y129700D02*
X382400D01*
X270400D02*
X292400D01*
X239400D02*
X247400D01*
X227400D02*
X231400D01*
X119400D02*
X126400D01*
X107400D02*
X112400D01*
X92400D02*
X101400D01*
X72400D02*
X77400D01*
X58400D02*
X66400D01*
X15400D02*
X19400D01*
X380400Y128700D02*
X383400D01*
X286400D02*
X294400D01*
X268400D02*
X282400D01*
X239400D02*
X246400D01*
X226400D02*
X231400D01*
X119400D02*
X126400D01*
X107400D02*
X113400D01*
X93400D02*
X101400D01*
X72400D02*
X77400D01*
X58400D02*
X67400D01*
X16400D02*
X19400D01*
X380400Y127700D02*
X383400D01*
X287400D02*
X296400D01*
X260400D02*
X280400D01*
X238400D02*
X246400D01*
X226400D02*
X231400D01*
X120400D02*
X127400D01*
X108400D02*
X113400D01*
X93400D02*
X101400D01*
X72400D02*
X78400D01*
X59400D02*
X67400D01*
X16400D02*
X19400D01*
X380400Y126700D02*
X382400D01*
X287400D02*
X298400D01*
X258400D02*
X277400D01*
X237400D02*
X246400D01*
X225400D02*
X230400D01*
X120400D02*
X127400D01*
X108400D02*
X113400D01*
X94400D02*
X102400D01*
X73400D02*
X78400D01*
X59400D02*
X68400D01*
X17400D02*
X20400D01*
X287400Y125700D02*
X299400D01*
X256400D02*
X274400D01*
X236400D02*
X245400D01*
X224400D02*
X230400D01*
X121400D02*
X127400D01*
X109400D02*
X114400D01*
X94400D02*
X102400D01*
X73400D02*
X78400D01*
X60400D02*
X68400D01*
X17400D02*
X20400D01*
X285400Y124700D02*
X300400D01*
X254400D02*
X273400D01*
X236400D02*
X244400D01*
X224400D02*
X229400D01*
X184400D02*
X186400D01*
X121400D02*
X128400D01*
X109400D02*
X114400D01*
X95400D02*
X103400D01*
X74400D02*
X78400D01*
X61400D02*
X68400D01*
X17400D02*
X21400D01*
X283400Y123700D02*
X302400D01*
X253400D02*
X271400D01*
X235400D02*
X243400D01*
X223400D02*
X228400D01*
X184400D02*
X189400D01*
X121400D02*
X128400D01*
X109400D02*
X114400D01*
X96400D02*
X103400D01*
X74400D02*
X79400D01*
X61400D02*
X69400D01*
X18400D02*
X21400D01*
X376400Y122700D02*
X379400D01*
X282400D02*
X303400D01*
X252400D02*
X271400D01*
X234400D02*
X243400D01*
X223400D02*
X228400D01*
X183400D02*
X190400D01*
X122400D02*
X128400D01*
X110400D02*
X115400D01*
X96400D02*
X104400D01*
X75400D02*
X79400D01*
X62400D02*
X69400D01*
X18400D02*
X22400D01*
X376400Y121700D02*
X379400D01*
X281400D02*
X304400D01*
X267400D02*
X270400D01*
X251400D02*
X258400D01*
X234400D02*
X242400D01*
X222400D02*
X228400D01*
X182400D02*
X191400D01*
X122400D02*
X129400D01*
X110400D02*
X115400D01*
X97400D02*
X105400D01*
X75400D02*
X79400D01*
X63400D02*
X70400D01*
X19400D02*
X22400D01*
X376400Y120700D02*
X380400D01*
X297400D02*
X305400D01*
X279400D02*
X290400D01*
X251400D02*
X257400D01*
X222400D02*
X241400D01*
X182400D02*
X192400D01*
X123400D02*
X129400D01*
X110400D02*
X115400D01*
X98400D02*
X105400D01*
X75400D02*
X79400D01*
X63400D02*
X70400D01*
X19400D02*
X22400D01*
X377400Y119700D02*
X380400D01*
X298400D02*
X306400D01*
X279400D02*
X286400D01*
X250400D02*
X257400D01*
X221400D02*
X241400D01*
X187400D02*
X192400D01*
X181400D02*
X185400D01*
X123400D02*
X129400D01*
X110400D02*
X115400D01*
X98400D02*
X106400D01*
X75400D02*
X80400D01*
X64400D02*
X71400D01*
X19400D02*
X23400D01*
X377400Y118700D02*
X379400D01*
X299400D02*
X308400D01*
X278400D02*
X285400D01*
X250400D02*
X256400D01*
X220400D02*
X241400D01*
X187400D02*
X193400D01*
X180400D02*
X185400D01*
X123400D02*
X130400D01*
X110400D02*
X115400D01*
X99400D02*
X107400D01*
X75400D02*
X80400D01*
X65400D02*
X71400D01*
X19400D02*
X23400D01*
X300400Y117700D02*
X309400D01*
X278400D02*
X285400D01*
X250400D02*
X255400D01*
X220400D02*
X241400D01*
X188400D02*
X193400D01*
X180400D02*
X185400D01*
X123400D02*
X130400D01*
X110400D02*
X115400D01*
X100400D02*
X107400D01*
X75400D02*
X80400D01*
X66400D02*
X72400D01*
X20400D02*
X24400D01*
X301400Y116700D02*
X310400D01*
X278400D02*
X286400D01*
X250400D02*
X255400D01*
X219400D02*
X241400D01*
X189400D02*
X194400D01*
X180400D02*
X185400D01*
X124400D02*
X130400D01*
X110400D02*
X115400D01*
X101400D02*
X109400D01*
X75400D02*
X81400D01*
X67400D02*
X73400D01*
X20400D02*
X24400D01*
X303400Y115700D02*
X311400D01*
X278400D02*
X287400D01*
X250400D02*
X256400D01*
X218400D02*
X241400D01*
X189400D02*
X194400D01*
X179400D02*
X184400D01*
X124400D02*
X130400D01*
X102400D02*
X115400D01*
X75400D02*
X81400D01*
X67400D02*
X74400D01*
X21400D02*
X25400D01*
X304400Y114700D02*
X312400D01*
X279400D02*
X288400D01*
X250400D02*
X256400D01*
X218400D02*
X241400D01*
X189400D02*
X194400D01*
X179400D02*
X184400D01*
X124400D02*
X131400D01*
X103400D02*
X115400D01*
X69400D02*
X81400D01*
X53400D02*
X61400D01*
X21400D02*
X26400D01*
X372400Y113700D02*
X375400D01*
X305400D02*
X313400D01*
X280400D02*
X289400D01*
X250400D02*
X256400D01*
X217400D02*
X242400D01*
X190400D02*
X195400D01*
X178400D02*
X183400D01*
X125400D02*
X131400D01*
X104400D02*
X115400D01*
X70400D02*
X81400D01*
X54400D02*
X62400D01*
X22400D02*
X26400D01*
X372400Y112700D02*
X375400D01*
X306400D02*
X314400D01*
X281400D02*
X289400D01*
X250400D02*
X257400D01*
X216400D02*
X242400D01*
X190400D02*
X196400D01*
X178400D02*
X183400D01*
X125400D02*
X131400D01*
X105400D02*
X115400D01*
X72400D02*
X81400D01*
X55400D02*
X63400D01*
X23400D02*
X27400D01*
X372400Y111700D02*
X375400D01*
X307400D02*
X314400D01*
X283400D02*
X289400D01*
X250400D02*
X257400D01*
X215400D02*
X243400D01*
X191400D02*
X196400D01*
X178400D02*
X183400D01*
X125400D02*
X131400D01*
X106400D02*
X115400D01*
X74400D02*
X81400D01*
X56400D02*
X65400D01*
X23400D02*
X28400D01*
X372400Y110700D02*
X375400D01*
X308400D02*
X315400D01*
X283400D02*
X290400D01*
X250400D02*
X257400D01*
X214400D02*
X243400D01*
X192400D02*
X197400D01*
X178400D02*
X183400D01*
X126400D02*
X132400D01*
X107400D02*
X115400D01*
X75400D02*
X81400D01*
X58400D02*
X65400D01*
X24400D02*
X28400D01*
X372400Y109700D02*
X376400D01*
X309400D02*
X316400D01*
X283400D02*
X290400D01*
X250400D02*
X257400D01*
X212400D02*
X243400D01*
X193400D02*
X197400D01*
X177400D02*
X182400D01*
X126400D02*
X132400D01*
X108400D02*
X114400D01*
X77400D02*
X80400D01*
X59400D02*
X66400D01*
X25400D02*
X28400D01*
X373400Y108700D02*
X376400D01*
X310400D02*
X317400D01*
X284400D02*
X290400D01*
X251400D02*
X258400D01*
X211400D02*
X243400D01*
X193400D02*
X198400D01*
X177400D02*
X182400D01*
X126400D02*
X132400D01*
X109400D02*
X114400D01*
X59400D02*
X67400D01*
X26400D02*
X29400D01*
X373400Y107700D02*
X376400D01*
X310400D02*
X318400D01*
X284400D02*
X290400D01*
X251400D02*
X258400D01*
X237400D02*
X244400D01*
X209400D02*
X235400D01*
X194400D02*
X199400D01*
X177400D02*
X182400D01*
X127400D02*
X132400D01*
X111400D02*
X113400D01*
X62400D02*
X68400D01*
X26400D02*
X30400D01*
X374400Y106700D02*
X376400D01*
X311400D02*
X319400D01*
X284400D02*
X290400D01*
X252400D02*
X259400D01*
X238400D02*
X244400D01*
X208400D02*
X234400D01*
X195400D02*
X200400D01*
X177400D02*
X182400D01*
X127400D02*
X132400D01*
X63400D02*
X69400D01*
X26400D02*
X31400D01*
X312400Y105700D02*
X320400D01*
X284400D02*
X290400D01*
X252400D02*
X259400D01*
X239400D02*
X245400D01*
X206400D02*
X232400D01*
X196400D02*
X202400D01*
X177400D02*
X182400D01*
X128400D02*
X132400D01*
X64400D02*
X71400D01*
X27400D02*
X31400D01*
X370400Y104700D02*
X371400D01*
X313400D02*
X320400D01*
X284400D02*
X290400D01*
X252400D02*
X260400D01*
X239400D02*
X245400D01*
X197400D02*
X230400D01*
X177400D02*
X182400D01*
X128400D02*
X132400D01*
X66400D02*
X73400D01*
X28400D02*
X32400D01*
X369400Y103700D02*
X371400D01*
X314400D02*
X321400D01*
X284400D02*
X290400D01*
X253400D02*
X259400D01*
X240400D02*
X246400D01*
X197400D02*
X228400D01*
X177400D02*
X182400D01*
X161400D02*
X165400D01*
X128400D02*
X132400D01*
X68400D02*
X74400D01*
X29400D02*
X32400D01*
X368400Y102700D02*
X372400D01*
X315400D02*
X322400D01*
X284400D02*
X289400D01*
X253400D02*
X259400D01*
X240400D02*
X247400D01*
X198400D02*
X226400D01*
X177400D02*
X182400D01*
X161400D02*
X166400D01*
X129400D02*
X132400D01*
X68400D02*
X77400D01*
X29400D02*
X33400D01*
X368400Y101700D02*
X372400D01*
X315400D02*
X322400D01*
X283400D02*
X288400D01*
X253400D02*
X258400D01*
X241400D02*
X247400D01*
X198400D02*
X224400D01*
X177400D02*
X182400D01*
X160400D02*
X169400D01*
X69400D02*
X81400D01*
X30400D02*
X34400D01*
X367400Y100700D02*
X373400D01*
X317400D02*
X323400D01*
X282400D02*
X288400D01*
X253400D02*
X258400D01*
X241400D02*
X248400D01*
X199400D02*
X223400D01*
X177400D02*
X182400D01*
X159400D02*
X174400D01*
X69400D02*
X81400D01*
X31400D02*
X35400D01*
X367400Y99700D02*
X373400D01*
X318400D02*
X324400D01*
X282400D02*
X287400D01*
X252400D02*
X257400D01*
X242400D02*
X249400D01*
X201400D02*
X221400D01*
X159400D02*
X183400D01*
X66400D02*
X80400D01*
X32400D02*
X36400D01*
X366400Y98700D02*
X373400D01*
X318400D02*
X324400D01*
X281400D02*
X287400D01*
X266400D02*
X271400D01*
X252400D02*
X257400D01*
X243400D02*
X250400D01*
X202400D02*
X219400D01*
X158400D02*
X183400D01*
X64400D02*
X77400D01*
X33400D02*
X36400D01*
X371400Y97700D02*
X373400D01*
X366400D02*
X370400D01*
X319400D02*
X325400D01*
X279400D02*
X286400D01*
X265400D02*
X273400D01*
X244400D02*
X257400D01*
X202400D02*
X217400D01*
X157400D02*
X184400D01*
X62400D02*
X73400D01*
X33400D02*
X37400D01*
X365400Y96700D02*
X369400D01*
X318400D02*
X326400D01*
X264400D02*
X285400D01*
X245400D02*
X257400D01*
X199400D02*
X215400D01*
X167400D02*
X185400D01*
X156400D02*
X163400D01*
X61400D02*
X68400D01*
X34400D02*
X38400D01*
X365400Y95700D02*
X369400D01*
X315400D02*
X326400D01*
X263400D02*
X284400D01*
X246400D02*
X257400D01*
X195400D02*
X213400D01*
X169400D02*
X185400D01*
X155400D02*
X162400D01*
X60400D02*
X68400D01*
X34400D02*
X39400D01*
X364400Y94700D02*
X368400D01*
X311400D02*
X327400D01*
X263400D02*
X283400D01*
X247400D02*
X257400D01*
X171400D02*
X211400D01*
X154400D02*
X161400D01*
X60400D02*
X67400D01*
X35400D02*
X40400D01*
X364400Y93700D02*
X368400D01*
X309400D02*
X328400D01*
X262400D02*
X281400D01*
X248400D02*
X257400D01*
X174400D02*
X210400D01*
X153400D02*
X160400D01*
X59400D02*
X66400D01*
X36400D02*
X40400D01*
X363400Y92700D02*
X367400D01*
X308400D02*
X329400D01*
X273400D02*
X278400D01*
X262400D02*
X267400D01*
X249400D02*
X257400D01*
X176400D02*
X208400D01*
X152400D02*
X159400D01*
X59400D02*
X66400D01*
X37400D02*
X41400D01*
X363400Y91700D02*
X367400D01*
X307400D02*
X329400D01*
X261400D02*
X266400D01*
X250400D02*
X257400D01*
X179400D02*
X206400D01*
X151400D02*
X159400D01*
X59400D02*
X65400D01*
X38400D02*
X41400D01*
X362400Y90700D02*
X366400D01*
X322400D02*
X329400D01*
X305400D02*
X320400D01*
X261400D02*
X266400D01*
X251400D02*
X257400D01*
X182400D02*
X202400D01*
X59400D02*
X65400D01*
X38400D02*
X42400D01*
X362400Y89700D02*
X365400D01*
X323400D02*
X329400D01*
X304400D02*
X313400D01*
X260400D02*
X265400D01*
X252400D02*
X258400D01*
X59400D02*
X65400D01*
X39400D02*
X43400D01*
X361400Y88700D02*
X365400D01*
X322400D02*
X329400D01*
X303400D02*
X311400D01*
X253400D02*
X265400D01*
X59400D02*
X65400D01*
X40400D02*
X44400D01*
X361400Y87700D02*
X364400D01*
X321400D02*
X330400D01*
X302400D02*
X310400D01*
X254400D02*
X265400D01*
X59400D02*
X66400D01*
X41400D02*
X46400D01*
X360400Y86700D02*
X364400D01*
X318400D02*
X332400D01*
X301400D02*
X309400D01*
X255400D02*
X265400D01*
X59400D02*
X66400D01*
X42400D02*
X47400D01*
X359400Y85700D02*
X363400D01*
X328400D02*
X334400D01*
X316400D02*
X327400D01*
X301400D02*
X308400D01*
X257400D02*
X265400D01*
X60400D02*
X66400D01*
X43400D02*
X48400D01*
X359400Y84700D02*
X363400D01*
X328400D02*
X334400D01*
X315400D02*
X325400D01*
X300400D02*
X307400D01*
X257400D02*
X265400D01*
X60400D02*
X67400D01*
X44400D02*
X49400D01*
X358400Y83700D02*
X362400D01*
X328400D02*
X335400D01*
X314400D02*
X323400D01*
X299400D02*
X306400D01*
X257400D02*
X266400D01*
X61400D02*
X67400D01*
X45400D02*
X50400D01*
X357400Y82700D02*
X361400D01*
X329400D02*
X335400D01*
X313400D02*
X322400D01*
X299400D02*
X305400D01*
X259400D02*
X267400D01*
X61400D02*
X68400D01*
X46400D02*
X50400D01*
X356400Y81700D02*
X361400D01*
X329400D02*
X335400D01*
X312400D02*
X321400D01*
X299400D02*
X304400D01*
X260400D02*
X268400D01*
X62400D02*
X69400D01*
X47400D02*
X51400D01*
X355400Y80700D02*
X360400D01*
X329400D02*
X335400D01*
X312400D02*
X319400D01*
X298400D02*
X304400D01*
X262400D02*
X269400D01*
X132400D02*
X144400D01*
X63400D02*
X71400D01*
X48400D02*
X53400D01*
X354400Y79700D02*
X359400D01*
X329400D02*
X335400D01*
X311400D02*
X318400D01*
X298400D02*
X304400D01*
X263400D02*
X270400D01*
X131400D02*
X143400D01*
X63400D02*
X72400D01*
X49400D02*
X55400D01*
X353400Y78700D02*
X358400D01*
X329400D02*
X335400D01*
X310400D02*
X317400D01*
X298400D02*
X303400D01*
X264400D02*
X272400D01*
X129400D02*
X143400D01*
X64400D02*
X74400D01*
X50400D02*
X56400D01*
X352400Y77700D02*
X357400D01*
X329400D02*
X335400D01*
X309400D02*
X317400D01*
X297400D02*
X303400D01*
X265400D02*
X273400D01*
X127400D02*
X143400D01*
X65400D02*
X75400D01*
X51400D02*
X57400D01*
X351400Y76700D02*
X356400D01*
X328400D02*
X335400D01*
X308400D02*
X316400D01*
X297400D02*
X303400D01*
X267400D02*
X274400D01*
X139400D02*
X144400D01*
X125400D02*
X135400D01*
X67400D02*
X77400D01*
X52400D02*
X58400D01*
X350400Y75700D02*
X355400D01*
X328400D02*
X335400D01*
X308400D02*
X315400D01*
X297400D02*
X303400D01*
X268400D02*
X276400D01*
X140400D02*
X145400D01*
X124400D02*
X133400D01*
X68400D02*
X79400D01*
X53400D02*
X60400D01*
X349400Y74700D02*
X354400D01*
X328400D02*
X334400D01*
X307400D02*
X315400D01*
X296400D02*
X303400D01*
X269400D02*
X277400D01*
X140400D02*
X146400D01*
X122400D02*
X130400D01*
X69400D02*
X82400D01*
X55400D02*
X61400D01*
X348400Y73700D02*
X353400D01*
X327400D02*
X334400D01*
X306400D02*
X314400D01*
X296400D02*
X303400D01*
X270400D02*
X279400D01*
X141400D02*
X147400D01*
X120400D02*
X128400D01*
X71400D02*
X86400D01*
X56400D02*
X63400D01*
X347400Y72700D02*
X352400D01*
X327400D02*
X334400D01*
X306400D02*
X314400D01*
X296400D02*
X303400D01*
X272400D02*
X281400D01*
X142400D02*
X149400D01*
X116400D02*
X126400D01*
X72400D02*
X89400D01*
X58400D02*
X64400D01*
X346400Y71700D02*
X351400D01*
X328400D02*
X334400D01*
X305400D02*
X313400D01*
X296400D02*
X303400D01*
X273400D02*
X282400D01*
X143400D02*
X150400D01*
X113400D02*
X124400D01*
X74400D02*
X92400D01*
X59400D02*
X66400D01*
X345400Y70700D02*
X350400D01*
X327400D02*
X333400D01*
X305400D02*
X312400D01*
X296400D02*
X303400D01*
X274400D02*
X285400D01*
X144400D02*
X151400D01*
X104400D02*
X121400D01*
X75400D02*
X93400D01*
X61400D02*
X68400D01*
X344400Y69700D02*
X349400D01*
X327400D02*
X333400D01*
X304400D02*
X312400D01*
X296400D02*
X303400D01*
X276400D02*
X287400D01*
X145400D02*
X152400D01*
X77400D02*
X119400D01*
X62400D02*
X70400D01*
X342400Y68700D02*
X348400D01*
X326400D02*
X332400D01*
X296400D02*
X312400D01*
X277400D02*
X289400D01*
X146400D02*
X153400D01*
X79400D02*
X116400D01*
X64400D02*
X72400D01*
X341400Y67700D02*
X347400D01*
X321400D02*
X332400D01*
X296400D02*
X311400D01*
X279400D02*
X291400D01*
X147400D02*
X154400D01*
X81400D02*
X112400D01*
X65400D02*
X74400D01*
X340400Y66700D02*
X346400D01*
X320400D02*
X331400D01*
X296400D02*
X311400D01*
X282400D02*
X294400D01*
X148400D02*
X155400D01*
X87400D02*
X108400D01*
X67400D02*
X75400D01*
X338400Y65700D02*
X345400D01*
X320400D02*
X331400D01*
X284400D02*
X311400D01*
X149400D02*
X157400D01*
X93400D02*
X104400D01*
X68400D02*
X76400D01*
X337400Y64700D02*
X344400D01*
X320400D02*
X331400D01*
X286400D02*
X311400D01*
X150400D02*
X159400D01*
X70400D02*
X78400D01*
X336400Y63700D02*
X342400D01*
X321400D02*
X330400D01*
X287400D02*
X311400D01*
X150400D02*
X163400D01*
X72400D02*
X79400D01*
X334400Y62700D02*
X341400D01*
X321400D02*
X331400D01*
X290400D02*
X311400D01*
X150400D02*
X172400D01*
X75400D02*
X79400D01*
X320400Y61700D02*
X340400D01*
X292400D02*
X310400D01*
X150400D02*
X172400D01*
X84400D02*
X90400D01*
X76400D02*
X80400D01*
X319400Y60700D02*
X338400D01*
X295400D02*
X310400D01*
X236400D02*
X257400D01*
X149400D02*
X172400D01*
X77400D02*
X95400D01*
X317400Y59700D02*
X336400D01*
X297400D02*
X311400D01*
X232400D02*
X258400D01*
X149400D02*
X171400D01*
X77400D02*
X99400D01*
X300400Y58700D02*
X334400D01*
X228400D02*
X258400D01*
X169400D02*
X170400D01*
X164400D02*
X168400D01*
X149400D02*
X156400D01*
X75400D02*
X102400D01*
X303400Y57700D02*
X332400D01*
X229700D02*
X258400D01*
X149400D02*
X155400D01*
X74400D02*
X105400D01*
X305400Y56700D02*
X330400D01*
X231600D02*
X258400D01*
X149400D02*
X155400D01*
X89400D02*
X108400D01*
X73400D02*
X81400D01*
X306400Y55700D02*
X329400D01*
X251400D02*
X257400D01*
X149400D02*
X155400D01*
X95400D02*
X111400D01*
X72400D02*
X80400D01*
X306400Y54700D02*
X326400D01*
X251400D02*
X257400D01*
X149400D02*
X155400D01*
X101400D02*
X114400D01*
X72400D02*
X79400D01*
X306400Y53700D02*
X324400D01*
X251400D02*
X256400D01*
X149400D02*
X154400D01*
X105400D02*
X117400D01*
X71400D02*
X79400D01*
X303400Y52700D02*
X320400D01*
X250400D02*
X256400D01*
X148400D02*
X154400D01*
X109400D02*
X120400D01*
X71400D02*
X78400D01*
X296400Y51700D02*
X316400D01*
X250400D02*
X256400D01*
X148400D02*
X153400D01*
X112400D02*
X123400D01*
X70400D02*
X78400D01*
X291400Y50700D02*
X312400D01*
X250400D02*
X255400D01*
X208400D02*
X218400D01*
X148400D02*
X152400D01*
X115400D02*
X126400D01*
X70400D02*
X78400D01*
X289400Y49700D02*
X310400D01*
X249400D02*
X255400D01*
X206400D02*
X216400D01*
X148400D02*
X151400D01*
X117400D02*
X128400D01*
X70400D02*
X78400D01*
X286400Y48700D02*
X307400D01*
X249400D02*
X255400D01*
X204400D02*
X214400D01*
X186400D02*
X187400D01*
X174400D02*
X185400D01*
X120400D02*
X130400D01*
X69400D02*
X77400D01*
X281400Y47700D02*
X304400D01*
X249400D02*
X255400D01*
X203400D02*
X212400D01*
X170400D02*
X193400D01*
X123400D02*
X132400D01*
X69400D02*
X77400D01*
X281400Y46700D02*
X300400D01*
X248400D02*
X254400D01*
X201400D02*
X210400D01*
X165400D02*
X195400D01*
X158400D02*
X164400D01*
X125400D02*
X133400D01*
X69400D02*
X77400D01*
X281400Y45700D02*
X297400D01*
X248400D02*
X254400D01*
X156400D02*
X208400D01*
X127400D02*
X135400D01*
X69400D02*
X76400D01*
X281400Y44700D02*
X292400D01*
X247400D02*
X254400D01*
X154400D02*
X207400D01*
X128400D02*
X138400D01*
X68400D02*
X76400D01*
X247400Y43700D02*
X254400D01*
X186400D02*
X206400D01*
X153400D02*
X174400D01*
X130400D02*
X141400D01*
X68400D02*
X76400D01*
X247400Y42700D02*
X255400D01*
X187400D02*
X204400D01*
X162400D02*
X172400D01*
X151400D02*
X160400D01*
X133400D02*
X143400D01*
X68400D02*
X76400D01*
X247400Y41700D02*
X257400D01*
X186400D02*
X203400D01*
X167400D02*
X169400D01*
X150400D02*
X158400D01*
X134400D02*
X144400D01*
X69400D02*
X76400D01*
X246400Y40700D02*
X257400D01*
X186400D02*
X201400D01*
X149400D02*
X157400D01*
X137400D02*
X145400D01*
X69400D02*
X76400D01*
X246400Y39700D02*
X259400D01*
X185400D02*
X200400D01*
X148400D02*
X156400D01*
X139400D02*
X145400D01*
X69400D02*
X76400D01*
X246400Y38700D02*
X260400D01*
X185400D02*
X195400D01*
X148400D02*
X155400D01*
X142400D02*
X145400D01*
X69400D02*
X76400D01*
X246400Y37700D02*
X261400D01*
X184400D02*
X193400D01*
X147400D02*
X155400D01*
X69400D02*
X76400D01*
X246400Y36700D02*
X261400D01*
X184400D02*
X193400D01*
X147400D02*
X154400D01*
X70400D02*
X76400D01*
X246400Y35700D02*
X261400D01*
X184400D02*
X192400D01*
X146400D02*
X154400D01*
X70400D02*
X77400D01*
X246400Y34700D02*
X261400D01*
X183400D02*
X191400D01*
X164400D02*
X169400D01*
X146400D02*
X153400D01*
X71400D02*
X77400D01*
X246400Y33700D02*
X261400D01*
X183400D02*
X191400D01*
X164400D02*
X169400D01*
X145400D02*
X153400D01*
X71400D02*
X78400D01*
X246400Y32700D02*
X262400D01*
X183400D02*
X190400D01*
X164400D02*
X169400D01*
X145400D02*
X152400D01*
X136400D02*
X137400D01*
X72400D02*
X80400D01*
X255400Y31700D02*
X262400D01*
X245400D02*
X252400D01*
X183400D02*
X190400D01*
X164400D02*
X169400D01*
X144400D02*
X152400D01*
X134400D02*
X138400D01*
X72400D02*
X83400D01*
X256400Y30700D02*
X262400D01*
X243400D02*
X249400D01*
X216400D02*
X238400D01*
X182400D02*
X189400D01*
X164400D02*
X169400D01*
X144400D02*
X152400D01*
X134400D02*
X138400D01*
X73400D02*
X87400D01*
X256400Y29700D02*
X262400D01*
X215400D02*
X248400D01*
X193400D02*
X196400D01*
X182400D02*
X189400D01*
X163400D02*
X169400D01*
X144400D02*
X151400D01*
X133400D02*
X138400D01*
X74400D02*
X91400D01*
X256400Y28700D02*
X262400D01*
X215400D02*
X247400D01*
X192400D02*
X197400D01*
X182400D02*
X189400D01*
X163400D02*
X169400D01*
X144400D02*
X151400D01*
X133400D02*
X138400D01*
X75400D02*
X99400D01*
X256400Y27700D02*
X262400D01*
X220400D02*
X246400D01*
X192400D02*
X197400D01*
X182400D02*
X189400D01*
X163400D02*
X169400D01*
X143400D02*
X151400D01*
X133400D02*
X138400D01*
X126400D02*
X129400D01*
X75400D02*
X107400D01*
X255400Y26700D02*
X262400D01*
X231400D02*
X244400D01*
X192400D02*
X197400D01*
X182400D02*
X189400D01*
X164400D02*
X169400D01*
X143400D02*
X151400D01*
X133400D02*
X138400D01*
X126400D02*
X129400D01*
X82400D02*
X106400D01*
X74400D02*
X80400D01*
X255400Y25700D02*
X262400D01*
X235400D02*
X242400D01*
X192400D02*
X197400D01*
X182400D02*
X189400D01*
X164400D02*
X169400D01*
X143400D02*
X150400D01*
X133400D02*
X137400D01*
X126400D02*
X129400D01*
X86400D02*
X104400D01*
X73400D02*
X80400D01*
X255400Y24700D02*
X262400D01*
X191400D02*
X197400D01*
X182400D02*
X189400D01*
X164400D02*
X169400D01*
X143400D02*
X150400D01*
X133400D02*
X137400D01*
X72400D02*
X80400D01*
X255400Y23700D02*
X262400D01*
X191400D02*
X197400D01*
X182400D02*
X189400D01*
X165400D02*
X169400D01*
X142400D02*
X150400D01*
X133400D02*
X137400D01*
X73400D02*
X80400D01*
X255400Y22700D02*
X262400D01*
X191400D02*
X197400D01*
X182400D02*
X189400D01*
X165400D02*
X169400D01*
X142400D02*
X150400D01*
X133400D02*
X137400D01*
X73400D02*
X80400D01*
X255400Y21700D02*
X262400D01*
X191400D02*
X197400D01*
X182400D02*
X188400D01*
X166400D02*
X170400D01*
X142400D02*
X150400D01*
X133400D02*
X137400D01*
X73400D02*
X80400D01*
X255400Y20700D02*
X261400D01*
X191400D02*
X197400D01*
X182400D02*
X189400D01*
X167400D02*
X170400D01*
X142400D02*
X150400D01*
X132400D02*
X137400D01*
X97400D02*
X110400D01*
X74400D02*
X80400D01*
X255400Y19700D02*
X261400D01*
X191400D02*
X198400D01*
X182400D02*
X189400D01*
X167400D02*
X170400D01*
X141400D02*
X149400D01*
X133400D02*
X137400D01*
X87400D02*
X110400D01*
X255400Y18700D02*
X261400D01*
X223400D02*
X236400D01*
X191400D02*
X198400D01*
X183400D02*
X189400D01*
X141400D02*
X149400D01*
X133400D02*
X137400D01*
X81400D02*
X109400D01*
X255400Y17700D02*
X261400D01*
X223400D02*
X240400D01*
X191400D02*
X198400D01*
X183400D02*
X189400D01*
X141400D02*
X149400D01*
X135400D02*
X136400D01*
X78400D02*
X108400D01*
X255400Y16700D02*
X261400D01*
X225400D02*
X243400D01*
X192400D02*
X198400D01*
X183400D02*
X189400D01*
X141400D02*
X149400D01*
X74400D02*
X92400D01*
M02*
