%FSTAX23Y23*%
%MOIN*%
%SFA1B1*%

%IPPOS*%
%AMD45*
4,1,8,0.065800,0.027300,0.027300,0.065800,-0.027300,0.065800,-0.065800,0.027300,-0.065800,-0.027300,-0.027300,-0.065800,0.027300,-0.065800,0.065800,-0.027300,0.065800,0.027300,0.0*
%
%ADD36R,0.065000X0.065000*%
%ADD37C,0.065000*%
%ADD38C,0.196850*%
%ADD39R,0.065000X0.065000*%
%ADD40C,0.072830*%
%ADD41R,0.072830X0.072830*%
%ADD42O,0.170000X0.080000*%
%ADD43O,0.080000X0.170000*%
%ADD44C,0.048000*%
G04~CAMADD=45~4~0.0~0.0~1315.1~1315.1~0.0~385.2~0~0.0~0.0~0.0~0.0~0~0.0~0.0~0.0~0.0~0~0.0~0.0~0.0~315.0~1315.1~1315.1*
%ADD45D45*%
%ADD46O,0.112200X0.056100*%
%LNcontrolboard-1*%
%LPD*%
G54D36*
X00367Y03561D03*
X03358Y00903D03*
Y02075D03*
X02223Y02203D03*
X02563Y03561D03*
X01833D03*
X01118D03*
X0123Y00865D03*
G54D37*
X00467Y03561D03*
X00567D03*
X00667D03*
X00767D03*
X00867D03*
X03458Y00903D03*
X03558D03*
X03658D03*
Y01003D03*
X03558D03*
X03458D03*
X03358D03*
X03458Y02075D03*
X03558D03*
X03658D03*
Y02175D03*
X03558D03*
X03458D03*
X03358D03*
X0224Y0024D03*
Y0034D03*
Y0044D03*
Y0054D03*
Y0064D03*
X02123Y02203D03*
X02023D03*
X01923D03*
X01823D03*
X01723D03*
X02663Y03561D03*
X02763D03*
X02863D03*
X02963D03*
X03063D03*
X01933D03*
X02033D03*
X02133D03*
X02233D03*
X02333D03*
X01218D03*
X01318D03*
X01418D03*
X01518D03*
X01618D03*
X0133Y00865D03*
X0143D03*
X0153D03*
X0163D03*
X0173D03*
G54D38*
X0379Y0391D03*
X0016D03*
Y0028D03*
X0379D03*
G54D39*
X0224Y0074D03*
G54D40*
X02176Y03786D03*
X02906D03*
X00708D03*
X01461D03*
G54D41*
X02313Y03786D03*
X03043D03*
X00846D03*
X01598D03*
G54D42*
X00361Y01288D03*
G54D43*
X00486Y01483D03*
X00241D03*
G54D44*
X0268Y0176D03*
Y0157D03*
G54D45*
X00357Y00515D03*
Y01032D03*
G54D46*
X00463Y00636D03*
Y00734D03*
Y00813D03*
Y00911D03*
M02*