%FSTAX23Y23*%
%MOIN*%
%SFA1B1*%

%IPPOS*%
%ADD9500C,0.012000*%
%ADD9501C,0.028000*%
%ADD9502C,0.032000*%
%ADD9503C,0.037400*%
%ADD9504C,0.039370*%
%ADD9505C,0.040000*%
%ADD9506C,0.051180*%
%ADD9507C,0.090550*%
%ADD9508C,0.118110*%
%LNcontrolboard-roundholes-1*%
%LPD*%
G54D9500*
X01225Y00329D03*
X01279D03*
X01142Y00471D03*
X01246Y00578D03*
X01312Y0058D03*
X01446Y00583D03*
X01715Y0058D03*
X0205Y00535D03*
X0214Y00496D03*
X00856Y00573D03*
X00739Y00497D03*
X00737Y00394D03*
X00686Y00375D03*
X00583Y00435D03*
X00584Y0049D03*
X00584Y00599D03*
X00466Y00358D03*
X00667Y01598D03*
X00665Y0165D03*
X00406Y0191D03*
X00089Y01919D03*
X00067Y0202D03*
X01085Y02135D03*
X01065Y0174D03*
X01185Y0174D03*
X01232Y01703D03*
X0149Y0155D03*
X0155Y0161D03*
Y0183D03*
X0172Y02065D03*
X01828Y02063D03*
X01883D03*
X0194D03*
X01995D03*
X0227Y02064D03*
X02325Y02061D03*
X02345Y0172D03*
Y01615D03*
X0219Y01625D03*
Y01675D03*
X02035Y01735D03*
X01889Y01589D03*
X02Y0143D03*
X02067Y01285D03*
X02125Y01116D03*
X02181D03*
X02236D03*
X02292Y01114D03*
X0213Y01035D03*
X02075D03*
X01978Y00937D03*
X01914Y0077D03*
X01838Y0074D03*
X01807Y007D03*
X01715Y0073D03*
X01513Y00731D03*
X0138Y0073D03*
X01312D03*
X01122Y00963D03*
X0156Y0114D03*
X01649Y01114D03*
X01705Y01116D03*
X0176D03*
X01815D03*
X0187D03*
X01925D03*
X0182Y0104D03*
X0206Y0077D03*
X0155Y0132D03*
Y01375D03*
X0256Y01383D03*
X02583Y01443D03*
X02513Y01439D03*
Y01494D03*
Y01267D03*
Y01212D03*
X02767Y01443D03*
X0277Y0187D03*
X02738Y02022D03*
X0274Y02176D03*
X0253Y0193D03*
Y01875D03*
X02606Y01847D03*
X03246Y02159D03*
X0373Y0206D03*
X0379D03*
X0385D03*
X0388Y01999D03*
X03737Y01989D03*
X03034Y02213D03*
X02874Y02351D03*
X02833Y0237D03*
X02719Y0239D03*
X02691Y02351D03*
X02665Y02541D03*
X0259D03*
X02515D03*
X0282Y02492D03*
X03011Y0252D03*
Y02574D03*
X03005Y027D03*
X03013Y02881D03*
Y02937D03*
X03011Y02992D03*
X0287Y02937D03*
X02821Y03043D03*
X02677Y0298D03*
X02602D03*
X02527D03*
X02714Y03637D03*
X0376Y0306D03*
X0373Y03004D03*
X0385Y03D03*
X02452Y0298D03*
X02234Y02988D03*
X02229Y02937D03*
X02076D03*
Y02881D03*
X02078Y02992D03*
Y02684D03*
X02076Y02628D03*
X02078Y02574D03*
Y0252D03*
X02243Y0249D03*
X0229Y02492D03*
X02366Y02422D03*
X0244Y02541D03*
X02219Y02658D03*
X01526Y02684D03*
X01526Y02575D03*
X01525Y0252D03*
X01315Y02505D03*
X01208Y02431D03*
X0116Y02539D03*
X01085D03*
X0101D03*
X00935D03*
X00969Y02182D03*
X01194Y02185D03*
X01632Y02223D03*
X0175Y024D03*
X01525Y02882D03*
Y02937D03*
X01526Y02992D03*
X01369Y02986D03*
X01375Y02937D03*
X0117Y0298D03*
X01095D03*
X0102D03*
X00945D03*
X01274Y03637D03*
X01992D03*
X00516Y03637D03*
X00557Y02992D03*
Y02937D03*
X00558Y02882D03*
X0071Y02937D03*
X00727Y02988D03*
X00704Y027D03*
X00725Y025D03*
X00783Y02492D03*
X00638Y02473D03*
X00558Y02574D03*
X00473Y0273D03*
X0019Y02289D03*
X00459Y0379D03*
X00569Y03789D03*
X01214Y0379D03*
X01324Y03789D03*
X01936Y0379D03*
X02046Y03789D03*
X02657Y0379D03*
X02767Y03789D03*
G54D9501*
X00731Y00862D03*
X00572Y017D03*
X0078Y02104D03*
X01098Y0125D03*
X01002Y00865D03*
X03145Y02347D03*
X03047Y02655D03*
X03294Y03193D03*
Y03387D03*
X02575D03*
Y03195D03*
X0186Y03193D03*
X01865Y03387D03*
X01848Y02695D03*
X01744Y02694D03*
X01872Y02491D03*
X0165Y024D03*
X01145Y03195D03*
X0114Y03387D03*
X00425D03*
Y03193D03*
X00392Y02663D03*
X00173Y0249D03*
X00504Y02338D03*
X00811Y02241D03*
G54D9502*
X0268Y0157D03*
Y0176D03*
G54D9503*
X00463Y00636D03*
Y00734D03*
Y00813D03*
Y00911D03*
G54D9504*
X0224Y0024D03*
Y0034D03*
Y0044D03*
Y0054D03*
Y0064D03*
Y0074D03*
X0173Y00865D03*
X0163D03*
X0153D03*
X0143D03*
X0133D03*
X0123D03*
X02563Y03561D03*
X02663D03*
X02763D03*
X02863D03*
X02963D03*
X03063D03*
X02333D03*
X02233D03*
X02133D03*
X02033D03*
X01933D03*
X01833D03*
X01618D03*
X01518D03*
X01418D03*
X01318D03*
X01218D03*
X01118D03*
X01723Y02203D03*
X01823D03*
X01923D03*
X02023D03*
X02123D03*
X02223D03*
X00867Y03561D03*
X00767D03*
X00667D03*
X00567D03*
X00467D03*
X00367D03*
G54D9505*
X03358Y00903D03*
X03458D03*
X03558D03*
X03658D03*
Y01003D03*
X03558D03*
X03458D03*
X03358D03*
Y02075D03*
X03458D03*
X03558D03*
X03658D03*
Y02175D03*
X03558D03*
X03458D03*
X03358D03*
G54D9506*
X00708Y03786D03*
X00846D03*
X01461D03*
X01598D03*
X02176D03*
X02313D03*
X02906D03*
X03043D03*
G54D9507*
X00357Y00515D03*
Y01032D03*
G54D9508*
X0379Y0028D03*
X0016D03*
Y0391D03*
X0379D03*
M02*