%FSTAX23Y23*%
%MOIN*%
%SFA1B1*%

%IPPOS*%
%ADD33C,0.010000*%
%ADD54C,0.005000*%
%ADD55C,0.008000*%
%ADD94R,0.080000X0.050000*%
%ADD95R,0.051000X0.014000*%
%LNcontrolboard-1*%
%LPD*%
G54D33*
X-00044Y01065D02*
X00518D01*
Y00482D02*
Y01065D01*
X-00044Y00482D02*
X00518D01*
G54D54*
X01088Y01451D02*
Y01616D01*
X00851Y01451D02*
Y01648D01*
X01088Y01616D02*
Y01648D01*
X02086Y01086D02*
Y01218D01*
X02034Y01086D02*
X02086D01*
X02034D02*
Y01218D01*
X02086*
X01877Y00646D02*
X01923Y00692D01*
X01877Y00535D02*
X01925Y00487D01*
X02037D02*
X02082Y00532D01*
X02037Y00692D02*
X02082Y00647D01*
X02369Y0224D02*
X02501D01*
Y02188D02*
Y0224D01*
X02369Y02188D02*
X02501D01*
X02369D02*
Y0224D01*
X00493Y02018D02*
X00658D01*
X00461Y01781D02*
X00658D01*
X00461Y02018D02*
X00493D01*
G54D55*
X03195Y03122D02*
Y03263D01*
X03024Y03122D02*
Y03263D01*
X02667Y03122D02*
Y03263D01*
X02837Y03122D02*
Y03263D01*
X01953Y03122D02*
Y03263D01*
X02123Y03122D02*
Y03263D01*
X0248Y03122D02*
Y03263D01*
X0231Y03122D02*
Y03263D01*
X02123Y03316D02*
Y03457D01*
X01953Y03316D02*
Y03457D01*
X0231Y03316D02*
Y03457D01*
X0248Y03316D02*
Y03457D01*
X03024Y03316D02*
Y03457D01*
X03195Y03316D02*
Y03457D01*
X02837Y03316D02*
Y03457D01*
X02667Y03316D02*
Y03457D01*
X01052Y03122D02*
Y03263D01*
X00882Y03122D02*
Y03263D01*
X00524Y03122D02*
Y03263D01*
X00695Y03122D02*
Y03263D01*
X01766Y03122D02*
Y03263D01*
X01596Y03122D02*
Y03263D01*
X01239Y03122D02*
Y03263D01*
X01409Y03122D02*
Y03263D01*
X00882Y03316D02*
Y03457D01*
X01052Y03316D02*
Y03457D01*
X00695Y03316D02*
Y03457D01*
X00524Y03316D02*
Y03457D01*
X01596Y03316D02*
Y03457D01*
X01766Y03316D02*
Y03457D01*
X01409Y03316D02*
Y03457D01*
X01239Y03316D02*
Y03457D01*
X00709Y02005D02*
X0085D01*
X00709Y01834D02*
X0085D01*
X01096Y01277D02*
Y01418D01*
X00925Y01277D02*
Y01418D01*
G54D94*
X0251Y0159D03*
Y0174D03*
G54D95*
X01069Y00317D03*
Y00343D03*
Y00368D03*
Y00394D03*
Y0042D03*
Y00445D03*
Y00471D03*
Y00496D03*
Y00522D03*
Y00547D03*
Y00573D03*
Y00599D03*
Y00624D03*
Y0065D03*
X0081D03*
Y00624D03*
Y00599D03*
Y00573D03*
Y00547D03*
Y00522D03*
Y00496D03*
Y00471D03*
Y00445D03*
Y0042D03*
Y00394D03*
Y00368D03*
Y00343D03*
Y00317D03*
M02*