%FSTAX23Y23*%
%MOIN*%
%SFA1B1*%

%IPPOS*%
%ADD96C,0.002000*%
%LNcontrolboard-1*%
%LPD*%
G54D96*
X00347Y03561D02*
X00386D01*
X00367Y03541D02*
Y0358D01*
X00447Y03561D02*
X00486D01*
X00467Y03541D02*
Y0358D01*
X00547Y03561D02*
X00586D01*
X00567Y03541D02*
Y0358D01*
X00647Y03561D02*
X00686D01*
X00667Y03541D02*
Y0358D01*
X00747Y03561D02*
X00786D01*
X00767Y03541D02*
Y0358D01*
X00847Y03561D02*
X00886D01*
X00867Y03541D02*
Y0358D01*
X03338Y00903D02*
X03378D01*
X03358Y00883D02*
Y00923D01*
X03438Y00903D02*
X03478D01*
X03458Y00883D02*
Y00923D01*
X03538Y00903D02*
X03578D01*
X03558Y00883D02*
Y00923D01*
X03638Y00903D02*
X03678D01*
X03658Y00883D02*
Y00923D01*
X03638Y01003D02*
X03678D01*
X03658Y00983D02*
Y01023D01*
X03538Y01003D02*
X03578D01*
X03558Y00983D02*
Y01023D01*
X03438Y01003D02*
X03478D01*
X03458Y00983D02*
Y01023D01*
X03338Y01003D02*
X03378D01*
X03358Y00983D02*
Y01023D01*
X0373Y0391D02*
X03849D01*
X0379Y0385D02*
Y03969D01*
X001Y0391D02*
X00219D01*
X0016Y0385D02*
Y03969D01*
X001Y0028D02*
X00219D01*
X0016Y0022D02*
Y00339D01*
X0373Y0028D02*
X03849D01*
X0379Y0022D02*
Y00339D01*
X03338Y02075D02*
X03378D01*
X03358Y02055D02*
Y02095D01*
X03438Y02075D02*
X03478D01*
X03458Y02055D02*
Y02095D01*
X03538Y02075D02*
X03578D01*
X03558Y02055D02*
Y02095D01*
X03638Y02075D02*
X03678D01*
X03658Y02055D02*
Y02095D01*
X03638Y02175D02*
X03678D01*
X03658Y02155D02*
Y02195D01*
X03538Y02175D02*
X03578D01*
X03558Y02155D02*
Y02195D01*
X03438Y02175D02*
X03478D01*
X03458Y02155D02*
Y02195D01*
X03338Y02175D02*
X03378D01*
X03358Y02155D02*
Y02195D01*
X0222Y0024D02*
X02259D01*
X0224Y0022D02*
Y00259D01*
X0222Y0034D02*
X02259D01*
X0224Y0032D02*
Y00359D01*
X0222Y0044D02*
X02259D01*
X0224Y0042D02*
Y00459D01*
X0222Y0054D02*
X02259D01*
X0224Y0052D02*
Y00559D01*
X0222Y0064D02*
X02259D01*
X0224Y0062D02*
Y00659D01*
X0222Y0074D02*
X02259D01*
X0224Y0072D02*
Y00759D01*
X0215Y03786D02*
X02201D01*
X02176Y0376D02*
Y03811D01*
X02288Y03786D02*
X02339D01*
X02313Y0376D02*
Y03811D01*
X0288Y03786D02*
X02931D01*
X02906Y0376D02*
Y03811D01*
X03018Y03786D02*
X03069D01*
X03043Y0376D02*
Y03811D01*
X00682Y03786D02*
X00733D01*
X00708Y0376D02*
Y03811D01*
X0082Y03786D02*
X00871D01*
X00846Y0376D02*
Y03811D01*
X01435Y03786D02*
X01486D01*
X01461Y0376D02*
Y03811D01*
X01573Y03786D02*
X01624D01*
X01598Y0376D02*
Y03811D01*
X00341Y01288D02*
X0038D01*
X00361Y01268D02*
Y01307D01*
X00466Y01483D02*
X00505D01*
X00486Y01463D02*
Y01502D01*
X00221Y01483D02*
X0026D01*
X00241Y01463D02*
Y01502D01*
X02664Y0176D02*
X02696D01*
X0268Y01744D02*
Y01776D01*
X02664Y0157D02*
X02696D01*
X0268Y01554D02*
Y01586D01*
X02203Y02203D02*
X02242D01*
X02223Y02183D02*
Y02222D01*
X02103Y02203D02*
X02142D01*
X02123Y02183D02*
Y02222D01*
X02003Y02203D02*
X02042D01*
X02023Y02183D02*
Y02222D01*
X01903Y02203D02*
X01942D01*
X01923Y02183D02*
Y02222D01*
X01803Y02203D02*
X01842D01*
X01823Y02183D02*
Y02222D01*
X01703Y02203D02*
X01742D01*
X01723Y02183D02*
Y02222D01*
X00311Y00515D02*
X00402D01*
X00357Y0047D02*
Y0056D01*
X00311Y01032D02*
X00402D01*
X00357Y00987D02*
Y01077D01*
X00444Y00636D02*
X00482D01*
X00463Y00617D02*
Y00654D01*
X00444Y00734D02*
X00482D01*
X00463Y00715D02*
Y00753D01*
X00444Y00813D02*
X00482D01*
X00463Y00794D02*
Y00832D01*
X00444Y00911D02*
X00482D01*
X00463Y00893D02*
Y0093D01*
X02543Y03561D02*
X02582D01*
X02563Y03541D02*
Y0358D01*
X02643Y03561D02*
X02682D01*
X02663Y03541D02*
Y0358D01*
X02743Y03561D02*
X02782D01*
X02763Y03541D02*
Y0358D01*
X02843Y03561D02*
X02882D01*
X02863Y03541D02*
Y0358D01*
X02943Y03561D02*
X02982D01*
X02963Y03541D02*
Y0358D01*
X03043Y03561D02*
X03082D01*
X03063Y03541D02*
Y0358D01*
X01813Y03561D02*
X01852D01*
X01833Y03541D02*
Y0358D01*
X01913Y03561D02*
X01952D01*
X01933Y03541D02*
Y0358D01*
X02013Y03561D02*
X02052D01*
X02033Y03541D02*
Y0358D01*
X02113Y03561D02*
X02152D01*
X02133Y03541D02*
Y0358D01*
X02213Y03561D02*
X02252D01*
X02233Y03541D02*
Y0358D01*
X02313Y03561D02*
X02352D01*
X02333Y03541D02*
Y0358D01*
X01098Y03561D02*
X01137D01*
X01118Y03541D02*
Y0358D01*
X01198Y03561D02*
X01237D01*
X01218Y03541D02*
Y0358D01*
X01298Y03561D02*
X01337D01*
X01318Y03541D02*
Y0358D01*
X01398Y03561D02*
X01437D01*
X01418Y03541D02*
Y0358D01*
X01498Y03561D02*
X01537D01*
X01518Y03541D02*
Y0358D01*
X01598Y03561D02*
X01637D01*
X01618Y03541D02*
Y0358D01*
X0121Y00865D02*
X01249D01*
X0123Y00845D02*
Y00884D01*
X0131Y00865D02*
X01349D01*
X0133Y00845D02*
Y00884D01*
X0141Y00865D02*
X01449D01*
X0143Y00845D02*
Y00884D01*
X0151Y00865D02*
X01549D01*
X0153Y00845D02*
Y00884D01*
X0161Y00865D02*
X01649D01*
X0163Y00845D02*
Y00884D01*
X0171Y00865D02*
X01749D01*
X0173Y00845D02*
Y00884D01*
X01268Y03637D02*
X0128D01*
X01274Y03631D02*
Y03643D01*
X0051Y03637D02*
X00522D01*
X00516Y03631D02*
Y03643D01*
X01626Y02223D02*
X01638D01*
X01632Y02217D02*
Y02229D01*
X004Y0191D02*
X00412D01*
X00406Y01904D02*
Y01916D01*
X00083Y01919D02*
X00095D01*
X00089Y01913D02*
Y01925D01*
X00061Y0202D02*
X00073D01*
X00067Y02014D02*
Y02026D01*
X01116Y00963D02*
X01128D01*
X01122Y00957D02*
Y00969D01*
X02175Y01116D02*
X02187D01*
X02181Y0111D02*
Y01122D01*
X02119Y01116D02*
X02131D01*
X02125Y0111D02*
Y01122D01*
X01306Y0058D02*
X01318D01*
X01312Y00574D02*
Y00586D01*
X01864Y01116D02*
X01876D01*
X0187Y0111D02*
Y01122D01*
X01188Y02185D02*
X012D01*
X01194Y02179D02*
Y02191D01*
X01179Y0174D02*
X01191D01*
X01185Y01734D02*
Y01746D01*
X01226Y01703D02*
X01238D01*
X01232Y01697D02*
Y01709D01*
X01544Y0183D02*
X01556D01*
X0155Y01824D02*
Y01836D01*
X02434Y02541D02*
X02446D01*
X0244Y02535D02*
Y02547D01*
X02659Y02541D02*
X02671D01*
X02665Y02535D02*
Y02547D01*
X02584Y02541D02*
X02596D01*
X0259Y02535D02*
Y02547D01*
X02509Y02541D02*
X02521D01*
X02515Y02535D02*
Y02547D01*
X02671Y0298D02*
X02683D01*
X02677Y02974D02*
Y02986D01*
X02596Y0298D02*
X02608D01*
X02602Y02974D02*
Y02986D01*
X02521Y0298D02*
X02533D01*
X02527Y02974D02*
Y02986D01*
X02446Y0298D02*
X02458D01*
X02452Y02974D02*
Y02986D01*
X02815Y03043D02*
X02827D01*
X02821Y03037D02*
Y03049D01*
X02228Y02988D02*
X0224D01*
X02234Y02982D02*
Y02994D01*
X01363Y02986D02*
X01375D01*
X01369Y0298D02*
Y02992D01*
X0144Y00583D02*
X01452D01*
X01446Y00577D02*
Y00589D01*
X02134Y00496D02*
X02146D01*
X0214Y0049D02*
Y00502D01*
X0324Y02159D02*
X03252D01*
X03246Y02153D02*
Y02165D01*
X02868Y02351D02*
X0288D01*
X02874Y02345D02*
Y02357D01*
X0046Y00358D02*
X00472D01*
X00466Y00353D02*
Y00365D01*
X01709Y0058D02*
X01721D01*
X01715Y00574D02*
Y00586D01*
X0124Y00578D02*
X01252D01*
X01246Y00572D02*
Y00584D01*
X03028Y02213D02*
X0304D01*
X03034Y02207D02*
Y02219D01*
X01858Y02491D02*
X01886D01*
X01872Y02477D02*
Y02505D01*
X02237Y0249D02*
X02249D01*
X02243Y02484D02*
Y02496D01*
X02319Y02061D02*
X02331D01*
X02325Y02055D02*
Y02067D01*
X02264Y02064D02*
X02276D01*
X0227Y02058D02*
Y0207D01*
X02734Y02176D02*
X02746D01*
X0274Y0217D02*
Y02182D01*
X02732Y02022D02*
X02744D01*
X02738Y02016D02*
Y02028D01*
X02713Y0239D02*
X02725D01*
X02719Y02384D02*
Y02396D01*
X02685Y02351D02*
X02697D01*
X02691Y02345D02*
Y02357D01*
X01919Y01116D02*
X01931D01*
X01925Y0111D02*
Y01122D01*
X01554Y0114D02*
X01566D01*
X0156Y01134D02*
Y01146D01*
X01814Y0104D02*
X01826D01*
X0182Y01034D02*
Y01046D01*
X01079Y02135D02*
X01091D01*
X01085Y02129D02*
Y02141D01*
X00719Y025D02*
X00731D01*
X00725Y02494D02*
Y02506D01*
X00698Y027D02*
X0071D01*
X00704Y02694D02*
Y02706D01*
X0193Y0379D02*
X01942D01*
X01936Y03784D02*
Y03796D01*
X00704Y02937D02*
X00716D01*
X0071Y02931D02*
Y02943D01*
X02507Y01212D02*
X02519D01*
X02513Y01206D02*
Y01218D01*
X01369Y02937D02*
X01381D01*
X01375Y02931D02*
Y02943D01*
X02507Y01267D02*
X02519D01*
X02513Y01261D02*
Y01273D01*
X02761Y03789D02*
X02773D01*
X02767Y03783D02*
Y03795D01*
X02524Y01875D02*
X02536D01*
X0253Y01869D02*
Y01881D01*
X02651Y0379D02*
X02663D01*
X02657Y03784D02*
Y03796D01*
X02524Y0193D02*
X02536D01*
X0253Y01924D02*
Y01936D01*
X01744Y024D02*
X01756D01*
X0175Y02394D02*
Y02406D01*
X0236Y02422D02*
X02372D01*
X02366Y02416D02*
Y02428D01*
X01636Y024D02*
X01664D01*
X0165Y02386D02*
Y02414D01*
X0204Y03789D02*
X02052D01*
X02046Y03783D02*
Y03795D01*
X02061Y01285D02*
X02073D01*
X02067Y01279D02*
Y01291D01*
X02708Y03637D02*
X0272D01*
X02714Y03631D02*
Y03643D01*
X01986Y03637D02*
X01998D01*
X01992Y03631D02*
Y03643D01*
X00159Y0249D02*
X00187D01*
X00173Y02476D02*
Y02504D01*
X03131Y02347D02*
X03159D01*
X03145Y02333D02*
Y02361D01*
X03033Y02655D02*
X03061D01*
X03047Y02641D02*
Y02669D01*
X01834Y02695D02*
X01862D01*
X01848Y02681D02*
Y02709D01*
X0173Y02694D02*
X01758D01*
X01744Y0268D02*
Y02708D01*
X0328Y03387D02*
X03308D01*
X03294Y03373D02*
Y03401D01*
X0328Y03193D02*
X03308D01*
X03294Y03179D02*
Y03207D01*
X00411Y03193D02*
X00439D01*
X00425Y03179D02*
Y03207D01*
X00411Y03387D02*
X00439D01*
X00425Y03373D02*
Y03401D01*
X02561Y03195D02*
X02589D01*
X02575Y03181D02*
Y03209D01*
X02561Y03387D02*
X02589D01*
X02575Y03373D02*
Y03401D01*
X01846Y03193D02*
X01874D01*
X0186Y03179D02*
Y03207D01*
X01851Y03387D02*
X01879D01*
X01865Y03373D02*
Y03401D01*
X01131Y03195D02*
X01159D01*
X01145Y03181D02*
Y03209D01*
X01126Y03387D02*
X01154D01*
X0114Y03373D02*
Y03401D01*
X00552Y02574D02*
X00564D01*
X00558Y02568D02*
Y0258D01*
X02072Y0252D02*
X02084D01*
X02078Y02514D02*
Y02526D01*
X02072Y02574D02*
X02084D01*
X02078Y02568D02*
Y0258D01*
X02072Y02684D02*
X02084D01*
X02078Y02678D02*
Y0269D01*
X0207Y02628D02*
X02082D01*
X02076Y02622D02*
Y02634D01*
X0207Y02881D02*
X02082D01*
X02076Y02875D02*
Y02888D01*
X0207Y02937D02*
X02082D01*
X02076Y02931D02*
Y02943D01*
X02072Y02992D02*
X02084D01*
X02078Y02986D02*
Y02998D01*
X01519Y02882D02*
X01531D01*
X01525Y02876D02*
Y02888D01*
X01519Y02937D02*
X01531D01*
X01525Y02931D02*
Y02943D01*
X0152Y02992D02*
X01532D01*
X01526Y02986D02*
Y02998D01*
X00551Y02937D02*
X00563D01*
X00557Y02931D02*
Y02943D01*
X00551Y02992D02*
X00563D01*
X00557Y02986D02*
Y02998D01*
X02507Y01439D02*
X02519D01*
X02513Y01433D02*
Y01445D01*
X02507Y01494D02*
X02519D01*
X02513Y01488D02*
Y015D01*
X01877Y02063D02*
X01889D01*
X01883Y02057D02*
Y02069D01*
X01822Y02063D02*
X01834D01*
X01828Y02057D02*
Y02069D01*
X01989Y02063D02*
X02001D01*
X01995Y02057D02*
Y02069D01*
X01934Y02063D02*
X01946D01*
X0194Y02057D02*
Y02069D01*
X01544Y0161D02*
X01556D01*
X0155Y01604D02*
Y01616D01*
X01714Y02065D02*
X01726D01*
X0172Y02059D02*
Y02071D01*
X01484Y0155D02*
X01496D01*
X0149Y01544D02*
Y01556D01*
X02339Y0172D02*
X02351D01*
X02345Y01714D02*
Y01726D01*
X026Y01847D02*
X02612D01*
X02606Y01841D02*
Y01853D01*
X02764Y0187D02*
X02776D01*
X0277Y01864D02*
Y01876D01*
X02761Y01443D02*
X02773D01*
X02767Y01437D02*
Y01449D01*
X02577Y01443D02*
X02589D01*
X02583Y01437D02*
Y01449D01*
X02184Y01675D02*
X02196D01*
X0219Y01669D02*
Y01681D01*
X02184Y01625D02*
X02196D01*
X0219Y01619D02*
Y01631D01*
X02339Y01615D02*
X02351D01*
X02345Y01609D02*
Y01621D01*
X01544Y0132D02*
X01556D01*
X0155Y01314D02*
Y01326D01*
X01544Y01375D02*
X01556D01*
X0155Y01369D02*
Y01381D01*
X00563Y03789D02*
X00575D01*
X00569Y03783D02*
Y03795D01*
X00453Y0379D02*
X00465D01*
X00459Y03784D02*
Y03796D01*
X0152Y02575D02*
X01532D01*
X01526Y02569D02*
Y02581D01*
X01519Y0252D02*
X01531D01*
X01525Y02514D02*
Y02526D01*
X0152Y02684D02*
X01532D01*
X01526Y02677D02*
Y0269D01*
X02069Y01035D02*
X02081D01*
X02075Y01029D02*
Y01041D01*
X02124Y01035D02*
X02136D01*
X0213Y01029D02*
Y01041D01*
X02054Y0077D02*
X02066D01*
X0206Y00764D02*
Y00776D01*
X02044Y00535D02*
X02056D01*
X0205Y00529D02*
Y00541D01*
X00777Y02492D02*
X00789D01*
X00783Y02486D02*
Y02498D01*
X02284Y02492D02*
X02296D01*
X0229Y02486D02*
Y02498D01*
X02814Y02492D02*
X02826D01*
X0282Y02486D02*
Y02498D01*
X03005Y0252D02*
X03017D01*
X03011Y02514D02*
Y02526D01*
X03005Y02574D02*
X03017D01*
X03011Y02568D02*
Y0258D01*
X02999Y027D02*
X03011D01*
X03005Y02694D02*
Y02706D01*
X01309Y02505D02*
X01321D01*
X01315Y02499D02*
Y02511D01*
X00929Y02539D02*
X00941D01*
X00935Y02533D02*
Y02545D01*
X01004Y02539D02*
X01016D01*
X0101Y02533D02*
Y02545D01*
X01079Y02539D02*
X01091D01*
X01085Y02533D02*
Y02545D01*
X01154Y02539D02*
X01166D01*
X0116Y02533D02*
Y02545D01*
X00939Y0298D02*
X00951D01*
X00945Y02974D02*
Y02986D01*
X01014Y0298D02*
X01026D01*
X0102Y02974D02*
Y02986D01*
X01089Y0298D02*
X01101D01*
X01095Y02974D02*
Y02986D01*
X01164Y0298D02*
X01176D01*
X0117Y02974D02*
Y02986D01*
X00721Y02988D02*
X00733D01*
X00727Y02982D02*
Y02994D01*
X00963Y02182D02*
X00975D01*
X00969Y02176D02*
Y02188D01*
X01318Y03789D02*
X0133D01*
X01324Y03783D02*
Y03795D01*
X01208Y0379D02*
X0122D01*
X01214Y03784D02*
Y03796D01*
X01809Y01116D02*
X01821D01*
X01815Y0111D02*
Y01122D01*
X01754Y01116D02*
X01766D01*
X0176Y0111D02*
Y01122D01*
X01699Y01116D02*
X01711D01*
X01705Y0111D02*
Y01122D01*
X01643Y01114D02*
X01655D01*
X01649Y01108D02*
Y0112D01*
X02223Y02937D02*
X02235D01*
X02229Y02931D02*
Y02943D01*
X02864Y02937D02*
X02876D01*
X0287Y02931D02*
Y02943D01*
X03005Y02992D02*
X03017D01*
X03011Y02986D02*
Y02998D01*
X03007Y02937D02*
X03019D01*
X03013Y02931D02*
Y02943D01*
X03007Y02881D02*
X03019D01*
X03013Y02875D02*
Y02888D01*
X00659Y0165D02*
X00671D01*
X00665Y01644D02*
Y01656D01*
X00661Y01598D02*
X00673D01*
X00667Y01592D02*
Y01604D01*
X0122Y00329D02*
X01231D01*
X01225Y00323D02*
Y00335D01*
X01274Y00329D02*
X01286D01*
X01279Y00323D02*
Y00335D01*
X00577Y00435D02*
X00589D01*
X00583Y00429D02*
Y00441D01*
X00578Y0049D02*
X0059D01*
X00584Y00484D02*
Y00496D01*
X00578Y00599D02*
X0059D01*
X00584Y00593D02*
Y00605D01*
X00733Y00497D02*
X00745D01*
X00739Y00491D02*
Y00503D01*
X00797Y02241D02*
X00825D01*
X00811Y02227D02*
Y02255D01*
X00766Y02104D02*
X00794D01*
X0078Y0209D02*
Y02118D01*
X01084Y0125D02*
X01112D01*
X01098Y01236D02*
Y01264D01*
X00988Y00865D02*
X01016D01*
X01002Y00851D02*
Y00879D01*
X00717Y00862D02*
X00745D01*
X00731Y00848D02*
Y00876D01*
X01507Y00731D02*
X01519D01*
X01513Y00725D02*
Y00737D01*
X01374Y0073D02*
X01386D01*
X0138Y00724D02*
Y00736D01*
X01306Y0073D02*
X01318D01*
X01312Y00724D02*
Y00736D01*
X01832Y0074D02*
X01844D01*
X01838Y00734D02*
Y00746D01*
X01801Y007D02*
X01813D01*
X01807Y00694D02*
Y00706D01*
X01908Y0077D02*
X0192D01*
X01914Y00764D02*
Y00776D01*
X01972Y00937D02*
X01984D01*
X01978Y00931D02*
Y00943D01*
X0223Y01116D02*
X02242D01*
X02236Y0111D02*
Y01122D01*
X02286Y01114D02*
X02298D01*
X02292Y01108D02*
Y0112D01*
X03754Y0306D02*
X03766D01*
X0376Y03054D02*
Y03066D01*
X03844Y0206D02*
X03856D01*
X0385Y02054D02*
Y02066D01*
X03874Y01999D02*
X03886D01*
X0388Y01993D02*
Y02005D01*
X03724Y0206D02*
X03736D01*
X0373Y02054D02*
Y02066D01*
X03784Y0206D02*
X03796D01*
X0379Y02054D02*
Y02066D01*
X03724Y03004D02*
X03736D01*
X0373Y02998D02*
Y0301D01*
X03844Y03D02*
X03856D01*
X0385Y02994D02*
Y03006D01*
X02554Y01383D02*
X02566D01*
X0256Y01377D02*
Y01389D01*
X03731Y01989D02*
X03743D01*
X03737Y01983D02*
Y01995D01*
X02827Y0237D02*
X02839D01*
X02833Y02364D02*
Y02376D01*
X01709Y0073D02*
X01721D01*
X01715Y00724D02*
Y00736D01*
X01059Y0174D02*
X01071D01*
X01065Y01734D02*
Y01746D01*
X01994Y0143D02*
X02006D01*
X02Y01424D02*
Y01436D01*
X02029Y01735D02*
X02041D01*
X02035Y01729D02*
Y01741D01*
X01883Y01589D02*
X01895D01*
X01889Y01583D02*
Y01595D01*
X00731Y00394D02*
X00743D01*
X00737Y00388D02*
Y004D01*
X0085Y00573D02*
X00862D01*
X00856Y00567D02*
Y00579D01*
X01136Y00471D02*
X01148D01*
X01142Y00465D02*
Y00477D01*
X0068Y00375D02*
X00692D01*
X00686Y00369D02*
Y00381D01*
X00184Y02289D02*
X00196D01*
X0019Y02283D02*
Y02295D01*
X00558Y017D02*
X00586D01*
X00572Y01686D02*
Y01714D01*
X0049Y02338D02*
X00518D01*
X00504Y02324D02*
Y02352D01*
X00552Y02882D02*
X00564D01*
X00558Y02876D02*
Y02888D01*
X01202Y02431D02*
X01214D01*
X01208Y02425D02*
Y02437D01*
X02213Y02658D02*
X02225D01*
X02219Y02652D02*
Y02664D01*
X00378Y02663D02*
X00406D01*
X00392Y02649D02*
Y02677D01*
X00467Y0273D02*
X00479D01*
X00473Y02724D02*
Y02736D01*
X00632Y02473D02*
X00644D01*
X00638Y02467D02*
Y02479D01*
M02*