%FSTAX23Y23*%
%MOIN*%
%SFA1B1*%

%IPPOS*%
%AMD45*
4,1,8,0.065800,0.027300,0.027300,0.065800,-0.027300,0.065800,-0.065800,0.027300,-0.065800,-0.027300,-0.027300,-0.065800,0.027300,-0.065800,0.065800,-0.027300,0.065800,0.027300,0.0*
%
%ADD33C,0.010000*%
%ADD34C,0.040000*%
%ADD36R,0.065000X0.065000*%
%ADD37C,0.065000*%
%ADD38C,0.196850*%
%ADD39R,0.065000X0.065000*%
%ADD40C,0.072830*%
%ADD41R,0.072830X0.072830*%
%ADD42O,0.170000X0.080000*%
%ADD43O,0.080000X0.170000*%
%ADD44C,0.048000*%
G04~CAMADD=45~4~0.0~0.0~1315.1~1315.1~0.0~385.2~0~0.0~0.0~0.0~0.0~0~0.0~0.0~0.0~0.0~0~0.0~0.0~0.0~315.0~1315.1~1315.1*
%ADD45D45*%
%ADD46O,0.112200X0.056100*%
%ADD47C,0.028000*%
%ADD48C,0.050000*%
%LNcontrolboard-1*%
%LPD*%
G36*
X03937Y0012D02*
X0D01*
Y04057*
X03937*
Y0012*
G37*
%LNcontrolboard-2*%
%LPC*%
G36*
X0256Y01407D02*
X0255Y01406D01*
X02542Y014*
X02541Y01398*
X0252*
X02514Y01397*
X02509Y01394*
X02415Y013*
X02085*
X02084Y01302*
X02076Y01307*
X02067Y01309*
X02057Y01307*
X02049Y01302*
X02044Y01294*
X02042Y01285*
X02044Y01275*
X02049Y01267*
X02057Y01262*
X02067Y0126*
X02076Y01262*
X02084Y01267*
X02085Y01269*
X02122*
X02124Y01264*
X0196Y011*
X0184*
X01837Y01105*
X01838Y01106*
X01839Y01116*
X01838Y01125*
X01832Y01133*
X01824Y01138*
X01815Y0114*
X01806Y01138*
X01798Y01133*
X01792Y01125*
X0179Y01116*
X01792Y01106*
X01798Y01098*
X01803Y01094*
X01805Y01087*
X01783Y01066*
X016*
X01575Y01091*
Y01121*
X01577Y01122*
X01582Y0113*
X01584Y0114*
X01582Y01149*
X01577Y01157*
X01569Y01162*
X0156Y01164*
X0155Y01162*
X01542Y01157*
X01537Y01149*
X01535Y0114*
X01537Y0113*
X01542Y01122*
X01544Y01121*
Y01085*
X01545Y01079*
X01549Y01074*
X01583Y0104*
X01588Y01036*
X01594Y01035*
X01791*
X01796Y01036*
X01797Y0103*
X01802Y01022*
X0181Y01017*
X0182Y01015*
X01829Y01017*
X01837Y01022*
X01842Y0103*
X01844Y0104*
X01844Y01042*
X01851Y01049*
X01964*
X01966Y01044*
X01796Y00874*
X01793Y00869*
X01792Y00863*
Y00718*
X0179Y00717*
X01784Y00709*
X01783Y007*
X01784Y0069*
X0179Y00682*
X01798Y00677*
X01807Y00675*
X01816Y00677*
X01824Y00682*
X0183Y0069*
X01831Y007*
X0183Y00709*
X01828Y00711*
X01832Y00716*
X01838Y00715*
X01847Y00717*
X01855Y00722*
X0186Y0073*
X01862Y0074*
X0186Y00749*
X01855Y00757*
X01853Y00758*
Y00856*
X02051Y01054*
X02052Y01054*
X02054Y01047*
X02052Y01044*
X0205Y01035*
X02052Y01025*
X02057Y01017*
X02065Y01012*
X02075Y0101*
X02084Y01012*
X02092Y01017*
X02097Y01025*
X02099Y01035*
X02097Y01044*
X02092Y01052*
X02091Y01052*
X02093Y01058*
X02139*
X02145Y01059*
X0215Y01063*
X02179Y01092*
X02181Y01091*
X02191Y01093*
X02199Y01098*
X02204Y01106*
X02206Y01116*
X02204Y01125*
X02199Y01133*
X02191Y01138*
X02181Y0114*
X02172Y01138*
X02164Y01133*
X02159Y01125*
X02157Y01116*
X02155Y01114*
X02153Y01115*
X02149Y01117*
X02147Y01125*
X02142Y01133*
X02134Y01138*
X02125Y0114*
X02115Y01138*
X02107Y01133*
X02106Y01131*
X02076*
X02074Y01136*
X02135Y01197*
X02494*
X02495Y01195*
X02503Y0119*
X02513Y01188*
X02522Y0119*
X0253Y01195*
X02535Y01203*
X02537Y01212*
X02535Y01222*
X0253Y0123*
X02522Y01235*
X02513Y01237*
X02503Y01235*
X02495Y0123*
X02494Y01227*
X02139*
X02137Y01233*
X02153Y01249*
X02496*
X02503Y01245*
X02513Y01243*
X02522Y01245*
X0253Y0125*
X02535Y01258*
X02537Y01267*
X02535Y01277*
X0253Y01285*
X02522Y0129*
X02513Y01292*
X02503Y0129*
X02495Y01285*
X02492Y0128*
X02446*
X02444Y01285*
X02526Y01368*
X02541*
X02542Y01366*
X0255Y0136*
X0256Y01359*
X02569Y0136*
X02577Y01366*
X02582Y01374*
X02584Y01383*
X02582Y01392*
X02577Y014*
X02569Y01406*
X0256Y01407*
G37*
G36*
X00486Y01578D02*
X00472Y01576D01*
X0046Y01571*
X0045Y01563*
X00442Y01553*
X00437Y01541*
X00435Y01528*
Y01438*
X00437Y01424*
X00442Y01412*
X0045Y01402*
X0046Y01394*
X00472Y01389*
X00486Y01387*
X00499Y01389*
X00511Y01394*
X00521Y01402*
X00529Y01412*
X00534Y01424*
X00536Y01438*
Y01528*
X00534Y01541*
X00529Y01553*
X00521Y01563*
X00511Y01571*
X00499Y01576*
X00486Y01578*
G37*
G36*
X00406Y01338D02*
X00376D01*
Y01303*
X00453*
X00449Y01313*
X00441Y01323*
X00431Y01331*
X00419Y01336*
X00406Y01338*
G37*
G36*
X0155Y01399D02*
X01541Y01398D01*
X01533Y01392*
X01527Y01384*
X01526Y01375*
X01527Y01366*
X01533Y01358*
X01541Y01352*
X0155Y0135*
X01559Y01352*
X01567Y01358*
X01573Y01366*
X01574Y01375*
X01573Y01384*
X01567Y01392*
X01559Y01398*
X0155Y01399*
G37*
G36*
X00226Y01468D02*
X0019D01*
Y01438*
X00192Y01424*
X00197Y01412*
X00205Y01402*
X00215Y01394*
X00226Y0139*
Y01468*
G37*
G36*
X00256Y01575D02*
Y01498D01*
X00291*
Y01528*
X00289Y01541*
X00284Y01553*
X00276Y01563*
X00266Y01571*
X00256Y01575*
G37*
G36*
X0268Y01604D02*
X02671Y01603D01*
X02662Y01599*
X02655Y01594*
X0265Y01587*
X02646Y01578*
X02645Y0157*
X02646Y01561*
X0265Y01552*
X02655Y01545*
X02662Y0154*
X02671Y01536*
X0268Y01535*
X02688Y01536*
X02697Y0154*
X02704Y01545*
X02709Y01552*
X02713Y01561*
X02714Y0157*
X02713Y01578*
X02709Y01587*
X02704Y01594*
X02697Y01599*
X02688Y01603*
X0268Y01604*
G37*
G36*
X00291Y01468D02*
X00256D01*
Y0139*
X00266Y01394*
X00276Y01402*
X00284Y01412*
X00289Y01424*
X00291Y01438*
Y01468*
G37*
G36*
X00226Y01575D02*
X00215Y01571D01*
X00205Y01563*
X00197Y01553*
X00192Y01541*
X0019Y01528*
Y01498*
X00226*
Y01575*
G37*
G36*
X00346Y01338D02*
X00316D01*
X00302Y01336*
X0029Y01331*
X0028Y01323*
X00272Y01313*
X00268Y01303*
X00346*
Y01338*
G37*
G36*
X03246Y02183D02*
X03236Y02181D01*
X03228Y02176*
X03223Y02168*
X03221Y02159*
X03223Y02149*
X03228Y02141*
X0323Y0214*
Y02067*
X03231Y02061*
X03235Y02056*
X03442Y01848*
Y01042*
X03436Y0104*
X03427Y01033*
X0342Y01024*
X03416Y01014*
X03415Y01003*
X03416Y00991*
X0342Y00981*
X03427Y00972*
X03436Y00965*
X03446Y00961*
X03458Y0096*
X03469Y00961*
X03479Y00965*
X03488Y00972*
X03495Y00981*
X03499Y00991*
X035Y01003*
X03499Y01014*
X03495Y01024*
X03488Y01033*
X03479Y0104*
X03473Y01042*
Y01855*
X03472Y0186*
X03468Y01865*
X03261Y02073*
Y0214*
X03263Y02141*
X03268Y02149*
X0327Y02159*
X03268Y02168*
X03263Y02176*
X03255Y02181*
X03246Y02183*
G37*
G36*
X01649Y01138D02*
X01639Y01137D01*
X01632Y01131*
X01626Y01123*
X01624Y01114*
X01626Y01105*
X01632Y01097*
X01639Y01091*
X01649Y0109*
X01658Y01091*
X01666Y01097*
X01671Y01105*
X01673Y01114*
X01671Y01123*
X01666Y01131*
X01658Y01137*
X01649Y01138*
G37*
G36*
X00389Y01108D02*
X00324D01*
X0032Y01107*
X00316Y01105*
X00284Y01072*
X00281Y01069*
X00281Y01065*
Y00999*
X00281Y00995*
X00284Y00992*
X00316Y00959*
X0032Y00957*
X00324Y00956*
X00389*
X00393Y00957*
X00397Y00959*
X00429Y00992*
X00429*
X00432Y00995*
X00432Y00999*
Y01065*
X00432Y01069*
X00429Y01072*
X00397Y01105*
X00393Y01107*
X00389Y01108*
G37*
G36*
X03358Y01045D02*
X03346Y01044D01*
X03336Y0104*
X03327Y01033*
X0332Y01024*
X03316Y01014*
X03315Y01003*
X03316Y00991*
X0332Y00981*
X03327Y00972*
X03336Y00965*
X03346Y00961*
X03358Y0096*
X03369Y00961*
X03379Y00965*
X03388Y00972*
X03395Y00981*
X03399Y00991*
X034Y01003*
X03399Y01014*
X03395Y01024*
X03388Y01033*
X03379Y0104*
X03369Y01044*
X03358Y01045*
G37*
G36*
X01705Y0114D02*
X01696Y01138D01*
X01688Y01133*
X01682Y01125*
X0168Y01116*
X01682Y01106*
X01688Y01098*
X01696Y01093*
X01705Y01091*
X01714Y01093*
X01722Y01098*
X01728Y01106*
X01729Y01116*
X01728Y01125*
X01722Y01133*
X01714Y01138*
X01705Y0114*
G37*
G36*
X00453Y01273D02*
X00376D01*
Y01237*
X00406*
X00419Y01239*
X00431Y01244*
X00441Y01252*
X00449Y01262*
X00453Y01273*
G37*
G36*
X0155Y01344D02*
X01541Y01343D01*
X01533Y01337*
X01527Y01329*
X01526Y0132*
X01527Y01311*
X01533Y01303*
X01541Y01297*
X0155Y01295*
X01559Y01297*
X01567Y01303*
X01573Y01311*
X01574Y0132*
X01573Y01329*
X01567Y01337*
X01559Y01343*
X0155Y01344*
G37*
G36*
X0176Y0114D02*
X01751Y01138D01*
X01743Y01133*
X01737Y01125*
X01735Y01116*
X01737Y01106*
X01743Y01098*
X01751Y01093*
X0176Y01091*
X01769Y01093*
X01777Y01098*
X01783Y01106*
X01784Y01116*
X01783Y01125*
X01777Y01133*
X01769Y01138*
X0176Y0114*
G37*
G36*
X00346Y01273D02*
X00268D01*
X00272Y01262*
X0028Y01252*
X0029Y01244*
X00302Y01239*
X00316Y01237*
X00346*
Y01273*
G37*
G36*
X01883Y02087D02*
X01874Y02086D01*
X01866Y0208*
X0186Y02072*
X01858Y02063*
X0186Y02054*
X01866Y02046*
X01874Y0204*
X01883Y02039*
X01892Y0204*
X019Y02046*
X01906Y02054*
X01907Y02063*
X01906Y02072*
X019Y0208*
X01892Y02086*
X01883Y02087*
G37*
G36*
X01194Y02209D02*
X01185Y02207D01*
X01177Y02202*
X01171Y02194*
X0117Y02185*
X01171Y02175*
X01177Y02167*
X01185Y02162*
X01194Y0216*
X01203Y02162*
X01205Y02163*
X01314Y02054*
X01319Y0205*
X01325Y02049*
X01701*
X01702Y02047*
X0171Y02042*
X0172Y0204*
X01729Y02042*
X01737Y02047*
X01742Y02055*
X01744Y02065*
X01742Y02074*
X01737Y02082*
X01729Y02087*
X0172Y02089*
X0171Y02087*
X01702Y02082*
X01701Y0208*
X01331*
X01216Y02195*
X01216Y02196*
X01211Y02202*
X01203Y02207*
X01194Y02209*
G37*
G36*
X0385Y03024D02*
X0384Y03022D01*
X03832Y03017*
X03827Y03009*
X03825Y03*
X03827Y0299*
X03832Y02982*
X03834Y02981*
Y02078*
X03832Y02077*
X03827Y02069*
X03825Y0206*
X03827Y0205*
X03832Y02042*
X0384Y02037*
X0385Y02035*
X03859Y02037*
X03867Y02042*
X03872Y0205*
X03874Y0206*
X03872Y02069*
X03867Y02077*
X03865Y02078*
Y02981*
X03867Y02982*
X03872Y0299*
X03874Y03*
X03872Y03009*
X03867Y03017*
X03859Y03022*
X0385Y03024*
G37*
G36*
X01828Y02087D02*
X01819Y02086D01*
X01811Y0208*
X01805Y02072*
X01803Y02063*
X01805Y02054*
X01811Y02046*
X01819Y0204*
X01828Y02039*
X01837Y0204*
X01845Y02046*
X01851Y02054*
X01852Y02063*
X01851Y02072*
X01845Y0208*
X01837Y02086*
X01828Y02087*
G37*
G36*
X02243Y02514D02*
X02233Y02512D01*
X02225Y02507*
X0222Y02499*
X02218Y0249*
X0222Y0248*
X02225Y02472*
X02233Y02467*
X02243Y02465*
X02245Y02466*
X02317Y02393*
Y02133*
X02272Y02088*
X0227Y02088*
X0226Y02086*
X02252Y02081*
X02247Y02073*
X02245Y02064*
X02247Y02054*
X02252Y02046*
X0226Y02041*
X0227Y02039*
X02279Y02041*
X02287Y02046*
X02292Y02054*
X02294Y02062*
X02294Y02062*
X02296Y02062*
X023Y02059*
X02302Y02051*
X02307Y02043*
X02315Y02038*
X02325Y02036*
X02334Y02038*
X02342Y02043*
X02347Y02051*
X02349Y02061*
X02349Y02063*
X02376Y02091*
X0238Y02096*
X02381Y02102*
Y02403*
X02383Y02404*
X02388Y02412*
X0239Y02422*
X02388Y02431*
X02383Y02439*
X02375Y02444*
X02366Y02446*
X02356Y02444*
X02348Y02439*
X02343Y02431*
X02341Y02422*
X02341Y02421*
X02336Y02418*
X02267Y02487*
X02267Y0249*
X02265Y02499*
X0226Y02507*
X02252Y02512*
X02243Y02514*
G37*
G36*
X03358Y02217D02*
X03346Y02216D01*
X03336Y02212*
X03327Y02205*
X0332Y02196*
X03316Y02186*
X03315Y02175*
X03316Y02163*
X0332Y02153*
X03327Y02144*
X03336Y02137*
X03346Y02133*
X03358Y02132*
X03369Y02133*
X03379Y02137*
X03388Y02144*
X03395Y02153*
X03399Y02163*
X034Y02175*
X03399Y02186*
X03395Y02196*
X03388Y02205*
X03379Y02212*
X03369Y02216*
X03358Y02217*
G37*
G36*
X03458D02*
X03446Y02216D01*
X03436Y02212*
X03427Y02205*
X0342Y02196*
X03416Y02186*
X03415Y02175*
X03416Y02163*
X0342Y02153*
X03427Y02144*
X03436Y02137*
X03446Y02133*
X03458Y02132*
X03469Y02133*
X03479Y02137*
X03488Y02144*
X03495Y02153*
X03499Y02163*
X035Y02175*
X03499Y02186*
X03495Y02196*
X03488Y02205*
X03479Y02212*
X03469Y02216*
X03458Y02217*
G37*
G36*
X03343Y02117D02*
X03325D01*
X03321Y02116*
X03318Y02114*
X03316Y02111*
X03315Y02107*
Y0209*
X03343*
Y02117*
G37*
G36*
X0339D02*
X03373D01*
Y0209*
X034*
Y02107*
X03399Y02111*
X03397Y02114*
X03394Y02116*
X0339Y02117*
G37*
G36*
X034Y0206D02*
X03373D01*
Y02032*
X0339*
X03394Y02033*
X03397Y02035*
X03399Y02038*
X034Y02042*
Y0206*
G37*
G36*
X0268Y01794D02*
X02671Y01793D01*
X02662Y01789*
X02655Y01784*
X0265Y01777*
X02646Y01768*
X02645Y0176*
X02646Y01751*
X0265Y01742*
X02655Y01735*
X02662Y0173*
X02671Y01726*
X0268Y01725*
X02688Y01726*
X02697Y0173*
X02704Y01735*
X02709Y01742*
X02713Y01751*
X02714Y0176*
X02713Y01768*
X02709Y01777*
X02704Y01784*
X02697Y01789*
X02688Y01793*
X0268Y01794*
G37*
G36*
X0155Y01854D02*
X01541Y01852D01*
X01533Y01847*
X01531Y01845*
X01358*
X01352Y01844*
X01347Y0184*
X01234Y01727*
X01232Y01728*
X01223Y01726*
X01215Y01721*
X01209Y01713*
X01208Y01703*
X01209Y01694*
X01215Y01686*
X01223Y01681*
X01232Y01679*
X01241Y01681*
X01249Y01686*
X01255Y01694*
X01256Y01703*
X01256Y01706*
X01365Y01814*
X01531*
X01533Y01812*
X01541Y01807*
X0155Y01805*
X01559Y01807*
X01567Y01812*
X01573Y0182*
X01574Y0183*
X01573Y01839*
X01567Y01847*
X01559Y01852*
X0155Y01854*
G37*
G36*
Y01634D02*
X01541Y01632D01*
X01533Y01627*
X01527Y01619*
X01526Y0161*
X01527Y016*
X01533Y01592*
X01541Y01587*
X0155Y01585*
X01559Y01587*
X01567Y01592*
X01573Y016*
X01574Y0161*
X01573Y01619*
X01567Y01627*
X01559Y01632*
X0155Y01634*
G37*
G36*
X01185Y01764D02*
X01175Y01762D01*
X01167Y01757*
X01162Y01749*
X0116Y0174*
X01162Y0173*
X01167Y01722*
X01175Y01717*
X01185Y01715*
X01194Y01717*
X01202Y01722*
X01207Y0173*
X01209Y0174*
X01207Y01749*
X01202Y01757*
X01194Y01762*
X01185Y01764*
G37*
G36*
X0253Y01899D02*
X0252Y01897D01*
X02512Y01892*
X02507Y01884*
X02505Y01875*
X02507Y01865*
X02512Y01857*
X0252Y01852*
X0253Y0185*
X02539Y01852*
X02547Y01857*
X02552Y01865*
X02554Y01875*
X02552Y01884*
X02547Y01892*
X02539Y01897*
X0253Y01899*
G37*
G36*
X03813Y03163D02*
X03079D01*
X03073Y03162*
X03068Y03158*
X0287Y02961*
X0287Y02961*
X0286Y02959*
X02852Y02954*
X02847Y02946*
X02845Y02937*
X02847Y02927*
X02852Y02919*
X0286Y02914*
X0287Y02912*
X02879Y02914*
X02887Y02919*
X02892Y02927*
X02894Y02937*
X02893Y02941*
X03085Y03132*
X03806*
X0389Y03048*
Y02031*
X03882Y02023*
X0388Y02023*
X0387Y02021*
X03862Y02016*
X03857Y02008*
X03855Y01999*
X03857Y01989*
X03862Y01981*
X0387Y01976*
X0388Y01974*
X03889Y01976*
X03897Y01981*
X03902Y01989*
X03904Y01999*
X03904Y02001*
X03916Y02014*
X0392Y02019*
X03921Y02025*
Y03055*
X0392Y0306*
X03916Y03065*
X03823Y03158*
X03818Y03162*
X03813Y03163*
G37*
G36*
X03343Y0206D02*
X03315D01*
Y02042*
X03316Y02038*
X03318Y02035*
X03321Y02033*
X03325Y02032*
X03343*
Y0206*
G37*
G36*
X0253Y01954D02*
X0252Y01952D01*
X02512Y01947*
X02507Y01939*
X02505Y0193*
X02507Y0192*
X02512Y01912*
X0252Y01907*
X0253Y01905*
X02539Y01907*
X02547Y01912*
X02552Y0192*
X02554Y0193*
X02552Y01939*
X02547Y01947*
X02539Y01952*
X0253Y01954*
G37*
G36*
X0274Y022D02*
X0273Y02198D01*
X02722Y02193*
X02717Y02185*
X02715Y02176*
X02717Y02166*
X02722Y02158*
X02724Y02157*
Y02041*
X0272Y02039*
X02715Y02031*
X02713Y02022*
X02715Y02012*
X0272Y02004*
X02728Y01999*
X02738Y01997*
X02747Y01999*
X02755Y02004*
X0276Y02012*
X02762Y02022*
X0276Y02031*
X02755Y02039*
X02755Y02039*
Y02157*
X02757Y02158*
X02762Y02166*
X02764Y02176*
X02762Y02185*
X02757Y02193*
X02749Y02198*
X0274Y022*
G37*
G36*
X02279Y00425D02*
X02255D01*
Y004*
X02261Y00402*
X0227Y00409*
X02277Y00418*
X02279Y00425*
G37*
G36*
X00389Y00591D02*
X00324D01*
X0032Y0059*
X00316Y00588*
X00284Y00555*
X00281Y00552*
X00281Y00548*
Y00482*
X00281Y00478*
X00284Y00475*
X00316Y00442*
X0032Y0044*
X00324Y00439*
X00389*
X00393Y0044*
X00397Y00442*
X00429Y00475*
X00429*
X00432Y00478*
X00432Y00482*
Y00548*
X00432Y00552*
X00429Y00555*
X00397Y00588*
X00393Y0059*
X00389Y00591*
G37*
G36*
X00686Y00399D02*
X00677Y00397D01*
X00669Y00392*
X00664Y00384*
X00662Y00375*
X00664Y00365*
X00669Y00357*
X00677Y00352*
X00686Y0035*
X00696Y00352*
X00704Y00357*
X00709Y00365*
X00711Y00375*
X00709Y00384*
X00704Y00392*
X00696Y00397*
X00686Y00399*
G37*
G36*
X02225Y00425D02*
X022D01*
X02202Y00418*
X02209Y00409*
X02218Y00402*
X02225Y004*
Y00425*
G37*
G36*
Y00479D02*
X02218Y00477D01*
X02209Y0047*
X02202Y00461*
X022Y00455*
X02225*
Y00479*
G37*
G36*
X01446Y00607D02*
X01437Y00606D01*
X01429Y006*
X01423Y00592*
X01421Y00583*
X01423Y00574*
X01429Y00566*
X01437Y0056*
X01446Y00558*
X01455Y0056*
X01463Y00566*
X01469Y00574*
X0147Y00583*
X01469Y00592*
X01463Y006*
X01455Y00606*
X01446Y00607*
G37*
G36*
X02292Y01138D02*
X02282Y01137D01*
X02274Y01131*
X02269Y01123*
X02267Y01114*
X02269Y01105*
X02274Y01097*
X02276Y01095*
Y01037*
X02146Y00906*
X02142Y00901*
X02141Y00896*
Y00684*
X02142Y00678*
X02146Y00673*
X0219Y00629*
X02195Y00625*
X022Y00624*
X02202Y00618*
X02209Y00609*
X02218Y00602*
X02228Y00598*
X0224Y00597*
X02251Y00598*
X02261Y00602*
X0227Y00609*
X02277Y00618*
X02281Y00628*
X02282Y0064*
X02281Y00651*
X02277Y00661*
X0227Y0067*
X02261Y00677*
X02251Y00681*
X0224Y00682*
X02228Y00681*
X02218Y00677*
X02209Y0067*
X02205Y00665*
X02197Y00664*
X02172Y0069*
Y00889*
X02303Y0102*
X02306Y01025*
X02307Y01031*
Y01095*
X02309Y01097*
X02314Y01105*
X02316Y01114*
X02314Y01123*
X02309Y01131*
X02301Y01137*
X02292Y01138*
G37*
G36*
X02255Y00479D02*
Y00455D01*
X02279*
X02277Y00461*
X0227Y0047*
X02261Y00477*
X02255Y00479*
G37*
G36*
X02236Y0114D02*
X02227Y01138D01*
X02219Y01133*
X02214Y01125*
X02212Y01116*
X02214Y01106*
X02219Y01098*
X02221Y01097*
Y0106*
X02108Y00946*
X02104Y00941*
X02103Y00936*
Y00661*
X02104Y00655*
X02108Y0065*
X02201Y00557*
X02198Y00551*
X02197Y0054*
X02198Y00528*
X02202Y00518*
X02209Y00509*
X02218Y00502*
X02228Y00498*
X0224Y00497*
X02251Y00498*
X02261Y00502*
X0227Y00509*
X02277Y00518*
X02281Y00528*
X02282Y0054*
X02281Y00551*
X02277Y00561*
X0227Y0057*
X02261Y00577*
X02251Y00581*
X0224Y00582*
X02228Y00581*
X02222Y00578*
X02134Y00667*
Y00929*
X02247Y01042*
X0225Y01047*
X02252Y01053*
Y01097*
X02254Y01098*
X02259Y01106*
X02261Y01116*
X02259Y01125*
X02254Y01133*
X02246Y01138*
X02236Y0114*
G37*
G36*
X0224Y00382D02*
X02228Y00381D01*
X02218Y00377*
X02209Y0037*
X02202Y00361*
X02198Y00351*
X02197Y0034*
X02198Y00328*
X02202Y00318*
X02209Y00309*
X02218Y00302*
X02228Y00298*
X0224Y00297*
X02251Y00298*
X02261Y00302*
X0227Y00309*
X02277Y00318*
X02281Y00328*
X02282Y0034*
X02281Y00351*
X02277Y00361*
X0227Y0037*
X02261Y00377*
X02251Y00381*
X0224Y00382*
G37*
G36*
X00267Y00265D02*
X00175D01*
Y00172*
X00177Y00172*
X00193Y00176*
X00209Y00183*
X00223Y00192*
X00236Y00203*
X00247Y00216*
X00256Y0023*
X00263Y00246*
X00267Y00262*
X00267Y00265*
G37*
G36*
X03897D02*
X03805D01*
Y00172*
X03807Y00172*
X03823Y00176*
X03839Y00183*
X03853Y00192*
X03866Y00203*
X03877Y00216*
X03886Y0023*
X03893Y00246*
X03897Y00262*
X03897Y00265*
G37*
G36*
X03775D02*
X03682D01*
X03682Y00262*
X03686Y00246*
X03693Y0023*
X03702Y00216*
X03713Y00203*
X03726Y00192*
X0374Y00183*
X03756Y00176*
X03772Y00172*
X03775Y00172*
Y00265*
G37*
G36*
X00145D02*
X00052D01*
X00052Y00262*
X00056Y00246*
X00063Y0023*
X00072Y00216*
X00083Y00203*
X00096Y00192*
X0011Y00183*
X00126Y00176*
X00142Y00172*
X00145Y00172*
Y00265*
G37*
G36*
X0224Y00282D02*
X02228Y00281D01*
X02218Y00277*
X02209Y0027*
X02202Y00261*
X02198Y00251*
X02197Y0024*
X02198Y00228*
X02202Y00218*
X02209Y00209*
X02218Y00202*
X02228Y00198*
X0224Y00197*
X02251Y00198*
X02261Y00202*
X0227Y00209*
X02277Y00218*
X02281Y00228*
X02282Y0024*
X02281Y00251*
X02277Y00261*
X0227Y0027*
X02261Y00277*
X02251Y00281*
X0224Y00282*
G37*
G36*
X00175Y00387D02*
Y00295D01*
X00267*
X00267Y00297*
X00263Y00313*
X00256Y00329*
X00247Y00343*
X00236Y00356*
X00223Y00367*
X00209Y00376*
X00193Y00383*
X00177Y00387*
X00175Y00387*
G37*
G36*
X03805D02*
Y00295D01*
X03897*
X03897Y00297*
X03893Y00313*
X03886Y00329*
X03877Y00343*
X03866Y00356*
X03853Y00367*
X03839Y00376*
X03823Y00383*
X03807Y00387*
X03805Y00387*
G37*
G36*
X03775D02*
X03772Y00387D01*
X03756Y00383*
X0374Y00376*
X03726Y00367*
X03713Y00356*
X03702Y00343*
X03693Y00329*
X03686Y00313*
X03682Y00297*
X03682Y00295*
X03775*
Y00387*
G37*
G36*
X00145D02*
X00142Y00387D01*
X00126Y00383*
X0011Y00376*
X00096Y00367*
X00083Y00356*
X00072Y00343*
X00063Y00329*
X00056Y00313*
X00052Y00297*
X00052Y00295*
X00145*
Y00387*
G37*
G36*
X01262Y00907D02*
X01197D01*
X01193Y00906*
X0119Y00904*
X01188Y00901*
X01187Y00897*
Y00832*
X01188Y00828*
X0119Y00825*
X01193Y00823*
X01197Y00822*
X01262*
X01266Y00823*
X01269Y00825*
X01271Y00828*
X01272Y00832*
Y00897*
X01271Y00901*
X01269Y00904*
X01266Y00906*
X01262Y00907*
G37*
G36*
X03458Y00945D02*
X03446Y00944D01*
X03436Y0094*
X03427Y00933*
X0342Y00924*
X03416Y00914*
X03415Y00903*
X03416Y00891*
X0342Y00881*
X03427Y00872*
X03436Y00865*
X03446Y00861*
X03458Y0086*
X03469Y00861*
X03479Y00865*
X03488Y00872*
X03495Y00881*
X03499Y00891*
X035Y00903*
X03499Y00914*
X03495Y00924*
X03488Y00933*
X03479Y0094*
X03469Y00944*
X03458Y00945*
G37*
G36*
X01978Y00961D02*
X01968Y00959D01*
X0196Y00954*
X01955Y00946*
X01953Y00937*
X01954Y00931*
X01903Y0088*
X019Y00875*
X01899Y00869*
Y00788*
X01897Y00787*
X01891Y00779*
X01889Y0077*
X01891Y0076*
X01897Y00752*
X01904Y00747*
X01914Y00745*
X01923Y00747*
X01931Y00752*
X01936Y0076*
X01938Y0077*
X01936Y00779*
X01931Y00787*
X01929Y00788*
Y00863*
X01979Y00913*
X01987Y00914*
X01995Y00919*
X02Y00927*
X02002Y00937*
X02Y00946*
X01995Y00954*
X01987Y00959*
X01978Y00961*
G37*
G36*
X0163Y00907D02*
X01618Y00906D01*
X01608Y00902*
X01599Y00895*
X01592Y00886*
X01588Y00876*
X01587Y00865*
X01588Y00853*
X01592Y00843*
X01599Y00834*
X01608Y00827*
X01618Y00823*
X0163Y00822*
X01641Y00823*
X01651Y00827*
X0166Y00834*
X01667Y00843*
X01671Y00853*
X01672Y00865*
X01671Y00876*
X01667Y00886*
X0166Y00895*
X01651Y00902*
X01641Y00906*
X0163Y00907*
G37*
G36*
X03343Y00888D02*
X03315D01*
Y0087*
X03316Y00866*
X03318Y00863*
X03321Y00861*
X03325Y0086*
X03343*
Y00888*
G37*
G36*
Y00945D02*
X03325D01*
X03321Y00944*
X03318Y00942*
X03316Y00939*
X03315Y00935*
Y00918*
X03343*
Y00945*
G37*
G36*
X0339D02*
X03373D01*
Y00918*
X034*
Y00935*
X03399Y00939*
X03397Y00942*
X03394Y00944*
X0339Y00945*
G37*
G36*
X034Y00888D02*
X03373D01*
Y0086*
X0339*
X03394Y00861*
X03397Y00863*
X03399Y00866*
X034Y0087*
Y00888*
G37*
G36*
X00491Y0095D02*
X00435D01*
X00425Y00948*
X00416Y00945*
X00408Y00938*
X00402Y0093*
X00398Y00921*
X00397Y00911*
X00398Y00901*
X00402Y00892*
X00408Y00884*
X00416Y00878*
X00425Y00874*
X00435Y00873*
X00491*
X00501Y00874*
X0051Y00878*
X00518Y00884*
X00524Y00892*
X00528Y00901*
X0053Y00911*
X00528Y00921*
X00524Y0093*
X00518Y00938*
X0051Y00945*
X00501Y00948*
X00491Y0095*
G37*
G36*
X0153Y00907D02*
X01518Y00906D01*
X01508Y00902*
X01499Y00895*
X01492Y00886*
X01488Y00876*
X01487Y00865*
X01488Y00853*
X01492Y00843*
X01499Y00834*
X01508Y00827*
X01514Y00825*
Y00772*
X01502Y0076*
X01499Y00755*
X01498Y0075*
X01496Y00748*
X0149Y0074*
X01489Y00731*
X0149Y00722*
X01496Y00714*
X01504Y00708*
X01513Y00707*
X01522Y00708*
X0153Y00714*
X01536Y00722*
X01538Y00731*
X01536Y0074*
X01532Y00746*
X0154Y00755*
X01544Y0076*
X01545Y00766*
Y00825*
X01551Y00827*
X0156Y00834*
X01567Y00843*
X01571Y00853*
X01572Y00865*
X01571Y00876*
X01567Y00886*
X0156Y00895*
X01551Y00902*
X01541Y00906*
X0153Y00907*
G37*
G36*
X00448Y00674D02*
X00435D01*
X00425Y00673*
X00416Y00669*
X00408Y00663*
X00402Y00655*
X004Y00651*
X00448*
Y00674*
G37*
G36*
X00491D02*
X00478D01*
Y00651*
X00526*
X00524Y00655*
X00518Y00663*
X0051Y00669*
X00501Y00673*
X00491Y00674*
G37*
G36*
X00448Y00621D02*
X004D01*
X00402Y00617*
X00408Y00609*
X00416Y00602*
X00425Y00599*
X00435Y00597*
X00448*
Y00621*
G37*
G36*
X00526D02*
X00478D01*
Y00597*
X00491*
X00501Y00599*
X0051Y00602*
X00518Y00609*
X00524Y00617*
X00526Y00621*
G37*
G36*
X00491Y00851D02*
X00435D01*
X00425Y0085*
X00416Y00846*
X00408Y0084*
X00402Y00832*
X00398Y00823*
X00397Y00813*
X00398Y00803*
X00402Y00794*
X00408Y00786*
X00416Y0078*
X00423Y00777*
Y0077*
X00416Y00767*
X00408Y00761*
X00402Y00753*
X00398Y00744*
X00397Y00734*
X00398Y00724*
X00402Y00715*
X00408Y00707*
X00416Y00701*
X00425Y00697*
X00435Y00696*
X00491*
X00501Y00697*
X0051Y00701*
X00518Y00707*
X00524Y00715*
X00528Y00724*
X0053Y00734*
X00528Y00744*
X00524Y00753*
X00518Y00761*
X0051Y00767*
X00503Y0077*
Y00777*
X0051Y0078*
X00518Y00786*
X00524Y00794*
X00528Y00803*
X0053Y00813*
X00528Y00823*
X00524Y00832*
X00518Y0084*
X0051Y00846*
X00501Y0085*
X00491Y00851*
G37*
G36*
X0143Y00907D02*
X01418Y00906D01*
X01408Y00902*
X01399Y00895*
X01392Y00886*
X01388Y00876*
X01387Y00865*
X01388Y00853*
X01392Y00843*
X01399Y00834*
X01408Y00827*
X01414Y00825*
Y00807*
X01368Y00761*
X01365Y00756*
X01363Y0075*
Y00748*
X01362Y00747*
X01357Y00739*
X01355Y0073*
X01357Y0072*
X01362Y00712*
X0137Y00707*
X0138Y00705*
X01389Y00707*
X01397Y00712*
X01402Y0072*
X01404Y0073*
X01402Y00739*
X01397Y00746*
X0144Y0079*
X01444Y00795*
X01445Y00801*
Y00825*
X01451Y00827*
X0146Y00834*
X01467Y00843*
X01471Y00853*
X01472Y00865*
X01471Y00876*
X01467Y00886*
X0146Y00895*
X01451Y00902*
X01441Y00906*
X0143Y00907*
G37*
G36*
X0173D02*
X01718Y00906D01*
X01708Y00902*
X01699Y00895*
X01692Y00886*
X01688Y00876*
X01687Y00865*
X01688Y00853*
X01692Y00843*
X01699Y00834*
X01708Y00827*
X01714Y00825*
Y00776*
X01704Y00765*
X017Y0076*
X01699Y00755*
Y00748*
X01697Y00747*
X01692Y00739*
X0169Y0073*
X01692Y0072*
X01697Y00712*
X01705Y00707*
X01715Y00705*
X01724Y00707*
X01732Y00712*
X01737Y0072*
X01739Y0073*
X01737Y00739*
X01732Y00747*
X01734Y00752*
X0174Y00759*
X01744Y00764*
X01745Y0077*
Y00825*
X01751Y00827*
X0176Y00834*
X01767Y00843*
X01771Y00853*
X01772Y00865*
X01771Y00876*
X01767Y00886*
X0176Y00895*
X01751Y00902*
X01741Y00906*
X0173Y00907*
G37*
G36*
X02272Y00782D02*
X02207D01*
X02203Y00781*
X022Y00779*
X02198Y00776*
X02197Y00772*
Y00707*
X02198Y00703*
X022Y007*
X02203Y00698*
X02207Y00697*
X02272*
X02276Y00698*
X02279Y007*
X02281Y00703*
X02282Y00707*
Y00772*
X02281Y00776*
X02279Y00779*
X02276Y00781*
X02272Y00782*
G37*
G36*
X0133Y00907D02*
X01318Y00906D01*
X01308Y00902*
X01299Y00895*
X01292Y00886*
X01288Y00876*
X01287Y00865*
X01288Y00853*
X01292Y00843*
X01296Y00838*
Y00748*
X01294Y00747*
X01289Y00739*
X01287Y0073*
X01289Y0072*
X01294Y00712*
X01302Y00707*
X01312Y00705*
X01321Y00707*
X01329Y00712*
X01334Y0072*
X01336Y0073*
X01334Y00739*
X01329Y00747*
X01327Y00748*
Y00819*
X0133Y00822*
X01341Y00823*
X01351Y00827*
X0136Y00834*
X01367Y00843*
X01371Y00853*
X01372Y00865*
X01371Y00876*
X01367Y00886*
X0136Y00895*
X01351Y00902*
X01341Y00906*
X0133Y00907*
G37*
G36*
X01948Y036D02*
Y03576D01*
X01972*
X0197Y03582*
X01963Y03591*
X01954Y03598*
X01948Y036*
G37*
G36*
X02678D02*
Y03576D01*
X02702*
X027Y03582*
X02693Y03591*
X02684Y03598*
X02678Y036*
G37*
G36*
X00482D02*
Y03576D01*
X00506*
X00504Y03582*
X00497Y03591*
X00488Y03598*
X00482Y036*
G37*
G36*
X01233D02*
Y03576D01*
X01257*
X01255Y03582*
X01248Y03591*
X01239Y03598*
X01233Y036*
G37*
G36*
X00708Y03832D02*
X00696Y03831D01*
X00684Y03826*
X00675Y03819*
X00667Y03809*
X00662Y03798*
X00661Y03786*
X00662Y03773*
X00667Y03762*
X00675Y03752*
X00684Y03745*
X00696Y0374*
X00708Y03739*
X0072Y0374*
X00731Y03745*
X00741Y03752*
X00748Y03762*
X00753Y03773*
X00755Y03786*
X00753Y03798*
X00748Y03809*
X00741Y03819*
X00731Y03826*
X0072Y03831*
X00708Y03832*
G37*
G36*
X02906D02*
X02893Y03831D01*
X02882Y03826*
X02873Y03819*
X02865Y03809*
X0286Y03798*
X02859Y03786*
X0286Y03773*
X02865Y03762*
X02873Y03752*
X02882Y03745*
X02893Y0374*
X02906Y03739*
X02918Y0374*
X02929Y03745*
X02939Y03752*
X02946Y03762*
X02951Y03773*
X02952Y03786*
X02951Y03798*
X02946Y03809*
X02939Y03819*
X02929Y03826*
X02918Y03831*
X02906Y03832*
G37*
G36*
X00882Y03832D02*
X00809D01*
X00805Y03831*
X00802Y03829*
X008Y03826*
X00799Y03822*
Y03749*
X008Y03745*
X00802Y03742*
X00805Y0374*
X00809Y03739*
X00882*
X00886Y0374*
X00889Y03742*
X00891Y03745*
X00892Y03749*
Y03822*
X00891Y03826*
X00889Y03829*
X00886Y03831*
X00882Y03832*
G37*
G36*
X01461Y03832D02*
X01448Y03831D01*
X01437Y03826*
X01428Y03819*
X0142Y03809*
X01415Y03798*
X01414Y03786*
X01415Y03773*
X0142Y03762*
X01428Y03752*
X01437Y03745*
X01448Y0374*
X01461Y03739*
X01473Y0374*
X01484Y03745*
X01494Y03752*
X01501Y03762*
X01506Y03773*
X01507Y03786*
X01506Y03798*
X01501Y03809*
X01494Y03819*
X01484Y03826*
X01473Y03831*
X01461Y03832*
G37*
G36*
X02176D02*
X02163Y03831D01*
X02152Y03826*
X02143Y03819*
X02135Y03809*
X0213Y03798*
X02129Y03786*
X0213Y03773*
X02135Y03762*
X02143Y03752*
X02152Y03745*
X02163Y0374*
X02176Y03739*
X02188Y0374*
X02199Y03745*
X02209Y03752*
X02216Y03762*
X02221Y03773*
X02222Y03786*
X02221Y03798*
X02216Y03809*
X02209Y03819*
X02199Y03826*
X02188Y03831*
X02176Y03832*
G37*
G36*
X02648Y036D02*
X02641Y03598D01*
X02632Y03591*
X02625Y03582*
X02623Y03576*
X02648*
Y036*
G37*
G36*
X01972Y03546D02*
X01948D01*
Y03521*
X01954Y03523*
X01963Y0353*
X0197Y03539*
X01972Y03546*
G37*
G36*
X00506D02*
X00482D01*
Y03521*
X00488Y03523*
X00497Y0353*
X00504Y03539*
X00506Y03546*
G37*
G36*
X01918D02*
X01893D01*
X01895Y03539*
X01902Y0353*
X01911Y03523*
X01918Y03521*
Y03546*
G37*
G36*
X02648D02*
X02623D01*
X02625Y03539*
X02632Y0353*
X02641Y03523*
X02648Y03521*
Y03546*
G37*
G36*
X01257D02*
X01233D01*
Y03521*
X01239Y03523*
X01248Y0353*
X01255Y03539*
X01257Y03546*
G37*
G36*
X01203Y036D02*
X01196Y03598D01*
X01187Y03591*
X0118Y03582*
X01178Y03576*
X01203*
Y036*
G37*
G36*
X01918D02*
X01911Y03598D01*
X01902Y03591*
X01895Y03582*
X01893Y03576*
X01918*
Y036*
G37*
G36*
X02702Y03546D02*
X02678D01*
Y03521*
X02684Y03523*
X02693Y0353*
X027Y03539*
X02702Y03546*
G37*
G36*
X00452Y036D02*
X00445Y03598D01*
X00436Y03591*
X00429Y03582*
X00427Y03576*
X00452*
Y036*
G37*
G36*
X00145Y03895D02*
X00052D01*
X00052Y03892*
X00056Y03876*
X00063Y0386*
X00072Y03846*
X00083Y03833*
X00096Y03822*
X0011Y03813*
X00126Y03806*
X00142Y03802*
X00145Y03802*
Y03895*
G37*
G36*
X00267D02*
X00175D01*
Y03802*
X00177Y03802*
X00193Y03806*
X00209Y03813*
X00223Y03822*
X00236Y03833*
X00247Y03846*
X00256Y0386*
X00263Y03876*
X00267Y03892*
X00267Y03895*
G37*
G36*
X02657Y03814D02*
X02648Y03813D01*
X0264Y03807*
X02635Y03799*
X02633Y0379*
X02635Y03781*
X0264Y03773*
X02648Y03767*
X02657Y03766*
X02667Y03767*
X02675Y03773*
X0268Y03781*
X02682Y0379*
X0268Y03799*
X02675Y03807*
X02667Y03813*
X02657Y03814*
G37*
G36*
X03775Y03895D02*
X03682D01*
X03682Y03892*
X03686Y03876*
X03693Y0386*
X03702Y03846*
X03713Y03833*
X03726Y03822*
X0374Y03813*
X03756Y03806*
X03772Y03802*
X03775Y03802*
Y03895*
G37*
G36*
X03897D02*
X03805D01*
Y03802*
X03807Y03802*
X03823Y03806*
X03839Y03813*
X03853Y03822*
X03866Y03833*
X03877Y03846*
X03886Y0386*
X03893Y03876*
X03897Y03892*
X03897Y03895*
G37*
G36*
X00175Y04017D02*
Y03925D01*
X00267*
X00267Y03927*
X00263Y03943*
X00256Y03959*
X00247Y03973*
X00236Y03986*
X00223Y03997*
X00209Y04006*
X00193Y04013*
X00177Y04017*
X00175Y04017*
G37*
G36*
X03805D02*
Y03925D01*
X03897*
X03897Y03927*
X03893Y03943*
X03886Y03959*
X03877Y03973*
X03866Y03986*
X03853Y03997*
X03839Y04006*
X03823Y04013*
X03807Y04017*
X03805Y04017*
G37*
G36*
X03775D02*
X03772Y04017D01*
X03756Y04013*
X0374Y04006*
X03726Y03997*
X03713Y03986*
X03702Y03973*
X03693Y03959*
X03686Y03943*
X03682Y03927*
X03682Y03925*
X03775*
Y04017*
G37*
G36*
X00145D02*
X00142Y04017D01*
X00126Y04013*
X0011Y04006*
X00096Y03997*
X00083Y03986*
X00072Y03973*
X00063Y03959*
X00056Y03943*
X00052Y03927*
X00052Y03925*
X00145*
Y04017*
G37*
G36*
X01936Y03814D02*
X01927Y03813D01*
X01919Y03807*
X01914Y03799*
X01912Y0379*
X01914Y03781*
X01919Y03773*
X01927Y03767*
X01936Y03766*
X01946Y03767*
X01954Y03773*
X01959Y03781*
X01961Y0379*
X01959Y03799*
X01954Y03807*
X01946Y03813*
X01936Y03814*
G37*
G36*
X0308Y03832D02*
X03007D01*
X03003Y03831*
X03Y03829*
X02998Y03826*
X02997Y03822*
Y03749*
X02998Y03745*
X03Y03742*
X03003Y0374*
X03007Y03739*
X0308*
X03084Y0374*
X03087Y03742*
X03089Y03745*
X0309Y03749*
Y03822*
X03089Y03826*
X03087Y03829*
X03084Y03831*
X0308Y03832*
G37*
G36*
X00569Y03813D02*
X00559Y03811D01*
X00551Y03806*
X00546Y03798*
X00544Y03789*
X00546Y03779*
X00551Y03771*
X00559Y03766*
X00569Y03764*
X00578Y03766*
X00586Y03771*
X00591Y03779*
X00593Y03789*
X00591Y03798*
X00586Y03806*
X00578Y03811*
X00569Y03813*
G37*
G36*
X01635Y03832D02*
X01562D01*
X01558Y03831*
X01555Y03829*
X01553Y03826*
X01552Y03822*
Y03749*
X01553Y03745*
X01555Y03742*
X01558Y0374*
X01562Y03739*
X01635*
X01639Y0374*
X01642Y03742*
X01644Y03745*
X01645Y03749*
Y03822*
X01644Y03826*
X01642Y03829*
X01639Y03831*
X01635Y03832*
G37*
G36*
X0235D02*
X02277D01*
X02273Y03831*
X0227Y03829*
X02268Y03826*
X02267Y03822*
Y03749*
X02268Y03745*
X0227Y03742*
X02273Y0374*
X02277Y03739*
X0235*
X02354Y0374*
X02357Y03742*
X02359Y03745*
X0236Y03749*
Y03822*
X02359Y03826*
X02357Y03829*
X02354Y03831*
X0235Y03832*
G37*
G36*
X01324Y03813D02*
X01314Y03811D01*
X01306Y03806*
X01301Y03798*
X01299Y03789*
X01301Y03779*
X01306Y03771*
X01314Y03766*
X01324Y03764*
X01333Y03766*
X01341Y03771*
X01346Y03779*
X01348Y03789*
X01346Y03798*
X01341Y03806*
X01333Y03811*
X01324Y03813*
G37*
G36*
X00459Y03814D02*
X0045Y03813D01*
X00442Y03807*
X00437Y03799*
X00435Y0379*
X00437Y03781*
X00442Y03773*
X0045Y03767*
X00459Y03766*
X00469Y03767*
X00477Y03773*
X00482Y03781*
X00484Y0379*
X00482Y03799*
X00477Y03807*
X00469Y03813*
X00459Y03814*
G37*
G36*
X01214D02*
X01205Y03813D01*
X01197Y03807*
X01192Y03799*
X0119Y0379*
X01192Y03781*
X01197Y03773*
X01205Y03767*
X01214Y03766*
X01224Y03767*
X01232Y03773*
X01237Y03781*
X01239Y0379*
X01237Y03799*
X01232Y03807*
X01224Y03813*
X01214Y03814*
G37*
G36*
X02046Y03813D02*
X02036Y03811D01*
X02028Y03806*
X02023Y03798*
X02021Y03789*
X02023Y03779*
X02028Y03771*
X02036Y03766*
X02046Y03764*
X02055Y03766*
X02063Y03771*
X02068Y03779*
X0207Y03789*
X02068Y03798*
X02063Y03806*
X02055Y03811*
X02046Y03813*
G37*
G36*
X02767D02*
X02757Y03811D01*
X02749Y03806*
X02744Y03798*
X02742Y03789*
X02744Y03779*
X02749Y03771*
X02757Y03766*
X02767Y03764*
X02776Y03766*
X02784Y03771*
X02789Y03779*
X02791Y03789*
X02789Y03798*
X02784Y03806*
X02776Y03811*
X02767Y03813*
G37*
G36*
X01203Y03546D02*
X01178D01*
X0118Y03539*
X01187Y0353*
X01196Y03523*
X01203Y03521*
Y03546*
G37*
G36*
X01375Y02961D02*
X01365Y02959D01*
X01357Y02954*
X01352Y02946*
X0135Y02937*
X01351Y02934*
X01197Y02781*
X01193Y02776*
X01192Y0277*
Y02449*
X0119Y02448*
X01185Y0244*
X01183Y02431*
X01185Y02421*
X01187Y02418*
X01184Y02412*
X00679*
X00588Y02502*
Y02574*
X00587Y02582*
X00584Y0259*
X00579Y02596*
X00573Y02601*
X00566Y02604*
X00558Y02605*
X0055Y02604*
X00543Y02601*
X00537Y02596*
X00532Y0259*
X00529Y02582*
X00528Y02574*
Y0249*
X00528Y0249*
X00522Y02487*
X00423Y02586*
Y02631*
X00666*
X00673Y02632*
X00681Y02635*
X00687Y0264*
X00692Y02646*
X00692Y02646*
X00719Y02673*
X00719Y02673*
X00723Y02676*
X00729Y02674*
Y02529*
X00725Y02524*
X00715Y02522*
X00707Y02517*
X00702Y02509*
X007Y025*
X00702Y0249*
X00707Y02482*
X00715Y02477*
X00725Y02475*
X00734Y02477*
X00742Y02482*
X00747Y0249*
X00749Y025*
X00749Y02502*
X00755Y02509*
X00759Y02514*
X0076Y0252*
Y02902*
X00759Y02908*
X00755Y02913*
X00734Y02934*
X00734Y02937*
X00732Y02946*
X00727Y02954*
X00719Y02959*
X0071Y02961*
X007Y02959*
X00692Y02954*
X00687Y02946*
X00685Y02937*
X00687Y02927*
X00692Y02919*
X007Y02914*
X0071Y02912*
X00712Y02913*
X00729Y02895*
Y02725*
X00723Y02723*
X00719Y02726*
X00712Y02729*
X00704Y0273*
X00702*
X00694Y02729*
X00687Y02726*
X00681Y02721*
X00651Y02691*
X00412*
X00409Y02693*
X00401Y02697*
X00392Y02698*
X00382Y02697*
X00374Y02693*
X00367Y02687*
X00361Y0268*
X00357Y02672*
X00356Y02663*
X00357Y02653*
X00361Y02645*
X00363Y02642*
Y02573*
X00364Y02565*
X00367Y02558*
X00372Y02552*
X00541Y02382*
Y02354*
X00535Y02353*
X00534Y02355*
X00528Y02363*
X00521Y02368*
X00513Y02372*
X00504Y02373*
X00494Y02372*
X00486Y02368*
X00479Y02363*
X00473Y02355*
X00469Y02347*
X00468Y02338*
X00469Y02329*
X00473Y0232*
X00479Y02313*
X00486Y02307*
X00494Y02304*
X00504Y02302*
X00513Y02304*
X00521Y02307*
X00528Y02313*
X00534Y0232*
X00535Y02323*
X00541Y02322*
Y02173*
Y01718*
X00541Y01717*
X00537Y01709*
X00536Y017*
X00537Y0169*
X00541Y01682*
X00547Y01675*
X00554Y01669*
X00562Y01665*
X00572Y01664*
X00581Y01665*
X00589Y01669*
X00596Y01675*
X00602Y01682*
X00606Y0169*
X00607Y017*
X00606Y01709*
X00602Y01717*
X00602Y01718*
Y0216*
X00733Y02291*
X01475*
X01483Y02292*
X0149Y02295*
X01497Y023*
X01857Y0266*
X01857Y0266*
X01866Y02664*
X01873Y0267*
X01879Y02677*
X01882Y02685*
X01882Y02686*
X01917Y0272*
X02148*
X02189Y02679*
X02189Y02678*
X02188Y0267*
Y02658*
X02189Y0265*
X02192Y02642*
X02197Y02636*
X02203Y02631*
X02211Y02628*
X02219Y02627*
X02226Y02628*
X02234Y02631*
X0224Y02636*
X02245Y02642*
X02248Y0265*
X02249Y02658*
Y02658*
X02251Y0266*
X02256Y02666*
X02259Y02674*
X0226Y02682*
X02259Y02689*
X02256Y02697*
X02251Y02703*
X02182Y02772*
X02176Y02777*
X02168Y0278*
X02161Y02781*
X01904*
X01896Y0278*
X01889Y02777*
X01883Y02772*
X0184Y02729*
X01839Y02729*
X01831Y02725*
X01823Y02719*
X01818Y02712*
X01814Y02704*
X01814Y02703*
X01463Y02352*
X01301*
X01299Y02358*
X01302Y0236*
X0147Y02528*
X01475Y02534*
X01478Y02542*
X01479Y0255*
Y02585*
X01493Y02599*
X0168*
X01688Y026*
X01695Y02603*
X01701Y02608*
X01752Y02659*
X01753Y02659*
X01761Y02663*
X01769Y02669*
X01774Y02676*
X01778Y02684*
X01779Y02694*
X01778Y02703*
X01774Y02711*
X01769Y02718*
X01761Y02724*
X01753Y02728*
X01744Y02729*
X01735Y02728*
X01726Y02724*
X01719Y02718*
X01713Y02711*
X0171Y02703*
X0171Y02702*
X01667Y0266*
X0148*
X01472Y02659*
X01465Y02656*
X01459Y02651*
X01427Y02619*
X01422Y02613*
X01419Y02606*
X01418Y02598*
Y02562*
X01268Y02412*
X01231*
X01228Y02418*
X0123Y02421*
X01232Y02431*
X0123Y0244*
X01225Y02448*
X01223Y02449*
Y02763*
X01372Y02913*
X01375Y02912*
X01384Y02914*
X01392Y02919*
X01397Y02927*
X01399Y02937*
X01397Y02946*
X01392Y02954*
X01384Y02959*
X01375Y02961*
G37*
G36*
X02078Y02599D02*
X02068Y02597D01*
X0206Y02592*
X02055Y02584*
X02053Y02574*
X02055Y02565*
X0206Y02557*
X02068Y02552*
X02078Y0255*
X02087Y02552*
X02095Y02557*
X021Y02565*
X02102Y02574*
X021Y02584*
X02095Y02592*
X02087Y02597*
X02078Y02599*
G37*
G36*
X02719Y02414D02*
X02709Y02412D01*
X02701Y02407*
X02696Y02399*
X02694Y0239*
X02696Y0238*
X02696Y0238*
X02692Y02375*
X02691Y02375*
X02681Y02373*
X02673Y02368*
X02668Y0236*
X02666Y02351*
X02668Y02341*
X02673Y02333*
X02681Y02328*
X02691Y02326*
X02693Y02327*
X02701Y02319*
X02706Y02315*
X02712Y02314*
X02853*
X02858Y02315*
X02863Y02319*
X02871Y02327*
X02874Y02326*
X02883Y02328*
X02891Y02333*
X02896Y02341*
X02898Y02351*
X02896Y0236*
X02891Y02368*
X02883Y02373*
X02874Y02375*
X02864Y02373*
X02863Y02372*
X02856Y02375*
X02855Y02379*
X0285Y02387*
X02842Y02392*
X02833Y02394*
X0283Y02394*
X02823Y024*
X02818Y02404*
X02813Y02405*
X02737*
X02736Y02407*
X02728Y02412*
X02719Y02414*
G37*
G36*
X0175Y02424D02*
X0174Y02422D01*
X01732Y02417*
X01727Y02409*
X01725Y024*
X01726Y02397*
X01621Y02292*
X01617Y02287*
X01616Y02282*
Y02241*
X01614Y0224*
X01609Y02232*
X01607Y02223*
X01609Y02213*
X01614Y02205*
X01622Y022*
X01632Y02198*
X01641Y022*
X01649Y02205*
X01654Y02213*
X01656Y02223*
X01654Y02232*
X01649Y0224*
X01647Y02241*
Y02275*
X01747Y02376*
X0175Y02375*
X01759Y02377*
X01767Y02382*
X01772Y0239*
X01774Y024*
X01772Y02409*
X01767Y02417*
X01759Y02422*
X0175Y02424*
G37*
G36*
X03047Y0269D02*
X03038Y02689D01*
X0303Y02685*
X03022Y02679*
X03017Y02672*
X03013Y02664*
X03012Y02655*
X03013Y02645*
X03017Y02637*
X03022Y0263*
X0303Y02624*
X03038Y0262*
X03047Y02619*
X03056Y0262*
X03065Y02624*
X03072Y0263*
X03078Y02637*
X03081Y02645*
X03083Y02655*
X03081Y02664*
X03078Y02672*
X03072Y02679*
X03065Y02685*
X03056Y02689*
X03047Y0269*
G37*
G36*
X00567Y03603D02*
X00555Y03602D01*
X00545Y03598*
X00536Y03591*
X00529Y03582*
X00525Y03572*
X00524Y03561*
X00525Y03549*
X00529Y03539*
X00536Y0353*
X00545Y03523*
X00555Y03519*
X00567Y03518*
X00578Y03519*
X00588Y03523*
X00597Y0353*
X00604Y03539*
X00608Y03549*
X00609Y03561*
X00608Y03572*
X00604Y03582*
X00597Y03591*
X00588Y03598*
X00578Y03602*
X00567Y03603*
G37*
G36*
X00667D02*
X00655Y03602D01*
X00645Y03598*
X00636Y03591*
X00629Y03582*
X00625Y03572*
X00624Y03561*
X00625Y03549*
X00629Y03539*
X00636Y0353*
X00645Y03523*
X00655Y03519*
X00667Y03518*
X00678Y03519*
X00688Y03523*
X00697Y0353*
X00704Y03539*
X00708Y03549*
X00709Y03561*
X00708Y03572*
X00704Y03582*
X00697Y03591*
X00688Y03598*
X00678Y03602*
X00667Y03603*
G37*
G36*
X03767Y03124D02*
X03697D01*
X03691Y03123*
X03686Y03119*
X03419Y02853*
X02335*
X02253Y02934*
X02253Y02937*
X02252Y02946*
X02246Y02954*
X02238Y02959*
X02229Y02961*
X0222Y02959*
X02212Y02954*
X02206Y02946*
X02205Y02937*
X02206Y02927*
X02212Y02919*
X0222Y02914*
X02229Y02912*
X02231Y02913*
X02317Y02827*
X02322Y02823*
X02328Y02822*
X03426*
X03431Y02823*
X03436Y02827*
X03703Y03093*
X03761*
X03765Y03089*
X03762Y03084*
X0376Y03084*
X0375Y03082*
X03742Y03077*
X03737Y03069*
X03735Y0306*
X03737Y0305*
X03742Y03042*
X03743Y03042*
Y0303*
X03737Y03026*
X0373Y03028*
X0372Y03026*
X03712Y03021*
X03707Y03013*
X03705Y03004*
X03707Y02994*
X03712Y02986*
X03714Y02985*
Y02078*
X03712Y02077*
X03707Y02069*
X03705Y0206*
X03705Y02058*
X037Y02055*
X03697Y02058*
X03699Y02063*
X037Y02075*
X03699Y02086*
X03695Y02096*
X03688Y02105*
X03679Y02112*
X03669Y02116*
X03658Y02117*
X03646Y02116*
X03636Y02112*
X03627Y02105*
X0362Y02096*
X03616Y02086*
X03615Y02075*
X03616Y02063*
X0362Y02053*
X03627Y02044*
X03636Y02037*
X03646Y02033*
X03658Y02032*
X03669Y02033*
X03675Y02036*
X0369Y02021*
Y01039*
X03684Y01036*
X03679Y0104*
X03669Y01044*
X03658Y01045*
X03646Y01044*
X03636Y0104*
X03627Y01033*
X03626Y01032*
X03621Y01034*
Y02027*
X0362Y02032*
X03616Y02037*
X03596Y02057*
X03599Y02063*
X036Y02075*
X03599Y02086*
X03595Y02096*
X03588Y02105*
X03579Y02112*
X03569Y02116*
X03558Y02117*
X03546Y02116*
X03536Y02112*
X0353Y02107*
X03524Y0211*
Y02119*
X0354Y02136*
X03546Y02133*
X03558Y02132*
X03569Y02133*
X03579Y02137*
X03588Y02144*
X03595Y02153*
X03599Y02163*
X036Y02175*
X03599Y02186*
X03595Y02196*
X03588Y02205*
X03579Y02212*
X03569Y02216*
X03558Y02217*
X03546Y02216*
X03536Y02212*
X03527Y02205*
X0352Y02196*
X03516Y02186*
X03515Y02175*
X03516Y02163*
X03519Y02157*
X03498Y02136*
X03494Y02131*
X03493Y02126*
Y02107*
X03493Y02106*
X03487Y02105*
X03479Y02112*
X03469Y02116*
X03458Y02117*
X03446Y02116*
X03436Y02112*
X03427Y02105*
X0342Y02096*
X03416Y02086*
X03415Y02075*
X03416Y02063*
X0342Y02053*
X03427Y02044*
X03436Y02037*
X03446Y02033*
X03458Y02032*
X03469Y02033*
X03479Y02037*
X03487Y02044*
X03493Y02043*
X03493Y02042*
Y02037*
X03494Y02031*
X03498Y02026*
X03542Y01981*
Y01042*
X03536Y0104*
X03527Y01033*
X0352Y01024*
X03516Y01014*
X03515Y01003*
X03516Y00991*
X0352Y00981*
X03527Y00972*
X03536Y00965*
X03546Y00961*
X03558Y0096*
X03569Y00961*
X03579Y00965*
X03584Y00969*
X0359Y00966*
Y00957*
X03575Y00941*
X03569Y00944*
X03558Y00945*
X03546Y00944*
X03536Y0094*
X03527Y00933*
X0352Y00924*
X03516Y00914*
X03515Y00903*
X03516Y00891*
X0352Y00881*
X03527Y00872*
X03536Y00865*
X03546Y00861*
X03558Y0086*
X03569Y00861*
X03579Y00865*
X03588Y00872*
X03595Y00881*
X03599Y00891*
X036Y00903*
X03599Y00914*
X03596Y0092*
X03616Y0094*
X0362Y00945*
X03621Y00951*
Y00971*
X03626Y00973*
X03627Y00972*
X03636Y00965*
X03646Y00961*
X03656Y0096*
X03659Y00957*
X03661Y00954*
X03661Y00954*
Y00949*
X03658Y00945*
X03646Y00944*
X03636Y0094*
X03627Y00933*
X0362Y00924*
X03616Y00914*
X03615Y00903*
X03616Y00891*
X0362Y00881*
X03627Y00872*
X03636Y00865*
X03646Y00861*
X03658Y0086*
X03669Y00861*
X03679Y00865*
X03688Y00872*
X03695Y00881*
X03699Y00891*
X037Y00903*
X03699Y00914*
X03695Y00924*
X03692Y00928*
Y00948*
X03716Y00972*
X03719Y00977*
X0372Y00983*
Y01965*
X03726Y01968*
X03728Y01967*
X03737Y01965*
X03747Y01967*
X03754Y01972*
X0376Y0198*
X03762Y01989*
X03761Y01992*
X03769Y02*
X03773Y02005*
X03774Y02011*
Y02035*
X03779Y02038*
X0378Y02037*
X0379Y02035*
X03799Y02037*
X03807Y02042*
X03812Y0205*
X03814Y0206*
X03813Y02066*
X03813Y02068*
Y03078*
X03812Y03084*
X03808Y03089*
X03778Y03119*
X03773Y03123*
X03767Y03124*
G37*
G36*
X03294Y03422D02*
X03285Y03421D01*
X03276Y03417*
X03276Y03417*
X02593*
X02592Y03417*
X02584Y03421*
X02575Y03422*
X02565Y03421*
X02557Y03417*
X02556Y03417*
X01883*
X01882Y03417*
X01874Y03421*
X01865Y03422*
X01855Y03421*
X01847Y03417*
X01846Y03417*
X01158*
X01157Y03417*
X01149Y03421*
X0114Y03422*
X0113Y03421*
X01122Y03417*
X01121Y03417*
X00443*
X00443Y03417*
X00434Y03421*
X00425Y03422*
X00416Y03421*
X00408Y03417*
X004Y03411*
X00395Y03404*
X00391Y03396*
X0039Y03387*
X00391Y03377*
X00395Y03369*
X004Y03362*
X00408Y03356*
X00416Y03352*
X00425Y03351*
X00434Y03352*
X00443Y03356*
X00443Y03356*
X01121*
X01122Y03356*
X0113Y03352*
X0114Y03351*
X01149Y03352*
X01157Y03356*
X01158Y03356*
X01846*
X01847Y03356*
X01855Y03352*
X01865Y03351*
X01874Y03352*
X01882Y03356*
X01883Y03356*
X02556*
X02557Y03356*
X02565Y03352*
X02575Y03351*
X02584Y03352*
X02592Y03356*
X02593Y03356*
X03276*
X03276Y03356*
X03285Y03352*
X03294Y03351*
X03303Y03352*
X03311Y03356*
X03319Y03362*
X03324Y03369*
X03328Y03377*
X03329Y03387*
X03328Y03396*
X03324Y03404*
X03319Y03411*
X03311Y03417*
X03303Y03421*
X03294Y03422*
G37*
G36*
X02038Y02242D02*
Y02218D01*
X02062*
X0206Y02224*
X02053Y02233*
X02044Y0224*
X02038Y02242*
G37*
G36*
X01823Y02245D02*
X01811Y02244D01*
X01801Y0224*
X01792Y02233*
X01785Y02224*
X01781Y02214*
X0178Y02203*
X01781Y02191*
X01785Y02181*
X01792Y02172*
X01801Y02165*
X01811Y02161*
X01823Y0216*
X01834Y02161*
X01844Y02165*
X01853Y02172*
X0186Y02181*
X01864Y02191*
X01865Y02203*
X01864Y02214*
X0186Y02224*
X01853Y02233*
X01844Y0224*
X01834Y02244*
X01823Y02245*
G37*
G36*
X01923D02*
X01911Y02244D01*
X01901Y0224*
X01892Y02233*
X01885Y02224*
X01881Y02214*
X0188Y02203*
X01881Y02191*
X01885Y02181*
X01892Y02172*
X01901Y02165*
X01911Y02161*
X01923Y0216*
X01934Y02161*
X01944Y02165*
X01953Y02172*
X0196Y02181*
X01964Y02191*
X01965Y02203*
X01964Y02214*
X0196Y02224*
X01953Y02233*
X01944Y0224*
X01934Y02244*
X01923Y02245*
G37*
G36*
X03658Y02217D02*
X03646Y02216D01*
X03636Y02212*
X03627Y02205*
X0362Y02196*
X03616Y02186*
X03615Y02175*
X03616Y02163*
X0362Y02153*
X03627Y02144*
X03636Y02137*
X03646Y02133*
X03658Y02132*
X03669Y02133*
X03679Y02137*
X03688Y02144*
X03695Y02153*
X03699Y02163*
X037Y02175*
X03699Y02186*
X03695Y02196*
X03688Y02205*
X03679Y02212*
X03669Y02216*
X03658Y02217*
G37*
G36*
X01723Y02245D02*
X01711Y02244D01*
X01701Y0224*
X01692Y02233*
X01685Y02224*
X01681Y02214*
X0168Y02203*
X01681Y02191*
X01685Y02181*
X01692Y02172*
X01701Y02165*
X01711Y02161*
X01723Y0216*
X01734Y02161*
X01744Y02165*
X01753Y02172*
X0176Y02181*
X01764Y02191*
X01765Y02203*
X01764Y02214*
X0176Y02224*
X01753Y02233*
X01744Y0224*
X01734Y02244*
X01723Y02245*
G37*
G36*
X02123D02*
X02111Y02244D01*
X02101Y0224*
X02092Y02233*
X02085Y02224*
X02081Y02214*
X0208Y02203*
X02081Y02191*
X02085Y02181*
X02092Y02172*
X02101Y02165*
X02111Y02161*
X02123Y0216*
X02134Y02161*
X02144Y02165*
X02153Y02172*
X0216Y02181*
X02164Y02191*
X02165Y02203*
X02164Y02214*
X0216Y02224*
X02153Y02233*
X02144Y0224*
X02134Y02244*
X02123Y02245*
G37*
G36*
X02062Y02188D02*
X02038D01*
Y02163*
X02044Y02165*
X02053Y02172*
X0206Y02181*
X02062Y02188*
G37*
G36*
X02008Y02242D02*
X02001Y0224D01*
X01992Y02233*
X01985Y02224*
X01983Y02218*
X02008*
Y02242*
G37*
G36*
X02255Y02245D02*
X0219D01*
X02186Y02244*
X02183Y02242*
X02181Y02239*
X0218Y02235*
Y0217*
X02181Y02166*
X02183Y02163*
X02186Y02161*
X0219Y0216*
X02255*
X02259Y02161*
X02262Y02163*
X02264Y02166*
X02265Y0217*
Y02235*
X02264Y02239*
X02262Y02242*
X02259Y02244*
X02255Y02245*
G37*
G36*
X02008Y02188D02*
X01983D01*
X01985Y02181*
X01992Y02172*
X02001Y02165*
X02008Y02163*
Y02188*
G37*
G36*
X02963Y03603D02*
X02951Y03602D01*
X02941Y03598*
X02932Y03591*
X02925Y03582*
X02921Y03572*
X0292Y03561*
X02921Y03549*
X02925Y03539*
X02932Y0353*
X02941Y03523*
X02951Y03519*
X02963Y03518*
X02974Y03519*
X02984Y03523*
X02993Y0353*
X03Y03539*
X03004Y03549*
X03005Y03561*
X03004Y03572*
X03Y03582*
X02993Y03591*
X02984Y03598*
X02974Y03602*
X02963Y03603*
G37*
G36*
X03063D02*
X03051Y03602D01*
X03041Y03598*
X03032Y03591*
X03025Y03582*
X03021Y03572*
X0302Y03561*
X03021Y03549*
X03025Y03539*
X03032Y0353*
X03041Y03523*
X03051Y03519*
X03063Y03518*
X03074Y03519*
X03084Y03523*
X03093Y0353*
X031Y03539*
X03104Y03549*
X03105Y03561*
X03104Y03572*
X031Y03582*
X03093Y03591*
X03084Y03598*
X03074Y03602*
X03063Y03603*
G37*
G36*
X02763D02*
X02751Y03602D01*
X02741Y03598*
X02732Y03591*
X02725Y03582*
X02721Y03572*
X0272Y03561*
X02721Y03549*
X02725Y03539*
X02732Y0353*
X02741Y03523*
X02751Y03519*
X02763Y03518*
X02774Y03519*
X02784Y03523*
X02793Y0353*
X028Y03539*
X02804Y03549*
X02805Y03561*
X02804Y03572*
X028Y03582*
X02793Y03591*
X02784Y03598*
X02774Y03602*
X02763Y03603*
G37*
G36*
X02863D02*
X02851Y03602D01*
X02841Y03598*
X02832Y03591*
X02825Y03582*
X02821Y03572*
X0282Y03561*
X02821Y03549*
X02825Y03539*
X02832Y0353*
X02841Y03523*
X02851Y03519*
X02863Y03518*
X02874Y03519*
X02884Y03523*
X02893Y0353*
X029Y03539*
X02904Y03549*
X02905Y03561*
X02904Y03572*
X029Y03582*
X02893Y03591*
X02884Y03598*
X02874Y03602*
X02863Y03603*
G37*
G36*
X00399Y03603D02*
X00334D01*
X0033Y03602*
X00327Y036*
X00325Y03597*
X00324Y03593*
Y03528*
X00325Y03524*
X00327Y03521*
X0033Y03519*
X00334Y03518*
X00399*
X00403Y03519*
X00406Y03521*
X00408Y03524*
X00409Y03528*
Y03593*
X00408Y03597*
X00406Y036*
X00403Y03602*
X00399Y03603*
G37*
G36*
X02595D02*
X0253D01*
X02526Y03602*
X02523Y036*
X02521Y03597*
X0252Y03593*
Y03528*
X02521Y03524*
X02523Y03521*
X02526Y03519*
X0253Y03518*
X02595*
X02599Y03519*
X02602Y03521*
X02604Y03524*
X02605Y03528*
Y03593*
X02604Y03597*
X02602Y036*
X02599Y03602*
X02595Y03603*
G37*
G36*
X00452Y03546D02*
X00427D01*
X00429Y03539*
X00436Y0353*
X00445Y03523*
X00452Y03521*
Y03546*
G37*
G36*
X0115Y03603D02*
X01085D01*
X01081Y03602*
X01078Y036*
X01076Y03597*
X01075Y03593*
Y03528*
X01076Y03524*
X01078Y03521*
X01081Y03519*
X01085Y03518*
X0115*
X01154Y03519*
X01157Y03521*
X01159Y03524*
X0116Y03528*
Y03593*
X01159Y03597*
X01157Y036*
X01154Y03602*
X0115Y03603*
G37*
G36*
X01865D02*
X018D01*
X01796Y03602*
X01793Y036*
X01791Y03597*
X0179Y03593*
Y03528*
X01791Y03524*
X01793Y03521*
X01796Y03519*
X018Y03518*
X01865*
X01869Y03519*
X01872Y03521*
X01874Y03524*
X01875Y03528*
Y03593*
X01874Y03597*
X01872Y036*
X01869Y03602*
X01865Y03603*
G37*
G36*
X02333Y03603D02*
X02321Y03602D01*
X02311Y03598*
X02302Y03591*
X02295Y03582*
X02291Y03572*
X0229Y03561*
X02291Y03549*
X02295Y03539*
X02302Y0353*
X02311Y03523*
X02321Y03519*
X02333Y03518*
X02344Y03519*
X02354Y03523*
X02363Y0353*
X0237Y03539*
X02374Y03549*
X02375Y03561*
X02374Y03572*
X0237Y03582*
X02363Y03591*
X02354Y03598*
X02344Y03602*
X02333Y03603*
G37*
G36*
X01318D02*
X01306Y03602D01*
X01296Y03598*
X01287Y03591*
X0128Y03582*
X01276Y03572*
X01275Y03561*
X01276Y03549*
X0128Y03539*
X01287Y0353*
X01296Y03523*
X01306Y03519*
X01318Y03518*
X01329Y03519*
X01339Y03523*
X01348Y0353*
X01355Y03539*
X01359Y03549*
X0136Y03561*
X01359Y03572*
X01355Y03582*
X01348Y03591*
X01339Y03598*
X01329Y03602*
X01318Y03603*
G37*
G36*
X01418D02*
X01406Y03602D01*
X01396Y03598*
X01387Y03591*
X0138Y03582*
X01376Y03572*
X01375Y03561*
X01376Y03549*
X0138Y03539*
X01387Y0353*
X01396Y03523*
X01406Y03519*
X01418Y03518*
X01429Y03519*
X01439Y03523*
X01448Y0353*
X01455Y03539*
X01459Y03549*
X0146Y03561*
X01459Y03572*
X01455Y03582*
X01448Y03591*
X01439Y03598*
X01429Y03602*
X01418Y03603*
G37*
G36*
X00767D02*
X00755Y03602D01*
X00745Y03598*
X00736Y03591*
X00729Y03582*
X00725Y03572*
X00724Y03561*
X00725Y03549*
X00729Y03539*
X00736Y0353*
X00745Y03523*
X00755Y03519*
X00767Y03518*
X00778Y03519*
X00788Y03523*
X00797Y0353*
X00804Y03539*
X00808Y03549*
X00809Y03561*
X00808Y03572*
X00804Y03582*
X00797Y03591*
X00788Y03598*
X00778Y03602*
X00767Y03603*
G37*
G36*
X00867D02*
X00855Y03602D01*
X00845Y03598*
X00836Y03591*
X00829Y03582*
X00825Y03572*
X00824Y03561*
X00825Y03549*
X00829Y03539*
X00836Y0353*
X00845Y03523*
X00855Y03519*
X00867Y03518*
X00878Y03519*
X00888Y03523*
X00897Y0353*
X00904Y03539*
X00908Y03549*
X00909Y03561*
X00908Y03572*
X00904Y03582*
X00897Y03591*
X00888Y03598*
X00878Y03602*
X00867Y03603*
G37*
G36*
X01518D02*
X01506Y03602D01*
X01496Y03598*
X01487Y03591*
X0148Y03582*
X01476Y03572*
X01475Y03561*
X01476Y03549*
X0148Y03539*
X01487Y0353*
X01496Y03523*
X01506Y03519*
X01518Y03518*
X01529Y03519*
X01539Y03523*
X01548Y0353*
X01555Y03539*
X01559Y03549*
X0156Y03561*
X01559Y03572*
X01555Y03582*
X01548Y03591*
X01539Y03598*
X01529Y03602*
X01518Y03603*
G37*
G36*
X02133D02*
X02121Y03602D01*
X02111Y03598*
X02102Y03591*
X02095Y03582*
X02091Y03572*
X0209Y03561*
X02091Y03549*
X02095Y03539*
X02102Y0353*
X02111Y03523*
X02121Y03519*
X02133Y03518*
X02144Y03519*
X02154Y03523*
X02163Y0353*
X0217Y03539*
X02174Y03549*
X02175Y03561*
X02174Y03572*
X0217Y03582*
X02163Y03591*
X02154Y03598*
X02144Y03602*
X02133Y03603*
G37*
G36*
X02233D02*
X02221Y03602D01*
X02211Y03598*
X02202Y03591*
X02195Y03582*
X02191Y03572*
X0219Y03561*
X02191Y03549*
X02195Y03539*
X02202Y0353*
X02211Y03523*
X02221Y03519*
X02233Y03518*
X02244Y03519*
X02254Y03523*
X02263Y0353*
X0227Y03539*
X02274Y03549*
X02275Y03561*
X02274Y03572*
X0227Y03582*
X02263Y03591*
X02254Y03598*
X02244Y03602*
X02233Y03603*
G37*
G36*
X01618D02*
X01606Y03602D01*
X01596Y03598*
X01587Y03591*
X0158Y03582*
X01576Y03572*
X01575Y03561*
X01576Y03549*
X0158Y03539*
X01587Y0353*
X01596Y03523*
X01606Y03519*
X01618Y03518*
X01629Y03519*
X01639Y03523*
X01648Y0353*
X01655Y03539*
X01659Y03549*
X0166Y03561*
X01659Y03572*
X01655Y03582*
X01648Y03591*
X01639Y03598*
X01629Y03602*
X01618Y03603*
G37*
G36*
X02033D02*
X02021Y03602D01*
X02011Y03598*
X02002Y03591*
X01995Y03582*
X01991Y03572*
X0199Y03561*
X01991Y03549*
X01995Y03539*
X02002Y0353*
X02011Y03523*
X02021Y03519*
X02033Y03518*
X02044Y03519*
X02054Y03523*
X02063Y0353*
X0207Y03539*
X02074Y03549*
X02075Y03561*
X02074Y03572*
X0207Y03582*
X02063Y03591*
X02054Y03598*
X02044Y03602*
X02033Y03603*
G37*
%LNcontrolboard-3*%
%LPD*%
G54D33*
X02157Y00684D02*
X02201Y0064D01*
X03697Y03109D02*
X03767D01*
X03426Y02838D02*
X03697Y03109D01*
X02328Y02838D02*
X03426D01*
X02229Y02937D02*
X02328Y02838D01*
X03767Y03109D02*
X03798Y03078D01*
Y02068D02*
Y03078D01*
X03813Y03148D02*
X03906Y03055D01*
X03079Y03148D02*
X03813D01*
X0287Y02939D02*
X03079Y03148D01*
X0379Y0206D02*
X03798Y02068D01*
X03906Y02025D02*
Y03055D01*
X0388Y01999D02*
X03906Y02025D01*
X02049Y01074D02*
X02139D01*
X02181Y01116*
X0206D02*
X02125D01*
X02128Y01212D02*
X02513D01*
X01981Y01065D02*
X02128Y01212D01*
X01845Y01065D02*
X01981D01*
X02147Y01265D02*
X0251D01*
X02513Y01267*
X01967Y01085D02*
X02147Y01265D01*
X01823Y01085D02*
X01967D01*
X02719Y0239D02*
X02813D01*
X01325Y02065D02*
X0172D01*
X01205Y02185D02*
X01325Y02065D01*
X01194Y02185D02*
X01205D01*
X01232Y01703D02*
X01358Y0183D01*
X0155*
X0287Y02937D02*
Y02939D01*
X01632Y02282D02*
X0175Y024D01*
X01632Y02223D02*
Y02282D01*
X03458Y01003D02*
Y01855D01*
X03246Y02067D02*
X03458Y01855D01*
X03246Y02067D02*
Y02159D01*
X03509Y02037D02*
Y02126D01*
X03558Y02075D02*
X03606Y02027D01*
X02243Y0249D02*
X02333Y024D01*
Y02127D02*
Y024D01*
X0227Y02064D02*
X02333Y02127D01*
X02325Y02061D02*
X02366Y02102D01*
Y02422*
X0274Y02024D02*
Y02176D01*
X02738Y02022D02*
X0274Y02024D01*
X02067Y01285D02*
X02422D01*
X0156Y01085D02*
Y0114D01*
Y01085D02*
X01594Y01051D01*
X01791*
Y01052*
X01823Y01085*
X0182Y0104D02*
X01845Y01065D01*
X00725Y025D02*
X00745Y0252D01*
Y02902*
X0071Y02937D02*
X00745Y02902D01*
X03658Y00903D02*
X03677D01*
Y00954D02*
X03705Y00983D01*
X03558Y00903D02*
X03606Y00951D01*
Y02027*
X03558Y01003D02*
Y01988D01*
X03509Y02037D02*
X03558Y01988D01*
X03509Y02126D02*
X03558Y02175D01*
X0153Y00766D02*
Y00865D01*
X01379Y0075D02*
X0143Y00801D01*
Y00865*
X01513Y00749D02*
X0153Y00766D01*
X01513Y00731D02*
Y00749D01*
X01379Y0073D02*
Y0075D01*
X01312Y0073D02*
Y00847D01*
X01838Y00863D02*
X02049Y01074D01*
X01838Y0074D02*
Y00863D01*
X01807Y007D02*
Y00863D01*
X0206Y01116*
X01914Y0077D02*
Y00869D01*
X01982Y00937*
X03677Y00903D02*
Y00954D01*
X03705Y00983D02*
Y02027D01*
X03658Y02075D02*
X03705Y02027D01*
X0373Y0206D02*
Y03004D01*
Y0301*
X0385Y0206D02*
Y03D01*
X0252Y01383D02*
X0256D01*
X02422Y01285D02*
X0252Y01383D01*
X03759Y03058D02*
X0376Y0306D01*
X03737Y01989D02*
X03759Y02011D01*
Y03058*
X02691Y02351D02*
X02712Y0233D01*
X02853*
X02874Y02351*
X02813Y0239D02*
X02833Y0237D01*
X01715Y0073D02*
Y00755D01*
X0173Y0077*
Y00865*
X02292Y01031D02*
Y01114D01*
X02157Y00896D02*
X02292Y01031D01*
X02157Y00684D02*
Y00896D01*
X02201Y0064D02*
X0224D01*
X02236Y01053D02*
Y01116D01*
X02119Y00936D02*
X02236Y01053D01*
X02119Y00661D02*
Y00936D01*
Y00661D02*
X0224Y0054D01*
X01208Y02431D02*
Y0277D01*
X01375Y02937*
G54D34*
X00425Y03387D02*
X0114D01*
X01865*
X02575*
X03294*
X02161Y02751D02*
X0223Y02682D01*
X01848Y02695D02*
X01904Y02751D01*
X02161*
X01449Y02598D02*
X0148Y0263D01*
X0168D02*
X01744Y02694D01*
X0148Y0263D02*
X0168D01*
X01449Y0255D02*
Y02598D01*
X01281Y02382D02*
X01449Y0255D01*
X01475Y02322D02*
X01848Y02695D01*
X00572Y017D02*
Y02173D01*
X00721Y02322*
X01475*
X00572Y02173D02*
Y02395D01*
X02219Y0267D02*
X0223Y02682D01*
X02219Y02658D02*
Y0267D01*
X00666Y02661D02*
Y02663D01*
X00702Y027D02*
X00704D01*
X00666Y02663D02*
X00702Y027D01*
X00392Y02653D02*
Y02663D01*
X00393Y02661D02*
X00666D01*
X00392Y02663D02*
X00393Y02661D01*
Y02573D02*
X00572Y02395D01*
X00393Y02573D02*
Y02661D01*
X00666Y02382D02*
X01281D01*
X00558Y0249D02*
Y02574D01*
Y0249D02*
X00666Y02382D01*
G54D36*
X00367Y03561D03*
X03358Y00903D03*
Y02075D03*
X02223Y02203D03*
X02563Y03561D03*
X01833D03*
X01118D03*
X0123Y00865D03*
G54D37*
X00467Y03561D03*
X00567D03*
X00667D03*
X00767D03*
X00867D03*
X03458Y00903D03*
X03558D03*
X03658D03*
Y01003D03*
X03558D03*
X03458D03*
X03358D03*
X03458Y02075D03*
X03558D03*
X03658D03*
Y02175D03*
X03558D03*
X03458D03*
X03358D03*
X0224Y0024D03*
Y0034D03*
Y0044D03*
Y0054D03*
Y0064D03*
X02123Y02203D03*
X02023D03*
X01923D03*
X01823D03*
X01723D03*
X02663Y03561D03*
X02763D03*
X02863D03*
X02963D03*
X03063D03*
X01933D03*
X02033D03*
X02133D03*
X02233D03*
X02333D03*
X01218D03*
X01318D03*
X01418D03*
X01518D03*
X01618D03*
X0133Y00865D03*
X0143D03*
X0153D03*
X0163D03*
X0173D03*
G54D38*
X0379Y0391D03*
X0016D03*
Y0028D03*
X0379D03*
G54D39*
X0224Y0074D03*
G54D40*
X02176Y03786D03*
X02906D03*
X00708D03*
X01461D03*
G54D41*
X02313Y03786D03*
X03043D03*
X00846D03*
X01598D03*
G54D42*
X00361Y01288D03*
G54D43*
X00486Y01483D03*
X00241D03*
G54D44*
X0268Y0176D03*
Y0157D03*
G54D45*
X00357Y00515D03*
Y01032D03*
G54D46*
X00463Y00636D03*
Y00734D03*
Y00813D03*
Y00911D03*
G54D47*
X01274Y03637D03*
X00516Y03637D03*
X01632Y02223D03*
X00406Y0191D03*
X00089Y01919D03*
X00067Y0202D03*
X01122Y00963D03*
X02181Y01116D03*
X02125D03*
X01312Y0058D03*
X0187Y01116D03*
X01194Y02185D03*
X01185Y0174D03*
X01232Y01703D03*
X0155Y0183D03*
X0244Y02541D03*
X02665D03*
X0259D03*
X02515D03*
X02677Y0298D03*
X02602D03*
X02527D03*
X02452D03*
X02821Y03043D03*
X02234Y02988D03*
X01369Y02986D03*
X01446Y00583D03*
X0214Y00496D03*
X03246Y02159D03*
X02874Y02351D03*
X00466Y00358D03*
X01715Y0058D03*
X01246Y00578D03*
X03034Y02213D03*
X02243Y0249D03*
X02325Y02061D03*
X0227Y02064D03*
X0274Y02176D03*
X02738Y02022D03*
X02719Y0239D03*
X02691Y02351D03*
X01925Y01116D03*
X0156Y0114D03*
X0182Y0104D03*
X01085Y02135D03*
X00725Y025D03*
X00704Y027D03*
X01936Y0379D03*
X0071Y02937D03*
X02513Y01212D03*
X01375Y02937D03*
X02513Y01267D03*
X02767Y03789D03*
X0253Y01875D03*
X02657Y0379D03*
X0253Y0193D03*
X0175Y024D03*
X02366Y02422D03*
X02046Y03789D03*
X02067Y01285D03*
X02714Y03637D03*
X01992D03*
X00558Y02574D03*
X02078Y0252D03*
Y02574D03*
Y02684D03*
X02076Y02628D03*
X02076Y02881D03*
Y02937D03*
X02078Y02992D03*
X01525Y02882D03*
Y02937D03*
X01526Y02992D03*
X00557Y02937D03*
Y02992D03*
X02513Y01439D03*
Y01494D03*
X01883Y02063D03*
X01828D03*
X01995D03*
X0194D03*
X0155Y0161D03*
X0172Y02065D03*
X0149Y0155D03*
X02345Y0172D03*
X02606Y01847D03*
X0277Y0187D03*
X02767Y01443D03*
X02583D03*
X0219Y01675D03*
Y01625D03*
X02345Y01615D03*
X0155Y0132D03*
Y01375D03*
X00569Y03789D03*
X00459Y0379D03*
X01526Y02575D03*
X01525Y0252D03*
X01526Y02684D03*
X02075Y01035D03*
X0213D03*
X0206Y0077D03*
X0205Y00535D03*
X00783Y02492D03*
X0229D03*
X0282D03*
X03011Y0252D03*
Y02574D03*
X03005Y027D03*
X01315Y02505D03*
X00935Y02539D03*
X0101D03*
X01085D03*
X0116D03*
X00945Y0298D03*
X0102D03*
X01095D03*
X0117D03*
X00727Y02988D03*
X00969Y02182D03*
X01324Y03789D03*
X01214Y0379D03*
X01815Y01116D03*
X0176D03*
X01705D03*
X01649Y01114D03*
X02229Y02937D03*
X0287Y02937D03*
X03011Y02992D03*
X03013Y02937D03*
Y02881D03*
X00665Y0165D03*
X00667Y01598D03*
X01225Y00329D03*
X01279D03*
X00583Y00435D03*
X00584Y0049D03*
X00584Y00599D03*
X00739Y00497D03*
X01513Y00731D03*
X0138Y0073D03*
X01312D03*
X01838Y0074D03*
X01807Y007D03*
X01914Y0077D03*
X01978Y00937D03*
X02236Y01116D03*
X02292Y01114D03*
X0376Y0306D03*
X0385Y0206D03*
X0388Y01999D03*
X0373Y0206D03*
X0379D03*
X0373Y03004D03*
X0385Y03D03*
X0256Y01383D03*
X03737Y01989D03*
X02833Y0237D03*
X01715Y0073D03*
X01065Y0174D03*
X02Y0143D03*
X02035Y01735D03*
X01889Y01589D03*
X00737Y00394D03*
X00856Y00573D03*
X01142Y00471D03*
X00686Y00375D03*
X0019Y02289D03*
X00558Y02882D03*
X01208Y02431D03*
X02219Y02658D03*
X00473Y0273D03*
X00638Y02473D03*
G54D48*
X01872Y02491D03*
X0165Y024D03*
X00173Y0249D03*
X03145Y02347D03*
X03047Y02655D03*
X01848Y02695D03*
X01744Y02694D03*
X03294Y03387D03*
Y03193D03*
X00425D03*
Y03387D03*
X02575Y03195D03*
Y03387D03*
X0186Y03193D03*
X01865Y03387D03*
X01145Y03195D03*
X0114Y03387D03*
X00811Y02241D03*
X0078Y02104D03*
X01098Y0125D03*
X01002Y00865D03*
X00731Y00862D03*
X00572Y017D03*
X00504Y02338D03*
X00392Y02663D03*
M02*