%FSTAX23Y23*%
%MOIN*%
%SFA1B1*%

%IPPOS*%
%ADD96C,0.002000*%
%ADD97C,0.002670*%
%ADD98C,0.001330*%
%LNcontrolboard-1*%
%LPD*%
G54D96*
X00359Y03553D02*
Y03569D01*
X00375*
Y03553*
X00359*
X00459D02*
Y03569D01*
X00475*
Y03553*
X00459*
X00559D02*
Y03569D01*
X00575*
Y03553*
X00559*
X00659D02*
Y03569D01*
X00675*
Y03553*
X00659*
X00759D02*
Y03569D01*
X00775*
Y03553*
X00759*
X00859D02*
Y03569D01*
X00875*
Y03553*
X00859*
X0379Y03902D02*
X03782Y03918D01*
X03798*
X0379Y03902*
X0016D02*
X00152Y03918D01*
X00168*
X0016Y03902*
Y00272D02*
X00152Y00288D01*
X00168*
X0016Y00272*
X0379D02*
X03782Y00288D01*
X03798*
X0379Y00272*
X02232Y00232D02*
Y00248D01*
X02248*
Y00232*
X02232*
Y00332D02*
Y00348D01*
X02248*
Y00332*
X02232*
Y00432D02*
Y00448D01*
X02248*
Y00432*
X02232*
Y00532D02*
Y00548D01*
X02248*
Y00532*
X02232*
Y00632D02*
Y00648D01*
X02248*
Y00632*
X02232*
Y00732D02*
Y00748D01*
X02248*
Y00732*
X02232*
X02176Y03778D02*
X0218Y03782D01*
X02184*
X0218Y03786*
X02184Y0379*
X0218*
X02176Y03794*
X02172Y0379*
X02168*
X02172Y03786*
X02168Y03782*
X02172*
X02176Y03778*
X02313D02*
X02317Y03782D01*
X02321*
X02317Y03786*
X02321Y0379*
X02317*
X02313Y03794*
X02309Y0379*
X02305*
X02309Y03786*
X02305Y03782*
X02309*
X02313Y03778*
X02906D02*
X0291Y03782D01*
X02914*
X0291Y03786*
X02914Y0379*
X0291*
X02906Y03794*
X02902Y0379*
X02898*
X02902Y03786*
X02898Y03782*
X02902*
X02906Y03778*
X03043D02*
X03047Y03782D01*
X03051*
X03047Y03786*
X03051Y0379*
X03047*
X03043Y03794*
X03039Y0379*
X03035*
X03039Y03786*
X03035Y03782*
X03039*
X03043Y03778*
X00708D02*
X00712Y03782D01*
X00716*
X00712Y03786*
X00716Y0379*
X00712*
X00708Y03794*
X00704Y0379*
X007*
X00704Y03786*
X007Y03782*
X00704*
X00708Y03778*
X00846D02*
X0085Y03782D01*
X00854*
X0085Y03786*
X00854Y0379*
X0085*
X00846Y03794*
X00842Y0379*
X00838*
X00842Y03786*
X00838Y03782*
X00842*
X00846Y03778*
X01461D02*
X01465Y03782D01*
X01469*
X01465Y03786*
X01469Y0379*
X01465*
X01461Y03794*
X01457Y0379*
X01453*
X01457Y03786*
X01453Y03782*
X01457*
X01461Y03778*
X01598D02*
X01602Y03782D01*
X01606*
X01602Y03786*
X01606Y0379*
X01602*
X01598Y03794*
X01594Y0379*
X0159*
X01594Y03786*
X0159Y03782*
X01594*
X01598Y03778*
X00353Y0128D02*
X00357Y01288D01*
X00353Y01296*
X00361Y01292*
X00369Y01296*
X00365Y01288*
X00369Y0128*
X00361Y01284*
X00353Y0128*
X00478Y01475D02*
X00482Y01483D01*
X00478Y01491*
X00486Y01487*
X00494Y01491*
X0049Y01483*
X00494Y01475*
X00486Y01479*
X00478Y01475*
X00233D02*
X00237Y01483D01*
X00233Y01491*
X00241Y01487*
X00249Y01491*
X00245Y01483*
X00249Y01475*
X00241Y01479*
X00233Y01475*
X02676Y01756D02*
Y01752D01*
X02684*
Y01756*
X02688*
Y01764*
X02684*
Y01768*
X02676*
Y01764*
X02672*
Y01756*
X02676*
Y01566D02*
Y01562D01*
X02684*
Y01566*
X02688*
Y01574*
X02684*
Y01578*
X02676*
Y01574*
X02672*
Y01566*
X02676*
X02215Y02195D02*
Y02211D01*
X02231*
Y02195*
X02215*
X02115D02*
Y02211D01*
X02131*
Y02195*
X02115*
X02015D02*
Y02211D01*
X02031*
Y02195*
X02015*
X01915D02*
Y02211D01*
X01931*
Y02195*
X01915*
X01815D02*
Y02211D01*
X01831*
Y02195*
X01815*
X01715D02*
Y02211D01*
X01731*
Y02195*
X01715*
X00349Y00507D02*
X00353D01*
X00357Y00511*
X00361Y00507*
X00365*
Y00511*
X00361Y00515*
X00365Y00519*
Y00523*
X00361*
X00357Y00519*
X00353Y00523*
X00349*
Y00519*
X00353Y00515*
X00349Y00511*
Y00507*
Y01024D02*
X00353D01*
X00357Y01028*
X00361Y01024*
X00365*
Y01028*
X00361Y01032*
X00365Y01036*
Y0104*
X00361*
X00357Y01036*
X00353Y0104*
X00349*
Y01036*
X00353Y01032*
X00349Y01028*
Y01024*
X00455Y00636D02*
X00463Y00644D01*
X00471Y00636*
X00463Y00628*
X00455Y00636*
Y00734D02*
X00463Y00742D01*
X00471Y00734*
X00463Y00726*
X00455Y00734*
Y00813D02*
X00463Y00821D01*
X00471Y00813*
X00463Y00805*
X00455Y00813*
Y00911D02*
X00463Y00919D01*
X00471Y00911*
X00463Y00903*
X00455Y00911*
X02555Y03553D02*
Y03569D01*
X02571*
Y03553*
X02555*
X02655D02*
Y03569D01*
X02671*
Y03553*
X02655*
X02755D02*
Y03569D01*
X02771*
Y03553*
X02755*
X02855D02*
Y03569D01*
X02871*
Y03553*
X02855*
X02955D02*
Y03569D01*
X02971*
Y03553*
X02955*
X03055D02*
Y03569D01*
X03071*
Y03553*
X03055*
X01825D02*
Y03569D01*
X01841*
Y03553*
X01825*
X01925D02*
Y03569D01*
X01941*
Y03553*
X01925*
X02025D02*
Y03569D01*
X02041*
Y03553*
X02025*
X02125D02*
Y03569D01*
X02141*
Y03553*
X02125*
X02225D02*
Y03569D01*
X02241*
Y03553*
X02225*
X02325D02*
Y03569D01*
X02341*
Y03553*
X02325*
X0111D02*
Y03569D01*
X01126*
Y03553*
X0111*
X0121D02*
Y03569D01*
X01226*
Y03553*
X0121*
X0131D02*
Y03569D01*
X01326*
Y03553*
X0131*
X0141D02*
Y03569D01*
X01426*
Y03553*
X0141*
X0151D02*
Y03569D01*
X01526*
Y03553*
X0151*
X0161D02*
Y03569D01*
X01626*
Y03553*
X0161*
X01222Y00857D02*
Y00873D01*
X01238*
Y00857*
X01222*
X01322D02*
Y00873D01*
X01338*
Y00857*
X01322*
X01422D02*
Y00873D01*
X01438*
Y00857*
X01422*
X01522D02*
Y00873D01*
X01538*
Y00857*
X01522*
X01622D02*
Y00873D01*
X01638*
Y00857*
X01622*
X01722D02*
Y00873D01*
X01738*
Y00857*
X01722*
X01266Y03629D02*
Y03645D01*
X01282*
Y03629*
X01266*
X0127Y03633D02*
Y03641D01*
X01278*
Y03633*
X0127*
X00508Y03629D02*
Y03645D01*
X00524*
Y03629*
X00508*
X00512Y03633D02*
Y03641D01*
X0052*
Y03633*
X00512*
X01624Y02215D02*
Y02231D01*
X0164*
Y02215*
X01624*
X01628Y02219D02*
Y02227D01*
X01636*
Y02219*
X01628*
X00398Y01902D02*
Y01918D01*
X00414*
Y01902*
X00398*
X00402Y01906D02*
Y01914D01*
X0041*
Y01906*
X00402*
X00081Y01911D02*
Y01927D01*
X00097*
Y01911*
X00081*
X00085Y01915D02*
Y01923D01*
X00093*
Y01915*
X00085*
X00059Y02012D02*
Y02028D01*
X00075*
Y02012*
X00059*
X00063Y02016D02*
Y02024D01*
X00071*
Y02016*
X00063*
X01114Y00955D02*
Y00971D01*
X0113*
Y00955*
X01114*
X01118Y00959D02*
Y00967D01*
X01126*
Y00959*
X01118*
X02173Y01108D02*
Y01124D01*
X02189*
Y01108*
X02173*
X02177Y01112D02*
Y0112D01*
X02185*
Y01112*
X02177*
X02117Y01108D02*
Y01124D01*
X02133*
Y01108*
X02117*
X02121Y01112D02*
Y0112D01*
X02129*
Y01112*
X02121*
X01304Y00572D02*
Y00588D01*
X0132*
Y00572*
X01304*
X01308Y00576D02*
Y00584D01*
X01316*
Y00576*
X01308*
X01862Y01108D02*
Y01124D01*
X01878*
Y01108*
X01862*
X01866Y01112D02*
Y0112D01*
X01874*
Y01112*
X01866*
X01186Y02177D02*
Y02193D01*
X01202*
Y02177*
X01186*
X0119Y02181D02*
Y02189D01*
X01198*
Y02181*
X0119*
X01177Y01732D02*
Y01748D01*
X01193*
Y01732*
X01177*
X01181Y01736D02*
Y01744D01*
X01189*
Y01736*
X01181*
X01224Y01695D02*
Y01711D01*
X0124*
Y01695*
X01224*
X01228Y01699D02*
Y01707D01*
X01236*
Y01699*
X01228*
X01542Y01822D02*
Y01838D01*
X01558*
Y01822*
X01542*
X01546Y01826D02*
Y01834D01*
X01554*
Y01826*
X01546*
X02432Y02533D02*
Y02549D01*
X02448*
Y02533*
X02432*
X02436Y02537D02*
Y02545D01*
X02444*
Y02537*
X02436*
X02657Y02533D02*
Y02549D01*
X02673*
Y02533*
X02657*
X02661Y02537D02*
Y02545D01*
X02669*
Y02537*
X02661*
X02582Y02533D02*
Y02549D01*
X02598*
Y02533*
X02582*
X02586Y02537D02*
Y02545D01*
X02594*
Y02537*
X02586*
X02507Y02533D02*
Y02549D01*
X02523*
Y02533*
X02507*
X02511Y02537D02*
Y02545D01*
X02519*
Y02537*
X02511*
X02669Y02972D02*
Y02988D01*
X02685*
Y02972*
X02669*
X02673Y02976D02*
Y02984D01*
X02681*
Y02976*
X02673*
X02594Y02972D02*
Y02988D01*
X0261*
Y02972*
X02594*
X02598Y02976D02*
Y02984D01*
X02606*
Y02976*
X02598*
X02519Y02972D02*
Y02988D01*
X02535*
Y02972*
X02519*
X02523Y02976D02*
Y02984D01*
X02531*
Y02976*
X02523*
X02444Y02972D02*
Y02988D01*
X0246*
Y02972*
X02444*
X02448Y02976D02*
Y02984D01*
X02456*
Y02976*
X02448*
X02813Y03035D02*
Y03051D01*
X02829*
Y03035*
X02813*
X02817Y03039D02*
Y03047D01*
X02825*
Y03039*
X02817*
X02226Y0298D02*
Y02996D01*
X02242*
Y0298*
X02226*
X0223Y02984D02*
Y02992D01*
X02238*
Y02984*
X0223*
X01361Y02978D02*
Y02994D01*
X01377*
Y02978*
X01361*
X01365Y02982D02*
Y0299D01*
X01373*
Y02982*
X01365*
X01438Y00575D02*
Y00591D01*
X01454*
Y00575*
X01438*
X01442Y00579D02*
Y00587D01*
X0145*
Y00579*
X01442*
X02132Y00488D02*
Y00504D01*
X02148*
Y00488*
X02132*
X02136Y00492D02*
Y005D01*
X02144*
Y00492*
X02136*
X03238Y02151D02*
Y02167D01*
X03254*
Y02151*
X03238*
X03242Y02155D02*
Y02163D01*
X0325*
Y02155*
X03242*
X02866Y02343D02*
Y02359D01*
X02882*
Y02343*
X02866*
X0287Y02347D02*
Y02355D01*
X02878*
Y02347*
X0287*
X00458Y00351D02*
Y00367D01*
X00474*
Y00351*
X00458*
X00462Y00355D02*
Y00362D01*
X0047*
Y00355*
X00462*
X01707Y00572D02*
Y00588D01*
X01723*
Y00572*
X01707*
X01711Y00576D02*
Y00584D01*
X01719*
Y00576*
X01711*
X01238Y0057D02*
Y00586D01*
X01254*
Y0057*
X01238*
X01242Y00574D02*
Y00582D01*
X0125*
Y00574*
X01242*
X03026Y02205D02*
Y02221D01*
X03042*
Y02205*
X03026*
X0303Y02209D02*
Y02217D01*
X03038*
Y02209*
X0303*
X02235Y02482D02*
Y02498D01*
X02251*
Y02482*
X02235*
X02239Y02486D02*
Y02494D01*
X02247*
Y02486*
X02239*
X02317Y02053D02*
Y02069D01*
X02333*
Y02053*
X02317*
X02321Y02057D02*
Y02065D01*
X02329*
Y02057*
X02321*
X02262Y02056D02*
Y02072D01*
X02278*
Y02056*
X02262*
X02266Y0206D02*
Y02068D01*
X02274*
Y0206*
X02266*
X02732Y02168D02*
Y02184D01*
X02748*
Y02168*
X02732*
X02736Y02172D02*
Y0218D01*
X02744*
Y02172*
X02736*
X0273Y02014D02*
Y0203D01*
X02746*
Y02014*
X0273*
X02734Y02018D02*
Y02026D01*
X02742*
Y02018*
X02734*
X02711Y02382D02*
Y02398D01*
X02727*
Y02382*
X02711*
X02715Y02386D02*
Y02394D01*
X02723*
Y02386*
X02715*
X02683Y02343D02*
Y02359D01*
X02699*
Y02343*
X02683*
X02687Y02347D02*
Y02355D01*
X02695*
Y02347*
X02687*
X01917Y01108D02*
Y01124D01*
X01933*
Y01108*
X01917*
X01921Y01112D02*
Y0112D01*
X01929*
Y01112*
X01921*
X01552Y01132D02*
Y01148D01*
X01568*
Y01132*
X01552*
X01556Y01136D02*
Y01144D01*
X01564*
Y01136*
X01556*
X01812Y01032D02*
Y01048D01*
X01828*
Y01032*
X01812*
X01816Y01036D02*
Y01044D01*
X01824*
Y01036*
X01816*
X01077Y02127D02*
Y02143D01*
X01093*
Y02127*
X01077*
X01081Y02131D02*
Y02139D01*
X01089*
Y02131*
X01081*
X00717Y02492D02*
Y02508D01*
X00733*
Y02492*
X00717*
X00721Y02496D02*
Y02504D01*
X00729*
Y02496*
X00721*
X00696Y02692D02*
Y02708D01*
X00712*
Y02692*
X00696*
X007Y02696D02*
Y02704D01*
X00708*
Y02696*
X007*
X01928Y03782D02*
Y03798D01*
X01944*
Y03782*
X01928*
X01932Y03786D02*
Y03794D01*
X0194*
Y03786*
X01932*
X00702Y02929D02*
Y02945D01*
X00718*
Y02929*
X00702*
X00706Y02933D02*
Y02941D01*
X00714*
Y02933*
X00706*
X02505Y01204D02*
Y0122D01*
X02521*
Y01204*
X02505*
X02509Y01208D02*
Y01216D01*
X02517*
Y01208*
X02509*
X01367Y02929D02*
Y02945D01*
X01383*
Y02929*
X01367*
X01371Y02933D02*
Y02941D01*
X01379*
Y02933*
X01371*
X02505Y01259D02*
Y01275D01*
X02521*
Y01259*
X02505*
X02509Y01263D02*
Y01271D01*
X02517*
Y01263*
X02509*
X02759Y03781D02*
Y03797D01*
X02775*
Y03781*
X02759*
X02763Y03785D02*
Y03793D01*
X02771*
Y03785*
X02763*
X02522Y01867D02*
Y01883D01*
X02538*
Y01867*
X02522*
X02526Y01871D02*
Y01879D01*
X02534*
Y01871*
X02526*
X02649Y03782D02*
Y03798D01*
X02665*
Y03782*
X02649*
X02653Y03786D02*
Y03794D01*
X02661*
Y03786*
X02653*
X02522Y01922D02*
Y01938D01*
X02538*
Y01922*
X02522*
X02526Y01926D02*
Y01934D01*
X02534*
Y01926*
X02526*
X01742Y02392D02*
Y02408D01*
X01758*
Y02392*
X01742*
X01746Y02396D02*
Y02404D01*
X01754*
Y02396*
X01746*
X02358Y02414D02*
Y0243D01*
X02374*
Y02414*
X02358*
X02362Y02418D02*
Y02426D01*
X0237*
Y02418*
X02362*
X02038Y03781D02*
Y03797D01*
X02054*
Y03781*
X02038*
X02042Y03785D02*
Y03793D01*
X0205*
Y03785*
X02042*
X02059Y01277D02*
Y01293D01*
X02075*
Y01277*
X02059*
X02063Y01281D02*
Y01289D01*
X02071*
Y01281*
X02063*
X02706Y03629D02*
Y03645D01*
X02722*
Y03629*
X02706*
X0271Y03633D02*
Y03641D01*
X02718*
Y03633*
X0271*
X01984Y03629D02*
Y03645D01*
X02*
Y03629*
X01984*
X01988Y03633D02*
Y03641D01*
X01996*
Y03633*
X01988*
X0055Y02566D02*
Y02582D01*
X00566*
Y02566*
X0055*
X00554Y0257D02*
Y02578D01*
X00562*
Y0257*
X00554*
X0207Y02512D02*
Y02528D01*
X02086*
Y02512*
X0207*
X02074Y02516D02*
Y02524D01*
X02082*
Y02516*
X02074*
X0207Y02566D02*
Y02582D01*
X02086*
Y02566*
X0207*
X02074Y0257D02*
Y02578D01*
X02082*
Y0257*
X02074*
X0207Y02676D02*
Y02692D01*
X02086*
Y02676*
X0207*
X02074Y0268D02*
Y02688D01*
X02082*
Y0268*
X02074*
X02068Y0262D02*
Y02636D01*
X02084*
Y0262*
X02068*
X02072Y02624D02*
Y02632D01*
X0208*
Y02624*
X02072*
X02068Y02874D02*
Y0289D01*
X02084*
Y02874*
X02068*
X02072Y02878D02*
Y02885D01*
X0208*
Y02878*
X02072*
X02068Y02929D02*
Y02945D01*
X02084*
Y02929*
X02068*
X02072Y02933D02*
Y02941D01*
X0208*
Y02933*
X02072*
X0207Y02984D02*
Y03D01*
X02086*
Y02984*
X0207*
X02074Y02988D02*
Y02996D01*
X02082*
Y02988*
X02074*
X01517Y02874D02*
Y0289D01*
X01533*
Y02874*
X01517*
X01521Y02878D02*
Y02886D01*
X01529*
Y02878*
X01521*
X01517Y02929D02*
Y02945D01*
X01533*
Y02929*
X01517*
X01521Y02933D02*
Y02941D01*
X01529*
Y02933*
X01521*
X01518Y02984D02*
Y03D01*
X01534*
Y02984*
X01518*
X01522Y02988D02*
Y02996D01*
X0153*
Y02988*
X01522*
X00549Y02929D02*
Y02945D01*
X00565*
Y02929*
X00549*
X00553Y02933D02*
Y02941D01*
X00561*
Y02933*
X00553*
X00549Y02984D02*
Y03D01*
X00565*
Y02984*
X00549*
X00553Y02988D02*
Y02996D01*
X00561*
Y02988*
X00553*
X02505Y01431D02*
Y01447D01*
X02521*
Y01431*
X02505*
X02509Y01435D02*
Y01443D01*
X02517*
Y01435*
X02509*
X02505Y01486D02*
Y01502D01*
X02521*
Y01486*
X02505*
X02509Y0149D02*
Y01498D01*
X02517*
Y0149*
X02509*
X01875Y02055D02*
Y02071D01*
X01891*
Y02055*
X01875*
X01879Y02059D02*
Y02067D01*
X01887*
Y02059*
X01879*
X0182Y02055D02*
Y02071D01*
X01836*
Y02055*
X0182*
X01824Y02059D02*
Y02067D01*
X01832*
Y02059*
X01824*
X01987Y02055D02*
Y02071D01*
X02003*
Y02055*
X01987*
X01991Y02059D02*
Y02067D01*
X01999*
Y02059*
X01991*
X01932Y02055D02*
Y02071D01*
X01948*
Y02055*
X01932*
X01936Y02059D02*
Y02067D01*
X01944*
Y02059*
X01936*
X01542Y01602D02*
Y01618D01*
X01558*
Y01602*
X01542*
X01546Y01606D02*
Y01614D01*
X01554*
Y01606*
X01546*
X01712Y02057D02*
Y02073D01*
X01728*
Y02057*
X01712*
X01716Y02061D02*
Y02069D01*
X01724*
Y02061*
X01716*
X01482Y01542D02*
Y01558D01*
X01498*
Y01542*
X01482*
X01486Y01546D02*
Y01554D01*
X01494*
Y01546*
X01486*
X02337Y01712D02*
Y01728D01*
X02353*
Y01712*
X02337*
X02341Y01716D02*
Y01724D01*
X02349*
Y01716*
X02341*
X02598Y01839D02*
Y01855D01*
X02614*
Y01839*
X02598*
X02602Y01843D02*
Y01851D01*
X0261*
Y01843*
X02602*
X02762Y01862D02*
Y01878D01*
X02778*
Y01862*
X02762*
X02766Y01866D02*
Y01874D01*
X02774*
Y01866*
X02766*
X02759Y01435D02*
Y01451D01*
X02775*
Y01435*
X02759*
X02763Y01439D02*
Y01447D01*
X02771*
Y01439*
X02763*
X02575Y01435D02*
Y01451D01*
X02591*
Y01435*
X02575*
X02579Y01439D02*
Y01447D01*
X02587*
Y01439*
X02579*
X02182Y01667D02*
Y01683D01*
X02198*
Y01667*
X02182*
X02186Y01671D02*
Y01679D01*
X02194*
Y01671*
X02186*
X02182Y01617D02*
Y01633D01*
X02198*
Y01617*
X02182*
X02186Y01621D02*
Y01629D01*
X02194*
Y01621*
X02186*
X02337Y01607D02*
Y01623D01*
X02353*
Y01607*
X02337*
X02341Y01611D02*
Y01619D01*
X02349*
Y01611*
X02341*
X01542Y01312D02*
Y01328D01*
X01558*
Y01312*
X01542*
X01546Y01316D02*
Y01324D01*
X01554*
Y01316*
X01546*
X01542Y01367D02*
Y01383D01*
X01558*
Y01367*
X01542*
X01546Y01371D02*
Y01379D01*
X01554*
Y01371*
X01546*
X00561Y03781D02*
Y03797D01*
X00577*
Y03781*
X00561*
X00565Y03785D02*
Y03793D01*
X00573*
Y03785*
X00565*
X00451Y03782D02*
Y03798D01*
X00467*
Y03782*
X00451*
X00455Y03786D02*
Y03794D01*
X00463*
Y03786*
X00455*
X01518Y02567D02*
Y02583D01*
X01534*
Y02567*
X01518*
X01522Y02571D02*
Y02579D01*
X0153*
Y02571*
X01522*
X01517Y02512D02*
Y02528D01*
X01533*
Y02512*
X01517*
X01521Y02516D02*
Y02524D01*
X01529*
Y02516*
X01521*
X01518Y02676D02*
Y02691D01*
X01534*
Y02676*
X01518*
X01522Y0268D02*
Y02687D01*
X0153*
Y0268*
X01522*
X02067Y01027D02*
Y01043D01*
X02083*
Y01027*
X02067*
X02071Y01031D02*
Y01039D01*
X02079*
Y01031*
X02071*
X02122Y01027D02*
Y01043D01*
X02138*
Y01027*
X02122*
X02126Y01031D02*
Y01039D01*
X02134*
Y01031*
X02126*
X02052Y00762D02*
Y00778D01*
X02068*
Y00762*
X02052*
X02056Y00766D02*
Y00774D01*
X02064*
Y00766*
X02056*
X02042Y00527D02*
Y00543D01*
X02058*
Y00527*
X02042*
X02046Y00531D02*
Y00539D01*
X02054*
Y00531*
X02046*
X00775Y02484D02*
Y025D01*
X00791*
Y02484*
X00775*
X00779Y02488D02*
Y02496D01*
X00787*
Y02488*
X00779*
X02282Y02484D02*
Y025D01*
X02298*
Y02484*
X02282*
X02286Y02488D02*
Y02496D01*
X02294*
Y02488*
X02286*
X02812Y02484D02*
Y025D01*
X02828*
Y02484*
X02812*
X02816Y02488D02*
Y02496D01*
X02824*
Y02488*
X02816*
X03003Y02512D02*
Y02528D01*
X03019*
Y02512*
X03003*
X03007Y02516D02*
Y02524D01*
X03015*
Y02516*
X03007*
X03003Y02566D02*
Y02582D01*
X03019*
Y02566*
X03003*
X03007Y0257D02*
Y02578D01*
X03015*
Y0257*
X03007*
X02997Y02692D02*
Y02708D01*
X03013*
Y02692*
X02997*
X03001Y02696D02*
Y02704D01*
X03009*
Y02696*
X03001*
X01307Y02497D02*
Y02513D01*
X01323*
Y02497*
X01307*
X01311Y02501D02*
Y02509D01*
X01319*
Y02501*
X01311*
X00927Y02531D02*
Y02547D01*
X00943*
Y02531*
X00927*
X00931Y02535D02*
Y02543D01*
X00939*
Y02535*
X00931*
X01002Y02531D02*
Y02547D01*
X01018*
Y02531*
X01002*
X01006Y02535D02*
Y02543D01*
X01014*
Y02535*
X01006*
X01077Y02531D02*
Y02547D01*
X01093*
Y02531*
X01077*
X01081Y02535D02*
Y02543D01*
X01089*
Y02535*
X01081*
X01152Y02531D02*
Y02547D01*
X01168*
Y02531*
X01152*
X01156Y02535D02*
Y02543D01*
X01164*
Y02535*
X01156*
X00937Y02972D02*
Y02988D01*
X00953*
Y02972*
X00937*
X00941Y02976D02*
Y02984D01*
X00949*
Y02976*
X00941*
X01012Y02972D02*
Y02988D01*
X01028*
Y02972*
X01012*
X01016Y02976D02*
Y02984D01*
X01024*
Y02976*
X01016*
X01087Y02972D02*
Y02988D01*
X01103*
Y02972*
X01087*
X01091Y02976D02*
Y02984D01*
X01099*
Y02976*
X01091*
X01162Y02972D02*
Y02988D01*
X01178*
Y02972*
X01162*
X01166Y02976D02*
Y02984D01*
X01174*
Y02976*
X01166*
X00719Y0298D02*
Y02996D01*
X00735*
Y0298*
X00719*
X00723Y02984D02*
Y02992D01*
X00731*
Y02984*
X00723*
X00961Y02174D02*
Y0219D01*
X00977*
Y02174*
X00961*
X00965Y02178D02*
Y02186D01*
X00973*
Y02178*
X00965*
X01316Y03781D02*
Y03797D01*
X01332*
Y03781*
X01316*
X0132Y03785D02*
Y03793D01*
X01328*
Y03785*
X0132*
X01206Y03782D02*
Y03798D01*
X01222*
Y03782*
X01206*
X0121Y03786D02*
Y03794D01*
X01218*
Y03786*
X0121*
X01807Y01108D02*
Y01124D01*
X01823*
Y01108*
X01807*
X01811Y01112D02*
Y0112D01*
X01819*
Y01112*
X01811*
X01752Y01108D02*
Y01124D01*
X01768*
Y01108*
X01752*
X01756Y01112D02*
Y0112D01*
X01764*
Y01112*
X01756*
X01697Y01108D02*
Y01124D01*
X01713*
Y01108*
X01697*
X01701Y01112D02*
Y0112D01*
X01709*
Y01112*
X01701*
X01641Y01106D02*
Y01122D01*
X01657*
Y01106*
X01641*
X01645Y0111D02*
Y01118D01*
X01653*
Y0111*
X01645*
X02221Y02929D02*
Y02945D01*
X02237*
Y02929*
X02221*
X02225Y02933D02*
Y02941D01*
X02233*
Y02933*
X02225*
X02862Y02929D02*
Y02945D01*
X02878*
Y02929*
X02862*
X02866Y02933D02*
Y02941D01*
X02874*
Y02933*
X02866*
X03003Y02984D02*
Y03D01*
X03019*
Y02984*
X03003*
X03007Y02988D02*
Y02996D01*
X03015*
Y02988*
X03007*
X03005Y02929D02*
Y02945D01*
X03021*
Y02929*
X03005*
X03009Y02933D02*
Y02941D01*
X03017*
Y02933*
X03009*
X03005Y02874D02*
Y0289D01*
X03021*
Y02874*
X03005*
X03009Y02878D02*
Y02885D01*
X03017*
Y02878*
X03009*
X00657Y01642D02*
Y01658D01*
X00673*
Y01642*
X00657*
X00661Y01646D02*
Y01654D01*
X00669*
Y01646*
X00661*
X00659Y0159D02*
Y01606D01*
X00675*
Y0159*
X00659*
X00663Y01594D02*
Y01602D01*
X00671*
Y01594*
X00663*
X01218Y00321D02*
Y00337D01*
X01233*
Y00321*
X01218*
X01221Y00325D02*
Y00333D01*
X0123*
Y00325*
X01221*
X01271Y00321D02*
Y00337D01*
X01287*
Y00321*
X01271*
X01276Y00325D02*
Y00333D01*
X01284*
Y00325*
X01276*
X00575Y00427D02*
Y00443D01*
X00591*
Y00427*
X00575*
X00579Y00431D02*
Y00439D01*
X00587*
Y00431*
X00579*
X00576Y00482D02*
Y00498D01*
X00592*
Y00482*
X00576*
X0058Y00486D02*
Y00494D01*
X00588*
Y00486*
X0058*
X00576Y00591D02*
Y00607D01*
X00592*
Y00591*
X00576*
X0058Y00595D02*
Y00603D01*
X00588*
Y00595*
X0058*
X00731Y00489D02*
Y00505D01*
X00747*
Y00489*
X00731*
X00735Y00493D02*
Y00501D01*
X00743*
Y00493*
X00735*
X01505Y00723D02*
Y00739D01*
X01521*
Y00723*
X01505*
X01509Y00727D02*
Y00735D01*
X01517*
Y00727*
X01509*
X01372Y00722D02*
Y00738D01*
X01388*
Y00722*
X01372*
X01376Y00726D02*
Y00734D01*
X01384*
Y00726*
X01376*
X01304Y00722D02*
Y00738D01*
X0132*
Y00722*
X01304*
X01308Y00726D02*
Y00734D01*
X01316*
Y00726*
X01308*
X0183Y00732D02*
Y00748D01*
X01846*
Y00732*
X0183*
X01834Y00736D02*
Y00744D01*
X01842*
Y00736*
X01834*
X01799Y00692D02*
Y00708D01*
X01815*
Y00692*
X01799*
X01803Y00696D02*
Y00704D01*
X01811*
Y00696*
X01803*
X01906Y00762D02*
Y00778D01*
X01922*
Y00762*
X01906*
X0191Y00766D02*
Y00774D01*
X01918*
Y00766*
X0191*
X0197Y00929D02*
Y00945D01*
X01986*
Y00929*
X0197*
X01974Y00933D02*
Y00941D01*
X01982*
Y00933*
X01974*
X02228Y01108D02*
Y01124D01*
X02244*
Y01108*
X02228*
X02232Y01112D02*
Y0112D01*
X0224*
Y01112*
X02232*
X02284Y01106D02*
Y01122D01*
X023*
Y01106*
X02284*
X02288Y0111D02*
Y01118D01*
X02296*
Y0111*
X02288*
X03752Y03052D02*
Y03068D01*
X03768*
Y03052*
X03752*
X03756Y03056D02*
Y03064D01*
X03764*
Y03056*
X03756*
X03842Y02052D02*
Y02068D01*
X03858*
Y02052*
X03842*
X03846Y02056D02*
Y02064D01*
X03854*
Y02056*
X03846*
X03872Y01991D02*
Y02007D01*
X03888*
Y01991*
X03872*
X03876Y01995D02*
Y02003D01*
X03884*
Y01995*
X03876*
X03722Y02052D02*
Y02068D01*
X03738*
Y02052*
X03722*
X03726Y02056D02*
Y02064D01*
X03734*
Y02056*
X03726*
X03782Y02052D02*
Y02068D01*
X03798*
Y02052*
X03782*
X03786Y02056D02*
Y02064D01*
X03794*
Y02056*
X03786*
X03722Y02996D02*
Y03012D01*
X03738*
Y02996*
X03722*
X03726Y03D02*
Y03008D01*
X03734*
Y03*
X03726*
X03842Y02992D02*
Y03008D01*
X03858*
Y02992*
X03842*
X03846Y02996D02*
Y03004D01*
X03854*
Y02996*
X03846*
X02552Y01375D02*
Y01391D01*
X02568*
Y01375*
X02552*
X02556Y01379D02*
Y01387D01*
X02564*
Y01379*
X02556*
X03729Y01981D02*
Y01997D01*
X03745*
Y01981*
X03729*
X03733Y01985D02*
Y01993D01*
X03741*
Y01985*
X03733*
X02825Y02362D02*
Y02378D01*
X02841*
Y02362*
X02825*
X02829Y02366D02*
Y02374D01*
X02837*
Y02366*
X02829*
X01707Y00722D02*
Y00738D01*
X01723*
Y00722*
X01707*
X01711Y00726D02*
Y00734D01*
X01719*
Y00726*
X01711*
X01057Y01732D02*
Y01748D01*
X01073*
Y01732*
X01057*
X01061Y01736D02*
Y01744D01*
X01069*
Y01736*
X01061*
X01992Y01422D02*
Y01438D01*
X02008*
Y01422*
X01992*
X01996Y01426D02*
Y01434D01*
X02004*
Y01426*
X01996*
X02027Y01727D02*
Y01743D01*
X02043*
Y01727*
X02027*
X02031Y01731D02*
Y01739D01*
X02039*
Y01731*
X02031*
X01881Y01581D02*
Y01597D01*
X01897*
Y01581*
X01881*
X01885Y01585D02*
Y01593D01*
X01893*
Y01585*
X01885*
X00729Y00386D02*
Y00402D01*
X00745*
Y00386*
X00729*
X00733Y0039D02*
Y00398D01*
X00741*
Y0039*
X00733*
X00848Y00565D02*
Y00581D01*
X00864*
Y00565*
X00848*
X00852Y00569D02*
Y00577D01*
X0086*
Y00569*
X00852*
X01134Y00463D02*
Y00479D01*
X0115*
Y00463*
X01134*
X01138Y00467D02*
Y00475D01*
X01146*
Y00467*
X01138*
X00678Y00367D02*
Y00383D01*
X00694*
Y00367*
X00678*
X00682Y00371D02*
Y00379D01*
X0069*
Y00371*
X00682*
X00182Y02281D02*
Y02297D01*
X00198*
Y02281*
X00182*
X00186Y02285D02*
Y02293D01*
X00194*
Y02285*
X00186*
X0055Y02874D02*
Y0289D01*
X00566*
Y02874*
X0055*
X00554Y02878D02*
Y02886D01*
X00562*
Y02878*
X00554*
X012Y02423D02*
Y02439D01*
X01216*
Y02423*
X012*
X01204Y02427D02*
Y02435D01*
X01212*
Y02427*
X01204*
X02211Y0265D02*
Y02666D01*
X02227*
Y0265*
X02211*
X02215Y02654D02*
Y02662D01*
X02223*
Y02654*
X02215*
X00465Y02722D02*
Y02738D01*
X00481*
Y02722*
X00465*
X00469Y02726D02*
Y02734D01*
X00477*
Y02726*
X00469*
X0063Y02465D02*
Y02481D01*
X00646*
Y02465*
X0063*
X00634Y02469D02*
Y02477D01*
X00642*
Y02469*
X00634*
G54D97*
X03366Y00903D02*
D01*
X03365Y00903*
X03365Y00904*
X03365Y00904*
X03365Y00905*
X03365Y00905*
X03365Y00906*
X03365Y00906*
X03364Y00907*
X03364Y00907*
X03364Y00908*
X03363Y00908*
X03363Y00908*
X03362Y00909*
X03362Y00909*
X03362Y00909*
X03361Y0091*
X0336Y0091*
X0336Y0091*
X03359Y0091*
X03359Y0091*
X03358Y0091*
X03358Y0091*
X03357*
X03357Y0091*
X03356Y0091*
X03356Y0091*
X03355Y0091*
X03355Y0091*
X03354Y0091*
X03354Y00909*
X03353Y00909*
X03353Y00909*
X03352Y00908*
X03352Y00908*
X03351Y00908*
X03351Y00907*
X03351Y00907*
X0335Y00906*
X0335Y00906*
X0335Y00905*
X0335Y00905*
X0335Y00904*
X0335Y00904*
X0335Y00903*
X0335Y00903*
X0335Y00902*
X0335Y00901*
X0335Y00901*
X0335Y009*
X0335Y009*
X0335Y00899*
X0335Y00899*
X03351Y00898*
X03351Y00898*
X03351Y00897*
X03352Y00897*
X03352Y00897*
X03353Y00896*
X03353Y00896*
X03354Y00896*
X03354Y00895*
X03355Y00895*
X03355Y00895*
X03356Y00895*
X03356Y00895*
X03357Y00895*
X03357Y00895*
X03358*
X03358Y00895*
X03359Y00895*
X03359Y00895*
X0336Y00895*
X0336Y00895*
X03361Y00895*
X03362Y00896*
X03362Y00896*
X03362Y00896*
X03363Y00897*
X03363Y00897*
X03364Y00897*
X03364Y00898*
X03364Y00898*
X03365Y00899*
X03365Y00899*
X03365Y009*
X03365Y009*
X03365Y00901*
X03365Y00901*
X03365Y00902*
X03366Y00903*
X03466D02*
D01*
X03465Y00903*
X03465Y00904*
X03465Y00904*
X03465Y00905*
X03465Y00905*
X03465Y00906*
X03465Y00906*
X03464Y00907*
X03464Y00907*
X03464Y00908*
X03463Y00908*
X03463Y00908*
X03462Y00909*
X03462Y00909*
X03462Y00909*
X03461Y0091*
X0346Y0091*
X0346Y0091*
X03459Y0091*
X03459Y0091*
X03458Y0091*
X03458Y0091*
X03457*
X03457Y0091*
X03456Y0091*
X03456Y0091*
X03455Y0091*
X03455Y0091*
X03454Y0091*
X03454Y00909*
X03453Y00909*
X03453Y00909*
X03452Y00908*
X03452Y00908*
X03451Y00908*
X03451Y00907*
X03451Y00907*
X0345Y00906*
X0345Y00906*
X0345Y00905*
X0345Y00905*
X0345Y00904*
X0345Y00904*
X0345Y00903*
X0345Y00903*
X0345Y00902*
X0345Y00901*
X0345Y00901*
X0345Y009*
X0345Y009*
X0345Y00899*
X0345Y00899*
X03451Y00898*
X03451Y00898*
X03451Y00897*
X03452Y00897*
X03452Y00897*
X03453Y00896*
X03453Y00896*
X03454Y00896*
X03454Y00895*
X03455Y00895*
X03455Y00895*
X03456Y00895*
X03456Y00895*
X03457Y00895*
X03457Y00895*
X03458*
X03458Y00895*
X03459Y00895*
X03459Y00895*
X0346Y00895*
X0346Y00895*
X03461Y00895*
X03462Y00896*
X03462Y00896*
X03462Y00896*
X03463Y00897*
X03463Y00897*
X03464Y00897*
X03464Y00898*
X03464Y00898*
X03465Y00899*
X03465Y00899*
X03465Y009*
X03465Y009*
X03465Y00901*
X03465Y00901*
X03465Y00902*
X03466Y00903*
X03566D02*
D01*
X03565Y00903*
X03565Y00904*
X03565Y00904*
X03565Y00905*
X03565Y00905*
X03565Y00906*
X03565Y00906*
X03564Y00907*
X03564Y00907*
X03564Y00908*
X03563Y00908*
X03563Y00908*
X03562Y00909*
X03562Y00909*
X03562Y00909*
X03561Y0091*
X0356Y0091*
X0356Y0091*
X03559Y0091*
X03559Y0091*
X03558Y0091*
X03558Y0091*
X03557*
X03557Y0091*
X03556Y0091*
X03556Y0091*
X03555Y0091*
X03555Y0091*
X03554Y0091*
X03554Y00909*
X03553Y00909*
X03553Y00909*
X03552Y00908*
X03552Y00908*
X03551Y00908*
X03551Y00907*
X03551Y00907*
X0355Y00906*
X0355Y00906*
X0355Y00905*
X0355Y00905*
X0355Y00904*
X0355Y00904*
X0355Y00903*
X0355Y00903*
X0355Y00902*
X0355Y00901*
X0355Y00901*
X0355Y009*
X0355Y009*
X0355Y00899*
X0355Y00899*
X03551Y00898*
X03551Y00898*
X03551Y00897*
X03552Y00897*
X03552Y00897*
X03553Y00896*
X03553Y00896*
X03554Y00896*
X03554Y00895*
X03555Y00895*
X03555Y00895*
X03556Y00895*
X03556Y00895*
X03557Y00895*
X03557Y00895*
X03558*
X03558Y00895*
X03559Y00895*
X03559Y00895*
X0356Y00895*
X0356Y00895*
X03561Y00895*
X03562Y00896*
X03562Y00896*
X03562Y00896*
X03563Y00897*
X03563Y00897*
X03564Y00897*
X03564Y00898*
X03564Y00898*
X03565Y00899*
X03565Y00899*
X03565Y009*
X03565Y009*
X03565Y00901*
X03565Y00901*
X03565Y00902*
X03566Y00903*
X03666D02*
D01*
X03665Y00903*
X03665Y00904*
X03665Y00904*
X03665Y00905*
X03665Y00905*
X03665Y00906*
X03665Y00906*
X03664Y00907*
X03664Y00907*
X03664Y00908*
X03663Y00908*
X03663Y00908*
X03662Y00909*
X03662Y00909*
X03662Y00909*
X03661Y0091*
X0366Y0091*
X0366Y0091*
X03659Y0091*
X03659Y0091*
X03658Y0091*
X03658Y0091*
X03657*
X03657Y0091*
X03656Y0091*
X03656Y0091*
X03655Y0091*
X03655Y0091*
X03654Y0091*
X03654Y00909*
X03653Y00909*
X03653Y00909*
X03652Y00908*
X03652Y00908*
X03651Y00908*
X03651Y00907*
X03651Y00907*
X0365Y00906*
X0365Y00906*
X0365Y00905*
X0365Y00905*
X0365Y00904*
X0365Y00904*
X0365Y00903*
X0365Y00903*
X0365Y00902*
X0365Y00901*
X0365Y00901*
X0365Y009*
X0365Y009*
X0365Y00899*
X0365Y00899*
X03651Y00898*
X03651Y00898*
X03651Y00897*
X03652Y00897*
X03652Y00897*
X03653Y00896*
X03653Y00896*
X03654Y00896*
X03654Y00895*
X03655Y00895*
X03655Y00895*
X03656Y00895*
X03656Y00895*
X03657Y00895*
X03657Y00895*
X03658*
X03658Y00895*
X03659Y00895*
X03659Y00895*
X0366Y00895*
X0366Y00895*
X03661Y00895*
X03662Y00896*
X03662Y00896*
X03662Y00896*
X03663Y00897*
X03663Y00897*
X03664Y00897*
X03664Y00898*
X03664Y00898*
X03665Y00899*
X03665Y00899*
X03665Y009*
X03665Y009*
X03665Y00901*
X03665Y00901*
X03665Y00902*
X03666Y00903*
Y01003D02*
D01*
X03665Y01003*
X03665Y01004*
X03665Y01004*
X03665Y01005*
X03665Y01005*
X03665Y01006*
X03665Y01006*
X03664Y01007*
X03664Y01007*
X03664Y01008*
X03663Y01008*
X03663Y01008*
X03662Y01009*
X03662Y01009*
X03662Y01009*
X03661Y0101*
X0366Y0101*
X0366Y0101*
X03659Y0101*
X03659Y0101*
X03658Y0101*
X03658Y0101*
X03657*
X03657Y0101*
X03656Y0101*
X03656Y0101*
X03655Y0101*
X03655Y0101*
X03654Y0101*
X03654Y01009*
X03653Y01009*
X03653Y01009*
X03652Y01008*
X03652Y01008*
X03651Y01008*
X03651Y01007*
X03651Y01007*
X0365Y01006*
X0365Y01006*
X0365Y01005*
X0365Y01005*
X0365Y01004*
X0365Y01004*
X0365Y01003*
X0365Y01003*
X0365Y01002*
X0365Y01001*
X0365Y01001*
X0365Y01*
X0365Y01*
X0365Y00999*
X0365Y00999*
X03651Y00998*
X03651Y00998*
X03651Y00997*
X03652Y00997*
X03652Y00997*
X03653Y00996*
X03653Y00996*
X03654Y00996*
X03654Y00995*
X03655Y00995*
X03655Y00995*
X03656Y00995*
X03656Y00995*
X03657Y00995*
X03657Y00995*
X03658*
X03658Y00995*
X03659Y00995*
X03659Y00995*
X0366Y00995*
X0366Y00995*
X03661Y00995*
X03662Y00996*
X03662Y00996*
X03662Y00996*
X03663Y00997*
X03663Y00997*
X03664Y00997*
X03664Y00998*
X03664Y00998*
X03665Y00999*
X03665Y00999*
X03665Y01*
X03665Y01*
X03665Y01001*
X03665Y01001*
X03665Y01002*
X03666Y01003*
X03566D02*
D01*
X03565Y01003*
X03565Y01004*
X03565Y01004*
X03565Y01005*
X03565Y01005*
X03565Y01006*
X03565Y01006*
X03564Y01007*
X03564Y01007*
X03564Y01008*
X03563Y01008*
X03563Y01008*
X03562Y01009*
X03562Y01009*
X03562Y01009*
X03561Y0101*
X0356Y0101*
X0356Y0101*
X03559Y0101*
X03559Y0101*
X03558Y0101*
X03558Y0101*
X03557*
X03557Y0101*
X03556Y0101*
X03556Y0101*
X03555Y0101*
X03555Y0101*
X03554Y0101*
X03554Y01009*
X03553Y01009*
X03553Y01009*
X03552Y01008*
X03552Y01008*
X03551Y01008*
X03551Y01007*
X03551Y01007*
X0355Y01006*
X0355Y01006*
X0355Y01005*
X0355Y01005*
X0355Y01004*
X0355Y01004*
X0355Y01003*
X0355Y01003*
X0355Y01002*
X0355Y01001*
X0355Y01001*
X0355Y01*
X0355Y01*
X0355Y00999*
X0355Y00999*
X03551Y00998*
X03551Y00998*
X03551Y00997*
X03552Y00997*
X03552Y00997*
X03553Y00996*
X03553Y00996*
X03554Y00996*
X03554Y00995*
X03555Y00995*
X03555Y00995*
X03556Y00995*
X03556Y00995*
X03557Y00995*
X03557Y00995*
X03558*
X03558Y00995*
X03559Y00995*
X03559Y00995*
X0356Y00995*
X0356Y00995*
X03561Y00995*
X03562Y00996*
X03562Y00996*
X03562Y00996*
X03563Y00997*
X03563Y00997*
X03564Y00997*
X03564Y00998*
X03564Y00998*
X03565Y00999*
X03565Y00999*
X03565Y01*
X03565Y01*
X03565Y01001*
X03565Y01001*
X03565Y01002*
X03566Y01003*
X03466D02*
D01*
X03465Y01003*
X03465Y01004*
X03465Y01004*
X03465Y01005*
X03465Y01005*
X03465Y01006*
X03465Y01006*
X03464Y01007*
X03464Y01007*
X03464Y01008*
X03463Y01008*
X03463Y01008*
X03462Y01009*
X03462Y01009*
X03462Y01009*
X03461Y0101*
X0346Y0101*
X0346Y0101*
X03459Y0101*
X03459Y0101*
X03458Y0101*
X03458Y0101*
X03457*
X03457Y0101*
X03456Y0101*
X03456Y0101*
X03455Y0101*
X03455Y0101*
X03454Y0101*
X03454Y01009*
X03453Y01009*
X03453Y01009*
X03452Y01008*
X03452Y01008*
X03451Y01008*
X03451Y01007*
X03451Y01007*
X0345Y01006*
X0345Y01006*
X0345Y01005*
X0345Y01005*
X0345Y01004*
X0345Y01004*
X0345Y01003*
X0345Y01003*
X0345Y01002*
X0345Y01001*
X0345Y01001*
X0345Y01*
X0345Y01*
X0345Y00999*
X0345Y00999*
X03451Y00998*
X03451Y00998*
X03451Y00997*
X03452Y00997*
X03452Y00997*
X03453Y00996*
X03453Y00996*
X03454Y00996*
X03454Y00995*
X03455Y00995*
X03455Y00995*
X03456Y00995*
X03456Y00995*
X03457Y00995*
X03457Y00995*
X03458*
X03458Y00995*
X03459Y00995*
X03459Y00995*
X0346Y00995*
X0346Y00995*
X03461Y00995*
X03462Y00996*
X03462Y00996*
X03462Y00996*
X03463Y00997*
X03463Y00997*
X03464Y00997*
X03464Y00998*
X03464Y00998*
X03465Y00999*
X03465Y00999*
X03465Y01*
X03465Y01*
X03465Y01001*
X03465Y01001*
X03465Y01002*
X03466Y01003*
X03366D02*
D01*
X03365Y01003*
X03365Y01004*
X03365Y01004*
X03365Y01005*
X03365Y01005*
X03365Y01006*
X03365Y01006*
X03364Y01007*
X03364Y01007*
X03364Y01008*
X03363Y01008*
X03363Y01008*
X03362Y01009*
X03362Y01009*
X03362Y01009*
X03361Y0101*
X0336Y0101*
X0336Y0101*
X03359Y0101*
X03359Y0101*
X03358Y0101*
X03358Y0101*
X03357*
X03357Y0101*
X03356Y0101*
X03356Y0101*
X03355Y0101*
X03355Y0101*
X03354Y0101*
X03354Y01009*
X03353Y01009*
X03353Y01009*
X03352Y01008*
X03352Y01008*
X03351Y01008*
X03351Y01007*
X03351Y01007*
X0335Y01006*
X0335Y01006*
X0335Y01005*
X0335Y01005*
X0335Y01004*
X0335Y01004*
X0335Y01003*
X0335Y01003*
X0335Y01002*
X0335Y01001*
X0335Y01001*
X0335Y01*
X0335Y01*
X0335Y00999*
X0335Y00999*
X03351Y00998*
X03351Y00998*
X03351Y00997*
X03352Y00997*
X03352Y00997*
X03353Y00996*
X03353Y00996*
X03354Y00996*
X03354Y00995*
X03355Y00995*
X03355Y00995*
X03356Y00995*
X03356Y00995*
X03357Y00995*
X03357Y00995*
X03358*
X03358Y00995*
X03359Y00995*
X03359Y00995*
X0336Y00995*
X0336Y00995*
X03361Y00995*
X03362Y00996*
X03362Y00996*
X03362Y00996*
X03363Y00997*
X03363Y00997*
X03364Y00997*
X03364Y00998*
X03364Y00998*
X03365Y00999*
X03365Y00999*
X03365Y01*
X03365Y01*
X03365Y01001*
X03365Y01001*
X03365Y01002*
X03366Y01003*
Y02075D02*
D01*
X03365Y02075*
X03365Y02076*
X03365Y02076*
X03365Y02077*
X03365Y02077*
X03365Y02078*
X03365Y02078*
X03364Y02079*
X03364Y02079*
X03364Y0208*
X03363Y0208*
X03363Y0208*
X03362Y02081*
X03362Y02081*
X03362Y02081*
X03361Y02082*
X0336Y02082*
X0336Y02082*
X03359Y02082*
X03359Y02082*
X03358Y02082*
X03358Y02082*
X03357*
X03357Y02082*
X03356Y02082*
X03356Y02082*
X03355Y02082*
X03355Y02082*
X03354Y02082*
X03354Y02081*
X03353Y02081*
X03353Y02081*
X03352Y0208*
X03352Y0208*
X03351Y0208*
X03351Y02079*
X03351Y02079*
X0335Y02078*
X0335Y02078*
X0335Y02077*
X0335Y02077*
X0335Y02076*
X0335Y02076*
X0335Y02075*
X0335Y02075*
X0335Y02074*
X0335Y02073*
X0335Y02073*
X0335Y02072*
X0335Y02072*
X0335Y02071*
X0335Y02071*
X03351Y0207*
X03351Y0207*
X03351Y02069*
X03352Y02069*
X03352Y02069*
X03353Y02068*
X03353Y02068*
X03354Y02068*
X03354Y02067*
X03355Y02067*
X03355Y02067*
X03356Y02067*
X03356Y02067*
X03357Y02067*
X03357Y02067*
X03358*
X03358Y02067*
X03359Y02067*
X03359Y02067*
X0336Y02067*
X0336Y02067*
X03361Y02067*
X03362Y02068*
X03362Y02068*
X03362Y02068*
X03363Y02069*
X03363Y02069*
X03364Y02069*
X03364Y0207*
X03364Y0207*
X03365Y02071*
X03365Y02071*
X03365Y02072*
X03365Y02072*
X03365Y02073*
X03365Y02073*
X03365Y02074*
X03366Y02075*
X03466D02*
D01*
X03465Y02075*
X03465Y02076*
X03465Y02076*
X03465Y02077*
X03465Y02077*
X03465Y02078*
X03465Y02078*
X03464Y02079*
X03464Y02079*
X03464Y0208*
X03463Y0208*
X03463Y0208*
X03462Y02081*
X03462Y02081*
X03462Y02081*
X03461Y02082*
X0346Y02082*
X0346Y02082*
X03459Y02082*
X03459Y02082*
X03458Y02082*
X03458Y02082*
X03457*
X03457Y02082*
X03456Y02082*
X03456Y02082*
X03455Y02082*
X03455Y02082*
X03454Y02082*
X03454Y02081*
X03453Y02081*
X03453Y02081*
X03452Y0208*
X03452Y0208*
X03451Y0208*
X03451Y02079*
X03451Y02079*
X0345Y02078*
X0345Y02078*
X0345Y02077*
X0345Y02077*
X0345Y02076*
X0345Y02076*
X0345Y02075*
X0345Y02075*
X0345Y02074*
X0345Y02073*
X0345Y02073*
X0345Y02072*
X0345Y02072*
X0345Y02071*
X0345Y02071*
X03451Y0207*
X03451Y0207*
X03451Y02069*
X03452Y02069*
X03452Y02069*
X03453Y02068*
X03453Y02068*
X03454Y02068*
X03454Y02067*
X03455Y02067*
X03455Y02067*
X03456Y02067*
X03456Y02067*
X03457Y02067*
X03457Y02067*
X03458*
X03458Y02067*
X03459Y02067*
X03459Y02067*
X0346Y02067*
X0346Y02067*
X03461Y02067*
X03462Y02068*
X03462Y02068*
X03462Y02068*
X03463Y02069*
X03463Y02069*
X03464Y02069*
X03464Y0207*
X03464Y0207*
X03465Y02071*
X03465Y02071*
X03465Y02072*
X03465Y02072*
X03465Y02073*
X03465Y02073*
X03465Y02074*
X03466Y02075*
X03566D02*
D01*
X03565Y02075*
X03565Y02076*
X03565Y02076*
X03565Y02077*
X03565Y02077*
X03565Y02078*
X03565Y02078*
X03564Y02079*
X03564Y02079*
X03564Y0208*
X03563Y0208*
X03563Y0208*
X03562Y02081*
X03562Y02081*
X03562Y02081*
X03561Y02082*
X0356Y02082*
X0356Y02082*
X03559Y02082*
X03559Y02082*
X03558Y02082*
X03558Y02082*
X03557*
X03557Y02082*
X03556Y02082*
X03556Y02082*
X03555Y02082*
X03555Y02082*
X03554Y02082*
X03554Y02081*
X03553Y02081*
X03553Y02081*
X03552Y0208*
X03552Y0208*
X03551Y0208*
X03551Y02079*
X03551Y02079*
X0355Y02078*
X0355Y02078*
X0355Y02077*
X0355Y02077*
X0355Y02076*
X0355Y02076*
X0355Y02075*
X0355Y02075*
X0355Y02074*
X0355Y02073*
X0355Y02073*
X0355Y02072*
X0355Y02072*
X0355Y02071*
X0355Y02071*
X03551Y0207*
X03551Y0207*
X03551Y02069*
X03552Y02069*
X03552Y02069*
X03553Y02068*
X03553Y02068*
X03554Y02068*
X03554Y02067*
X03555Y02067*
X03555Y02067*
X03556Y02067*
X03556Y02067*
X03557Y02067*
X03557Y02067*
X03558*
X03558Y02067*
X03559Y02067*
X03559Y02067*
X0356Y02067*
X0356Y02067*
X03561Y02067*
X03562Y02068*
X03562Y02068*
X03562Y02068*
X03563Y02069*
X03563Y02069*
X03564Y02069*
X03564Y0207*
X03564Y0207*
X03565Y02071*
X03565Y02071*
X03565Y02072*
X03565Y02072*
X03565Y02073*
X03565Y02073*
X03565Y02074*
X03566Y02075*
X03666D02*
D01*
X03665Y02075*
X03665Y02076*
X03665Y02076*
X03665Y02077*
X03665Y02077*
X03665Y02078*
X03665Y02078*
X03664Y02079*
X03664Y02079*
X03664Y0208*
X03663Y0208*
X03663Y0208*
X03662Y02081*
X03662Y02081*
X03662Y02081*
X03661Y02082*
X0366Y02082*
X0366Y02082*
X03659Y02082*
X03659Y02082*
X03658Y02082*
X03658Y02082*
X03657*
X03657Y02082*
X03656Y02082*
X03656Y02082*
X03655Y02082*
X03655Y02082*
X03654Y02082*
X03654Y02081*
X03653Y02081*
X03653Y02081*
X03652Y0208*
X03652Y0208*
X03651Y0208*
X03651Y02079*
X03651Y02079*
X0365Y02078*
X0365Y02078*
X0365Y02077*
X0365Y02077*
X0365Y02076*
X0365Y02076*
X0365Y02075*
X0365Y02075*
X0365Y02074*
X0365Y02073*
X0365Y02073*
X0365Y02072*
X0365Y02072*
X0365Y02071*
X0365Y02071*
X03651Y0207*
X03651Y0207*
X03651Y02069*
X03652Y02069*
X03652Y02069*
X03653Y02068*
X03653Y02068*
X03654Y02068*
X03654Y02067*
X03655Y02067*
X03655Y02067*
X03656Y02067*
X03656Y02067*
X03657Y02067*
X03657Y02067*
X03658*
X03658Y02067*
X03659Y02067*
X03659Y02067*
X0366Y02067*
X0366Y02067*
X03661Y02067*
X03662Y02068*
X03662Y02068*
X03662Y02068*
X03663Y02069*
X03663Y02069*
X03664Y02069*
X03664Y0207*
X03664Y0207*
X03665Y02071*
X03665Y02071*
X03665Y02072*
X03665Y02072*
X03665Y02073*
X03665Y02073*
X03665Y02074*
X03666Y02075*
Y02175D02*
D01*
X03665Y02175*
X03665Y02176*
X03665Y02176*
X03665Y02177*
X03665Y02177*
X03665Y02178*
X03665Y02178*
X03664Y02179*
X03664Y02179*
X03664Y0218*
X03663Y0218*
X03663Y0218*
X03662Y02181*
X03662Y02181*
X03662Y02181*
X03661Y02182*
X0366Y02182*
X0366Y02182*
X03659Y02182*
X03659Y02182*
X03658Y02182*
X03658Y02182*
X03657*
X03657Y02182*
X03656Y02182*
X03656Y02182*
X03655Y02182*
X03655Y02182*
X03654Y02182*
X03654Y02181*
X03653Y02181*
X03653Y02181*
X03652Y0218*
X03652Y0218*
X03651Y0218*
X03651Y02179*
X03651Y02179*
X0365Y02178*
X0365Y02178*
X0365Y02177*
X0365Y02177*
X0365Y02176*
X0365Y02176*
X0365Y02175*
X0365Y02175*
X0365Y02174*
X0365Y02173*
X0365Y02173*
X0365Y02172*
X0365Y02172*
X0365Y02171*
X0365Y02171*
X03651Y0217*
X03651Y0217*
X03651Y02169*
X03652Y02169*
X03652Y02169*
X03653Y02168*
X03653Y02168*
X03654Y02168*
X03654Y02167*
X03655Y02167*
X03655Y02167*
X03656Y02167*
X03656Y02167*
X03657Y02167*
X03657Y02167*
X03658*
X03658Y02167*
X03659Y02167*
X03659Y02167*
X0366Y02167*
X0366Y02167*
X03661Y02167*
X03662Y02168*
X03662Y02168*
X03662Y02168*
X03663Y02169*
X03663Y02169*
X03664Y02169*
X03664Y0217*
X03664Y0217*
X03665Y02171*
X03665Y02171*
X03665Y02172*
X03665Y02172*
X03665Y02173*
X03665Y02173*
X03665Y02174*
X03666Y02175*
X03566D02*
D01*
X03565Y02175*
X03565Y02176*
X03565Y02176*
X03565Y02177*
X03565Y02177*
X03565Y02178*
X03565Y02178*
X03564Y02179*
X03564Y02179*
X03564Y0218*
X03563Y0218*
X03563Y0218*
X03562Y02181*
X03562Y02181*
X03562Y02181*
X03561Y02182*
X0356Y02182*
X0356Y02182*
X03559Y02182*
X03559Y02182*
X03558Y02182*
X03558Y02182*
X03557*
X03557Y02182*
X03556Y02182*
X03556Y02182*
X03555Y02182*
X03555Y02182*
X03554Y02182*
X03554Y02181*
X03553Y02181*
X03553Y02181*
X03552Y0218*
X03552Y0218*
X03551Y0218*
X03551Y02179*
X03551Y02179*
X0355Y02178*
X0355Y02178*
X0355Y02177*
X0355Y02177*
X0355Y02176*
X0355Y02176*
X0355Y02175*
X0355Y02175*
X0355Y02174*
X0355Y02173*
X0355Y02173*
X0355Y02172*
X0355Y02172*
X0355Y02171*
X0355Y02171*
X03551Y0217*
X03551Y0217*
X03551Y02169*
X03552Y02169*
X03552Y02169*
X03553Y02168*
X03553Y02168*
X03554Y02168*
X03554Y02167*
X03555Y02167*
X03555Y02167*
X03556Y02167*
X03556Y02167*
X03557Y02167*
X03557Y02167*
X03558*
X03558Y02167*
X03559Y02167*
X03559Y02167*
X0356Y02167*
X0356Y02167*
X03561Y02167*
X03562Y02168*
X03562Y02168*
X03562Y02168*
X03563Y02169*
X03563Y02169*
X03564Y02169*
X03564Y0217*
X03564Y0217*
X03565Y02171*
X03565Y02171*
X03565Y02172*
X03565Y02172*
X03565Y02173*
X03565Y02173*
X03565Y02174*
X03566Y02175*
X03466D02*
D01*
X03465Y02175*
X03465Y02176*
X03465Y02176*
X03465Y02177*
X03465Y02177*
X03465Y02178*
X03465Y02178*
X03464Y02179*
X03464Y02179*
X03464Y0218*
X03463Y0218*
X03463Y0218*
X03462Y02181*
X03462Y02181*
X03462Y02181*
X03461Y02182*
X0346Y02182*
X0346Y02182*
X03459Y02182*
X03459Y02182*
X03458Y02182*
X03458Y02182*
X03457*
X03457Y02182*
X03456Y02182*
X03456Y02182*
X03455Y02182*
X03455Y02182*
X03454Y02182*
X03454Y02181*
X03453Y02181*
X03453Y02181*
X03452Y0218*
X03452Y0218*
X03451Y0218*
X03451Y02179*
X03451Y02179*
X0345Y02178*
X0345Y02178*
X0345Y02177*
X0345Y02177*
X0345Y02176*
X0345Y02176*
X0345Y02175*
X0345Y02175*
X0345Y02174*
X0345Y02173*
X0345Y02173*
X0345Y02172*
X0345Y02172*
X0345Y02171*
X0345Y02171*
X03451Y0217*
X03451Y0217*
X03451Y02169*
X03452Y02169*
X03452Y02169*
X03453Y02168*
X03453Y02168*
X03454Y02168*
X03454Y02167*
X03455Y02167*
X03455Y02167*
X03456Y02167*
X03456Y02167*
X03457Y02167*
X03457Y02167*
X03458*
X03458Y02167*
X03459Y02167*
X03459Y02167*
X0346Y02167*
X0346Y02167*
X03461Y02167*
X03462Y02168*
X03462Y02168*
X03462Y02168*
X03463Y02169*
X03463Y02169*
X03464Y02169*
X03464Y0217*
X03464Y0217*
X03465Y02171*
X03465Y02171*
X03465Y02172*
X03465Y02172*
X03465Y02173*
X03465Y02173*
X03465Y02174*
X03466Y02175*
X03366D02*
D01*
X03365Y02175*
X03365Y02176*
X03365Y02176*
X03365Y02177*
X03365Y02177*
X03365Y02178*
X03365Y02178*
X03364Y02179*
X03364Y02179*
X03364Y0218*
X03363Y0218*
X03363Y0218*
X03362Y02181*
X03362Y02181*
X03362Y02181*
X03361Y02182*
X0336Y02182*
X0336Y02182*
X03359Y02182*
X03359Y02182*
X03358Y02182*
X03358Y02182*
X03357*
X03357Y02182*
X03356Y02182*
X03356Y02182*
X03355Y02182*
X03355Y02182*
X03354Y02182*
X03354Y02181*
X03353Y02181*
X03353Y02181*
X03352Y0218*
X03352Y0218*
X03351Y0218*
X03351Y02179*
X03351Y02179*
X0335Y02178*
X0335Y02178*
X0335Y02177*
X0335Y02177*
X0335Y02176*
X0335Y02176*
X0335Y02175*
X0335Y02175*
X0335Y02174*
X0335Y02173*
X0335Y02173*
X0335Y02172*
X0335Y02172*
X0335Y02171*
X0335Y02171*
X03351Y0217*
X03351Y0217*
X03351Y02169*
X03352Y02169*
X03352Y02169*
X03353Y02168*
X03353Y02168*
X03354Y02168*
X03354Y02167*
X03355Y02167*
X03355Y02167*
X03356Y02167*
X03356Y02167*
X03357Y02167*
X03357Y02167*
X03358*
X03358Y02167*
X03359Y02167*
X03359Y02167*
X0336Y02167*
X0336Y02167*
X03361Y02167*
X03362Y02168*
X03362Y02168*
X03362Y02168*
X03363Y02169*
X03363Y02169*
X03364Y02169*
X03364Y0217*
X03364Y0217*
X03365Y02171*
X03365Y02171*
X03365Y02172*
X03365Y02172*
X03365Y02173*
X03365Y02173*
X03365Y02174*
X03366Y02175*
X0188Y02491D02*
D01*
X01879Y02491*
X01879Y02492*
X01879Y02492*
X01879Y02493*
X01879Y02493*
X01879Y02494*
X01879Y02494*
X01878Y02495*
X01878Y02495*
X01878Y02496*
X01877Y02496*
X01877Y02496*
X01876Y02497*
X01876Y02497*
X01876Y02497*
X01875Y02498*
X01874Y02498*
X01874Y02498*
X01873Y02498*
X01873Y02498*
X01872Y02498*
X01872Y02498*
X01871*
X01871Y02498*
X0187Y02498*
X0187Y02498*
X01869Y02498*
X01869Y02498*
X01868Y02498*
X01868Y02497*
X01867Y02497*
X01867Y02497*
X01866Y02496*
X01866Y02496*
X01865Y02496*
X01865Y02495*
X01865Y02495*
X01864Y02494*
X01864Y02494*
X01864Y02493*
X01864Y02493*
X01864Y02492*
X01864Y02492*
X01864Y02491*
X01864Y02491*
X01864Y0249*
X01864Y02489*
X01864Y02489*
X01864Y02488*
X01864Y02488*
X01864Y02487*
X01864Y02487*
X01865Y02486*
X01865Y02486*
X01865Y02485*
X01866Y02485*
X01866Y02485*
X01867Y02484*
X01867Y02484*
X01868Y02484*
X01868Y02483*
X01869Y02483*
X01869Y02483*
X0187Y02483*
X0187Y02483*
X01871Y02483*
X01871Y02483*
X01872*
X01872Y02483*
X01873Y02483*
X01873Y02483*
X01874Y02483*
X01874Y02483*
X01875Y02483*
X01876Y02484*
X01876Y02484*
X01876Y02484*
X01877Y02485*
X01877Y02485*
X01878Y02485*
X01878Y02486*
X01878Y02486*
X01879Y02487*
X01879Y02487*
X01879Y02488*
X01879Y02488*
X01879Y02489*
X01879Y02489*
X01879Y0249*
X0188Y02491*
X01658Y024D02*
D01*
X01657Y024*
X01657Y02401*
X01657Y02401*
X01657Y02402*
X01657Y02402*
X01657Y02403*
X01657Y02403*
X01656Y02404*
X01656Y02404*
X01656Y02405*
X01655Y02405*
X01655Y02405*
X01654Y02406*
X01654Y02406*
X01654Y02406*
X01653Y02407*
X01652Y02407*
X01652Y02407*
X01651Y02407*
X01651Y02407*
X0165Y02407*
X0165Y02407*
X01649*
X01649Y02407*
X01648Y02407*
X01648Y02407*
X01647Y02407*
X01647Y02407*
X01646Y02407*
X01646Y02406*
X01645Y02406*
X01645Y02406*
X01644Y02405*
X01644Y02405*
X01643Y02405*
X01643Y02404*
X01643Y02404*
X01642Y02403*
X01642Y02403*
X01642Y02402*
X01642Y02402*
X01642Y02401*
X01642Y02401*
X01642Y024*
X01642Y024*
X01642Y02399*
X01642Y02398*
X01642Y02398*
X01642Y02397*
X01642Y02397*
X01642Y02396*
X01642Y02396*
X01643Y02395*
X01643Y02395*
X01643Y02394*
X01644Y02394*
X01644Y02394*
X01645Y02393*
X01645Y02393*
X01646Y02393*
X01646Y02392*
X01647Y02392*
X01647Y02392*
X01648Y02392*
X01648Y02392*
X01649Y02392*
X01649Y02392*
X0165*
X0165Y02392*
X01651Y02392*
X01651Y02392*
X01652Y02392*
X01652Y02392*
X01653Y02392*
X01654Y02393*
X01654Y02393*
X01654Y02393*
X01655Y02394*
X01655Y02394*
X01656Y02394*
X01656Y02395*
X01656Y02395*
X01657Y02396*
X01657Y02396*
X01657Y02397*
X01657Y02397*
X01657Y02398*
X01657Y02398*
X01657Y02399*
X01658Y024*
X00181Y0249D02*
D01*
X0018Y02491*
X0018Y02491*
X0018Y02492*
X0018Y02492*
X0018Y02493*
X0018Y02493*
X0018Y02494*
X00179Y02494*
X00179Y02495*
X00179Y02495*
X00178Y02496*
X00178Y02496*
X00177Y02497*
X00177Y02497*
X00177Y02497*
X00176Y02497*
X00175Y02498*
X00175Y02498*
X00174Y02498*
X00174Y02498*
X00173Y02498*
X00173Y02498*
X00172*
X00172Y02498*
X00171Y02498*
X00171Y02498*
X0017Y02498*
X0017Y02498*
X00169Y02497*
X00169Y02497*
X00168Y02497*
X00168Y02497*
X00167Y02496*
X00167Y02496*
X00166Y02495*
X00166Y02495*
X00166Y02494*
X00165Y02494*
X00165Y02493*
X00165Y02493*
X00165Y02492*
X00165Y02492*
X00165Y02491*
X00165Y02491*
X00165Y0249*
X00165Y0249*
X00165Y02489*
X00165Y02489*
X00165Y02488*
X00165Y02487*
X00165Y02487*
X00165Y02486*
X00166Y02486*
X00166Y02486*
X00166Y02485*
X00167Y02485*
X00167Y02484*
X00168Y02484*
X00168Y02484*
X00169Y02483*
X00169Y02483*
X0017Y02483*
X0017Y02483*
X00171Y02482*
X00171Y02482*
X00172Y02482*
X00172Y02482*
X00173*
X00173Y02482*
X00174Y02482*
X00174Y02482*
X00175Y02483*
X00175Y02483*
X00176Y02483*
X00177Y02483*
X00177Y02484*
X00177Y02484*
X00178Y02484*
X00178Y02485*
X00179Y02485*
X00179Y02486*
X00179Y02486*
X0018Y02486*
X0018Y02487*
X0018Y02487*
X0018Y02488*
X0018Y02489*
X0018Y02489*
X0018Y0249*
X00181Y0249*
X03153Y02347D02*
D01*
X03152Y02348*
X03152Y02348*
X03152Y02349*
X03152Y02349*
X03152Y0235*
X03152Y0235*
X03152Y02351*
X03151Y02351*
X03151Y02352*
X03151Y02352*
X0315Y02353*
X0315Y02353*
X03149Y02354*
X03149Y02354*
X03149Y02354*
X03148Y02354*
X03147Y02355*
X03147Y02355*
X03146Y02355*
X03146Y02355*
X03145Y02355*
X03145Y02355*
X03144*
X03144Y02355*
X03143Y02355*
X03143Y02355*
X03142Y02355*
X03142Y02355*
X03141Y02354*
X03141Y02354*
X0314Y02354*
X0314Y02354*
X03139Y02353*
X03139Y02353*
X03138Y02352*
X03138Y02352*
X03138Y02351*
X03137Y02351*
X03137Y0235*
X03137Y0235*
X03137Y02349*
X03137Y02349*
X03137Y02348*
X03137Y02348*
X03137Y02347*
X03137Y02347*
X03137Y02346*
X03137Y02346*
X03137Y02345*
X03137Y02344*
X03137Y02344*
X03137Y02343*
X03138Y02343*
X03138Y02343*
X03138Y02342*
X03139Y02342*
X03139Y02341*
X0314Y02341*
X0314Y02341*
X03141Y0234*
X03141Y0234*
X03142Y0234*
X03142Y0234*
X03143Y02339*
X03143Y02339*
X03144Y02339*
X03144Y02339*
X03145*
X03145Y02339*
X03146Y02339*
X03146Y02339*
X03147Y0234*
X03147Y0234*
X03148Y0234*
X03149Y0234*
X03149Y02341*
X03149Y02341*
X0315Y02341*
X0315Y02342*
X03151Y02342*
X03151Y02343*
X03151Y02343*
X03152Y02343*
X03152Y02344*
X03152Y02344*
X03152Y02345*
X03152Y02346*
X03152Y02346*
X03152Y02347*
X03153Y02347*
X03055Y02655D02*
D01*
X03055Y02655*
X03055Y02656*
X03055Y02656*
X03055Y02657*
X03055Y02657*
X03055Y02658*
X03054Y02658*
X03054Y02659*
X03054Y02659*
X03053Y0266*
X03053Y0266*
X03053Y0266*
X03052Y02661*
X03052Y02661*
X03051Y02661*
X03051Y02662*
X0305Y02662*
X0305Y02662*
X03049Y02662*
X03049Y02662*
X03048Y02662*
X03047Y02662*
X03047*
X03046Y02662*
X03046Y02662*
X03045Y02662*
X03045Y02662*
X03044Y02662*
X03044Y02662*
X03043Y02661*
X03043Y02661*
X03042Y02661*
X03042Y0266*
X03041Y0266*
X03041Y0266*
X03041Y02659*
X0304Y02659*
X0304Y02658*
X0304Y02658*
X0304Y02657*
X0304Y02657*
X03039Y02656*
X03039Y02656*
X03039Y02655*
X03039Y02655*
X03039Y02654*
X03039Y02653*
X03039Y02653*
X0304Y02652*
X0304Y02652*
X0304Y02651*
X0304Y02651*
X0304Y0265*
X03041Y0265*
X03041Y02649*
X03041Y02649*
X03042Y02649*
X03042Y02648*
X03043Y02648*
X03043Y02648*
X03044Y02647*
X03044Y02647*
X03045Y02647*
X03045Y02647*
X03046Y02647*
X03046Y02647*
X03047Y02647*
X03047*
X03048Y02647*
X03049Y02647*
X03049Y02647*
X0305Y02647*
X0305Y02647*
X03051Y02647*
X03051Y02648*
X03052Y02648*
X03052Y02648*
X03053Y02649*
X03053Y02649*
X03053Y02649*
X03054Y0265*
X03054Y0265*
X03054Y02651*
X03055Y02651*
X03055Y02652*
X03055Y02652*
X03055Y02653*
X03055Y02653*
X03055Y02654*
X03055Y02655*
X01856Y02695D02*
D01*
X01856Y02695*
X01856Y02696*
X01856Y02696*
X01856Y02697*
X01856Y02697*
X01856Y02698*
X01855Y02698*
X01855Y02699*
X01855Y02699*
X01854Y027*
X01854Y027*
X01854Y027*
X01853Y02701*
X01853Y02701*
X01852Y02701*
X01852Y02702*
X01851Y02702*
X01851Y02702*
X0185Y02702*
X0185Y02702*
X01849Y02702*
X01848Y02702*
X01848*
X01847Y02702*
X01847Y02702*
X01846Y02702*
X01846Y02702*
X01845Y02702*
X01845Y02702*
X01844Y02701*
X01844Y02701*
X01843Y02701*
X01843Y027*
X01842Y027*
X01842Y027*
X01842Y02699*
X01841Y02699*
X01841Y02698*
X01841Y02698*
X01841Y02697*
X01841Y02697*
X0184Y02696*
X0184Y02696*
X0184Y02695*
X0184Y02695*
X0184Y02694*
X0184Y02693*
X0184Y02693*
X01841Y02692*
X01841Y02692*
X01841Y02691*
X01841Y02691*
X01841Y0269*
X01842Y0269*
X01842Y02689*
X01842Y02689*
X01843Y02689*
X01843Y02688*
X01844Y02688*
X01844Y02688*
X01845Y02687*
X01845Y02687*
X01846Y02687*
X01846Y02687*
X01847Y02687*
X01847Y02687*
X01848Y02687*
X01848*
X01849Y02687*
X0185Y02687*
X0185Y02687*
X01851Y02687*
X01851Y02687*
X01852Y02687*
X01852Y02688*
X01853Y02688*
X01853Y02688*
X01854Y02689*
X01854Y02689*
X01854Y02689*
X01855Y0269*
X01855Y0269*
X01855Y02691*
X01856Y02691*
X01856Y02692*
X01856Y02692*
X01856Y02693*
X01856Y02693*
X01856Y02694*
X01856Y02695*
X01752Y02694D02*
D01*
X01752Y02694*
X01752Y02695*
X01752Y02695*
X01751Y02696*
X01751Y02696*
X01751Y02697*
X01751Y02697*
X01751Y02698*
X0175Y02698*
X0175Y02699*
X0175Y02699*
X01749Y02699*
X01749Y027*
X01748Y027*
X01748Y027*
X01747Y02701*
X01747Y02701*
X01746Y02701*
X01746Y02701*
X01745Y02701*
X01745Y02701*
X01744Y02701*
X01744*
X01743Y02701*
X01742Y02701*
X01742Y02701*
X01741Y02701*
X01741Y02701*
X0174Y02701*
X0174Y027*
X01739Y027*
X01739Y027*
X01738Y02699*
X01738Y02699*
X01738Y02699*
X01737Y02698*
X01737Y02698*
X01737Y02697*
X01736Y02697*
X01736Y02696*
X01736Y02696*
X01736Y02695*
X01736Y02695*
X01736Y02694*
X01736Y02694*
X01736Y02693*
X01736Y02692*
X01736Y02692*
X01736Y02691*
X01736Y02691*
X01736Y0269*
X01737Y0269*
X01737Y02689*
X01737Y02689*
X01738Y02688*
X01738Y02688*
X01738Y02688*
X01739Y02687*
X01739Y02687*
X0174Y02687*
X0174Y02686*
X01741Y02686*
X01741Y02686*
X01742Y02686*
X01742Y02686*
X01743Y02686*
X01744Y02686*
X01744*
X01745Y02686*
X01745Y02686*
X01746Y02686*
X01746Y02686*
X01747Y02686*
X01747Y02686*
X01748Y02687*
X01748Y02687*
X01749Y02687*
X01749Y02688*
X0175Y02688*
X0175Y02688*
X0175Y02689*
X01751Y02689*
X01751Y0269*
X01751Y0269*
X01751Y02691*
X01751Y02691*
X01752Y02692*
X01752Y02692*
X01752Y02693*
X01752Y02694*
X03302Y03387D02*
D01*
X03302Y03387*
X03302Y03388*
X03302Y03388*
X03301Y03389*
X03301Y03389*
X03301Y0339*
X03301Y0339*
X03301Y03391*
X033Y03391*
X033Y03392*
X033Y03392*
X03299Y03392*
X03299Y03393*
X03298Y03393*
X03298Y03393*
X03297Y03394*
X03297Y03394*
X03296Y03394*
X03296Y03394*
X03295Y03394*
X03295Y03394*
X03294Y03394*
X03294*
X03293Y03394*
X03292Y03394*
X03292Y03394*
X03291Y03394*
X03291Y03394*
X0329Y03394*
X0329Y03393*
X03289Y03393*
X03289Y03393*
X03288Y03392*
X03288Y03392*
X03288Y03392*
X03287Y03391*
X03287Y03391*
X03287Y0339*
X03286Y0339*
X03286Y03389*
X03286Y03389*
X03286Y03388*
X03286Y03388*
X03286Y03387*
X03286Y03387*
X03286Y03386*
X03286Y03385*
X03286Y03385*
X03286Y03384*
X03286Y03384*
X03286Y03383*
X03287Y03383*
X03287Y03382*
X03287Y03382*
X03288Y03381*
X03288Y03381*
X03288Y03381*
X03289Y0338*
X03289Y0338*
X0329Y0338*
X0329Y03379*
X03291Y03379*
X03291Y03379*
X03292Y03379*
X03292Y03379*
X03293Y03379*
X03294Y03379*
X03294*
X03295Y03379*
X03295Y03379*
X03296Y03379*
X03296Y03379*
X03297Y03379*
X03297Y03379*
X03298Y0338*
X03298Y0338*
X03299Y0338*
X03299Y03381*
X033Y03381*
X033Y03381*
X033Y03382*
X03301Y03382*
X03301Y03383*
X03301Y03383*
X03301Y03384*
X03301Y03384*
X03302Y03385*
X03302Y03385*
X03302Y03386*
X03302Y03387*
Y03193D02*
D01*
X03302Y03193*
X03302Y03194*
X03302Y03194*
X03301Y03195*
X03301Y03195*
X03301Y03196*
X03301Y03196*
X03301Y03197*
X033Y03197*
X033Y03198*
X033Y03198*
X03299Y03198*
X03299Y03199*
X03298Y03199*
X03298Y03199*
X03297Y032*
X03297Y032*
X03296Y032*
X03296Y032*
X03295Y032*
X03295Y032*
X03294Y032*
X03294*
X03293Y032*
X03292Y032*
X03292Y032*
X03291Y032*
X03291Y032*
X0329Y032*
X0329Y03199*
X03289Y03199*
X03289Y03199*
X03288Y03198*
X03288Y03198*
X03288Y03198*
X03287Y03197*
X03287Y03197*
X03287Y03196*
X03286Y03196*
X03286Y03195*
X03286Y03195*
X03286Y03194*
X03286Y03194*
X03286Y03193*
X03286Y03193*
X03286Y03192*
X03286Y03191*
X03286Y03191*
X03286Y0319*
X03286Y0319*
X03286Y03189*
X03287Y03189*
X03287Y03188*
X03287Y03188*
X03288Y03187*
X03288Y03187*
X03288Y03187*
X03289Y03186*
X03289Y03186*
X0329Y03186*
X0329Y03185*
X03291Y03185*
X03291Y03185*
X03292Y03185*
X03292Y03185*
X03293Y03185*
X03294Y03185*
X03294*
X03295Y03185*
X03295Y03185*
X03296Y03185*
X03296Y03185*
X03297Y03185*
X03297Y03185*
X03298Y03186*
X03298Y03186*
X03299Y03186*
X03299Y03187*
X033Y03187*
X033Y03187*
X033Y03188*
X03301Y03188*
X03301Y03189*
X03301Y03189*
X03301Y0319*
X03301Y0319*
X03302Y03191*
X03302Y03191*
X03302Y03192*
X03302Y03193*
X00433D02*
D01*
X00433Y03193*
X00433Y03194*
X00433Y03194*
X00433Y03195*
X00433Y03195*
X00433Y03196*
X00432Y03196*
X00432Y03197*
X00432Y03197*
X00431Y03198*
X00431Y03198*
X00431Y03198*
X0043Y03199*
X0043Y03199*
X00429Y03199*
X00429Y032*
X00428Y032*
X00428Y032*
X00427Y032*
X00427Y032*
X00426Y032*
X00425Y032*
X00425*
X00424Y032*
X00424Y032*
X00423Y032*
X00423Y032*
X00422Y032*
X00422Y032*
X00421Y03199*
X00421Y03199*
X0042Y03199*
X0042Y03198*
X00419Y03198*
X00419Y03198*
X00419Y03197*
X00418Y03197*
X00418Y03196*
X00418Y03196*
X00418Y03195*
X00418Y03195*
X00417Y03194*
X00417Y03194*
X00417Y03193*
X00417Y03193*
X00417Y03192*
X00417Y03191*
X00417Y03191*
X00418Y0319*
X00418Y0319*
X00418Y03189*
X00418Y03189*
X00418Y03188*
X00419Y03188*
X00419Y03187*
X00419Y03187*
X0042Y03187*
X0042Y03186*
X00421Y03186*
X00421Y03186*
X00422Y03185*
X00422Y03185*
X00423Y03185*
X00423Y03185*
X00424Y03185*
X00424Y03185*
X00425Y03185*
X00425*
X00426Y03185*
X00427Y03185*
X00427Y03185*
X00428Y03185*
X00428Y03185*
X00429Y03185*
X00429Y03186*
X0043Y03186*
X0043Y03186*
X00431Y03187*
X00431Y03187*
X00431Y03187*
X00432Y03188*
X00432Y03188*
X00432Y03189*
X00433Y03189*
X00433Y0319*
X00433Y0319*
X00433Y03191*
X00433Y03191*
X00433Y03192*
X00433Y03193*
Y03387D02*
D01*
X00433Y03387*
X00433Y03388*
X00433Y03388*
X00433Y03389*
X00433Y03389*
X00433Y0339*
X00432Y0339*
X00432Y03391*
X00432Y03391*
X00431Y03392*
X00431Y03392*
X00431Y03392*
X0043Y03393*
X0043Y03393*
X00429Y03393*
X00429Y03394*
X00428Y03394*
X00428Y03394*
X00427Y03394*
X00427Y03394*
X00426Y03394*
X00425Y03394*
X00425*
X00424Y03394*
X00424Y03394*
X00423Y03394*
X00423Y03394*
X00422Y03394*
X00422Y03394*
X00421Y03393*
X00421Y03393*
X0042Y03393*
X0042Y03392*
X00419Y03392*
X00419Y03392*
X00419Y03391*
X00418Y03391*
X00418Y0339*
X00418Y0339*
X00418Y03389*
X00418Y03389*
X00417Y03388*
X00417Y03388*
X00417Y03387*
X00417Y03387*
X00417Y03386*
X00417Y03385*
X00417Y03385*
X00418Y03384*
X00418Y03384*
X00418Y03383*
X00418Y03383*
X00418Y03382*
X00419Y03382*
X00419Y03381*
X00419Y03381*
X0042Y03381*
X0042Y0338*
X00421Y0338*
X00421Y0338*
X00422Y03379*
X00422Y03379*
X00423Y03379*
X00423Y03379*
X00424Y03379*
X00424Y03379*
X00425Y03379*
X00425*
X00426Y03379*
X00427Y03379*
X00427Y03379*
X00428Y03379*
X00428Y03379*
X00429Y03379*
X00429Y0338*
X0043Y0338*
X0043Y0338*
X00431Y03381*
X00431Y03381*
X00431Y03381*
X00432Y03382*
X00432Y03382*
X00432Y03383*
X00433Y03383*
X00433Y03384*
X00433Y03384*
X00433Y03385*
X00433Y03385*
X00433Y03386*
X00433Y03387*
X02583Y03195D02*
D01*
X02582Y03195*
X02582Y03196*
X02582Y03196*
X02582Y03197*
X02582Y03197*
X02582Y03198*
X02582Y03198*
X02581Y03199*
X02581Y03199*
X02581Y032*
X0258Y032*
X0258Y032*
X02579Y03201*
X02579Y03201*
X02579Y03201*
X02578Y03202*
X02577Y03202*
X02577Y03202*
X02576Y03202*
X02576Y03202*
X02575Y03202*
X02575Y03202*
X02574*
X02574Y03202*
X02573Y03202*
X02573Y03202*
X02572Y03202*
X02572Y03202*
X02571Y03202*
X02571Y03201*
X0257Y03201*
X0257Y03201*
X02569Y032*
X02569Y032*
X02568Y032*
X02568Y03199*
X02568Y03199*
X02567Y03198*
X02567Y03198*
X02567Y03197*
X02567Y03197*
X02567Y03196*
X02567Y03196*
X02567Y03195*
X02567Y03195*
X02567Y03194*
X02567Y03193*
X02567Y03193*
X02567Y03192*
X02567Y03192*
X02567Y03191*
X02567Y03191*
X02568Y0319*
X02568Y0319*
X02568Y03189*
X02569Y03189*
X02569Y03189*
X0257Y03188*
X0257Y03188*
X02571Y03188*
X02571Y03187*
X02572Y03187*
X02572Y03187*
X02573Y03187*
X02573Y03187*
X02574Y03187*
X02574Y03187*
X02575*
X02575Y03187*
X02576Y03187*
X02576Y03187*
X02577Y03187*
X02577Y03187*
X02578Y03187*
X02579Y03188*
X02579Y03188*
X02579Y03188*
X0258Y03189*
X0258Y03189*
X02581Y03189*
X02581Y0319*
X02581Y0319*
X02582Y03191*
X02582Y03191*
X02582Y03192*
X02582Y03192*
X02582Y03193*
X02582Y03193*
X02582Y03194*
X02583Y03195*
Y03387D02*
D01*
X02582Y03387*
X02582Y03388*
X02582Y03388*
X02582Y03389*
X02582Y03389*
X02582Y0339*
X02582Y0339*
X02581Y03391*
X02581Y03391*
X02581Y03392*
X0258Y03392*
X0258Y03392*
X02579Y03393*
X02579Y03393*
X02579Y03393*
X02578Y03394*
X02577Y03394*
X02577Y03394*
X02576Y03394*
X02576Y03394*
X02575Y03394*
X02575Y03394*
X02574*
X02574Y03394*
X02573Y03394*
X02573Y03394*
X02572Y03394*
X02572Y03394*
X02571Y03394*
X02571Y03393*
X0257Y03393*
X0257Y03393*
X02569Y03392*
X02569Y03392*
X02568Y03392*
X02568Y03391*
X02568Y03391*
X02567Y0339*
X02567Y0339*
X02567Y03389*
X02567Y03389*
X02567Y03388*
X02567Y03388*
X02567Y03387*
X02567Y03387*
X02567Y03386*
X02567Y03385*
X02567Y03385*
X02567Y03384*
X02567Y03384*
X02567Y03383*
X02567Y03383*
X02568Y03382*
X02568Y03382*
X02568Y03381*
X02569Y03381*
X02569Y03381*
X0257Y0338*
X0257Y0338*
X02571Y0338*
X02571Y03379*
X02572Y03379*
X02572Y03379*
X02573Y03379*
X02573Y03379*
X02574Y03379*
X02574Y03379*
X02575*
X02575Y03379*
X02576Y03379*
X02576Y03379*
X02577Y03379*
X02577Y03379*
X02578Y03379*
X02579Y0338*
X02579Y0338*
X02579Y0338*
X0258Y03381*
X0258Y03381*
X02581Y03381*
X02581Y03382*
X02581Y03382*
X02582Y03383*
X02582Y03383*
X02582Y03384*
X02582Y03384*
X02582Y03385*
X02582Y03385*
X02582Y03386*
X02583Y03387*
X01868Y03193D02*
D01*
X01867Y03193*
X01867Y03194*
X01867Y03194*
X01867Y03195*
X01867Y03195*
X01867Y03196*
X01867Y03196*
X01866Y03197*
X01866Y03197*
X01866Y03198*
X01865Y03198*
X01865Y03198*
X01864Y03199*
X01864Y03199*
X01864Y03199*
X01863Y032*
X01862Y032*
X01862Y032*
X01861Y032*
X01861Y032*
X0186Y032*
X0186Y032*
X01859*
X01859Y032*
X01858Y032*
X01858Y032*
X01857Y032*
X01857Y032*
X01856Y032*
X01856Y03199*
X01855Y03199*
X01855Y03199*
X01854Y03198*
X01854Y03198*
X01853Y03198*
X01853Y03197*
X01853Y03197*
X01852Y03196*
X01852Y03196*
X01852Y03195*
X01852Y03195*
X01852Y03194*
X01852Y03194*
X01852Y03193*
X01852Y03193*
X01852Y03192*
X01852Y03191*
X01852Y03191*
X01852Y0319*
X01852Y0319*
X01852Y03189*
X01852Y03189*
X01853Y03188*
X01853Y03188*
X01853Y03187*
X01854Y03187*
X01854Y03187*
X01855Y03186*
X01855Y03186*
X01856Y03186*
X01856Y03185*
X01857Y03185*
X01857Y03185*
X01858Y03185*
X01858Y03185*
X01859Y03185*
X01859Y03185*
X0186*
X0186Y03185*
X01861Y03185*
X01861Y03185*
X01862Y03185*
X01862Y03185*
X01863Y03185*
X01864Y03186*
X01864Y03186*
X01864Y03186*
X01865Y03187*
X01865Y03187*
X01866Y03187*
X01866Y03188*
X01866Y03188*
X01867Y03189*
X01867Y03189*
X01867Y0319*
X01867Y0319*
X01867Y03191*
X01867Y03191*
X01867Y03192*
X01868Y03193*
X01873Y03387D02*
D01*
X01872Y03387*
X01872Y03388*
X01872Y03388*
X01872Y03389*
X01872Y03389*
X01872Y0339*
X01872Y0339*
X01871Y03391*
X01871Y03391*
X01871Y03392*
X0187Y03392*
X0187Y03392*
X01869Y03393*
X01869Y03393*
X01869Y03393*
X01868Y03394*
X01867Y03394*
X01867Y03394*
X01866Y03394*
X01866Y03394*
X01865Y03394*
X01865Y03394*
X01864*
X01864Y03394*
X01863Y03394*
X01863Y03394*
X01862Y03394*
X01862Y03394*
X01861Y03394*
X01861Y03393*
X0186Y03393*
X0186Y03393*
X01859Y03392*
X01859Y03392*
X01858Y03392*
X01858Y03391*
X01858Y03391*
X01857Y0339*
X01857Y0339*
X01857Y03389*
X01857Y03389*
X01857Y03388*
X01857Y03388*
X01857Y03387*
X01857Y03387*
X01857Y03386*
X01857Y03385*
X01857Y03385*
X01857Y03384*
X01857Y03384*
X01857Y03383*
X01857Y03383*
X01858Y03382*
X01858Y03382*
X01858Y03381*
X01859Y03381*
X01859Y03381*
X0186Y0338*
X0186Y0338*
X01861Y0338*
X01861Y03379*
X01862Y03379*
X01862Y03379*
X01863Y03379*
X01863Y03379*
X01864Y03379*
X01864Y03379*
X01865*
X01865Y03379*
X01866Y03379*
X01866Y03379*
X01867Y03379*
X01867Y03379*
X01868Y03379*
X01869Y0338*
X01869Y0338*
X01869Y0338*
X0187Y03381*
X0187Y03381*
X01871Y03381*
X01871Y03382*
X01871Y03382*
X01872Y03383*
X01872Y03383*
X01872Y03384*
X01872Y03384*
X01872Y03385*
X01872Y03385*
X01872Y03386*
X01873Y03387*
X01153Y03195D02*
D01*
X01152Y03195*
X01152Y03196*
X01152Y03196*
X01152Y03197*
X01152Y03197*
X01152Y03198*
X01152Y03198*
X01151Y03199*
X01151Y03199*
X01151Y032*
X0115Y032*
X0115Y032*
X01149Y03201*
X01149Y03201*
X01149Y03201*
X01148Y03202*
X01147Y03202*
X01147Y03202*
X01146Y03202*
X01146Y03202*
X01145Y03202*
X01145Y03202*
X01144*
X01144Y03202*
X01143Y03202*
X01143Y03202*
X01142Y03202*
X01142Y03202*
X01141Y03202*
X01141Y03201*
X0114Y03201*
X0114Y03201*
X01139Y032*
X01139Y032*
X01138Y032*
X01138Y03199*
X01138Y03199*
X01137Y03198*
X01137Y03198*
X01137Y03197*
X01137Y03197*
X01137Y03196*
X01137Y03196*
X01137Y03195*
X01137Y03195*
X01137Y03194*
X01137Y03193*
X01137Y03193*
X01137Y03192*
X01137Y03192*
X01137Y03191*
X01137Y03191*
X01138Y0319*
X01138Y0319*
X01138Y03189*
X01139Y03189*
X01139Y03189*
X0114Y03188*
X0114Y03188*
X01141Y03188*
X01141Y03187*
X01142Y03187*
X01142Y03187*
X01143Y03187*
X01143Y03187*
X01144Y03187*
X01144Y03187*
X01145*
X01145Y03187*
X01146Y03187*
X01146Y03187*
X01147Y03187*
X01147Y03187*
X01148Y03187*
X01149Y03188*
X01149Y03188*
X01149Y03188*
X0115Y03189*
X0115Y03189*
X01151Y03189*
X01151Y0319*
X01151Y0319*
X01152Y03191*
X01152Y03191*
X01152Y03192*
X01152Y03192*
X01152Y03193*
X01152Y03193*
X01152Y03194*
X01153Y03195*
X01148Y03387D02*
D01*
X01147Y03387*
X01147Y03388*
X01147Y03388*
X01147Y03389*
X01147Y03389*
X01147Y0339*
X01147Y0339*
X01146Y03391*
X01146Y03391*
X01146Y03392*
X01145Y03392*
X01145Y03392*
X01144Y03393*
X01144Y03393*
X01144Y03393*
X01143Y03394*
X01142Y03394*
X01142Y03394*
X01141Y03394*
X01141Y03394*
X0114Y03394*
X0114Y03394*
X01139*
X01139Y03394*
X01138Y03394*
X01138Y03394*
X01137Y03394*
X01137Y03394*
X01136Y03394*
X01136Y03393*
X01135Y03393*
X01135Y03393*
X01134Y03392*
X01134Y03392*
X01133Y03392*
X01133Y03391*
X01133Y03391*
X01132Y0339*
X01132Y0339*
X01132Y03389*
X01132Y03389*
X01132Y03388*
X01132Y03388*
X01132Y03387*
X01132Y03387*
X01132Y03386*
X01132Y03385*
X01132Y03385*
X01132Y03384*
X01132Y03384*
X01132Y03383*
X01132Y03383*
X01133Y03382*
X01133Y03382*
X01133Y03381*
X01134Y03381*
X01134Y03381*
X01135Y0338*
X01135Y0338*
X01136Y0338*
X01136Y03379*
X01137Y03379*
X01137Y03379*
X01138Y03379*
X01138Y03379*
X01139Y03379*
X01139Y03379*
X0114*
X0114Y03379*
X01141Y03379*
X01141Y03379*
X01142Y03379*
X01142Y03379*
X01143Y03379*
X01144Y0338*
X01144Y0338*
X01144Y0338*
X01145Y03381*
X01145Y03381*
X01146Y03381*
X01146Y03382*
X01146Y03382*
X01147Y03383*
X01147Y03383*
X01147Y03384*
X01147Y03384*
X01147Y03385*
X01147Y03385*
X01147Y03386*
X01148Y03387*
X00819Y02241D02*
D01*
X00819Y02241*
X00819Y02242*
X00819Y02242*
X00818Y02243*
X00818Y02243*
X00818Y02244*
X00818Y02244*
X00818Y02245*
X00817Y02245*
X00817Y02246*
X00817Y02246*
X00816Y02246*
X00816Y02247*
X00815Y02247*
X00815Y02247*
X00814Y02248*
X00814Y02248*
X00813Y02248*
X00813Y02248*
X00812Y02248*
X00812Y02248*
X00811Y02248*
X00811*
X0081Y02248*
X00809Y02248*
X00809Y02248*
X00808Y02248*
X00808Y02248*
X00807Y02248*
X00807Y02247*
X00806Y02247*
X00806Y02247*
X00805Y02246*
X00805Y02246*
X00805Y02246*
X00804Y02245*
X00804Y02245*
X00804Y02244*
X00803Y02244*
X00803Y02243*
X00803Y02243*
X00803Y02242*
X00803Y02242*
X00803Y02241*
X00803Y02241*
X00803Y0224*
X00803Y02239*
X00803Y02239*
X00803Y02238*
X00803Y02238*
X00803Y02237*
X00804Y02237*
X00804Y02236*
X00804Y02236*
X00805Y02235*
X00805Y02235*
X00805Y02235*
X00806Y02234*
X00806Y02234*
X00807Y02234*
X00807Y02233*
X00808Y02233*
X00808Y02233*
X00809Y02233*
X00809Y02233*
X0081Y02233*
X00811Y02233*
X00811*
X00812Y02233*
X00812Y02233*
X00813Y02233*
X00813Y02233*
X00814Y02233*
X00814Y02233*
X00815Y02234*
X00815Y02234*
X00816Y02234*
X00816Y02235*
X00817Y02235*
X00817Y02235*
X00817Y02236*
X00818Y02236*
X00818Y02237*
X00818Y02237*
X00818Y02238*
X00818Y02238*
X00819Y02239*
X00819Y02239*
X00819Y0224*
X00819Y02241*
X00788Y02104D02*
D01*
X00787Y02104*
X00787Y02105*
X00787Y02105*
X00787Y02106*
X00787Y02107*
X00787Y02107*
X00787Y02108*
X00786Y02108*
X00786Y02108*
X00786Y02109*
X00785Y02109*
X00785Y0211*
X00784Y0211*
X00784Y0211*
X00784Y02111*
X00783Y02111*
X00782Y02111*
X00782Y02111*
X00781Y02112*
X00781Y02112*
X0078Y02112*
X0078Y02112*
X00779*
X00779Y02112*
X00778Y02112*
X00778Y02112*
X00777Y02111*
X00777Y02111*
X00776Y02111*
X00776Y02111*
X00775Y0211*
X00775Y0211*
X00774Y0211*
X00774Y02109*
X00773Y02109*
X00773Y02108*
X00773Y02108*
X00772Y02108*
X00772Y02107*
X00772Y02107*
X00772Y02106*
X00772Y02105*
X00772Y02105*
X00772Y02104*
X00772Y02104*
X00772Y02103*
X00772Y02103*
X00772Y02102*
X00772Y02102*
X00772Y02101*
X00772Y02101*
X00772Y021*
X00773Y021*
X00773Y02099*
X00773Y02099*
X00774Y02098*
X00774Y02098*
X00775Y02097*
X00775Y02097*
X00776Y02097*
X00776Y02097*
X00777Y02096*
X00777Y02096*
X00778Y02096*
X00778Y02096*
X00779Y02096*
X00779Y02096*
X0078*
X0078Y02096*
X00781Y02096*
X00781Y02096*
X00782Y02096*
X00782Y02096*
X00783Y02097*
X00784Y02097*
X00784Y02097*
X00784Y02097*
X00785Y02098*
X00785Y02098*
X00786Y02099*
X00786Y02099*
X00786Y021*
X00787Y021*
X00787Y02101*
X00787Y02101*
X00787Y02102*
X00787Y02102*
X00787Y02103*
X00787Y02103*
X00788Y02104*
X01106Y0125D02*
D01*
X01105Y01251*
X01105Y01251*
X01105Y01252*
X01105Y01252*
X01105Y01253*
X01105Y01253*
X01105Y01254*
X01104Y01254*
X01104Y01255*
X01104Y01255*
X01103Y01256*
X01103Y01256*
X01102Y01257*
X01102Y01257*
X01102Y01257*
X01101Y01257*
X01101Y01258*
X011Y01258*
X01099Y01258*
X01099Y01258*
X01098Y01258*
X01098Y01258*
X01097*
X01097Y01258*
X01096Y01258*
X01096Y01258*
X01095Y01258*
X01095Y01258*
X01094Y01257*
X01094Y01257*
X01093Y01257*
X01093Y01257*
X01092Y01256*
X01092Y01256*
X01091Y01255*
X01091Y01255*
X01091Y01254*
X0109Y01254*
X0109Y01253*
X0109Y01253*
X0109Y01252*
X0109Y01252*
X0109Y01251*
X0109Y01251*
X0109Y0125*
X0109Y0125*
X0109Y01249*
X0109Y01249*
X0109Y01248*
X0109Y01247*
X0109Y01247*
X0109Y01246*
X01091Y01246*
X01091Y01246*
X01091Y01245*
X01092Y01245*
X01092Y01244*
X01093Y01244*
X01093Y01244*
X01094Y01243*
X01094Y01243*
X01095Y01243*
X01095Y01243*
X01096Y01242*
X01096Y01242*
X01097Y01242*
X01097Y01242*
X01098*
X01098Y01242*
X01099Y01242*
X01099Y01242*
X011Y01243*
X01101Y01243*
X01101Y01243*
X01102Y01243*
X01102Y01244*
X01102Y01244*
X01103Y01244*
X01103Y01245*
X01104Y01245*
X01104Y01246*
X01104Y01246*
X01105Y01246*
X01105Y01247*
X01105Y01247*
X01105Y01248*
X01105Y01249*
X01105Y01249*
X01105Y0125*
X01106Y0125*
X0101Y00865D02*
D01*
X01009Y00866*
X01009Y00866*
X01009Y00867*
X01009Y00867*
X01009Y00868*
X01009Y00868*
X01009Y00869*
X01008Y00869*
X01008Y0087*
X01008Y0087*
X01007Y00871*
X01007Y00871*
X01006Y00872*
X01006Y00872*
X01006Y00872*
X01005Y00872*
X01004Y00873*
X01004Y00873*
X01003Y00873*
X01003Y00873*
X01002Y00873*
X01002Y00873*
X01001*
X01001Y00873*
X01Y00873*
X01Y00873*
X00999Y00873*
X00999Y00873*
X00998Y00872*
X00998Y00872*
X00997Y00872*
X00997Y00872*
X00996Y00871*
X00996Y00871*
X00995Y0087*
X00995Y0087*
X00995Y00869*
X00994Y00869*
X00994Y00868*
X00994Y00868*
X00994Y00867*
X00994Y00867*
X00994Y00866*
X00994Y00866*
X00994Y00865*
X00994Y00865*
X00994Y00864*
X00994Y00864*
X00994Y00863*
X00994Y00862*
X00994Y00862*
X00994Y00861*
X00995Y00861*
X00995Y00861*
X00995Y0086*
X00996Y0086*
X00996Y00859*
X00997Y00859*
X00997Y00859*
X00998Y00858*
X00998Y00858*
X00999Y00858*
X00999Y00858*
X01Y00857*
X01Y00857*
X01001Y00857*
X01001Y00857*
X01002*
X01002Y00857*
X01003Y00857*
X01003Y00857*
X01004Y00858*
X01004Y00858*
X01005Y00858*
X01006Y00858*
X01006Y00859*
X01006Y00859*
X01007Y00859*
X01007Y0086*
X01008Y0086*
X01008Y00861*
X01008Y00861*
X01009Y00861*
X01009Y00862*
X01009Y00862*
X01009Y00863*
X01009Y00864*
X01009Y00864*
X01009Y00865*
X0101Y00865*
X00739Y00862D02*
D01*
X00738Y00863*
X00738Y00863*
X00738Y00864*
X00738Y00864*
X00738Y00865*
X00738Y00865*
X00738Y00866*
X00737Y00866*
X00737Y00867*
X00737Y00867*
X00736Y00868*
X00736Y00868*
X00735Y00869*
X00735Y00869*
X00735Y00869*
X00734Y00869*
X00733Y0087*
X00733Y0087*
X00732Y0087*
X00732Y0087*
X00731Y0087*
X00731Y0087*
X0073*
X0073Y0087*
X00729Y0087*
X00729Y0087*
X00728Y0087*
X00728Y0087*
X00727Y00869*
X00727Y00869*
X00726Y00869*
X00726Y00869*
X00725Y00868*
X00725Y00868*
X00724Y00867*
X00724Y00867*
X00724Y00866*
X00723Y00866*
X00723Y00865*
X00723Y00865*
X00723Y00864*
X00723Y00864*
X00723Y00863*
X00723Y00863*
X00723Y00862*
X00723Y00862*
X00723Y00861*
X00723Y00861*
X00723Y0086*
X00723Y00859*
X00723Y00859*
X00723Y00858*
X00724Y00858*
X00724Y00858*
X00724Y00857*
X00725Y00857*
X00725Y00856*
X00726Y00856*
X00726Y00856*
X00727Y00855*
X00727Y00855*
X00728Y00855*
X00728Y00855*
X00729Y00854*
X00729Y00854*
X0073Y00854*
X0073Y00854*
X00731*
X00731Y00854*
X00732Y00854*
X00732Y00854*
X00733Y00855*
X00733Y00855*
X00734Y00855*
X00735Y00855*
X00735Y00856*
X00735Y00856*
X00736Y00856*
X00736Y00857*
X00737Y00857*
X00737Y00858*
X00737Y00858*
X00738Y00858*
X00738Y00859*
X00738Y00859*
X00738Y0086*
X00738Y00861*
X00738Y00861*
X00738Y00862*
X00739Y00862*
X0058Y017D02*
D01*
X00579Y017*
X00579Y01701*
X00579Y01701*
X00579Y01702*
X00579Y01702*
X00579Y01703*
X00579Y01703*
X00578Y01704*
X00578Y01704*
X00578Y01705*
X00577Y01705*
X00577Y01705*
X00576Y01706*
X00576Y01706*
X00576Y01706*
X00575Y01707*
X00574Y01707*
X00574Y01707*
X00573Y01707*
X00573Y01707*
X00572Y01707*
X00572Y01707*
X00571*
X00571Y01707*
X0057Y01707*
X0057Y01707*
X00569Y01707*
X00569Y01707*
X00568Y01707*
X00568Y01706*
X00567Y01706*
X00567Y01706*
X00566Y01705*
X00566Y01705*
X00565Y01705*
X00565Y01704*
X00565Y01704*
X00564Y01703*
X00564Y01703*
X00564Y01702*
X00564Y01702*
X00564Y01701*
X00564Y01701*
X00564Y017*
X00564Y017*
X00564Y01699*
X00564Y01698*
X00564Y01698*
X00564Y01697*
X00564Y01697*
X00564Y01696*
X00564Y01696*
X00565Y01695*
X00565Y01695*
X00565Y01694*
X00566Y01694*
X00566Y01694*
X00567Y01693*
X00567Y01693*
X00568Y01693*
X00568Y01692*
X00569Y01692*
X00569Y01692*
X0057Y01692*
X0057Y01692*
X00571Y01692*
X00571Y01692*
X00572*
X00572Y01692*
X00573Y01692*
X00573Y01692*
X00574Y01692*
X00574Y01692*
X00575Y01692*
X00576Y01693*
X00576Y01693*
X00576Y01693*
X00577Y01694*
X00577Y01694*
X00578Y01694*
X00578Y01695*
X00578Y01695*
X00579Y01696*
X00579Y01696*
X00579Y01697*
X00579Y01697*
X00579Y01698*
X00579Y01698*
X00579Y01699*
X0058Y017*
X00512Y02338D02*
D01*
X00511Y02338*
X00511Y02339*
X00511Y02339*
X00511Y0234*
X00511Y02341*
X00511Y02341*
X00511Y02342*
X0051Y02342*
X0051Y02342*
X0051Y02343*
X00509Y02343*
X00509Y02344*
X00508Y02344*
X00508Y02344*
X00508Y02345*
X00507Y02345*
X00506Y02345*
X00506Y02345*
X00505Y02346*
X00505Y02346*
X00504Y02346*
X00504Y02346*
X00503*
X00503Y02346*
X00502Y02346*
X00502Y02346*
X00501Y02345*
X00501Y02345*
X005Y02345*
X005Y02345*
X00499Y02344*
X00499Y02344*
X00498Y02344*
X00498Y02343*
X00497Y02343*
X00497Y02342*
X00497Y02342*
X00496Y02342*
X00496Y02341*
X00496Y02341*
X00496Y0234*
X00496Y02339*
X00496Y02339*
X00496Y02338*
X00496Y02338*
X00496Y02337*
X00496Y02337*
X00496Y02336*
X00496Y02336*
X00496Y02335*
X00496Y02335*
X00496Y02334*
X00497Y02334*
X00497Y02333*
X00497Y02333*
X00498Y02332*
X00498Y02332*
X00499Y02331*
X00499Y02331*
X005Y02331*
X005Y02331*
X00501Y0233*
X00501Y0233*
X00502Y0233*
X00502Y0233*
X00503Y0233*
X00503Y0233*
X00504*
X00504Y0233*
X00505Y0233*
X00505Y0233*
X00506Y0233*
X00506Y0233*
X00507Y02331*
X00508Y02331*
X00508Y02331*
X00508Y02331*
X00509Y02332*
X00509Y02332*
X0051Y02333*
X0051Y02333*
X0051Y02334*
X00511Y02334*
X00511Y02335*
X00511Y02335*
X00511Y02336*
X00511Y02336*
X00511Y02337*
X00511Y02337*
X00512Y02338*
X004Y02663D02*
D01*
X00399Y02663*
X00399Y02664*
X00399Y02664*
X00399Y02665*
X00399Y02665*
X00399Y02666*
X00399Y02666*
X00398Y02667*
X00398Y02667*
X00398Y02668*
X00397Y02668*
X00397Y02668*
X00396Y02669*
X00396Y02669*
X00396Y02669*
X00395Y0267*
X00394Y0267*
X00394Y0267*
X00393Y0267*
X00393Y0267*
X00392Y0267*
X00392Y0267*
X00391*
X00391Y0267*
X0039Y0267*
X0039Y0267*
X00389Y0267*
X00389Y0267*
X00388Y0267*
X00388Y02669*
X00387Y02669*
X00387Y02669*
X00386Y02668*
X00386Y02668*
X00385Y02668*
X00385Y02667*
X00385Y02667*
X00384Y02666*
X00384Y02666*
X00384Y02665*
X00384Y02665*
X00384Y02664*
X00384Y02664*
X00384Y02663*
X00384Y02663*
X00384Y02662*
X00384Y02661*
X00384Y02661*
X00384Y0266*
X00384Y0266*
X00384Y02659*
X00384Y02659*
X00385Y02658*
X00385Y02658*
X00385Y02657*
X00386Y02657*
X00386Y02657*
X00387Y02656*
X00387Y02656*
X00388Y02656*
X00388Y02655*
X00389Y02655*
X00389Y02655*
X0039Y02655*
X0039Y02655*
X00391Y02655*
X00391Y02655*
X00392*
X00392Y02655*
X00393Y02655*
X00393Y02655*
X00394Y02655*
X00394Y02655*
X00395Y02655*
X00396Y02656*
X00396Y02656*
X00396Y02656*
X00397Y02657*
X00397Y02657*
X00398Y02657*
X00398Y02658*
X00398Y02658*
X00399Y02659*
X00399Y02659*
X00399Y0266*
X00399Y0266*
X00399Y02661*
X00399Y02661*
X00399Y02662*
X004Y02663*
G54D98*
X01876Y02491D02*
D01*
X01875Y02491*
X01875Y02491*
X01875Y02491*
X01875Y02492*
X01875Y02492*
X01875Y02492*
X01875Y02492*
X01875Y02493*
X01875Y02493*
X01875Y02493*
X01874Y02493*
X01874Y02493*
X01874Y02494*
X01874Y02494*
X01874Y02494*
X01873Y02494*
X01873Y02494*
X01873Y02494*
X01872Y02494*
X01872Y02494*
X01872Y02494*
X01872Y02494*
X01871*
X01871Y02494*
X01871Y02494*
X01871Y02494*
X0187Y02494*
X0187Y02494*
X0187Y02494*
X0187Y02494*
X01869Y02494*
X01869Y02494*
X01869Y02493*
X01869Y02493*
X01868Y02493*
X01868Y02493*
X01868Y02493*
X01868Y02492*
X01868Y02492*
X01868Y02492*
X01868Y02492*
X01868Y02491*
X01868Y02491*
X01868Y02491*
X01868Y02491*
X01868Y0249*
X01868Y0249*
X01868Y0249*
X01868Y02489*
X01868Y02489*
X01868Y02489*
X01868Y02489*
X01868Y02488*
X01868Y02488*
X01868Y02488*
X01869Y02488*
X01869Y02488*
X01869Y02487*
X01869Y02487*
X0187Y02487*
X0187Y02487*
X0187Y02487*
X0187Y02487*
X01871Y02487*
X01871Y02487*
X01871Y02487*
X01871Y02487*
X01872*
X01872Y02487*
X01872Y02487*
X01872Y02487*
X01873Y02487*
X01873Y02487*
X01873Y02487*
X01874Y02487*
X01874Y02487*
X01874Y02487*
X01874Y02488*
X01874Y02488*
X01875Y02488*
X01875Y02488*
X01875Y02488*
X01875Y02489*
X01875Y02489*
X01875Y02489*
X01875Y02489*
X01875Y0249*
X01875Y0249*
X01875Y0249*
X01876Y02491*
X01654Y024D02*
D01*
X01653Y024*
X01653Y024*
X01653Y024*
X01653Y02401*
X01653Y02401*
X01653Y02401*
X01653Y02401*
X01653Y02402*
X01653Y02402*
X01653Y02402*
X01652Y02402*
X01652Y02402*
X01652Y02403*
X01652Y02403*
X01652Y02403*
X01651Y02403*
X01651Y02403*
X01651Y02403*
X0165Y02403*
X0165Y02403*
X0165Y02403*
X0165Y02403*
X01649*
X01649Y02403*
X01649Y02403*
X01649Y02403*
X01648Y02403*
X01648Y02403*
X01648Y02403*
X01648Y02403*
X01647Y02403*
X01647Y02403*
X01647Y02402*
X01647Y02402*
X01646Y02402*
X01646Y02402*
X01646Y02402*
X01646Y02401*
X01646Y02401*
X01646Y02401*
X01646Y02401*
X01646Y024*
X01646Y024*
X01646Y024*
X01646Y024*
X01646Y02399*
X01646Y02399*
X01646Y02399*
X01646Y02398*
X01646Y02398*
X01646Y02398*
X01646Y02398*
X01646Y02397*
X01646Y02397*
X01646Y02397*
X01647Y02397*
X01647Y02397*
X01647Y02396*
X01647Y02396*
X01648Y02396*
X01648Y02396*
X01648Y02396*
X01648Y02396*
X01649Y02396*
X01649Y02396*
X01649Y02396*
X01649Y02396*
X0165*
X0165Y02396*
X0165Y02396*
X0165Y02396*
X01651Y02396*
X01651Y02396*
X01651Y02396*
X01652Y02396*
X01652Y02396*
X01652Y02396*
X01652Y02397*
X01652Y02397*
X01653Y02397*
X01653Y02397*
X01653Y02397*
X01653Y02398*
X01653Y02398*
X01653Y02398*
X01653Y02398*
X01653Y02399*
X01653Y02399*
X01653Y02399*
X01654Y024*
X00177Y0249D02*
D01*
X00176Y0249*
X00176Y02491*
X00176Y02491*
X00176Y02491*
X00176Y02492*
X00176Y02492*
X00176Y02492*
X00176Y02492*
X00176Y02493*
X00176Y02493*
X00175Y02493*
X00175Y02493*
X00175Y02493*
X00175Y02494*
X00175Y02494*
X00174Y02494*
X00174Y02494*
X00174Y02494*
X00173Y02494*
X00173Y02494*
X00173Y02494*
X00173Y02494*
X00172*
X00172Y02494*
X00172Y02494*
X00172Y02494*
X00171Y02494*
X00171Y02494*
X00171Y02494*
X00171Y02494*
X0017Y02494*
X0017Y02493*
X0017Y02493*
X0017Y02493*
X00169Y02493*
X00169Y02493*
X00169Y02492*
X00169Y02492*
X00169Y02492*
X00169Y02492*
X00169Y02491*
X00169Y02491*
X00169Y02491*
X00169Y0249*
X00169Y0249*
X00169Y0249*
X00169Y0249*
X00169Y02489*
X00169Y02489*
X00169Y02489*
X00169Y02489*
X00169Y02488*
X00169Y02488*
X00169Y02488*
X00169Y02488*
X0017Y02487*
X0017Y02487*
X0017Y02487*
X0017Y02487*
X00171Y02487*
X00171Y02487*
X00171Y02487*
X00171Y02486*
X00172Y02486*
X00172Y02486*
X00172Y02486*
X00172Y02486*
X00173*
X00173Y02486*
X00173Y02486*
X00173Y02486*
X00174Y02486*
X00174Y02487*
X00174Y02487*
X00175Y02487*
X00175Y02487*
X00175Y02487*
X00175Y02487*
X00175Y02487*
X00176Y02488*
X00176Y02488*
X00176Y02488*
X00176Y02488*
X00176Y02489*
X00176Y02489*
X00176Y02489*
X00176Y02489*
X00176Y0249*
X00176Y0249*
X00177Y0249*
X03149Y02347D02*
D01*
X03148Y02347*
X03148Y02348*
X03148Y02348*
X03148Y02348*
X03148Y02349*
X03148Y02349*
X03148Y02349*
X03148Y02349*
X03148Y0235*
X03148Y0235*
X03147Y0235*
X03147Y0235*
X03147Y0235*
X03147Y02351*
X03147Y02351*
X03146Y02351*
X03146Y02351*
X03146Y02351*
X03145Y02351*
X03145Y02351*
X03145Y02351*
X03145Y02351*
X03144*
X03144Y02351*
X03144Y02351*
X03144Y02351*
X03143Y02351*
X03143Y02351*
X03143Y02351*
X03143Y02351*
X03142Y02351*
X03142Y0235*
X03142Y0235*
X03142Y0235*
X03141Y0235*
X03141Y0235*
X03141Y02349*
X03141Y02349*
X03141Y02349*
X03141Y02349*
X03141Y02348*
X03141Y02348*
X03141Y02348*
X03141Y02347*
X03141Y02347*
X03141Y02347*
X03141Y02347*
X03141Y02346*
X03141Y02346*
X03141Y02346*
X03141Y02346*
X03141Y02345*
X03141Y02345*
X03141Y02345*
X03141Y02345*
X03142Y02344*
X03142Y02344*
X03142Y02344*
X03142Y02344*
X03143Y02344*
X03143Y02344*
X03143Y02344*
X03143Y02343*
X03144Y02343*
X03144Y02343*
X03144Y02343*
X03144Y02343*
X03145*
X03145Y02343*
X03145Y02343*
X03145Y02343*
X03146Y02343*
X03146Y02344*
X03146Y02344*
X03147Y02344*
X03147Y02344*
X03147Y02344*
X03147Y02344*
X03147Y02344*
X03148Y02345*
X03148Y02345*
X03148Y02345*
X03148Y02345*
X03148Y02346*
X03148Y02346*
X03148Y02346*
X03148Y02346*
X03148Y02347*
X03148Y02347*
X03149Y02347*
X03051Y02655D02*
D01*
X03051Y02655*
X03051Y02655*
X03051Y02655*
X03051Y02656*
X03051Y02656*
X03051Y02656*
X03051Y02656*
X03051Y02657*
X0305Y02657*
X0305Y02657*
X0305Y02657*
X0305Y02657*
X0305Y02658*
X03049Y02658*
X03049Y02658*
X03049Y02658*
X03049Y02658*
X03048Y02658*
X03048Y02658*
X03048Y02658*
X03048Y02658*
X03047Y02658*
X03047*
X03047Y02658*
X03047Y02658*
X03046Y02658*
X03046Y02658*
X03046Y02658*
X03045Y02658*
X03045Y02658*
X03045Y02658*
X03045Y02658*
X03045Y02657*
X03044Y02657*
X03044Y02657*
X03044Y02657*
X03044Y02657*
X03044Y02656*
X03044Y02656*
X03043Y02656*
X03043Y02656*
X03043Y02655*
X03043Y02655*
X03043Y02655*
X03043Y02655*
X03043Y02654*
X03043Y02654*
X03043Y02654*
X03043Y02653*
X03043Y02653*
X03044Y02653*
X03044Y02653*
X03044Y02652*
X03044Y02652*
X03044Y02652*
X03044Y02652*
X03045Y02652*
X03045Y02651*
X03045Y02651*
X03045Y02651*
X03045Y02651*
X03046Y02651*
X03046Y02651*
X03046Y02651*
X03047Y02651*
X03047Y02651*
X03047Y02651*
X03047*
X03048Y02651*
X03048Y02651*
X03048Y02651*
X03048Y02651*
X03049Y02651*
X03049Y02651*
X03049Y02651*
X03049Y02651*
X0305Y02651*
X0305Y02652*
X0305Y02652*
X0305Y02652*
X0305Y02652*
X03051Y02652*
X03051Y02653*
X03051Y02653*
X03051Y02653*
X03051Y02653*
X03051Y02654*
X03051Y02654*
X03051Y02654*
X03051Y02655*
X01852Y02695D02*
D01*
X01852Y02695*
X01852Y02695*
X01852Y02695*
X01852Y02696*
X01852Y02696*
X01852Y02696*
X01852Y02696*
X01852Y02697*
X01851Y02697*
X01851Y02697*
X01851Y02697*
X01851Y02697*
X01851Y02698*
X0185Y02698*
X0185Y02698*
X0185Y02698*
X0185Y02698*
X01849Y02698*
X01849Y02698*
X01849Y02698*
X01849Y02698*
X01848Y02698*
X01848*
X01848Y02698*
X01848Y02698*
X01847Y02698*
X01847Y02698*
X01847Y02698*
X01846Y02698*
X01846Y02698*
X01846Y02698*
X01846Y02698*
X01846Y02697*
X01845Y02697*
X01845Y02697*
X01845Y02697*
X01845Y02697*
X01845Y02696*
X01845Y02696*
X01844Y02696*
X01844Y02696*
X01844Y02695*
X01844Y02695*
X01844Y02695*
X01844Y02695*
X01844Y02694*
X01844Y02694*
X01844Y02694*
X01844Y02693*
X01844Y02693*
X01845Y02693*
X01845Y02693*
X01845Y02692*
X01845Y02692*
X01845Y02692*
X01845Y02692*
X01846Y02692*
X01846Y02691*
X01846Y02691*
X01846Y02691*
X01846Y02691*
X01847Y02691*
X01847Y02691*
X01847Y02691*
X01848Y02691*
X01848Y02691*
X01848Y02691*
X01848*
X01849Y02691*
X01849Y02691*
X01849Y02691*
X01849Y02691*
X0185Y02691*
X0185Y02691*
X0185Y02691*
X0185Y02691*
X01851Y02691*
X01851Y02692*
X01851Y02692*
X01851Y02692*
X01851Y02692*
X01852Y02692*
X01852Y02693*
X01852Y02693*
X01852Y02693*
X01852Y02693*
X01852Y02694*
X01852Y02694*
X01852Y02694*
X01852Y02695*
X01748Y02694D02*
D01*
X01748Y02694*
X01748Y02694*
X01748Y02694*
X01748Y02695*
X01748Y02695*
X01747Y02695*
X01747Y02695*
X01747Y02696*
X01747Y02696*
X01747Y02696*
X01747Y02696*
X01746Y02696*
X01746Y02697*
X01746Y02697*
X01746Y02697*
X01746Y02697*
X01745Y02697*
X01745Y02697*
X01745Y02697*
X01744Y02697*
X01744Y02697*
X01744Y02697*
X01744*
X01743Y02697*
X01743Y02697*
X01743Y02697*
X01743Y02697*
X01742Y02697*
X01742Y02697*
X01742Y02697*
X01742Y02697*
X01741Y02697*
X01741Y02696*
X01741Y02696*
X01741Y02696*
X01741Y02696*
X0174Y02696*
X0174Y02695*
X0174Y02695*
X0174Y02695*
X0174Y02695*
X0174Y02694*
X0174Y02694*
X0174Y02694*
X0174Y02694*
X0174Y02693*
X0174Y02693*
X0174Y02693*
X0174Y02692*
X0174Y02692*
X0174Y02692*
X0174Y02692*
X0174Y02691*
X01741Y02691*
X01741Y02691*
X01741Y02691*
X01741Y02691*
X01741Y0269*
X01742Y0269*
X01742Y0269*
X01742Y0269*
X01742Y0269*
X01743Y0269*
X01743Y0269*
X01743Y0269*
X01743Y0269*
X01744Y0269*
X01744*
X01744Y0269*
X01744Y0269*
X01745Y0269*
X01745Y0269*
X01745Y0269*
X01746Y0269*
X01746Y0269*
X01746Y0269*
X01746Y0269*
X01746Y02691*
X01747Y02691*
X01747Y02691*
X01747Y02691*
X01747Y02691*
X01747Y02692*
X01747Y02692*
X01748Y02692*
X01748Y02692*
X01748Y02693*
X01748Y02693*
X01748Y02693*
X01748Y02694*
X03298Y03387D02*
D01*
X03298Y03387*
X03298Y03387*
X03298Y03387*
X03298Y03388*
X03298Y03388*
X03297Y03388*
X03297Y03388*
X03297Y03389*
X03297Y03389*
X03297Y03389*
X03297Y03389*
X03296Y03389*
X03296Y0339*
X03296Y0339*
X03296Y0339*
X03296Y0339*
X03295Y0339*
X03295Y0339*
X03295Y0339*
X03294Y0339*
X03294Y0339*
X03294Y0339*
X03294*
X03293Y0339*
X03293Y0339*
X03293Y0339*
X03293Y0339*
X03292Y0339*
X03292Y0339*
X03292Y0339*
X03292Y0339*
X03291Y0339*
X03291Y03389*
X03291Y03389*
X03291Y03389*
X03291Y03389*
X0329Y03389*
X0329Y03388*
X0329Y03388*
X0329Y03388*
X0329Y03388*
X0329Y03387*
X0329Y03387*
X0329Y03387*
X0329Y03387*
X0329Y03386*
X0329Y03386*
X0329Y03386*
X0329Y03385*
X0329Y03385*
X0329Y03385*
X0329Y03385*
X0329Y03384*
X03291Y03384*
X03291Y03384*
X03291Y03384*
X03291Y03384*
X03291Y03383*
X03292Y03383*
X03292Y03383*
X03292Y03383*
X03292Y03383*
X03293Y03383*
X03293Y03383*
X03293Y03383*
X03293Y03383*
X03294Y03383*
X03294*
X03294Y03383*
X03294Y03383*
X03295Y03383*
X03295Y03383*
X03295Y03383*
X03296Y03383*
X03296Y03383*
X03296Y03383*
X03296Y03383*
X03296Y03384*
X03297Y03384*
X03297Y03384*
X03297Y03384*
X03297Y03384*
X03297Y03385*
X03297Y03385*
X03298Y03385*
X03298Y03385*
X03298Y03386*
X03298Y03386*
X03298Y03386*
X03298Y03387*
Y03193D02*
D01*
X03298Y03193*
X03298Y03193*
X03298Y03193*
X03298Y03194*
X03298Y03194*
X03297Y03194*
X03297Y03194*
X03297Y03195*
X03297Y03195*
X03297Y03195*
X03297Y03195*
X03296Y03195*
X03296Y03196*
X03296Y03196*
X03296Y03196*
X03296Y03196*
X03295Y03196*
X03295Y03196*
X03295Y03196*
X03294Y03196*
X03294Y03196*
X03294Y03196*
X03294*
X03293Y03196*
X03293Y03196*
X03293Y03196*
X03293Y03196*
X03292Y03196*
X03292Y03196*
X03292Y03196*
X03292Y03196*
X03291Y03196*
X03291Y03195*
X03291Y03195*
X03291Y03195*
X03291Y03195*
X0329Y03195*
X0329Y03194*
X0329Y03194*
X0329Y03194*
X0329Y03194*
X0329Y03193*
X0329Y03193*
X0329Y03193*
X0329Y03193*
X0329Y03192*
X0329Y03192*
X0329Y03192*
X0329Y03191*
X0329Y03191*
X0329Y03191*
X0329Y03191*
X0329Y0319*
X03291Y0319*
X03291Y0319*
X03291Y0319*
X03291Y0319*
X03291Y03189*
X03292Y03189*
X03292Y03189*
X03292Y03189*
X03292Y03189*
X03293Y03189*
X03293Y03189*
X03293Y03189*
X03293Y03189*
X03294Y03189*
X03294*
X03294Y03189*
X03294Y03189*
X03295Y03189*
X03295Y03189*
X03295Y03189*
X03296Y03189*
X03296Y03189*
X03296Y03189*
X03296Y03189*
X03296Y0319*
X03297Y0319*
X03297Y0319*
X03297Y0319*
X03297Y0319*
X03297Y03191*
X03297Y03191*
X03298Y03191*
X03298Y03191*
X03298Y03192*
X03298Y03192*
X03298Y03192*
X03298Y03193*
X00429D02*
D01*
X00429Y03193*
X00429Y03193*
X00429Y03193*
X00429Y03194*
X00429Y03194*
X00429Y03194*
X00429Y03194*
X00429Y03195*
X00428Y03195*
X00428Y03195*
X00428Y03195*
X00428Y03195*
X00428Y03196*
X00427Y03196*
X00427Y03196*
X00427Y03196*
X00427Y03196*
X00426Y03196*
X00426Y03196*
X00426Y03196*
X00426Y03196*
X00425Y03196*
X00425*
X00425Y03196*
X00425Y03196*
X00424Y03196*
X00424Y03196*
X00424Y03196*
X00423Y03196*
X00423Y03196*
X00423Y03196*
X00423Y03196*
X00423Y03195*
X00422Y03195*
X00422Y03195*
X00422Y03195*
X00422Y03195*
X00422Y03194*
X00422Y03194*
X00421Y03194*
X00421Y03194*
X00421Y03193*
X00421Y03193*
X00421Y03193*
X00421Y03193*
X00421Y03192*
X00421Y03192*
X00421Y03192*
X00421Y03191*
X00421Y03191*
X00422Y03191*
X00422Y03191*
X00422Y0319*
X00422Y0319*
X00422Y0319*
X00422Y0319*
X00423Y0319*
X00423Y03189*
X00423Y03189*
X00423Y03189*
X00423Y03189*
X00424Y03189*
X00424Y03189*
X00424Y03189*
X00425Y03189*
X00425Y03189*
X00425Y03189*
X00425*
X00426Y03189*
X00426Y03189*
X00426Y03189*
X00426Y03189*
X00427Y03189*
X00427Y03189*
X00427Y03189*
X00427Y03189*
X00428Y03189*
X00428Y0319*
X00428Y0319*
X00428Y0319*
X00428Y0319*
X00429Y0319*
X00429Y03191*
X00429Y03191*
X00429Y03191*
X00429Y03191*
X00429Y03192*
X00429Y03192*
X00429Y03192*
X00429Y03193*
Y03387D02*
D01*
X00429Y03387*
X00429Y03387*
X00429Y03387*
X00429Y03388*
X00429Y03388*
X00429Y03388*
X00429Y03388*
X00429Y03389*
X00428Y03389*
X00428Y03389*
X00428Y03389*
X00428Y03389*
X00428Y0339*
X00427Y0339*
X00427Y0339*
X00427Y0339*
X00427Y0339*
X00426Y0339*
X00426Y0339*
X00426Y0339*
X00426Y0339*
X00425Y0339*
X00425*
X00425Y0339*
X00425Y0339*
X00424Y0339*
X00424Y0339*
X00424Y0339*
X00423Y0339*
X00423Y0339*
X00423Y0339*
X00423Y0339*
X00423Y03389*
X00422Y03389*
X00422Y03389*
X00422Y03389*
X00422Y03389*
X00422Y03388*
X00422Y03388*
X00421Y03388*
X00421Y03388*
X00421Y03387*
X00421Y03387*
X00421Y03387*
X00421Y03387*
X00421Y03386*
X00421Y03386*
X00421Y03386*
X00421Y03385*
X00421Y03385*
X00422Y03385*
X00422Y03385*
X00422Y03384*
X00422Y03384*
X00422Y03384*
X00422Y03384*
X00423Y03384*
X00423Y03383*
X00423Y03383*
X00423Y03383*
X00423Y03383*
X00424Y03383*
X00424Y03383*
X00424Y03383*
X00425Y03383*
X00425Y03383*
X00425Y03383*
X00425*
X00426Y03383*
X00426Y03383*
X00426Y03383*
X00426Y03383*
X00427Y03383*
X00427Y03383*
X00427Y03383*
X00427Y03383*
X00428Y03383*
X00428Y03384*
X00428Y03384*
X00428Y03384*
X00428Y03384*
X00429Y03384*
X00429Y03385*
X00429Y03385*
X00429Y03385*
X00429Y03385*
X00429Y03386*
X00429Y03386*
X00429Y03386*
X00429Y03387*
X02579Y03195D02*
D01*
X02578Y03195*
X02578Y03195*
X02578Y03195*
X02578Y03196*
X02578Y03196*
X02578Y03196*
X02578Y03196*
X02578Y03197*
X02578Y03197*
X02578Y03197*
X02577Y03197*
X02577Y03197*
X02577Y03198*
X02577Y03198*
X02577Y03198*
X02576Y03198*
X02576Y03198*
X02576Y03198*
X02575Y03198*
X02575Y03198*
X02575Y03198*
X02575Y03198*
X02574*
X02574Y03198*
X02574Y03198*
X02574Y03198*
X02573Y03198*
X02573Y03198*
X02573Y03198*
X02573Y03198*
X02572Y03198*
X02572Y03198*
X02572Y03197*
X02572Y03197*
X02571Y03197*
X02571Y03197*
X02571Y03197*
X02571Y03196*
X02571Y03196*
X02571Y03196*
X02571Y03196*
X02571Y03195*
X02571Y03195*
X02571Y03195*
X02571Y03195*
X02571Y03194*
X02571Y03194*
X02571Y03194*
X02571Y03193*
X02571Y03193*
X02571Y03193*
X02571Y03193*
X02571Y03192*
X02571Y03192*
X02571Y03192*
X02572Y03192*
X02572Y03192*
X02572Y03191*
X02572Y03191*
X02573Y03191*
X02573Y03191*
X02573Y03191*
X02573Y03191*
X02574Y03191*
X02574Y03191*
X02574Y03191*
X02574Y03191*
X02575*
X02575Y03191*
X02575Y03191*
X02575Y03191*
X02576Y03191*
X02576Y03191*
X02576Y03191*
X02577Y03191*
X02577Y03191*
X02577Y03191*
X02577Y03192*
X02577Y03192*
X02578Y03192*
X02578Y03192*
X02578Y03192*
X02578Y03193*
X02578Y03193*
X02578Y03193*
X02578Y03193*
X02578Y03194*
X02578Y03194*
X02578Y03194*
X02579Y03195*
Y03387D02*
D01*
X02578Y03387*
X02578Y03387*
X02578Y03387*
X02578Y03388*
X02578Y03388*
X02578Y03388*
X02578Y03388*
X02578Y03389*
X02578Y03389*
X02578Y03389*
X02577Y03389*
X02577Y03389*
X02577Y0339*
X02577Y0339*
X02577Y0339*
X02576Y0339*
X02576Y0339*
X02576Y0339*
X02575Y0339*
X02575Y0339*
X02575Y0339*
X02575Y0339*
X02574*
X02574Y0339*
X02574Y0339*
X02574Y0339*
X02573Y0339*
X02573Y0339*
X02573Y0339*
X02573Y0339*
X02572Y0339*
X02572Y0339*
X02572Y03389*
X02572Y03389*
X02571Y03389*
X02571Y03389*
X02571Y03389*
X02571Y03388*
X02571Y03388*
X02571Y03388*
X02571Y03388*
X02571Y03387*
X02571Y03387*
X02571Y03387*
X02571Y03387*
X02571Y03386*
X02571Y03386*
X02571Y03386*
X02571Y03385*
X02571Y03385*
X02571Y03385*
X02571Y03385*
X02571Y03384*
X02571Y03384*
X02571Y03384*
X02572Y03384*
X02572Y03384*
X02572Y03383*
X02572Y03383*
X02573Y03383*
X02573Y03383*
X02573Y03383*
X02573Y03383*
X02574Y03383*
X02574Y03383*
X02574Y03383*
X02574Y03383*
X02575*
X02575Y03383*
X02575Y03383*
X02575Y03383*
X02576Y03383*
X02576Y03383*
X02576Y03383*
X02577Y03383*
X02577Y03383*
X02577Y03383*
X02577Y03384*
X02577Y03384*
X02578Y03384*
X02578Y03384*
X02578Y03384*
X02578Y03385*
X02578Y03385*
X02578Y03385*
X02578Y03385*
X02578Y03386*
X02578Y03386*
X02578Y03386*
X02579Y03387*
X01864Y03193D02*
D01*
X01863Y03193*
X01863Y03193*
X01863Y03193*
X01863Y03194*
X01863Y03194*
X01863Y03194*
X01863Y03194*
X01863Y03195*
X01863Y03195*
X01863Y03195*
X01862Y03195*
X01862Y03195*
X01862Y03196*
X01862Y03196*
X01862Y03196*
X01861Y03196*
X01861Y03196*
X01861Y03196*
X0186Y03196*
X0186Y03196*
X0186Y03196*
X0186Y03196*
X01859*
X01859Y03196*
X01859Y03196*
X01859Y03196*
X01858Y03196*
X01858Y03196*
X01858Y03196*
X01858Y03196*
X01857Y03196*
X01857Y03196*
X01857Y03195*
X01857Y03195*
X01856Y03195*
X01856Y03195*
X01856Y03195*
X01856Y03194*
X01856Y03194*
X01856Y03194*
X01856Y03194*
X01856Y03193*
X01856Y03193*
X01856Y03193*
X01856Y03193*
X01856Y03192*
X01856Y03192*
X01856Y03192*
X01856Y03191*
X01856Y03191*
X01856Y03191*
X01856Y03191*
X01856Y0319*
X01856Y0319*
X01856Y0319*
X01857Y0319*
X01857Y0319*
X01857Y03189*
X01857Y03189*
X01858Y03189*
X01858Y03189*
X01858Y03189*
X01858Y03189*
X01859Y03189*
X01859Y03189*
X01859Y03189*
X01859Y03189*
X0186*
X0186Y03189*
X0186Y03189*
X0186Y03189*
X01861Y03189*
X01861Y03189*
X01861Y03189*
X01862Y03189*
X01862Y03189*
X01862Y03189*
X01862Y0319*
X01862Y0319*
X01863Y0319*
X01863Y0319*
X01863Y0319*
X01863Y03191*
X01863Y03191*
X01863Y03191*
X01863Y03191*
X01863Y03192*
X01863Y03192*
X01863Y03192*
X01864Y03193*
X01869Y03387D02*
D01*
X01868Y03387*
X01868Y03387*
X01868Y03387*
X01868Y03388*
X01868Y03388*
X01868Y03388*
X01868Y03388*
X01868Y03389*
X01868Y03389*
X01868Y03389*
X01867Y03389*
X01867Y03389*
X01867Y0339*
X01867Y0339*
X01867Y0339*
X01866Y0339*
X01866Y0339*
X01866Y0339*
X01865Y0339*
X01865Y0339*
X01865Y0339*
X01865Y0339*
X01864*
X01864Y0339*
X01864Y0339*
X01864Y0339*
X01863Y0339*
X01863Y0339*
X01863Y0339*
X01863Y0339*
X01862Y0339*
X01862Y0339*
X01862Y03389*
X01862Y03389*
X01861Y03389*
X01861Y03389*
X01861Y03389*
X01861Y03388*
X01861Y03388*
X01861Y03388*
X01861Y03388*
X01861Y03387*
X01861Y03387*
X01861Y03387*
X01861Y03387*
X01861Y03386*
X01861Y03386*
X01861Y03386*
X01861Y03385*
X01861Y03385*
X01861Y03385*
X01861Y03385*
X01861Y03384*
X01861Y03384*
X01861Y03384*
X01862Y03384*
X01862Y03384*
X01862Y03383*
X01862Y03383*
X01863Y03383*
X01863Y03383*
X01863Y03383*
X01863Y03383*
X01864Y03383*
X01864Y03383*
X01864Y03383*
X01864Y03383*
X01865*
X01865Y03383*
X01865Y03383*
X01865Y03383*
X01866Y03383*
X01866Y03383*
X01866Y03383*
X01867Y03383*
X01867Y03383*
X01867Y03383*
X01867Y03384*
X01867Y03384*
X01868Y03384*
X01868Y03384*
X01868Y03384*
X01868Y03385*
X01868Y03385*
X01868Y03385*
X01868Y03385*
X01868Y03386*
X01868Y03386*
X01868Y03386*
X01869Y03387*
X01149Y03195D02*
D01*
X01148Y03195*
X01148Y03195*
X01148Y03195*
X01148Y03196*
X01148Y03196*
X01148Y03196*
X01148Y03196*
X01148Y03197*
X01148Y03197*
X01148Y03197*
X01147Y03197*
X01147Y03197*
X01147Y03198*
X01147Y03198*
X01147Y03198*
X01146Y03198*
X01146Y03198*
X01146Y03198*
X01145Y03198*
X01145Y03198*
X01145Y03198*
X01145Y03198*
X01144*
X01144Y03198*
X01144Y03198*
X01144Y03198*
X01143Y03198*
X01143Y03198*
X01143Y03198*
X01143Y03198*
X01142Y03198*
X01142Y03198*
X01142Y03197*
X01142Y03197*
X01141Y03197*
X01141Y03197*
X01141Y03197*
X01141Y03196*
X01141Y03196*
X01141Y03196*
X01141Y03196*
X01141Y03195*
X01141Y03195*
X01141Y03195*
X01141Y03195*
X01141Y03194*
X01141Y03194*
X01141Y03194*
X01141Y03193*
X01141Y03193*
X01141Y03193*
X01141Y03193*
X01141Y03192*
X01141Y03192*
X01141Y03192*
X01142Y03192*
X01142Y03192*
X01142Y03191*
X01142Y03191*
X01143Y03191*
X01143Y03191*
X01143Y03191*
X01143Y03191*
X01144Y03191*
X01144Y03191*
X01144Y03191*
X01144Y03191*
X01145*
X01145Y03191*
X01145Y03191*
X01145Y03191*
X01146Y03191*
X01146Y03191*
X01146Y03191*
X01147Y03191*
X01147Y03191*
X01147Y03191*
X01147Y03192*
X01147Y03192*
X01148Y03192*
X01148Y03192*
X01148Y03192*
X01148Y03193*
X01148Y03193*
X01148Y03193*
X01148Y03193*
X01148Y03194*
X01148Y03194*
X01148Y03194*
X01149Y03195*
X01144Y03387D02*
D01*
X01143Y03387*
X01143Y03387*
X01143Y03387*
X01143Y03388*
X01143Y03388*
X01143Y03388*
X01143Y03388*
X01143Y03389*
X01143Y03389*
X01143Y03389*
X01142Y03389*
X01142Y03389*
X01142Y0339*
X01142Y0339*
X01142Y0339*
X01141Y0339*
X01141Y0339*
X01141Y0339*
X0114Y0339*
X0114Y0339*
X0114Y0339*
X0114Y0339*
X01139*
X01139Y0339*
X01139Y0339*
X01139Y0339*
X01138Y0339*
X01138Y0339*
X01138Y0339*
X01138Y0339*
X01137Y0339*
X01137Y0339*
X01137Y03389*
X01137Y03389*
X01136Y03389*
X01136Y03389*
X01136Y03389*
X01136Y03388*
X01136Y03388*
X01136Y03388*
X01136Y03388*
X01136Y03387*
X01136Y03387*
X01136Y03387*
X01136Y03387*
X01136Y03386*
X01136Y03386*
X01136Y03386*
X01136Y03385*
X01136Y03385*
X01136Y03385*
X01136Y03385*
X01136Y03384*
X01136Y03384*
X01136Y03384*
X01137Y03384*
X01137Y03384*
X01137Y03383*
X01137Y03383*
X01138Y03383*
X01138Y03383*
X01138Y03383*
X01138Y03383*
X01139Y03383*
X01139Y03383*
X01139Y03383*
X01139Y03383*
X0114*
X0114Y03383*
X0114Y03383*
X0114Y03383*
X01141Y03383*
X01141Y03383*
X01141Y03383*
X01142Y03383*
X01142Y03383*
X01142Y03383*
X01142Y03384*
X01142Y03384*
X01143Y03384*
X01143Y03384*
X01143Y03384*
X01143Y03385*
X01143Y03385*
X01143Y03385*
X01143Y03385*
X01143Y03386*
X01143Y03386*
X01143Y03386*
X01144Y03387*
X00815Y02241D02*
D01*
X00815Y02241*
X00815Y02241*
X00815Y02241*
X00815Y02242*
X00815Y02242*
X00814Y02242*
X00814Y02242*
X00814Y02243*
X00814Y02243*
X00814Y02243*
X00814Y02243*
X00813Y02243*
X00813Y02244*
X00813Y02244*
X00813Y02244*
X00813Y02244*
X00812Y02244*
X00812Y02244*
X00812Y02244*
X00811Y02244*
X00811Y02244*
X00811Y02244*
X00811*
X0081Y02244*
X0081Y02244*
X0081Y02244*
X0081Y02244*
X00809Y02244*
X00809Y02244*
X00809Y02244*
X00809Y02244*
X00808Y02244*
X00808Y02243*
X00808Y02243*
X00808Y02243*
X00808Y02243*
X00807Y02243*
X00807Y02242*
X00807Y02242*
X00807Y02242*
X00807Y02242*
X00807Y02241*
X00807Y02241*
X00807Y02241*
X00807Y02241*
X00807Y0224*
X00807Y0224*
X00807Y0224*
X00807Y02239*
X00807Y02239*
X00807Y02239*
X00807Y02239*
X00807Y02238*
X00808Y02238*
X00808Y02238*
X00808Y02238*
X00808Y02238*
X00808Y02237*
X00809Y02237*
X00809Y02237*
X00809Y02237*
X00809Y02237*
X0081Y02237*
X0081Y02237*
X0081Y02237*
X0081Y02237*
X00811Y02237*
X00811*
X00811Y02237*
X00811Y02237*
X00812Y02237*
X00812Y02237*
X00812Y02237*
X00813Y02237*
X00813Y02237*
X00813Y02237*
X00813Y02237*
X00813Y02238*
X00814Y02238*
X00814Y02238*
X00814Y02238*
X00814Y02238*
X00814Y02239*
X00814Y02239*
X00815Y02239*
X00815Y02239*
X00815Y0224*
X00815Y0224*
X00815Y0224*
X00815Y02241*
X00784Y02104D02*
D01*
X00783Y02104*
X00783Y02104*
X00783Y02105*
X00783Y02105*
X00783Y02105*
X00783Y02105*
X00783Y02106*
X00783Y02106*
X00783Y02106*
X00783Y02106*
X00782Y02107*
X00782Y02107*
X00782Y02107*
X00782Y02107*
X00782Y02107*
X00781Y02107*
X00781Y02107*
X00781Y02108*
X0078Y02108*
X0078Y02108*
X0078Y02108*
X0078Y02108*
X00779*
X00779Y02108*
X00779Y02108*
X00779Y02108*
X00778Y02108*
X00778Y02107*
X00778Y02107*
X00778Y02107*
X00777Y02107*
X00777Y02107*
X00777Y02107*
X00777Y02107*
X00776Y02106*
X00776Y02106*
X00776Y02106*
X00776Y02106*
X00776Y02105*
X00776Y02105*
X00776Y02105*
X00776Y02105*
X00776Y02104*
X00776Y02104*
X00776Y02104*
X00776Y02104*
X00776Y02103*
X00776Y02103*
X00776Y02103*
X00776Y02102*
X00776Y02102*
X00776Y02102*
X00776Y02102*
X00776Y02101*
X00776Y02101*
X00777Y02101*
X00777Y02101*
X00777Y02101*
X00777Y021*
X00778Y021*
X00778Y021*
X00778Y021*
X00778Y021*
X00779Y021*
X00779Y021*
X00779Y021*
X00779Y021*
X0078*
X0078Y021*
X0078Y021*
X0078Y021*
X00781Y021*
X00781Y021*
X00781Y021*
X00782Y021*
X00782Y021*
X00782Y02101*
X00782Y02101*
X00782Y02101*
X00783Y02101*
X00783Y02101*
X00783Y02102*
X00783Y02102*
X00783Y02102*
X00783Y02102*
X00783Y02103*
X00783Y02103*
X00783Y02103*
X00783Y02104*
X00784Y02104*
X01102Y0125D02*
D01*
X01102Y0125*
X01101Y01251*
X01101Y01251*
X01101Y01251*
X01101Y01252*
X01101Y01252*
X01101Y01252*
X01101Y01252*
X01101Y01253*
X01101Y01253*
X011Y01253*
X011Y01253*
X011Y01253*
X011Y01254*
X011Y01254*
X01099Y01254*
X01099Y01254*
X01099Y01254*
X01098Y01254*
X01098Y01254*
X01098Y01254*
X01098Y01254*
X01097*
X01097Y01254*
X01097Y01254*
X01097Y01254*
X01096Y01254*
X01096Y01254*
X01096Y01254*
X01096Y01254*
X01095Y01254*
X01095Y01253*
X01095Y01253*
X01095Y01253*
X01094Y01253*
X01094Y01253*
X01094Y01252*
X01094Y01252*
X01094Y01252*
X01094Y01252*
X01094Y01251*
X01094Y01251*
X01094Y01251*
X01094Y0125*
X01094Y0125*
X01094Y0125*
X01094Y0125*
X01094Y01249*
X01094Y01249*
X01094Y01249*
X01094Y01249*
X01094Y01248*
X01094Y01248*
X01094Y01248*
X01094Y01248*
X01095Y01247*
X01095Y01247*
X01095Y01247*
X01095Y01247*
X01096Y01247*
X01096Y01247*
X01096Y01247*
X01096Y01246*
X01097Y01246*
X01097Y01246*
X01097Y01246*
X01097Y01246*
X01098*
X01098Y01246*
X01098Y01246*
X01098Y01246*
X01099Y01246*
X01099Y01247*
X01099Y01247*
X011Y01247*
X011Y01247*
X011Y01247*
X011Y01247*
X011Y01247*
X01101Y01248*
X01101Y01248*
X01101Y01248*
X01101Y01248*
X01101Y01249*
X01101Y01249*
X01101Y01249*
X01101Y01249*
X01101Y0125*
X01102Y0125*
X01102Y0125*
X01006Y00865D02*
D01*
X01005Y00865*
X01005Y00866*
X01005Y00866*
X01005Y00866*
X01005Y00867*
X01005Y00867*
X01005Y00867*
X01005Y00867*
X01005Y00868*
X01005Y00868*
X01004Y00868*
X01004Y00868*
X01004Y00868*
X01004Y00869*
X01004Y00869*
X01003Y00869*
X01003Y00869*
X01003Y00869*
X01002Y00869*
X01002Y00869*
X01002Y00869*
X01002Y00869*
X01001*
X01001Y00869*
X01001Y00869*
X01001Y00869*
X01Y00869*
X01Y00869*
X01Y00869*
X01Y00869*
X00999Y00869*
X00999Y00868*
X00999Y00868*
X00999Y00868*
X00998Y00868*
X00998Y00868*
X00998Y00867*
X00998Y00867*
X00998Y00867*
X00998Y00867*
X00998Y00866*
X00998Y00866*
X00998Y00866*
X00998Y00865*
X00998Y00865*
X00998Y00865*
X00998Y00865*
X00998Y00864*
X00998Y00864*
X00998Y00864*
X00998Y00864*
X00998Y00863*
X00998Y00863*
X00998Y00863*
X00998Y00863*
X00999Y00862*
X00999Y00862*
X00999Y00862*
X00999Y00862*
X01Y00862*
X01Y00862*
X01Y00862*
X01Y00861*
X01001Y00861*
X01001Y00861*
X01001Y00861*
X01001Y00861*
X01002*
X01002Y00861*
X01002Y00861*
X01002Y00861*
X01003Y00861*
X01003Y00862*
X01003Y00862*
X01004Y00862*
X01004Y00862*
X01004Y00862*
X01004Y00862*
X01004Y00862*
X01005Y00863*
X01005Y00863*
X01005Y00863*
X01005Y00863*
X01005Y00864*
X01005Y00864*
X01005Y00864*
X01005Y00864*
X01005Y00865*
X01005Y00865*
X01006Y00865*
X00735Y00862D02*
D01*
X00734Y00862*
X00734Y00863*
X00734Y00863*
X00734Y00863*
X00734Y00864*
X00734Y00864*
X00734Y00864*
X00734Y00864*
X00734Y00865*
X00734Y00865*
X00733Y00865*
X00733Y00865*
X00733Y00865*
X00733Y00866*
X00733Y00866*
X00732Y00866*
X00732Y00866*
X00732Y00866*
X00731Y00866*
X00731Y00866*
X00731Y00866*
X00731Y00866*
X0073*
X0073Y00866*
X0073Y00866*
X0073Y00866*
X00729Y00866*
X00729Y00866*
X00729Y00866*
X00729Y00866*
X00728Y00866*
X00728Y00865*
X00728Y00865*
X00728Y00865*
X00727Y00865*
X00727Y00865*
X00727Y00864*
X00727Y00864*
X00727Y00864*
X00727Y00864*
X00727Y00863*
X00727Y00863*
X00727Y00863*
X00727Y00862*
X00727Y00862*
X00727Y00862*
X00727Y00862*
X00727Y00861*
X00727Y00861*
X00727Y00861*
X00727Y00861*
X00727Y0086*
X00727Y0086*
X00727Y0086*
X00727Y0086*
X00728Y00859*
X00728Y00859*
X00728Y00859*
X00728Y00859*
X00729Y00859*
X00729Y00859*
X00729Y00859*
X00729Y00858*
X0073Y00858*
X0073Y00858*
X0073Y00858*
X0073Y00858*
X00731*
X00731Y00858*
X00731Y00858*
X00731Y00858*
X00732Y00858*
X00732Y00859*
X00732Y00859*
X00733Y00859*
X00733Y00859*
X00733Y00859*
X00733Y00859*
X00733Y00859*
X00734Y0086*
X00734Y0086*
X00734Y0086*
X00734Y0086*
X00734Y00861*
X00734Y00861*
X00734Y00861*
X00734Y00861*
X00734Y00862*
X00734Y00862*
X00735Y00862*
X00576Y017D02*
D01*
X00575Y017*
X00575Y017*
X00575Y017*
X00575Y01701*
X00575Y01701*
X00575Y01701*
X00575Y01701*
X00575Y01702*
X00575Y01702*
X00575Y01702*
X00574Y01702*
X00574Y01702*
X00574Y01703*
X00574Y01703*
X00574Y01703*
X00573Y01703*
X00573Y01703*
X00573Y01703*
X00572Y01703*
X00572Y01703*
X00572Y01703*
X00572Y01703*
X00571*
X00571Y01703*
X00571Y01703*
X00571Y01703*
X0057Y01703*
X0057Y01703*
X0057Y01703*
X0057Y01703*
X00569Y01703*
X00569Y01703*
X00569Y01702*
X00569Y01702*
X00568Y01702*
X00568Y01702*
X00568Y01702*
X00568Y01701*
X00568Y01701*
X00568Y01701*
X00568Y01701*
X00568Y017*
X00568Y017*
X00568Y017*
X00568Y017*
X00568Y01699*
X00568Y01699*
X00568Y01699*
X00568Y01698*
X00568Y01698*
X00568Y01698*
X00568Y01698*
X00568Y01697*
X00568Y01697*
X00568Y01697*
X00569Y01697*
X00569Y01697*
X00569Y01696*
X00569Y01696*
X0057Y01696*
X0057Y01696*
X0057Y01696*
X0057Y01696*
X00571Y01696*
X00571Y01696*
X00571Y01696*
X00571Y01696*
X00572*
X00572Y01696*
X00572Y01696*
X00572Y01696*
X00573Y01696*
X00573Y01696*
X00573Y01696*
X00574Y01696*
X00574Y01696*
X00574Y01696*
X00574Y01697*
X00574Y01697*
X00575Y01697*
X00575Y01697*
X00575Y01697*
X00575Y01698*
X00575Y01698*
X00575Y01698*
X00575Y01698*
X00575Y01699*
X00575Y01699*
X00575Y01699*
X00576Y017*
X00508Y02338D02*
D01*
X00507Y02338*
X00507Y02338*
X00507Y02339*
X00507Y02339*
X00507Y02339*
X00507Y02339*
X00507Y0234*
X00507Y0234*
X00507Y0234*
X00507Y0234*
X00506Y02341*
X00506Y02341*
X00506Y02341*
X00506Y02341*
X00506Y02341*
X00505Y02341*
X00505Y02341*
X00505Y02342*
X00504Y02342*
X00504Y02342*
X00504Y02342*
X00504Y02342*
X00503*
X00503Y02342*
X00503Y02342*
X00503Y02342*
X00502Y02342*
X00502Y02341*
X00502Y02341*
X00502Y02341*
X00501Y02341*
X00501Y02341*
X00501Y02341*
X00501Y02341*
X005Y0234*
X005Y0234*
X005Y0234*
X005Y0234*
X005Y02339*
X005Y02339*
X005Y02339*
X005Y02339*
X005Y02338*
X005Y02338*
X005Y02338*
X005Y02338*
X005Y02337*
X005Y02337*
X005Y02337*
X005Y02336*
X005Y02336*
X005Y02336*
X005Y02336*
X005Y02335*
X005Y02335*
X00501Y02335*
X00501Y02335*
X00501Y02335*
X00501Y02334*
X00502Y02334*
X00502Y02334*
X00502Y02334*
X00502Y02334*
X00503Y02334*
X00503Y02334*
X00503Y02334*
X00503Y02334*
X00504*
X00504Y02334*
X00504Y02334*
X00504Y02334*
X00505Y02334*
X00505Y02334*
X00505Y02334*
X00506Y02334*
X00506Y02334*
X00506Y02335*
X00506Y02335*
X00506Y02335*
X00507Y02335*
X00507Y02335*
X00507Y02336*
X00507Y02336*
X00507Y02336*
X00507Y02336*
X00507Y02337*
X00507Y02337*
X00507Y02337*
X00507Y02338*
X00508Y02338*
X00396Y02663D02*
D01*
X00395Y02663*
X00395Y02663*
X00395Y02663*
X00395Y02664*
X00395Y02664*
X00395Y02664*
X00395Y02664*
X00395Y02665*
X00395Y02665*
X00395Y02665*
X00394Y02665*
X00394Y02665*
X00394Y02666*
X00394Y02666*
X00394Y02666*
X00393Y02666*
X00393Y02666*
X00393Y02666*
X00392Y02666*
X00392Y02666*
X00392Y02666*
X00392Y02666*
X00391*
X00391Y02666*
X00391Y02666*
X00391Y02666*
X0039Y02666*
X0039Y02666*
X0039Y02666*
X0039Y02666*
X00389Y02666*
X00389Y02666*
X00389Y02665*
X00389Y02665*
X00388Y02665*
X00388Y02665*
X00388Y02665*
X00388Y02664*
X00388Y02664*
X00388Y02664*
X00388Y02664*
X00388Y02663*
X00388Y02663*
X00388Y02663*
X00388Y02663*
X00388Y02662*
X00388Y02662*
X00388Y02662*
X00388Y02661*
X00388Y02661*
X00388Y02661*
X00388Y02661*
X00388Y0266*
X00388Y0266*
X00388Y0266*
X00389Y0266*
X00389Y0266*
X00389Y02659*
X00389Y02659*
X0039Y02659*
X0039Y02659*
X0039Y02659*
X0039Y02659*
X00391Y02659*
X00391Y02659*
X00391Y02659*
X00391Y02659*
X00392*
X00392Y02659*
X00392Y02659*
X00392Y02659*
X00393Y02659*
X00393Y02659*
X00393Y02659*
X00394Y02659*
X00394Y02659*
X00394Y02659*
X00394Y0266*
X00394Y0266*
X00395Y0266*
X00395Y0266*
X00395Y0266*
X00395Y02661*
X00395Y02661*
X00395Y02661*
X00395Y02661*
X00395Y02662*
X00395Y02662*
X00395Y02662*
X00396Y02663*
M02*