%FSTAX23Y23*%
%MOIN*%
%SFA1B1*%

%IPPOS*%
%AMD10*
4,1,8,-0.015000,-0.027500,0.015000,-0.027500,0.020000,-0.022500,0.020000,0.022500,0.015000,0.027500,-0.015000,0.027500,-0.020000,0.022500,-0.020000,-0.022500,-0.015000,-0.027500,0.0*
1,1,0.010000,-0.015000,-0.022500*
1,1,0.010000,0.015000,-0.022500*
1,1,0.010000,0.015000,0.022500*
1,1,0.010000,-0.015000,0.022500*
%
%AMD11*
4,1,8,-0.017500,0.013100,-0.017500,-0.013100,-0.013100,-0.017500,0.013100,-0.017500,0.017500,-0.013100,0.017500,0.013100,0.013100,0.017500,-0.013100,0.017500,-0.017500,0.013100,0.0*
1,1,0.008760,-0.013100,0.013100*
1,1,0.008760,-0.013100,-0.013100*
1,1,0.008760,0.013100,-0.013100*
1,1,0.008760,0.013100,0.013100*
%
%AMD12*
4,1,8,-0.013100,-0.017500,0.013100,-0.017500,0.017500,-0.013100,0.017500,0.013100,0.013100,0.017500,-0.013100,0.017500,-0.017500,0.013100,-0.017500,-0.013100,-0.013100,-0.017500,0.0*
1,1,0.008760,-0.013100,-0.013100*
1,1,0.008760,0.013100,-0.013100*
1,1,0.008760,0.013100,0.013100*
1,1,0.008760,-0.013100,0.013100*
%
%AMD20*
4,1,8,0.030500,-0.005900,0.030500,0.005900,0.024600,0.011800,-0.024600,0.011800,-0.030500,0.005900,-0.030500,-0.005900,-0.024600,-0.011800,0.024600,-0.011800,0.030500,-0.005900,0.0*
1,1,0.011820,0.024600,-0.005900*
1,1,0.011820,0.024600,0.005900*
1,1,0.011820,-0.024600,0.005900*
1,1,0.011820,-0.024600,-0.005900*
%
%AMD21*
4,1,8,-0.005900,-0.030500,0.005900,-0.030500,0.011800,-0.024600,0.011800,0.024600,0.005900,0.030500,-0.005900,0.030500,-0.011800,0.024600,-0.011800,-0.024600,-0.005900,-0.030500,0.0*
1,1,0.011820,-0.005900,-0.024600*
1,1,0.011820,0.005900,-0.024600*
1,1,0.011820,0.005900,0.024600*
1,1,0.011820,-0.005900,0.024600*
%
%AMD45*
4,1,8,0.065800,0.027300,0.027300,0.065800,-0.027300,0.065800,-0.065800,0.027300,-0.065800,-0.027300,-0.027300,-0.065800,0.027300,-0.065800,0.065800,-0.027300,0.065800,0.027300,0.0*
%
G04~CAMADD=10~8~0.0~0.0~400.0~550.0~50.0~0.0~15~0.0~0.0~0.0~0.0~0~0.0~0.0~0.0~0.0~0~0.0~0.0~0.0~180.0~400.0~550.0*
%ADD10D10*%
G04~CAMADD=11~8~0.0~0.0~350.0~350.0~43.8~0.0~15~0.0~0.0~0.0~0.0~0~0.0~0.0~0.0~0.0~0~0.0~0.0~0.0~90.0~350.0~350.0*
%ADD11D11*%
G04~CAMADD=12~8~0.0~0.0~350.0~350.0~43.8~0.0~15~0.0~0.0~0.0~0.0~0~0.0~0.0~0.0~0.0~0~0.0~0.0~0.0~180.0~350.0~350.0*
%ADD12D12*%
%ADD13C,0.039370*%
%ADD14R,0.085000X0.107990*%
%ADD15R,0.300000X0.400000*%
%ADD16R,0.065000X0.025000*%
%ADD17R,0.065000X0.120000*%
%ADD18R,0.120000X0.065000*%
%ADD19R,0.107990X0.085000*%
G04~CAMADD=20~8~0.0~0.0~236.2~610.2~59.1~0.0~15~0.0~0.0~0.0~0.0~0~0.0~0.0~0.0~0.0~0~0.0~0.0~0.0~270.0~610.0~236.0*
%ADD20D20*%
G04~CAMADD=21~8~0.0~0.0~236.2~610.2~59.1~0.0~15~0.0~0.0~0.0~0.0~0~0.0~0.0~0.0~0.0~0~0.0~0.0~0.0~180.0~236.0~610.0*
%ADD21D21*%
%ADD22R,0.098430X0.125980*%
%ADD23R,0.066000X0.060000*%
%ADD24R,0.080000X0.070000*%
%ADD25R,0.055120X0.078740*%
%ADD26R,0.060000X0.066000*%
%ADD27R,0.050000X0.050000*%
%ADD28R,0.059840X0.022050*%
%ADD29R,0.022050X0.059840*%
%ADD30R,0.125980X0.098430*%
%ADD31R,0.059060X0.015750*%
%ADD32C,0.020000*%
%ADD33C,0.010000*%
%ADD34C,0.040000*%
%ADD35C,0.030000*%
%ADD36R,0.065000X0.065000*%
%ADD37C,0.065000*%
%ADD38C,0.196850*%
%ADD39R,0.065000X0.065000*%
%ADD40C,0.072830*%
%ADD41R,0.072830X0.072830*%
%ADD42O,0.170000X0.080000*%
%ADD43O,0.080000X0.170000*%
%ADD44C,0.048000*%
G04~CAMADD=45~4~0.0~0.0~1315.1~1315.1~0.0~385.2~0~0.0~0.0~0.0~0.0~0~0.0~0.0~0.0~0.0~0~0.0~0.0~0.0~315.0~1315.1~1315.1*
%ADD45D45*%
%ADD46O,0.112200X0.056100*%
%ADD47C,0.028000*%
%ADD48C,0.050000*%
%LNcontrolboard-1*%
%LPD*%
G36*
X03937Y0245D02*
X03187D01*
Y02505*
X03186Y02508*
X03184Y02512*
X03181Y02514*
X03177Y02515*
X03112*
X03108Y02514*
X03105Y02512*
X03103Y02508*
X03102Y02505*
Y0245*
X02787*
Y02482*
X02797Y02483*
X02797Y02482*
X02802Y02474*
X0281Y02469*
X0282Y02467*
X02829Y02469*
X02837Y02474*
X02842Y02482*
X02844Y02492*
X02842Y02501*
X0284Y02504*
X02845Y02514*
X02852*
X02856Y02515*
X02859Y02517*
X02861Y0252*
X02862Y02524*
Y02549*
X02861Y02553*
X02859Y02556*
X02859Y02556*
Y02567*
X02859Y02567*
X02861Y0257*
X02862Y02574*
Y02577*
X0282*
Y02597*
X02862*
Y02599*
X02861Y02603*
X02859Y02606*
X02859Y02606*
Y02617*
X02859Y02617*
X02861Y0262*
X02862Y02624*
Y02649*
X02861Y02653*
X02859Y02656*
X02859Y02656*
Y02662*
X02867Y02671*
X02878*
Y0267*
X02879Y02665*
X02883Y0266*
Y02652*
X02879Y02648*
X02878Y02642*
Y02616*
X02879Y0261*
X02883Y02605*
Y02598*
X02879Y02593*
X02878Y02588*
Y02584*
X02906*
Y02564*
X02878*
Y02561*
X02879Y02556*
X02883Y02551*
Y02543*
X02879Y02539*
X02878Y02533*
Y0253*
X02906*
Y0252*
X02916*
Y02492*
X02919*
X02925Y02493*
X0293Y02496*
X02931Y02498*
X02931Y02498*
X02941*
X02942Y02498*
X02943Y02496*
X02947Y02493*
X02953Y02492*
X02979*
X02985Y02493*
X0299Y02496*
X03001Y02498*
X03002Y02497*
X03011Y02495*
X0302Y02497*
X03028Y02503*
X03034Y02511*
X03036Y0252*
X03034Y02529*
X03028Y02537*
X03021Y02542*
X03021Y02547*
X03021Y02553*
X03028Y02557*
X03034Y02565*
X03036Y02574*
X03034Y02584*
X03028Y02592*
X0302Y02597*
X03011Y02599*
X03002Y02597*
X02993Y02601*
X02991Y02608*
X02993Y0261*
X02994Y02616*
Y02619*
X02966*
Y02639*
X02994*
Y02642*
X02993Y02648*
X0299Y02652*
Y0266*
X02993Y02665*
X02994Y02669*
X02994Y02669*
X02999Y02673*
X03002Y02676*
X03005Y02675*
X03014Y02677*
X03022Y02682*
X03027Y0269*
X03029Y027*
X03027Y02709*
X03027Y02709*
X03029Y02715*
X03032Y02719*
X03038Y0272*
X03045Y02723*
X03052Y02728*
X03136Y02812*
X03141Y02819*
X03144Y02826*
X03145Y02834*
Y03046*
X03144Y03053*
X03141Y03061*
X03136Y03067*
X03072Y03131*
X03072Y03131*
X03074Y03135*
X03075Y03139*
Y03246*
X03074Y0325*
X03072Y03254*
X03069Y03256*
X03065Y03257*
X03053*
Y03322*
X03065*
X03069Y03323*
X03072Y03325*
X03074Y03329*
X03075Y03333*
Y0344*
X03075Y03442*
X03084Y03451*
X03089Y03457*
X03092Y03465*
X03093Y03473*
Y0353*
X03093Y0353*
X031Y03539*
X03104Y03549*
X03105Y03561*
X03104Y03572*
X031Y03582*
X03093Y03591*
X03093Y03591*
Y03766*
X03092Y03774*
X0309Y03778*
Y03822*
X03089Y03826*
X03087Y03829*
X03084Y03831*
X0308Y03832*
X03007*
X03003Y03831*
X03Y03829*
X02998Y03826*
X02997Y03822*
Y03749*
X02987Y03746*
X02984Y0375*
X02952Y03782*
X02952Y03786*
X02951Y03798*
X02946Y03809*
X02939Y03819*
X02929Y03826*
X02918Y03831*
X02906Y03832*
X02893Y03831*
X02882Y03826*
X02873Y03819*
X02865Y03809*
X0286Y03798*
X02859Y03786*
X0286Y03773*
X02865Y03762*
X02873Y03752*
X02882Y03745*
X02893Y0374*
X02906Y03739*
X02909Y03739*
X02932Y03716*
Y03591*
X02932Y03591*
X02925Y03582*
X02921Y03572*
X0292Y03561*
X02921Y03549*
X02924Y03542*
X02833Y03451*
X02797*
X02793Y0345*
X0279Y03448*
X02787Y03444*
X02787Y0344*
Y03333*
X02787Y03329*
X0279Y03325*
X02793Y03323*
X02797Y03322*
X02809*
Y03257*
X02797*
X02793Y03256*
X0279Y03254*
X02787Y0325*
X02787Y03246*
Y03139*
X02787Y03135*
X0279Y03131*
X02793Y03129*
X02797Y03128*
X0284*
X02931Y03037*
X02937Y03032*
X02944Y0303*
X02945Y03026*
X02945Y03019*
X0294Y03014*
X0293Y03015*
X0293Y03015*
X02925Y03019*
X02919Y0302*
X02893*
X02887Y03019*
X02883Y03015*
X02879Y03011*
X02878Y03005*
Y02979*
X02879Y02973*
X02883Y02969*
X02882Y02968*
X02875Y02962*
X02864Y02963*
X02861Y02969*
X02861Y0297*
X02862Y02974*
Y02999*
X02861Y03003*
X02859Y03006*
X02856Y03008*
X02852Y03009*
X02841*
Y0303*
X02843Y03033*
X02845Y03043*
X02843Y03052*
X02838Y0306*
X0283Y03065*
X02821Y03067*
X02811Y03065*
X02803Y0306*
X02798Y03052*
X02796Y03043*
X02798Y03033*
X028Y0303*
Y03009*
X02787*
X02783Y03008*
X0278Y03006*
X02778Y03003*
X02777Y02999*
Y02974*
X02778Y0297*
X0278Y02967*
X0278Y02967*
Y02956*
X0278Y02956*
X02778Y02953*
X02777Y02949*
Y02924*
X02778Y0292*
X0278Y02917*
X0278Y02917*
Y02906*
X0278Y02906*
X02778Y02903*
X02777Y02899*
Y02874*
X02778Y0287*
X0278Y02867*
X0278Y02867*
Y02856*
X0278Y02856*
X02778Y02853*
X02777Y02849*
Y02824*
X02778Y0282*
X0278Y02817*
X0278Y02817*
Y02806*
X0278Y02806*
X02778Y02803*
X02777Y02799*
Y02774*
X02778Y0277*
X0278Y02767*
X0278Y02767*
Y02756*
X0278Y02756*
X02778Y02753*
X02777Y02749*
Y02743*
X02741Y02707*
X02737Y02702*
X02736Y02697*
Y02419*
X02732Y02416*
X02726Y02412*
X02719Y02414*
X02709Y02412*
X02701Y02407*
X027Y02405*
X02394*
X02389Y02415*
X0239Y02422*
X0239Y02424*
X02396Y02431*
X024Y02436*
X02401Y02442*
Y02541*
X02407Y02545*
X02415Y02539*
X02417Y02531*
X02422Y02523*
X0243Y02518*
X0244Y02516*
X02449Y02518*
X02457Y02523*
X02462Y02531*
X02464Y02541*
X02464Y02541*
X02472Y02551*
X02482*
X0249Y02541*
X0249Y02541*
X02492Y02531*
X02497Y02523*
X02505Y02518*
X02515Y02516*
X02524Y02518*
X02532Y02523*
X02537Y02531*
X02539Y02541*
X02539Y02541*
X02547Y02551*
X02557*
X02565Y02541*
X02565Y02541*
X02567Y02531*
X02572Y02523*
X0258Y02518*
X0259Y02516*
X02599Y02518*
X02607Y02523*
X02612Y02531*
X02614Y02541*
X02614Y02541*
X02622Y02551*
X02632*
X0264Y02541*
X0264Y02541*
X02642Y02531*
X02647Y02523*
X02655Y02518*
X02665Y02516*
X02674Y02518*
X02682Y02523*
X02687Y02531*
X02689Y02541*
X02689Y02541*
X02697Y02551*
X02705*
X02708Y02552*
X02712Y02554*
X02714Y02558*
X02715Y02562*
Y02962*
X02714Y02965*
X02712Y02969*
X02708Y02971*
X02701Y0298*
X027Y02989*
X02694Y02997*
X02686Y03003*
X02677Y03004*
X02668Y03003*
X0266Y02997*
X02654Y02989*
X02653Y0298*
X02653Y02979*
X02646Y02972*
X02633*
X02626Y02979*
X02626Y0298*
X02625Y02989*
X02619Y02997*
X02611Y03003*
X02602Y03004*
X02593Y03003*
X02585Y02997*
X02579Y02989*
X02578Y0298*
X02578Y02979*
X02571Y02972*
X02558*
X02551Y02979*
X02551Y0298*
X0255Y02989*
X02544Y02997*
X02536Y03003*
X02527Y03004*
X02518Y03003*
X0251Y02997*
X02504Y02989*
X02503Y0298*
X02503Y02979*
X02496Y02972*
X02483*
X02476Y02979*
X02476Y0298*
X02475Y02989*
X02469Y02997*
X02461Y03003*
X02452Y03004*
X02443Y03003*
X02435Y02997*
X02429Y02989*
X02428Y0298*
X02428Y02979*
X02421Y02972*
X02405*
X02401Y02975*
Y03831*
X024Y03836*
X02396Y03841*
X02361Y03876*
X02362Y03881*
X02365Y03886*
X02789*
X02792Y03877*
X02721Y03805*
X02676*
X02675Y03807*
X02667Y03813*
X02657Y03814*
X02648Y03813*
X0264Y03807*
X02635Y03799*
X02633Y0379*
X02635Y03781*
X02631Y03771*
X02625Y03769*
X02623Y0377*
X02617Y03771*
X02591*
X02585Y0377*
X02581Y03767*
X02574*
X02569Y0377*
X02563Y03771*
X0256*
Y03744*
X0255*
Y03734*
X02522*
Y0373*
X02523Y03725*
X02527Y0372*
X02528Y03719*
X02528Y03719*
Y03708*
X02528Y03708*
X02527Y03707*
X02523Y03702*
X02522Y03697*
Y0367*
X02523Y03665*
X02527Y0366*
X02531Y03657*
X02535Y03656*
Y03603*
X0253*
X02526Y03602*
X02523Y036*
X02521Y03597*
X0252Y03593*
Y03528*
X02521Y03524*
X02523Y03521*
X02526Y03519*
X0253Y03518*
X02595*
X02599Y03519*
X02602Y03521*
X02604Y03524*
X02605Y03528*
Y03587*
X02615Y03591*
X02625Y03581*
X02621Y03572*
X0262Y03561*
X02621Y03549*
X02625Y03539*
X02632Y0353*
X02641Y03523*
X02651Y03519*
X02663Y03518*
X02674Y03519*
X02684Y03523*
X02693Y0353*
X027Y03539*
X02704Y03549*
X02704Y03553*
X02714Y03556*
X02721Y03551*
X02721Y03549*
X02725Y03539*
X02732Y0353*
X02741Y03523*
X02751Y03519*
X02763Y03518*
X02774Y03519*
X02784Y03523*
X02793Y0353*
X028Y03539*
X02804Y03549*
X02805Y03561*
X02804Y03572*
X028Y03582*
X02793Y03591*
X02784Y03598*
X02774Y03602*
X02763Y03603*
X02751Y03602*
X02741Y03598*
X02732Y03591*
X02726Y0359*
X02713Y03603*
X02714Y03605*
X02717Y03613*
X02724Y03614*
X02732Y0362*
X02737Y03628*
X02739Y03637*
X02737Y03646*
X02741Y03656*
X02745Y03658*
X02755Y03654*
X02755Y03653*
X02758Y03648*
X02825Y03581*
X02821Y03572*
X0282Y03561*
X02821Y03549*
X02825Y03539*
X02832Y0353*
X02841Y03523*
X02851Y03519*
X02863Y03518*
X02874Y03519*
X02884Y03523*
X02893Y0353*
X029Y03539*
X02904Y03549*
X02905Y03561*
X02904Y03572*
X029Y03582*
X02893Y03591*
X02884Y03598*
X02874Y03602*
X02863Y03603*
X02851Y03602*
X02848Y03601*
X0279Y03659*
X0279Y0366*
X02793Y03665*
X02794Y0367*
Y03697*
X02793Y03702*
X0279Y03707*
X02789Y03708*
X02788Y03708*
Y03719*
X02789Y03719*
X0279Y0372*
X02793Y03725*
X02794Y0373*
Y03757*
X02793Y03762*
X0279Y03767*
X02789Y03779*
X02789Y03779*
X02791Y03789*
X02791Y03791*
X02844Y03844*
X03093*
X03714Y03223*
Y03022*
X03712Y03021*
X03707Y03013*
X03705Y03004*
X03707Y02994*
X03712Y02986*
X0372Y02981*
X0373Y02979*
X03739Y02981*
X03747Y02986*
X03752Y02994*
X03754Y03004*
X03752Y03013*
X03747Y03021*
X03747Y03022*
X03747Y0303*
X03755Y03036*
X0376Y03035*
X03769Y03037*
X03777Y03042*
X03782Y0305*
X03784Y0306*
X03782Y03069*
X03777Y03077*
X03775Y03078*
Y03206*
X03784Y0321*
X03834Y0316*
Y03018*
X03832Y03017*
X03827Y03009*
X03825Y03*
X03827Y0299*
X03832Y02982*
X0384Y02977*
X0385Y02975*
X03859Y02977*
X03867Y02982*
X03872Y0299*
X03874Y03*
X03872Y03009*
X03867Y03017*
X03865Y03018*
Y03166*
X03864Y03172*
X0386Y03177*
X03125Y03912*
X0312Y03916*
X03114Y03917*
X02048*
X02042Y03916*
X02037Y03912*
X01939Y03814*
X01936Y03814*
X01927Y03813*
X01919Y03807*
X01914Y03799*
X01912Y0379*
X01914Y03781*
X01911Y03773*
X0191Y0377*
X01903Y03769*
X01901Y0377*
X01895Y03771*
X01869*
X01864Y0377*
X01859Y03767*
X01851*
X01847Y0377*
X01841Y03771*
X01838*
Y03744*
X01828*
Y03734*
X018*
Y0373*
X01801Y03725*
X01804Y0372*
X01806Y03719*
X01806Y03719*
Y03708*
X01806Y03708*
X01804Y03707*
X01801Y03702*
X018Y03697*
Y0367*
X01801Y03665*
X01804Y0366*
X01809Y03657*
X01813Y03656*
Y03603*
X018*
X01796Y03602*
X01793Y036*
X01791Y03597*
X0179Y03593*
Y03528*
X01791Y03524*
X01793Y03521*
X01796Y03519*
X018Y03518*
X01865*
X01869Y03519*
X01872Y03521*
X01874Y03524*
X01875Y03528*
Y03593*
X01875Y03594*
X01884Y036*
X01898Y03585*
X01895Y03582*
X01891Y03572*
X0189Y03561*
X01891Y03549*
X01895Y03539*
X01902Y0353*
X01911Y03523*
X01921Y03519*
X01933Y03518*
X01944Y03519*
X01954Y03523*
X01963Y0353*
X0197Y03539*
X01974Y03549*
X01975Y03557*
X01976Y03557*
X01984Y03561*
X01985Y03561*
X0199Y03558*
X01991Y03549*
X01995Y03539*
X02002Y0353*
X02011Y03523*
X02021Y03519*
X02033Y03518*
X02044Y03519*
X02054Y03523*
X02063Y0353*
X0207Y03539*
X02074Y03549*
X02075Y03561*
X02074Y03572*
X0207Y03582*
X02063Y03591*
X02054Y03598*
X02044Y03602*
X02033Y03603*
X02021Y03602*
X02011Y03598*
X02003Y03591*
X01991Y03603*
X01991Y03605*
X01995Y03613*
X02001Y03614*
X02009Y0362*
X02015Y03628*
X02016Y03637*
X02015Y03646*
X02017Y03655*
X02018Y03656*
X02023Y03658*
X02032Y03653*
X02032Y03653*
X02036Y03648*
X02098Y03585*
X02095Y03582*
X02091Y03572*
X0209Y03561*
X02091Y03549*
X02095Y03539*
X02102Y0353*
X02111Y03523*
X02121Y03519*
X02133Y03518*
X02144Y03519*
X02154Y03523*
X02163Y0353*
X0217Y03539*
X02174Y03549*
X02175Y03561*
X02174Y03572*
X0217Y03582*
X02163Y03591*
X02154Y03598*
X02144Y03602*
X02133Y03603*
X02124Y03602*
X02069Y03658*
X02069Y0366*
X02072Y03665*
X02073Y0367*
Y03697*
X02072Y03702*
X02069Y03707*
X02068Y03708*
X02067Y03708*
Y03719*
X02068Y03719*
X02069Y0372*
X02072Y03725*
X02073Y0373*
Y03757*
X02072Y03762*
X02069Y03767*
X02068Y03779*
X02068Y03779*
X0207Y03789*
X02069Y03796*
X02124Y03851*
X02343*
X02353Y03842*
X02351Y03836*
X02348Y03832*
X02277*
X02273Y03831*
X0227Y03829*
X02268Y03826*
X02267Y03822*
Y03749*
X02268Y03745*
X0227Y03742*
X02273Y0374*
X02277Y03739*
X02283*
Y03726*
X02284Y03718*
X02287Y0371*
X02292Y03704*
X02302Y03694*
Y03591*
X02302Y03591*
X02295Y03582*
X02291Y03572*
X0229Y03561*
X02291Y03549*
X02295Y03539*
X02302Y0353*
X02302Y0353*
Y03451*
X02266*
X02262Y0345*
X02258Y03448*
X02256Y03444*
X02256Y0344*
Y03333*
X02256Y03329*
X02258Y03325*
X02262Y03323*
X02264Y03323*
Y03256*
X02262Y03256*
X02258Y03254*
X02256Y0325*
X02256Y03246*
Y03183*
X02173Y031*
X02132*
X02128Y03109*
X02146Y03127*
X02147Y03128*
X02168*
X02171Y03129*
X02175Y03131*
X02177Y03135*
X02178Y03139*
Y03246*
X02177Y0325*
X02175Y03254*
X02171Y03256*
X02168Y03257*
X02155*
Y03322*
X02168*
X02171Y03323*
X02175Y03325*
X02177Y03329*
X02178Y03333*
Y0341*
X02254Y03486*
X02259Y03492*
X02262Y035*
X02263Y03508*
Y0353*
X02263Y0353*
X0227Y03539*
X02274Y03549*
X02275Y03561*
X02274Y03572*
X0227Y03582*
X02263Y03591*
X02263Y03591*
Y03662*
X02262Y03669*
X02259Y03677*
X02254Y03683*
X02206Y03731*
Y0375*
X02209Y03752*
X02216Y03762*
X02221Y03773*
X02222Y03786*
X02221Y03798*
X02216Y03809*
X02209Y03819*
X02199Y03826*
X02188Y03831*
X02176Y03832*
X02163Y03831*
X02152Y03826*
X02143Y03819*
X02135Y03809*
X0213Y03798*
X02129Y03786*
X0213Y03773*
X02135Y03762*
X02143Y03752*
X02145Y0375*
Y03718*
X02146Y03711*
X02149Y03703*
X02154Y03697*
X02202Y03649*
Y03591*
X02202Y03591*
X02195Y03582*
X02191Y03572*
X0219Y03561*
X02191Y03549*
X02195Y03539*
X02202Y0353*
X02202Y0353*
Y0352*
X02133Y03451*
X02083*
X02079Y0345*
X02075Y03448*
X02073Y03444*
X02072Y0344*
Y03333*
X02073Y03329*
X02075Y03325*
X02079Y03323*
X02083Y03322*
X02095*
Y03257*
X02083*
X02079Y03256*
X02075Y03254*
X02073Y0325*
X02072Y03246*
Y0315*
X02072*
X02064Y03149*
X02057Y03146*
X02051Y03141*
X01943Y03033*
X01938Y03027*
X01935Y0302*
X01934Y03012*
Y0286*
X01935Y02852*
X01938Y02845*
X01943Y02839*
X02019Y02763*
X02025Y02758*
X02033Y02755*
X02041Y02754*
X02197*
X02201Y02745*
X02184Y02727*
X02182Y02726*
X02167Y02711*
X02164Y0271*
X02159Y02707*
X02158Y02706*
X02158Y02705*
X02147*
X02147Y02706*
X02146Y02707*
X02141Y0271*
X02136Y02711*
X02109*
X02104Y0271*
X02099Y02707*
X02087Y02706*
X02087Y02706*
X02078Y02708*
X02068Y02706*
X0206Y02701*
X02055Y02693*
X02053Y02684*
X02055Y02674*
X0206Y02666*
X02068Y02661*
X02068Y0266*
X02067Y02651*
X02066Y02651*
X02058Y02645*
X02053Y02637*
X02051Y02628*
X02053Y02619*
X02058Y02611*
X02066Y02605*
X02076Y02604*
X02085Y02605*
X02085Y02605*
X02094Y02603*
X02096Y02602*
X02097Y02596*
X02096Y02593*
X02095Y02588*
Y02584*
X02123*
Y02564*
X02095*
Y02561*
X02096Y02556*
X02097Y02553*
X02095Y02547*
X02087Y02543*
X02078Y02544*
X02068Y02543*
X0206Y02537*
X02055Y02529*
X02053Y0252*
X02055Y02511*
X0206Y02503*
X02068Y02497*
X02078Y02495*
X02087Y02497*
X02087Y02498*
X02099Y02496*
X02101Y02484*
X02014Y02398*
X01866*
X01822Y02442*
Y02658*
X01827Y02662*
X01832Y02663*
X01839Y0266*
X01848Y02659*
X01857Y0266*
X01866Y02664*
X01866Y02664*
X01903*
Y02635*
X01904Y02631*
X01906Y02627*
X01909Y02625*
X01913Y02624*
X01978*
X01982Y02625*
X01985Y02627*
X01987Y02631*
X01988Y02635*
Y02755*
X01987Y02758*
X01985Y02762*
X01982Y02764*
X01978Y02765*
X01913*
X01909Y02764*
X01906Y02762*
X01904Y02758*
X01903Y02755*
Y02725*
X01866*
X01866Y02725*
X01857Y02729*
X01848Y0273*
X01839Y02729*
X01832Y02726*
X01827Y02727*
X01822Y02731*
Y0274*
X01821Y02745*
X01817Y0275*
X01705Y02863*
Y03853*
X01704Y03859*
X017Y03864*
X01668Y03896*
X01663Y039*
X01657Y03901*
X0131*
X01304Y039*
X01299Y03896*
X01217Y03814*
X01214Y03814*
X01205Y03813*
X01197Y03807*
X01192Y03799*
X0119Y0379*
X01192Y03781*
X01188Y03771*
X01183Y03769*
X01181Y0377*
X01176Y03771*
X0115*
X01144Y0377*
X01139Y03767*
X01133*
X01128Y0377*
X01122Y03771*
X01119*
Y03744*
X01109*
Y03734*
X01081*
Y0373*
X01082Y03725*
X01086Y0372*
X01087Y03719*
X01087Y03719*
Y03708*
X01087Y03708*
X01086Y03707*
X01082Y03702*
X01081Y03697*
Y0367*
X01082Y03665*
X01086Y0366*
X0109Y03657*
X01095Y03656*
Y03603*
X01085*
X01081Y03602*
X01078Y036*
X01076Y03597*
X01075Y03593*
Y03528*
X01076Y03524*
X01078Y03521*
X01081Y03519*
X01085Y03518*
X0115*
X01154Y03519*
X01157Y03521*
X01159Y03524*
X0116Y03528*
Y03591*
X01165Y03594*
X0117Y03595*
X01182Y03584*
X0118Y03582*
X01176Y03572*
X01175Y03561*
X01176Y03549*
X0118Y03539*
X01187Y0353*
X01196Y03523*
X01206Y03519*
X01218Y03518*
X01229Y03519*
X01239Y03523*
X01248Y0353*
X01255Y03539*
X01259Y03549*
X0126Y03555*
X01269Y03559*
X01275Y03555*
X01276Y03549*
X0128Y03539*
X01287Y0353*
X01296Y03523*
X01306Y03519*
X01318Y03518*
X01329Y03519*
X01339Y03523*
X01348Y0353*
X01355Y03539*
X01359Y03549*
X0136Y03561*
X01359Y03572*
X01355Y03582*
X01348Y03591*
X01339Y03598*
X01329Y03602*
X01318Y03603*
X01306Y03602*
X01296Y03598*
X01287Y03591*
X01285Y03591*
X01273Y03603*
X01273Y03605*
X01277Y03613*
X01283Y03614*
X01291Y0362*
X01297Y03628*
X01298Y03637*
X01297Y03646*
X01301Y03656*
X01304Y03657*
X01305Y03657*
X0131Y03656*
X01314*
X01314Y03653*
X01318Y03648*
X01382Y03584*
X0138Y03582*
X01376Y03572*
X01375Y03561*
X01376Y03549*
X0138Y03539*
X01387Y0353*
X01396Y03523*
X01406Y03519*
X01418Y03518*
X01429Y03519*
X01439Y03523*
X01448Y0353*
X01455Y03539*
X01459Y03549*
X0146Y03561*
X01459Y03572*
X01455Y03582*
X01448Y03591*
X01439Y03598*
X01429Y03602*
X01418Y03603*
X01407Y03602*
X01348Y03661*
X0135Y03665*
X01351Y0367*
Y03697*
X0135Y03702*
X01347Y03707*
X01346Y03708*
X01345Y03708*
Y03719*
X01346Y03719*
X01347Y0372*
X0135Y03725*
X01351Y0373*
Y03757*
X0135Y03762*
X01347Y03767*
X01346Y03779*
X01346Y03779*
X01348Y03789*
X01348Y03791*
X01407Y0385*
X01642*
X01654Y03838*
Y03827*
X01644Y03826*
X01642Y03829*
X01639Y03831*
X01635Y03832*
X01562*
X01558Y03831*
X01555Y03829*
X01553Y03826*
X01552Y03822*
Y0375*
X01549Y03748*
X01542Y03746*
X01541Y03748*
X01507Y03782*
X01507Y03786*
X01506Y03798*
X01501Y03809*
X01494Y03819*
X01484Y03826*
X01473Y03831*
X01461Y03832*
X01448Y03831*
X01437Y03826*
X01428Y03819*
X0142Y03809*
X01415Y03798*
X01414Y03786*
X01415Y03773*
X0142Y03762*
X01428Y03752*
X01437Y03745*
X01448Y0374*
X01461Y03739*
X01464Y03739*
X01489Y03714*
Y03592*
X01487Y03591*
X0148Y03582*
X01476Y03572*
X01475Y03561*
X01476Y03549*
X0148Y03539*
X01487Y0353*
X01489Y03529*
Y03517*
X01423Y03451*
X01368*
X01364Y0345*
X01361Y03448*
X01359Y03444*
X01358Y0344*
Y03333*
X01359Y03329*
X01361Y03325*
X01364Y03323*
X01368Y03322*
X01381*
Y03257*
X01368*
X01364Y03256*
X01361Y03254*
X01359Y0325*
X01358Y03246*
Y03139*
X01359Y03135*
X01361Y03131*
X01364Y03129*
X01368Y03128*
X01423*
X01525Y03026*
X01521Y03016*
X01517Y03015*
X01515Y03014*
X01515Y03014*
X01503Y03015*
X01498Y03019*
X01493Y0302*
X01466*
X01461Y03019*
X01456Y03015*
X01455Y03014*
X01455Y03014*
X01444*
X01444Y03014*
X01443Y03015*
X01438Y03019*
X01433Y0302*
X01406*
X01401Y03019*
X01396Y03015*
X01393Y03011*
X01393Y0301*
X01383Y03006*
X01382Y03006*
X01378Y03008*
X01369Y0301*
X0136Y03008*
X01353Y03006*
X01349Y03008*
X01346Y03009*
X01281*
X01277Y03008*
X01273Y03006*
X01271Y03003*
X0127Y02999*
Y02974*
X01271Y0297*
X01273Y02967*
X01273Y02967*
Y02956*
X01273Y02956*
X01271Y02953*
X0127Y02949*
Y02924*
X01271Y0292*
X01273Y02917*
X01273Y02917*
Y02906*
X01273Y02906*
X01271Y02903*
X0127Y02899*
Y02874*
X01271Y0287*
X01273Y02867*
X01273Y02867*
Y02856*
X01273Y02856*
X01271Y02853*
X0127Y02849*
Y02824*
X01271Y0282*
X01273Y02817*
X01273Y02817*
Y02806*
X01273Y02806*
X01271Y02803*
X0127Y02799*
Y02774*
X01271Y0277*
X01273Y02767*
X01273Y02767*
Y02756*
X01273Y02756*
X01271Y02753*
X01271Y02751*
X0127Y0275*
X0126Y02755*
X0126Y02755*
Y03*
X01259Y03005*
X01255Y0301*
X0119Y03075*
X01185Y03079*
X0118Y0308*
X01031*
X01Y03111*
Y03122*
X01002Y03124*
X0101Y03129*
X01011Y03128*
X01096*
X011Y03129*
X01103Y03131*
X01106Y03135*
X01106Y03139*
Y03162*
X01131*
X01135Y0316*
X01145Y03159*
X01154Y0316*
X01158Y03162*
X01184*
Y03139*
X01185Y03135*
X01187Y03131*
X0119Y03129*
X01194Y03128*
X01279*
X01283Y03129*
X01286Y03131*
X01289Y03135*
X01289Y03139*
Y03246*
X01289Y0325*
X01286Y03254*
X01283Y03256*
X01279Y03257*
X01194*
X0119Y03256*
X01187Y03254*
X01185Y0325*
X01184Y03246*
Y03223*
X01165*
X01162Y03225*
X01154Y03229*
X01145Y0323*
X01135Y03229*
X01127Y03225*
X01124Y03223*
X01106*
Y03246*
X01106Y0325*
X01103Y03254*
X011Y03256*
X01096Y03257*
X01011*
X0101Y03256*
X01002Y03261*
X01Y03263*
Y03316*
X01002Y03318*
X0101Y03323*
X01011Y03322*
X01096*
X011Y03323*
X01103Y03325*
X01106Y03329*
X01106Y03333*
Y03356*
X01121*
X01122Y03356*
X0113Y03352*
X0114Y03351*
X01149Y03352*
X01157Y03356*
X01158Y03356*
X01184*
Y03333*
X01185Y03329*
X01187Y03325*
X0119Y03323*
X01194Y03322*
X01279*
X01283Y03323*
X01286Y03325*
X01289Y03329*
X01289Y03333*
Y0344*
X01289Y03444*
X01286Y03448*
X01283Y0345*
X01279Y03451*
X01194*
X0119Y0345*
X01187Y03448*
X01185Y03444*
X01184Y0344*
Y03417*
X01158*
X01157Y03417*
X01149Y03421*
X0114Y03422*
X0113Y03421*
X01122Y03417*
X01121Y03417*
X01106*
Y0344*
X01106Y03444*
X01103Y03448*
X011Y0345*
X01096Y03451*
X01011*
X0101Y0345*
X01002Y03455*
X01Y03457*
Y03783*
X00999Y03789*
X00995Y03794*
X00909Y0388*
X00904Y03884*
X00898Y03885*
X00539*
X00533Y03884*
X00528Y0388*
X00462Y03814*
X00459Y03814*
X0045Y03813*
X00442Y03807*
X00437Y03799*
X00435Y0379*
X00437Y03781*
X00437Y0378*
X00435Y03775*
X00433Y0377*
X00426Y03768*
X00423Y0377*
X00418Y03771*
X00392*
X00386Y0377*
X00381Y03767*
X00374*
X00369Y0377*
X00363Y03771*
X0036*
Y03744*
X0035*
Y03734*
X00322*
Y0373*
X00323Y03725*
X00327Y0372*
X00328Y03719*
X00328Y03719*
Y03708*
X00328Y03708*
X00327Y03707*
X00323Y03702*
X00322Y03697*
Y0367*
X00323Y03665*
X00327Y0366*
X00331Y03657*
X00335Y03656*
Y03603*
X00334*
X0033Y03602*
X00327Y036*
X00325Y03597*
X00324Y03593*
Y03528*
X00325Y03524*
X00327Y03521*
X0033Y03519*
X00334Y03518*
X00399*
X00403Y03519*
X00406Y03521*
X00408Y03524*
X00409Y03528*
Y03582*
X00419Y03586*
X00428Y03578*
X00425Y03572*
X00424Y03561*
X00425Y03549*
X00429Y03539*
X00436Y0353*
X00445Y03523*
X00455Y03519*
X00467Y03518*
X00478Y03519*
X00488Y03523*
X00497Y0353*
X00504Y03539*
X00508Y03549*
X00508Y0355*
X00519Y03554*
X00523Y0355*
X00526Y03548*
X00529Y03539*
X00536Y0353*
X00545Y03523*
X00555Y03519*
X00567Y03518*
X00578Y03519*
X00588Y03523*
X00597Y0353*
X00604Y03539*
X00608Y03549*
X00609Y03561*
X00608Y03572*
X00604Y03582*
X00597Y03591*
X00588Y03598*
X00578Y03602*
X00567Y03603*
X00555Y03602*
X00545Y03598*
X00536Y03591*
X00536Y0359*
X00526Y0359*
X00512Y03604*
X00514Y0361*
X00517Y03613*
X00525Y03615*
X00533Y0362*
X00538Y03628*
X0054Y03637*
X00538Y03647*
X00542Y03656*
X00545Y03657*
X00554Y03653*
X00558Y03648*
X00628Y03578*
X00625Y03572*
X00624Y03561*
X00625Y03549*
X00629Y03539*
X00636Y0353*
X00645Y03523*
X00655Y03519*
X00667Y03518*
X00678Y03519*
X00688Y03523*
X00697Y0353*
X00704Y03539*
X00708Y03549*
X00709Y03561*
X00708Y03572*
X00704Y03582*
X00697Y03591*
X00688Y03598*
X00678Y03602*
X00667Y03603*
X00655Y03602*
X00649Y03599*
X00592Y03657*
X00592Y0366*
X00595Y03665*
X00596Y0367*
Y03697*
X00595Y03702*
X00592Y03707*
X00591Y03708*
X0059Y03708*
Y03719*
X00591Y03719*
X00592Y0372*
X00595Y03725*
X00596Y0373*
Y03757*
X00595Y03762*
X00592Y03767*
X00591Y03779*
X00591Y03779*
X00593Y03789*
X00593Y03791*
X00636Y03834*
X00679*
X00682Y03824*
X00675Y03819*
X00667Y03809*
X00662Y03798*
X00661Y03786*
X00662Y03773*
X00667Y03762*
X00675Y03752*
X00684Y03745*
X00696Y0374*
X00708Y03739*
X00711Y03739*
X00736Y03714*
Y03591*
X00736Y03591*
X00729Y03582*
X00725Y03572*
X00724Y03561*
X00725Y03549*
X00729Y03539*
X00736Y0353*
X0073Y03523*
X00673Y03466*
X00668Y0346*
X00665Y03452*
X00665Y03451*
X00654*
X0065Y0345*
X00647Y03448*
X00645Y03444*
X00644Y0344*
Y03333*
X00645Y03329*
X00647Y03325*
X0065Y03323*
X00654Y03322*
X00664*
Y03257*
X00654*
X0065Y03256*
X00647Y03254*
X00645Y0325*
X00644Y03246*
Y03157*
X00626Y03139*
X00575*
Y03246*
X00574Y0325*
X00572Y03254*
X00569Y03256*
X00565Y03257*
X0048*
X00476Y03256*
X00473Y03254*
X00471Y0325*
X0047Y03246*
Y03223*
X00443*
X00443Y03223*
X00434Y03227*
X00425Y03228*
X00416Y03227*
X00408Y03223*
X004Y03217*
X00395Y0321*
X00391Y03202*
X0039Y03193*
X00391Y03183*
X00395Y03175*
X004Y03168*
X00408Y03162*
X00416Y03158*
X00425Y03157*
X00434Y03158*
X00443Y03162*
X00443Y03162*
X0047*
Y03139*
X00471Y03135*
X00473Y03131*
X00476Y03129*
X0048Y03128*
X00487*
X00491Y03119*
X00423Y03052*
X00418Y03045*
X00415Y03038*
X00414Y0303*
Y02862*
X00415Y02854*
X00418Y02847*
X00423Y02841*
X00504Y0276*
X005Y0275*
X00486*
X00483Y02752*
X00473Y02754*
X00464Y02752*
X00456Y02747*
X00451Y02739*
X00449Y0273*
X00451Y0272*
X00456Y02712*
X00464Y02707*
X00473Y02705*
X00483Y02707*
X00486Y02709*
X00549*
X00575Y02682*
Y0267*
X00576Y02665*
X00578Y02663*
X00579Y02656*
X00578Y0265*
X00576Y02648*
X00575Y02642*
Y02616*
X00576Y0261*
X0058Y02605*
Y02598*
X00576Y02593*
X00575Y02588*
Y02584*
X00603*
Y02564*
X00575*
Y02561*
X00576Y02556*
X0058Y02551*
Y02543*
X00576Y02539*
X00575Y02533*
Y02507*
X00576Y02501*
X0058Y02496*
X00584Y02493*
X00588Y02493*
Y02488*
X00589Y02482*
X00592Y02477*
X00607Y02462*
X00612Y02458*
X00618Y02457*
X00619*
X0062Y02455*
X00628Y0245*
X00638Y02448*
X00647Y0245*
X00655Y02455*
X0066Y02463*
X00662Y02473*
X0066Y02482*
X0066Y02482*
X00665Y02492*
X00676*
X00682Y02493*
X00686Y02496*
X0069Y02501*
X00691Y02507*
Y02533*
X0069Y02539*
X00686Y02543*
Y02551*
X00687Y02552*
X0069Y02556*
X0069Y02558*
X00691Y02559*
X00694*
X007Y0256*
X00705Y02564*
X00731Y02589*
X0074Y02586*
Y02574*
X00741Y0257*
X00743Y02567*
X00743Y02567*
Y02556*
X00743Y02556*
X00741Y02553*
X0074Y02549*
Y0253*
X00739Y02528*
X00731Y02523*
X00731Y02523*
X00725Y02524*
X00715Y02522*
X00707Y02517*
X00702Y02509*
X007Y025*
X00702Y0249*
X00707Y02482*
X00709Y02481*
Y02463*
X0071Y02457*
X00714Y02452*
X00882Y02284*
X00887Y0228*
X00893Y02279*
X01119*
X01182Y02216*
X0118Y02204*
X01177Y02202*
X01171Y02194*
X0117Y02185*
X01171Y02175*
X01174Y02171*
X01175Y02168*
X01172Y02165*
X01163Y0216*
X01158Y02163*
X01153Y02164*
X01126*
X01121Y02163*
X01116Y0216*
X01114Y02157*
X01094*
X01094Y02157*
X01085Y02159*
X01075Y02157*
X01067Y02152*
X01062Y02144*
X0106Y02135*
X01062Y02125*
X01067Y02117*
X01075Y02112*
X01085Y0211*
X01094Y02112*
X011Y02116*
X01114*
X01116Y02113*
Y02105*
X01113Y021*
X01112Y02095*
Y02068*
X01113Y02063*
X01114Y0206*
X01115Y02054*
X01114Y02047*
X01113Y02045*
X01112Y0204*
Y02013*
X01108Y02009*
X01087*
Y02023*
X01086Y02029*
X01083Y02034*
X01077Y02038*
X01071Y02039*
X01059*
X01053Y02038*
X01048Y02034*
X01046Y02031*
X01042Y0203*
X01038*
X01035Y02031*
X01033Y02034*
X01027Y02038*
X01021Y02039*
X01009*
X01003Y02038*
X00998Y02034*
X00996Y02031*
X00995Y02031*
X00986Y02032*
X00986Y02032*
Y0205*
X00987Y0205*
X00992Y02053*
X00995Y02058*
X00996Y02063*
Y0209*
X00995Y02095*
X00992Y021*
X00991Y02101*
X0099Y02101*
Y02112*
X00991Y02112*
X00992Y02113*
X00995Y02118*
X00996Y02123*
Y0215*
X00995Y02155*
X00992Y0216*
X00991Y02172*
X00991Y02172*
X00993Y02182*
X00991Y02191*
X00986Y02199*
X00978Y02204*
X00969Y02206*
X00959Y02204*
X00951Y02199*
X00946Y02191*
X00944Y02182*
X00946Y02172*
X00942Y02163*
X00935Y02161*
X00932Y02163*
X00927Y02164*
X00925*
X00921Y02166*
X00914Y02167*
X00884*
X00876Y02166*
X00868Y02163*
X00862Y02158*
X00843Y02139*
X00838Y02133*
X00835Y02125*
X00834Y02118*
Y0206*
X00833Y02059*
X0081*
Y02086*
X0081Y02086*
X00814Y02095*
X00815Y02104*
X00814Y02113*
X0081Y02121*
X00804Y02129*
X00797Y02134*
X00789Y02138*
X0078Y02139*
X0077Y02138*
X00762Y02134*
X00755Y02129*
X00749Y02121*
X00745Y02113*
X00744Y02104*
X00745Y02095*
X00749Y02086*
X00749Y02086*
Y02059*
X00726*
X00722Y02058*
X00718Y02056*
X00716Y02053*
X00715Y02049*
Y01964*
X00716Y0196*
X00718Y01957*
X00722Y01955*
X00726Y01954*
X00833*
X00834Y01953*
Y01935*
X00835Y01927*
X00838Y01919*
X00843Y01913*
X0092Y01836*
X00916Y01826*
X00909*
X00903Y01825*
X00898Y01821*
X00894Y01816*
X00893Y0181*
Y01761*
X00894Y01755*
X00898Y01749*
X00903Y01746*
X00909Y01745*
X00921*
X00927Y01738*
X0092Y0173*
X00819*
X00811Y01729*
X00804Y01726*
X00798Y01721*
X00779Y01703*
X00761Y01721*
X00755Y01726*
X00747Y01729*
X0074Y0173*
X0064*
X0064Y0173*
X00633Y01738*
Y01762*
X00664*
X00674Y01764*
X00682Y01769*
X00706Y01794*
X0071Y01792*
X00716Y01789*
X00716Y01786*
X00718Y01783*
X00722Y01781*
X00726Y0178*
X00833*
X00837Y01781*
X00841Y01783*
X00843Y01786*
X00844Y0179*
Y01875*
X00843Y01879*
X00841Y01882*
X00837Y01884*
X00833Y01885*
X00726*
X00722Y01884*
X00718Y01882*
X00716Y01879*
X00715Y01875*
Y01858*
X00709*
X00699Y01856*
X00691Y01851*
X00653Y01813*
X00633*
Y01837*
X00632Y0184*
X0063Y01844*
X00626Y01846*
X00622Y01847*
X00536*
X00505Y01878*
X00497Y01883*
X00487Y01885*
X00429*
X00428Y01886*
X00425Y01895*
X00428Y019*
X0043Y0191*
X00428Y01919*
X00423Y01927*
X00415Y01932*
X00406Y01934*
X00396Y01932*
X00392Y0193*
X00391Y0193*
X00385Y01932*
X00336*
X0033Y0193*
X00324Y01927*
X00321Y01922*
X0032Y01915*
Y01904*
X00321Y01897*
X00324Y01892*
X00328Y0189*
X00328Y01887*
Y01882*
X00328Y01879*
X00324Y01877*
X00321Y01872*
X0032Y01865*
Y01854*
X00321Y01847*
X00324Y01842*
X00328Y0184*
X00328Y01837*
Y01832*
X00328Y01829*
X00324Y01827*
X00321Y01822*
X0032Y01815*
Y01804*
X00321Y01797*
X00324Y01792*
X00328Y0179*
X00328Y01787*
Y01782*
X00328Y01779*
X00324Y01777*
X00321Y01772*
X0032Y01765*
Y01754*
X00321Y01747*
X00324Y01742*
X00328Y0174*
X00327Y01732*
X00326Y0173*
X00182*
X00181Y01732*
X0018Y0174*
X00184Y01742*
X00187Y01747*
X00189Y01754*
Y01765*
X00187Y01772*
X00184Y01777*
X00181Y01779*
X0018Y01782*
Y01787*
X00181Y0179*
X00184Y01792*
X00187Y01797*
X00189Y01804*
Y01815*
X00187Y01822*
X00184Y01827*
X00181Y01829*
X0018Y01832*
Y01837*
X00181Y0184*
X00184Y01842*
X00187Y01847*
X00189Y01854*
Y01865*
X00187Y01872*
X00184Y01877*
X00181Y01879*
X0018Y01882*
Y01887*
X00181Y0189*
X00184Y01892*
X00187Y01897*
X00189Y01904*
Y01915*
X00187Y01922*
X00184Y01927*
X00179Y0193*
X00173Y01932*
X00169*
Y01989*
X00179Y01994*
X00181Y01993*
X00186Y01992*
X00213*
X00218Y01993*
X0022Y01994*
X0023*
X00231Y01993*
X00237Y01992*
X00263*
X00269Y01993*
X00271Y01994*
X00284*
X00286Y01993*
X00292Y01992*
X00318*
X00324Y01993*
X00325Y01994*
X00339*
X00341Y01993*
X00346Y01992*
X00373*
X00378Y01993*
X0038Y01994*
X00486*
Y01962*
X00487Y01959*
X00489Y01955*
X00493Y01953*
X00497Y01952*
X00622*
X00626Y01953*
X0063Y01955*
X00632Y01959*
X00633Y01962*
Y02061*
X00632Y02065*
X0063Y02068*
X00626Y0207*
X00622Y02071*
X00497*
X00493Y0207*
X00489Y02068*
X00487Y02065*
X00486Y02061*
Y02045*
X00384*
X00381Y02055*
X00382Y02055*
X00383Y02056*
X00386Y02061*
X00387Y02066*
Y0207*
X0036*
Y0208*
X0035*
Y02107*
X00346*
X00341Y02106*
X00336Y02103*
X00328*
X00324Y02106*
X00318Y02107*
X00315*
Y0208*
X00295*
Y02107*
X00292*
X00286Y02106*
X00281Y02103*
X00274*
X00269Y02106*
X00263Y02107*
X0026*
Y0208*
X0024*
Y02107*
X00237*
X00231Y02106*
X00225Y02104*
X00218Y02106*
X00213Y02107*
X00186*
X00181Y02106*
X00179Y02105*
X00132*
X0013Y02106*
X00125Y02107*
X00098*
X00093Y02106*
X00088Y02103*
X00085Y02098*
X00084Y02093*
Y02066*
X00085Y02061*
X00088Y02056*
X00089Y02055*
X0009Y02055*
Y02044*
X00089Y02044*
X00088Y02043*
X00076Y02042*
X00076Y02042*
X00067Y02044*
X00057Y02042*
X00049Y02037*
X00044Y02029*
X00042Y0202*
X00044Y0201*
X00049Y02002*
X00057Y01997*
X00067Y01995*
X00076Y01997*
X00076Y01997*
X00088Y01996*
X00093Y01993*
X00098Y01992*
X00125*
X00129Y01988*
Y01932*
X00123*
X00117Y0193*
X00111Y01928*
X00107Y01935*
X00106Y01936*
X00098Y01941*
X00089Y01943*
X00079Y01941*
X00072Y01948*
X00071Y01949*
X00066Y01952*
X00061Y01953*
X00034*
X00029Y01952*
X00024Y01949*
X00021Y01944*
X0002Y01939*
Y01912*
X00021Y01907*
X00024Y01902*
X00025Y01901*
X00026Y01901*
Y0189*
X00025Y0189*
X00024Y01889*
X00021Y01884*
X0002Y01879*
Y01852*
X00021Y01847*
X00022Y01845*
Y01831*
X00021Y01829*
X0002Y01824*
Y01797*
X00021Y01792*
X00024Y01787*
X00025Y01786*
X00026Y01786*
Y01775*
X00025Y01775*
X00024Y01774*
X00021Y01769*
X0002Y01764*
Y01762*
X00018Y01758*
X00017Y01751*
Y01712*
X00018Y01704*
X00021Y01696*
X00026Y0169*
X00038Y01678*
X00044Y01673*
X00052Y0167*
X0006Y01669*
X0048*
X00553*
X00554Y01669*
X00562Y01665*
X00572Y01664*
X00581Y01665*
X00589Y01669*
X0059Y01669*
X00637*
X00642Y01659*
X00642Y01659*
X0064Y0165*
X00642Y0164*
X00647Y01632*
X00653Y01629*
X00653Y0162*
X00653Y01617*
X00649Y01615*
X00644Y01607*
X00642Y01598*
X00644Y01588*
X00649Y0158*
X00657Y01575*
X00667Y01573*
X00676Y01575*
X00677Y01575*
X00684Y01564*
X00684Y01564*
X00683Y01563*
X00682Y01558*
Y01531*
X00678Y01527*
X00667*
X00587Y01607*
X00583Y01609*
X0058Y0161*
X004*
X00396Y01609*
X00392Y01607*
X0039Y01603*
X00389Y016*
Y014*
X0039Y01396*
X00392Y01392*
X00492Y01292*
X00496Y0129*
X005Y01289*
X0074*
X0074Y01289*
Y01263*
X00723Y01246*
X00704*
X007Y01245*
X00697Y01243*
X00695Y01239*
X00694Y01236*
Y01116*
X00695Y01112*
X00697Y01108*
X007Y01106*
X00704Y01105*
X00769*
X00773Y01106*
X00776Y01108*
X00778Y01112*
X00779Y01116*
Y01216*
X00791Y01229*
X00796Y01235*
X00799Y01242*
X008Y0125*
Y01345*
Y01399*
Y01452*
Y01468*
X008Y01469*
X00808Y01476*
X00888*
X00893Y01471*
Y01412*
X00881*
X00877Y01411*
X00874Y01409*
X00872Y01405*
X00871Y01401*
Y01294*
X00872Y0129*
X00874Y01286*
X00877Y01284*
X00881Y01283*
X00926*
Y00839*
X00924Y00836*
X00911Y00835*
X009Y00831*
X00889Y00826*
X0088Y00818*
X00872Y00809*
X00867Y00798*
X00863Y00787*
X00862Y00775*
X00863Y00762*
X00867Y00751*
X00872Y0074*
X0088Y00731*
X00889Y00723*
X009Y00718*
X00911Y00714*
X00924Y00713*
X00926Y0071*
Y0021*
Y0012*
X0*
Y04057*
X03937*
Y0245*
G37*
G36*
X00663Y01516D02*
X0074D01*
Y01475*
X00735Y01473*
X00734Y01475*
X00729Y01478*
X00723Y01479*
X0072*
Y01452*
X0071*
Y01442*
X00682*
Y01438*
X00683Y01433*
X00687Y01428*
X00687Y01427*
Y01422*
X00687Y01422*
X00683Y01417*
X00682Y01412*
Y01409*
X0071*
Y01389*
X00682*
Y01385*
X00683Y0138*
X00687Y01375*
X00687Y01374*
Y01369*
X00687Y01369*
X00683Y01364*
X00682Y01359*
Y01356*
X0071*
Y01345*
X0072*
Y01318*
X00723*
X00729Y01319*
X00734Y01322*
X00735Y01324*
X0074Y01322*
Y013*
X005*
X004Y014*
Y016*
X0058*
X00663Y01516*
G37*
G36*
X03937Y0012D02*
X00937D01*
Y0021*
Y00714*
X00947Y00718*
X00958Y00723*
X00967Y00731*
X00975Y0074*
X0098Y00751*
X00984Y00762*
X00985Y00775*
X00984Y00787*
X0098Y00798*
X00975Y00809*
X00967Y00818*
X00958Y00826*
X00947Y00831*
X00937Y00835*
Y01283*
X00966*
X0097Y01284*
X00973Y01286*
X00975Y0129*
X00976Y01294*
Y01401*
X00975Y01405*
X00973Y01409*
X0097Y01411*
X00966Y01412*
X00954*
Y01483*
X00953Y01491*
X0095Y01498*
X00945Y01505*
X00937Y01513*
Y01564*
X01037Y01664*
X01042Y0167*
X01045Y01678*
X01046Y01685*
Y01718*
X01052Y01721*
X01056Y01718*
X01065Y01716*
X01075Y01718*
X01083Y01723*
X01088Y01731*
X0109Y0174*
X01088Y0175*
X01085Y01753*
X01086Y01755*
X01087Y01761*
Y0181*
X01086Y01816*
X01083Y01821*
X01077Y01825*
X01071Y01826*
X01059*
X01053Y01825*
X01048Y01821*
X01044Y01816*
X01043Y0181*
X01037*
X01036Y01816*
X01033Y01821*
X01027Y01825*
X01021Y01826*
X01009*
X01003Y01825*
X01002Y01824*
X00996Y01827*
Y01834*
X00995Y01841*
X00992Y01849*
X00987Y01855*
X00937Y01905*
Y01969*
X00937Y01973*
X00943*
X00944Y01967*
X00948Y01962*
X00953Y01958*
X00959Y01957*
X00971*
X00977Y01958*
X00983Y01962*
X00986Y01967*
X00987Y01973*
X00993*
X00994Y01967*
X00998Y01962*
X01003Y01958*
X01009Y01957*
X01021*
X01027Y01958*
X01033Y01962*
X01036Y01967*
X01037Y01973*
X01043*
X01044Y01967*
X01048Y01962*
X01053Y01958*
X01059Y01957*
X01071*
X01077Y01958*
X01083Y01962*
X01086Y01967*
X01087Y01969*
X01108*
X01112Y01965*
Y01938*
X01113Y01933*
X01116Y01928*
X01117Y01927*
Y01921*
X01116Y0192*
X01113Y01915*
X01112Y0191*
Y01883*
X01113Y01878*
X01116Y01873*
X01117Y01872*
Y01866*
X01116Y01865*
X01113Y0186*
X01112Y01855*
Y01828*
X01113Y01823*
X01116Y01818*
X01117Y01817*
Y01811*
X01116Y0181*
X01113Y01805*
X01112Y018*
Y01773*
X01113Y01768*
X01116Y01763*
X01119Y01761*
Y01743*
X01065Y01689*
X01061Y01682*
X01059Y01675*
Y01623*
X01032*
X01029Y01622*
X01025Y0162*
X01023Y01616*
X01022Y01612*
Y01487*
X01023Y01483*
X01025Y01479*
X01029Y01477*
X01032Y01476*
X01131*
X01135Y01477*
X01138Y01479*
X0114Y01483*
X01141Y01487*
Y01612*
X0114Y01616*
X01138Y0162*
X01135Y01622*
X01131Y01623*
X011*
Y01666*
X01154Y0172*
X01158Y01727*
X0116Y01735*
Y01761*
X01163Y01763*
X01166Y01768*
X01166Y01769*
X01173*
X01173Y01768*
X01176Y01763*
X01181Y0176*
X01186Y01759*
X0119*
Y01786*
X0121*
Y01759*
X01213*
X01215Y01757*
X01215Y0175*
X01192Y01727*
X01189Y01722*
X01188Y01716*
Y01688*
X01189Y01682*
X01192Y01677*
X01205Y01664*
Y01145*
X01206Y01139*
X0121Y01134*
X01288Y01056*
X01287Y01053*
Y01033*
X01307*
X0131Y01034*
X01414Y0093*
Y00904*
X01408Y00902*
X01399Y00895*
X01392Y00886*
X01388Y00876*
X01387Y00865*
X01388Y00853*
X01392Y00843*
X01399Y00834*
X01408Y00827*
X01418Y00823*
X0143Y00822*
X01441Y00823*
X01451Y00827*
X0146Y00834*
X01467Y00843*
X01471Y00853*
X01472Y00865*
X01471Y00876*
X01467Y00886*
X0146Y00895*
X01451Y00902*
X01445Y00904*
Y0092*
X0145Y00922*
X01491Y00882*
X01488Y00876*
X01487Y00865*
X01488Y00853*
X01492Y00843*
X01499Y00834*
X01508Y00827*
X01518Y00823*
X0153Y00822*
X01541Y00823*
X01551Y00827*
X0156Y00834*
X01567Y00843*
X01571Y00853*
X01572Y00865*
X01571Y00876*
X01567Y00886*
X0156Y00895*
X01551Y00902*
X01541Y00906*
X0153Y00907*
X01518Y00906*
X01512Y00903*
X01429Y00986*
X01432Y00992*
X01787*
X01793Y00993*
X01798Y00996*
X01817Y01016*
X0182Y01015*
X01829Y01017*
X01837Y01022*
X01842Y0103*
X01844Y0104*
X01842Y01049*
X01837Y01057*
X01829Y01062*
X0182Y01064*
X0181Y01062*
X01802Y01057*
X01797Y01049*
X01795Y0104*
X01796Y01037*
X01781Y01022*
X01751*
X01749Y01028*
X01813Y01092*
X01815Y01091*
X01824Y01093*
X01832Y01098*
X01838Y01106*
X01839Y01116*
X01838Y01125*
X01835Y01128*
X01835Y01129*
X01837Y01136*
X01838Y01137*
X01839Y01138*
X01846*
X01846Y01137*
X01848Y01136*
X0185Y01129*
X0185Y01128*
X01847Y01125*
X01845Y01116*
X01847Y01106*
X01853Y01098*
X01861Y01093*
X0187Y01091*
X01879Y01093*
X01887Y01098*
X01893Y01106*
X01894Y01116*
X01893Y01125*
X0189Y01128*
X0189Y01129*
X01892Y01136*
X01893Y01137*
X01894Y01138*
X01901*
X01901Y01137*
X01903Y01136*
X01905Y01129*
X01905Y01128*
X01902Y01125*
X019Y01116*
X01902Y01106*
X01908Y01098*
X01916Y01093*
X01925Y01091*
X01934Y01093*
X01942Y01098*
X01948Y01106*
X01949Y01116*
X01948Y01125*
X01945Y01128*
X01945Y01129*
X01947Y01136*
X01948Y01137*
X01952Y01142*
X01953Y01147*
Y01174*
X01952Y01179*
X01948Y01184*
X01944Y01187*
X01942Y01187*
Y01194*
X01944Y01194*
X01948Y01197*
X01952Y01202*
X01953Y01207*
Y01211*
X01925*
Y01221*
X01915*
Y01248*
X01913*
X01911Y01252*
X01911Y01254*
X01983Y01326*
X01985Y0133*
X01989Y01335*
X01993Y01334*
X02015*
X02019Y01335*
X02019Y01335*
X0202Y01335*
X02024Y01334*
X02025*
Y01374*
Y01415*
X02023Y01417*
X02022Y0142*
X02022Y0142*
X02024Y0143*
X02022Y01439*
X02017Y01447*
X02009Y01452*
X02Y01454*
X0199Y01452*
X01982Y01447*
X01977Y01439*
X01975Y0143*
X01977Y0142*
X01977Y01419*
X01974Y01414*
X01961*
X01957Y01413*
X01956Y01413*
X01956Y01413*
X01952Y01414*
X0193*
X01926Y01413*
X01925Y01413*
X01924Y01413*
X0192Y01414*
X01898*
X01894Y01413*
X01893Y01413*
X01893Y01413*
X01889Y01414*
X01867*
X01864Y01414*
X01862Y01415*
X01861Y01416*
X01859Y01418*
X0186Y01421*
Y01443*
X01859Y01447*
X01859Y01448*
X01859Y01449*
X0186Y01452*
Y01475*
X01859Y01478*
X01859Y01479*
X01859Y0148*
X0186Y01484*
Y01506*
X01859Y0151*
X01859Y01511*
X01859Y01512*
X0186Y01515*
Y01538*
X01859Y01541*
X01859Y01542*
X01859Y01543*
X0186Y01547*
Y01569*
X01865Y01574*
X01871*
X01872Y01572*
X0188Y01567*
X01889Y01565*
X01899Y01567*
X01907Y01572*
X01912Y0158*
X01914Y01589*
X01912Y01599*
X01907Y01607*
X01899Y01612*
X01889Y01614*
X0188Y01612*
X01872Y01607*
X01871Y01605*
X01865*
X0186Y0161*
Y01632*
X01859Y01636*
X01859Y01637*
X01859Y01638*
X0186Y01641*
Y01664*
X01859Y01667*
X01859Y01668*
X01859Y01669*
X0186Y01673*
Y01695*
X01859Y01699*
X01859Y017*
X01859Y01701*
X0186Y01704*
Y01727*
X01859Y0173*
X01859Y01731*
X01859Y01732*
X0186Y01736*
Y01758*
X01859Y01761*
X01861Y01763*
X01862Y01764*
X01864Y01765*
X01867Y01765*
X01889*
X01893Y01766*
X01893Y01766*
X01894Y01766*
X01898Y01765*
X0192*
X01924Y01766*
X01925Y01766*
X01926Y01766*
X0193Y01765*
X01952*
X01956Y01766*
X01956Y01766*
X01957Y01766*
X01961Y01765*
X01983*
X01987Y01766*
X01988Y01766*
X01989Y01766*
X01993Y01765*
X01994*
Y01805*
Y01845*
X01993*
X01987Y0185*
Y01852*
X01986Y01858*
X01983Y01863*
X0192Y01926*
X0192Y01927*
X01926Y01932*
X0193*
Y0196*
X0195*
Y01932*
X01953*
X01958Y01933*
X01963Y01936*
X01963Y01937*
X01971*
X01971Y01936*
X01976Y01933*
X01981Y01932*
X01985*
Y0196*
X01995*
Y0197*
X02022*
Y01973*
X02021Y01978*
X02018Y01983*
X02013Y01986*
X02012Y01986*
Y01993*
X02013Y01993*
X02018Y01996*
X02021Y02001*
X02022Y02006*
Y02033*
X02021Y02038*
X02018Y02043*
X02017Y02043*
X02016Y02051*
X02017Y02054*
X02019Y02063*
X02017Y02072*
X02012Y0208*
X02004Y02086*
X01995Y02087*
X01985Y02086*
X01977Y0208*
X01972Y02072*
X0197Y02063*
X01972Y02054*
X01973Y02051*
X01972Y02043*
X01971Y02043*
X01971Y02042*
X01963*
X01963Y02043*
X01962Y02043*
X01961Y02051*
X01962Y02054*
X01964Y02063*
X01962Y02072*
X01957Y0208*
X01949Y02086*
X0194Y02087*
X0193Y02086*
X01922Y0208*
X01917Y02072*
X01915Y02063*
X01917Y02054*
X01918Y02051*
X01917Y02043*
X01916Y02043*
X01916Y02042*
X01908*
X01908Y02043*
X01906Y02044*
X01904Y02052*
X01906Y02054*
X01907Y02063*
X01906Y02072*
X019Y0208*
X01898Y02082*
Y02157*
X01905Y02164*
X01911Y02161*
X01923Y0216*
X01934Y02161*
X01944Y02165*
X01953Y02172*
X0196Y02181*
X01964Y02191*
X01965Y02203*
X01964Y02214*
X0196Y02224*
X01953Y02233*
X01946Y02238*
X01948Y02244*
X01997*
X01999Y02238*
X01992Y02233*
X01985Y02224*
X01981Y02214*
X0198Y02203*
X01981Y02191*
X01985Y02181*
X01992Y02172*
X02001Y02165*
X02011Y02161*
X02023Y0216*
X02034Y02161*
X02044Y02165*
X02053Y02172*
X0206Y02181*
X02064Y02191*
X02065Y02203*
X02064Y02214*
X0206Y02224*
X02053Y02233*
X02046Y02238*
X02048Y02244*
X02068*
X02074Y02245*
X02079Y02249*
X02104Y02274*
X02711*
X02716Y02275*
X02721Y02279*
X02782Y0234*
X02786Y02345*
X02787Y02351*
Y0244*
X03102*
Y02385*
X03103Y02381*
X03105Y02377*
X03108Y02375*
X03112Y02374*
X03114*
Y02365*
X03114Y02365*
X0311Y02356*
X03109Y02347*
X0311Y02338*
X03114Y0233*
X0312Y02322*
X03127Y02317*
X03135Y02313*
X03145Y02312*
X03154Y02313*
X03162Y02317*
X03169Y02322*
X03175Y0233*
X03179Y02338*
X0318Y02347*
X03179Y02356*
X03175Y02365*
X03175Y02365*
Y02374*
X03177*
X03181Y02375*
X03184Y02377*
X03186Y02381*
X03187Y02385*
Y0244*
X03937*
Y0012*
G37*
G36*
X01771Y02725D02*
Y02443D01*
X01752Y02424*
X0175Y02424*
X0174Y02422*
X01732Y02417*
X01727Y02409*
X01725Y024*
X01727Y0239*
X0173Y02385*
X01727Y02376*
X01726Y02375*
X01686*
X01681Y02385*
X01684Y0239*
X01685Y024*
X01684Y02409*
X01682Y02412*
X01683Y02414*
X01686Y02416*
X01688Y0242*
X01689Y02424*
Y02544*
X01688Y02547*
X01686Y02551*
X01683Y02553*
X01679Y02554*
X01614*
X0161Y02553*
X01607Y02551*
X01605Y02547*
X01604Y02544*
Y02424*
X01605Y0242*
X01607Y02416*
X0161Y02414*
X01614Y0241*
X01615Y02403*
X01614Y024*
X01615Y0239*
X01618Y02385*
X01613Y02375*
X01561*
X01556Y02374*
X01551Y0237*
X0141Y0223*
X01409Y0223*
X01281Y02358*
Y025*
X01291Y02501*
X01292Y02495*
X01297Y02487*
X01305Y02482*
X01315Y0248*
X01324Y02482*
X01332Y02487*
X01337Y02495*
X01339Y02505*
X01339Y02506*
X01343Y02511*
X01347Y02514*
X01349Y02515*
X01353Y02517*
X01355Y0252*
X01356Y02524*
Y02549*
X01355Y02553*
X01353Y02556*
X01353Y02556*
Y02567*
X01353Y02567*
X01355Y0257*
X01356Y02574*
Y02577*
X01313*
Y02597*
X01356*
Y02599*
X01355Y02603*
X01353Y02606*
X01353Y02606*
Y02617*
X01353Y02617*
X01355Y0262*
X01356Y02624*
Y02649*
X01355Y02653*
X01353Y02656*
X01353Y02656*
Y02661*
X01361Y0267*
X01382*
X01382Y0267*
X01392Y0267*
X01393Y02665*
X01396Y0266*
Y02652*
X01393Y02648*
X01392Y02642*
Y02616*
X01393Y0261*
X01396Y02605*
Y02598*
X01393Y02593*
X01392Y02588*
Y02584*
X0142*
Y02564*
X01392*
Y02561*
X01393Y02556*
X01396Y02551*
Y02543*
X01393Y02539*
X01392Y02533*
Y0253*
X0142*
Y0252*
X0143*
Y02492*
X01433*
X01438Y02493*
X01443Y02496*
X01444Y02498*
X01444Y02498*
X01455*
X01455Y02498*
X01456Y02496*
X01461Y02493*
X01466Y02492*
X01493*
X01498Y02493*
X01503Y02496*
X01515Y02498*
X01515Y02497*
X01525Y02495*
X01534Y02497*
X01542Y02503*
X01547Y02511*
X01549Y0252*
X01547Y02529*
X01542Y02537*
X01534Y02542*
X01534Y02544*
X01535Y02553*
X01536Y02553*
X01544Y02558*
X01549Y02566*
X01551Y02575*
X01549Y02585*
X01544Y02593*
X01536Y02598*
X01526Y026*
X01517Y02598*
X01517Y02598*
X01508Y026*
X01506Y02601*
X01505Y02608*
X01506Y0261*
X01507Y02616*
Y02619*
X0148*
Y02639*
X01507*
Y02642*
X01506Y02648*
X01505Y0265*
X01506Y02657*
X0151Y02659*
X01517Y02661*
X01517Y02661*
X01526Y02659*
X01535Y02661*
X01543Y02666*
X01549Y02674*
X0155Y02684*
X01549Y02693*
X01543Y02701*
X01535Y02706*
X01526Y02708*
X01517Y02706*
X01515Y02705*
X01515Y02705*
X01503Y02707*
X01498Y0271*
X01493Y02711*
X01466*
X01461Y0271*
X01456Y02707*
X01455Y02706*
X01455Y02705*
X01444*
X01444Y02706*
X01443Y02707*
X01438Y0271*
X01433Y02711*
X01406*
X01401Y0271*
X01396Y02707*
X01393Y02702*
X01393Y02702*
X01383*
X01377Y02701*
X01355*
X01355Y02703*
X01353Y02706*
X01353Y02706*
Y02717*
X01353Y02717*
X01355Y0272*
X01356Y02724*
Y02744*
X01365Y0275*
X01365Y0275*
X01368Y02749*
X01376Y02748*
X01579*
X01587Y02749*
X01594Y02752*
X01604Y02747*
Y02704*
X01637*
Y02764*
X01621*
X01617Y02774*
X01656Y02812*
X01661Y02819*
X01662Y02821*
X01673Y02823*
X01771Y02725*
G37*
%LNcontrolboard-2*%
%LPC*%
G36*
X00769Y01036D02*
X00704D01*
X007Y01035*
X00697Y01033*
X00695Y01029*
X00694Y01026*
Y00906*
X00695Y00902*
X00697Y00898*
X007Y00896*
X007Y00896*
Y0088*
X007Y0088*
X00696Y00871*
X00695Y00862*
X00696Y00853*
X007Y00845*
X00706Y00837*
X00713Y00832*
X00721Y00828*
X00731Y00827*
X0074Y00828*
X00748Y00832*
X00755Y00837*
X00761Y00845*
X00765Y00853*
X00766Y00862*
X00765Y00871*
X00761Y0088*
X00761Y0088*
Y00895*
X00769*
X00773Y00896*
X00776Y00898*
X00778Y00902*
X00779Y00906*
Y01026*
X00778Y01029*
X00776Y01033*
X00773Y01035*
X00769Y01036*
G37*
G36*
X0016Y00388D02*
X00142Y00387D01*
X00126Y00383*
X0011Y00376*
X00096Y00367*
X00083Y00356*
X00072Y00343*
X00063Y00329*
X00056Y00313*
X00052Y00297*
X00051Y0028*
X00052Y00262*
X00056Y00246*
X00063Y0023*
X00072Y00216*
X00083Y00203*
X00096Y00192*
X0011Y00183*
X00126Y00176*
X00142Y00172*
X0016Y00171*
X00177Y00172*
X00193Y00176*
X00209Y00183*
X00223Y00192*
X00236Y00203*
X00247Y00216*
X00256Y0023*
X00263Y00246*
X00267Y00262*
X00268Y0028*
X00267Y00297*
X00263Y00313*
X00256Y00329*
X00247Y00343*
X00236Y00356*
X00223Y00367*
X00209Y00376*
X00193Y00383*
X00177Y00387*
X0016Y00388*
G37*
G36*
X00389Y01108D02*
X00324D01*
X0032Y01107*
X00316Y01105*
X00284Y01072*
X00281Y01069*
X00281Y01065*
Y00999*
X00281Y00995*
X00284Y00992*
X00316Y00959*
X0032Y00957*
X00324Y00956*
X00331*
Y00591*
X00324*
X0032Y0059*
X00316Y00588*
X00284Y00555*
X00281Y00552*
X00281Y00548*
Y00482*
X00281Y00478*
X00284Y00475*
X00316Y00442*
X0032Y0044*
X00324Y00439*
X00331*
Y00362*
X00332Y00358*
Y00345*
X00333Y0034*
X00336Y00335*
X00341Y00332*
X00346Y00331*
X00373*
X00378Y00332*
X00383Y00335*
X00384Y00336*
X00384Y00337*
X00395*
X00395Y00336*
X00396Y00335*
X00401Y00332*
X00406Y00331*
X00433*
X00438Y00332*
X0044Y00333*
X00466*
X00476Y00335*
X00484Y0034*
X0049Y00349*
X00491Y00358*
X0049Y00368*
X00484Y00377*
X00476Y00382*
X00466Y00384*
X0044*
X00438Y00385*
X00433Y00386*
X00406*
X00401Y00385*
X00396Y00382*
X00387Y00385*
X00382Y00389*
Y00439*
X00389*
X00393Y0044*
X00397Y00442*
X00429Y00475*
X00429*
X00432Y00478*
X00432Y00482*
Y00548*
X00432Y00552*
X00429Y00555*
X00397Y00588*
X00393Y0059*
X00389Y00591*
X00382*
Y00956*
X00389*
X00393Y00957*
X00397Y00959*
X00429Y00992*
X00429*
X00432Y00995*
X00432Y00999*
Y01065*
X00432Y01069*
X00429Y01072*
X00397Y01105*
X00393Y01107*
X00389Y01108*
G37*
G36*
X00491Y00851D02*
X00435D01*
X00425Y0085*
X00416Y00846*
X00408Y0084*
X00402Y00832*
X00398Y00823*
X00397Y00813*
X00398Y00803*
X00402Y00794*
X00408Y00786*
X00416Y0078*
X00418Y00779*
Y00768*
X00416Y00767*
X00408Y00761*
X00402Y00753*
X00398Y00744*
X00397Y00734*
X00398Y00724*
X00402Y00715*
X00408Y00707*
X00416Y00701*
X00425Y00697*
X00435Y00696*
X00491*
X00501Y00697*
X0051Y00701*
X00518Y00707*
X00524Y00715*
X00528Y00724*
X0053Y00734*
X0053Y00734*
X00623*
X00649Y00708*
Y00688*
X0065Y00682*
X00654Y00677*
X00694Y00637*
X00689Y00627*
X00674*
X00669Y00626*
X00664Y00622*
X00663Y00621*
X00663Y00621*
X00652*
X00652Y00621*
X00651Y00622*
X00646Y00626*
X00641Y00627*
X00614*
X00609Y00626*
X00604Y00622*
X00593Y00622*
X00584Y00623*
X00575Y00622*
X00567Y00616*
X00561Y00608*
X00559Y00599*
X00561Y0059*
X00567Y00582*
X00575Y00576*
X00584Y00575*
X00593Y00576*
X006Y00576*
X00604Y00566*
X00602Y00563*
X00601Y00558*
Y00555*
X00629*
Y00535*
X00601*
Y00531*
X00602Y00526*
X00604Y00522*
X00601Y00513*
X00593Y00512*
X00584Y00514*
X00575Y00512*
X00567Y00507*
X00561Y00499*
X0056Y0049*
X00561Y0048*
X00567Y00472*
X00574Y00467*
X00574Y00464*
X00574Y0046*
X00573Y00457*
X00566Y00452*
X0056Y00444*
X00559Y00435*
X0056Y00425*
X00566Y00417*
X00574Y00412*
X00583Y0041*
X00592Y00412*
X00603Y00411*
X00608Y00408*
X00613Y00407*
X0064*
X00645Y00408*
X0065Y00411*
X00651Y00412*
X00651Y00413*
X00662*
X00662Y00412*
X00663Y00411*
X00668Y00408*
X00673Y00407*
X00677*
Y00435*
X00697*
Y00407*
X007*
X00705Y00408*
X00706Y00408*
X00711Y00405*
X00714Y00402*
X00713Y00394*
X00715Y00385*
X0072Y00377*
X00728Y00371*
X00737Y00369*
X00747Y00371*
X00747Y00372*
X00757Y00366*
Y0036*
X00758Y00357*
X00759Y00356*
X00758Y00355*
X00757Y00351*
Y00335*
X00758Y00331*
X00759Y0033*
X00758Y00329*
X00757Y00325*
Y00309*
X00758Y00305*
X0076Y00302*
X00763Y003*
X00767Y00299*
X00826*
X0083Y003*
X00834Y00302*
X00836Y00305*
X00837Y00309*
Y00325*
X00836Y00329*
X00835Y0033*
X00836Y00331*
X00837Y00335*
Y00351*
X00836Y00355*
X00835Y00356*
X00836Y00357*
X00837Y0036*
Y00376*
X00836Y0038*
X00835Y00381*
X00836Y00382*
X00837Y00386*
Y00402*
X00836Y00406*
X00835Y00407*
X00836Y00408*
X00837Y00412*
Y00427*
X00836Y00431*
X00835Y00432*
X00836Y00433*
X00837Y00437*
Y00453*
X00836Y00457*
X00835Y00458*
X00836Y00459*
X00837Y00463*
Y00479*
X00836Y00482*
X00835Y00484*
X00836Y00485*
X00837Y00488*
Y00504*
X00836Y00508*
X00835Y00509*
X00836Y0051*
X00836Y00512*
X00833*
X0083Y00514*
X00826Y00514*
X00797*
Y00529*
X00826*
X0083Y0053*
X00833Y00532*
X00836*
X00836Y00534*
X00835Y00535*
X00836Y00536*
X00837Y0054*
Y00545*
X00847Y00551*
X00847Y0055*
X00856Y00549*
X00866Y0055*
X00874Y00556*
X00879Y00564*
X00881Y00573*
X00879Y00582*
X00874Y0059*
X00866Y00596*
X00856Y00598*
X00847Y00596*
X00847Y00595*
X00837Y00601*
Y00607*
X00836Y0061*
X00835Y00611*
X00836Y00612*
X00837Y00616*
Y00632*
X00836Y00636*
X00835Y00637*
X00836Y00638*
X00837Y00642*
Y00658*
X00836Y00662*
X00834Y00665*
X0083Y00667*
X00826Y00668*
X00771*
X00615Y00824*
X0061Y00827*
X00604Y00828*
X00526*
X00524Y00832*
X00518Y0084*
X0051Y00846*
X00501Y0085*
X00491Y00851*
G37*
G36*
Y00674D02*
X00435D01*
X00425Y00673*
X00416Y00669*
X00408Y00663*
X00402Y00655*
X00398Y00646*
X00397Y00636*
X00398Y00626*
X00402Y00617*
X00408Y00609*
X00416Y00602*
X00425Y00599*
X00435Y00597*
X00491*
X00501Y00599*
X0051Y00602*
X00518Y00609*
X00524Y00617*
X00528Y00626*
X0053Y00636*
X00528Y00646*
X00524Y00655*
X00518Y00663*
X0051Y00669*
X00501Y00673*
X00491Y00674*
G37*
G36*
X00432Y01165D02*
X00411D01*
Y01152*
X00412Y01146*
X00416Y01141*
X00421Y01138*
X00427Y01137*
X00432*
Y01165*
G37*
G36*
X03135Y02645D02*
X03102D01*
Y02595*
X03103Y02591*
X03105Y02587*
X03108Y02585*
X03112Y02584*
X03135*
Y02645*
G37*
G36*
X01978Y02555D02*
X01913D01*
X01909Y02554*
X01906Y02552*
X01904Y02548*
X01903Y02545*
Y02521*
X0189*
X01889Y02521*
X01881Y02525*
X01872Y02526*
X01862Y02525*
X01854Y02521*
X01847Y02515*
X01841Y02508*
X01837Y025*
X01836Y02491*
X01837Y02481*
X01841Y02473*
X01847Y02466*
X01854Y0246*
X01862Y02456*
X01872Y02455*
X01881Y02456*
X01889Y0246*
X0189Y0246*
X01903*
Y02425*
X01904Y02421*
X01906Y02417*
X01909Y02415*
X01913Y02414*
X01978*
X01982Y02415*
X01985Y02417*
X01987Y02421*
X01988Y02425*
Y02545*
X01987Y02548*
X01985Y02552*
X01982Y02554*
X01978Y02555*
G37*
G36*
X02896Y0251D02*
X02878D01*
Y02507*
X02879Y02501*
X02883Y02496*
X02887Y02493*
X02893Y02492*
X02896*
Y0251*
G37*
G36*
X03187Y02645D02*
X03155D01*
Y02584*
X03177*
X03181Y02585*
X03184Y02587*
X03186Y02591*
X03187Y02595*
Y02645*
G37*
G36*
X03135Y02725D02*
X03112D01*
X03108Y02724*
X03105Y02722*
X03103Y02718*
X03102Y02715*
Y02665*
X03135*
Y02725*
G37*
G36*
X00494Y02283D02*
X00444D01*
X0044Y02282*
X00436Y0228*
X00434Y02277*
X00433Y02273*
Y02251*
X00494*
Y02283*
G37*
G36*
X00235Y02626D02*
X00115D01*
X00111Y02625*
X00107Y02623*
X00105Y0262*
X00104Y02616*
Y02551*
X00105Y02547*
X00107Y02544*
X00111Y02542*
X00115Y02541*
X00142*
Y02508*
X00142Y02508*
X00138Y02499*
X00137Y0249*
X00138Y02481*
X00142Y02473*
X00148Y02465*
X00155Y0246*
X00163Y02456*
X00173Y02455*
X00182Y02456*
X0019Y0246*
X00197Y02465*
X00203Y02473*
X00207Y02481*
X00208Y0249*
X00207Y02499*
X00203Y02508*
X00203Y02508*
Y02541*
X00235*
X00238Y02542*
X00242Y02544*
X00244Y02547*
X00245Y02551*
Y02616*
X00244Y0262*
X00242Y02623*
X00238Y02625*
X00235Y02626*
G37*
G36*
X00373Y02316D02*
X00346D01*
X00341Y02315*
X00339Y02314*
X00332Y02313*
X00326Y02314*
X00324Y02315*
X00318Y02316*
X00292*
X00286Y02315*
X00284Y02314*
X00278Y02313*
X00271Y02314*
X00269Y02315*
X00263Y02316*
X00237*
X00231Y02315*
X00227Y02312*
X00225Y02309*
X00203*
X002Y02311*
X0019Y02313*
X00181Y02311*
X00173Y02306*
X00168Y02298*
X00166Y02289*
X00168Y02279*
X00173Y02271*
X00181Y02266*
X0019Y02264*
X002Y02266*
X00203Y02268*
X00224*
X00227Y02265*
X00228Y02264*
X00228Y02264*
Y02253*
X00228Y02253*
X00227Y02252*
X00224Y02247*
X00222Y02242*
Y02239*
X0025*
Y02229*
X0026*
Y02201*
X00263*
X00269Y02202*
X00274Y02205*
X00281*
X00286Y02202*
X00292Y02201*
X00295*
Y02229*
X00315*
Y02201*
X00318*
X00324Y02202*
X00328Y02205*
X00336*
X00341Y02202*
X00346Y02201*
X0035*
Y02229*
X0036*
Y02239*
X00387*
Y02242*
X00386Y02247*
X00383Y02252*
X00382Y02253*
X00381Y02253*
Y02264*
X00382Y02264*
X00383Y02265*
X00386Y0227*
X00387Y02275*
Y02302*
X00386Y02307*
X00383Y02312*
X00378Y02315*
X00373Y02316*
G37*
G36*
X00564Y02283D02*
X00514D01*
Y02251*
X00574*
Y02273*
X00573Y02277*
X00571Y0228*
X00567Y02282*
X00564Y02283*
G37*
G36*
X03177Y02725D02*
X03155D01*
Y02665*
X03187*
Y02715*
X03186Y02718*
X03184Y02722*
X03181Y02724*
X03177Y02725*
G37*
G36*
X01099Y03771D02*
X01096D01*
X0109Y0377*
X01086Y03767*
X01082Y03762*
X01081Y03757*
Y03754*
X01099*
Y03771*
G37*
G36*
X0034D02*
X00337D01*
X00331Y0377*
X00327Y03767*
X00323Y03762*
X00322Y03757*
Y03754*
X0034*
Y03771*
G37*
G36*
X02708Y03451D02*
X02623D01*
X02619Y0345*
X02616Y03448*
X02613Y03444*
X02613Y0344*
Y03417*
X02593*
X02592Y03417*
X02584Y03421*
X02575Y03422*
X02565Y03421*
X02557Y03417*
X02556Y03417*
X02535*
Y0344*
X02534Y03444*
X02532Y03448*
X02529Y0345*
X02525Y03451*
X0244*
X02436Y0345*
X02433Y03448*
X0243Y03444*
X0243Y0344*
Y03333*
X0243Y03329*
X02433Y03325*
X02436Y03323*
X0244Y03322*
X02525*
X02529Y03323*
X02532Y03325*
X02534Y03329*
X02535Y03333*
Y03356*
X02556*
X02557Y03356*
X02565Y03352*
X02575Y03351*
X02584Y03352*
X02592Y03356*
X02593Y03356*
X02613*
Y03333*
X02613Y03329*
X02616Y03325*
X02619Y03323*
X02623Y03322*
X02708*
X02712Y03323*
X02715Y03325*
X02717Y03329*
X02718Y03333*
Y0344*
X02717Y03444*
X02715Y03448*
X02712Y0345*
X02708Y03451*
G37*
G36*
X01818Y03771D02*
X01815D01*
X01809Y0377*
X01804Y03767*
X01801Y03762*
X018Y03757*
Y03754*
X01818*
Y03771*
G37*
G36*
X0379Y04018D02*
X03772Y04017D01*
X03756Y04013*
X0374Y04006*
X03726Y03997*
X03713Y03986*
X03702Y03973*
X03693Y03959*
X03686Y03943*
X03682Y03927*
X03681Y0391*
X03682Y03892*
X03686Y03876*
X03693Y0386*
X03702Y03846*
X03713Y03833*
X03726Y03822*
X0374Y03813*
X03756Y03806*
X03772Y03802*
X0379Y03801*
X03807Y03802*
X03823Y03806*
X03839Y03813*
X03853Y03822*
X03866Y03833*
X03877Y03846*
X03886Y0386*
X03893Y03876*
X03897Y03892*
X03898Y0391*
X03897Y03927*
X03893Y03943*
X03886Y03959*
X03877Y03973*
X03866Y03986*
X03853Y03997*
X03839Y04006*
X03823Y04013*
X03807Y04017*
X0379Y04018*
G37*
G36*
X0016D02*
X00142Y04017D01*
X00126Y04013*
X0011Y04006*
X00096Y03997*
X00083Y03986*
X00072Y03973*
X00063Y03959*
X00056Y03943*
X00052Y03927*
X00051Y0391*
X00052Y03892*
X00056Y03876*
X00063Y0386*
X00072Y03846*
X00083Y03833*
X00096Y03822*
X0011Y03813*
X00126Y03806*
X00142Y03802*
X0016Y03801*
X00177Y03802*
X00193Y03806*
X00209Y03813*
X00223Y03822*
X00236Y03833*
X00247Y03846*
X00256Y0386*
X00263Y03876*
X00267Y03892*
X00268Y0391*
X00267Y03927*
X00263Y03943*
X00256Y03959*
X00247Y03973*
X00236Y03986*
X00223Y03997*
X00209Y04006*
X00193Y04013*
X00177Y04017*
X0016Y04018*
G37*
G36*
X0254Y03771D02*
X02537D01*
X02531Y0377*
X02527Y03767*
X02523Y03762*
X02522Y03757*
Y03754*
X0254*
Y03771*
G37*
G36*
X01994Y03451D02*
X01909D01*
X01905Y0345*
X01901Y03448*
X01899Y03444*
X01898Y0344*
Y03417*
X01883*
X01882Y03417*
X01874Y03421*
X01865Y03422*
X01855Y03421*
X01847Y03417*
X01846Y03417*
X01821*
Y0344*
X0182Y03444*
X01818Y03448*
X01814Y0345*
X0181Y03451*
X01725*
X01722Y0345*
X01718Y03448*
X01716Y03444*
X01715Y0344*
Y03333*
X01716Y03329*
X01718Y03325*
X01722Y03323*
X01725Y03322*
X0181*
X01814Y03323*
X01818Y03325*
X0182Y03329*
X01821Y03333*
Y03356*
X01846*
X01847Y03356*
X01855Y03352*
X01865Y03351*
X01874Y03352*
X01882Y03356*
X01883Y03356*
X01898*
Y03333*
X01899Y03329*
X01901Y03325*
X01905Y03323*
X01909Y03322*
X01994*
X01997Y03323*
X02001Y03325*
X02003Y03329*
X02004Y03333*
Y0344*
X02003Y03444*
X02001Y03448*
X01997Y0345*
X01994Y03451*
G37*
G36*
X03239Y03257D02*
X03154D01*
X0315Y03256*
X03147Y03254*
X03145Y0325*
X03144Y03246*
Y03139*
X03145Y03135*
X03147Y03131*
X0315Y03129*
X03154Y03128*
X03239*
X03243Y03129*
X03246Y03131*
X03248Y03135*
X03249Y03139*
Y03162*
X03276*
X03276Y03162*
X03285Y03158*
X03294Y03157*
X03303Y03158*
X03311Y03162*
X03319Y03168*
X03324Y03175*
X03328Y03183*
X03329Y03193*
X03328Y03202*
X03324Y0321*
X03319Y03217*
X03311Y03223*
X03303Y03227*
X03294Y03228*
X03285Y03227*
X03276Y03223*
X03276Y03223*
X03249*
Y03246*
X03248Y0325*
X03246Y03254*
X03243Y03256*
X03239Y03257*
G37*
G36*
X01813Y02932D02*
X018Y02931D01*
X01789Y02927*
X01778Y02922*
X01769Y02914*
X01761Y02905*
X01756Y02894*
X01752Y02883*
X01751Y02871*
X01752Y02858*
X01756Y02847*
X01761Y02836*
X01769Y02827*
X01778Y02819*
X01789Y02814*
X018Y0281*
X01813Y02809*
X01825Y0281*
X01836Y02814*
X01847Y02819*
X01856Y02827*
X01864Y02836*
X01869Y02847*
X01873Y02858*
X01874Y02871*
X01873Y02883*
X01869Y02894*
X01864Y02905*
X01856Y02914*
X01847Y02922*
X01836Y02927*
X01825Y02931*
X01813Y02932*
G37*
G36*
X01994Y03257D02*
X01909D01*
X01905Y03256*
X01901Y03254*
X01899Y0325*
X01898Y03246*
Y03223*
X01878*
X01877Y03223*
X01869Y03227*
X0186Y03228*
X0185Y03227*
X01842Y03223*
X01841Y03223*
X01821*
Y03246*
X0182Y0325*
X01818Y03254*
X01814Y03256*
X0181Y03257*
X01725*
X01722Y03256*
X01718Y03254*
X01716Y0325*
X01715Y03246*
Y03139*
X01716Y03135*
X01718Y03131*
X01722Y03129*
X01725Y03128*
X0181*
X01814Y03129*
X01818Y03131*
X0182Y03135*
X01821Y03139*
Y03162*
X01841*
X01842Y03162*
X0185Y03158*
X0186Y03157*
X01869Y03158*
X01877Y03162*
X01878Y03162*
X01898*
Y03139*
X01899Y03135*
X01901Y03131*
X01905Y03129*
X01909Y03128*
X01994*
X01997Y03129*
X02001Y03131*
X02003Y03135*
X02004Y03139*
Y03246*
X02003Y0325*
X02001Y03254*
X01997Y03256*
X01994Y03257*
G37*
G36*
X00565Y03451D02*
X0048D01*
X00476Y0345*
X00473Y03448*
X00471Y03444*
X0047Y0344*
Y03417*
X00443*
X00443Y03417*
X00434Y03421*
X00425Y03422*
X00416Y03421*
X00408Y03417*
X00407Y03417*
X00406*
X00398Y03416*
X0039Y03413*
X00384Y03408*
X00221Y03245*
X00216Y03239*
X00213Y03231*
X00212Y03224*
Y02862*
X00213Y02854*
X00216Y02846*
X00221Y0284*
X00361Y027*
Y02681*
X00361Y0268*
X00357Y02672*
X00356Y02663*
X00357Y02653*
X00361Y02645*
X00361Y02644*
Y02626*
X00325*
X00321Y02625*
X00317Y02623*
X00315Y0262*
X00314Y02616*
Y02551*
X00315Y02547*
X00317Y02544*
X00321Y02542*
X00325Y02541*
X00445*
X00448Y02542*
X00452Y02544*
X00454Y02547*
X00455Y02551*
Y02616*
X00454Y0262*
X00452Y02623*
X00448Y02625*
X00445Y02626*
X00422*
Y02644*
X00422Y02645*
X00426Y02653*
X00427Y02663*
X00426Y02672*
X00422Y0268*
X00422Y02681*
Y02713*
X00421Y0272*
X00418Y02728*
X00413Y02734*
X00273Y02874*
Y03211*
X00415Y03353*
X00416Y03352*
X00425Y03351*
X00434Y03352*
X00443Y03356*
X00443Y03356*
X0047*
Y03333*
X00471Y03329*
X00473Y03325*
X00476Y03323*
X0048Y03322*
X00565*
X00569Y03323*
X00572Y03325*
X00574Y03329*
X00575Y03333*
Y0344*
X00574Y03444*
X00572Y03448*
X00569Y0345*
X00565Y03451*
G37*
G36*
X03239D02*
X03154D01*
X0315Y0345*
X03147Y03448*
X03145Y03444*
X03144Y0344*
Y03333*
X03145Y03329*
X03147Y03325*
X0315Y03323*
X03154Y03322*
X03239*
X03243Y03323*
X03246Y03325*
X03248Y03329*
X03249Y03333*
Y03356*
X03276*
X03276Y03356*
X03285Y03352*
X03294Y03351*
X03303Y03352*
X03311Y03356*
X03319Y03362*
X03324Y03369*
X03328Y03377*
X03329Y03387*
X03328Y03396*
X03324Y03404*
X03319Y03411*
X03311Y03417*
X03303Y03421*
X03294Y03422*
X03285Y03421*
X03276Y03417*
X03276Y03417*
X03249*
Y0344*
X03248Y03444*
X03246Y03448*
X03243Y0345*
X03239Y03451*
G37*
G36*
X02708Y03257D02*
X02623D01*
X02619Y03256*
X02616Y03254*
X02613Y0325*
X02613Y03246*
Y03223*
X02595*
X02592Y03225*
X02584Y03229*
X02575Y0323*
X02565Y03229*
X02557Y03225*
X02554Y03223*
X02535*
Y03246*
X02534Y0325*
X02532Y03254*
X02529Y03256*
X02525Y03257*
X0244*
X02436Y03256*
X02433Y03254*
X0243Y0325*
X0243Y03246*
Y03139*
X0243Y03135*
X02433Y03131*
X02436Y03129*
X0244Y03128*
X02525*
X02529Y03129*
X02532Y03131*
X02534Y03135*
X02535Y03139*
Y03162*
X02561*
X02565Y0316*
X02575Y03159*
X02584Y0316*
X02588Y03162*
X02613*
Y03139*
X02613Y03135*
X02616Y03131*
X02619Y03129*
X02623Y03128*
X02708*
X02712Y03129*
X02715Y03131*
X02717Y03135*
X02718Y03139*
Y03246*
X02717Y0325*
X02715Y03254*
X02712Y03256*
X02708Y03257*
G37*
G36*
X00527Y01212D02*
X00497D01*
X00491Y01211*
X00486Y01208*
X00482Y01203*
X00482Y01199*
X00471*
X00471Y01203*
X00467Y01208*
X00462Y01211*
X00457Y01212*
X00452*
Y01175*
Y01137*
X00457*
X00462Y01138*
X00467Y01141*
X00471Y01146*
X00471Y0115*
X00482*
X00482Y01146*
X00486Y01141*
X00491Y01138*
X00491Y01138*
Y00968*
X00473Y0095*
X00435*
X00425Y00948*
X00416Y00945*
X00408Y00938*
X00402Y0093*
X00398Y00921*
X00397Y00911*
X00398Y00901*
X00402Y00892*
X00408Y00884*
X00416Y00878*
X00425Y00874*
X00435Y00873*
X00491*
X00501Y00874*
X0051Y00878*
X00518Y00884*
X00524Y00892*
X00528Y00901*
X0053Y00911*
X00528Y00921*
X00524Y0093*
X00519Y00938*
X00526Y00945*
X0053Y00952*
X00532Y0096*
Y01138*
X00532Y01138*
X00537Y01141*
X00541Y01146*
X00542Y01152*
Y01197*
X00541Y01203*
X00537Y01208*
X00532Y01211*
X00527Y01212*
G37*
G36*
X00432D02*
X00427D01*
X00421Y01211*
X00416Y01208*
X00412Y01203*
X00411Y01197*
Y01185*
X00432*
Y01212*
G37*
G36*
X00241Y01578D02*
X00227Y01576D01*
X00215Y01571*
X00205Y01563*
X00197Y01553*
X00192Y01541*
X0019Y01528*
Y01438*
X00192Y01424*
X00197Y01412*
X00205Y01402*
X00215Y01394*
X00227Y01389*
X00241Y01387*
X00254Y01389*
X00266Y01394*
X00276Y01402*
X00284Y01412*
X00289Y01424*
X00291Y01438*
Y01528*
X00289Y01541*
X00284Y01553*
X00276Y01563*
X00266Y01571*
X00254Y01576*
X00241Y01578*
G37*
G36*
X00406Y01338D02*
X00316D01*
X00302Y01336*
X0029Y01331*
X0028Y01323*
X00272Y01313*
X00267Y01301*
X00265Y01288*
X00267Y01274*
X00272Y01262*
X0028Y01252*
X0029Y01244*
X00302Y01239*
X00316Y01237*
X00406*
X00419Y01239*
X00431Y01244*
X00441Y01252*
X00449Y01262*
X00454Y01274*
X00456Y01288*
X00454Y01301*
X00449Y01313*
X00441Y01323*
X00431Y01331*
X00419Y01336*
X00406Y01338*
G37*
G36*
X00574Y02231D02*
X00514D01*
Y02198*
X00564*
X00567Y02199*
X00571Y02201*
X00573Y02204*
X00574Y02208*
Y02231*
G37*
G36*
X00494D02*
X00433D01*
Y02208*
X00434Y02204*
X00436Y02201*
X0044Y02199*
X00444Y02198*
X00494*
Y02231*
G37*
G36*
X0024Y02219D02*
X00222D01*
Y02215*
X00224Y0221*
X00227Y02205*
X00231Y02202*
X00237Y02201*
X0024*
Y02219*
G37*
G36*
X00774Y02283D02*
X00654D01*
X0065Y02282*
X00646Y0228*
X00644Y02277*
X00643Y02273*
Y02208*
X00644Y02204*
X00646Y02201*
X0065Y02199*
X00654Y02198*
X00774*
X00777Y02199*
X00781Y02201*
X00783Y02204*
X00784Y02208*
X00793Y0221*
X00802Y02206*
X00811Y02205*
X0082Y02206*
X00828Y0221*
X00836Y02216*
X00841Y02223*
X00845Y02231*
X00846Y02241*
X00845Y0225*
X00841Y02258*
X00836Y02265*
X00828Y02271*
X0082Y02275*
X00811Y02276*
X00802Y02275*
X00793Y02271*
X00784Y02273*
X00783Y02277*
X00781Y0228*
X00777Y02282*
X00774Y02283*
G37*
G36*
X00387Y02219D02*
X0037D01*
Y02201*
X00373*
X00378Y02202*
X00383Y02205*
X00386Y0221*
X00387Y02215*
Y02219*
G37*
G36*
X00373Y02107D02*
X0037D01*
Y0209*
X00387*
Y02093*
X00386Y02098*
X00383Y02103*
X00378Y02106*
X00373Y02107*
G37*
G36*
X007Y01479D02*
X00697D01*
X00691Y01478*
X00687Y01475*
X00683Y0147*
X00682Y01465*
Y01462*
X007*
Y01479*
G37*
G36*
X00536Y01468D02*
X00501D01*
Y0139*
X00511Y01394*
X00521Y01402*
X00529Y01412*
X00534Y01424*
X00536Y01438*
Y01468*
G37*
G36*
X00471D02*
X00435D01*
Y01438*
X00437Y01424*
X00442Y01412*
X0045Y01402*
X0046Y01394*
X00471Y0139*
Y01468*
G37*
G36*
Y01575D02*
X0046Y01571D01*
X0045Y01563*
X00442Y01553*
X00437Y01541*
X00435Y01528*
Y01498*
X00471*
Y01575*
G37*
G36*
X00501D02*
Y01498D01*
X00536*
Y01528*
X00534Y01541*
X00529Y01553*
X00521Y01563*
X00511Y01571*
X00501Y01575*
G37*
G36*
X007Y01335D02*
X00682D01*
Y01332*
X00683Y01327*
X00687Y01322*
X00691Y01319*
X00697Y01318*
X007*
Y01335*
G37*
G36*
X01272Y0085D02*
X01245D01*
Y00822*
X01262*
X01266Y00823*
X01269Y00825*
X01271Y00828*
X01272Y00832*
Y0085*
G37*
G36*
X01215D02*
X01187D01*
Y00832*
X01188Y00828*
X0119Y00825*
X01193Y00823*
X01197Y00822*
X01215*
Y0085*
G37*
G36*
X01034Y01033D02*
X00969D01*
X00965Y01032*
X00962Y0103*
X0096Y01026*
X00959Y01023*
Y00903*
X0096Y00899*
X00962Y00895*
X00965Y00893*
X00969Y00892*
X00971*
Y00883*
X00971Y00883*
X00967Y00874*
X00966Y00865*
X00967Y00856*
X00971Y00848*
X00977Y0084*
X00984Y00835*
X00992Y00831*
X01002Y0083*
X01011Y00831*
X01019Y00835*
X01026Y0084*
X01032Y00848*
X01036Y00856*
X01037Y00865*
X01036Y00874*
X01032Y00883*
X01032Y00883*
Y00892*
X01034*
X01038Y00893*
X01041Y00895*
X01043Y00899*
X01044Y00903*
Y01023*
X01043Y01026*
X01041Y0103*
X01038Y01032*
X01034Y01033*
G37*
G36*
X03658Y00945D02*
X03646Y00944D01*
X03636Y0094*
X03627Y00933*
X0362Y00924*
X03616Y00914*
X03615Y00903*
X03616Y00891*
X0362Y00881*
X03627Y00872*
X03636Y00865*
X03646Y00861*
X03658Y0086*
X03669Y00861*
X03679Y00865*
X03688Y00872*
X03695Y00881*
X03699Y00891*
X037Y00903*
X03699Y00914*
X03695Y00924*
X03688Y00933*
X03679Y0094*
X03669Y00944*
X03658Y00945*
G37*
G36*
X03558D02*
X03546Y00944D01*
X03536Y0094*
X03527Y00933*
X0352Y00924*
X03516Y00914*
X03515Y00903*
X03516Y00891*
X0352Y00881*
X03527Y00872*
X03536Y00865*
X03546Y00861*
X03558Y0086*
X03569Y00861*
X03579Y00865*
X03588Y00872*
X03595Y00881*
X03599Y00891*
X036Y00903*
X03599Y00914*
X03595Y00924*
X03588Y00933*
X03579Y0094*
X03569Y00944*
X03558Y00945*
G37*
G36*
X03458D02*
X03446Y00944D01*
X03436Y0094*
X03427Y00933*
X0342Y00924*
X03416Y00914*
X03415Y00903*
X03416Y00891*
X0342Y00881*
X03427Y00872*
X03436Y00865*
X03446Y00861*
X03458Y0086*
X03469Y00861*
X03479Y00865*
X03488Y00872*
X03495Y00881*
X03499Y00891*
X035Y00903*
X03499Y00914*
X03495Y00924*
X03488Y00933*
X03479Y0094*
X03469Y00944*
X03458Y00945*
G37*
G36*
X0173Y00907D02*
X01718Y00906D01*
X01708Y00902*
X01699Y00895*
X01692Y00886*
X01688Y00876*
X01687Y00865*
X01688Y00853*
X01692Y00843*
X01699Y00834*
X01708Y00827*
X01718Y00823*
X0173Y00822*
X01741Y00823*
X01751Y00827*
X0176Y00834*
X01767Y00843*
X01771Y00853*
X01772Y00865*
X01771Y00876*
X01767Y00886*
X0176Y00895*
X01751Y00902*
X01741Y00906*
X0173Y00907*
G37*
G36*
X02272Y00782D02*
X02207D01*
X02203Y00781*
X022Y00779*
X02198Y00776*
X02197Y00772*
Y00707*
X02198Y00703*
X022Y007*
X02203Y00698*
X02207Y00697*
X02272*
X02276Y00698*
X02279Y007*
X02281Y00703*
X02282Y00707*
Y00772*
X02281Y00776*
X02279Y00779*
X02276Y00781*
X02272Y00782*
G37*
G36*
X01258Y00712D02*
X01255D01*
Y00695*
X01272*
Y00698*
X01271Y00703*
X01268Y00708*
X01263Y00711*
X01258Y00712*
G37*
G36*
X01235D02*
X01231D01*
X01226Y00711*
X01221Y00708*
X01218Y00703*
X01217Y00698*
Y00695*
X01235*
Y00712*
G37*
G36*
X01838Y00764D02*
X01828Y00762D01*
X0182Y00757*
X01815Y00749*
X01813Y0074*
X01815Y0073*
X01816Y00728*
X01813Y00723*
X01807Y00724*
X01798Y00722*
X0179Y00717*
X01784Y00709*
X01783Y007*
X01784Y0069*
X0179Y00682*
X01792Y00681*
Y00588*
X01488Y00285*
X012*
X01157Y00328*
X01152Y00331*
X01146Y00332*
X01124*
X01122Y00335*
Y00351*
X01121Y00355*
X0112Y00356*
X01121Y00357*
X01122Y0036*
Y00376*
X01121Y0038*
X0112Y00381*
X01121Y00382*
X01122Y00384*
X01118*
X01116Y00386*
X01112Y00386*
X01082*
Y00401*
X01112*
X01116Y00402*
X01118Y00404*
X01122*
X01121Y00406*
X0112Y00407*
X01121Y00408*
X01122Y00412*
Y00427*
X01121Y00431*
X0112Y00432*
X01121Y00433*
X01122Y00437*
Y00448*
X01128Y00451*
X01133Y00448*
X01142Y00446*
X01151Y00448*
X01159Y00453*
X01165Y00461*
X01166Y00471*
X01165Y0048*
X01159Y00488*
X01151Y00493*
X01142Y00495*
X01133Y00493*
X01128Y0049*
X01122Y00493*
Y00504*
X01121Y00508*
X0112Y00509*
X01121Y0051*
X01122Y00514*
Y0053*
X01121Y00534*
X0112Y00535*
X01121Y00536*
X01122Y0054*
Y00555*
X01121Y00559*
X0112Y0056*
X01121Y00561*
X01122Y00565*
Y00581*
X01121Y00585*
X0112Y00586*
X01121Y00587*
X01122Y00591*
Y00607*
X01121Y0061*
X0112Y00611*
X01121Y00612*
X01122Y00616*
Y00632*
X01121Y00636*
X0112Y00637*
X01121Y00638*
X01122Y00642*
Y00658*
X01121Y00662*
X01119Y00665*
X01116Y00667*
X01112Y00668*
X01053*
X01049Y00667*
X01045Y00665*
X01043Y00662*
X01042Y00658*
Y00642*
X01043Y00638*
X01044Y00637*
X01043Y00636*
X01042Y00632*
Y00616*
X01043Y00612*
X01044Y00611*
X01043Y0061*
X01042Y00607*
Y00591*
X01043Y00587*
X01044Y00586*
X01043Y00585*
X01042Y00581*
Y00565*
X01043Y00561*
X01044Y0056*
X01043Y00559*
X01042Y00555*
Y0054*
X01043Y00536*
X01044Y00535*
X01043Y00534*
X01042Y0053*
Y00514*
X01043Y0051*
X01044Y00509*
X01043Y00508*
X01042Y00504*
Y00488*
X01043Y00485*
X01044Y00484*
X01043Y00482*
X01042Y00479*
Y00463*
X01043Y00459*
X01044Y00458*
X01043Y00457*
X01042Y00453*
Y00437*
X01043Y00435*
X01038Y00434*
X01033Y0043*
X01012Y0041*
X01009Y00405*
X01008Y00399*
Y00299*
X01009Y00293*
X01012Y00288*
X01034Y00267*
X01039Y00263*
X01045Y00262*
X01151*
X01174Y00239*
X01179Y00235*
X01185Y00234*
X01503*
X01509Y00235*
X01514Y00239*
X01848Y00573*
X01852Y00578*
X01853Y00584*
Y00721*
X01855Y00722*
X0186Y0073*
X01862Y0074*
X0186Y00749*
X01855Y00757*
X01847Y00762*
X01838Y00764*
G37*
G36*
X0163Y00907D02*
X01618Y00906D01*
X01608Y00902*
X01599Y00895*
X01592Y00886*
X01588Y00876*
X01587Y00865*
X01588Y00853*
X01592Y00843*
X01599Y00834*
X01608Y00827*
X01618Y00823*
X0163Y00822*
X01641Y00823*
X01651Y00827*
X0166Y00834*
X01667Y00843*
X01671Y00853*
X01672Y00865*
X01671Y00876*
X01667Y00886*
X0166Y00895*
X01651Y00902*
X01641Y00906*
X0163Y00907*
G37*
G36*
X01044Y01163D02*
X01012D01*
Y01102*
X01034*
X01038Y01103*
X01041Y01105*
X01043Y01109*
X01044Y01113*
Y01163*
G37*
G36*
X0133Y00907D02*
X01318Y00906D01*
X01308Y00902*
X01299Y00895*
X01292Y00886*
X01288Y00876*
X01287Y00865*
X01288Y00853*
X01292Y00843*
X01299Y00834*
X01308Y00827*
X01318Y00823*
X0133Y00822*
X01341Y00823*
X01351Y00827*
X0136Y00834*
X01367Y00843*
X01371Y00853*
X01372Y00865*
X01371Y00876*
X01367Y00886*
X0136Y00895*
X01351Y00902*
X01341Y00906*
X0133Y00907*
G37*
G36*
X03658Y01045D02*
X03646Y01044D01*
X03636Y0104*
X03627Y01033*
X0362Y01024*
X03616Y01014*
X03615Y01003*
X03616Y00991*
X0362Y00981*
X03627Y00972*
X03636Y00965*
X03646Y00961*
X03658Y0096*
X03669Y00961*
X03679Y00965*
X03688Y00972*
X03695Y00981*
X03699Y00991*
X037Y01003*
X03699Y01014*
X03695Y01024*
X03688Y01033*
X03679Y0104*
X03669Y01044*
X03658Y01045*
G37*
G36*
X03558D02*
X03546Y01044D01*
X03536Y0104*
X03527Y01033*
X0352Y01024*
X03516Y01014*
X03515Y01003*
X03516Y00991*
X0352Y00981*
X03527Y00972*
X03536Y00965*
X03546Y00961*
X03558Y0096*
X03569Y00961*
X03579Y00965*
X03588Y00972*
X03595Y00981*
X03599Y00991*
X036Y01003*
X03599Y01014*
X03595Y01024*
X03588Y01033*
X03579Y0104*
X03569Y01044*
X03558Y01045*
G37*
G36*
X03458D02*
X03446Y01044D01*
X03436Y0104*
X03427Y01033*
X0342Y01024*
X03416Y01014*
X03415Y01003*
X03416Y00991*
X0342Y00981*
X03427Y00972*
X03436Y00965*
X03446Y00961*
X03458Y0096*
X03469Y00961*
X03479Y00965*
X03488Y00972*
X03495Y00981*
X03499Y00991*
X035Y01003*
X03499Y01014*
X03495Y01024*
X03488Y01033*
X03479Y0104*
X03469Y01044*
X03458Y01045*
G37*
G36*
X03343Y00988D02*
X03318D01*
X0332Y00981*
X03327Y00972*
X03336Y00965*
X03343Y00963*
Y00988*
G37*
G36*
X03373Y01042D02*
Y01018D01*
X03397*
X03395Y01024*
X03388Y01033*
X03379Y0104*
X03373Y01042*
G37*
G36*
X03343D02*
X03336Y0104D01*
X03327Y01033*
X0332Y01024*
X03318Y01018*
X03343*
Y01042*
G37*
G36*
X03397Y00988D02*
X03373D01*
Y00963*
X03379Y00965*
X03388Y00972*
X03395Y00981*
X03397Y00988*
G37*
G36*
X03239Y00953D02*
X03236D01*
Y00935*
X03253*
Y00938*
X03252Y00944*
X03249Y00948*
X03244Y00952*
X03239Y00953*
G37*
G36*
X00992Y01163D02*
X00959D01*
Y01113*
X0096Y01109*
X00962Y01105*
X00965Y01103*
X00969Y01102*
X00992*
Y01163*
G37*
G36*
X01262Y00907D02*
X01245D01*
Y0088*
X01272*
Y00897*
X01271Y00901*
X01269Y00904*
X01266Y00906*
X01262Y00907*
G37*
G36*
X01215D02*
X01197D01*
X01193Y00906*
X0119Y00904*
X01188Y00901*
X01187Y00897*
Y0088*
X01215*
Y00907*
G37*
G36*
X0339Y00945D02*
X03325D01*
X03321Y00944*
X03318Y00942*
X03316Y00939*
X03315Y00935*
Y00889*
X03312Y00885*
X03251*
X03249Y00888*
X03244Y00892*
X03243Y00892*
Y00898*
X03244Y00898*
X03249Y00902*
X03252Y00906*
X03253Y00912*
Y00915*
X03226*
X03198*
Y00912*
X03199Y00906*
X03202Y00902*
X03207Y00898*
X03208Y00898*
Y00892*
X03207Y00892*
X03202Y00888*
X03199Y00884*
X03198Y00878*
Y00852*
X03199Y00846*
X03202Y00842*
X03207Y00838*
X03212Y00837*
X03239*
X03244Y00838*
X03249Y00842*
X03251Y00845*
X0332*
X03328Y00846*
X03334Y00851*
X03344Y0086*
X0339*
X03394Y00861*
X03397Y00863*
X03399Y00866*
X034Y0087*
Y00935*
X03399Y00939*
X03397Y00942*
X03394Y00944*
X0339Y00945*
G37*
G36*
X01157Y0105D02*
X01154D01*
X01148Y01049*
X01144Y01046*
X0114Y01041*
X01139Y01036*
Y01033*
X01157*
Y0105*
G37*
G36*
X01267D02*
X01263D01*
X01258Y01049*
X01253Y01046*
X01253Y01045*
X01245*
X01245Y01046*
X0124Y01049*
X01235Y0105*
X01232*
Y01023*
X01212*
Y0105*
X01208*
X01203Y01049*
X01198Y01046*
X01198Y01046*
X01191*
X0119Y01046*
X01186Y01049*
X0118Y0105*
X01177*
Y01023*
X01167*
Y01013*
X01139*
Y01009*
X0114Y01004*
X01144Y00999*
X01148Y00996*
X0115Y00996*
Y00989*
X01148Y00989*
X01144Y00986*
X01143Y00985*
X01135Y00983*
X01135Y00983*
X01131Y00985*
X01122Y00987*
X01113Y00985*
X01105Y0098*
X01099Y00972*
X01098Y00963*
X01099Y00953*
X01105Y00945*
X01113Y0094*
X01122Y00938*
X01131Y0094*
X01135Y00942*
X01135Y00942*
X01143Y0094*
X01144Y00939*
X01148Y00936*
X01154Y00935*
X0118*
X01186Y00936*
X0119Y00939*
X01191Y00939*
X01198*
X01198Y00939*
X01203Y00936*
X01208Y00935*
X01235*
X0124Y00936*
X01245Y00939*
X01245Y0094*
X01253*
X01253Y00939*
X01258Y00936*
X01263Y00935*
X0129*
X01295Y00936*
X013Y00939*
X01303Y00944*
X01304Y00949*
Y00976*
X01303Y00981*
X013Y00986*
X01295Y00989*
X01294Y00989*
Y00996*
X01295Y00996*
X013Y00999*
X01303Y01004*
X01304Y01009*
Y01013*
X01277*
Y01023*
X01267*
Y0105*
G37*
G36*
X03216Y00953D02*
X03212D01*
X03207Y00952*
X03202Y00948*
X03199Y00944*
X03198Y00938*
Y00935*
X03216*
Y00953*
G37*
G36*
X0206Y00794D02*
X0205Y00792D01*
X02042Y00787*
X02037Y00779*
X02035Y0077*
X02036Y00763*
X02032Y00757*
X02025*
X02021Y00756*
X02018Y00754*
X02015Y00751*
X02015Y00747*
Y00668*
X02015Y00664*
X02018Y00661*
X02021Y00659*
X02025Y00658*
X0208*
X02084Y00659*
X02087Y00661*
X02089Y00664*
X0209Y00668*
Y00747*
X02089Y00751*
X02087Y00754*
X02086Y00755*
X02083Y00758*
X02083Y00763*
X02084Y0077*
X02082Y00779*
X02077Y00787*
X02069Y00792*
X0206Y00794*
G37*
G36*
X0214Y0052D02*
X0213Y00518D01*
X02122Y00513*
X02117Y00505*
X02115Y00496*
X02117Y00486*
X02119Y00483*
Y00475*
X02116Y00473*
X02113Y00468*
X02112Y00463*
Y00436*
X02113Y00431*
X02116Y00426*
X02121Y00423*
X02122Y00423*
Y00416*
X02121Y00416*
X02116Y00413*
X02113Y00408*
X02112Y00403*
Y004*
X0214*
Y0039*
Y004*
X02167*
Y00403*
X02166Y00408*
X02163Y00413*
X02158Y00416*
X02157Y00416*
Y00423*
X02158Y00423*
X02163Y00426*
X02166Y00431*
X02167Y00436*
Y00463*
X02166Y00468*
X02163Y00473*
X0216Y00475*
Y00483*
X02162Y00486*
X02164Y00496*
X02162Y00505*
X02157Y00513*
X02149Y00518*
X0214Y0052*
G37*
G36*
X02167Y0038D02*
X0215D01*
Y00362*
X02153*
X02158Y00363*
X02163Y00366*
X02166Y00371*
X02167Y00376*
Y0038*
G37*
G36*
X0213D02*
X02112D01*
Y00376*
X02113Y00371*
X02116Y00366*
X02121Y00363*
X02126Y00362*
X0213*
Y0038*
G37*
G36*
X0224Y00482D02*
X02228Y00481D01*
X02218Y00477*
X02209Y0047*
X02202Y00461*
X02198Y00451*
X02197Y0044*
X02198Y00428*
X02202Y00418*
X02209Y00409*
X02218Y00402*
X02228Y00398*
X0224Y00397*
X02251Y00398*
X02261Y00402*
X0227Y00409*
X02277Y00418*
X02281Y00428*
X02282Y0044*
X02281Y00451*
X02277Y00461*
X0227Y0047*
X02261Y00477*
X02251Y00481*
X0224Y00482*
G37*
G36*
X01216Y0046D02*
X01212D01*
X01207Y00459*
X01202Y00456*
X01199Y00451*
X01198Y00446*
Y00443*
X01216*
Y0046*
G37*
G36*
X0205Y00559D02*
X0204Y00557D01*
X02032Y00552*
X02027Y00544*
X02025Y00535*
X02027Y00527*
X02026Y00525*
X02024Y00522*
X02023Y00521*
X02021Y0052*
X02018Y00518*
X02015Y00515*
X02015Y00511*
Y00432*
X02015Y00428*
X02018Y00425*
X02021Y00423*
X02025Y00422*
X0208*
X02084Y00423*
X02087Y00425*
X02089Y00428*
X0209Y00432*
Y00511*
X02089Y00515*
X02087Y00518*
X02084Y0052*
X0208Y00521*
X02076*
X02072Y00527*
X02074Y00535*
X02072Y00544*
X02067Y00552*
X02059Y00557*
X0205Y00559*
G37*
G36*
X01914Y00794D02*
X01904Y00792D01*
X01897Y00787*
X01891Y00779*
X01889Y0077*
X01891Y00763*
X01887Y00757*
X01879*
X01875Y00756*
X01872Y00754*
X0187Y00751*
X01869Y00747*
Y00668*
X0187Y00664*
X01872Y00661*
X01875Y00659*
X01879Y00658*
X01891*
Y00521*
X01879*
X01875Y0052*
X01872Y00518*
X0187Y00515*
X01869Y00511*
Y00432*
X0187Y00428*
X01872Y00425*
X01875Y00423*
X01879Y00422*
X01934*
X01938Y00423*
X01941Y00425*
X01944Y00428*
X01944Y00432*
Y00511*
X01944Y00515*
X01941Y00518*
X01938Y0052*
X01934Y00521*
X01922*
Y00658*
X01934*
X01938Y00659*
X01941Y00661*
X01944Y00664*
X01944Y00668*
Y00747*
X01944Y00751*
X01941Y00754*
X0194Y00755*
X01938Y00758*
X01937Y00763*
X01938Y0077*
X01936Y00779*
X01931Y00787*
X01923Y00792*
X01914Y00794*
G37*
G36*
X02255Y00379D02*
Y00355D01*
X02279*
X02277Y00361*
X0227Y0037*
X02261Y00377*
X02255Y00379*
G37*
G36*
X0224Y00282D02*
X02228Y00281D01*
X02218Y00277*
X02209Y0027*
X02202Y00261*
X02198Y00251*
X02197Y0024*
X02198Y00228*
X02202Y00218*
X02209Y00209*
X02218Y00202*
X02228Y00198*
X0224Y00197*
X02251Y00198*
X02261Y00202*
X0227Y00209*
X02277Y00218*
X02281Y00228*
X02282Y0024*
X02281Y00251*
X02277Y00261*
X0227Y0027*
X02261Y00277*
X02251Y00281*
X0224Y00282*
G37*
G36*
X0379Y00388D02*
X03772Y00387D01*
X03756Y00383*
X0374Y00376*
X03726Y00367*
X03713Y00356*
X03702Y00343*
X03693Y00329*
X03686Y00313*
X03682Y00297*
X03681Y0028*
X03682Y00262*
X03686Y00246*
X03693Y0023*
X03702Y00216*
X03713Y00203*
X03726Y00192*
X0374Y00183*
X03756Y00176*
X03772Y00172*
X0379Y00171*
X03807Y00172*
X03823Y00176*
X03839Y00183*
X03853Y00192*
X03866Y00203*
X03877Y00216*
X03886Y0023*
X03893Y00246*
X03897Y00262*
X03898Y0028*
X03897Y00297*
X03893Y00313*
X03886Y00329*
X03877Y00343*
X03866Y00356*
X03853Y00367*
X03839Y00376*
X03823Y00383*
X03807Y00387*
X0379Y00388*
G37*
G36*
X02225Y00325D02*
X022D01*
X02202Y00318*
X02209Y00309*
X02218Y00302*
X02225Y003*
Y00325*
G37*
G36*
Y00379D02*
X02218Y00377D01*
X02209Y0037*
X02202Y00361*
X022Y00355*
X02225*
Y00379*
G37*
G36*
X02279Y00325D02*
X02255D01*
Y003*
X02261Y00302*
X0227Y00309*
X02277Y00318*
X02279Y00325*
G37*
G36*
X01293Y0046D02*
X0129D01*
Y00443*
X01307*
Y00446*
X01306Y00451*
X01303Y00456*
X01298Y00459*
X01293Y0046*
G37*
G36*
X01637Y00615D02*
X0162D01*
Y00611*
X01621Y00606*
X01624Y00601*
X01629Y00598*
X01634Y00597*
X01637*
Y00615*
G37*
G36*
X01608D02*
X0159D01*
Y00597*
X01593*
X01599Y00598*
X01604Y00601*
X01607Y00606*
X01608Y00611*
Y00615*
G37*
G36*
X0157D02*
X01552D01*
Y00611*
X01554Y00606*
X01557Y00601*
X01561Y00598*
X01567Y00597*
X0157*
Y00615*
G37*
G36*
X01675D02*
X01657D01*
Y00597*
X0166*
X01666Y00598*
X01671Y00601*
X01674Y00606*
X01675Y00611*
Y00615*
G37*
G36*
X01513Y00755D02*
X01504Y00754D01*
X01496Y00748*
X0149Y0074*
X01489Y00731*
X0149Y00722*
X01493Y00717*
X01494Y00716*
X01492Y0071*
X01492Y0071*
X0149Y00708*
X01486Y00703*
X01485Y00698*
Y00671*
X01486Y00666*
X0149Y00661*
X01494Y00658*
X01496Y00658*
Y00651*
X01494Y00651*
X0149Y00648*
X01486Y00643*
X01485Y00638*
Y00611*
X01486Y00606*
X0149Y00601*
X01494Y00598*
X01498Y00597*
Y0057*
X01486Y00559*
X0137*
X01359Y00569*
Y00592*
X01365Y00597*
X01366Y00597*
X01369*
Y00625*
X01379*
Y00635*
X01407*
Y00638*
X01405Y00643*
X01402Y00648*
X01398Y00651*
X01396Y00651*
Y00658*
X01398Y00658*
X01402Y00661*
X01405Y00666*
X01406Y00669*
X01419*
X01419Y00666*
X01422Y00661*
X01427Y00658*
X01429Y00658*
Y00651*
X01427Y00651*
X01422Y00648*
X01419Y00643*
X01418Y00638*
Y00635*
X01446*
X01474*
Y00638*
X01473Y00643*
X01469Y00648*
X01465Y00651*
X01463Y00651*
Y00658*
X01465Y00658*
X01469Y00661*
X01473Y00666*
X01474Y00671*
Y00698*
X01473Y00703*
X01469Y00708*
X01465Y00711*
X01459Y00712*
X01433*
X01427Y00711*
X01422Y00708*
X01419Y00703*
X01419Y007*
X01406*
X01405Y00703*
X01402Y00708*
X01401Y00709*
X014Y00716*
X014Y00716*
X01402Y0072*
X01404Y0073*
X01402Y00739*
X01397Y00747*
X01389Y00752*
X0138Y00754*
X0137Y00752*
X01362Y00747*
X01357Y00739*
X01355Y0073*
X01357Y0072*
X01359Y00717*
X01359Y00716*
X01357Y00709*
X01355Y00708*
X01352Y00703*
X01351Y00698*
Y00675*
X01345Y00673*
X01339Y00678*
Y00698*
X01338Y00703*
X01335Y00708*
X01334Y00709*
X01332Y00716*
X01332Y00717*
X01334Y0072*
X01336Y0073*
X01334Y00739*
X01329Y00747*
X01321Y00752*
X01312Y00754*
X01302Y00752*
X01294Y00747*
X01289Y00739*
X01287Y0073*
X01289Y0072*
X01291Y00717*
X01291Y00716*
X01289Y00709*
X01288Y00708*
X01285Y00703*
X01284Y00698*
Y00671*
X01285Y00666*
X01288Y00661*
X01293Y00658*
X01294Y00658*
Y00651*
X01293Y00651*
X01288Y00648*
X01285Y00643*
X01284Y00638*
Y00611*
X01285Y00606*
X01288Y00601*
X01289Y006*
X01291Y00593*
X01291Y00592*
X01289Y00589*
X01287Y0058*
X01289Y0057*
X01294Y00562*
X01302Y00557*
X01312Y00555*
X01321Y00557*
X01324Y00559*
X01329Y00557*
X01331Y00556*
X01333Y00552*
X01353Y00533*
X01358Y00529*
X01364Y00528*
X01493*
X01498Y00529*
X01503Y00533*
X01524Y00553*
X01527Y00558*
X01528Y00564*
Y00597*
X01532Y00598*
X01537Y00601*
X0154Y00606*
X01541Y00611*
Y00638*
X0154Y00643*
X01537Y00648*
X01532Y00651*
X0153Y00651*
Y00658*
X01532Y00658*
X01537Y00661*
X0154Y00666*
X0154Y00669*
X01553*
X01554Y00666*
X01557Y00661*
X01561Y00658*
X01563Y00658*
Y00651*
X01561Y00651*
X01557Y00648*
X01554Y00643*
X01552Y00638*
Y00635*
X0158*
X01608*
Y00638*
X01607Y00643*
X01604Y00648*
X01599Y00651*
X01598Y00651*
Y00658*
X01599Y00658*
X01604Y00661*
X01607Y00666*
X01608Y00669*
X0162*
X01621Y00666*
X01624Y00661*
X01629Y00658*
X0163Y00658*
Y00651*
X01629Y00651*
X01624Y00648*
X01621Y00643*
X0162Y00638*
Y00635*
X01647*
X01675*
Y00638*
X01674Y00643*
X01671Y00648*
X01666Y00651*
X01665Y00651*
Y00658*
X01666Y00658*
X01671Y00661*
X01674Y00666*
X01675Y00671*
Y00698*
X01674Y00703*
X01671Y00708*
X01666Y00711*
X0166Y00712*
X01634*
X01629Y00711*
X01624Y00708*
X01621Y00703*
X0162Y007*
X01608*
X01607Y00703*
X01604Y00708*
X01599Y00711*
X01593Y00712*
X01567*
X01561Y00711*
X01557Y00708*
X01554Y00703*
X01553Y007*
X0154*
X0154Y00703*
X01537Y00708*
X01534Y0071*
X01534Y0071*
X01533Y00716*
X01533Y00717*
X01536Y00722*
X01538Y00731*
X01536Y0074*
X0153Y00748*
X01522Y00754*
X01513Y00755*
G37*
G36*
X01474Y00615D02*
X01456D01*
Y00597*
X01459*
X01465Y00598*
X01469Y00601*
X01473Y00606*
X01474Y00611*
Y00615*
G37*
G36*
X01272Y00675D02*
X01245D01*
X01217*
Y00671*
X01218Y00666*
X01221Y00661*
X01226Y00658*
X01227Y00658*
Y00651*
X01226Y00651*
X01221Y00648*
X01218Y00643*
X01217Y00638*
Y00611*
X01218Y00606*
X01221Y00601*
X01224Y00599*
Y00599*
X01226Y00593*
X01226Y00592*
X01223Y00587*
X01221Y00578*
X01223Y00568*
X01228Y0056*
X01236Y00555*
X01246Y00553*
X01255Y00555*
X01263Y0056*
X01268Y00568*
X0127Y00578*
X01268Y00587*
X01265Y00592*
X01264Y00593*
X01266Y00599*
X01266Y006*
X01268Y00601*
X01271Y00606*
X01272Y00611*
Y00638*
X01271Y00643*
X01268Y00648*
X01263Y00651*
X01262Y00651*
Y00658*
X01263Y00658*
X01268Y00661*
X01271Y00666*
X01272Y00671*
Y00675*
G37*
G36*
X0224Y00582D02*
X02228Y00581D01*
X02218Y00577*
X02209Y0057*
X02202Y00561*
X02198Y00551*
X02197Y0054*
X02198Y00528*
X02202Y00518*
X02209Y00509*
X02218Y00502*
X02228Y00498*
X0224Y00497*
X02251Y00498*
X02261Y00502*
X0227Y00509*
X02277Y00518*
X02281Y00528*
X02282Y0054*
X02281Y00551*
X02277Y00561*
X0227Y0057*
X02261Y00577*
X02251Y00581*
X0224Y00582*
G37*
G36*
X0127Y0046D02*
X01266D01*
X01261Y00459*
X01256Y00456*
X01249*
X01244Y00459*
X01239Y0046*
X01236*
Y00433*
X01226*
Y00423*
X01198*
Y00419*
X01199Y00414*
X01202Y00409*
X01207Y00406*
X01208Y00406*
Y00399*
X01207Y00399*
X01202Y00396*
X01199Y00391*
X01198Y00386*
Y00359*
X01199Y00354*
X01202Y00349*
X01203Y00349*
X01204Y00341*
X01203Y00338*
X01201Y00329*
X01203Y0032*
X01208Y00312*
X01216Y00306*
X01225Y00305*
X01235Y00306*
X01243Y00312*
X01248Y0032*
X01249Y00326*
X01249Y00326*
X01256*
X01256Y00326*
X01257Y0032*
X01262Y00312*
X0127Y00306*
X01279Y00305*
X01289Y00306*
X01297Y00312*
X01302Y0032*
X01304Y00329*
X01302Y00338*
X01301Y00341*
X01302Y00349*
X01303Y00349*
X01306Y00354*
X01307Y00359*
Y00386*
X01306Y00391*
X01303Y00396*
X01298Y00399*
X01297Y00399*
Y00406*
X01298Y00406*
X01303Y00409*
X01306Y00414*
X01307Y00419*
Y00423*
X0128*
Y00433*
X0127*
Y0046*
G37*
G36*
X01715Y00754D02*
X01705Y00752D01*
X01697Y00747*
X01692Y00739*
X0169Y0073*
X01692Y0072*
X01694Y00717*
X01694Y00716*
X01692Y00709*
X01691Y00708*
X01688Y00703*
X01687Y00698*
Y00671*
X01688Y00666*
X01691Y00661*
X01696Y00658*
X01697Y00658*
Y00651*
X01696Y00651*
X01691Y00648*
X01688Y00643*
X01687Y00638*
Y00611*
X01688Y00606*
X01691Y00601*
X01692Y006*
X01694Y00593*
X01694Y00592*
X01692Y00589*
X0169Y0058*
X01692Y0057*
X01697Y00562*
X01705Y00557*
X01715Y00555*
X01724Y00557*
X01732Y00562*
X01737Y0057*
X01739Y0058*
X01737Y00589*
X01735Y00592*
X01735Y00593*
X01737Y006*
X01738Y00601*
X01741Y00606*
X01742Y00611*
Y00638*
X01741Y00643*
X01738Y00648*
X01733Y00651*
X01732Y00651*
Y00658*
X01733Y00658*
X01738Y00661*
X01741Y00666*
X01742Y00671*
Y00698*
X01741Y00703*
X01738Y00708*
X01737Y00709*
X01735Y00716*
X01735Y00717*
X01737Y0072*
X01739Y0073*
X01737Y00739*
X01732Y00747*
X01724Y00752*
X01715Y00754*
G37*
G36*
X01436Y00615D02*
X01418D01*
Y00611*
X01419Y00606*
X01422Y00601*
X01427Y00598*
X01433Y00597*
X01436*
Y00615*
G37*
G36*
X01407D02*
X01389D01*
Y00597*
X01392*
X01398Y00598*
X01402Y00601*
X01405Y00606*
X01407Y00611*
Y00615*
G37*
G36*
X0224Y00682D02*
X02228Y00681D01*
X02218Y00677*
X02209Y0067*
X02202Y00661*
X02198Y00651*
X02197Y0064*
X02198Y00628*
X02202Y00618*
X02209Y00609*
X02218Y00602*
X02228Y00598*
X0224Y00597*
X02251Y00598*
X02261Y00602*
X0227Y00609*
X02277Y00618*
X02281Y00628*
X02282Y0064*
X02281Y00651*
X02277Y00661*
X0227Y0067*
X02261Y00677*
X02251Y00681*
X0224Y00682*
G37*
G36*
X0314Y0224D02*
X03136D01*
X03131Y02239*
X03126Y02236*
X03123Y02231*
X03123Y0223*
X03116*
X03116Y02231*
X03113Y02236*
X03108Y02239*
X03103Y0224*
X03076*
X03071Y02239*
X03066Y02236*
X03064Y02233*
X03046*
X03043Y02235*
X03034Y02237*
X03024Y02235*
X03016Y0223*
X03011Y02222*
X03009Y02213*
X03011Y02203*
X03016Y02195*
X03024Y0219*
X03034Y02188*
X03043Y0219*
X03046Y02192*
X03064*
X03066Y02189*
X03071Y02186*
X03076Y02185*
X03103*
X03108Y02186*
X03113Y02189*
X03116Y02194*
X03116Y02195*
X03123*
X03123Y02194*
X03126Y02189*
X03131Y02186*
X03136Y02185*
X0314*
Y02213*
Y0224*
G37*
G36*
X02525Y02257D02*
X02505D01*
Y02224*
X02535*
Y02247*
X02534Y0225*
X02532Y02254*
X02528Y02256*
X02525Y02257*
G37*
G36*
X02485D02*
X02465D01*
X02461Y02256*
X02457Y02254*
X02455Y0225*
X02454Y02247*
Y02224*
X02485*
Y02257*
G37*
G36*
X00992Y01243D02*
X00969D01*
X00965Y01242*
X00962Y0124*
X0096Y01236*
X00959Y01233*
Y01183*
X00992*
Y01243*
G37*
G36*
X01034D02*
X01012D01*
Y01183*
X01044*
Y01233*
X01043Y01236*
X01041Y0124*
X01038Y01242*
X01034Y01243*
G37*
G36*
X0114Y01412D02*
X01055D01*
X01051Y01411*
X01048Y01409*
X01046Y01405*
X01045Y01401*
Y01294*
X01046Y0129*
X01048Y01286*
X01051Y01284*
X01055Y01283*
X01067*
Y01268*
X01067Y01268*
X01063Y01259*
X01062Y0125*
X01063Y01241*
X01067Y01233*
X01073Y01225*
X0108Y0122*
X01088Y01216*
X01098Y01215*
X01107Y01216*
X01115Y0122*
X01122Y01225*
X01128Y01233*
X01132Y01241*
X01133Y0125*
X01132Y01259*
X01128Y01268*
X01128Y01268*
Y01283*
X0114*
X01144Y01284*
X01147Y01286*
X01149Y0129*
X0115Y01294*
Y01401*
X01149Y01405*
X01147Y01409*
X01144Y01411*
X0114Y01412*
G37*
G36*
X01938Y01248D02*
X01935D01*
Y01231*
X01953*
Y01234*
X01952Y01239*
X01948Y01244*
X01944Y01247*
X01938Y01248*
G37*
G36*
X03373Y02214D02*
Y0219D01*
X03397*
X03395Y02196*
X03388Y02205*
X03379Y02212*
X03373Y02214*
G37*
G36*
X03163Y0224D02*
X0316D01*
Y02223*
X03177*
Y02226*
X03176Y02231*
X03173Y02236*
X03168Y02239*
X03163Y0224*
G37*
G36*
X03343Y02214D02*
X03336Y02212D01*
X03327Y02205*
X0332Y02196*
X03318Y0219*
X03343*
Y02214*
G37*
G36*
X02833Y02394D02*
X02823Y02392D01*
X02815Y02387*
X0281Y02379*
X02808Y0237*
X0281Y0236*
X02815Y02352*
X02817Y02351*
Y0225*
X02818Y02244*
X02822Y02239*
X02944Y02116*
X02949Y02113*
X02955Y02112*
X0331*
X03315Y02107*
Y02042*
X0295*
X02844Y02148*
X02839Y02152*
X02834Y02153*
X0276*
X02758Y02156*
X02757Y02159*
X02762Y02166*
X02764Y02176*
X02762Y02185*
X02757Y02193*
X02749Y02198*
X0274Y022*
X0273Y02198*
X02722Y02193*
X02721Y02191*
X02569*
X02563Y0219*
X02558Y02186*
X02546Y02175*
X02539*
X02535Y02181*
Y02204*
X02454*
Y02181*
X0245Y02175*
X02419*
X02415Y02181*
Y02247*
X02414Y0225*
X02412Y02254*
X02408Y02256*
X02405Y02257*
X02353*
X02349Y02261*
X02344Y02264*
X02338Y02265*
X02184*
X02178Y02264*
X02173Y02261*
X02148Y02236*
X02144Y0224*
X02134Y02244*
X02123Y02245*
X02111Y02244*
X02101Y0224*
X02092Y02233*
X02085Y02224*
X02081Y02214*
X0208Y02203*
X02081Y02191*
X02085Y02181*
X02092Y02172*
X02101Y02165*
X02111Y02161*
X02123Y0216*
X02134Y02161*
X02144Y02165*
X02153Y02172*
X0216Y02181*
X02164Y02191*
X02165Y02203*
X02165Y02209*
X02174Y02219*
X0218Y02217*
Y0217*
X02181Y02166*
X02183Y02163*
X02186Y02161*
X0219Y0216*
X02255*
X02259Y02161*
X02262Y02163*
X02264Y02166*
X02265Y0217*
Y02187*
X02283*
X02312Y02158*
X0231Y02153*
X02223*
X02217Y02152*
X02212Y02148*
X02111Y02047*
X02091*
X02086Y02046*
X02081Y02043*
X02078Y02038*
X02077Y02033*
Y02006*
X02078Y02001*
X02081Y01996*
X02086Y01993*
X02087Y01993*
Y01986*
X02086Y01986*
X02081Y01983*
X02078Y01978*
X02077Y01973*
Y01953*
X02056Y01932*
X02053Y01927*
X02051Y01922*
Y0185*
X02046Y01845*
X02024*
X0202Y01844*
X02019Y01844*
X02019Y01844*
X02015Y01845*
X02014*
Y01805*
Y01765*
X02015*
X0202Y0176*
Y01754*
X02018Y01753*
X02013Y01745*
X02011Y01735*
X02013Y01726*
X02018Y01718*
X02026Y01713*
X02035Y01711*
X02045Y01713*
X02052Y01718*
X02058Y01726*
X0206Y01735*
X02058Y01745*
X02052Y01753*
X0205Y01754*
Y0176*
X02056Y01765*
X02078*
X02082Y01766*
X02082Y01766*
X02083Y01766*
X02087Y01765*
X02109*
X02113Y01766*
X02114Y01766*
X02115Y01766*
X02119Y01765*
X02141*
X02145Y01766*
X02145Y01766*
X02146Y01766*
X0215Y01765*
X02172*
X02176Y01766*
X02177Y01766*
X02178Y01766*
X02182Y01765*
X02204*
X02206Y01765*
X02208Y01764*
X02209Y01763*
X02211Y01761*
X0221Y01758*
Y01736*
X02211Y01732*
X02212Y01731*
X02211Y0173*
X0221Y01727*
Y01715*
X0221Y01714*
X02209Y01713*
X02204Y0171*
X02175*
X02171Y01709*
X02167Y01707*
X02165Y01703*
X02164Y017*
Y0161*
X02165Y01606*
X02167Y01602*
X02171Y016*
X02175Y01599*
X022*
X022Y01599*
X02201Y01599*
X02202Y016*
X02204Y016*
X02204Y016*
X02205Y01601*
X02207Y01599*
X02251*
X02293*
X02295Y016*
X02296Y01601*
X02297*
X02297Y01601*
X02298Y016*
X023Y016*
X02305Y01599*
X02305Y01599*
X02306Y01599*
X0231*
X02365Y01545*
X02366Y01544*
X02367Y01544*
X02367Y01543*
X02368Y01542*
X02385Y01525*
X02384Y01517*
X02384Y01517*
X02381Y01512*
X0238Y01507*
Y01491*
X02374Y01489*
X02294Y01569*
X0229Y01571*
X0229Y01573*
X02289Y01574*
X0229Y01575*
X02291Y01578*
Y01579*
X02251*
X0221*
Y01578*
X02211Y01575*
X02212Y01574*
X02211Y01573*
X0221Y01569*
Y01547*
X02211Y01543*
X02212Y01542*
X02211Y01541*
X0221Y01538*
Y01515*
X02211Y01512*
X02212Y01511*
X02211Y0151*
X0221Y01506*
Y01484*
X02211Y0148*
X02212Y01479*
X02211Y01478*
X0221Y01475*
Y01452*
X02211Y01449*
X02212Y01448*
X02211Y01447*
X0221Y01443*
Y01421*
X02211Y01418*
X02209Y01416*
X02208Y01415*
X02206Y01414*
X02204Y01414*
X02182*
X02178Y01413*
X02177Y01413*
X02176Y01413*
X02172Y01414*
X0215*
X02146Y01413*
X02145Y01413*
X02145Y01413*
X02141Y01414*
X02119*
X02115Y01413*
X02114Y01413*
X02113Y01413*
X02109Y01414*
X02087*
X02083Y01413*
X02082Y01413*
X02082Y01413*
X02078Y01414*
X02056*
X02052Y01413*
X02051Y01413*
X0205Y01413*
X02046Y01414*
X02045*
Y01374*
Y01334*
X02046*
X02051Y01329*
Y01303*
X02049Y01302*
X02044Y01294*
X02042Y01285*
X02044Y01275*
X02049Y01267*
X02051Y01266*
Y01252*
X02027*
X02023Y01251*
X02019Y01249*
X02017Y01245*
X02016Y01242*
Y01182*
X02017Y01178*
X02019Y01174*
X02023Y01172*
X02027Y01171*
X02093*
X02098Y01167*
Y01147*
X02099Y01142*
X02102Y01138*
X02102Y01132*
X02102Y01131*
X02099Y0113*
X02098Y0113*
X02096Y01131*
X02093Y01132*
X02027*
X02023Y01131*
X02019Y01129*
X02017Y01125*
X02016Y01122*
Y0107*
X02009Y01062*
X02005Y01057*
X02004Y01052*
Y01027*
X02001Y01026*
X01996Y01023*
X01993Y01018*
X01992Y01013*
Y00986*
X01993Y00981*
X01996Y00976*
X02001Y00973*
X02002Y00973*
Y00966*
X02001Y00966*
X01996Y00963*
X01995Y00961*
X01987Y00959*
X01987Y00959*
X01978Y00961*
X01968Y00959*
X0196Y00954*
X01955Y00946*
X01953Y00937*
X01955Y00927*
X0196Y00919*
X01968Y00914*
X01978Y00912*
X01987Y00914*
X01991Y00917*
X01996Y00916*
X02001Y00913*
X02006Y00912*
X02033*
X02038Y00913*
X02043Y00916*
X02043Y00917*
X02051*
X02051Y00916*
X02056Y00913*
X02061Y00912*
X02088*
X02093Y00913*
X02098Y00916*
X02098Y00917*
X02106*
X02106Y00916*
X02111Y00913*
X02116Y00912*
X02143*
X02148Y00913*
X02153Y00916*
X02156Y00921*
X02157Y00926*
Y00953*
X02156Y00958*
X02153Y00963*
X02148Y00966*
X02147Y00966*
Y00973*
X02148Y00973*
X02153Y00976*
X02156Y00981*
X02157Y00986*
Y01013*
X02156Y01018*
X02153Y01023*
X02152Y01023*
X02152Y01025*
X02154Y01035*
X02152Y01044*
X02147Y01052*
X02139Y01057*
X0213Y01059*
X0212Y01057*
X02112Y01052*
X02107Y01044*
X02105Y01035*
X02106Y01028*
X02104Y01024*
X02098Y01023*
X02093Y01026*
X02088Y01027*
X02085*
Y01*
X02065*
Y01027*
X02061*
X02056Y01026*
X02051Y01023*
X02051Y01022*
X02043*
X02043Y01023*
X02038Y01026*
X02035Y01027*
Y01045*
X02041Y01051*
X02093*
X02096Y01052*
X021Y01054*
X02102Y01058*
X02103Y01062*
Y01095*
X02109Y01097*
X02115Y01093*
X02125Y01091*
X02134Y01093*
X02142Y01098*
X02147Y01106*
X02149Y01116*
X02147Y01125*
X02145Y01128*
X02145Y01129*
X02147Y01136*
X0215Y01137*
X0215Y01138*
X02157*
X02158Y01137*
X02159Y01136*
X02161Y01129*
X02161Y01128*
X02159Y01125*
X02157Y01116*
X02159Y01106*
X02164Y01098*
X02172Y01093*
X02181Y01091*
X02191Y01093*
X02199Y01098*
X02204Y01106*
X02206Y01116*
X02204Y01125*
X02202Y01128*
X02202Y01129*
X02204Y01136*
X02205Y01137*
X02205Y01138*
X02213*
X02213Y01137*
X02214Y01136*
X02216Y01129*
X02216Y01128*
X02214Y01125*
X02212Y01116*
X02214Y01106*
X02219Y01098*
X02227Y01093*
X02236Y01091*
X02246Y01093*
X02254Y01098*
X02259Y01106*
X02261Y01116*
X02259Y01125*
X02257Y01128*
X02257Y01129*
X02259Y01136*
X0226Y01137*
X02261Y01138*
X02268*
X02268Y01137*
X02271Y01135*
X02271Y01135*
X02272Y01129*
X02272Y01128*
X02269Y01123*
X02267Y01114*
X02269Y01105*
X02274Y01097*
X02282Y01091*
X02292Y0109*
X02301Y01091*
X02309Y01097*
X02314Y01105*
X02316Y01114*
X02314Y01123*
X02311Y01128*
X02311Y01129*
X02313Y01135*
X02313Y01135*
X02315Y01137*
X02318Y01142*
X0232Y01147*
Y01154*
X02326Y01157*
X0238Y01103*
Y01089*
X02381Y01083*
X02384Y01079*
X02389Y01076*
X02394Y01074*
X02421*
X02426Y01076*
X02431Y01079*
X02434Y01083*
X02434Y01085*
X02441*
X02441Y01083*
X02444Y01079*
X02449Y01076*
X02454Y01074*
X02481*
X02486Y01076*
X02491Y01079*
X02494Y01083*
X02495Y01087*
X02522*
X02528Y01088*
X02533Y01091*
X02696Y01254*
X0284*
X02845Y01255*
X0285Y01259*
X03371Y01779*
X03713*
X03719Y01781*
X03724Y01784*
X0389Y0195*
X03894Y01955*
X03895Y01961*
Y0198*
X03897Y01981*
X03902Y01989*
X03904Y01999*
X03902Y02008*
X03897Y02016*
X03889Y02021*
X0388Y02023*
X03871Y02021*
X03869Y02022*
X03865Y02024*
Y02041*
X03867Y02042*
X03872Y0205*
X03874Y0206*
X03872Y02069*
X03867Y02077*
X03859Y02082*
X0385Y02084*
X0384Y02082*
X03832Y02077*
X03827Y02069*
X03825Y0206*
X03827Y0205*
X03832Y02042*
X03834Y02041*
Y01966*
X03811Y01942*
X03805Y01945*
Y02041*
X03807Y02042*
X03812Y0205*
X03814Y0206*
X03812Y02069*
X03807Y02077*
X03799Y02082*
X0379Y02084*
X0378Y02082*
X03772Y02077*
X03767Y02069*
X03765Y0206*
X03767Y0205*
X03772Y02042*
X03774Y02041*
Y01946*
X03678Y0185*
X03335*
X03329Y01849*
X03324Y01846*
X02816Y01337*
X02495*
X02494Y01341*
X02491Y01346*
X02486Y01349*
X02481Y0135*
X02454*
X02449Y01349*
X02444Y01346*
X02441Y01341*
X02441Y0134*
X02434*
X02434Y01341*
X02431Y01346*
X02426Y01349*
X02421Y0135*
X02401*
X0239Y01362*
Y01407*
X02394Y01411*
X02398*
Y01439*
X02418*
Y01411*
X02421*
X02426Y01412*
X02431Y01415*
X02434Y0142*
X02434Y01421*
X02441*
X02441Y0142*
X02444Y01415*
X02449Y01412*
X02454Y01411*
X02481*
X02486Y01412*
X0249Y01415*
X02493Y01414*
X02497Y01413*
X02497Y01413*
X02499Y01411*
X02517Y01392*
X02521Y0139*
X02525Y01389*
X02532*
X02535Y01385*
X02535Y01383*
X02537Y01374*
X02542Y01366*
X0255Y0136*
X0256Y01359*
X02569Y0136*
X02577Y01366*
X02578Y01368*
X02779*
X02785Y01369*
X0279Y01372*
X0283Y01413*
X02834Y01418*
X02835Y01423*
Y0194*
X02834Y01945*
X0283Y0195*
X02762Y02019*
X02762Y02022*
X0276Y02031*
X02757Y02036*
X0276Y02042*
X0279*
X02896Y01936*
X02901Y01933*
X02906Y01932*
X03695*
X03701Y01933*
X03706Y01936*
X03735Y01965*
X03737Y01965*
X03747Y01967*
X03754Y01972*
X0376Y0198*
X03762Y01989*
X0376Y01999*
X03754Y02007*
X03747Y02012*
X03744Y02018*
X03744Y02019*
X03745Y02024*
Y02041*
X03747Y02042*
X03752Y0205*
X03754Y0206*
X03752Y02069*
X03747Y02077*
X03739Y02082*
X0373Y02084*
X0372Y02082*
X03712Y02077*
X03707Y02069*
X03705Y0206*
X03707Y0205*
X03712Y02042*
X03714Y02041*
Y02031*
X03666Y01982*
X036*
X03597Y01988*
X03644Y02034*
X03646Y02033*
X03658Y02032*
X03669Y02033*
X03679Y02037*
X03688Y02044*
X03695Y02053*
X03699Y02063*
X037Y02075*
X03699Y02086*
X03695Y02096*
X03688Y02105*
X03679Y02112*
X03669Y02116*
X03658Y02117*
X03646Y02116*
X03636Y02112*
X03627Y02105*
X0362Y02096*
X03616Y02086*
X03615Y02075*
X03616Y02063*
X0362Y02054*
X03569Y02002*
X0356*
X03557Y02008*
X03568Y02019*
X03572Y02024*
X03573Y0203*
Y02035*
X03579Y02037*
X03588Y02044*
X03595Y02053*
X03599Y02063*
X036Y02075*
X03599Y02086*
X03595Y02096*
X03588Y02105*
X03579Y02112*
X03569Y02116*
X03558Y02117*
X03546Y02116*
X03536Y02112*
X03531Y02108*
X03525Y02111*
Y0212*
X0354Y02136*
X03546Y02133*
X03558Y02132*
X03569Y02133*
X03579Y02137*
X03588Y02144*
X03595Y02153*
X03599Y02163*
X036Y02175*
X03599Y02186*
X03595Y02196*
X03588Y02205*
X03579Y02212*
X03569Y02216*
X03558Y02217*
X03546Y02216*
X03536Y02212*
X03527Y02205*
X0352Y02196*
X03516Y02186*
X03515Y02175*
X03516Y02163*
X03519Y02157*
X03499Y02137*
X03495Y02132*
X03494Y02127*
Y02106*
X03489Y02104*
X03488Y02105*
X03479Y02112*
X03469Y02116*
X03458Y02117*
X03446Y02116*
X03436Y02112*
X03427Y02105*
X0342Y02096*
X03416Y02086*
X03415Y02075*
X03416Y02063*
X0342Y02053*
X03424Y02048*
X03421Y02042*
X034*
Y02107*
X03405Y02112*
X0341*
X03416Y02113*
X03421Y02116*
X0344Y02136*
X03446Y02133*
X03458Y02132*
X03469Y02133*
X03479Y02137*
X03488Y02144*
X03495Y02153*
X03499Y02163*
X035Y02175*
X03499Y02186*
X03495Y02196*
X03488Y02205*
X03479Y02212*
X03469Y02216*
X03458Y02217*
X03446Y02216*
X03436Y02212*
X03427Y02205*
X0342Y02196*
X03416Y02186*
X03415Y02175*
X03416Y02163*
X03419Y02157*
X03404Y02142*
X03394*
X03391Y02148*
X03395Y02153*
X03397Y0216*
X03358*
X03318*
X0332Y02153*
X03324Y02148*
X03321Y02142*
X0327*
X03267Y02148*
X03268Y02149*
X0327Y02159*
X03268Y02168*
X03263Y02176*
X03255Y02181*
X03246Y02183*
X03236Y02181*
X03228Y02176*
X03227Y02174*
X02989*
X02889Y02274*
Y02332*
X02891Y02333*
X02896Y02341*
X02898Y02351*
X02896Y0236*
X02891Y02368*
X02883Y02373*
X02874Y02375*
X02864Y02373*
X02863Y02372*
X02856Y02375*
X02855Y02379*
X0285Y02387*
X02842Y02392*
X02833Y02394*
G37*
G36*
X02022Y0195D02*
X02005D01*
Y01932*
X02008*
X02013Y01933*
X02018Y01936*
X02021Y01941*
X02022Y01946*
Y0195*
G37*
G36*
X03177Y02203D02*
X0316D01*
Y02185*
X03163*
X03168Y02186*
X03173Y02189*
X03176Y02194*
X03177Y02199*
Y02203*
G37*
G36*
X03658Y02217D02*
X03646Y02216D01*
X03636Y02212*
X03627Y02205*
X0362Y02196*
X03616Y02186*
X03615Y02175*
X03616Y02163*
X0362Y02153*
X03627Y02144*
X03636Y02137*
X03646Y02133*
X03658Y02132*
X03669Y02133*
X03679Y02137*
X03688Y02144*
X03695Y02153*
X03699Y02163*
X037Y02175*
X03699Y02186*
X03695Y02196*
X03688Y02205*
X03679Y02212*
X03669Y02216*
X03658Y02217*
G37*
G36*
X01689Y02684D02*
X01657D01*
Y02623*
X01679*
X01683Y02624*
X01686Y02626*
X01688Y0263*
X01689Y02634*
Y02684*
G37*
G36*
X01637D02*
X01604D01*
Y02634*
X01605Y0263*
X01607Y02626*
X0161Y02624*
X01614Y02623*
X01637*
Y02684*
G37*
G36*
X0141Y0251D02*
X01392D01*
Y02507*
X01393Y02501*
X01396Y02496*
X01401Y02493*
X01406Y02492*
X0141*
Y0251*
G37*
G36*
X01679Y02764D02*
X01657D01*
Y02704*
X01689*
Y02754*
X01688Y02757*
X01686Y02761*
X01683Y02763*
X01679Y02764*
G37*
%LNcontrolboard-3*%
%LPD*%
G36*
X028Y019D02*
Y01425D01*
X02774Y014*
X02577*
X02577Y014*
X02569Y01406*
X0256Y01407*
X0255Y01406*
X02542Y014*
X02542Y014*
X02525*
X02506Y01418*
X02508Y01423*
X02513*
X02518Y01424*
X02523Y01428*
X02527Y01433*
X02528Y01439*
X02527Y01444*
X02523Y01449*
X02518Y01453*
X02513Y01454*
X02505*
X02504Y01461*
X025Y01466*
X02504Y01471*
X02505Y01478*
X02513*
X02518Y01479*
X02523Y01483*
X02527Y01488*
X02528Y01494*
X02527Y01499*
X02523Y01504*
X02518Y01508*
X02513Y01509*
X02505*
X02504Y01516*
X02498Y01524*
X02494Y01527*
X02493Y01533*
X02494Y01534*
X0255*
X02553Y01535*
X02557Y01537*
X02559Y01541*
X0256Y01545*
Y01577*
X02642*
X02646Y01573*
X02645Y0157*
X02646Y01561*
X0265Y01552*
X02655Y01545*
X02662Y0154*
X02671Y01536*
X0268Y01535*
X02688Y01536*
X02697Y0154*
X02704Y01545*
X02709Y01552*
X02713Y01561*
X02714Y0157*
X02713Y01578*
X02709Y01587*
X02704Y01594*
X02697Y01599*
X02688Y01603*
X0268Y01604*
X02671Y01603*
X02669Y01602*
X02668Y01603*
X02663Y01606*
X02657Y01607*
X0256*
Y01615*
X02559Y01618*
X02557Y01622*
X02553Y01624*
X0255Y01625*
X02498*
X0246Y01663*
X02457Y01665*
X02457Y01666*
Y01671*
X02457Y01671*
X0246Y01673*
X02491Y01704*
X0255*
X02553Y01705*
X02557Y01707*
X02559Y01711*
X0256Y01715*
Y01729*
X02655*
X0266Y0173*
X02661Y01731*
X02662Y0173*
X02671Y01726*
X0268Y01725*
X02688Y01726*
X02697Y0173*
X02704Y01735*
X02709Y01742*
X02713Y01751*
X02714Y0176*
X02713Y01768*
X02709Y01777*
X02704Y01784*
X02697Y01789*
X02688Y01793*
X0268Y01794*
X02671Y01793*
X02662Y01789*
X02655Y01784*
X0265Y01777*
X02646Y01768*
X02645Y0176*
X0256*
Y01785*
X02559Y01788*
X02557Y01792*
X02553Y01794*
X0255Y01795*
X0247*
X02466Y01794*
X02462Y01792*
X0246Y01788*
X02459Y01785*
Y01716*
X02443Y01699*
X02435*
Y01708*
X02434Y01713*
X02431Y01718*
Y01719*
X02438Y01724*
X02444Y01732*
X02445Y01741*
Y0175*
X02408*
X0237*
Y01741*
X02371Y01732*
X02377Y01724*
X02384Y01719*
Y01718*
X02381Y01713*
X0238Y01708*
Y01699*
X02302*
X02301Y01704*
X02301Y01705*
X02322Y01726*
X02326Y01731*
X02327Y01737*
Y01737*
X02366Y01776*
X02371Y01774*
X0237Y01768*
Y0176*
X02403*
Y01792*
X02394*
X02388Y01791*
X02386Y01796*
X02437Y01847*
X02438*
X02443Y01848*
X02448Y01851*
X02451Y01856*
X02452Y0186*
X02457*
X02458Y01856*
X02461Y01851*
X02466Y01848*
X02471Y01847*
X02498*
X02503Y01848*
X02508Y01851*
X02509Y01853*
X02515Y01855*
X02516Y01855*
X0252Y01852*
X0253Y0185*
X02539Y01852*
X02547Y01857*
X02552Y01865*
X02554Y01875*
X02554Y01877*
X02576Y019*
X028*
G37*
G36*
X02206Y017D02*
X0221Y01695D01*
Y01673*
X02211Y01669*
X02212Y01668*
X02211Y01667*
X0221Y01664*
Y01649*
X02206Y01646*
X02202Y0164*
X022Y01632*
Y01626*
X02251*
X02301*
Y01632*
X02301Y01633*
X02304Y01637*
X0238*
Y01631*
X02381Y01626*
X02384Y01621*
Y0162*
X02377Y01615*
X02371Y01607*
X0237Y01598*
Y0159*
X02408*
X02445*
Y01598*
X02444Y01607*
X02438Y01615*
X02431Y0162*
Y01621*
X02434Y01626*
X02435Y01631*
Y01637*
X02443*
X02461Y01619*
X0246Y01618*
X02459Y01615*
Y01545*
X0246Y01541*
X02462Y01537*
X02464Y01536*
X02462Y01531*
X02454*
X02445Y0153*
X02437Y01524*
X02432Y01517*
X02431*
X02426Y0152*
X02421Y01521*
X02403*
X02375Y01549*
X02378Y01553*
X02385Y01548*
X02394Y01547*
X02403*
Y0158*
X0237*
Y01571*
X02371Y01562*
X02376Y01555*
X02372Y01552*
X02315Y0161*
X02306*
X02301Y0161*
Y01616*
X02251*
X022*
Y0161*
X022Y0161*
X02175*
Y017*
X02206*
G37*
%LNcontrolboard-4*%
%LPC*%
G36*
X02421Y01792D02*
X02413D01*
Y0176*
X02445*
Y01768*
X02444Y01777*
X02438Y01785*
X0243Y01791*
X02421Y01792*
G37*
G36*
X02445Y0158D02*
X02413D01*
Y01547*
X02421*
X0243Y01548*
X02438Y01554*
X02444Y01562*
X02445Y01571*
Y0158*
G37*
%LNcontrolboard-5*%
%LPD*%
G54D10*
X00512Y01175D03*
X00442D03*
G54D11*
X02325Y0196D03*
X02215D03*
X0216D03*
X02105D03*
X0172D03*
X01775D03*
X0183D03*
X01885D03*
X0194D03*
X01995D03*
X0227D03*
X0214Y0039D03*
Y0045D03*
X03226Y00925D03*
Y00865D03*
X01245Y00685D03*
Y00625D03*
X01647Y00685D03*
Y00625D03*
X0158Y00685D03*
Y00625D03*
X01379Y00685D03*
Y00625D03*
X01446Y00685D03*
Y00625D03*
X02712Y03684D03*
Y03744D03*
X01991Y03684D03*
Y03744D03*
X02767Y03684D03*
Y03744D03*
X02604Y03684D03*
Y03744D03*
X02046Y03684D03*
Y03744D03*
X02658Y03684D03*
Y03744D03*
X0255D03*
Y03684D03*
X01882D03*
Y03744D03*
X01937Y03684D03*
Y03744D03*
X01828D03*
Y03684D03*
X0127D03*
Y03744D03*
X01324Y03684D03*
Y03744D03*
X01163Y03684D03*
Y03744D03*
X01216Y03684D03*
Y03744D03*
X01109D03*
Y03684D03*
X01167Y01023D03*
Y00963D03*
X01222Y01023D03*
Y00963D03*
X01277Y01023D03*
Y00963D03*
X0025Y02229D03*
Y02289D03*
X00305Y02229D03*
Y02289D03*
X0036Y02229D03*
Y02289D03*
X00048Y01926D03*
Y01866D03*
X00112Y0202D03*
Y0208D03*
X00048Y01811D03*
Y01751D03*
X002Y0208D03*
Y0202D03*
X0025D03*
Y0208D03*
X00305Y0202D03*
Y0208D03*
X0036Y0202D03*
Y0208D03*
X00969Y02137D03*
Y02077D03*
X00914D03*
Y02137D03*
X0213Y0094D03*
Y01D03*
X01995Y0202D03*
X0187Y01221D03*
Y01161D03*
X0194Y0202D03*
X01925Y01221D03*
Y01161D03*
X02408Y01695D03*
Y01755D03*
X0202Y01D03*
Y0094D03*
X02075D03*
Y01D03*
X02408Y01645D03*
Y01585D03*
X01815Y01221D03*
Y01161D03*
X01759Y01221D03*
Y01161D03*
X02105Y0202D03*
X0216D03*
X02215D03*
X0172D03*
X01775D03*
X0183D03*
X01885D03*
X02292Y01221D03*
Y01161D03*
X02237Y01221D03*
Y01161D03*
X01649Y01221D03*
Y01161D03*
X0227Y0202D03*
X01704Y01221D03*
Y01161D03*
X02325Y0202D03*
X02181Y01221D03*
Y01161D03*
X02126Y01221D03*
Y01161D03*
X01226Y00433D03*
Y00373D03*
X0128Y00433D03*
Y00373D03*
X01715Y00625D03*
Y00685D03*
X01312Y00625D03*
Y00685D03*
X01513D03*
Y00625D03*
X0035Y03744D03*
Y03684D03*
X00405D03*
Y03744D03*
X00459Y03684D03*
Y03744D03*
X00514Y03684D03*
Y03744D03*
X00569Y03684D03*
Y03744D03*
G54D12*
X0315Y02213D03*
X0309D03*
X02966Y02684D03*
X02906D03*
Y02629D03*
X02966D03*
X02123Y0252D03*
X02183D03*
Y02574D03*
X02123D03*
X0148Y02684D03*
X0142D03*
Y02629D03*
X0148D03*
X00603Y0252D03*
X00663D03*
Y02574D03*
X00603D03*
X02906Y02992D03*
X02966D03*
X02906Y02937D03*
X02966D03*
X02906Y02882D03*
X02966D03*
X02183D03*
X02123D03*
X02183Y02937D03*
X02123D03*
X02183Y02992D03*
X02123D03*
X0142D03*
X0148D03*
X0142Y02937D03*
X0148D03*
X0142Y02882D03*
X0148D03*
X00663D03*
X00603D03*
X00663Y02937D03*
X00603D03*
X00663Y02992D03*
X00603D03*
X02906Y02574D03*
X02966D03*
X02906Y0252D03*
X02966D03*
X02183Y02629D03*
X02123D03*
X02183Y02684D03*
X02123D03*
X0142Y02574D03*
X0148D03*
X0142Y0252D03*
X0148D03*
X00663Y02629D03*
X00603D03*
X00663Y02684D03*
X00603D03*
X0077Y01651D03*
X0071D03*
X0077Y01598D03*
X0071D03*
X0077Y01544D03*
X0071D03*
Y01452D03*
X0077D03*
X0071Y01399D03*
X0077D03*
X0071Y01345D03*
X0077D03*
X012Y02136D03*
X0114D03*
X012Y02081D03*
X0114D03*
Y02026D03*
X012D03*
Y01951D03*
X0114D03*
Y01841D03*
X012D03*
X0114Y01896D03*
X012D03*
X0114Y01786D03*
X012D03*
X02408Y01439D03*
X02468D03*
X02408Y01494D03*
X02468D03*
X01594Y01612D03*
X01654D03*
X01594Y01667D03*
X01654D03*
X01594Y01721D03*
X01654D03*
Y01321D03*
X01594D03*
Y01776D03*
X01654D03*
Y01376D03*
X01594D03*
X01654Y01431D03*
X01594D03*
X01654Y01486D03*
X01594D03*
X01654Y0183D03*
X01594D03*
X02468Y01322D03*
X02408D03*
X02468Y01267D03*
X02408D03*
X02468Y01212D03*
X02408D03*
X02425Y0193D03*
X02485D03*
X02408Y01157D03*
X02468D03*
X02408Y01102D03*
X02468D03*
X02425Y01875D03*
X02485D03*
X00688Y0049D03*
X00628D03*
X00687Y00435D03*
X00627D03*
X00687Y00599D03*
X00627D03*
X0042Y00359D03*
X0036D03*
X00689Y00545D03*
X00629D03*
G54D13*
X00924Y00775D03*
X01813Y02871D03*
X01605Y01957D03*
G54D14*
X03197Y03193D03*
X03022D03*
X02665D03*
X02839D03*
X01951D03*
X02125D03*
X02482D03*
X02308D03*
X02125Y03387D03*
X01951D03*
X02308D03*
X02482D03*
X03022D03*
X03197D03*
X02839D03*
X02665D03*
X01054Y03193D03*
X0088D03*
X00522D03*
X00697D03*
X01768D03*
X01594D03*
X01237D03*
X01411D03*
X0088Y03387D03*
X01054D03*
X00697D03*
X00522D03*
X01594D03*
X01768D03*
X01411D03*
X01237D03*
X01098Y01348D03*
X00923D03*
G54D15*
X02555Y02762D03*
X01048D03*
G54D16*
X0282Y02987D03*
Y02937D03*
Y02887D03*
Y02837D03*
Y02787D03*
Y02737D03*
Y02687D03*
Y02637D03*
Y02587D03*
Y02537D03*
X0229D03*
Y02587D03*
Y02637D03*
Y02687D03*
Y02737D03*
Y02787D03*
Y02837D03*
Y02887D03*
Y02937D03*
Y02987D03*
X01313D03*
Y02937D03*
Y02887D03*
Y02837D03*
Y02787D03*
Y02737D03*
Y02687D03*
Y02637D03*
Y02587D03*
Y02537D03*
X00783D03*
Y02587D03*
Y02637D03*
Y02687D03*
Y02737D03*
Y02787D03*
Y02837D03*
Y02887D03*
Y02937D03*
Y02987D03*
G54D17*
X03145Y02655D03*
Y02445D03*
X01946Y02695D03*
Y02485D03*
X01647Y02694D03*
Y02484D03*
X00737Y01176D03*
Y00966D03*
X01002Y01173D03*
Y00963D03*
G54D18*
X00385Y02584D03*
X00175D03*
X00504Y02241D03*
X00714D03*
G54D19*
X0078Y02007D03*
Y01832D03*
G54D20*
X00148Y0191D03*
Y0186D03*
Y0181D03*
Y0176D03*
X00361Y0191D03*
Y0186D03*
Y0181D03*
Y0176D03*
G54D21*
X01065Y01998D03*
X01015D03*
X00965D03*
X00915D03*
X01065Y01785D03*
X01015D03*
X00965D03*
X00915D03*
G54D22*
X00857Y0155D03*
X01082D03*
G54D23*
X0206Y01212D03*
Y01092D03*
G54D24*
X0251Y0158D03*
Y0175D03*
G54D25*
X02052Y00708D03*
Y00471D03*
X01907Y00708D03*
Y00471D03*
G54D26*
X02375Y02214D03*
X02495D03*
G54D27*
X01546Y01549D03*
X01646D03*
G54D28*
X0182Y01747D03*
Y01715D03*
Y01684D03*
Y01652D03*
Y01621D03*
Y01589D03*
Y01558D03*
Y01527D03*
Y01495D03*
Y01464D03*
Y01432D03*
X02251D03*
Y01464D03*
Y01495D03*
Y01527D03*
Y01558D03*
Y01589D03*
Y01621D03*
Y01652D03*
Y01684D03*
Y01715D03*
Y01747D03*
G54D29*
X01878Y01374D03*
X01909D03*
X01941D03*
X01972D03*
X02004D03*
X02035D03*
X02067D03*
X02098D03*
X0213D03*
X02161D03*
X02193D03*
Y01805D03*
X02161D03*
X0213D03*
X02098D03*
X02067D03*
X02035D03*
X02004D03*
X01972D03*
X01941D03*
X01909D03*
X01878D03*
G54D30*
X0056Y01787D03*
Y02012D03*
G54D31*
X01082Y00317D03*
Y00343D03*
Y00368D03*
Y00394D03*
Y0042D03*
Y00445D03*
Y00471D03*
Y00496D03*
Y00522D03*
Y00547D03*
Y00573D03*
Y00599D03*
Y00624D03*
Y0065D03*
X00797D03*
Y00624D03*
Y00599D03*
Y00573D03*
Y00547D03*
Y00522D03*
Y00496D03*
Y00471D03*
Y00445D03*
Y0042D03*
Y00394D03*
Y00368D03*
Y00343D03*
Y00317D03*
G54D32*
X02821Y02987D02*
Y03043D01*
X02234Y02988D02*
X0229D01*
X00601Y02683D02*
X00603Y02681D01*
X0071Y01598D02*
Y01651D01*
X00584Y00599D02*
X00629D01*
X00584Y0049D02*
X00629D01*
X00583Y00435D02*
X00628D01*
X00463Y00911D02*
X00512Y0096D01*
Y01175*
X00549Y00545D02*
X00629D01*
X01185Y0174D02*
Y01771D01*
X012Y01786*
X01582Y02629D02*
X01647Y02694D01*
X0148Y02629D02*
X01582D01*
X03022D02*
X03047Y02655D01*
X02966Y02629D02*
X03022D01*
X01339Y02986D02*
X01369D01*
X01446Y00583D02*
Y00625D01*
X01379D02*
X01446D01*
X0158D02*
X01647D01*
X01246Y00686D02*
Y00762D01*
X0123Y00778D02*
X01246Y00762D01*
X0123Y00778D02*
Y00865D01*
X0214Y0045D02*
Y00496D01*
X03034Y02213D02*
X0309D01*
X03032D02*
X03034D01*
X01086Y02136D02*
X0114D01*
X012Y01841D02*
Y01896D01*
Y01786D02*
Y01841D01*
X0114Y01786D02*
Y01841D01*
Y01735D02*
Y01786D01*
X01936Y01221D02*
X02035Y0132D01*
Y01374*
X0194Y0193D02*
Y0196D01*
X02004Y01865D02*
Y0188D01*
X01995Y0189D02*
X02004Y0188D01*
X01995Y0189D02*
Y0196D01*
X02004Y01805D02*
Y01865D01*
X02251Y01589D02*
X02302D01*
X02398Y01494*
X02408*
Y01439D02*
Y01494D01*
X00727Y02988D02*
X00758D01*
X03348Y02165D02*
X03358Y02175D01*
X03226Y00865D02*
X0332D01*
X03348Y00993D02*
X03358Y01003D01*
X03226Y00925D02*
X03294Y00993D01*
X0114Y01841D02*
Y01896D01*
Y01951*
X01065Y01998D02*
X01073Y0199D01*
X0114Y02026D02*
Y02081D01*
X012D02*
Y02136D01*
X0194Y0193D02*
X02004Y01865D01*
X0187Y01221D02*
X01925D01*
X01936*
X02966Y02882D02*
Y02937D01*
Y02992*
X0071Y01544D02*
Y01598D01*
X01065Y01989D02*
Y01998D01*
X012Y01951D02*
Y01989D01*
Y02026*
X01065Y01989D02*
X012D01*
X00148Y0191D02*
X00149Y01911D01*
Y02073*
X00156Y0208*
X00923Y02078D02*
X00965D01*
Y02078*
Y01998D02*
Y02078D01*
X0108Y01614D02*
Y01675D01*
X0114Y01735*
X03294Y00993D02*
X03348D01*
X0332Y00865D02*
X03358Y00903D01*
X00686Y00375D02*
Y00434D01*
X00688Y00436D02*
Y0049D01*
X00686Y00434D02*
X00687Y00435D01*
X00688Y00436*
X0019Y02289D02*
X0025D01*
X0025Y02289D02*
X00305D01*
X0036*
X00603Y02629D02*
Y02681D01*
X00557Y0273D02*
X00603Y02684D01*
X00475Y0273D02*
X00557D01*
G54D33*
X02605Y03622D02*
Y03684D01*
Y03622D02*
X02667Y03561D01*
X01883Y03622D02*
Y03684D01*
Y03622D02*
X01945Y03561D01*
X01995Y02018D02*
Y02063D01*
X0194Y02018D02*
Y02063D01*
X0187Y01116D02*
Y01161D01*
X01165Y03622D02*
X01227Y03561D01*
X01165Y03622D02*
Y03684D01*
X00514Y03637D02*
Y03682D01*
X01279Y00329D02*
Y00374D01*
X01225Y00329D02*
Y00374D01*
X00667Y01598D02*
X00712D01*
X00739Y00497D02*
X00798D01*
X02548Y03744D02*
Y03789D01*
X01827Y03744D02*
Y03789D01*
X01105Y03744D02*
Y03789D01*
X02236Y01116D02*
Y01161D01*
X03575Y01987D02*
X03663Y02075D01*
X01514Y01665D02*
X01595D01*
X01773Y02018D02*
Y02052D01*
X0155Y0132D02*
X01595D01*
X0155Y01375D02*
X01595D01*
X01815Y01116D02*
Y01161D01*
X0176Y01116D02*
Y01161D01*
X02468Y01322D02*
X02822D01*
X02468Y01102D02*
X02522D01*
X0269Y0127*
X01657Y03886D02*
X0169Y03853D01*
Y02857D02*
Y03853D01*
Y02857D02*
X01807Y0274D01*
X01649Y03866D02*
X0167Y03845D01*
Y02848D02*
Y03845D01*
Y02848D02*
X01787Y02731D01*
X00361Y0191D02*
X00406D01*
X00055Y01919D02*
X00089D01*
X00048Y01926D02*
X00055Y01919D01*
X00067Y0202D02*
X00112D01*
X01222Y00963D02*
X01277D01*
X01167D02*
X01222D01*
X01122D02*
X01167D01*
X00463Y00636D02*
Y00645D01*
X02181Y01116D02*
Y01161D01*
X01344Y00563D02*
X01364Y00544D01*
X01344Y00563D02*
Y00652D01*
X01312Y0058D02*
Y00625D01*
X01495Y0027D02*
X01807Y00582D01*
X02408Y0193D02*
X02425D01*
X02292Y01814D02*
X02408Y0193D01*
X02292Y01762D02*
Y01814D01*
X02277Y01747D02*
X02292Y01762D01*
X02251Y01747D02*
X02277D01*
X02312Y01802D02*
X02385Y01875D01*
X02312Y01737D02*
Y01802D01*
X0229Y01715D02*
X02312Y01737D01*
X02251Y01715D02*
X0229D01*
X01972Y01805D02*
Y01852D01*
X01885Y0194D02*
X01972Y01852D01*
X01885Y0194D02*
Y0196D01*
X01909Y01805D02*
Y01836D01*
X01845Y01901D02*
X01909Y01836D01*
X01834Y01901D02*
X01845D01*
X0171Y0195D02*
X01855Y01805D01*
X01878*
X01775Y0196D02*
X01834Y01901D01*
X01125Y02295D02*
X01261Y02159D01*
X00893Y02295D02*
X01125D01*
X00901Y02315D02*
X01133D01*
X0091Y02335D02*
X01142D01*
X01705Y01116D02*
Y01161D01*
X00918Y02355D02*
X0115D01*
X00458Y03744D02*
X00459Y03745D01*
X0117Y02363D02*
Y0244D01*
X01246Y02344D02*
Y02696D01*
X0155Y01775D02*
X01595D01*
X01521Y01803D02*
X0155Y01775D01*
X01521Y01803D02*
Y02178D01*
X01529Y0172D02*
X01595D01*
X01501Y01748D02*
X01529Y0172D01*
X01501Y01748D02*
Y02186D01*
X01481Y01698D02*
X01514Y01665D01*
X01461Y01643D02*
X01494Y0161D01*
X0143Y00865D02*
Y00936D01*
X01221Y01145D02*
X0143Y00936D01*
X01221Y01145D02*
Y01671D01*
X01241Y01154D02*
X0153Y00865D01*
X01241Y01154D02*
Y01695D01*
X01261Y01162D02*
X01416Y01007D01*
X01281Y0117D02*
Y01718D01*
Y0117D02*
X01424Y01027D01*
X01301Y01178D02*
Y01726D01*
Y01178D02*
X01432Y01047D01*
X01321Y01187D02*
X01441Y01067D01*
X01341Y01195D02*
Y01743D01*
Y01195D02*
X01441Y01095D01*
X01361Y01205D02*
X01426Y0114D01*
X01401Y01768D02*
Y02217D01*
X01381Y0176D02*
Y02208D01*
X01361Y01751D02*
Y022D01*
X01341Y01743D02*
Y02192D01*
X01321Y01735D02*
Y02183D01*
X01301Y01726D02*
Y02175D01*
X01281Y01718D02*
Y02167D01*
X01261Y0171D02*
Y02159D01*
X01133Y02315D02*
X01281Y02167D01*
X01142Y02335D02*
X01301Y02175D01*
X0115Y02355D02*
X01321Y02183D01*
X0117Y02363D02*
X01341Y02192D01*
X01246Y02344D02*
X01381Y02208D01*
X01266Y02352D02*
X01401Y02217D01*
X01266Y02352D02*
Y02626D01*
X01194Y02185D02*
Y02188D01*
X01198Y02192*
X01203Y01716D02*
X01232Y01745D01*
Y02158*
X01203Y01688D02*
X01221Y01671D01*
X01203Y01688D02*
Y01716D01*
X01232Y01703D02*
X01241Y01695D01*
X01468Y01487D02*
X01595D01*
X01454Y0143D02*
X01595D01*
X01441Y01784D02*
D01*
Y01575D02*
Y01784D01*
Y01575D02*
D01*
X01421Y01776D02*
D01*
Y01583D02*
Y01776D01*
Y01583D02*
Y01583D01*
X01401Y01768D02*
D01*
Y01592D02*
Y01768D01*
Y01592D02*
D01*
X01381Y0176D02*
D01*
Y016D02*
Y0176D01*
Y016D02*
D01*
X01361Y01751D02*
D01*
Y01205D02*
Y01751D01*
X01341Y01743D02*
D01*
X01321Y01735D02*
D01*
Y01187D02*
Y01735D01*
X01301Y01726D02*
D01*
X01281Y01718D02*
D01*
X01261Y0171D02*
D01*
Y01162D02*
Y0171D01*
X01421Y01776D02*
Y02219D01*
X01441Y01784D02*
Y02211D01*
X01461Y01643D02*
Y02203D01*
X01481Y01698D02*
Y02194D01*
X01441Y01514D02*
Y01575D01*
X01421Y01463D02*
Y01583D01*
X01401Y01408D02*
Y01592D01*
X01381Y01348D02*
Y016D01*
X02665Y02541D02*
Y02571D01*
X0259Y02541D02*
Y02571D01*
X02515Y02541D02*
Y02571D01*
X0244Y02541D02*
Y02571D01*
X00783Y02687D02*
X00813D01*
X00783Y02587D02*
X00813D01*
X0142Y02937D02*
Y02992D01*
X02677Y0295D02*
Y0298D01*
X02602Y0295D02*
Y0298D01*
X02527Y0295D02*
Y0298D01*
X02452Y0295D02*
Y0298D01*
X00813Y02687D02*
X00853Y02647D01*
X00833Y02383D02*
Y02567D01*
X01287Y02737D02*
X01313D01*
X00783Y02492D02*
Y02537D01*
X01315Y02505D02*
Y02535D01*
X01314Y02686D02*
X01382D01*
X01313Y02937D02*
X01375D01*
X01364Y00544D02*
X01493D01*
X01513Y00564D02*
Y00625D01*
X01493Y00544D02*
X01513Y00564D01*
X01312Y00685D02*
X01344Y00652D01*
X0173Y00846D02*
Y00858D01*
X01715Y00843D02*
X0173Y00858D01*
X0158Y00685D02*
X01647D01*
X01513D02*
X0158D01*
X01312Y00847D02*
X0133Y00865D01*
X01632Y02194D02*
X01773Y02052D01*
X01632Y02194D02*
Y02223D01*
X02874Y02268D02*
Y02351D01*
Y02268D02*
X02983Y02159D01*
X03246*
X02955Y02127D02*
X0341D01*
X02833Y0225D02*
X02955Y02127D01*
X01715Y0058D02*
Y00625D01*
X01246Y00578D02*
Y00623D01*
X00357Y00362D02*
X0036Y00359D01*
X0341Y02127D02*
X03458Y02175D01*
X02944Y02027D02*
X03492D01*
X0351Y02045*
X02796Y02058D02*
X02906Y01947D01*
X02804Y02078D02*
X02915Y01967D01*
X02813Y02098D02*
X02923Y01987D01*
X03535Y02007D02*
X03558Y0203D01*
X02825Y02118D02*
X02936Y02007D01*
X03535*
X02923Y01987D02*
X03575D01*
X0351Y02045D02*
Y02127D01*
X03558Y0203D02*
Y02075D01*
X02834Y02138D02*
X02944Y02027D01*
X02231Y02118D02*
X02825D01*
X03458Y02175D02*
Y02196D01*
X0351Y02127D02*
X03558Y02175D01*
X0186Y02383D02*
X02021D01*
X01807Y02436D02*
X0186Y02383D01*
X01807Y02436D02*
Y0274D01*
X02021Y02383D02*
X02125Y02487D01*
X0224*
X02243Y0249*
X01561Y0236D02*
X02027D01*
X0157Y0234D02*
X02035D01*
X01578Y0232D02*
X02043D01*
X01586Y023D02*
X02051D01*
X01595Y0228D02*
X0206D01*
X01603Y0226D02*
X02068D01*
X02027Y0236D02*
X02127Y0246D01*
X02035Y0234D02*
X02127Y02432D01*
X02043Y0232D02*
X02113Y0239D01*
X02051Y023D02*
X02102Y02351D01*
X0206Y0228D02*
X02095Y02315D01*
X02068Y0226D02*
X02098Y0229D01*
X02239Y02098D02*
X02813D01*
X02223Y02138D02*
X02834D01*
X02333Y0216D02*
X02553D01*
X0229Y02203D02*
X02333Y0216D01*
X02215Y02073D02*
X02239Y02098D01*
X0216Y02046D02*
X02231Y02118D01*
X02105Y0202D02*
X02223Y02138D01*
Y02203D02*
X0229D01*
X02325Y0202D02*
Y02061D01*
X0227Y0202D02*
Y02064D01*
X02215Y0202D02*
Y02073D01*
X0216Y0202D02*
Y02046D01*
X02553Y0216D02*
X02569Y02176D01*
X0274*
X02678Y02078D02*
X02804D01*
X0253Y01875D02*
X02713Y02058D01*
X02796*
X02113Y0239D02*
X02719D01*
X02102Y02351D02*
X02691D01*
X02752Y02359D02*
Y02697D01*
X02707Y02315D02*
X02752Y02359D01*
X02095Y02315D02*
X02707D01*
X02772Y02351D02*
Y02617D01*
X02711Y0229D02*
X02772Y02351D01*
X02098Y0229D02*
X02711D01*
X0253Y0193D02*
X02678Y02078D01*
X01494Y0161D02*
X0155D01*
X01409Y0132D02*
X0155D01*
X01381Y01348D02*
X01409Y0132D01*
X01421Y01463D02*
X01454Y0143D01*
X01521Y02178D02*
X01603Y0226D01*
X01501Y02186D02*
X01595Y0228D01*
X01481Y02194D02*
X01586Y023D01*
X01461Y02203D02*
X01578Y0232D01*
X01441Y02211D02*
X0157Y0234D01*
X01421Y02219D02*
X01561Y0236D01*
X01416Y01007D02*
X01787D01*
X01925Y01116D02*
Y01161D01*
X01226Y02496D02*
Y02704D01*
X0117Y0244D02*
X01226Y02496D01*
X01401Y01408D02*
X01434Y01375D01*
X01226Y02704D02*
X01245Y02723D01*
X00873Y024D02*
X00918Y02355D01*
X00853Y02392D02*
X0091Y02335D01*
X00833Y02383D02*
X00901Y02315D01*
X00725Y02463D02*
X00893Y02295D01*
X00873Y024D02*
Y0267D01*
X00853Y02392D02*
Y02647D01*
X00725Y02463D02*
Y025D01*
X03705Y01815D02*
X0385Y0196D01*
Y03D02*
Y03166D01*
X01434Y01375D02*
X0155D01*
X01787Y01007D02*
X0182Y0104D01*
X01629Y01095D02*
X01649Y01114D01*
X01441Y01514D02*
X01468Y01487D01*
X01432Y01047D02*
X01691D01*
X01424Y01027D02*
X01726D01*
X03108Y0388D02*
X0376Y03228D01*
X02816Y0388D02*
X03108D01*
X02727Y0379D02*
X02816Y0388D01*
X02657Y0379D02*
X02727D01*
X02838Y0386D02*
X031D01*
X02767Y03789D02*
X02838Y0386D01*
X03365Y01795D02*
X03713D01*
X01936Y0379D02*
X02048Y03902D01*
X03114*
X01936Y03745D02*
Y0379D01*
X01882Y03744D02*
X01935D01*
X01882D02*
X01882D01*
X03356Y01815D02*
X03705D01*
X00783Y02937D02*
X00783Y02937D01*
X0071Y02937D02*
X00783D01*
X00665D02*
X0071D01*
X00663Y02937D02*
Y02992D01*
Y02882D02*
Y02937D01*
X02468Y01212D02*
X02513D01*
X01375Y02937D02*
X0142D01*
X01313Y02937D02*
X01313Y02937D01*
X0142Y02882D02*
Y02937D01*
X02468Y01267D02*
X02513D01*
X02767Y03744D02*
Y03789D01*
X02712Y03744D02*
X02767D01*
X02712D02*
X02712D01*
X02485Y01875D02*
X0253D01*
X02657Y03745D02*
Y0379D01*
X02604Y03744D02*
X02656D01*
X02603D02*
X02604D01*
X02485Y0193D02*
X0253D01*
X0175Y024D02*
X01787Y02437D01*
X023Y02432D02*
X02365Y02497D01*
X02127Y02432D02*
X023D01*
X02299Y0246D02*
X02345Y02505D01*
X02127Y0246D02*
X02299D01*
X02184Y0225D02*
X02338D01*
X02123Y02189D02*
X02184Y0225D01*
X02365Y02497D02*
Y0265D01*
X02345Y02505D02*
Y0257D01*
X02551Y03577D02*
Y03684D01*
X01828Y03577D02*
Y03684D01*
X0111Y03577D02*
Y03684D01*
X02123Y02189D02*
Y02203D01*
X02338Y0225D02*
X02375Y02214D01*
X02067Y01805D02*
Y01922D01*
X02105Y0196*
X02098Y01805D02*
Y01898D01*
X0216Y0196*
X0213Y01805D02*
Y01875D01*
X02215Y0196*
X02161Y01805D02*
Y01851D01*
X0227Y0196*
X02193Y01805D02*
Y01828D01*
X02325Y0196*
X02295Y0129D02*
Y0142D01*
X02282Y01432D02*
X02295Y0142D01*
X02251Y01432D02*
X02282D01*
X02295Y0129D02*
X02335Y0125D01*
Y0117D02*
Y0125D01*
X02355Y01211D02*
Y01261D01*
Y01211D02*
X02408Y01158D01*
X02315Y01301D02*
X02355Y01261D01*
X02315Y01301D02*
Y01431D01*
X02335Y0131D02*
X02375Y0127D01*
Y01245D02*
Y0127D01*
Y01245D02*
X02408Y01212D01*
X02335Y0131D02*
Y01443D01*
Y0117D02*
X02402Y01102D01*
X00757Y02637D02*
X00783D01*
X00694Y02574D02*
X00757Y02637D01*
X00663Y02574D02*
X00694D01*
X00663Y0252D02*
Y02574D01*
X02046Y03744D02*
Y03789D01*
X01991Y03744D02*
X02046D01*
X01991D02*
X01991D01*
X01883Y02018D02*
Y02063D01*
Y02163*
X01923Y02203*
X01828Y02018D02*
Y02063D01*
X01823Y02203D02*
X01828Y02197D01*
Y02063D02*
Y02197D01*
X01774Y01369D02*
X01873D01*
X01878Y01374*
X01941Y0134D02*
Y01374D01*
X01909Y01337D02*
Y01374D01*
X02174Y01228D02*
Y0127D01*
X0213Y01314D02*
X02174Y0127D01*
X0213Y01314D02*
Y01374D01*
X02193Y01336D02*
X02292Y01237D01*
Y01221D02*
Y01237D01*
X02193Y01336D02*
Y01374D01*
X02237Y01221D02*
Y01257D01*
X02161Y01333D02*
X02237Y01257D01*
X02174Y01228D02*
X02181Y01221D01*
X02126D02*
Y01278D01*
X02098Y01306D02*
X02126Y01278D01*
X02098Y01306D02*
Y01374D01*
X02067Y01285D02*
Y01374D01*
Y01219D02*
Y01285D01*
X0206Y01212D02*
X02067Y01219D01*
X0255Y03684D02*
X02551D01*
X02769Y03659D02*
Y03684D01*
Y03659D02*
X02867Y03561D01*
X0266Y03635D02*
Y03684D01*
X02714Y03637D02*
Y03682D01*
X0266Y03635D02*
X02734Y03561D01*
X01937Y03635D02*
Y03684D01*
X01828D02*
X01828D01*
X02047Y03659D02*
Y03684D01*
Y03659D02*
X02145Y03561D01*
X01992Y03637D02*
Y03682D01*
X01937Y03635D02*
X02012Y03561D01*
X01329Y03659D02*
Y03684D01*
Y03659D02*
X01427Y03561D01*
X01219Y03635D02*
Y03684D01*
X01109D02*
X0111D01*
X01274Y03637D02*
Y03682D01*
X01219Y03635D02*
X01294Y03561D01*
X00569Y03659D02*
X00667Y03561D01*
X00569Y03659D02*
Y03684D01*
X00534Y03561D02*
X00567D01*
X00459Y03635D02*
X00534Y03561D01*
X00459Y03635D02*
Y03684D01*
X00405Y03622D02*
X00467Y03561D01*
X00405Y03622D02*
Y03684D01*
X0035Y03577D02*
X00367Y03561D01*
X0035Y03577D02*
Y03684D01*
Y03744D02*
Y03789D01*
X01313Y02687D02*
X01314Y02686D01*
X01383Y02687D02*
X01417D01*
X01382Y02686D02*
X01383Y02687D01*
X0148Y0252D02*
Y02574D01*
X0142Y02629D02*
Y02684D01*
X01417Y02687D02*
X0142Y02684D01*
X02078Y0252D02*
X02123D01*
X02078Y02574D02*
X02123D01*
X02078Y02684D02*
X02123D01*
X02076Y02628D02*
X02121D01*
X02076Y02881D02*
X02121D01*
X02076Y02937D02*
X02121D01*
X02078Y02992D02*
X02123D01*
X0148Y02882D02*
X01525D01*
X0148Y02937D02*
X01525D01*
X01481Y02992D02*
X01526D01*
X00557Y02937D02*
X00602D01*
X00557Y02992D02*
X00602D01*
X02193Y01805D02*
X02195D01*
X02161D02*
X02167Y0181D01*
X02193Y01374D02*
X02198Y01369D01*
X02161Y01333D02*
Y01374D01*
X02198Y01359D02*
Y01369D01*
X01691Y01321D02*
X01802Y01432D01*
X01654Y01321D02*
X01691D01*
X01654Y01376D02*
X01696D01*
X01784Y01464*
X01701Y01431D02*
X01765Y01495D01*
X01654Y01431D02*
X01701D01*
X01654Y01486D02*
X01711D01*
X01752Y01527*
X01719Y01549D02*
X01728Y01558D01*
X01646Y01549D02*
X01719D01*
X01712Y01612D02*
X01721Y01621D01*
X01654Y01612D02*
X01712D01*
X01708Y01667D02*
X01722Y01652D01*
X01654Y01667D02*
X01708D01*
X01714Y01721D02*
X0175Y01684D01*
X01654Y01721D02*
X01714D01*
X01704Y01776D02*
X01764Y01715D01*
X01654Y01776D02*
X01704D01*
X0183Y01955D02*
X01941Y01843D01*
X02412Y01875D02*
X02425D01*
X02449Y01684D02*
X0251Y01745D01*
X02449Y01652D02*
X0251Y01592D01*
X02657D02*
X0268Y0157D01*
X02655Y01745D02*
X0266Y0175D01*
X01765Y01495D02*
X0182D01*
X01728Y01558D02*
X0182D01*
X01722Y01652D02*
X0182D01*
X01802Y01432D02*
X0182D01*
X0175Y01684D02*
X0182D01*
X01784Y01464D02*
X0182D01*
X01752Y01527D02*
X0182D01*
X01764Y01715D02*
X0182D01*
X01721Y01621D02*
X0182D01*
X01941Y01805D02*
Y01843D01*
X02251Y01464D02*
X02281D01*
X02251Y01495D02*
X02282D01*
X02251Y01527D02*
X02283D01*
X02251Y01558D02*
X02283D01*
X02375Y01467*
X02468Y01439D02*
X02513D01*
X02468Y01494D02*
X02513D01*
X0172Y0202D02*
Y02065D01*
X0149Y0155D02*
X01535D01*
X02385Y01875D02*
X02423D01*
X01678Y0183D02*
X0176Y01747D01*
X0182*
X0171Y0195D02*
X0172Y0196D01*
X0183Y01955D02*
Y0196D01*
X02251Y01652D02*
X02449D01*
X0251Y01592D02*
X02657D01*
X02251Y01684D02*
X02449D01*
X0251Y01745D02*
X02655D01*
X0266Y0175D02*
X0268D01*
X01654Y0183D02*
X01678D01*
X01277Y02637D02*
X01313D01*
X0229Y02587D02*
X02328D01*
X02345Y0257*
X0229Y02687D02*
X02328D01*
X02365Y0265*
X02792Y02637D02*
X0282D01*
X02792Y02737D02*
X0282D01*
X00514Y03744D02*
X00569D01*
Y03789*
X00405Y03744D02*
X00458D01*
X00459Y03745D02*
Y0379D01*
X01481Y02575D02*
X01526D01*
X0148Y0252D02*
X01525D01*
X01481Y02684D02*
X01526D01*
X02262Y02637D02*
X0229D01*
X02199Y02574D02*
X02262Y02637D01*
X02183Y02574D02*
X02199D01*
X02183Y0252D02*
Y02574D01*
X01985Y0094D02*
X0202D01*
X02075*
X0213*
X0202Y01D02*
Y01052D01*
X0206Y01092*
X02075Y01D02*
D01*
Y01035D01*
X0213Y01D02*
D01*
Y01035D01*
X0206Y00735D02*
Y0077D01*
X0205Y005D02*
Y00535D01*
X0229Y02492D02*
Y02537D01*
X0282Y02492D02*
Y02537D01*
X02966Y0252D02*
X03011D01*
X02966Y02574D02*
X03011D01*
X02966Y02684D02*
X02989D01*
X03005Y027*
X0282Y02687D02*
X02903D01*
X02906Y02684*
Y02629D02*
Y02684D01*
X01313Y02537D02*
X01315Y02535D01*
X0089Y0385D02*
X00965Y03775D01*
X0063Y0385D02*
X0089D01*
X00898Y0387D02*
X00985Y03783D01*
X00845Y02698D02*
Y0299D01*
X00965Y0311*
Y03775*
X00985Y03105D02*
Y03783D01*
Y03105D02*
X01025Y03065D01*
X0118*
X01245Y02723D02*
Y03D01*
X0118Y03065D02*
X01245Y03D01*
X00569Y03789D02*
X0063Y0385D01*
X00459Y0379D02*
X00539Y0387D01*
X00898*
X00935Y02539D02*
Y0257D01*
X0101Y02539D02*
Y0257D01*
X01085Y02539D02*
Y0257D01*
X0116Y02539D02*
Y0257D01*
X00945Y0295D02*
Y0298D01*
X0102Y0295D02*
Y0298D01*
X01095Y0295D02*
Y0298D01*
X0117Y0295D02*
Y0298D01*
X00813Y02587D02*
X00833Y02567D01*
X00845Y02698D02*
X00873Y0267D01*
X01266Y02626D02*
X01277Y02637D01*
X01246Y02696D02*
X01287Y02737D01*
X00969Y02137D02*
Y02182D01*
X01065Y0174D02*
Y01785D01*
X01787Y02437D02*
Y02731D01*
X01269Y03744D02*
X0127D01*
X01324*
Y03789*
X01401Y03866D02*
X01649D01*
X01324Y03789D02*
X01401Y03866D01*
X0116Y03744D02*
X01163D01*
X01213*
X01214Y03745D02*
Y0379D01*
X0131Y03886D02*
X01657D01*
X02046Y03789D02*
Y03795D01*
X02118Y03867*
X0235*
X01214Y0379D02*
X0131Y03886D01*
X0235Y03867D02*
X02386Y03831D01*
Y02442D02*
Y03831D01*
X02366Y02422D02*
X02386Y02442D01*
X02772Y02617D02*
X02792Y02637D01*
X02752Y02697D02*
X02792Y02737D01*
X01649Y01114D02*
Y01159D01*
X01656Y01067D02*
X01705Y01116D01*
X01691Y01047D02*
X0176Y01116D01*
X01726Y01027D02*
X01815Y01116D01*
X01972Y01337D02*
Y01374D01*
X019Y01265D02*
X01972Y01337D01*
X01835Y01265D02*
X019D01*
X01815Y01245D02*
X01835Y01265D01*
X01815Y01221D02*
Y01245D01*
X01886Y01285D02*
X01941Y0134D01*
X0177Y01315D02*
X01887D01*
X01909Y01337*
X018Y01285D02*
X01886D01*
X01759Y01244D02*
X018Y01285D01*
X01759Y01221D02*
Y01244D01*
X01704Y01249D02*
X0177Y01315D01*
X01704Y01221D02*
Y01249D01*
X01649Y01244D02*
X01774Y01369D01*
X01649Y01221D02*
Y01244D01*
X02375Y01355D02*
Y01467D01*
Y01355D02*
X02408Y01322D01*
Y01157D02*
Y01158D01*
X02283Y01527D02*
X02355Y01455D01*
Y0132D02*
X02408Y01267D01*
X02355Y0132D02*
Y01455D01*
X02282Y01495D02*
X02335Y01443D01*
X02281Y01464D02*
X02315Y01431D01*
X02402Y01102D02*
X02408D01*
X01426Y0114D02*
X0156D01*
X01441Y01067D02*
X01656D01*
X01441Y01095D02*
X01629D01*
X02183Y02882D02*
Y02937D01*
Y02992*
X02184Y02937D02*
X02229D01*
X02289*
X0229Y02937*
X02906D02*
X02906Y02937D01*
Y02882D02*
Y02937D01*
Y02992*
X0282Y02937D02*
X0287D01*
X02906*
X02966Y02992D02*
X03011D01*
X02968Y02937D02*
X03013D01*
X02968Y02881D02*
X03013D01*
X00665Y0165D02*
X0071D01*
X01194Y0027D02*
X01495D01*
X01146Y00317D02*
X01194Y0027D01*
X00691Y00599D02*
X00796D01*
X00797Y00599*
X00689Y00545D02*
Y00547D01*
X00693D02*
X00797D01*
X00798Y00497D02*
X00798Y00496D01*
X00463Y00734D02*
X00479Y0075D01*
X00463Y00813D02*
X00604D01*
X00767Y0065*
X00797*
X00665Y00688D02*
X00728Y00624D01*
X00797*
X00665Y00688D02*
Y00715D01*
X01513Y00686D02*
Y00731D01*
X01379Y00685D02*
X0138D01*
X01446*
X01198Y02192D02*
X01232Y02158D01*
X0138Y00685D02*
Y0073D01*
X01312Y00685D02*
Y0073D01*
X0155Y0183D02*
X01595D01*
X01807Y00582D02*
Y007D01*
X01914Y00735D02*
Y0077D01*
X01982Y00937D02*
X01985Y0094D01*
X01978Y00937D02*
X01982D01*
X02013*
X01907Y00471D02*
Y00708D01*
X02292Y01114D02*
Y01159D01*
X03114Y03902D02*
X0385Y03166D01*
X0376Y0306D02*
Y03228D01*
X02915Y01967D02*
X03672D01*
X0373Y02024D02*
Y0206D01*
X03672Y01967D02*
X0373Y02024D01*
X03713Y01795D02*
X0388Y01961D01*
Y01999*
X0373Y0301D02*
Y0323D01*
X031Y0386D02*
X0373Y0323D01*
X0385Y0196D02*
Y0206D01*
D01*
X0256Y01383D02*
X02779D01*
X0379Y0194D02*
Y0206D01*
X02779Y01383D02*
X0282Y01423D01*
X02738Y02022D02*
X0282Y0194D01*
Y01423D02*
Y0194D01*
X02833Y0225D02*
Y0237D01*
X0155Y0161D02*
X01595D01*
X01715Y00685D02*
Y0073D01*
X02906Y01947D02*
X03695D01*
X03737Y01989*
X02468Y01157D02*
X02537D01*
X02678Y01298*
X0284*
X03356Y01815*
X0269Y0127D02*
X0284D01*
X03365Y01795*
X03685Y01835D02*
X0379Y0194D01*
X02822Y01322D02*
X03335Y01835D01*
X03685*
X02Y01378D02*
X02004Y01374D01*
X02Y01378D02*
Y0143D01*
X02035Y01735D02*
Y01805D01*
X0182Y01589D02*
X01889D01*
X01082Y00317D02*
X01146D01*
X02125Y01116D02*
Y01161D01*
X01023Y00299D02*
Y00399D01*
X01044Y0042*
X01082*
X01185Y0025D02*
X01503D01*
X01023Y00299D02*
X01045Y00278D01*
X01157*
X01185Y0025*
X01503D02*
X01838Y00584D01*
Y0074*
X00737Y00394D02*
X00797D01*
Y00573D02*
X00856D01*
X01082Y00471D02*
X01142D01*
X00479Y0075D02*
X0063D01*
X00665Y00715*
X00558Y02882D02*
X00603D01*
X01208Y02354D02*
Y02431D01*
Y02354D02*
X01361Y022D01*
X00602Y02683D02*
X00603Y02684D01*
X00601Y02683D02*
X00602D01*
X00603Y02488D02*
Y0252D01*
Y02488D02*
X00618Y02473D01*
X00638*
G54D34*
X02482Y03193D02*
X02665D01*
X01054D02*
X01237D01*
X02313Y03726D02*
Y03786D01*
X02176Y03718D02*
Y03786D01*
X00867Y03137D02*
Y03561D01*
X00695Y03165D02*
Y03445D01*
X00767Y03517D02*
Y03561D01*
X00173Y02582D02*
X00175Y02584D01*
X00173Y0249D02*
Y02582D01*
X02041Y02784D02*
X02231D01*
X01965Y0286D02*
X02041Y02784D01*
X01965Y0286D02*
Y03012D01*
X02061Y02834D02*
X0221D01*
X02015Y02881D02*
Y02991D01*
Y02881D02*
X02061Y02834D01*
X02125Y03149D02*
Y03193D01*
X02096Y0312D02*
X02125Y03149D01*
X02072Y0312D02*
X02096D01*
X01965Y03012D02*
X02072Y0312D01*
X02093Y0307D02*
X02185D01*
X02015Y02991D02*
X02093Y0307D01*
X00865Y01935D02*
X00965Y01834D01*
X00865Y01935D02*
Y02118D01*
X00965Y01785D02*
Y01834D01*
X01585Y02855D02*
Y0301D01*
X01313Y02787D02*
X01368D01*
X01313Y02587D02*
X01358D01*
X01313Y02837D02*
X01388D01*
X0194Y02491D02*
X01946Y02485D01*
X01872Y02491D02*
X0194D01*
X00923Y01348D02*
Y01483D01*
X0165Y024D02*
Y02481D01*
X01647Y02484D02*
X0165Y02481D01*
X00663Y02629D02*
Y02684D01*
X03145Y02347D02*
Y02445D01*
X03047Y02655D02*
X03145D01*
X01848Y02695D02*
X01946D01*
X01647Y02694D02*
X01744D01*
X03197Y03387D02*
X03294D01*
X03197Y03193D02*
X03294D01*
X00425D02*
X00522D01*
X00425Y03387D02*
X00522D01*
X02575D02*
X02665D01*
X02482D02*
X02575D01*
X0186Y03193D02*
X01951D01*
X01768D02*
X0186D01*
X01865Y03387D02*
X01951D01*
X01768D02*
X01865D01*
X0114D02*
X01237D01*
X01054D02*
X0114D01*
X02295Y03206D02*
X02308Y03193D01*
X02295Y03206D02*
Y03373D01*
X02308Y03387*
X02333Y03411*
Y03561*
Y03707*
X02313Y03726D02*
X02333Y03707D01*
X02176Y03718D02*
X02233Y03662D01*
Y03561D02*
Y03662D01*
X02125Y03387D02*
Y034D01*
Y03193D02*
Y03387D01*
X02233Y03508D02*
Y03561D01*
X02125Y034D02*
X02233Y03508D01*
X02839Y03193D02*
Y03387D01*
Y03414*
X02185Y0307D02*
X02308Y03193D01*
X02839D02*
X02857Y03175D01*
X0301Y028D02*
X03065Y02855D01*
X02839Y03414D02*
X02963Y03538D01*
Y03561*
Y03729*
X02906Y03786D02*
X02963Y03729D01*
X03043Y03786D02*
X03063Y03766D01*
Y03561D02*
Y03766D01*
Y03473D02*
Y03561D01*
X03022Y03432D02*
X03063Y03473D01*
X03022Y03387D02*
Y03432D01*
Y03193D02*
Y03387D01*
X00767Y03561D02*
Y03727D01*
X00708Y03786D02*
X00767Y03727D01*
X00695Y03445D02*
X00767Y03517D01*
X00789Y03059D02*
X00867Y03137D01*
X00639Y03109D02*
X00695Y03165D01*
X0286Y02784D02*
X02895Y0275D01*
X02822Y02784D02*
X0286D01*
X02876Y02837D02*
X02879Y02834D01*
X02881*
X02915Y028*
X0282Y02837D02*
X02876D01*
X0303Y0275D02*
X03115Y02834D01*
X02895Y0275D02*
X0303D01*
X02915Y028D02*
X0301D01*
X01594Y03387D02*
Y03484D01*
X01618Y03508*
Y03561*
Y03766*
X01598Y03786D02*
X01618Y03766D01*
X01411Y03387D02*
Y03396D01*
Y03193D02*
Y03387D01*
X01461Y03786D02*
X0152Y03727D01*
X01411Y03396D02*
X0152Y03505D01*
X00701Y02837D02*
X00783D01*
X00523Y03109D02*
X00639D01*
X00544Y03059D02*
X00789D01*
X00495Y0301D02*
X00544Y03059D01*
X00445Y0303D02*
X00523Y03109D01*
X00445Y02862D02*
Y0303D01*
X01635Y02834D02*
Y0303D01*
X01594Y03071D02*
X01635Y0303D01*
X01594Y03071D02*
Y03193D01*
X01411Y03183D02*
X01585Y0301D01*
X01411Y03183D02*
Y03193D01*
X00867Y03561D02*
Y03633D01*
X00846Y03654D02*
X00867Y03633D01*
X00846Y03654D02*
Y03786D01*
X0142Y0252D02*
Y02574D01*
X0137D02*
X0142D01*
X01358Y02587D02*
X0137Y02574D01*
X00558D02*
X00603D01*
X0282Y02587D02*
X02857D01*
X02869Y02574*
X02906*
Y0252D02*
Y02574D01*
X01594Y03193D02*
Y03387D01*
X03022Y03138D02*
Y03193D01*
Y03138D02*
X03115Y03046D01*
Y02834D02*
Y03046D01*
X02857Y03154D02*
Y03175D01*
Y03154D02*
X02953Y03059D01*
X03007*
X03065Y02855D02*
Y03001D01*
X03007Y03059D02*
X03065Y03001D01*
X00965Y01725D02*
Y01785D01*
X00737Y01176D02*
Y01217D01*
X0077Y0125*
Y01345*
Y01399*
Y01452*
Y01544*
Y01598*
Y01651*
X00819Y017*
X0094*
X00965Y01725*
X00361Y0181D02*
X0043D01*
X0046Y0178*
Y0172D02*
Y0178D01*
Y0172D02*
X0048Y017D01*
X0074D02*
X0077Y01669D01*
Y01651D02*
Y01669D01*
X0006Y017D02*
X0048D01*
X00048Y01712D02*
X0006Y017D01*
X00048Y01712D02*
Y01751D01*
X00865Y02118D02*
X00884Y02137D01*
X00914*
X00714Y02241D02*
X00811D01*
X0078Y02007D02*
Y02104D01*
X01098Y0125D02*
Y01348D01*
X01002Y00865D02*
Y00963D01*
X00731Y00862D02*
Y0096D01*
X00857Y0155D02*
X00923Y01483D01*
X0088Y0155D02*
X01015Y01685D01*
X00857Y0155D02*
X0088D01*
X01015Y01685D02*
Y01785D01*
X0025Y0208D02*
X00305D01*
X0036*
X00419*
X02183Y02684D02*
X02204Y02705D01*
X02183Y02629D02*
Y02684D01*
X02204Y02705D02*
X02204D01*
X0048Y017D02*
X00572D01*
X0074*
X00406Y03387D02*
X00425D01*
X00243Y03224D02*
X00406Y03387D01*
X00504Y02241D02*
Y02338D01*
X00294Y03789D02*
X0035D01*
X00148Y02229D02*
X0025D01*
X00305*
X0036*
X00495Y02883D02*
X00556Y02822D01*
X00686*
X00701Y02837*
X00707Y02772D02*
X00722Y02787D01*
X00783*
X00742Y02737D02*
X00783D01*
X00704Y027D02*
X00705D01*
X00742Y02737*
X00495Y02883D02*
Y0301D01*
X00445Y02862D02*
X00535Y02772D01*
X00707*
X02204Y02705D02*
X02233Y02734D01*
X02251*
X02254Y02737*
X0229*
X02233Y02787D02*
X0229D01*
X02185Y02657D02*
X02186Y02658D01*
X02219*
X02215Y02839D02*
X02287D01*
X02231Y02784D02*
X02233Y02787D01*
X0221Y02834D02*
X02215Y02839D01*
X01388Y02837D02*
X01396Y02829D01*
X01559*
X01585Y02855*
X0152Y03505D02*
Y03727D01*
X01368Y02787D02*
X01376Y02779D01*
X01579*
X01635Y02834*
X00504Y02338D02*
Y02556D01*
X00693Y02689D02*
X00704Y027D01*
X00663Y02684D02*
X00668Y02689D01*
X00693*
X0005Y02327D02*
X00148Y02229D01*
X0005Y02327D02*
Y03545D01*
X00294Y03789*
X00243Y02862D02*
Y03224D01*
Y02862D02*
X00392Y02713D01*
Y02663D02*
Y02713D01*
Y02591D02*
Y02663D01*
X00385Y02584D02*
X00392Y02591D01*
X00504Y02556D02*
X00522Y02574D01*
X00558*
G54D35*
X00357Y00362D02*
Y00515D01*
Y01032*
X00421Y00358D02*
X00466D01*
X00147Y01811D02*
X00148Y0181D01*
X00048Y01811D02*
X00147D01*
X00048D02*
Y01866D01*
X00552Y0202D02*
X0056Y02012D01*
X00305Y0202D02*
X0036D01*
X00552*
X00361Y0186D02*
X00487D01*
X0056Y01787*
X00709Y01832D02*
X0078D01*
X00664Y01787D02*
X00709Y01832D01*
X0056Y01787D02*
X00664D01*
X002Y0202D02*
X0025D01*
X00305*
X002Y0208D02*
D01*
X00112D02*
X00156D01*
X002*
G54D36*
X00367Y03561D03*
X03358Y00903D03*
Y02075D03*
X02223Y02203D03*
X02563Y03561D03*
X01833D03*
X01118D03*
X0123Y00865D03*
G54D37*
X00467Y03561D03*
X00567D03*
X00667D03*
X00767D03*
X00867D03*
X03458Y00903D03*
X03558D03*
X03658D03*
Y01003D03*
X03558D03*
X03458D03*
X03358D03*
X03458Y02075D03*
X03558D03*
X03658D03*
Y02175D03*
X03558D03*
X03458D03*
X03358D03*
X0224Y0024D03*
Y0034D03*
Y0044D03*
Y0054D03*
Y0064D03*
X02123Y02203D03*
X02023D03*
X01923D03*
X01823D03*
X01723D03*
X02663Y03561D03*
X02763D03*
X02863D03*
X02963D03*
X03063D03*
X01933D03*
X02033D03*
X02133D03*
X02233D03*
X02333D03*
X01218D03*
X01318D03*
X01418D03*
X01518D03*
X01618D03*
X0133Y00865D03*
X0143D03*
X0153D03*
X0163D03*
X0173D03*
G54D38*
X0379Y0391D03*
X0016D03*
Y0028D03*
X0379D03*
G54D39*
X0224Y0074D03*
G54D40*
X02176Y03786D03*
X02906D03*
X00708D03*
X01461D03*
G54D41*
X02313Y03786D03*
X03043D03*
X00846D03*
X01598D03*
G54D42*
X00361Y01288D03*
G54D43*
X00486Y01483D03*
X00241D03*
G54D44*
X0268Y0176D03*
Y0157D03*
G54D45*
X00357Y00515D03*
Y01032D03*
G54D46*
X00463Y00636D03*
Y00734D03*
Y00813D03*
Y00911D03*
G54D47*
X01274Y03637D03*
X00516Y03637D03*
X01632Y02223D03*
X00406Y0191D03*
X00089Y01919D03*
X00067Y0202D03*
X01122Y00963D03*
X02181Y01116D03*
X02125D03*
X01312Y0058D03*
X0187Y01116D03*
X01194Y02185D03*
X01185Y0174D03*
X01232Y01703D03*
X0155Y0183D03*
X0244Y02541D03*
X02665D03*
X0259D03*
X02515D03*
X02677Y0298D03*
X02602D03*
X02527D03*
X02452D03*
X02821Y03043D03*
X02234Y02988D03*
X01369Y02986D03*
X01446Y00583D03*
X0214Y00496D03*
X03246Y02159D03*
X02874Y02351D03*
X00466Y00358D03*
X01715Y0058D03*
X01246Y00578D03*
X03034Y02213D03*
X02243Y0249D03*
X02325Y02061D03*
X0227Y02064D03*
X0274Y02176D03*
X02738Y02022D03*
X02719Y0239D03*
X02691Y02351D03*
X01925Y01116D03*
X0156Y0114D03*
X0182Y0104D03*
X01085Y02135D03*
X00725Y025D03*
X00704Y027D03*
X01936Y0379D03*
X0071Y02937D03*
X02513Y01212D03*
X01375Y02937D03*
X02513Y01267D03*
X02767Y03789D03*
X0253Y01875D03*
X02657Y0379D03*
X0253Y0193D03*
X0175Y024D03*
X02366Y02422D03*
X02046Y03789D03*
X02067Y01285D03*
X02714Y03637D03*
X01992D03*
X00558Y02574D03*
X02078Y0252D03*
Y02574D03*
Y02684D03*
X02076Y02628D03*
X02076Y02881D03*
Y02937D03*
X02078Y02992D03*
X01525Y02882D03*
Y02937D03*
X01526Y02992D03*
X00557Y02937D03*
Y02992D03*
X02513Y01439D03*
Y01494D03*
X01883Y02063D03*
X01828D03*
X01995D03*
X0194D03*
X0155Y0161D03*
X0172Y02065D03*
X0149Y0155D03*
X02345Y0172D03*
X02606Y01847D03*
X0277Y0187D03*
X02767Y01443D03*
X02583D03*
X0219Y01675D03*
Y01625D03*
X02345Y01615D03*
X0155Y0132D03*
Y01375D03*
X00569Y03789D03*
X00459Y0379D03*
X01526Y02575D03*
X01525Y0252D03*
X01526Y02684D03*
X02075Y01035D03*
X0213D03*
X0206Y0077D03*
X0205Y00535D03*
X00783Y02492D03*
X0229D03*
X0282D03*
X03011Y0252D03*
Y02574D03*
X03005Y027D03*
X01315Y02505D03*
X00935Y02539D03*
X0101D03*
X01085D03*
X0116D03*
X00945Y0298D03*
X0102D03*
X01095D03*
X0117D03*
X00727Y02988D03*
X00969Y02182D03*
X01324Y03789D03*
X01214Y0379D03*
X01815Y01116D03*
X0176D03*
X01705D03*
X01649Y01114D03*
X02229Y02937D03*
X0287Y02937D03*
X03011Y02992D03*
X03013Y02937D03*
Y02881D03*
X00665Y0165D03*
X00667Y01598D03*
X01225Y00329D03*
X01279D03*
X00583Y00435D03*
X00584Y0049D03*
X00584Y00599D03*
X00739Y00497D03*
X01513Y00731D03*
X0138Y0073D03*
X01312D03*
X01838Y0074D03*
X01807Y007D03*
X01914Y0077D03*
X01978Y00937D03*
X02236Y01116D03*
X02292Y01114D03*
X0376Y0306D03*
X0385Y0206D03*
X0388Y01999D03*
X0373Y0206D03*
X0379D03*
X0373Y03004D03*
X0385Y03D03*
X0256Y01383D03*
X03737Y01989D03*
X02833Y0237D03*
X01715Y0073D03*
X01065Y0174D03*
X02Y0143D03*
X02035Y01735D03*
X01889Y01589D03*
X00737Y00394D03*
X00856Y00573D03*
X01142Y00471D03*
X00686Y00375D03*
X0019Y02289D03*
X00558Y02882D03*
X01208Y02431D03*
X02219Y02658D03*
X00473Y0273D03*
X00638Y02473D03*
G54D48*
X01872Y02491D03*
X0165Y024D03*
X00173Y0249D03*
X03145Y02347D03*
X03047Y02655D03*
X01848Y02695D03*
X01744Y02694D03*
X03294Y03387D03*
Y03193D03*
X00425D03*
Y03387D03*
X02575Y03195D03*
Y03387D03*
X0186Y03193D03*
X01865Y03387D03*
X01145Y03195D03*
X0114Y03387D03*
X00811Y02241D03*
X0078Y02104D03*
X01098Y0125D03*
X01002Y00865D03*
X00731Y00862D03*
X00572Y017D03*
X00504Y02338D03*
X00392Y02663D03*
M02*