%FSTAX23Y23*%
%MOIN*%
%SFA1B1*%

%IPPOS*%
%AMD60*
4,1,8,-0.015000,-0.031500,0.015000,-0.031500,0.024000,-0.022500,0.024000,0.022500,0.015000,0.031500,-0.015000,0.031500,-0.024000,0.022500,-0.024000,-0.022500,-0.015000,-0.031500,0.0*
1,1,0.018000,-0.015000,-0.022500*
1,1,0.018000,0.015000,-0.022500*
1,1,0.018000,0.015000,0.022500*
1,1,0.018000,-0.015000,0.022500*
%
%AMD61*
4,1,8,-0.021500,0.013100,-0.021500,-0.013100,-0.013100,-0.021500,0.013100,-0.021500,0.021500,-0.013100,0.021500,0.013100,0.013100,0.021500,-0.013100,0.021500,-0.021500,0.013100,0.0*
1,1,0.016760,-0.013100,0.013100*
1,1,0.016760,-0.013100,-0.013100*
1,1,0.016760,0.013100,-0.013100*
1,1,0.016760,0.013100,0.013100*
%
%AMD62*
4,1,8,-0.013100,-0.021500,0.013100,-0.021500,0.021500,-0.013100,0.021500,0.013100,0.013100,0.021500,-0.013100,0.021500,-0.021500,0.013100,-0.021500,-0.013100,-0.013100,-0.021500,0.0*
1,1,0.016760,-0.013100,-0.013100*
1,1,0.016760,0.013100,-0.013100*
1,1,0.016760,0.013100,0.013100*
1,1,0.016760,-0.013100,0.013100*
%
%AMD70*
4,1,8,0.034500,-0.005900,0.034500,0.005900,0.024600,0.015800,-0.024600,0.015800,-0.034500,0.005900,-0.034500,-0.005900,-0.024600,-0.015800,0.024600,-0.015800,0.034500,-0.005900,0.0*
1,1,0.019800,0.024600,-0.005900*
1,1,0.019800,0.024600,0.005900*
1,1,0.019800,-0.024600,0.005900*
1,1,0.019800,-0.024600,-0.005900*
%
%AMD71*
4,1,8,-0.005900,-0.034500,0.005900,-0.034500,0.015800,-0.024600,0.015800,0.024600,0.005900,0.034500,-0.005900,0.034500,-0.015800,0.024600,-0.015800,-0.024600,-0.005900,-0.034500,0.0*
1,1,0.019800,-0.005900,-0.024600*
1,1,0.019800,0.005900,-0.024600*
1,1,0.019800,0.005900,0.024600*
1,1,0.019800,-0.005900,0.024600*
%
%AMD91*
4,1,8,0.069800,0.028900,0.028900,0.069800,-0.028900,0.069800,-0.069800,0.028900,-0.069800,-0.028900,-0.028900,-0.069800,0.028900,-0.069800,0.069800,-0.028900,0.069800,0.028900,0.0*
%
%ADD59C,0.060000*%
G04~CAMADD=60~8~0.0~0.0~480.0~630.0~90.0~0.0~15~0.0~0.0~0.0~0.0~0~0.0~0.0~0.0~0.0~0~0.0~0.0~0.0~180.0~480.0~630.0*
%ADD60D60*%
G04~CAMADD=61~8~0.0~0.0~430.0~430.0~83.8~0.0~15~0.0~0.0~0.0~0.0~0~0.0~0.0~0.0~0.0~0~0.0~0.0~0.0~90.0~430.0~430.0*
%ADD61D61*%
G04~CAMADD=62~8~0.0~0.0~430.0~430.0~83.8~0.0~15~0.0~0.0~0.0~0.0~0~0.0~0.0~0.0~0.0~0~0.0~0.0~0.0~180.0~430.0~430.0*
%ADD62D62*%
%ADD63C,0.047370*%
%ADD64R,0.093000X0.115990*%
%ADD65R,0.308000X0.408000*%
%ADD66R,0.073000X0.033000*%
%ADD67R,0.073000X0.128000*%
%ADD68R,0.128000X0.073000*%
%ADD69R,0.115990X0.093000*%
G04~CAMADD=70~8~0.0~0.0~316.2~690.2~99.0~0.0~15~0.0~0.0~0.0~0.0~0~0.0~0.0~0.0~0.0~0~0.0~0.0~0.0~270.0~690.0~316.0*
%ADD70D70*%
G04~CAMADD=71~8~0.0~0.0~316.2~690.2~99.0~0.0~15~0.0~0.0~0.0~0.0~0~0.0~0.0~0.0~0.0~0~0.0~0.0~0.0~180.0~316.0~690.0*
%ADD71D71*%
%ADD72R,0.106430X0.133980*%
%ADD73R,0.074000X0.068000*%
%ADD74R,0.088000X0.078000*%
%ADD75R,0.063120X0.086740*%
%ADD76R,0.068000X0.074000*%
%ADD77R,0.058000X0.058000*%
%ADD78R,0.067840X0.030050*%
%ADD79R,0.030050X0.067840*%
%ADD80R,0.133980X0.106430*%
%ADD81R,0.067060X0.023750*%
%ADD82R,0.073000X0.073000*%
%ADD83C,0.073000*%
%ADD84C,0.204850*%
%ADD85R,0.073000X0.073000*%
%ADD86C,0.080830*%
%ADD87R,0.080830X0.080830*%
%ADD88O,0.178000X0.088000*%
%ADD89O,0.088000X0.178000*%
%ADD90C,0.056000*%
G04~CAMADD=91~4~0.0~0.0~1395.2~1395.2~0.0~408.6~0~0.0~0.0~0.0~0.0~0~0.0~0.0~0.0~0.0~0~0.0~0.0~0.0~315.0~1395.2~1395.2*
%ADD91D91*%
%ADD92O,0.120200X0.064100*%
%LNcontrolboard-1*%
%LPD*%
G54D59*
X00946Y00775D02*
D01*
X00945Y00776*
X00945Y00778*
X00945Y00779*
X00945Y00781*
X00944Y00782*
X00944Y00783*
X00943Y00785*
X00942Y00786*
X00941Y00787*
X0094Y00789*
X00939Y0079*
X00938Y00791*
X00937Y00792*
X00936Y00793*
X00935Y00794*
X00933Y00794*
X00932Y00795*
X0093Y00795*
X00929Y00796*
X00927Y00796*
X00926Y00796*
X00924Y00796*
X00923*
X00921Y00796*
X0092Y00796*
X00918Y00796*
X00917Y00795*
X00915Y00795*
X00914Y00794*
X00913Y00794*
X00911Y00793*
X0091Y00792*
X00909Y00791*
X00908Y0079*
X00907Y00789*
X00906Y00787*
X00905Y00786*
X00904Y00785*
X00903Y00783*
X00903Y00782*
X00902Y00781*
X00902Y00779*
X00902Y00778*
X00902Y00776*
X00902Y00775*
X00902Y00773*
X00902Y00771*
X00902Y0077*
X00902Y00768*
X00903Y00767*
X00903Y00766*
X00904Y00764*
X00905Y00763*
X00906Y00762*
X00907Y0076*
X00908Y00759*
X00909Y00758*
X0091Y00757*
X00911Y00756*
X00913Y00755*
X00914Y00755*
X00915Y00754*
X00917Y00754*
X00918Y00753*
X0092Y00753*
X00921Y00753*
X00923Y00753*
X00924*
X00926Y00753*
X00927Y00753*
X00929Y00753*
X0093Y00754*
X00932Y00754*
X00933Y00755*
X00935Y00755*
X00936Y00756*
X00937Y00757*
X00938Y00758*
X00939Y00759*
X0094Y0076*
X00941Y00762*
X00942Y00763*
X00943Y00764*
X00944Y00766*
X00944Y00767*
X00945Y00768*
X00945Y0077*
X00945Y00771*
X00945Y00773*
X00946Y00775*
X01835Y02871D02*
D01*
X01834Y02872*
X01834Y02874*
X01834Y02875*
X01834Y02877*
X01833Y02878*
X01833Y02879*
X01832Y02881*
X01831Y02882*
X0183Y02883*
X01829Y02885*
X01828Y02886*
X01827Y02887*
X01826Y02888*
X01825Y02889*
X01824Y0289*
X01822Y0289*
X01821Y02891*
X01819Y02891*
X01818Y02892*
X01816Y02892*
X01815Y02892*
X01813Y02892*
X01812*
X0181Y02892*
X01809Y02892*
X01807Y02892*
X01806Y02891*
X01804Y02891*
X01803Y0289*
X01802Y0289*
X018Y02889*
X01799Y02888*
X01798Y02887*
X01797Y02886*
X01796Y02885*
X01795Y02883*
X01794Y02882*
X01793Y02881*
X01792Y02879*
X01792Y02878*
X01791Y02877*
X01791Y02875*
X01791Y02874*
X01791Y02872*
X01791Y02871*
X01791Y02869*
X01791Y02867*
X01791Y02866*
X01791Y02864*
X01792Y02863*
X01792Y02862*
X01793Y0286*
X01794Y02859*
X01795Y02858*
X01796Y02856*
X01797Y02855*
X01798Y02854*
X01799Y02853*
X018Y02852*
X01802Y02851*
X01803Y02851*
X01804Y0285*
X01806Y0285*
X01807Y02849*
X01809Y02849*
X0181Y02849*
X01812Y02849*
X01813*
X01815Y02849*
X01816Y02849*
X01818Y02849*
X01819Y0285*
X01821Y0285*
X01822Y02851*
X01824Y02851*
X01825Y02852*
X01826Y02853*
X01827Y02854*
X01828Y02855*
X01829Y02856*
X0183Y02858*
X01831Y02859*
X01832Y0286*
X01833Y02862*
X01833Y02863*
X01834Y02864*
X01834Y02866*
X01834Y02867*
X01834Y02869*
X01835Y02871*
X01627Y01957D02*
D01*
X01626Y01958*
X01626Y0196*
X01626Y01961*
X01626Y01963*
X01625Y01964*
X01625Y01965*
X01624Y01967*
X01623Y01968*
X01622Y01969*
X01621Y01971*
X0162Y01972*
X01619Y01973*
X01618Y01974*
X01617Y01975*
X01616Y01976*
X01614Y01976*
X01613Y01977*
X01611Y01977*
X0161Y01978*
X01608Y01978*
X01607Y01978*
X01605Y01978*
X01604*
X01602Y01978*
X01601Y01978*
X01599Y01978*
X01598Y01977*
X01596Y01977*
X01595Y01976*
X01594Y01976*
X01592Y01975*
X01591Y01974*
X0159Y01973*
X01589Y01972*
X01588Y01971*
X01587Y01969*
X01586Y01968*
X01585Y01967*
X01584Y01965*
X01584Y01964*
X01583Y01963*
X01583Y01961*
X01583Y0196*
X01583Y01958*
X01583Y01957*
X01583Y01955*
X01583Y01953*
X01583Y01952*
X01583Y0195*
X01584Y01949*
X01584Y01948*
X01585Y01946*
X01586Y01945*
X01587Y01944*
X01588Y01942*
X01589Y01941*
X0159Y0194*
X01591Y01939*
X01592Y01938*
X01594Y01937*
X01595Y01937*
X01596Y01936*
X01598Y01936*
X01599Y01935*
X01601Y01935*
X01602Y01935*
X01604Y01935*
X01605*
X01607Y01935*
X01608Y01935*
X0161Y01935*
X01611Y01936*
X01613Y01936*
X01614Y01937*
X01616Y01937*
X01617Y01938*
X01618Y01939*
X01619Y0194*
X0162Y01941*
X01621Y01942*
X01622Y01944*
X01623Y01945*
X01624Y01946*
X01625Y01948*
X01625Y01949*
X01626Y0195*
X01626Y01952*
X01626Y01953*
X01626Y01955*
X01627Y01957*
G54D60*
X00512Y01175D03*
X00442D03*
G54D61*
X02325Y0196D03*
X02215D03*
X0216D03*
X02105D03*
X0172D03*
X01775D03*
X0183D03*
X01885D03*
X0194D03*
X01995D03*
X0227D03*
X0214Y0039D03*
Y0045D03*
X03226Y00925D03*
Y00865D03*
X01245Y00685D03*
Y00625D03*
X01647Y00685D03*
Y00625D03*
X0158Y00685D03*
Y00625D03*
X01379Y00685D03*
Y00625D03*
X01446Y00685D03*
Y00625D03*
X02712Y03684D03*
Y03744D03*
X01991Y03684D03*
Y03744D03*
X02767Y03684D03*
Y03744D03*
X02604Y03684D03*
Y03744D03*
X02046Y03684D03*
Y03744D03*
X02658Y03684D03*
Y03744D03*
X0255D03*
Y03684D03*
X01882D03*
Y03744D03*
X01937Y03684D03*
Y03744D03*
X01828D03*
Y03684D03*
X0127D03*
Y03744D03*
X01324Y03684D03*
Y03744D03*
X01163Y03684D03*
Y03744D03*
X01216Y03684D03*
Y03744D03*
X01109D03*
Y03684D03*
X01167Y01023D03*
Y00963D03*
X01222Y01023D03*
Y00963D03*
X01277Y01023D03*
Y00963D03*
X0025Y02229D03*
Y02289D03*
X00305Y02229D03*
Y02289D03*
X0036Y02229D03*
Y02289D03*
X00048Y01926D03*
Y01866D03*
X00112Y0202D03*
Y0208D03*
X00048Y01811D03*
Y01751D03*
X002Y0208D03*
Y0202D03*
X0025D03*
Y0208D03*
X00305Y0202D03*
Y0208D03*
X0036Y0202D03*
Y0208D03*
X00969Y02137D03*
Y02077D03*
X00914D03*
Y02137D03*
X0213Y0094D03*
Y01D03*
X01995Y0202D03*
X0187Y01221D03*
Y01161D03*
X0194Y0202D03*
X01925Y01221D03*
Y01161D03*
X02408Y01695D03*
Y01755D03*
X0202Y01D03*
Y0094D03*
X02075D03*
Y01D03*
X02408Y01645D03*
Y01585D03*
X01815Y01221D03*
Y01161D03*
X01759Y01221D03*
Y01161D03*
X02105Y0202D03*
X0216D03*
X02215D03*
X0172D03*
X01775D03*
X0183D03*
X01885D03*
X02292Y01221D03*
Y01161D03*
X02237Y01221D03*
Y01161D03*
X01649Y01221D03*
Y01161D03*
X0227Y0202D03*
X01704Y01221D03*
Y01161D03*
X02325Y0202D03*
X02181Y01221D03*
Y01161D03*
X02126Y01221D03*
Y01161D03*
X01226Y00433D03*
Y00373D03*
X0128Y00433D03*
Y00373D03*
X01715Y00625D03*
Y00685D03*
X01312Y00625D03*
Y00685D03*
X01513D03*
Y00625D03*
X0035Y03744D03*
Y03684D03*
X00405D03*
Y03744D03*
X00459Y03684D03*
Y03744D03*
X00514Y03684D03*
Y03744D03*
X00569Y03684D03*
Y03744D03*
G54D62*
X0315Y02213D03*
X0309D03*
X02966Y02684D03*
X02906D03*
Y02629D03*
X02966D03*
X02123Y0252D03*
X02183D03*
Y02574D03*
X02123D03*
X0148Y02684D03*
X0142D03*
Y02629D03*
X0148D03*
X00603Y0252D03*
X00663D03*
Y02574D03*
X00603D03*
X02906Y02992D03*
X02966D03*
X02906Y02937D03*
X02966D03*
X02906Y02882D03*
X02966D03*
X02183D03*
X02123D03*
X02183Y02937D03*
X02123D03*
X02183Y02992D03*
X02123D03*
X0142D03*
X0148D03*
X0142Y02937D03*
X0148D03*
X0142Y02882D03*
X0148D03*
X00663D03*
X00603D03*
X00663Y02937D03*
X00603D03*
X00663Y02992D03*
X00603D03*
X02906Y02574D03*
X02966D03*
X02906Y0252D03*
X02966D03*
X02183Y02629D03*
X02123D03*
X02183Y02684D03*
X02123D03*
X0142Y02574D03*
X0148D03*
X0142Y0252D03*
X0148D03*
X00663Y02629D03*
X00603D03*
X00663Y02684D03*
X00603D03*
X0077Y01651D03*
X0071D03*
X0077Y01598D03*
X0071D03*
X0077Y01544D03*
X0071D03*
Y01452D03*
X0077D03*
X0071Y01399D03*
X0077D03*
X0071Y01345D03*
X0077D03*
X012Y02136D03*
X0114D03*
X012Y02081D03*
X0114D03*
Y02026D03*
X012D03*
Y01951D03*
X0114D03*
Y01841D03*
X012D03*
X0114Y01896D03*
X012D03*
X0114Y01786D03*
X012D03*
X02408Y01439D03*
X02468D03*
X02408Y01494D03*
X02468D03*
X01594Y01612D03*
X01654D03*
X01594Y01667D03*
X01654D03*
X01594Y01721D03*
X01654D03*
Y01321D03*
X01594D03*
Y01776D03*
X01654D03*
Y01376D03*
X01594D03*
X01654Y01431D03*
X01594D03*
X01654Y01486D03*
X01594D03*
X01654Y0183D03*
X01594D03*
X02468Y01322D03*
X02408D03*
X02468Y01267D03*
X02408D03*
X02468Y01212D03*
X02408D03*
X02425Y0193D03*
X02485D03*
X02408Y01157D03*
X02468D03*
X02408Y01102D03*
X02468D03*
X02425Y01875D03*
X02485D03*
X00688Y0049D03*
X00628D03*
X00687Y00435D03*
X00627D03*
X00687Y00599D03*
X00627D03*
X0042Y00359D03*
X0036D03*
X00689Y00545D03*
X00629D03*
G54D63*
X00924Y00775D03*
X01813Y02871D03*
X01605Y01957D03*
G54D64*
X03197Y03193D03*
X03022D03*
X02665D03*
X02839D03*
X01951D03*
X02125D03*
X02482D03*
X02308D03*
X02125Y03387D03*
X01951D03*
X02308D03*
X02482D03*
X03022D03*
X03197D03*
X02839D03*
X02665D03*
X01054Y03193D03*
X0088D03*
X00522D03*
X00697D03*
X01768D03*
X01594D03*
X01237D03*
X01411D03*
X0088Y03387D03*
X01054D03*
X00697D03*
X00522D03*
X01594D03*
X01768D03*
X01411D03*
X01237D03*
X01098Y01348D03*
X00923D03*
G54D65*
X02555Y02762D03*
X01048D03*
G54D66*
X0282Y02987D03*
Y02937D03*
Y02887D03*
Y02837D03*
Y02787D03*
Y02737D03*
Y02687D03*
Y02637D03*
Y02587D03*
Y02537D03*
X0229D03*
Y02587D03*
Y02637D03*
Y02687D03*
Y02737D03*
Y02787D03*
Y02837D03*
Y02887D03*
Y02937D03*
Y02987D03*
X01313D03*
Y02937D03*
Y02887D03*
Y02837D03*
Y02787D03*
Y02737D03*
Y02687D03*
Y02637D03*
Y02587D03*
Y02537D03*
X00783D03*
Y02587D03*
Y02637D03*
Y02687D03*
Y02737D03*
Y02787D03*
Y02837D03*
Y02887D03*
Y02937D03*
Y02987D03*
G54D67*
X03145Y02655D03*
Y02445D03*
X01946Y02695D03*
Y02485D03*
X01647Y02694D03*
Y02484D03*
X00737Y01176D03*
Y00966D03*
X01002Y01173D03*
Y00963D03*
G54D68*
X00385Y02584D03*
X00175D03*
X00504Y02241D03*
X00714D03*
G54D69*
X0078Y02007D03*
Y01832D03*
G54D70*
X00148Y0191D03*
Y0186D03*
Y0181D03*
Y0176D03*
X00361Y0191D03*
Y0186D03*
Y0181D03*
Y0176D03*
G54D71*
X01065Y01998D03*
X01015D03*
X00965D03*
X00915D03*
X01065Y01785D03*
X01015D03*
X00965D03*
X00915D03*
G54D72*
X00857Y0155D03*
X01082D03*
G54D73*
X0206Y01212D03*
Y01092D03*
G54D74*
X0251Y0158D03*
Y0175D03*
G54D75*
X02052Y00708D03*
Y00471D03*
X01907Y00708D03*
Y00471D03*
G54D76*
X02375Y02214D03*
X02495D03*
G54D77*
X01546Y01549D03*
X01646D03*
G54D78*
X0182Y01747D03*
Y01715D03*
Y01684D03*
Y01652D03*
Y01621D03*
Y01589D03*
Y01558D03*
Y01527D03*
Y01495D03*
Y01464D03*
Y01432D03*
X02251D03*
Y01464D03*
Y01495D03*
Y01527D03*
Y01558D03*
Y01589D03*
Y01621D03*
Y01652D03*
Y01684D03*
Y01715D03*
Y01747D03*
G54D79*
X01878Y01374D03*
X01909D03*
X01941D03*
X01972D03*
X02004D03*
X02035D03*
X02067D03*
X02098D03*
X0213D03*
X02161D03*
X02193D03*
Y01805D03*
X02161D03*
X0213D03*
X02098D03*
X02067D03*
X02035D03*
X02004D03*
X01972D03*
X01941D03*
X01909D03*
X01878D03*
G54D80*
X0056Y01787D03*
Y02012D03*
G54D81*
X01082Y00317D03*
Y00343D03*
Y00368D03*
Y00394D03*
Y0042D03*
Y00445D03*
Y00471D03*
Y00496D03*
Y00522D03*
Y00547D03*
Y00573D03*
Y00599D03*
Y00624D03*
Y0065D03*
X00797D03*
Y00624D03*
Y00599D03*
Y00573D03*
Y00547D03*
Y00522D03*
Y00496D03*
Y00471D03*
Y00445D03*
Y0042D03*
Y00394D03*
Y00368D03*
Y00343D03*
Y00317D03*
G54D82*
X00367Y03561D03*
X03358Y00903D03*
Y02075D03*
X02223Y02203D03*
X02563Y03561D03*
X01833D03*
X01118D03*
X0123Y00865D03*
G54D83*
X00467Y03561D03*
X00567D03*
X00667D03*
X00767D03*
X00867D03*
X03458Y00903D03*
X03558D03*
X03658D03*
Y01003D03*
X03558D03*
X03458D03*
X03358D03*
X03458Y02075D03*
X03558D03*
X03658D03*
Y02175D03*
X03558D03*
X03458D03*
X03358D03*
X0224Y0024D03*
Y0034D03*
Y0044D03*
Y0054D03*
Y0064D03*
X02123Y02203D03*
X02023D03*
X01923D03*
X01823D03*
X01723D03*
X02663Y03561D03*
X02763D03*
X02863D03*
X02963D03*
X03063D03*
X01933D03*
X02033D03*
X02133D03*
X02233D03*
X02333D03*
X01218D03*
X01318D03*
X01418D03*
X01518D03*
X01618D03*
X0133Y00865D03*
X0143D03*
X0153D03*
X0163D03*
X0173D03*
G54D84*
X0379Y0391D03*
X0016D03*
Y0028D03*
X0379D03*
G54D85*
X0224Y0074D03*
G54D86*
X02176Y03786D03*
X02906D03*
X00708D03*
X01461D03*
G54D87*
X02313Y03786D03*
X03043D03*
X00846D03*
X01598D03*
G54D88*
X00361Y01288D03*
G54D89*
X00486Y01483D03*
X00241D03*
G54D90*
X0268Y0176D03*
Y0157D03*
G54D91*
X00357Y00515D03*
Y01032D03*
G54D92*
X00463Y00636D03*
Y00734D03*
Y00813D03*
Y00911D03*
M02*